<?xml version="1.0" encoding="utf-8"?>
<!-- Generator: Adobe Illustrator 24.2.3, SVG Export Plug-In . SVG Version: 6.00 Build 0)  -->
<svg version="1.1" id="Layer_1" xmlns="http://www.w3.org/2000/svg" xmlns:xlink="http://www.w3.org/1999/xlink" x="0px" y="0px"
	 viewBox="0 0 800 534" style="enable-background:new 0 0 800 534;" xml:space="preserve">
<style type="text/css">
	.st0{fill:#F2933D;stroke:#000000;stroke-width:0.4;stroke-miterlimit:9;}
	.st1{fill:none;}
</style>
<polygon class="st0" points="687.7,121.3 687,119 686,117.1 685.3,116.3 683.7,114.9 681.9,113.7 676.5,111.4 674.7,111 673.8,111 
	672.8,111.2 671,112.1 665.9,116.3 663.9,117.5 662.8,117.9 660.6,118.5 657.2,118.8 653.9,118.6 652,118.2 650.5,117.7 
	648.7,116.6 645.4,113.7 642.3,118.1 639.9,123.1 638.6,125.1 636.4,127.9 633.8,130.4 630.9,132.4 626.9,134.2 621.5,137.3 
	617.5,139.1 611.9,141.9 608.7,142.6 601.9,143.4 599.7,143.8 597.7,144.5 593.1,146.7 590.8,147.3 587.1,147.7 579.8,148 
	576.2,148.6 574.1,149.3 569.5,151.6 566,152.4 562.4,152.7 557.4,152.7 546.4,152.3 537.7,152.6 505.9,152.7 502.1,152.7 
	498.4,152.4 496,151.9 493.8,151.2 489.3,148.7 485.2,147 480.7,144.5 476.9,142.9 476,142.5 474.5,141.3 473.4,139.8 473.1,139 
	472.9,137.9 473.1,136.9 474,135.3 474.6,134.6 476.1,133.5 480.8,131.4 483.7,129.3 486.6,126.8 489.2,124.1 490.9,122.2 
	492.4,120.2 493.5,118 494.2,115.8 495.5,107.7 489.6,104.6 485.5,102.9 480,99.9 473.6,98 469.8,96.5 469,95.4 467.7,94.8 
	465,94.5 462.9,94.8 461,95.4 457.4,97.2 455.3,98 452.9,98.5 446.7,99.2 444.3,99.7 442.1,100.4 437.5,102.7 435.3,103.3 
	430,104.5 428,105.2 424.5,106.8 422.7,107.3 421.5,107.5 417.5,110.8 412.7,115.1 410.1,117 408.3,118 405.3,119.3 399.8,122.4 
	395.8,124.1 390.4,127.2 386.4,128.9 380.9,132.1 377,133.9 375.2,135.1 369.4,140 366.8,141.8 362.8,143.6 357.4,146.8 
	353.4,148.5 347.9,151.5 345.7,152.1 338.6,153.6 338.9,160.9 339.6,165.5 340.2,167.6 342,171.4 342.7,173.6 343.1,176.1 
	343.8,182.4 344.3,184.9 345,187.1 347.1,191.9 347.6,194.3 348.5,201.9 349,204.4 349.7,206.5 351.8,211.4 352.3,213.6 
	352.8,217.1 353.2,225 348.6,226.5 343,229.3 339.4,230.1 333.3,230.8 330.9,231.2 328.7,231.9 324.1,234.2 319.8,235.3 316.6,236 
	314.6,236.8 310,239.3 306,241 300.6,244.2 296.6,246 292.2,248.6 290.1,249.3 287.9,249.6 284.5,249.5 282.4,248.9 276.9,246.2 
	274.8,245.5 269.4,244.2 267.5,243.4 262.8,241.1 260.6,240.5 255.7,240 249.6,239.9 244.7,240.1 241.1,240.7 239,241.5 
	234.4,243.7 232.3,244.3 226.9,245.5 225.9,245.9 223.9,247 222.1,248.4 220.4,250 218,252.6 216.5,254.4 214.8,257.4 213.8,260.5 
	207.8,259.8 203.7,259.5 198.4,259.4 193.2,259.7 190.6,260 188.2,260.7 182.5,263.2 180.3,263.8 175.3,264.3 168.9,264.4 
	165.5,267.2 163.7,268.4 161.7,269.5 157.5,271.2 154,275.1 152,277.6 150.9,279.4 149.5,282.7 148.6,284.5 147.4,286.3 146,287.9 
	143.7,290.2 142,291.4 140.3,292.3 138.3,292.8 135.2,298 133.1,300.5 130.6,302.4 125.8,304.9 122.1,307.7 118.7,310.9 
	116.3,313.5 114.8,315.3 113.6,317.3 113.1,318.3 112.4,320.6 112.1,322.9 112,325.3 112.2,332.6 113.1,339.8 112.5,342.4 
	112.2,345.9 112.4,349.4 113,351.7 114.1,353.8 116.2,356.6 120.2,360.9 123.7,364 126.5,365.9 130.5,367.8 134.2,369.7 
	136.1,370.6 139.4,371.3 146.1,371.9 149.4,372.7 151.3,373.6 154.9,375.6 158.9,377.3 162.2,379.3 166.5,383.9 171.4,389.1 
	174.9,392.6 177.9,395.4 182.8,395.9 187.5,396.1 192.1,396 195.5,395.4 197.5,394.6 202.1,392.1 206.1,390.3 211.4,387.1 
	215.4,385.3 219,383.2 220.9,382.3 223.1,381.7 226.5,381.3 229.9,381.4 232.2,381.7 234.3,382.4 235.3,382.8 239.8,385.4 
	243.8,387.2 247.4,389.2 249.2,390.1 252.5,390.9 259.3,391.6 261.5,392 263.5,392.7 268.1,395 270.2,395.6 275.6,396.8 
	277.6,397.6 282.3,399.8 284.4,400.4 288.7,401.3 290.8,402 291.8,402.6 293.8,403.9 296.5,406.3 300.8,410.6 305.8,416 
	308.1,418.9 309.5,420.9 312.5,426.6 313.9,428.1 315.4,429.3 320.1,431.5 324.5,433.9 327.9,434.6 334.3,435.5 336.8,436.1 
	339.1,436.9 342.3,438.5 343.5,439 345.5,439.4 347.5,439.5 349.4,439.3 350.9,438.7 351.9,437.9 357,434.7 361.4,431.8 
	366.3,429.4 368.2,428.2 370.8,425.9 377.5,419.3 379.3,417.9 381.2,416.6 385.2,414.8 390.6,411.6 394.6,409.9 398.2,407.9 
	400.1,407 403.4,406.2 409,405.4 412.7,405.8 417.7,406 438,406.1 443,405.9 446.5,405.1 448.4,404.2 452,402.2 455,400.9 
	457,399.7 458.8,398.3 460.6,396.7 468.3,388.8 471.8,385.5 474.5,383.6 475.5,383.2 477.4,382.6 479.8,378.1 481.7,375.3 
	484.6,371.9 486.2,370.4 487.9,369 489.7,367.9 493.7,366.1 499.2,363 504.1,361 510.9,357.2 513.6,355.9 518,353.3 522,351.6 
	527.6,348.7 529.7,348 534,347.1 536.1,346.5 540.8,344.3 542.8,343.6 545,343.3 550.6,342.9 552.8,342.6 555,341.9 556.8,340.8 
	558.3,339.3 559.4,337.4 559.7,336.3 560,334 560,331.7 559.5,329.5 558.8,327.6 557.4,325.1 556.7,323.4 556.6,321.4 556.8,320.5 
	557.2,319.6 558.5,318.2 564.2,314.7 570.1,312.1 574.7,309.3 580.4,306.3 587.2,301.1 589,300 591.9,298.6 593.7,297.5 
	595.2,296.1 595.9,295.3 597,293.5 597.4,292.5 598.5,287 599.1,284.8 600,282.9 603.5,276.7 602.9,270.9 602.7,265.9 602.7,245.7 
	602.9,239.5 603.4,237.1 604.1,234.9 606.5,230.2 607.8,227.2 608.9,225.2 611,222.4 617.4,215.4 619.5,212.7 620.7,210.8 
	623.1,205.7 625.2,202.9 629.1,198.5 633.4,194.5 636.2,192.6 640.2,190.8 645.6,187.7 649.7,185.9 655.1,182.8 659.1,181.1 
	663.5,178.9 665.3,178.4 666.5,178.2 671.3,174.4 674,171.9 676.3,169.1 677.6,167.1 678.1,166 679.4,162.9 681.7,158.2 
	682.5,156.1 682.9,153.8 683.5,146.8 683.8,144.5 684.5,142.5 686.1,138.9 686.6,137 686.7,135.8 687.6,130.8 687.9,128.4 
	688,124.8 "/>
<path class="st1" d="M15,10"/>
</svg>
