<?xml version="1.0" encoding="utf-8"?>
<!-- Generator: Adobe Illustrator 24.2.3, SVG Export Plug-In . SVG Version: 6.00 Build 0)  -->
<svg version="1.1" id="Layer_1" xmlns="http://www.w3.org/2000/svg" xmlns:xlink="http://www.w3.org/1999/xlink" x="0px" y="0px"
	 viewBox="0 0 800 534" style="enable-background:new 0 0 800 534;" xml:space="preserve">
<style type="text/css">
	.st0{fill:#F2933D;stroke:#000000;stroke-width:0.4;stroke-miterlimit:9;}
	.st1{fill:none;}
</style>
<polygon class="st0" points="615.1,133.8 614.9,131.2 614.4,128.8 612.9,125.6 612.5,124.1 612.2,122.5 612,120.8 611.9,113.9 
	612.3,107.1 611.2,106.5 609.7,106 608,105.8 606.2,105.6 602.5,105.5 582.4,105.6 579.9,105.8 578.3,106.1 576.9,106.6 
	573.8,108.1 572.3,108.6 569,108.9 564.9,108.8 562.5,108.4 561,107.9 558,106.3 555.3,105.1 552.3,103.3 549.1,101.7 548,100.9 
	547,99.9 545.9,98.1 543.2,92.2 542.8,90.7 542.1,87 541.6,85.6 540,82.4 538.9,79.7 536.8,75.9 535.3,72.5 533.6,69.4 532.5,66.7 
	530.9,63.5 530.4,62.1 530.2,60.5 530,56.6 526.9,56.4 524.6,56 523.3,55.5 520.3,53.9 518.8,53.5 518.1,53.4 516.6,53.4 
	515.1,53.6 514.4,53.9 513.1,54.6 511.3,56.1 499.7,68.3 497.4,70.5 495.6,71.9 494.3,72.6 492.3,73.5 488.7,75.6 486,76.7 
	482.9,78.5 479.6,80 476,82.1 471.4,83.7 470,84.1 465.3,87.6 464.1,88.3 463.5,88.5 462.3,88.7 461.2,88.7 460.6,88.5 459.3,87.9 
	457.7,86.5 447.8,76.1 444.7,72.8 443.2,73.1 441.8,73.5 440.5,74.1 438.1,75.4 435.4,76.7 433.7,77.9 429.8,81.1 428.6,81.9 
	426.6,82.8 425.3,83.5 423.6,84.8 421.5,86.9 420.2,88.7 419.6,90 418.8,92.1 417.2,95.2 417,95.8 416.7,97.1 410.9,100.8 
	409.6,101.5 408.2,101.9 402.2,103.3 402.2,103.9 402.1,104.7 400.7,106.9 397.9,108.2 394.4,109.4 391.4,111.1 390,111.6 
	388.5,111.8 387,111.8 385.6,111.6 384.1,111 382.2,109.6 380.5,107.9 369.7,96.5 367.6,94.1 366.7,92.7 366.1,91.3 365.3,86.8 
	364.8,85.4 362.6,81.2 361.8,80.1 360.7,79.2 357.3,77.2 356,76.6 354.6,76.2 350.8,75.4 349.8,80.8 349.3,82.3 348.7,83.6 
	346.7,87.1 345.9,88.2 345.4,88.6 343.2,90.1 340.9,92.2 338.8,94.5 337.2,96.8 336.4,97.8 335.8,98.1 334.6,98.6 329.5,99.2 
	328.1,99.6 326.8,100.1 324.4,101.4 321.7,102.6 318.7,104.3 316.1,105.6 314.7,106.3 313.5,107.3 312.3,108.4 310.3,110.9 
	308.4,114.8 307,117.4 306.4,118.7 305.9,120.9 305.3,126.4 304.7,128.5 303.1,131.7 301.9,134.5 299,139.4 296.6,144.7 
	295.5,147.5 293.7,151.3 293.3,152.8 293,154.3 292.4,157.3 291.5,160.5 287.2,167.6 286,170.3 284,174.1 282.9,176.9 280.9,180.6 
	279.8,183.4 278.5,185.3 277,187.1 273.6,190.5 272.5,191.6 271.2,192.5 269.9,193.2 267.9,194 264.3,196.1 261.5,197.2 258.5,199 
	255.9,200.2 254.7,200.9 253.6,201.8 252.5,202.8 250.3,205.5 245.8,207.2 243.9,208.4 240.8,211 239.6,211.9 238.2,212.5 
	235.4,213.5 233.3,214.6 232.6,217.7 232.2,219.2 230.7,222.4 230.2,223.8 229.9,225.3 229.4,230.8 229,232.3 228.7,232.9 
	227.1,236.1 226,238.8 223.9,242.6 222.8,245.3 220.8,249.1 219.6,251.9 217.6,255.6 216.5,258.4 214.5,262.2 213.3,264.9 
	212.4,266.2 211.5,267.5 207.5,271.7 207.3,274.9 207,277.2 206.5,278.6 205.1,281.8 204.7,283.3 204.1,286.2 209.1,289.5 
	211,290.5 213.3,291.1 217.4,291.6 219,291.8 220.4,292.3 223.6,293.8 225,294.2 227.8,294.8 230.5,294.6 232.7,294.6 234.2,294.7 
	235.7,295.2 236.9,295.9 238.1,296.8 239.1,297.8 240.6,299.5 241.7,301.3 242.8,304.1 244.8,307.9 245.9,310.7 247.9,314.4 
	249.1,317.2 250.3,319 253,322.4 254.2,324.2 255.4,327 257.4,330.7 259.4,336.6 263.2,343 263.6,343.8 264,345.5 264.3,348 
	264.2,351.5 263.8,354.1 263.1,356.6 261.6,360.1 260.5,362.9 259.8,364.1 258.9,365.3 257.4,367 254.8,369.7 252.1,372.4 
	250.5,373.9 249.3,374.8 248.1,375.5 246,376.5 244.8,377.1 243.7,377.9 242.6,378.9 241.1,380.5 240.4,381.7 239.8,382.9 
	239.7,383.5 239.6,384.5 237.1,385.4 233.6,386.3 232.2,387 230.4,388.4 225.8,392.8 224.7,393.8 223.5,394.7 222.8,395.1 
	220.9,396.1 219.6,396.8 218.5,397.6 215.1,400.4 214,401.3 212.7,402 210.7,402.8 207.1,404.9 204.4,406.1 203.2,406.9 201,408.8 
	199.3,410.2 198.2,411.1 197,411.7 194.9,412.7 191.9,414.4 190.2,415.1 186.7,416.3 185.3,416.7 185.1,437.9 185.1,449.1 
	184.8,454.9 188.3,454.5 191.8,454.4 194.3,454.5 196.7,454.9 198.1,455.4 201.2,457.1 203.8,458.3 207.4,460.4 210.1,461.6 
	213.2,463.3 214.5,463.8 216.7,464.3 216.8,468.2 217.1,469.8 217.6,471.2 219.2,474.4 220.4,477.1 221.1,478.3 223,480.6 
	224.6,479.2 225.8,478.5 227.2,477.9 227.9,477.7 230.3,477.4 236.9,477.3 240.1,477 242.3,476.3 245.3,474.8 246.9,474.3 
	248.6,474.1 251,474.1 253.5,474.5 254.3,474.8 255.5,475.6 257.7,477.4 265.6,477.5 269.1,477.4 271.6,477.1 273.2,476.7 
	274.5,476.1 280.2,473.2 281.3,472.4 285.3,469.1 286.4,468.3 289,467 290.6,465.7 291.9,464 293.2,461.4 294,460.2 296.7,456.9 
	297.5,455.7 298.1,454.4 298.2,453.7 298.3,452.2 297.9,450.8 296.4,447.7 295.2,444.1 293.9,441.3 297.1,436.6 298.1,434.7 
	298.4,433.9 298.7,432.4 299,427.7 299.3,426.2 299.5,425.5 300,424.1 301.3,421.6 302.5,418.9 303.8,417 305.8,414.6 308.5,411.8 
	311.3,409 313.1,407.5 314.9,406.2 318.2,404.6 319.3,403.8 323.2,400.6 324.4,399.8 325.5,399.3 327,397.5 327.9,396.7 
	328.8,396.1 330.3,395.3 331.4,394.5 332.5,393.6 334.1,392 360.5,364.8 363.2,362.2 364.3,361.3 365.5,360.5 368.2,359.3 
	371.2,357.6 372.4,357.2 374.7,356.7 379.5,351.8 381.9,349.5 383.8,348 390.2,344.6 391.5,344.1 395.1,343.3 396.5,342.9 
	399.7,341.4 401,341 402.5,340.7 407,340.2 408.5,339.9 409.2,339.7 410.5,339 414.1,336.6 416.7,335.6 419.2,334.5 421.4,333.6 
	422.5,333 423.7,332.2 425.3,330.7 427.3,328.4 428.3,326.9 430.1,323.4 430.8,323.1 431.2,322.6 432.5,320.4 433.8,318.8 
	436.3,316 440,312.1 441.7,310.6 443.3,309.2 444.5,308.4 446.7,307.5 447.8,306.9 449,306 450.6,304.6 453.3,301.9 474.1,280.3 
	481.7,272.3 483.3,270.8 484.4,269.9 485.6,269.2 486.2,269 487.6,268.7 488.9,268.6 489.6,268.7 490.9,269 492.2,269.5 
	493.3,270.4 494.8,271.9 496.6,274.2 500.7,278 502.8,280.2 504.8,282.4 505.7,283.5 506.5,284.7 507.1,285.9 507.8,287.5 
	508.4,288.6 508.8,289.2 509.8,290.2 510.9,291 512,291.5 516,293.1 518.4,293.9 519.4,293.9 520.6,293.6 523.5,292.2 525.5,291.4 
	526.8,290.7 527.9,289.8 529,288.8 533.3,284.6 535,283.2 536.2,282.4 538.8,281.2 541.8,279.5 544.6,278.2 545.7,277.6 
	546.9,276.7 548,275.8 552.3,271.5 553.9,270 555.4,268.9 558.7,267.1 561.4,266 564.1,264.9 567.8,262.9 569.9,261.9 571,261.3 
	572.2,260.4 576.1,257.1 577.3,256.4 579.4,255.4 580.5,254.7 581.7,253.9 585,251 586.1,250.2 587.3,249.6 589.4,248.6 593,246.5 
	595.2,245.6 596.3,245 597.5,244.1 601.4,240.8 602.5,240.1 604.7,239.1 605.8,238.4 606.9,237.6 608.6,236.2 606,233.5 
	603.8,231.5 602,230.3 599.9,229.3 598.7,228.7 596.9,227.3 595.2,225.6 594.2,224.3 593.3,222.9 592.1,220.2 590.5,217 590,215.6 
	589.8,214 589.7,212.5 589.7,210.1 589.9,208.5 590.3,207 590.6,206.4 591.8,203.8 592.3,202.5 593.2,198.8 593.6,197.3 
	595.3,193.4 595.8,191.2 596.1,187.2 596.8,184.3 597.6,182.3 600.1,179.5 601.4,177.8 602.1,176.5 603.3,173.8 605,170.7 
	606.2,167.9 607.6,165.7 608.9,162.1 611.2,157.5 612.7,151.7 614.4,147.8 614.8,146.1 615,144.4 615.2,141.8 615.2,137.4 "/>
<path class="st1" d="M15,10"/>
</svg>
