<?xml version="1.0" encoding="utf-8"?>
<!-- Generator: Adobe Illustrator 24.2.3, SVG Export Plug-In . SVG Version: 6.00 Build 0)  -->
<svg version="1.1" id="Layer_1" xmlns="http://www.w3.org/2000/svg" xmlns:xlink="http://www.w3.org/1999/xlink" x="0px" y="0px"
	 viewBox="0 0 800 534" style="enable-background:new 0 0 800 534;" xml:space="preserve">
<style type="text/css">
	.st0{fill:#F2933D;stroke:#000000;stroke-width:0.4;stroke-miterlimit:9;}
</style>
<polygon class="st0" points="719.6,201.5 720,201.1 716.1,199.4 714,200.5 710.9,201.2 707.3,201.6 702.4,201.8 691.5,201.7 
	686.8,202.2 684.5,202.8 683.5,203.2 672,209.2 669.8,210 667.5,210.4 664,210.7 649.8,210.8 644.6,210.3 641.7,209.6 639.9,208.8 
	636.7,207 633.1,205.3 629,203 627.1,202.3 623.9,201.8 618.3,201.6 592.3,201.7 589,202 586.9,202.4 585.1,203.1 581.9,204.7 
	580.1,205.2 578.1,205.2 576.3,204.7 572.3,202.6 568.7,201 563.8,198.1 560.2,196.4 555.2,193.6 551.6,192 546.7,189.2 
	543.1,187.5 540.5,185.6 535.5,181.5 533.8,180.3 530.2,178.6 525.2,175.8 521.6,174.2 516.6,171.4 512.1,169.4 506.1,165.4 
	505,164.1 504.1,161.7 493.9,161.7 490.5,161.5 488.4,161 486.5,160.3 482.4,158.1 478.8,156.4 474.7,154.1 472.7,153.4 470.4,153 
	465.7,152.7 456.1,152.5 451.4,152.6 447.9,152.8 445.6,153.3 444.6,153.7 443,154.8 441.6,156.1 440.5,157.7 438.5,162.1 
	434.9,168.6 433.8,169.9 431.8,171.5 429.3,174.2 427,174.4 425,174.3 423,173.9 422.1,173.6 418,171.4 413.5,169.3 405.3,163.6 
	405.5,154.9 405.8,117.4 405.7,113.6 405.2,109.9 404.4,107.6 403.4,105.6 401.3,102.3 400,101 399.1,100.4 397.1,99.8 392.8,99.5 
	388.9,98.5 384.7,96.5 382.7,95.8 380.6,95.4 373.9,94.6 371.7,94 367.5,92 365.6,91.4 363.4,91 357.8,90.3 355.7,89.9 353.7,89.2 
	350.4,87.6 348.5,86.9 345.2,86.4 338.5,86 335.2,85.6 333.2,85 328.1,82.7 326.2,82.2 324.2,82.1 322.2,82.2 320.2,82.6 315.2,85 
	307.4,87.2 303.2,89.2 301.3,89.9 299.1,90.3 293.5,90.8 290.2,91.5 288.5,92.2 283.1,94.9 276.5,95.2 273.1,96 259.4,102.8 
	257.2,103.4 249.9,104.5 248.2,105.2 245.7,107 244,107.6 241.1,108.1 233.3,108.8 227.7,109.7 225.6,111.2 224,111.9 218.3,113.4 
	216.5,114.1 212.3,116.1 210.1,116.7 206.7,117.1 203.3,117.2 192.8,117.1 189.4,116.7 186.4,115.8 182.2,113.5 178.6,111.8 
	176.9,110.7 172.5,107.4 168.9,105.3 166,107 162.4,108.6 160.6,109.6 158.9,110.9 154.8,114.3 152.2,116.1 148.6,117.8 
	144.5,120.2 141,121.9 139.2,122.9 137.5,124.1 132.6,128.3 130.8,129.5 127.2,131.2 123.1,133.6 121.3,134.2 119.2,134.6 
	117.2,134.8 114,134.7 112,134.4 110,133.8 105.9,131.7 104,130.9 101.9,130.5 99.7,130.2 94.1,130 89.6,130 86.4,130.3 84.4,131 
	83.5,131.4 82,132.7 80.9,134.3 80.5,135.2 80.2,136.2 80,138.2 80.2,140.3 80.6,142.3 84.2,151.1 85.2,152.8 87.1,155 88.6,156.1 
	89.4,156.6 92.1,157.8 95.4,159.6 97.1,160.4 99.1,161 103,161.7 104.9,162.3 109.9,165 113.6,166.6 116.8,168.4 118.6,169.2 
	120.5,169.7 122.6,170 131,170.3 134,170.8 135,171.1 136.8,171.8 140.1,173.6 142.7,174.8 144.4,175.8 146.4,177.8 147.6,179.4 
	151.7,188.3 152.2,190.3 152.4,193.5 152.4,196.8 152.2,200.5 152.4,207.1 152.4,219.3 152.7,224 153.4,227.4 155.3,231.6 
	156,233.7 156.6,237.8 156.8,241.3 156.8,246.1 156.7,249.6 156.4,251.9 155.4,255 153.2,259.3 151.7,263 148.9,268.2 147.4,271.9 
	146.5,273.6 143.1,279 141.8,280.1 139.5,281 139.6,285.8 139.9,287.7 140.3,289.5 141.1,291.3 142.9,294.7 144.4,298.5 
	147.3,303.5 148.8,307.3 150.9,311.6 151.3,312.5 151.8,314.2 152.4,317.8 152.8,319.6 153.6,321.4 154.7,323.2 156.7,325.6 
	163.4,332.5 166.2,335.6 168.1,338.1 168.9,339.8 170.2,342.7 171.8,345.3 174.6,348.5 182.6,357.1 184.6,359.6 186.3,362.3 
	194.6,366.1 196.2,367.2 198.1,369.3 199.1,371 200.7,374.6 202.5,378 204.4,382.7 207.1,387.8 209.1,392.4 211.5,396.6 213,400.4 
	214.8,403.8 215.5,405.6 216.1,407.7 216.4,411 216.4,423.7 216.7,428.2 217.4,431.4 219.3,435.7 220.2,438.7 220.6,441.8 
	221.2,451.9 224.2,450.4 228.9,448.6 233.8,445.8 237.4,444.2 241.6,442 243.5,441.3 245.7,440.9 248,440.7 260.8,440.7 
	265.3,440.3 267.5,439.7 271.7,437.7 273.6,437.1 275.8,436.6 281.3,436 284.6,435.3 289.7,432.8 295.5,431.1 299.1,429.7 
	304.1,425.7 306.9,424 308.8,423.4 312.7,422.5 314.6,422 318.9,420 320.7,419.3 325.6,418.3 327.6,417.8 329.3,416.9 334,414.2 
	335.4,413.1 336,412.4 338.8,407.6 340,405 340.5,402.9 340.9,399.6 341.1,383.5 341,380.1 340.8,377.9 340.3,375.8 340,374.8 
	339,373.1 338.4,372.3 337,371.1 335.3,370.1 331.8,368.3 325,363.1 323.2,362.1 319.7,360.4 318.2,359.3 316.9,357.9 316.3,357.1 
	315.8,356.2 315.2,354.2 315,353.2 315,351.1 315.3,349 316.2,347.1 316.8,346.3 318.2,344.9 319.8,343.9 321.8,343.3 324.9,343 
	330.4,342.8 335.9,343.3 339.4,343.3 341.6,343.2 343.8,342.8 344.9,342.5 347.4,341.2 351.3,338.8 352.7,337.7 353.3,337 
	355.8,333 360.5,327 361.6,325.2 362.5,323.6 367.2,319.9 372,315.5 373.7,314.2 375.6,313.1 376.6,312.7 378.6,312.3 380.7,312.1 
	383.8,312.2 385.8,312.5 387.8,313.1 390.3,314.6 395.1,318.6 400,317.2 402.1,316.8 405.3,316.6 408.4,316.6 410.5,316.7 
	412.5,317.2 414.5,318 415.4,318.6 417,320 419.3,322.4 421.2,325 422.1,326.9 423.2,329.7 424.9,332.3 428.4,336.4 432.2,340.1 
	433.8,341.4 435.6,342.6 438.3,343.9 440,344.8 441.7,346.1 445.8,349.6 447.5,350.9 449.3,352 452,353.2 455.2,355.1 456.9,355.9 
	457.9,356.2 459.9,356.5 462,356.5 464,356.2 465.8,355.5 469.9,353.3 477,350.9 478.6,348.1 481.1,343.9 483.2,339.3 484.9,336.7 
	487.7,333.4 491.5,329.6 494.7,326.8 497.2,325.1 502.8,325.5 509,325.7 532,325.6 539.8,325.8 544.2,326.2 546.3,326.8 
	551.4,329.1 554.7,329.9 559.2,330.3 567.4,330.4 572,330.1 575.3,329.6 577.5,328.8 581.5,326.8 587.6,324.4 591.2,327.5 
	592.4,328.7 591.7,326.4 591.7,322.8 592.3,321.6 597.6,318.8 598.2,317.4 598,315.8 597.7,313.5 598.2,311.8 599.9,311.4 
	604.1,311.3 609.4,312.1 610.6,312.5 616.1,314.1 619.2,313.7 619.9,315.9 619.5,316.8 617.7,321.5 618.8,322.3 621.6,322.5 
	622.4,321.7 623.3,316.5 626.8,314.3 628.1,312.9 629.5,312.4 633.3,311.2 642.3,309.9 645.2,310.7 648.9,313.4 651.4,315.2 
	652.7,316.1 656.3,317.7 659.2,320.1 662,323.5 664.4,324.7 667.8,323.7 671.4,321.4 672.4,320.7 677,319.2 678.9,318.6 679,318.6 
	679.2,318.5 684.6,314.7 691.4,311.3 699.2,310.1 701.6,307 704.2,300.1 703.9,297.2 703.8,295.3 702.5,290.6 701.8,288.1 702,286 
	705.3,280.8 706.9,278.2 707.6,277 707.7,275.1 707.4,272.9 705.8,269.1 704.8,266.7 702.6,258.5 702.8,252.6 703,252.3 
	710.2,241.1 714,235.3 716.9,228.8 718,226.2 718.6,220 716.9,209 716.7,208.1 717.3,204.7 "/>
</svg>
