<?xml version="1.0" encoding="utf-8"?>
<!-- Generator: Adobe Illustrator 24.2.3, SVG Export Plug-In . SVG Version: 6.00 Build 0)  -->
<svg version="1.1" id="Layer_1" xmlns="http://www.w3.org/2000/svg" xmlns:xlink="http://www.w3.org/1999/xlink" x="0px" y="0px"
	 viewBox="0 0 800 534" style="enable-background:new 0 0 800 534;" xml:space="preserve">
<style type="text/css">
	.st0{fill:#F2933D;stroke:#000000;stroke-width:0.4;stroke-miterlimit:9;}
</style>
<polygon class="st0" points="572.3,364.5 572.2,360.9 571.6,357.4 570.9,355.4 568.7,350.9 567,347 564,341.7 562.3,338.3 
	562.8,335 563.2,331.4 563.3,313.9 563.5,310.2 563.8,307.8 564.4,305.5 566.3,301.1 567.1,298.8 567.5,296.5 568.5,288.1 
	569.1,286 571.6,279.5 571.2,277.6 570.3,275.9 569.2,274.3 567.2,271.9 564.9,269.8 563.2,268.6 557.8,265.8 557.7,264.4 
	557.3,262.6 555.5,258.3 554.1,253 553.3,251.8 552.8,251.5 552,251.2 549.1,240.7 546.5,235.3 544.9,230.2 544,227.9 543.1,225.2 
	540.4,217.5 537.6,212.2 536.4,209.2 535.5,207.4 534.3,205.7 532.9,204.1 529.9,201.3 527.4,199.6 524.6,198.3 522.9,197.3 
	520.7,195.3 519.5,193.7 517.7,189.9 516,186.5 515.3,184.6 515.1,183.6 515.1,181.4 515.6,179.4 517.9,175.1 519.6,171.2 
	522.6,166 524.2,162 526.1,158.5 526.9,156.7 527.5,154.6 528.5,149.3 529.2,147.3 531.4,142.8 531.9,140.7 532.3,138.6 
	528.3,137.4 525.6,136.3 522.1,132.3 520.3,129.8 519.3,128 518.1,125 515.3,119.7 513.7,115.7 510.9,110.4 509.3,106.6 
	508.2,104.9 506.8,103.4 505.2,102.3 504.3,101.8 501.5,100.5 497.2,98.2 495.3,97.5 492.1,97.1 484.4,96.9 482.2,96.7 480.1,96.3 
	479.1,96 477.3,94.9 475.6,93.6 474,92.1 466.3,84.1 463.1,81.1 460.5,79.3 457.7,78 455.9,77 454.2,75.7 452.6,74.3 448.7,70.5 
	432.3,53.4 428.3,57 427,58.5 425.9,60.2 424.1,64 422.2,67.5 421.4,69.4 420.9,71.5 420.9,74.8 421.2,77 421.5,78 423.5,82.5 
	424.3,84.5 425.4,89.7 426,91.8 428.1,96.3 428.8,98.3 429.9,103.6 430.5,105.7 432.6,110.2 433.3,112.2 435.4,122.1 436.1,122 
	437.1,122.3 437.7,122.8 438,123.6 438.3,124.5 438.6,126.5 438.5,128.7 438.3,131.1 437.6,133.4 437.1,134.5 431.5,143.7 
	429.7,144.3 428.8,144.8 427.1,146 425.4,147.4 420.5,152.3 407.6,165.8 405,168.1 403.2,169.4 402.2,169.9 401.1,170.3 
	398.9,170.7 395.5,170.9 367.2,170.7 362.6,170.9 359.2,171.4 357.3,172.1 352.9,174.3 350.9,174.9 346.8,175.7 344.8,176.4 
	339.6,179.1 335.8,180.8 330.6,183.8 319.6,188.4 313.6,192.5 308.9,194.7 304.6,197.1 302.7,197.9 298.7,199.2 294.8,201 
	294.1,202.7 293.6,203.7 292.4,205.4 290.3,208 285.8,212.9 283.7,215.5 282.6,217.4 280.8,221.1 279.7,222.7 277.6,224.8 
	275.9,225.8 273.2,227.1 271.6,228.3 269.6,230.4 268.1,232.8 264.7,240.4 264.1,242.5 263.3,246.8 262.7,248.9 260.3,254.3 
	258.3,262.7 255.8,268.2 253.7,276.6 251.7,281.2 251,283.2 250.6,285.6 249.9,291.6 249.5,293.9 248.8,296 246.8,300.5 
	246.1,303.7 245.8,309.4 246,316 245,318.3 243.1,321.8 242.3,323.7 241.7,325.7 240.6,331.1 239.9,333 237.6,337.5 236.4,340.4 
	235.3,342.3 234,344.2 230.6,348.6 229.4,350.4 228.5,352.5 227.8,355.6 227.7,363.7 227.8,368.3 228.1,371.6 228.7,373.7 
	229.5,375.6 231.3,379.1 233,383 235.9,388.3 237.5,392.2 239.8,396.7 240.5,398.7 241.5,404 242.5,407 244.8,411.5 246.3,415.4 
	249.2,420.7 250.8,424.6 253.7,430 255.3,433.9 258.1,439.2 259.7,443.2 262.6,448.5 264.2,452.4 265.4,454.2 266.7,456 
	272.7,462.6 274.7,465.2 275.8,467.1 277.6,470.8 278.1,471.7 279.4,473.2 280.9,474.5 282.6,475.5 291.6,479.3 295,480.1 
	298.7,480.5 303.7,480.6 307.4,480.4 309.8,480.1 312.2,479.5 316.4,477.5 318.6,476.7 322.1,476.1 329.4,475.3 337.8,476 
	346.5,475.9 348.9,475.7 351.3,475.2 353.5,474.4 357.7,472.4 361.2,471.6 367.2,471.3 384.5,471.4 388.1,471.2 390.4,470.9 
	392.7,470.3 397,468.3 399.1,467.6 402.5,467 409.4,466.6 412.9,466.2 415,465.6 420.4,463.2 422.7,462.7 426.3,462.3 436.1,462 
	439.6,461.7 441.9,461.1 446.2,459.2 448.4,458.4 450.6,458 456.4,457.3 458.7,456.8 460.9,456 465,453.8 468.8,452.1 473,449.8 
	474.1,449.4 476.2,448.8 478.5,448.4 482,448.3 491.6,448.3 492.2,445.1 492.8,443.2 495.1,438.7 496.8,434.8 497.9,433.2 
	499.3,431.7 500.9,430.5 504.6,428.7 507.9,426.8 509.8,426 510.8,425.7 512.9,425.4 515.1,425.4 517.2,425.8 519.1,426.6 
	523.3,429.1 530,432.4 530.8,432.6 531.7,432.6 532.5,432.4 534.1,431.6 534.7,430.9 535.8,429.5 537.4,425.8 538.4,424.1 
	542.8,418.3 543.9,416.6 544.9,414.7 546.1,411.7 548.5,407.3 550.1,403.5 551.1,401.7 552.4,400.2 553.9,398.9 555.6,397.9 
	559.2,396 560.8,394.9 563.2,392.9 566.1,392.3 568,391.5 569.5,390.2 570.2,389.5 571.2,387.8 571.9,385.7 572.2,383.5 
	572.2,381.2 571.8,376.5 572.2,370.7 "/>
</svg>
