<?xml version="1.0" encoding="utf-8"?>
<!-- Generator: Adobe Illustrator 24.2.3, SVG Export Plug-In . SVG Version: 6.00 Build 0)  -->
<svg version="1.1" id="Layer_1" xmlns="http://www.w3.org/2000/svg" xmlns:xlink="http://www.w3.org/1999/xlink" x="0px" y="0px"
	 viewBox="0 0 800 534" style="enable-background:new 0 0 800 534;" xml:space="preserve">
<style type="text/css">
	.st0{fill:#F2933D;stroke:#000000;stroke-width:0.4;stroke-miterlimit:9;}
</style>
<polygon class="st0" points="657.1,228.5 656.3,226.2 654.3,221.9 653.5,219.6 652.9,215.7 652.3,209.2 651.9,207 651.5,205.3 
	650.5,203 648.2,198.8 646.2,194.2 644.9,192.1 640.2,186.5 638.8,184.6 637.8,182.4 637.4,180.4 637.4,178.4 638,176.3 
	640.7,171.1 642.7,166.5 644.6,163.5 648.5,158 646.3,156.3 641.2,153.4 634,147.6 631.8,146.1 627.5,143.8 625.5,142.6 623.7,141 
	622.9,140.1 621.7,138 621.2,136.8 620.6,132.9 620.5,130.2 620.7,126.1 621.6,119 613.6,117.2 603.8,116.2 599.8,115.2 
	597.6,114.2 593.6,111.9 589.1,109.9 584,107 581.6,106.1 580.2,105.8 577.4,105.5 573.2,105.3 567.4,105.4 561.7,105.8 
	561.3,110.2 560.3,113.4 559,115 556.6,116.4 556.7,128.8 556.6,132.8 556.2,135.5 555.5,138 554.9,139.3 553.5,141.5 551.9,143.5 
	547.2,148.4 543.3,151.9 540.1,154 536.4,155.7 534.6,156.8 532.7,158.2 527,163 525.1,164.4 523.1,165.5 519.4,166.9 515.2,168.9 
	510.9,170.7 508.4,170.9 506,170.8 503.5,170.3 502.4,169.9 491.8,164.5 488.9,162.4 483.9,158.3 476.1,155.9 473.3,155.3 
	467.5,154.8 460.1,154.8 455.8,155.1 451.6,155.8 449.1,156.7 443.9,159.2 439.8,160.2 432.5,160.6 425.2,160.5 420.9,160 
	418.1,159.3 411.8,156.1 404,153.1 397.6,154.5 393.3,154.9 387.6,155 383.4,154.5 380.8,153.7 378.2,152.3 373.7,149 370.3,146.3 
	369.3,140.8 368.7,138.8 368.1,137.6 366,134.6 364.4,132.7 362.6,131 359.7,128.8 357.7,127.7 354.1,126.1 352.1,124.8 
	349.3,122.5 342.1,115.4 339.2,113 337.2,111.7 333.7,110 331.8,108.9 329.8,107.5 323.2,102 321.2,100.7 317.7,99 315.8,97.9 
	313.8,96.5 311,94.1 308.2,91.8 306.2,90.5 303.9,89.5 302.6,89.1 297.2,88.5 284.7,88.3 280.7,87.6 278.4,86.8 274.2,84.8 
	271.8,84 269.1,83.4 262.2,82.6 259.5,82.1 257.1,81.2 252.9,79.2 250.6,78.3 239.2,75.7 236.4,75.5 234.5,74.9 230.5,72.9 226,71 
	219.9,67.4 215.4,65.3 210.3,62.5 207.9,61.7 205.2,61.2 202.5,60.9 191.4,60.8 186,60.3 182.3,59.2 178.1,57 175.9,56.1 
	166.8,53.4 167,72 166.8,76.6 166.1,81 165.1,83.8 162.6,88.9 160.6,93.6 157.4,100 156.6,102.4 155.2,108.7 152,116.5 151.3,119.4 
	150.9,122.4 150.7,127 150.6,156.8 150,166.1 146.4,167.5 142.6,170.6 144.6,175.5 146.5,181.7 149.5,188.3 151.9,198.3 
	154.8,204.8 155.5,207.3 156.8,213.6 157.6,216 160.1,221.4 161.3,225.7 162,230.2 162.8,232.6 167.3,240.7 168,241.5 169.7,242.9 
	177.5,247.7 182.1,249.7 187.2,252.4 190.9,253.6 195,254.1 200.5,254.1 206,253.9 212.5,253.2 216.8,253.9 225,254.6 228.3,257.1 
	230.6,258.5 235.5,260.7 241.8,263.9 245.9,264.8 254.2,265.7 256.8,266.4 263.1,269.6 267.6,271.6 273.8,275 285.7,278.7 
	286.4,280.5 287,281.1 290.9,284.1 292.4,285.7 293.7,287.6 297.9,296.3 298.7,298.5 298.9,299.7 298.9,302.3 298.7,303.5 
	297.9,305.6 296,309.8 295,313.9 294.6,321.2 294.8,332 294.6,341 294.4,343.7 293.9,346.3 293.1,348.7 290.3,354 288.3,358.6 
	286,361.9 281.8,367.2 280.3,369.3 276.8,376.2 275.3,378.4 270.3,384.8 269,387.1 266.8,391.6 265.5,393.5 263,396 258,398.8 
	255.8,400.5 256.6,405.9 257,410.4 257.2,416.6 257,422.8 256.7,425.8 256.2,428.8 255.3,431.5 253,436.7 252.1,441.1 251.6,448.7 
	251.8,461.9 255.7,467.7 258.4,471 261.4,474.2 263.5,476.1 265.7,477.9 268.1,479.2 269.4,479.7 273.6,480.4 277.9,480.6 
	315.7,480.4 316,473.7 316.4,471.1 316.8,469.8 317.7,467.6 319.9,463.4 321.9,458.7 324.2,455.4 326.9,452.3 333.6,445.2 
	338.6,440.4 340.7,438.7 342.9,437.2 347.4,435.2 352.5,432.4 354.8,431.5 361,430.3 363.4,429.6 369.6,426.3 374.2,424.4 
	380.3,420.9 384.7,418.8 386.6,417.4 388.3,415.7 389.6,413.8 392.4,408.2 393.9,406 398.1,400.7 400.3,397.3 402.3,392.6 
	405.7,386.3 407.7,381.6 412.2,373.7 413.7,370 415.7,364.9 417.9,359.9 421.7,353.1 423.6,348.4 426.3,343.1 428.9,337.5 
	430.2,335.6 431.9,333.9 434,332.6 436.5,331.8 439.2,331.4 442,331.3 464.7,331.4 470.4,331.6 474.4,332.3 475.7,332.7 
	477.9,333.6 482,335.9 485.3,337.5 487.5,338.8 490.7,341.5 498.8,349.3 501,351 503.3,352.4 504.6,352.9 507.4,353.5 514.3,354.2 
	517,354.7 519.3,355.5 524.6,358 528.3,358.9 534.8,359.4 544.1,359.3 548,358.9 550.5,358.2 552.6,357.2 556.7,354.9 561.2,352.8 
	563.3,351.4 565.3,349.7 572.9,342.2 576.9,338.9 583.5,335.4 585.4,334 591,329.3 593,327.8 595.2,326.7 599.7,324.8 604.8,322.1 
	607.5,318 612.7,311.2 613.9,309.2 615.9,304.5 617.9,301.4 620.4,298.6 623,295.9 625.9,293.5 630.4,290.1 633.3,285.8 
	635.9,282.8 643.2,274.9 644.8,272.8 646.2,270.6 648.2,266 650.4,261.7 651.3,259.5 652.2,255.7 652.8,249.1 653.5,245.2 
	654.3,242.9 656.7,237.5 657.3,235 657.4,231.1 "/>
</svg>
