<?xml version="1.0" encoding="utf-8"?>
<!-- Generator: Adobe Illustrator 24.2.3, SVG Export Plug-In . SVG Version: 6.00 Build 0)  -->
<svg version="1.1" id="Layer_1" xmlns="http://www.w3.org/2000/svg" xmlns:xlink="http://www.w3.org/1999/xlink" x="0px" y="0px"
	 viewBox="0 0 800 534" style="enable-background:new 0 0 800 534;" xml:space="preserve">
<style type="text/css">
	.st0{fill:#F2933D;stroke:#000000;stroke-width:0.4;stroke-miterlimit:9;}
</style>
<polygon class="st0" points="673.7,466.8 673.5,466.3 673.3,465.9 673,465.5 672.4,465.4 671.9,465.4 670.7,459.5 670.3,458.3 
	669,455.6 668.7,454.4 668,451.2 667.6,450 666.3,447.3 666,446.1 665.3,442.9 664.9,441.8 663.6,439.1 663.4,438.5 663.2,437.2 
	663.3,435.2 663.6,433.9 664.1,432.8 665.2,430.7 666.2,428.4 666.9,427.4 667.7,426.5 670.1,424.4 672.5,421.5 673,420.5 
	673.2,420 673.4,419.4 673.3,418.8 673.2,418.3 673,417.7 672.6,417.3 672.2,417 668.9,415 666.1,413.8 663,412.1 660.2,410.9 
	657.6,409.4 654.8,408.1 651,405.6 649.4,405.1 646.9,403.8 644.6,402.8 641.5,401.1 637.3,399.7 635.7,399.1 633.6,398.2 
	631.2,397.3 628.2,395.5 625.9,394.5 624.4,393.4 621.6,391 620.7,390.3 619.7,389.7 617.9,389 614.8,387.2 612.5,386.2 
	611.5,385.6 610.6,384.8 608.7,383 607,381.2 605.8,379.7 605.1,378.7 604.6,377.7 603.8,375.8 602.1,372.6 601.2,370.2 
	599.1,365.7 596.5,367.6 595.6,368.4 594.8,369.3 594.1,370.3 593.1,372.6 592.4,373.7 591.2,375.2 588,378.7 586.8,380.3 
	586.2,381.4 584.9,384.3 584.2,385.3 583.5,386.3 582.3,387.5 581.4,388.1 580.9,388.3 580.3,388.3 579.7,388.2 579.3,388 
	578.8,387.7 578.1,386.9 577.6,385.9 576.9,384.2 576.3,383.2 573,378.7 572.4,377.6 571.6,375.8 570.5,373.8 570.1,372.7 
	570,371.4 570.1,370.2 570.6,369.1 571.7,367 572.7,364.7 574.1,362.2 574.5,361 574.5,360.4 574.5,359.7 574.2,358.5 572.9,355.9 
	571.8,352.9 570.8,350.9 567.8,350.2 566.6,349.7 564,348.5 562.6,348.2 560.5,347.9 556.1,347.8 553.4,345.1 549,340.6 
	547.8,339.3 547.1,338.3 546.8,337.8 546.6,337.3 546.5,336.8 546.6,336.2 546.7,335.7 548.6,331.5 549.7,330 552.1,327.1 
	552.7,326.1 553.2,325 553.6,323 554.2,320.5 555.4,317.8 555.8,316.6 556.2,314.5 556.4,310.1 556.6,308 556.9,306.7 558.1,303.9 
	558.5,302.7 559.4,296.3 559.9,295.1 560.8,292.9 561.2,291.7 561.6,289.8 562.1,284.9 561.7,281.4 561.6,278.3 561.7,274.4 
	562,272.1 562.3,270.7 563.7,267.4 564,266.1 564.3,264 564.5,259.7 564.8,257.6 565.3,256.2 566.5,253.6 567.4,250.5 568.4,247.8 
	568.9,247.1 569.6,246 571.7,243.6 579.9,235 581.3,233.7 582.3,232.9 583.4,232.2 585.6,231.2 588.7,229.5 591.8,228.6 594,227.6 
	594.5,226.5 595.1,225.6 595.9,224.7 596.8,224 599.5,222.7 602.1,221.2 604.9,220 608.7,217.6 610.2,216.9 611.1,216.3 
	611.8,215.4 612.5,214.4 614.3,210.6 614.8,209.5 615.1,208.1 615.3,206 615.3,198.6 615,196.7 614.5,195.5 613.2,192.9 
	612.2,190.5 610.4,187.4 609.4,185 608.1,182.4 607.8,181.8 607.5,180.5 607.5,178.6 607.7,177.3 608.1,176.1 609.1,174 
	609.5,172.8 609.8,171.5 610.2,167.6 610.4,166.3 610.8,165.1 612.1,162.4 612.4,161.1 613.1,158 613.5,156.8 614.9,154.1 
	615.9,151.8 617.6,148.6 618.5,146.3 620.3,143.1 621.3,140.7 622,139.6 622.8,138.6 625.9,135.1 627.2,133.6 628.3,132 
	629.4,129.7 630,128.7 631.1,127.2 634.9,122.6 632.9,122.1 630.2,121.1 629.1,120.6 627.6,119.6 624.8,117.2 623.3,116.2 
	621,115.1 618,113.3 615.7,112.4 612.6,110.6 610.4,109.6 607.8,108.2 607.2,107.9 606,107.6 601.5,107.2 599.7,106.7 598.6,106.2 
	596.5,105.1 593.7,103.8 590,101.4 588.4,100.8 585.9,99.5 583.6,98.5 581.1,97.1 579.9,96.6 578,96.3 571.6,95.8 569.9,97 
	569,97.9 568.3,98.8 568,99.4 567.6,100.6 567,103.7 566.6,104.8 564.9,107.9 564.3,108.8 563.9,109.2 562.8,109.8 561.6,110 
	556.8,110.4 554.9,110.7 552.6,110 550.9,109.3 548.3,107.9 546.1,106.8 545.2,106.1 544.3,105.3 543.7,104.3 542.7,102 541.3,99.3 
	540.9,98.1 540.4,94.9 540,93.7 539.6,92.6 538.5,90.4 537.5,88.1 536.8,87 535.6,85.4 534.2,83.9 532.8,82.5 531.3,81.2 
	529.7,80.1 528,79.4 526.9,78.8 525.9,78.1 525,77.2 523.8,75.9 523.1,74.9 522.5,73.9 522.1,72.8 519.4,71 518.4,70.2 517.5,69.4 
	515.7,67.6 508.2,59.8 504.7,56.5 502.6,52.6 501.2,51.1 499.8,48.8 499,48 498.1,47.2 497.1,46.6 492.3,44.2 488.4,43 487.9,42.8 
	486.4,41.6 485.9,41.4 483.3,40.5 482.3,40 480.4,38.6 476.7,37.5 473.6,35.8 471.3,34.8 468.2,33.1 464.3,32 461.9,30.3 
	458.6,29.3 457.5,28.9 454.9,27.5 452.6,26.5 449.6,24.7 447.3,23.6 444.7,22.2 443.5,21.8 441.3,21.5 439.1,21.4 416.1,21.4 
	415.2,21.9 414.2,22.5 412.7,23.7 411.4,25.1 408.2,28.3 406.1,30.6 404.8,32.1 403.5,33.9 404.6,39.9 405,41.1 406.3,43.8 
	407.5,48.8 408.8,51.5 409.2,52.7 410,56.5 411.6,60.2 411.7,60.9 411.7,62.1 411.6,62.7 411.2,63.8 410.1,65.9 409.1,68.2 
	408.4,69.3 405.8,72.5 405,73.6 403.3,77 400.5,80.8 399.7,81.9 398.4,84.8 397.7,86 396.8,87 395.9,88 394.9,88.9 393.8,89.7 
	393.2,90 391.9,90.4 389.9,90.6 384.4,90.6 380.2,90.4 378.9,90.2 377.6,89.9 375,88.6 373.2,88 370.7,87.7 365.5,87.7 360.4,87.6 
	356.5,87.3 352.7,87.8 350.9,88.4 349.2,89.4 346.1,91.9 345,92.7 342.8,93.7 339.7,95.5 337.4,96.5 334.3,98.2 333.1,98.5 
	330.7,99 329.5,99.4 326.8,100.7 325.7,101.1 322.6,101.8 321.4,102.1 318.2,103.7 313.4,104.9 310.8,106.2 309.6,106.6 
	307.5,106.9 303.4,107.1 301.3,107.3 300,107.7 297.4,108.9 296.2,109.4 294.9,109.6 293.5,109.8 290,109.9 286.6,109.7 
	284.8,109.3 284.2,109 283.2,108.5 281.4,107.6 280,107.2 278.6,107 276.4,106.9 274.2,107 272.4,107.3 271.4,107.7 270.9,108.3 
	268.2,109.2 263.9,110 262.6,110.5 261.1,111.4 258.4,113.5 257.3,114.3 256,114.8 254,115.2 249.6,115.4 246,115.3 243.8,115.2 
	242.5,115 241.1,114.6 238,113.1 236.6,112.8 233.8,112.5 230.2,112.5 227.6,112.3 225.7,112 224.5,111.6 221.9,110.3 220,109.9 
	217.3,109.7 210.3,109.7 207.6,109.4 206.3,109.1 203.7,107.8 202.6,107.4 200.7,107.1 197.5,106.8 195.6,106.3 194.6,105.8 
	192.5,104.7 190.8,103.9 189.7,103.3 188.6,102.5 186.1,100.3 184.5,99.2 182.2,98.1 179.2,96.3 176.9,95.3 174.3,93.9 173.2,93.5 
	170.1,92.8 168.9,92.4 166.3,91.1 165.2,90.7 163.3,90.4 159.4,89.9 156.1,95.5 155.8,96 155.5,97.3 155.3,99.3 155.2,102 
	155.2,110.3 155.3,114.5 155.5,115.8 155.7,117.1 156.1,118.2 157.2,120.3 157.5,121.4 157.5,122.7 157.3,123.3 157.1,124 
	156.4,125.1 155.5,126.1 154.6,127 153.5,127.9 152.4,128.6 150.1,129.5 147.5,131 145.3,132 144.2,132.6 142.6,133.8 140.6,135.7 
	131.8,144.8 130.4,146.3 129.6,147.4 128.9,148.6 128.7,149.1 126.2,155.4 126.6,156.1 127.7,157.2 128.2,157.9 130,159.5 
	130.8,160.4 132.6,163.8 133.2,165.2 133.4,165.8 133.7,167.3 133.8,168.8 133.7,177.6 133.9,179 134.3,180.2 134.6,180.8 
	135,181.2 135.9,181.8 138.6,183.4 140.4,184.1 143.8,184.3 147.6,184.4 150.6,184.3 152.8,184.2 154.9,183.7 157.5,182.5 
	158.8,182.1 164.9,181.1 166.2,180.6 168.8,179.4 170,179.1 172,178.8 180,178.2 182.5,178.6 186.3,178.8 206.3,178.8 210.1,178.9 
	211.6,179 213.1,179.3 214.4,179.8 216.9,180.9 218.4,181.3 219.8,181.5 223.7,181.7 234.6,181.6 238.4,181.8 240.5,182.3 
	243.7,183.7 245.8,184.2 248.8,184.4 255.6,184.4 257.1,184.6 258.6,184.8 259.8,185.3 262.4,186.6 264.7,187.7 267.8,189.4 
	270.7,190.5 272.6,191.5 273.5,193.1 274.7,195.2 276,198 276.7,199.1 277.9,200.7 281.1,204.2 282.3,205.7 283,206.8 284.3,209.7 
	285.5,211.3 287.2,213.3 289.1,215.2 290.7,216.5 291.8,217.1 292.4,217.3 294.3,217.5 298.1,217.6 299.3,217.7 300.5,217.9 
	301,218.2 301.4,218.5 301.8,219 302.2,220 302.8,223 303.4,225.2 303.7,226.9 304.4,228.2 305.5,231.2 306.3,233.1 306.5,233.7 
	306.5,234.2 306.4,234.8 305.9,235.8 305.2,236.8 302,240.2 300.8,241.7 300.1,242.8 299.6,243.8 299.5,249.4 299.7,251.5 
	299.9,252.8 300.3,254 301.5,256.7 301.9,257.9 302.4,260.4 302.8,261.7 304.4,264.9 305.3,267.2 306.9,270.5 307.2,271.7 
	307.9,274.9 308.3,276.1 309.7,278.7 310.4,280.5 311,281.6 311.7,282.6 314.2,285.9 315,287 316.4,289.9 319.2,293.7 320.3,295.3 
	321.4,297.7 323.1,300.8 324.1,303.2 325.1,305.3 325.6,306.4 326.1,308.5 326.2,310.6 326.1,322.4 326.3,326 326.8,328.1 
	328,330.8 328.4,332 328.6,333.4 328.8,335.6 328.8,352 328.7,355.7 328.5,357.1 328.2,358.5 327,361.2 326.4,363.1 326.2,365.2 
	326,370.2 325.7,371.6 325.5,372.3 325.2,372.8 324.5,373.8 323.1,374.9 320.5,376.2 317.9,377.6 315.6,378.6 312.5,380.3 
	310.2,381.4 308.6,382.6 306,385 307.5,385.9 309.2,386.6 310.3,387.2 311.9,388.4 313.8,390.2 315.6,392.2 316.8,393.8 
	317.5,394.9 318.5,397.2 319.5,398.8 320.7,400.2 322,401.5 323.5,402.5 325.8,403.5 328.9,405.2 331.2,406.2 332.2,406.9 
	334.2,408.7 339.7,414.4 340.7,415.3 341.7,416.1 342.2,416.4 344.5,417.5 347,418.8 348.1,419.1 348.7,419.2 350,419 351,418.6 
	353,417.5 354.2,417.1 355.4,416.8 357.8,416.2 360.5,414.9 361.7,414.5 363.1,414.3 366.5,413.9 367.9,413.6 369.1,413.2 
	371.2,412.2 372.3,411.8 376.7,411 379.3,410.1 382,411.7 384.1,412.9 385.1,413.5 386.3,413.8 389.4,414.5 391.1,415.2 394,417 
	394.8,417.7 396.4,419.9 397.1,420.8 398,421.5 398.5,421.9 399.6,422.4 402.3,423.3 403.9,423.7 407,426.2 408.5,427.1 
	409.7,427.5 410.3,427.6 410.9,427.5 412.1,427.2 416.2,425.1 417.2,424.4 418.1,423.6 418.8,422.7 419.4,421.6 420.5,419.3 
	421.2,418.2 422.5,416.7 423.5,415.8 424.6,415 425.8,414.4 427.2,414.2 429.9,414 434.8,414 437.5,414.1 439.6,414.4 440.2,414.5 
	441.4,415 444,416.4 448.7,418.5 449.6,418.7 452,418.5 452.8,416.8 453.5,415.7 456.3,411.7 456.8,410.7 457.6,408.9 458.3,407.8 
	459,406.8 461.2,404.4 467.2,398.3 472.6,392.5 474,391.2 475.5,390.1 476.1,389.8 477.3,389.4 478.5,389.3 479.7,389.2 
	481.6,389.2 483.4,389.2 484.6,389.4 485.8,389.6 486.9,390.1 489.5,391.6 491.7,392.6 492.7,393.3 494.9,395.3 495.8,396 
	496.7,396.4 497.3,396.5 497.8,396.4 498.3,396.2 499.2,395.7 501.4,393.8 502.4,393.1 503.3,392.5 504.7,391.9 505.7,391.4 
	506.6,390.6 507.6,389.8 508.8,388.4 509.9,386.9 510.3,385.8 510.7,383.8 510.9,382.5 511.2,381.3 511.7,380.1 512.7,378 
	513.4,376.3 514,375.2 514.8,374.3 515.3,373.9 516.3,373.2 516.9,373 517.5,372.9 518.8,372.8 520,373 520.6,373.1 521.2,373.3 
	523,374.1 523.5,374.3 524,374.3 524.5,374.2 525.5,373.8 526.8,372.8 528.1,371.5 535.6,363.6 538.4,360.5 539.1,363 540.6,367 
	541.4,368.2 542.2,369.3 546,373.5 547.3,375.2 547.9,376.4 548.9,378.6 550.1,380.7 551.3,383.6 552.7,386.3 553.7,388.6 
	554.3,389.7 555.1,390.8 555.9,391.9 561.2,397.4 562.6,399 563.3,400.1 564,401.3 565,403.5 566.4,406.2 567.3,408.5 569.1,411.7 
	570,414 571.1,416.2 571.6,417.3 572,419.3 572.2,422.1 572.1,448.7 571.9,450.8 571.7,452.1 571.3,453.3 570,456 569.7,457.3 
	569.5,459.3 569.4,463.3 569.3,473.7 569.5,475.7 569.8,477 570,477.7 570.3,478.3 571,479.4 573.1,482 574.2,483.7 575.2,486 
	576.9,489.2 578.1,492.1 579.6,494.7 580.5,497.1 582.3,500.2 583.2,502.6 584.9,505.8 585.8,508.2 587.8,512.6 590.2,511.6 
	592.6,510.8 593.7,510.3 596.3,508.9 599.1,507.6 602.7,505.1 609.3,502.3 612.4,500.6 614.6,499.6 617.8,497.9 618.9,497.5 
	621.4,497 622.6,496.6 625.2,495.4 626.4,494.9 628.4,494.6 631.2,494.5 648.1,494.7 650.1,494.5 651.4,494.2 652.1,494 
	652.7,493.7 653.8,493 655.3,491.6 663,483.5 666,480.6 667,479.7 668,479 668.6,478.7 669.6,478.4 673,472.9 673.3,472.2 
	673.7,470.8 673.8,469.4 673.8,468.1 "/>
</svg>
