<?xml version="1.0" encoding="utf-8"?>
<!-- Generator: Adobe Illustrator 24.2.3, SVG Export Plug-In . SVG Version: 6.00 Build 0)  -->
<svg version="1.1" id="Layer_1" xmlns="http://www.w3.org/2000/svg" xmlns:xlink="http://www.w3.org/1999/xlink" x="0px" y="0px"
	 viewBox="0 0 800 534" style="enable-background:new 0 0 800 534;" xml:space="preserve">
<style type="text/css">
	.st0{fill:#F2933D;stroke:#000000;stroke-width:0.4;stroke-miterlimit:9;}
</style>
<g>
	<polygon class="st0" points="702,339.1 700.7,337.9 699.7,337.2 697.5,336.1 696.5,335.4 694.9,334.1 692,331.3 690.6,330 
		689,328.9 686.8,327.8 685.4,326.7 684.3,325.3 683.3,323 681.9,320.4 681.2,318.8 678.7,317 677.8,316.2 677,315.2 676.4,314.1 
		675.8,312.4 675.5,310.5 675,308.6 673.8,305.9 672.6,300.8 671.1,297.5 670.7,296.3 670,293.1 669.6,292 668.4,289.2 667.9,287.2 
		667.8,285.1 667.7,282.2 667.8,280 668,277.9 668.4,275.8 669.7,273.1 670,271.9 670.3,270.6 670.5,268.8 668.3,264.3 667.4,261.9 
		665.7,258.7 664.5,255.8 662.5,252.2 661.8,251.3 661,250.6 658,248.9 657,248.3 655.1,247.9 651.3,247.4 649.8,247.6 647.8,247.7 
		645.2,247.5 643.4,247 640.8,245.7 638.4,245 636.9,243.1 636.4,242 636.1,241.3 635.8,239.9 635.4,236.3 635.2,234.9 634.8,233.7 
		633.6,230.9 633.3,229.5 633.1,227.4 632.9,223.1 632.6,221 632.2,219.7 631,217 629.9,213.3 629.1,210.9 628,209.4 626.4,207.6 
		621.7,202.7 619.1,200.1 618.2,199.3 617.2,198.6 616.3,198.1 614.5,197.3 613.1,196.4 611.3,194.8 607.5,190.8 605.8,189.1 
		604.4,188 602.9,186.9 601.6,184.3 601.1,183.3 600.4,181.3 598.4,177.2 597,176.5 596.1,175.8 594.7,174.7 592.2,172.3 
		590.9,171.2 589.9,170.6 587.7,169.6 586.7,168.9 585.8,168.2 583.1,165.6 572.5,154.5 562.4,144 560,141.7 558.9,140.8 557.8,140 
		555,138.5 551.4,135.6 549.7,134.6 548.5,134.2 547.2,134 544,133.7 542.8,133.4 541.6,133 539,131.8 537.7,131.4 534.9,131.1 
		529.8,131.1 515.3,131.2 510.8,131.1 509.3,130.9 507.9,130.7 506.7,130.2 504.1,129 502,128.5 499.2,128.3 492.6,128.3 
		489.8,128.1 487.9,127.5 485.3,126.1 483,125.1 479.9,123.4 476.9,122.3 474.5,121.2 474,119.6 472.6,117 471.7,114.6 471,113.6 
		469.9,112.2 468.6,110.9 467.2,109.7 465.3,108.3 463.2,108.7 461.1,108.8 451.6,108.8 450.2,108.9 448.9,109.3 447.7,109.8 
		446.8,110.5 446,111.3 444.8,113.2 444.1,113.9 441.2,115.8 439.7,116.6 438.5,117 434.8,117.9 432.1,119.1 430.9,119.5 
		429.5,119.7 426.1,120.1 424.7,120.4 423.5,120.8 420.8,122.1 418.4,122.7 417.2,123 416,123.3 414.9,123.8 412.8,125 410.6,126.1 
		408.1,127.5 407,127.8 406.3,127.8 405.1,127.6 404.5,127.3 403.5,126.6 402.1,125.3 399.3,122.4 398.3,121.5 397.3,120.8 
		396.1,120.4 394.9,120.3 393.6,120.4 392.5,120.7 390.2,121.5 386.4,123.1 385.5,123.8 384.6,124.7 384,125.7 383.6,127 
		383.1,129.5 382.8,130.7 381.6,133.4 381.2,134.6 380.5,137.8 380.2,139.1 378.7,142.3 378.3,143.6 377.8,146.1 377.4,147.4 
		376.4,149.3 375.5,151.7 374.9,152.9 374.3,154 372.7,156 370,153.2 362.9,153.1 359,153.4 356.8,153.8 354.3,155 352.9,155.5 
		351.4,155.8 349.1,155.9 315,155.9 311.1,156 308.1,156.2 305.8,155.4 302.6,153.7 301,153 300,152.3 299.1,151.5 298.4,150.6 
		297.9,149.4 296.9,145 294.8,140 294.2,139 293.4,138 292.4,137.3 291.9,137 290.6,136.6 288.6,136.3 285.1,136.3 281.6,136.5 
		280.3,136.7 279,137 275.8,138.5 273.4,139.2 271.5,139.6 270.4,140.1 267.8,141.5 265.5,142.5 262.4,144.1 261.2,144.5 
		258.1,145.2 257,145.6 254.3,146.9 253.1,147.2 250.7,147.7 249.4,148.1 246.3,149.8 244,150.8 242,151.9 240.9,152.4 239,152.8 
		237.3,152.8 233.4,155.1 230.6,156.3 227.5,158.1 225.2,159.1 222.1,160.9 219.8,161.8 216.7,163.6 214.5,164.6 213,165.6 
		208.9,169.5 207.9,170.2 206.8,171 205.2,173.3 204.2,174.9 203,177.8 201.6,180.4 201.2,181.6 201,182.9 200.6,186.9 200.3,188.2 
		199.9,189.4 198.7,192.1 198.4,193.4 198.1,196.3 198,202.8 197.8,204.9 197.3,206.1 194.6,211.7 193.4,213.2 189.8,217.2 
		188.6,218.8 187.9,219.9 186.8,222.1 186.1,223.1 185.3,224.1 184.4,224.9 181.7,226.9 180.6,227.4 179.4,227.8 172.3,228.8 
		171.6,232.5 170.9,237.5 170.4,239.4 169,242 168.1,244.4 166.3,247.6 165.3,249.9 164.5,251 162,254.2 160.9,255.9 159.9,258.2 
		158.5,260.9 158.1,262.1 157.9,263.6 157.5,267.2 157.2,268.6 156.8,269.8 155.6,272.5 155.3,273.9 155.1,275.4 155,279.9 
		155,291.2 154.9,295 154.4,297.1 152.9,300.2 152.6,301.3 151.4,303.3 150.3,304.7 148.7,306.6 146.9,308.4 145.5,309.6 
		144.5,310.3 143.6,310.9 141.7,311.7 140.7,312.3 139.7,313.1 136.9,315.9 129.1,324 126.7,326.2 125.2,327.3 123.4,328.1 
		122.4,328.6 120.9,329.8 119,331.6 110.2,340.5 108.4,342.4 107.4,344 107.1,345.1 107,346.1 107.4,347.6 108.1,349.1 108.5,350.1 
		108.7,351.1 108.7,352.1 108.4,353.1 107.4,355.2 107,356.3 106.8,357.5 106.4,361.2 106.1,363 105.8,364.2 104.5,366.9 104.2,368 
		103.7,370.8 103.4,371.9 103.1,372.4 102.3,373.4 101.4,374.2 100,374.9 96.8,376.1 96.9,376.7 97.3,377.1 96.9,377.5 96,376.3 
		96.2,377.6 96.5,377.9 97.1,377.9 96.9,378.4 97.4,379 98.1,379.5 98.4,379.9 99.2,380.6 100.5,382.2 101.2,382.6 102.2,383.8 
		103.5,385 104.4,386.2 104.8,386.3 105.9,387.8 106.2,387.9 106.5,388.6 106.4,389.1 107.1,389.1 108.2,389 109,389.3 109.4,389.9 
		110.5,390.2 111.1,391 111.9,391.5 112.3,392 112.4,392.4 112.8,393 113.5,393.2 114,393 114.4,392.4 114.9,392.3 115.4,391.6 
		116,391.1 116.1,390.4 116.3,389.6 116.8,389 117,387.8 116.8,387.7 116.8,386.9 116.2,386.1 115.8,386 116,385.2 116.9,385.6 
		117.9,385.6 118.4,385.7 119.4,385.6 119.7,385 120.7,385.1 121.4,386.3 122.2,386.3 123.1,385.5 124.4,385.6 124.6,386.3 
		124.4,386.5 124.2,387.8 123.9,388.3 123.5,388.3 123,389.9 122.5,389.5 122.2,389.7 122.4,390.8 122.4,391.6 122.6,392.3 
		123.6,394.4 123.9,394.4 124.6,393.9 125.1,393.2 125.8,392.7 126.7,392.7 127,393 128.2,393 128.5,393.2 129.2,393.2 130.3,393.4 
		131.3,394.1 131.3,394.8 131,395.3 130.3,395.4 129.4,395.9 129.1,396.3 128.9,397.7 129.4,397.1 130.2,396.7 130.2,396.3 
		130.7,396.1 131,395.3 132,395.1 133.1,396.1 133.5,396.6 134.1,397.1 134.7,397.2 135.1,397.5 137,397.5 138.4,397.8 139.1,398.1 
		141,398 141.6,398.1 142,397.8 142.3,398.1 143.7,397.9 145.1,397.9 145.6,397.7 147.2,397.6 148.2,397.9 151.2,398 151.7,398.1 
		151.9,398.5 151.9,399.1 152.5,399.7 152.9,399.7 153.6,400 154.3,399.8 154.6,400 155.6,399.8 155.7,399.6 156.6,399.7 
		157.3,399.1 157.5,398.5 158.3,398.6 158.9,398.3 159.5,398.3 160,398.6 161.1,398.5 161.9,398.9 162.7,398.9 163.2,399.7 
		162.6,399.6 161.5,399.8 161.2,399.5 160.2,399 159.3,399.2 158.2,400.6 157.2,400.8 157.1,401.2 156.1,401.3 155.7,402 
		154.6,402.4 154.3,402.8 154.3,403.6 155.5,404.1 156.5,403.2 157.5,403.3 158.9,403.2 159,402 159.6,400.9 160.4,401 160.9,400.8 
		161.2,400.5 161.8,400.5 162.1,400.8 162.9,401 163.1,400.7 164,400.6 164.4,401 165.1,401 165.3,401.6 165.7,402.2 166.2,402.3 
		166.2,404.9 166.4,405.7 166.2,406.5 165.8,406.5 165.7,406.1 165.1,406.3 164.6,405.4 164.8,404.6 164.3,404.3 163.4,406.1 
		163.1,406.1 162.6,407 162.7,407.5 163.1,407.8 163.7,407.9 164.2,408.3 164.7,408.5 164.9,409.6 165.5,410.1 166.3,410.1 
		166.9,410.8 167,411.9 166.6,412 166.7,412.6 167.9,413.1 169.1,412.8 169,412.3 169.7,411.6 170.8,411.6 170.7,412.6 171.3,413 
		171,413.4 171.3,414.8 171.7,415.2 172.2,416.8 172.8,415.9 172.8,415.3 173.4,414.7 173.9,413.8 173.9,413.5 174.5,413.1 
		175.4,413.5 175.4,412.8 176.1,412.8 176.9,412.6 177,412.2 177.6,411.7 177.6,410.5 178.1,410 178.5,409.3 178.9,409.1 180.2,409 
		180.7,409.8 180.7,410.1 181.1,410.6 182,410.7 183.2,410 183.5,409.6 184.1,409.8 184.4,410.7 185.2,411 186.3,410.8 186.6,410.4 
		187,410.1 187.9,409.7 188.7,409.7 189.9,410.4 189.2,410.9 188.7,410.8 187.3,411.6 185.8,413.1 185.2,414.1 186.1,414.6 
		186.9,414.6 187.7,414.9 189,415.3 189.5,414.8 190.1,414.6 190,414 190.3,413.7 190.8,413.8 191.8,413.8 191.9,413.2 192.6,412.7 
		193.6,412.4 193.9,412 195,411.4 195.2,410.6 195.8,409.9 196.3,409.7 196.2,409.3 196.9,409.4 197.3,409 197.7,408.3 198.2,408 
		198.1,407.5 196.7,407.7 196.3,408.1 195.4,408.1 194.9,408 194.4,408.4 193.1,408.9 193.1,408.5 193.6,408.3 193.8,407.9 
		194.6,407.2 195.1,407.2 195.3,406.9 195.8,406.7 196,406.4 195.8,406 196.8,405.9 197.1,405.7 197.2,404.9 197.9,405.1 
		198.1,405.4 198.8,405.3 198.8,404.6 199.2,404.4 199.5,403.5 200,403.2 201.3,403 201.8,402.4 201.9,401.8 201.4,401.8 
		200.2,402.4 199.8,403 198.4,403.6 198.4,403 198.8,402.5 199.7,402.1 200.2,401.4 201.2,401.1 203.5,401.1 204,401.4 202.3,402 
		202.7,402.3 202.6,402.7 203.7,403 204.1,402.7 204.7,402.6 205.3,402.2 205.8,402.4 206.4,402 207.1,402.2 207.4,401.8 208,401.9 
		208.5,401.7 209,400.9 209.1,400.3 210.5,399.7 210.5,399 209.8,398.7 209.6,397.9 209.9,397.4 210.6,397.2 211.3,396.5 
		212.1,396.5 212.4,395.9 211.9,395.5 211.8,394.7 212.2,394.2 212.7,394.2 213.3,393.6 214.2,393.6 215.1,392.9 215.2,392.3 
		216.2,392.4 216.9,393 217.3,393.1 217.6,393.6 218.3,393 218.9,393.6 218.7,394.5 218.2,394.9 218.9,395.6 219.4,395.6 
		219.8,395.1 220.6,395.2 220.9,395.5 221.8,395.5 222.3,395.7 223.1,395.7 223.8,395.5 224.2,394.9 224.9,395.3 225.3,395.3 
		225.5,395.9 225.2,396.1 225.1,396.8 226.2,396.5 226.8,395.9 226.4,395.3 226.8,394.7 227.8,394 229.6,393 229.9,393 233,390.9 
		234.4,389.6 235.8,388.7 236.3,388.1 238.4,386.7 238.9,386.5 239.7,386 240.7,385.8 241.3,385.8 241.7,386.1 242.1,386.7 
		242.8,386.8 242.8,387.3 243.8,387.7 243.7,388.3 244.5,388.5 245.2,388.3 245.3,388.7 246.7,389.2 247.4,389.3 248,389.3 
		249.3,389.1 249.7,388.8 249.7,388.3 250.3,388 250.3,386.9 250.6,386.5 250.8,385.5 251.7,385.5 251.7,385 252.2,384.8 252.3,384 
		252.7,383.4 252.6,382.7 253.1,382.4 253.6,381.5 254.1,381.6 253.7,383.3 253.5,383.5 253.8,384.4 254.4,384.5 255.2,383.4 
		255.8,383 256.2,381.8 256.2,381.2 255.8,380.6 256,380 255.9,379.1 255.3,377.7 255.2,376.9 255.5,376.1 257,375.5 257.4,375 
		258.8,374 259.2,374.1 260.6,373.4 261.8,373.5 262.4,373 263.2,373 264.2,372.8 265.5,372.8 266.4,372.9 267.7,372.8 268.2,373 
		270.4,372.6 272.3,372.5 272.9,372.6 274.8,372.6 275.8,372.7 276.1,372.9 277.1,372.9 278,372.6 278.5,372.9 279,372.9 
		280.3,373.6 281.1,373.8 281.7,373.7 282.5,374.2 283.8,375.1 284.3,375.3 285.7,376.3 286.6,376.6 286.8,377 287.2,377 
		287.9,377.7 288.3,377.8 289.2,378.8 289.5,378.9 290.9,380.4 291.9,381 292.4,381.7 292.7,381.8 293.3,382.4 294.4,383 
		294.4,383.4 295,383.8 295.2,383 296.4,383 296.7,382.4 298,382.6 298,381.6 298.9,381.4 299.3,382.2 299.3,382.7 300.7,382.7 
		301.2,382.2 301.7,382.2 302.1,382.8 302.3,383.4 302.7,384.2 302.7,384.8 301.9,386.3 301.8,387 301,387 300.3,387.8 300,388.7 
		300.1,389.8 300.7,390.2 301.3,390.2 301.5,390.8 301.2,391.6 300.8,392.2 301.1,394 300.9,395 300.7,395.8 300.7,397.9 301.3,398 
		301.6,397.4 302.9,396.7 303.2,395.3 303.9,395.3 304.1,394.8 304.1,393.9 304.5,393.7 305.5,393.5 306.1,392.8 306.5,392.6 
		306.5,392.1 306.7,391.7 306.4,391 306.5,390.4 307,389.7 307.7,389.4 308.2,388.3 309,387.8 309.5,388.1 309.3,387.1 309.4,386.5 
		310.4,386.7 310.7,386.5 311.2,386.8 311.1,385.7 311.5,384.8 311.9,384.3 312.6,383.7 312.7,383.4 314,383.2 314.4,382.9 
		314.8,382.2 315.9,381.4 315.9,380.4 315.4,379.3 315.9,378 316.1,377.2 316.1,376.5 315.5,376 314.8,376 314.1,376.8 312.9,377 
		312.4,376.6 312,375.7 311.8,375.1 311.8,374.1 312.3,372.9 313.4,373.2 314.1,373 314.3,372.6 315,372.7 316.2,372.4 316.6,371.1 
		316.5,370.7 317.5,370 317.8,370.1 318.1,370.7 318.4,371 319.4,370.8 319.6,370 319.6,368.8 320,368.9 320.4,369.3 321.5,369.5 
		322.6,368.9 322.7,368.5 323.4,368.2 323.5,367.1 323.1,366.6 322.6,366.3 321.7,366.5 320.9,365.8 320.1,365.7 320,365 
		319.8,364.8 319.9,363.6 319.4,363 318.8,363.5 318.7,362.6 319,362.2 319.6,362 319.6,361.5 319.3,360.8 319.1,359.7 318.5,359.6 
		318.2,359.9 318.2,360.8 317.6,360.2 317.2,359 316.9,358.6 316.6,357.9 315.9,357.1 315.6,356.6 315.5,356.1 316,355.2 
		315.9,354.7 315.4,354.2 314.5,353.9 314,353.2 314.1,352.4 314.4,352.2 314.2,351.4 314.6,350.4 314.7,349.7 315.1,348.6 
		315.1,347.9 315.2,347.5 316.3,347.3 316.1,346.2 315.9,345.9 315.9,345.2 315,345 314.8,344.4 315.4,343.8 315.7,344.2 316,343.2 
		316.4,343.2 317.8,344.1 318.1,343.6 318.4,343.5 318.7,343.9 319.8,343.1 319.9,342.4 320.1,341.8 320.3,340.3 320.2,339.9 
		320.4,339.5 321,339.6 321.1,338.8 320.3,338.6 319.9,338.1 320.2,337.7 319.6,337 319.3,336.9 319.4,336.1 320.6,336.1 
		321.1,335.9 320.8,335.2 322,335 321.4,334.7 321.1,333.7 321.6,333.4 321.8,333.8 322.2,333.6 321.9,332.9 322.4,332.1 323,330.3 
		323.6,329.6 324.1,328.4 324.5,328.1 324.7,327.4 325,327.3 325.2,326.5 326,326.3 326.1,325.7 325.9,325.4 325.6,323.4 
		326.3,323.2 326.5,322.9 327.2,323.2 327.4,323.8 327.8,323.4 327.4,322.1 328,321.8 328,321.4 328.5,321.2 329.3,321.3 
		329.8,320.6 328.8,320.7 328.5,320.5 328.4,320.1 328.9,320 328.4,319.2 328.5,318.3 328.9,317.9 329.1,317.3 329.4,316.9 
		330.1,315.6 331.1,314.2 331.6,313.9 332.1,313.2 332.3,312.6 333.1,311.6 333.4,310.8 333.8,310.2 333.9,309.5 333.5,308.5 
		334,308.3 334.5,307.4 334.5,305.8 334.2,305.2 333.8,305.2 333.2,305.8 332.2,305.8 331.6,305.3 332,304.7 331,304.3 330.7,304.6 
		330.2,304 329.7,303.2 328.9,302.1 328.5,301.2 328.3,300.4 328.3,299.1 328.5,298.3 328.5,297.6 328.2,297.2 328.2,296.4 
		328.6,295.3 329,294.4 328.1,294.4 327.9,293.9 327.9,293 329.2,290 329.6,289.3 330.2,288.1 330.9,287 330.8,284.2 331.5,280.3 
		331.4,279.6 331,278.5 330.1,277.3 329.5,275.6 329.6,274.8 329.6,273.8 330,272.1 330.5,270.7 331.1,270.4 330.8,270.1 
		330.3,268.7 330.8,266.9 331.3,266 331.2,264.9 331.4,264.2 331.4,263 331.6,262 331.5,261 331.2,260.8 331.4,259.9 331.8,258.8 
		331.5,258.4 332.2,256.7 333,256 333.4,255.4 333.9,254.2 334.7,253.1 334.8,252.5 335.2,251.9 335.9,251.2 336,250.7 337.1,250.1 
		337.4,249.4 337.5,248.1 338.1,248.7 338.6,248.7 338.5,247.4 338.8,246.7 339,246.5 340,245.1 340.7,244.8 341.4,244 341.5,243.7 
		343.1,242.3 344.1,241.7 345,240.8 346.6,239.5 347.5,238.9 348,238.4 348.4,238.4 349.4,237.5 350.2,237.2 351.4,237.4 
		352.1,237.3 353.1,237.3 353.5,237 353.9,237 354.4,237.7 354.6,238.5 355.1,239.1 355.2,239.5 356,239.5 356.5,239.7 356.9,240.2 
		356.9,240.7 357.3,241.3 358,241.5 358.5,242.5 358.8,242.6 359.3,243.6 360,243.7 360.4,244.1 361.4,244.5 361.8,244.2 
		362.2,245.1 362.8,245.3 363.3,245.8 363.9,246 364.1,246.5 364.8,246.3 364.8,246 365.6,246 367.9,245.6 368,245.3 368.7,245.2 
		369.6,244.8 370.3,244.8 370.8,245 371,245.4 371.7,246 372.6,245.9 372.7,246.2 374.3,245.8 375.7,245.8 375.9,245.9 376.5,245.6 
		377.2,245.6 377.6,245.4 380.3,245.2 380.6,245 381.6,245 382,244.8 382.9,244.8 383.2,244.7 385.8,244.6 386.2,244.4 387.7,244.6 
		388.7,244.2 389.4,244.2 389.9,244.5 393.6,244.4 394.8,244.4 395.9,244.2 396.2,243.8 398.1,243.8 399.1,243.9 399.8,243.6 
		401,243.6 401.8,243.4 404,243.5 404.5,243.3 408.3,243.4 408.7,243.3 410.1,243.7 410.6,244 412.2,244 412.9,244.2 414.2,244.2 
		415,244.4 415.6,244.8 416.1,244.8 417.3,245.2 419.3,245.7 420.1,246 420.6,246.5 421.1,247.1 421.8,247.4 424,247.3 425.5,247.6 
		426.4,247.9 427.8,248.1 428.6,248.2 429.9,248.6 430.2,248.9 431.1,248.9 431.8,249.1 433.3,249.3 434.1,249.6 434.8,249.6 
		435.9,249.9 436.9,249.9 437.6,250.1 438,250.4 438.9,250.3 439.6,250.1 439.7,250.2 441,250.3 442.9,250.5 443.5,250.7 445,251 
		445.6,251.4 446.5,251.8 446.7,252.2 447.5,251.8 448.4,251.6 450.3,251.9 450.9,251.9 451.8,252.1 452.7,252.1 453.9,252.2 
		454.8,252.6 455,253.2 456.3,252.8 457.4,252.7 458.2,253.1 460.4,253.2 461.5,253.6 462,253.6 462.4,253.8 463.4,254.2 464,254.2 
		465.3,254.6 466.6,255.2 467.6,255.4 468.3,255.9 469.2,256.1 470.6,257 471.7,257.3 472.3,257.7 472.4,258 473.2,258.5 
		473.6,259.3 474.2,259.9 475.7,261.1 476.7,261.8 477.2,262.6 477.4,263.3 477.4,263.9 477.2,264.4 476.7,264.9 476.2,265 
		476.5,265.7 477.3,265.8 477.4,265.4 478.2,265.4 478.8,265.5 480.4,266.5 480.9,266.9 481.2,267.5 482,267.9 484,267.5 
		484.6,267.9 485.6,267.9 485.7,268.1 487,268.5 487.2,268.7 487.9,268.9 488.6,269.2 491.4,270.2 493.7,271.2 494.4,271.5 
		495.4,272.1 496.4,272.2 498.3,273.5 499.1,273.6 500.2,274.2 500.4,274.2 501.7,275 502,275.4 502.8,275.5 503.8,276.2 
		504.6,276.4 505.6,277.2 506.3,277.3 506.6,277.7 507.3,277.9 507.6,278.2 509.1,278.9 510.2,279.7 510.6,280.1 511.3,280.3 
		511.7,280.8 512.1,280.9 513,282 513.1,282.4 514,282.8 514.4,283.1 515,284 516.6,285.2 517,285.3 518.4,286.2 519.6,286.9 
		520.7,287.4 521.3,287.8 522.4,288.8 523,289.5 524.2,290.2 524.6,290.9 525.9,292.4 526.6,293 527.5,293 528.1,293.6 527.7,294.4 
		528.3,294.4 529.1,294.2 529.5,293.4 530.1,293.2 530.6,293.3 531.2,293.8 531.7,293.6 533,294.7 533.5,294.8 535,294.8 
		535.6,295.2 536.2,295.1 536.6,295.4 537.2,295.4 537.2,295.8 537.9,295.7 538.2,295.2 539.1,295.2 539.7,295.9 540.2,296 
		540.4,295.7 541.1,295.9 541.3,296.3 541.9,296.8 542,297.2 542.4,297.5 542.2,298.3 542.5,298.8 543.3,299.4 543.8,299.1 
		543.8,299.7 544.5,300 544.9,300.7 545.7,301.1 546.3,302.1 546.2,302.9 545.7,303.1 545.6,303.5 546,303.9 546.6,304 546.9,303.6 
		547.4,303.7 548,303.2 548.4,303.3 548.9,303.8 549.8,304.2 550.1,304.8 551,305 551.4,305.2 551.8,305.7 552.3,305.7 553.3,306.2 
		554.2,306.3 554.9,305.9 556.4,306 557.8,306.7 558.2,306.7 559.1,307.2 560.2,307.4 562.1,308.2 564.3,309.3 564.9,309.9 
		565.8,310.3 566.5,310.8 566.8,310.8 567.7,311.7 568.6,311.7 569.2,311.6 569.6,312.2 570.6,312.3 571.7,313.6 572.9,313.5 
		573.9,314.2 574.5,314.2 575.2,314.8 576.8,314.8 577,314.4 577.7,314.5 578.3,315 578.7,314.8 579.3,314.8 579.6,315 580.8,315.4 
		581.2,315.9 582,316.3 582.7,317.3 583,317.3 584.2,318.7 584.3,319.9 584.1,320.7 584.3,320.8 584.3,321.6 585.4,321.8 
		586.5,321.4 586.3,319.7 586.5,318.9 587.3,318.5 588.6,318.4 589.2,318.5 589.9,318.8 591,319.6 591.6,319.6 592,320.1 
		593.2,320.9 593.2,321.2 595.5,322.8 596.8,324.5 596.9,324.9 598.7,326.5 599.6,327.1 600.2,327.9 600.8,328.6 601.5,329.7 
		601.6,330.1 602.1,330.3 603.9,332.7 605,334 607,336 607.8,337.4 607.8,337.9 608.4,338.9 608.3,340.4 608.5,340.7 609.1,341.2 
		609.3,341.8 609.7,342 610,343.2 610.3,343.6 611.4,343.8 611.9,344.3 612,344.7 613.2,345.2 614,346.4 614.5,346.5 615.2,347.6 
		616,348.5 616.9,350.2 617,350.9 617.4,351.4 617.6,352.5 618.2,353 618.4,353.5 618.9,354.4 619.2,355.2 619.9,355.9 620.2,356.9 
		620.6,357.7 621.1,358.2 621,359.2 620.9,359.7 621.5,360.3 622.2,362 622.6,362.6 623.6,365.3 623.9,365.4 624,366.3 624.4,366.6 
		624.6,367.3 624.9,367.5 625.3,368.3 625.8,368.3 625.8,369.1 626.3,369.1 627.2,370.2 627.7,371.1 628.1,371.4 628.5,372 
		629.6,372.1 630.3,373 630.2,373.8 630.7,374.4 631.7,374.4 632.5,375.3 633.2,375.8 633.5,376.6 633.9,376.8 634.8,378.4 
		635.5,379 635.7,379.5 635.3,380.6 636,381.2 636.2,381.7 636.4,383.3 636.5,384.7 636.4,385.1 635.9,385.4 635.9,385.7 
		636.6,386.3 637.7,387.9 638,388.6 638.5,388.9 638.7,389.9 639.1,390.4 639,391.4 639.1,392 639.7,392.2 640.2,392.8 640.6,392.8 
		641.2,393.4 642,393.5 642.6,394.2 643,394.2 644,394.9 645.3,395 645.8,395.8 645.8,396.5 646.4,396.7 647.6,396.9 648.3,397.9 
		648.9,398.3 649.1,398.9 649.6,399.4 650.8,400.1 651.5,401.6 651.8,401.9 651.8,402.3 652.3,402.4 652.3,402.9 652.8,403.6 
		653.3,403.6 653.4,404 653.4,404.7 653.6,404.9 653.8,405.9 654.1,406.1 654.1,406.7 655.2,407.3 655.9,407.5 656,408.3 
		655.9,409.1 656.4,409.1 657.3,408.6 658.6,409.3 659.6,409.1 660.1,409.3 660.5,409.7 660.1,410.5 660.4,411.1 660.8,411.4 
		661.6,411.4 661.9,412.4 662.3,412.3 662.8,412.8 663.4,412.8 663.6,413.4 664.3,414.1 665,414 665.2,414.4 665.2,415.1 
		665.7,414.9 666.3,415 666.8,415.3 667.5,415.3 668,415.8 668.8,416.1 668.9,416.7 669.4,416.9 669.9,417.7 670.1,418.4 671.4,419 
		671.8,419 671.8,419.5 672.4,420.1 672.7,420.7 673.4,420.8 673.7,421 673.4,421.6 673.6,421.9 674.1,422 674.5,421.4 675,421.4 
		675.4,422.2 676,423 676.4,423 677.5,422.6 678.3,423.7 678.7,424.7 679.3,424.9 680,424.9 680.4,425.4 681.7,425.5 682,425.7 
		683.4,425.4 684.7,425.5 685,425.2 685.4,424.3 685.9,424.2 686.3,424.4 686.6,424 687.5,424.1 688.9,422.9 690,421.6 690.7,420.7 
		691.4,419.7 692.4,417.4 693.7,414.7 694.2,412.8 694.7,408.4 695.1,406.3 696.6,403 696.9,401.8 697.6,398.6 698,397.5 699,395.3 
		699.4,394 699.8,391.9 700,387.6 700.3,385.5 700.6,384.1 701.7,381.5 701.9,380.3 701.9,379.1 701.7,377.9 700.8,375.8 
		700.4,374.6 700,372.4 699.9,370.2 699.9,365.6 699.9,359.5 700,356.4 700.2,355 700.5,353.6 701.8,350.8 702.2,349.7 703.1,344.4 
		704,341.5 	"/>
	<polygon class="st0" points="212.1,397.7 212.2,397.1 211.3,397.2 210.4,397.5 210,397.9 210.7,398.4 211.4,398.5 	"/>
	<polygon class="st0" points="185.7,415.1 185.1,414.2 184,415.4 183.2,416.8 182.8,417 182,418.1 182.1,418.7 182.7,418.7 
		182.7,418.3 183.3,418 183.9,418.1 184.1,417.3 184,416.5 184.5,416.3 185.5,416.3 186.1,416.7 186.5,416.7 187,416.3 186.2,415.3 
			"/>
	<polygon class="st0" points="211.4,399.1 211,399.1 210.7,398.7 210.6,399.5 211.3,399.8 	"/>
	<polygon class="st0" points="199.1,407.5 199.5,408.1 199.8,407.5 199.6,407.1 	"/>
	<polygon class="st0" points="212.1,401.2 211.7,401.2 211,401.9 210.4,402.1 210.2,402.6 209,403.1 208,403 207.3,403.4 
		206.7,403.6 205.9,403.7 205.3,404 204.6,404.7 204.1,404.8 203.6,405.5 202.8,405.9 202.2,406 201.6,406.5 201.3,406.9 201,406.8 
		200.3,407.1 200.2,407.6 200.7,408.3 201.3,408.1 201.6,407.3 202.2,407.8 202.6,407.8 202.9,407.5 203.9,407.5 204.4,406.9 
		204.9,406.7 205.3,406.4 206.5,406.6 207.1,405.9 207.5,405.9 207.2,406.7 206.8,406.9 207,407.5 207.4,407.5 208,406.9 
		207.8,406.4 208.5,406.3 209.2,405.9 209.6,405.5 209.6,404.8 209.2,404.4 210.4,404.3 211,403.8 211.1,403.2 210.8,402.9 
		211.5,402.2 211.9,402.4 212.6,402 213,401.5 213.4,401.2 213.5,400.8 212.8,400.8 	"/>
	<polygon class="st0" points="161.5,409.3 161.7,409.8 162.1,409.5 162,409.1 	"/>
	<polygon class="st0" points="161.1,411.7 161.2,412 162.1,411.9 161.6,411.3 	"/>
	<polygon class="st0" points="167,415.9 167.6,416.9 168,416.9 168.5,415.9 168.4,415.3 	"/>
	<polygon class="st0" points="147.6,403.9 148.1,404.4 148.6,404 148,403.3 	"/>
	<polygon class="st0" points="127.8,399.3 127.6,400.2 128,400.4 128.1,399.7 128.5,399.5 128.5,399.1 	"/>
	<polygon class="st0" points="113.9,395.9 113.2,396.5 112.8,396.5 112.4,396.9 112,396.9 111.8,397.7 112,398 112.8,397.8 
		113.2,397.3 114,396.9 114.7,396.2 115.3,395.9 115,395.7 	"/>
	<polygon class="st0" points="116.2,394.4 115.7,394.8 115.7,395.3 116.1,395.6 116.6,395.5 116.9,395.2 116.8,394.4 	"/>
	<polygon class="st0" points="327.1,338.1 326.5,338.9 326.8,339.1 327.3,338.5 327.9,338.6 327.7,338 	"/>
	<polygon class="st0" points="301.7,402.8 301.6,402.1 300.8,402.1 301,402.6 301.1,403.6 300.7,404 301.1,405.8 301.7,406.1 
		301.8,405.1 301.4,404.3 	"/>
	<polygon class="st0" points="301.2,400.2 301.2,399.5 300.6,399.7 300.2,400.2 300.1,400.8 300.8,401 	"/>
	<polygon class="st0" points="313.8,391.6 313.7,390.9 313.3,390.5 312.7,390.8 312.8,391.6 313.5,391.8 313.9,392.6 314.5,393 
		314.7,392.6 314.1,392.1 	"/>
</g>
</svg>
