<?xml version="1.0" encoding="utf-8"?>
<!-- Generator: Adobe Illustrator 24.2.3, SVG Export Plug-In . SVG Version: 6.00 Build 0)  -->
<svg version="1.1" id="Layer_1" xmlns="http://www.w3.org/2000/svg" xmlns:xlink="http://www.w3.org/1999/xlink" x="0px" y="0px"
	 viewBox="0 0 800 534" style="enable-background:new 0 0 800 534;" xml:space="preserve">
<style type="text/css">
	.st0{fill:#F2933D;stroke:#000000;stroke-width:0.4;stroke-miterlimit:9;}
</style>
<polygon class="st0" points="558.2,238 556.2,238.7 556.2,238.7 547.4,240.6 543.7,241 540.2,241.2 542.6,236.2 542,233.8 
	533,214.3 530.7,209.4 528.7,207.4 526.5,206.6 526.3,206.6 523.4,206.2 522.5,206.5 520.8,207.1 515.8,210.3 513.4,209.7 
	508.5,208.4 506,206.5 507.4,205 508.2,204.4 511.5,202.5 515,201 517.8,200.2 518,200.1 523,197.2 525.9,194.1 527.3,192.7 
	527.4,192.6 530.2,190.8 530.4,189.4 531.1,188.9 531.7,188.4 532.3,187.2 532.3,187.2 532.3,187.1 532.2,186.7 532.1,185.9 
	531,184.5 528.5,183.1 526.3,182.3 523,181.8 520.2,182 518,181.4 516.4,179.1 514.1,178.8 510,178.3 507.9,178.1 506.1,175.3 
	503.4,170.3 500,163.8 498.5,161.8 486.7,155.4 480.4,155 476.8,152.6 472.9,151.2 471.7,149.5 470.1,147.1 468.8,144.6 
	467.8,142.8 464.9,140.2 462.4,138.4 461.1,136 461.1,135.9 461.2,133.4 459.3,129.6 456.9,127.8 455.7,126.6 455.9,123.8 
	455.8,120.9 454.4,118.6 453.4,118.2 452,117.7 451.7,117.6 450.5,117.2 446.2,115.6 443.9,112.2 442.4,110.3 441.7,109.2 
	432.7,105.6 432,103.8 432.3,100.6 431.9,97.4 429.7,95.4 425.8,95.5 423.2,95.8 419.9,97.4 419.1,101.2 418.3,104.1 417.4,106.3 
	416.6,108 415.2,109.1 413.5,109.2 411.6,107.7 409.8,105.7 408,104.5 405.4,103.8 401,100.3 401.1,97.7 400.2,95.6 397.6,93.3 
	395.9,91.5 395.6,89.7 397.1,85.8 399.4,84.2 401.8,83.4 404.8,81 404,72.7 404,71.4 404.7,70.1 406.7,69.2 408.6,68.1 410,66.4 
	410.8,65.5 409.9,60.1 407.6,57.9 407.3,57.9 406.7,57.9 406.7,57.9 404.3,57.8 395.6,57.6 394.2,59.3 394,59.7 393.5,60.8 
	392.4,62.2 391.1,61.9 388.7,60.2 385.4,59.5 380.1,56.4 377.8,55.1 375.6,55 371.8,53.9 371.6,53.8 371.3,53.8 367.2,53.4 
	361.9,53.6 359.7,53.6 357.2,53.7 357.1,53.7 355,54.3 352.7,55 349.6,56 345.6,57.1 343.8,57.3 340.5,58.5 338.6,59.3 338.2,59.5 
	336.2,59.2 333.5,58.8 333.1,59 331.8,59.7 330.1,63 330,63.1 328.3,64.3 327.6,64.7 327.5,64.8 325.8,65.8 324.3,67.6 323.7,69.5 
	323.9,72 324,74.6 323.6,77.3 321.2,82.1 319.4,85.7 320.4,87.2 320.9,92 320.9,92.2 320.8,92.2 318.6,93.1 317.6,94 316.5,95 
	314,99.9 309.6,99.5 308.2,100.8 307.8,103.1 306.5,104.4 304.1,105.3 303.1,106.3 301.1,111 301.2,111.3 301.5,111.7 301.5,111.9 
	302.7,114 304.6,117.1 305.1,118.9 305.5,120.6 305.4,122.3 304.5,123.7 302.2,123.8 301.5,123.3 299.2,121.3 296.5,121.4 
	288.6,123.8 289.5,126.3 290.5,130.7 290.9,132.1 290.9,132.1 292.6,142 293.4,144.2 295.7,149.3 296.4,151.6 297.3,156.4 
	298,158.7 300.9,164.7 302.6,169.2 305.8,176.3 307.5,183.5 308.3,185.7 310.9,190.7 312.7,195.1 315.9,201 317.7,205.5 
	320.9,211.4 322.4,214.5 323.4,216.4 325.5,218.8 324.2,222.9 321,231.4 320.5,232.4 319.1,234.3 316.8,237 314.3,239.3 
	312.4,240.7 310.6,241.6 306.2,243.6 301.4,246.3 297.1,248.1 294.2,250.1 291.5,252.6 288.9,255.2 272.6,272.2 268.7,276.7 
	266,280.9 265.5,281.3 264.9,281.5 263.7,281.6 262.4,286.3 261.3,291 260.5,293.4 259.9,294.5 258.5,296.6 254.6,301.5 
	252.5,304.6 250.6,309 247.4,314.9 245.6,319.3 242.2,325.3 241.2,327.2 241.4,337.1 241.2,348.5 241.9,353.2 242.5,355.5 
	245.5,361.6 247.3,366 250.3,372 250.9,374.4 251.9,379.1 252.5,381.4 255.4,387.6 257.3,393.3 259.2,397.1 261.8,398.9 
	264.2,401.3 265.4,403.1 267.4,407.4 269.2,410.3 271.5,413 277.1,419.1 279.2,421.9 280.4,423.8 282.3,428.2 283.5,430.1 
	285.7,432.9 292.9,440.8 294.9,443.6 298,449.9 299.3,451.8 303.6,457.2 305.5,460.1 307.3,464.5 310.5,470.4 313.7,479.5 
	320.2,480.3 325.6,480.6 330.9,480.5 334.8,479.8 336,479.3 338.2,478.1 344.9,472.6 346.9,471.2 351.1,469.1 356.8,465.8 
	361.1,463.9 366,461.3 369.3,460.3 377.7,459.4 381.1,458.6 387.1,455.8 389.3,455.2 393.9,454.2 396.2,453.5 402.1,450.4 
	406.2,448.8 409.8,447.1 413.6,442 415.6,438.6 416.3,436.3 418,429.3 420.3,424.2 421.1,421.8 421.5,419.1 421.8,415 421.8,392.1 
	421.9,387.9 422.3,385.2 422.9,382.5 425.2,377.4 426,375.2 427.3,369.3 428,367 430.2,362.1 431.3,359 434.2,354.5 436.3,351.8 
	439.6,348.6 442.3,346.7 446.5,344.8 452.3,341.5 456.6,339.7 460.4,337.5 462.4,336.6 464.7,335.9 470.6,334.9 475.7,333.4 
	478.7,332.7 484.6,327.9 486.5,326.8 488.6,325.9 491,325.4 494.7,325.3 498.3,325.6 502.2,326.5 506.7,324.4 512.7,321.2 
	514.9,320.6 520.6,319.2 522.8,318.2 524.9,316.9 531.7,311.5 535.8,309.3 537.7,308.1 540.1,305.8 541.4,304 543.4,299.8 
	546.6,293.8 548.4,289.4 550.9,284.4 551.7,282.1 552.1,279.5 552.4,275.4 552.3,255.9 552.6,250.4 553.3,247.8 554.2,245.8 
	557.4,240.2 558.8,238.6 "/>
</svg>
