<?xml version="1.0" encoding="utf-8"?>
<!-- Generator: Adobe Illustrator 24.2.3, SVG Export Plug-In . SVG Version: 6.00 Build 0)  -->
<svg version="1.1" id="Layer_1" xmlns="http://www.w3.org/2000/svg" xmlns:xlink="http://www.w3.org/1999/xlink" x="0px" y="0px"
	 viewBox="0 0 800 533" style="enable-background:new 0 0 800 533;" xml:space="preserve">
<style type="text/css">
	.st0{fill:#F2933D;stroke:#000000;stroke-width:0.4;stroke-miterlimit:9;}
</style>
<polygon class="st0" points="640.5,183.7 639.4,181.8 638,178.6 634.8,172.8 633,168.4 629.8,162.5 628.1,158.1 625.5,153.1 
	624.6,150.9 623,143.7 619.8,136.8 618.1,132.3 615.2,126.3 614.5,123.9 613.6,119.2 612.9,116.9 610.6,111.9 609.8,109.6 
	608.1,99.9 608.2,99.8 607.7,98.5 606.7,94.1 605.9,91.6 605.4,91.8 600.4,91.5 597.3,91.3 594.8,90.2 591.5,87 586.6,83.9 
	585.5,82.1 584.2,79.7 576.9,79.9 572.1,80.6 569.2,78.9 567.8,78.4 566.7,77.8 565.8,76.9 564.4,76.9 562,77.2 559.8,77.8 
	556.8,76.6 554.4,73.5 552,72 549.5,71.3 547.6,69.6 544.8,67.5 542.4,67.1 536.6,68 531.8,66.2 526.5,66.5 519.9,66.8 518.4,66.8 
	517.3,67.4 516.6,67.8 516.3,66.9 514.7,62.3 513.7,61.3 512,60.7 509.9,58.5 505.8,58.3 502.3,59.8 499.4,60.8 497.2,60.9 
	494.4,61.3 491.9,62.1 488.9,62.4 488.2,59.2 486,58.8 482.8,60.8 479.3,60 479.2,60 477.8,59.7 477.6,59.8 477.4,59.9 475.1,60.8 
	470.3,64.3 468.4,65.7 466.7,66.9 464.9,67.4 462.6,66.7 455,62.5 452.3,62.1 447.8,62.2 446.4,62 445.4,60.2 445.4,59.5 
	445.3,57.7 441.3,53.7 434,54 431.4,57.6 428.7,59.5 427.5,60.3 427.2,60.5 426.4,61 425.5,61.6 425.4,61.7 423.3,63.3 421.9,63.8 
	421.7,63.9 418.2,64.7 416.8,68.6 414.5,70.7 414.4,72.3 414.3,74.1 410.9,78.2 408.6,82.1 408.6,82.2 406,83.1 399.7,85 
	399.1,87.4 396.2,91.4 394,92.5 394,92.5 391.7,94 390.2,93.9 387.5,90.4 386.1,87.7 384,86.8 382.5,86 379.2,85.1 378.4,82 
	376.3,80.8 374.6,80.1 374.3,80 373.9,79.8 371.8,78.8 370,77.6 367.4,76.6 367.2,76.6 366.6,76.6 364.6,76.7 364.3,76.7 
	358.7,76.9 356.3,76.3 354.5,75.9 353.7,74.5 354.5,72.4 354.6,72.4 356.1,71.2 356.1,71.1 356.3,70 356.4,69.4 355.5,67.4 
	353.2,66.4 352.2,65.9 346.1,68.6 341.3,70.8 337.2,71.7 334.3,72.2 331.4,70.9 324.6,66.4 323,65.4 321,63.6 318.7,61.4 312.6,59 
	312.4,59 312.3,58.9 310.4,58.3 309.7,57.2 309,56.1 308.2,55.8 306.5,55.1 302,54.8 299.4,53.5 299.3,53.4 298.9,53.3 298.9,53.3 
	298.9,53.4 298.9,54.3 298.8,54.3 298.8,55.2 298.6,55.2 298.6,55.5 298.5,55.5 298.5,55.8 298.4,55.8 298.4,56.1 298.3,56.1 
	298.3,56.6 298.2,56.6 298.2,57 297.9,57 297.9,57.1 297.8,57.1 297.8,57.2 297.7,57.2 297.7,57.4 297.7,57.5 297.6,57.5 
	297.6,57.6 297.5,57.6 297.5,58.2 297.5,58.4 297.4,58.4 297.4,58.4 297.4,58.5 297.4,58.5 297.3,58.5 297.3,58.5 297.3,59 
	297.2,59 297.2,59.2 297.1,59.2 297.1,59.3 297,59.3 297,59.5 296.9,59.5 296.9,59.6 296.8,59.6 296.8,59.7 296.7,59.7 296.7,59.7 
	296.7,59.6 296.3,59.6 296.3,59.7 296.2,59.7 296.2,60 296,60 296,60.1 295.7,60.1 295.7,60.2 295.6,60.2 295.6,60.3 295.5,60.3 
	295.5,60.4 295.4,60.4 295.4,60.5 295.4,60.6 295.3,60.6 295.1,60.6 295.1,60.7 295,60.7 295,60.7 295,60.8 294.9,60.8 294.9,61.2 
	294.8,61.2 294.8,61.6 294.7,61.6 294.7,61.7 294.6,61.7 294.6,61.8 294.5,61.8 294.5,61.9 294.5,61.9 294.5,62.2 294.4,62.2 
	294.4,62.4 294.3,62.4 294.3,62.5 294.2,62.5 294.2,62.8 294.1,62.8 294.1,62.9 294,62.9 294,63.1 293.9,63.1 293.9,63.5 
	293.8,63.5 293.8,63.8 293.7,63.8 293.7,64 293.6,64 293.6,64.3 293.5,64.3 293.5,64.5 293.4,64.5 293.4,64.7 293.3,64.7 293.3,65 
	293.3,65 293.3,65.5 293.2,65.5 293.2,65.8 293.2,66 293.1,66 293.1,66.2 293,66.2 293,66.5 292.9,66.5 292.9,66.6 292.8,66.6 
	292.8,66.8 292.7,66.8 292.7,67.1 292.6,67.1 292.6,67.2 292.5,67.2 292.5,67.5 292.4,67.5 292.4,67.7 292.3,67.7 292.3,67.9 
	292.2,67.9 292.2,68.1 292.1,68.1 292.1,68.3 292.1,68.3 292.1,68.6 292,68.6 292,68.7 291.9,68.7 291.9,68.9 291.8,68.9 
	291.8,69.2 291.7,69.2 291.7,69.3 291.6,69.3 291.6,69.5 291.5,69.5 291.5,69.8 291.4,69.8 291.4,69.9 291.3,69.9 291.3,70.2 
	291.2,70.2 291.2,70.4 291.1,70.4 291.1,70.5 291,70.5 291,70.8 290.9,70.8 290.9,71 290.9,71 290.9,71.1 290.8,71.1 290.8,71.4 
	290.7,71.4 290.7,71.5 290.6,71.5 290.6,71.8 290.5,71.8 290.5,71.9 290.4,71.9 290.4,72 290.3,72 290.3,72.3 290.2,72.3 
	290.2,72.4 290.1,72.4 290.1,72.6 290,72.6 290,72.7 289.4,72.7 289.4,72.9 289.1,72.9 289.1,73 288.8,73 288.8,73.2 288.5,73.2 
	288.4,73.2 288.4,73.4 288.2,73.4 288.2,73.5 288.1,73.5 288.1,73.6 287.9,73.6 287.9,73.7 287.8,73.7 287.8,73.8 287.6,73.8 
	287.6,74 287.4,74 287.4,74.1 287.3,74.1 287.3,74.2 286.9,74.2 286.9,74.3 286.4,74.3 286.4,74.5 286.3,74.5 286.3,74.6 
	286.2,74.6 286.2,74.7 286.1,74.7 286.1,74.8 286,74.8 286,75 285.8,75 285.8,75.1 285.7,75.1 285.7,75.2 285.6,75.2 285.6,75.3 
	285.5,75.3 285.5,75.4 285.3,75.4 285.3,75.6 285.2,75.6 285.2,75.7 285.1,75.7 285.1,75.8 285,75.8 285,75.9 284.9,75.9 
	284.9,76.1 284.7,76.1 284.7,76.2 284.6,76.2 284.6,76.3 284.4,76.3 284.4,76.4 284.3,76.4 284.3,76.6 284.1,76.6 284.1,76.7 
	284,76.7 284,76.8 283.8,76.8 283.8,76.9 283.8,76.9 283.8,77 283.7,77 283.7,77.2 283.6,77.2 283.6,77.3 283.5,77.3 283.5,77.4 
	283.5,77.4 283.4,77.4 283.4,77.5 283,77.5 282.5,77.5 282.1,77.5 282.1,77.8 282,77.8 282,77.9 282,78 281.8,78 281.8,78.2 
	281.1,78.2 281.1,78 280.5,78 280.5,77.9 280.1,77.9 280.1,78.2 279.8,78.2 279.8,78.4 279.7,78.4 279.7,78.5 279.6,78.5 
	279.6,78.6 279.5,78.6 279.5,78.8 279.5,78.9 279.4,78.9 279.1,78.9 279.1,79 279,79 279,79 279,79.4 278.9,79.4 278.9,79.5 
	278.8,79.5 278.8,79.6 278.7,79.6 278.7,79.8 278.6,79.8 278.6,79.9 278.4,79.9 278.4,80 278.3,80 278.3,80.1 278.2,80.1 
	278.2,80.2 278.1,80.2 278.1,80.4 278,80.4 278,80.5 277.6,80.5 277.6,80.6 277.5,80.6 277.5,80.7 277.2,80.7 277.2,80.9 
	277.1,80.9 277.1,81 277,81 277,81.1 276.9,81.1 276.9,81.2 276.7,81.2 276.7,81.3 276.7,81.3 276.7,81.5 276.4,81.5 276.4,81.6 
	276,81.6 276,81.7 275,81.7 275,81.8 274.6,81.8 274.6,82 274.3,82 274.3,82.1 274.2,82.1 274.2,82.2 274.1,82.2 274.1,82.3 
	274,82.3 274,82.7 273.9,82.7 273.9,83.3 273.8,83.3 273.8,83.5 273.8,83.8 273.7,83.8 273.7,84.1 273.6,84.1 273.6,84.3 
	273.5,84.3 273.5,84.5 273.4,84.5 273.4,84.8 273.3,84.8 273.3,84.9 273.2,84.9 273.2,85.2 273.1,85.2 273.1,85.4 273.1,85.4 
	273.1,85.5 273,85.5 273,85.7 272.9,85.7 272.9,85.8 272.7,85.8 272.7,85.9 272.6,85.9 272.6,86 272,86 272,86.1 271.8,86.1 
	271.8,86.3 271.5,86.3 271.5,86.3 271.5,86.3 271.5,86.4 271.4,86.4 271.4,86.4 271.4,86.4 271.4,86.6 271.3,86.6 271.3,86.8 
	271.2,86.8 271.2,86.6 270.9,86.6 270.9,86.8 270.8,86.8 270.8,86.9 270.9,86.9 270.9,87 270.7,87 270.7,87.1 270.7,87.1 
	270.7,87.4 270.6,87.4 270.5,87.4 270.5,87.5 270.4,87.5 270.4,87.6 270.4,87.6 270.5,87.6 270.5,87.7 270.3,87.7 270.3,87.7 
	270.3,87.8 270.3,88.2 270,88.2 270,88.4 269.9,88.4 269.9,88.5 269.7,88.5 269.6,88.5 269.6,88.6 269.6,88.8 269.5,88.8 269.5,89 
	269.4,89 269.4,89.1 269.2,89.1 269.2,89.1 269.2,89.2 269.2,89.3 269.1,89.3 269.1,89.5 268.9,89.5 268.9,89.5 268.9,89.5 
	268.9,89.6 268.8,89.6 268.7,89.6 268.7,89.7 268.6,89.7 268.6,89.8 268.4,89.8 268.4,90 268.4,90 268.4,90.2 268.4,90.6 
	268.3,90.6 268.3,90.7 268.2,90.7 268.2,90.8 268.1,90.8 268.1,90.9 267.8,90.9 267.7,90.9 267.7,91 267.7,91.3 267.6,91.3 
	267.6,91.4 267.5,91.4 267.5,91.6 267.4,91.6 267.4,91.7 267.2,91.7 267.2,91.8 267.2,91.8 267.2,91.9 267.1,91.9 267.1,92 267,92 
	267,92.1 267,92.2 266.9,92.2 266.9,92.2 266.9,92.3 266.9,92.4 266.8,92.4 266.8,92.4 266.8,92.5 266.8,92.5 266.8,92.5 
	266.7,92.5 266.7,92.7 266.7,92.8 266.6,92.8 266.6,92.8 266.6,92.9 266.5,92.9 266.5,93.1 266.5,93.2 266.5,93.2 266.4,93.2 
	266.4,93.2 266.4,93.4 266.3,93.4 266.3,93.4 266.3,93.6 266.2,93.6 266.2,93.9 266.1,93.9 266.1,94.3 266,94.3 266,94.4 266,94.4 
	266,94.5 265.9,94.5 265.9,94.6 265.8,94.6 265.8,95.1 265.7,95.1 265.7,95.7 265.6,95.7 265.6,95.9 265.5,95.9 265.5,96.1 
	265.4,96.1 265.4,96.2 265.1,96.2 265.1,96.4 265,96.4 265,96.7 264.9,96.7 264.9,97 264.6,97 264.6,97 264.6,97.1 264.5,97.1 
	264.5,97.2 264.3,97.2 264.3,97.3 264.4,97.3 264.5,97.3 264.5,97.5 264.4,97.5 264.3,97.5 264.3,97.6 264.3,97.8 264.2,97.8 
	264.2,97.8 264.2,97.7 264.1,97.7 264.1,97.8 263.8,97.8 263.8,98.2 263.7,98.2 263.7,98.4 263.6,98.4 263.6,98.6 263.5,98.6 
	263.5,98.7 263.3,98.7 263.3,98.8 263.1,98.8 263.1,99.2 263,99.2 263,99.5 262.9,99.5 262.9,99.8 262.8,99.8 262.8,99.9 
	262.7,99.9 262.7,100 262.6,100 262.6,100.3 262.5,100.3 262.5,100.4 262.4,100.4 262.4,100.5 262.4,100.5 262.4,100.7 262.2,100.7 
	262.2,100.8 262.1,100.8 262.1,101.1 262,101.1 262,101.6 261.9,101.6 261.9,102.1 261.8,102.1 261.8,102.4 261.7,102.4 
	261.7,102.5 261.6,102.5 261.6,102.6 261.4,102.6 261.4,102.7 261.3,102.7 261.3,102.9 261.2,102.9 261.2,103 260.9,103 
	260.9,103.2 261,103.2 261,103.5 260.9,103.5 260.9,103.7 260.8,103.7 260.8,103.9 260.7,103.9 260.7,104 260.6,104 260.6,104.1 
	260.5,104.1 260.5,104.2 260.1,104.2 260.1,104.1 259.8,104.1 259.8,104 259.5,104 259.5,104.1 259.4,104.1 259.4,104.5 
	259.2,104.5 259.2,104.3 259.1,104.3 259.1,104.2 258.9,104.2 258.9,104.3 258.6,104.3 258.6,105.1 257.9,105.1 257.9,105.2 
	258,105.2 258,105.4 258.1,105.4 258.1,105.6 258.2,105.6 258.2,105.7 258.3,105.7 258.3,105.8 258.4,105.8 258.4,106.1 
	258.5,106.1 258.5,106.2 258.6,106.2 258.6,106.3 258.7,106.3 258.7,106.4 258.8,106.4 258.8,106.6 258.9,106.6 258.9,106.7 
	258.9,106.7 258.9,106.9 259,106.9 259,107.4 258.9,107.4 258.9,107.5 258.9,107.5 258.9,107.7 258.8,107.7 258.8,107.8 
	258.7,107.8 258.7,107.9 258.6,107.9 258.6,108 258.5,108 258.5,108.2 258.4,108.2 258.4,108.4 258.3,108.4 258.3,108.6 
	258.2,108.6 258.2,108.8 258.1,108.8 258.1,108.9 257.9,108.9 257.9,109 257.8,109 257.8,109.1 257.7,109.1 257.7,109.3 
	257.7,109.3 257.7,109.5 257.6,109.5 257.6,109.6 257.5,109.6 257.5,109.8 257.4,109.8 257.4,109.9 257.3,109.9 257.3,110.1 
	257.2,110.1 257.2,110.2 257.1,110.2 257.1,110.4 257,110.4 257,110.6 256.9,110.6 256.9,110.7 256.8,110.7 256.8,110.9 
	256.7,110.9 256.7,111 256.6,111 256.6,111.1 256.5,111.1 256.5,111.2 256.4,111.2 256.4,111.4 256.3,111.4 256.3,111.5 
	256.2,111.5 256.2,111.6 256,111.6 256,111.7 255.9,111.7 255.9,111.8 255.7,111.8 255.7,112 255.6,112 255.6,112.1 255.5,112.1 
	255.5,112.2 255.4,112.2 255.4,112.5 255.3,112.5 255.3,112.6 255.3,112.6 255.3,112.7 255.2,112.7 255.2,112.8 255.1,112.8 
	255.1,113 255,113 255,113.2 254.9,113.2 254.9,113.3 254.8,113.3 254.8,113.4 254.7,113.4 254.7,113.6 254.6,113.6 254.6,113.7 
	254.5,113.7 254.5,113.8 254.3,113.8 254.3,113.9 254.2,113.9 254.2,114.1 254.1,114.1 254.1,114.2 254.1,114.2 254.1,114.3 
	253.9,114.3 253.9,114.4 253.8,114.4 253.8,114.6 253.7,114.6 253.7,114.7 253.6,114.7 253.6,114.8 253.4,114.8 253.4,114.9 
	253.3,114.9 253.3,115 253.2,115 253.2,115.2 253,115.2 253,115.3 252.8,115.3 252.8,115.4 252.5,115.4 252.5,115.5 252.4,115.5 
	252.4,115.7 252.2,115.7 252.2,115.8 251.9,115.8 251.9,115.9 251.6,115.9 251.6,116 251.5,116 251.5,116.1 251.4,116.1 
	251.4,116.3 251.3,116.3 251.3,116.4 251.1,116.4 251.1,116.5 251,116.5 251,116.6 250.9,116.6 250.9,116.8 250.8,116.8 
	250.8,116.9 250.7,116.9 250.7,117 250.6,117 250.6,117.1 250.5,117.1 250.5,117.4 250.4,117.4 250.4,117.5 250.2,117.5 
	250.2,117.6 250.1,117.6 250.1,117.7 249.9,117.7 249.9,117.6 249.7,117.6 249.7,117.5 249.5,117.5 249.5,117.6 248.8,117.6 
	248.8,117.7 248.4,117.7 248.4,117.9 248.1,117.9 248.1,118 247.7,118 247.7,118.1 247.3,118.1 247.3,118.2 247,118.2 247,118.4 
	246.7,118.4 246.7,118.5 245.1,118.5 245.1,118.6 244.6,118.6 244.6,118.7 244.3,118.7 244.3,118.9 244,118.9 244,119 243.7,119 
	243.7,119.1 243.5,119.1 243.5,119.2 243.4,119.2 243.4,119.3 243.2,119.3 243.2,119.2 243,119.2 243,119.3 242.9,119.3 
	242.9,119.5 242.7,119.5 242.7,119.6 242.5,119.6 242.5,119.3 242.4,119.3 242.4,119.2 242.3,119.2 242.3,119.1 242.2,119.1 
	242.2,119.2 241.5,119.2 241.5,119.1 241.5,119.1 241.4,119.1 241.4,119 241.2,119 241.2,118.9 240.9,118.9 240.9,119 240.5,119 
	240.5,119.1 240.2,119.1 240.2,119 240.1,119 240.1,118.9 239.6,118.9 239.6,119 239,119 239,118.9 238.4,118.9 238.4,119 238,119 
	238,119.1 237.5,119.1 237.5,119.2 236,119.2 236,119.6 235.8,119.6 235.8,119.7 235.5,119.7 235.5,119.8 235.1,119.8 235.1,120 
	235,120 235,120.1 234.9,120.1 234.9,120.2 234.8,120.2 234.8,120.1 234.7,120.1 234.7,120.2 234.5,120.2 234.5,120.1 234.4,120.1 
	234.4,120.2 234.3,120.2 234.3,120.1 234.1,120.1 234.1,120.2 233.8,120.2 233.8,120.3 233.3,120.3 233.3,120.5 232.9,120.5 
	232.9,120.6 232.7,120.6 232.7,120.7 232.4,120.7 232.4,120.8 231.9,120.8 231.9,120.9 231.1,120.9 231.1,121.1 230.8,121.1 
	230.8,121.2 230.6,121.2 230.6,121.3 230.5,121.3 230.5,121.4 230.4,121.4 230.4,121.6 230.2,121.6 230.2,121.7 229.9,121.7 
	229.9,121.8 229.8,121.8 229.8,121.9 229.5,121.9 229.5,122.1 229.4,122.1 229.4,122.2 229.3,122.2 229.3,122.3 229.2,122.3 
	229.2,122.4 229.2,122.4 229.2,122.7 229.1,122.7 229.1,122.8 229,122.8 229,123 228.9,123 228.9,123.3 228.6,123.3 228.6,123.4 
	228.5,123.4 228.5,123.5 228.4,123.5 228.4,123.6 228.3,123.6 228.3,123.8 228.2,123.8 228.2,123.9 228,123.9 228,124 228,124 
	228,124.3 227.7,124.3 227.7,124.4 227.6,124.4 227.6,124.5 227.4,124.5 227.4,124.6 227.2,124.6 227.2,124.8 227.1,124.8 
	227.1,124.9 227,124.9 227,125 226.8,125 226.8,125.1 226.7,125.1 226.7,125.2 226.5,125.2 226.5,125.4 225.8,125.4 225.8,125.5 
	225.7,125.5 225.7,125.4 225.6,125.4 225.6,125.2 225.3,125.2 225.3,125.5 225,125.5 225,125.4 224.8,125.4 224.8,125.6 
	224.7,125.6 224.7,125.5 224.4,125.5 224.4,125.7 224.2,125.7 224.2,125.9 224.1,125.9 224.1,126 223.9,126 223.9,126.1 
	223.8,126.1 223.8,126.2 223.3,126.2 223.3,126.4 223.2,126.4 223.2,126.5 223,126.5 223,126.6 222.6,126.6 222.6,126.7 
	222.4,126.7 222.4,126.8 222.3,126.8 222.3,127 222.2,127 222.2,127.1 222.1,127.1 222.1,127.2 222,127.2 221.9,127.2 221.9,127.3 
	221.9,127.3 221.8,127.3 221.8,127.5 221.5,127.5 221.5,127.6 221.4,127.6 221.4,127.8 221.3,127.8 221.3,128 221.2,128 
	221.2,128.2 221.1,128.2 221.1,128.3 221,128.3 221,128.4 220.9,128.4 220.9,128.6 220.8,128.6 220.8,128.7 220.7,128.7 
	220.7,128.8 220.5,128.8 220.5,128.9 220.4,128.9 220.4,129.1 220.2,129.1 220.2,129.2 220.1,129.2 220.1,129.3 219.8,129.3 
	219.8,129.4 219.7,129.4 219.7,129.6 219.6,129.6 219.6,129.7 219.2,129.7 219.2,129.8 218.6,129.8 218.6,129.7 218.6,129.7 
	218.6,129.8 218.3,129.8 218.3,129.7 218.2,129.7 218.2,129.6 218.1,129.6 218.1,129.6 218.1,129.6 218.1,129.7 218,129.7 
	218,129.8 217.9,129.8 217.9,129.8 217.9,129.7 217.4,129.7 217.4,129.8 217.4,129.8 217.4,129.9 217.3,129.9 217.3,130 216.5,130 
	216.5,130.2 216.2,130.2 216.2,130.3 216.1,130.3 216.1,130.4 216,130.4 216,130.5 215.8,130.5 215.8,130.7 215.6,130.7 
	215.6,130.8 215.4,130.8 215.4,130.9 215.3,130.9 215.3,131 215.1,131 215.1,131.2 215,131.2 215,131.3 214.9,131.3 214.9,131.4 
	214.5,131.4 214.5,131.5 214.1,131.5 214.1,131.4 213.9,131.4 213.9,131.3 213.4,131.3 213.4,131.4 212.9,131.4 212.9,131.5 
	212.7,131.5 212.7,131.6 211.8,131.6 211.8,131.8 211.6,131.8 211.6,131.9 211.4,131.9 211.4,132 211.2,132 211.2,132.1 
	210.6,132.1 210.6,132.3 210.2,132.3 210.2,132.4 209.9,132.4 209.9,132.5 209.4,132.5 209.4,132.6 209.1,132.6 209.1,132.7 
	209,132.7 209,132.9 208.7,132.9 208.7,133 208.5,133 208.5,133.1 208.2,133.1 208.2,133.2 208,133.2 208,133.4 207.9,133.4 
	207.8,133.4 207.8,133.5 207.6,133.5 207.6,133.6 207.3,133.6 207.3,133.7 207.1,133.7 207.1,133.9 206.9,133.9 206.9,134 
	206.7,134 206.7,134.1 206.6,134.1 206.6,134.2 206.4,134.2 206.4,134.3 206.2,134.3 206.2,134.5 206.1,134.5 206.1,134.6 
	205.9,134.6 205.9,134.7 205.7,134.7 205.7,134.8 205.3,134.8 205.3,135 205.2,135 205.2,135.1 205.1,135.1 205.1,135.2 
	204.8,135.2 204.8,135.5 204.5,135.5 204.5,135.6 204.4,135.6 204.4,135.8 204.3,135.8 204.3,135.9 203.9,135.9 203.9,136.1 
	203.8,136.1 203.8,136.2 203.7,136.2 203.7,136.4 203.6,136.4 203.6,136.6 203.5,136.6 203.5,136.7 203.3,136.7 203.3,137.2 
	203.2,137.2 203.2,137.3 203,137.3 203,137.4 202.9,137.4 202.9,137.5 202.6,137.5 202.6,137.7 202.5,137.7 202.5,137.8 
	202.2,137.8 202.2,137.9 202.1,137.9 202.1,138.2 202,138.2 202,138.3 201.9,138.3 201.9,138.4 201.9,138.4 201.9,138.5 
	201.8,138.5 201.8,138.8 201.7,138.8 201.7,138.9 201.6,138.9 201.6,138.9 201.6,138.9 201.6,139.1 201.5,139.1 201.5,139.3 
	201.4,139.3 201.4,139.4 201.3,139.4 201.3,139.5 201.1,139.5 201.1,139.8 201,139.8 201,139.9 200.8,139.9 200.8,140.7 
	200.8,140.7 200.8,140.9 200.6,140.9 200.6,140.7 200.5,140.7 200.5,141 200.3,141 200.3,141.1 200.1,141.1 200.1,141.4 200,141.4 
	200,141.6 199.7,141.6 199.7,141.8 199.6,141.8 199.6,142 199.6,142 199.6,142.1 199.5,142.1 199.5,142.2 199.3,142.2 199.3,142.6 
	199,142.6 199,142.8 198.9,142.8 198.9,143 198.8,143 198.8,143.1 198.7,143.1 198.7,143.1 198.7,143.2 198.7,143.2 198.4,143.2 
	198.4,143.1 198.3,143.1 198.3,143.3 197.9,143.3 197.9,143.8 197.7,143.8 197.7,144.2 197.6,144.2 197.6,144.4 197.5,144.4 
	197.5,144.6 197.4,144.6 197.4,144.7 197.3,144.7 197.3,144.8 197.2,144.8 197.2,145 197,145 197,145.2 197.1,145.2 197.1,145.2 
	197.1,145.3 197.1,145.4 197,145.4 197,145.5 196.9,145.5 196.9,145.7 196.8,145.7 196.7,145.7 196.7,145.7 196.7,145.8 
	196.6,145.8 196.6,145.8 196.6,145.7 196.5,145.7 196.5,145.8 196.5,145.8 196.3,145.8 196.3,145.9 196.2,145.9 196.2,146 196,146 
	196,146.2 196,146.2 196,146.3 195.8,146.3 195.8,146.4 195.7,146.4 195.7,146.5 195.4,146.5 195.4,146.6 195.2,146.6 195.2,146.8 
	195,146.8 195,146.9 194.8,146.9 194.8,147 194.8,147 194.8,147.1 194.7,147.1 194.7,147.3 194.6,147.3 194.6,147.4 194.5,147.4 
	194.5,147.5 194.3,147.5 194.3,147.8 194.2,147.8 194.2,147.9 193.6,147.9 193.6,148 193.6,148 193.6,148.1 193,148.1 193,148.2 
	192.9,148.2 192.9,148.4 192.6,148.4 192.6,148.5 192.4,148.5 192.4,148.7 191.9,148.7 191.9,148.9 191.7,148.9 191.7,149 
	191.6,149 191.6,149.2 191.5,149.2 191.5,149.3 191.4,149.3 191.4,149.5 191.3,149.5 191.3,149.6 191.3,149.6 191.3,149.6 
	191.3,149.6 191.3,149.7 191.1,149.7 191.1,149.7 191.1,149.8 190.9,149.8 190.9,150 190.8,150 190.8,150.2 190.6,150.2 
	190.6,150.3 190.5,150.3 190.5,150.5 190.3,150.5 190.3,150.6 190.1,150.6 190.1,150.7 190.1,150.7 190.1,150.9 190,150.9 
	190,151.1 189.5,151.1 189.5,151.2 189.4,151.2 189.4,151.3 189.1,151.3 189.1,151.4 188.9,151.4 188.9,151.6 188.7,151.6 
	188.7,151.7 188.6,151.7 188.6,151.8 188,151.8 188,151.9 187.9,151.9 187.7,151.9 187.7,151.7 187.6,151.7 187.6,151.8 
	187.4,151.8 187.4,151.9 187.3,151.9 187.3,152.2 187.1,152.2 188,153.2 189.9,155.7 193.9,161.7 196.2,167.1 198.3,171 
	199.2,173.1 199.7,175.5 200,178 200.2,186.8 200.4,189.2 200.8,191.7 201.7,194 203.8,197 210.5,204.3 212.8,207.2 214.1,209.2 
	216.6,214.6 218.7,217.6 223.8,223.1 226.4,225.7 228.3,227.3 230.3,228.6 234.5,230.5 239.3,233.2 241.5,233.9 243.8,234.4 
	247.5,234.5 252.8,234.4 256.2,241.5 257.6,244.9 254.5,253.9 253.5,255.7 252.1,257.5 250.4,258.9 249.5,259.5 245.3,261.4 
	240.5,264.1 236.2,266 234.4,267 232.6,268.3 231,269.9 228.8,272.4 227.4,274.4 224.6,280 223,282.5 220.7,285.2 214.2,292.2 
	212.1,294.9 210.9,296.8 209,301.1 207.2,304 203.3,308.4 192.4,319.5 188.5,323.9 186.5,326.7 185.5,328.6 184,332 182.2,334.9 
	179.1,338.5 171.6,346.2 168.5,349.7 166.5,352.5 165.5,354.3 164,357.8 162.8,359.7 160.7,362.4 157.5,365.9 157.5,371.1 
	160.3,372.7 164.6,374.6 170.3,378 174.5,379.9 179.1,382.3 180.3,382.9 183,383.6 187.1,384 191.4,384.1 233.2,383.7 237.3,383.8 
	240,384.1 242.4,384.9 243.4,385.6 244.9,387.1 247.5,391.4 248.4,393.4 249,395.7 248.9,398.1 248.7,399.3 247.9,401.3 
	245.8,405.2 243.9,409.5 240.6,415.3 238.8,419.7 235.5,425.6 233.7,430 231.1,434.9 230.2,437.2 229.6,441.1 229.4,445.2 
	229.5,449.2 229.8,451.9 230.2,454.5 231,456.8 233.5,461.8 235.3,467.7 237.3,472.5 240.7,472.4 244.1,472.9 246.1,473.8 
	250,475.7 255.5,477.7 259.2,479.7 267,474.4 268.9,473.3 271.1,472.4 276.8,471.2 279,470.6 281,469.6 284.8,467.5 289.1,465.6 
	290.1,465 292.1,463.5 296.8,459.4 298.8,457.9 305,454.6 307,453.1 312.8,448.3 314.8,447 317.9,445.4 320,444.2 321.9,442.7 
	326.6,438.7 328.7,437.3 329.8,436.7 332.1,436 335.7,435.6 341.8,435.4 348,435.6 351.7,436 354,436.6 360.9,439.1 368.9,441.9 
	374.6,445.1 378.8,447.1 380.8,448.5 385.4,452.5 387.3,453.9 389.5,455 390.6,455.3 391.7,455.4 394,455.2 396,454.4 399.8,452.6 
	401.9,452 407.7,450.7 410.7,449.3 416.9,445.4 417.6,444.6 418.7,442.8 420.5,436.3 422.7,431.3 423.4,429 424,425 424.3,416.9 
	424.7,413 424.9,411.7 425.7,409.4 428,404.3 429.2,399.7 429.5,393.8 430.3,389.9 433,383.7 435,375.6 435.8,373.4 437.7,369.4 
	438.4,367.1 439,363.2 439.4,353.8 440,349.9 440.7,347.5 443.1,342.5 445.1,337 446.2,334.7 447.1,331.4 449.7,323.6 450.5,321.7 
	453.1,317 461.5,310.1 464.7,308.1 466.9,307.3 473.7,305.7 478.5,303.3 481.9,302.3 485.4,301.9 489.1,301.7 531.1,302 
	535.4,301.9 539.6,301.6 543.6,300.7 549.5,297.9 554.9,295.9 558.7,293.8 559.7,291.9 563,286 564.8,281.7 568.1,275.8 570,271.4 
	572,268.3 575.9,263.4 577.3,261.3 577.9,260.2 578.7,257.9 579.8,253.2 581.1,248.5 582.3,248.4 582.9,248.2 583.4,247.8 
	586.1,243.6 589.9,239.2 606.2,222.2 608.8,219.6 611.5,217.2 614.3,215.2 618.6,213.4 623.3,210.7 627.7,208.8 629.5,207.8 
	631.4,206.5 633.9,204.1 636.2,201.5 637.6,199.6 638.1,198.6 641.3,190.1 642.5,186.1 "/>
</svg>
