<?xml version="1.0" encoding="utf-8"?>
<!-- Generator: Adobe Illustrator 24.2.3, SVG Export Plug-In . SVG Version: 6.00 Build 0)  -->
<svg version="1.1" id="Layer_1" xmlns="http://www.w3.org/2000/svg" xmlns:xlink="http://www.w3.org/1999/xlink" x="0px" y="0px"
	 viewBox="0 0 800 533" style="enable-background:new 0 0 800 533;" xml:space="preserve">
<style type="text/css">
	.st0{fill:#F2933D;stroke:#000000;stroke-width:0.4;stroke-miterlimit:9;}
</style>
<g>
	<polygon class="st0" points="229.2,398 228.9,398 228.9,398.1 228.8,398.1 228.8,398.2 228.7,398.2 228.7,398.6 228.6,398.6 
		228.6,398.7 228.3,398.7 228.3,398.6 228.3,398.6 228.3,398.7 228.2,398.7 228.2,398.9 228.1,398.9 228.1,399.4 228,399.4 
		228,399.9 228.2,399.9 228.2,400 228.7,400 228.7,399.9 228.9,399.9 228.9,399.4 229,399.4 229,399.3 229.1,399.3 229.1,399.2 
		229.2,399.2 229.2,399 229.2,399 229.2,398.2 229.2,398.2 	"/>
	<polygon class="st0" points="203.8,433.8 203.4,433.8 203.4,433.7 203.3,433.7 203.3,433.5 202.7,433.5 202.7,433.4 201.7,433.4 
		201.7,433.7 201.8,433.7 201.8,434.4 201.8,434.4 201.8,434.6 201.8,434.6 201.8,435 201.7,435 201.7,435.3 201.6,435.3 
		201.6,435.5 201.5,435.5 201.5,435.7 201.3,435.7 201.3,435.9 201.4,435.9 201.4,436.1 201.6,436.1 201.6,436.3 201.8,436.3 
		201.8,436.5 202,436.5 202,436.7 202.1,436.7 202.1,436.8 202.2,436.8 202.2,436.9 202.3,436.9 202.3,437 202.4,437 202.4,437.1 
		202.6,437.1 202.6,437.3 202.9,437.3 202.9,437.4 203.1,437.4 203.1,437.5 203.3,437.5 203.3,437.4 203.5,437.4 203.5,437.1 
		203.6,437.1 203.6,437 203.7,437 203.7,436.9 203.9,436.9 203.9,436.3 204,436.3 204,435.7 203.9,435.7 203.9,435.3 203.8,435.3 
		203.8,435.1 203.7,435.1 203.7,434.7 203.8,434.7 203.8,434.3 203.9,434.3 203.9,434.1 204,434.1 204,433.9 203.8,433.9 	"/>
	<polygon class="st0" points="701.4,267.7 700.3,262.1 699.7,260.2 696.9,255.5 695.1,249.4 694.1,247.1 691.7,243.9 688.9,241.1 
		685.7,238.8 681.8,236.7 679.9,235.1 678.3,233.1 677.7,232 676.9,229.9 676.4,227.7 673.8,224.1 672.8,222.2 671.2,217 
		670.4,215.2 669.1,213.8 666.7,212.7 667,206.6 667.8,203.1 668.6,201 670.6,197.2 672.4,192.9 674.9,188.2 676,185.3 679.3,182.4 
		680.6,180.7 684.9,173.1 687.5,166.8 691.1,160.4 692.2,158.7 697.3,153.8 699,153 700.8,152.4 700.3,149.7 699.7,147.9 
		698.7,145.9 697.3,144 695,141.3 692.5,138.7 683.3,129.2 679.9,125.9 678.1,124.4 676.2,123.1 672.1,121.3 667.4,118.7 
		666.4,118.3 664.6,117.7 659.8,116.9 654.8,114.5 651.4,112.5 649.7,111.4 648.5,109.9 647.4,107.2 652.3,102.2 648.9,99.3 
		647,98.1 644.9,97.1 640.4,95.5 637.9,96 635.7,96 630.2,96.5 625.9,96.6 607,97.3 600.6,98.1 593.8,101.3 589.5,103.1 
		583.9,106.2 578.9,108.6 574.2,111.3 570.1,113.1 564.4,116.1 555.6,118.4 550.8,120.6 548.6,121.4 541.1,123 537.2,124.4 
		530.5,126.3 524,127.6 521.5,128.3 515.8,131 509.3,133.1 508.5,133.6 507.4,134.7 502.6,136.3 500,136.8 497.4,137 493.4,137 
		490.8,136.7 484.9,135.6 483.3,134.4 481.6,133.5 480.5,133 478.1,132.5 473,132.1 465.5,132.4 450.9,132 442.8,132.3 438.8,133 
		431.4,135.5 424.4,138.2 419.9,140.5 417.5,141.4 415,141.8 412.4,142.1 404.5,142.1 399.7,137.1 397.6,139.7 396.5,141.6 
		395.6,143.7 394.8,147.1 390.1,147.4 386.6,148 384.5,148.7 380.7,150.5 378.6,151.2 376.4,151.6 373.2,151.9 364.4,152.1 
		359.7,152.5 356.4,153.3 351.6,155.7 349.4,156.5 347,156.9 343.1,157.1 339.3,156.8 336.9,156.1 334.9,155.1 329,151.3 
		323.1,151.8 316.1,152.1 290.5,152 273.5,151.7 268.1,152 265.5,152.6 264.2,153.2 262.1,154.7 260.5,156.7 259.9,157.8 
		259.2,159.9 258.8,162.1 258.1,165.4 257.2,167.4 255.9,169.2 254.3,170.6 252.5,171.8 248.6,173.8 246.8,175.1 241.7,179.4 
		238.9,181.2 231.9,183.8 228.1,184.8 225.5,186.2 220.3,188.2 214.6,191 210.7,191.9 204,192.3 191.6,192.1 186.1,191.8 
		182.7,191.2 182.7,191.4 182.3,191.4 182.3,191.5 182.1,191.5 182.1,191.7 181.8,191.7 181.8,191.8 181.7,191.8 181.7,191.9 
		181.6,191.9 181.6,192 181.5,192 181.5,192.1 181.4,192.1 181.4,192.4 181.4,192.4 181.4,192.5 181.3,192.5 181.3,192.6 
		181.2,192.6 181.2,192.9 181.1,192.9 181.1,193.3 181.1,193.7 181.1,193.9 181.2,193.9 181.2,194.1 181.3,194.1 181.3,194.2 
		181.3,194.2 181.4,194.2 181.4,194.3 181.7,194.3 181.7,194.4 181.9,194.4 181.9,194.5 182,194.5 182,194.7 182.1,194.7 
		182.1,194.8 182,194.8 182,194.9 181.7,194.9 181.7,195 181.6,195 181.6,195.1 181.5,195.1 181.5,195.6 181.6,195.6 181.6,195.7 
		181.7,195.7 181.7,196.1 181.8,196.1 181.8,196.6 181.5,196.6 181.5,196.7 181.4,196.7 181.4,196.8 181.4,196.8 181.4,197.4 
		181.4,197.4 181.4,197.7 181.5,197.7 181.5,197.9 181.6,197.9 181.6,198.4 181.7,198.4 181.7,198.6 181.6,198.6 181.6,198.9 
		181.5,198.9 181.5,199 181.3,199 181.3,199.1 181,199.1 181,199.2 180.8,199.2 180.7,199.2 180.7,199.3 180.5,199.3 180.5,199.5 
		180.4,199.5 180.4,199.7 180.3,199.7 180.3,199.9 180.2,199.9 180.2,200.7 180.1,200.7 180.1,201.4 180.2,201.4 180.2,201.5 
		180.5,201.5 180.5,200.9 180.5,200.9 180.5,200.5 180.5,200.5 180.5,200.2 180.8,200.2 181.1,200.2 181.1,200.3 181,200.3 
		181,200.5 180.9,200.5 180.9,200.7 181,200.7 181,200.8 181.1,200.8 181.1,201 181.2,201 181.2,201.5 181,201.5 181,201.6 
		180.9,201.6 180.9,201.9 180.8,201.9 180.8,202 180.9,202 180.9,202.1 181,202.1 181,202.2 181.2,202.2 181.2,202.3 181.3,202.3 
		181.3,202.6 181.2,202.6 181.2,202.8 180.9,202.8 180.9,202.8 180.9,202.7 180.8,202.7 180.8,202.6 180.7,202.6 180.7,202.4 
		180.5,202.4 180.5,202.3 180.4,202.3 180.4,202.2 180.3,202.2 180.3,202.1 180.2,202.1 180.2,201.9 180.1,201.9 180.1,201.7 
		180,201.7 180,201.6 179.8,201.6 179.8,202 179.9,202 179.9,202.3 180.1,202.3 180.1,202.4 180.3,202.4 180.3,202.6 180.5,202.6 
		180.5,202.7 180.6,202.7 180.6,202.8 180.7,202.8 180.7,202.9 180.8,202.9 180.8,203.2 180.7,203.2 180.7,203.4 180.6,203.4 
		180.6,203.6 180.5,203.6 180.5,203.8 180.5,203.8 180.5,204 180.4,204 180.4,204.1 180.3,204.1 180.3,204.2 179.9,204.2 
		179.9,204.4 179.4,204.4 179.4,204.6 179.1,204.6 179.1,204.4 179,204.4 179,204.1 178.9,204.1 178.9,203.8 178.8,203.8 
		178.8,203.4 178.7,203.4 178.7,203.3 178.6,203.3 178.6,203.2 178.3,203.2 178.3,203 178,203 178,203.3 178.1,203.3 178.1,203.5 
		178.2,203.5 178.2,203.6 178.3,203.6 178.3,203.9 178.4,203.9 178.4,204.4 178.3,204.4 178.3,204.5 178.2,204.5 178.2,205 
		177.6,205 177.6,204.8 177.4,204.8 177.4,204.7 177,204.7 177,204.6 176.9,204.6 176.9,204.5 176.8,204.5 176.8,204.2 176.7,204.2 
		176.7,204.1 176.8,204.1 176.8,203.8 176.7,203.8 176.7,203.6 176.5,203.6 176.5,203.5 176.4,203.5 176.3,203.5 176.3,203.4 
		175.8,203.4 175.8,203.5 175.7,203.5 175.7,204 175.8,204 175.8,204.1 175.9,204.1 175.9,204.2 176.1,204.2 176.1,204.4 
		176.3,204.4 176.3,204.5 176.5,204.5 176.5,204.8 176.4,204.8 176.4,205 176.3,205 176.3,205.1 176.2,205.1 176.2,205.2 
		176.1,205.2 176.1,205.3 176.1,205.3 176.1,205.4 176,205.4 176,205.6 175.9,205.6 175.9,205.7 175.8,205.7 175.8,205.8 
		175.7,205.8 175.7,205.9 175.4,205.9 175.4,206 175,206 175,205.9 174.8,205.9 174.8,205.7 174.6,205.7 174.6,205.6 174.4,205.6 
		174.4,205.4 174.3,205.4 174.3,205.3 174.3,205.3 174.1,205.3 174.1,205.4 174,205.4 174,205.9 174.1,205.9 174.1,206 174.3,206 
		174.3,206.2 174.5,206.2 174.5,207.2 174.6,207.2 174.6,207.4 174.7,207.4 174.7,207.7 174.8,207.7 174.8,208.3 174.7,208.3 
		174.7,208.4 174.6,208.4 174.6,208.7 174.5,208.7 174.5,208.8 174.4,208.8 174.4,209 174.3,209 174.3,209.3 174.4,209.3 
		174.4,209.8 174.5,209.8 174.5,210.5 174.5,210.7 174.6,210.7 174.6,211.3 174.5,211.3 174.5,211.7 174.4,211.7 174.4,211.8 
		174.5,211.8 174.5,212 174.4,212 174.4,212.3 174.3,212.3 174.3,212.4 174.3,212.4 174.3,212.6 174.2,212.6 174.2,212.8 
		173.5,212.8 173.5,212.9 173.4,212.9 173.4,213.4 173.2,213.4 172.6,213.4 172.6,213.7 172.4,213.7 172.4,213.8 172.2,213.8 
		172.2,214.4 172.3,214.4 172.3,214.6 172.6,214.6 172.6,214.7 172.6,214.7 172.6,214.8 172.7,214.8 172.7,214.9 172.8,214.9 
		172.8,215.6 172.9,215.6 172.9,215.9 173,215.9 173,216.2 173.1,216.2 173.1,216.3 173.2,216.3 173.2,216.5 173.3,216.5 
		173.3,216.6 173.4,216.6 173.4,217.2 173.3,217.2 173.3,217.3 173.2,217.3 173.2,217.4 173,217.4 173,217.8 173.2,217.8 
		173.2,217.7 173.5,217.7 173.5,217.8 173.7,217.8 173.7,217.9 173.9,217.9 173.9,218 174,218 174,218.1 174.3,218.1 174.3,218.3 
		174.5,218.3 174.5,218.9 174.4,218.9 174.4,220.2 174.5,220.2 174.5,220.3 174.6,220.3 174.6,220.4 174.7,220.4 174.7,220.5 
		174.9,220.5 174.9,220.7 175.1,220.7 175.1,220.5 175.2,220.5 175.2,220.4 175.2,220.4 175.2,220.3 175.5,220.3 175.5,220.2 
		176,220.2 176,220.3 176.1,220.3 176.1,220.4 176.3,220.4 176.3,220.5 176.5,220.5 176.5,220.7 176.7,220.7 176.7,220.8 177,220.8 
		177,220.9 177.3,220.9 177.3,220.8 177.5,220.8 177.5,220.7 177.7,220.7 177.7,220.5 178.2,220.5 178.2,220.4 178.6,220.4 
		178.6,220.5 179,220.5 179,220.4 179.1,220.4 179.1,220.5 179.1,220.5 179.2,220.5 179.2,220.7 179.3,220.7 179.3,220.8 
		179.7,220.8 179.7,220.9 179.9,220.9 179.9,221 180,221 180,221.3 180.1,221.3 180.1,221.4 180.3,221.4 180.3,221.5 180.5,221.5 
		180.5,221.6 180.5,221.6 180.5,221.7 180.6,221.7 180.6,221.9 180.7,221.9 180.7,222 180.9,222 180.9,222.1 181,222.1 181,222.2 
		181.1,222.2 181.1,222.6 181.2,222.6 181.2,222.7 181.4,222.7 181.4,222.8 181.4,222.8 181.4,223.1 181.5,223.1 181.5,223.4 
		181.6,223.4 181.6,223.8 181.9,223.8 181.9,223.9 182,223.9 182,224 182.1,224 182.1,224.1 182.2,224.1 182.2,224.3 182.4,224.3 
		182.4,224.4 182.5,224.4 182.5,224.5 182.6,224.5 182.6,224.7 182.7,224.7 182.7,225.3 182.8,225.3 182.8,225.5 182.9,225.5 
		182.9,225.6 183,225.6 183,226.3 183.1,226.3 183.1,226.5 183.2,226.5 183.2,227.5 183.2,227.5 183.2,228 183.2,228 183.2,228.1 
		183.1,228.1 183.1,228.3 183.2,228.3 183.2,228.7 183.2,228.7 183.2,229.2 183.2,229.2 183.2,230 183.2,230.2 183.1,230.2 
		183.1,230.6 183.1,231.2 183,231.2 183,231.3 183,232 182.9,232 182.9,232.8 182.8,232.8 182.8,233.4 182.7,233.4 182.7,234.1 
		182.6,234.1 182.6,234.8 182.5,234.8 182.5,235.4 182.4,235.4 182.4,236.1 182.3,236.1 182.3,236.7 182.3,236.7 182.3,237.4 
		182.2,237.4 182.2,237.9 182.1,237.9 182.1,238.3 182,238.3 182,238.6 181.9,238.6 181.9,238.7 181.9,239 181.9,239 181.8,239 
		181.8,239.3 181.7,239.3 181.7,239.7 181.6,239.7 181.6,240.1 181.5,240.1 181.5,240.4 181.4,240.4 181.4,240.9 181.4,240.9 
		181.4,241.2 181.4,241.4 181.3,241.4 181.3,241.5 181.3,241.7 181.2,241.7 181.2,242.2 181.1,242.2 181.1,242.8 181.2,242.8 
		181.2,243.3 181.1,243.3 181.1,243.5 181,243.5 181,243.8 180.9,243.8 180.9,244 180.8,244 180.8,244.3 180.7,244.3 180.7,245 
		180.6,245 180.6,245.3 180.5,245.3 180.5,245.7 180.5,245.7 180.5,245.9 180.4,245.9 180.4,246.3 180.3,246.3 180.3,246.5 
		180.2,246.5 180.2,246.9 180.1,246.9 180.1,247.3 180,247.3 180,247.6 179.9,247.6 179.9,247.9 179.8,247.9 179.8,248.1 
		179.7,248.1 179.7,248.3 179.6,248.3 179.6,248.6 179.6,248.6 179.6,248.9 179.5,248.9 179.5,249.2 179.4,249.2 179.4,249.4 
		179.3,249.4 179.3,249.6 179.2,249.6 179.2,249.9 179.1,249.9 179.1,250.1 179,250.1 179,250.5 178.9,250.5 178.9,250.8 
		178.8,250.8 178.8,251.1 178.8,251.1 178.8,251.4 178.7,251.4 178.7,251.8 178.6,251.8 178.6,252 178.5,252 178.5,252.4 
		178.4,252.4 178.4,252.8 178.3,252.8 178.3,253 178.2,253 178.2,253.4 178.1,253.4 178.1,253.6 178,253.6 178,253.8 177.9,253.8 
		177.9,254.1 177.9,254.1 177.9,254.3 177.8,254.3 177.8,254.4 177.7,254.4 177.7,254.7 177.6,254.7 177.6,254.9 177.5,254.9 
		177.5,255.2 177.4,255.2 177.4,255.3 177.3,255.3 177.3,255.5 177.2,255.5 177.2,255.8 177.1,255.8 177.1,256 177,256 177,256.1 
		177,256.1 177,256.4 176.9,256.4 176.9,256.5 176.8,256.5 176.8,256.6 176.7,256.6 176.7,256.8 176.6,256.8 176.6,257 176.5,257 
		176.5,257.1 176.4,257.1 176.4,257.3 176.3,257.3 176.3,257.4 176.2,257.4 176.2,257.6 176.1,257.6 176.1,257.8 176.1,257.8 
		176.1,257.9 176,257.9 176,258 175.9,258 175.9,258.3 175.8,258.3 175.8,258.4 175.7,258.4 175.7,258.5 175.6,258.5 175.6,258.6 
		175.5,258.6 175.5,258.9 175.4,258.9 175.4,259 175.3,259 175.3,259.1 175.2,259.1 175.2,259.2 175.2,259.2 175.2,259.4 
		175.1,259.4 175.1,259.6 175,259.6 175,259.7 174.9,259.7 174.9,259.8 174.8,259.8 174.8,260.1 174.7,260.1 174.7,260.3 
		174.6,260.3 174.6,260.6 174.5,260.6 174.5,260.7 174.4,260.7 174.4,260.8 174.3,260.8 174.3,261 174.3,261 174.3,261.2 
		174.2,261.2 174.2,261.3 174.1,261.3 174.1,261.4 174,261.4 174,261.5 173.9,261.5 173.9,261.7 173.8,261.7 173.8,261.9 
		173.7,261.9 173.7,262 173.6,262 173.6,262.1 173.5,262.1 173.5,262.2 173.4,262.2 173.4,262.3 173.4,262.3 173.4,262.5 
		173.2,262.5 173.2,262.6 173.1,262.6 173.1,262.7 173,262.7 173,262.8 172.9,262.8 172.9,262.9 172.8,262.9 172.8,263.1 
		172.6,263.1 172.6,263.2 172.6,263.2 172.6,263.3 172.4,263.3 172.4,263.4 172.3,263.4 172.3,263.5 172.1,263.5 172.1,263.7 
		172,263.7 172,263.8 171.8,263.8 171.8,264 171.7,264 171.7,264.1 171.4,264.1 171.4,264.3 171.2,264.3 171.2,264.4 171.1,264.4 
		171.1,264.5 171,264.5 171,264.6 170.9,264.6 170.9,264.7 170.7,264.7 170.7,264.9 170.4,264.9 170.4,265 170,265 170,265.1 
		169.9,265.1 169.9,265.2 169.8,265.2 169.8,265.3 170.2,265.3 170.2,265.5 169.8,265.5 169.8,265.6 169.4,265.6 169.4,265.7 
		168.7,265.7 168.5,265.7 168.5,265.8 168.3,265.8 168.3,265.9 168.2,265.9 168.2,266.1 168.1,266.1 168.1,266.3 168,266.3 
		168,266.4 167.8,266.4 167.8,266.5 167.6,266.5 167.6,266.7 167.4,266.7 167.4,266.8 167.3,266.8 167.3,266.9 167.1,266.9 
		167.1,267 166.9,267 166.9,267.1 166.6,267.1 166.6,267.3 166.4,267.3 166.4,267.4 166.3,267.4 166.3,267.5 166.1,267.5 
		166.1,267.7 166,267.7 166,268 165.9,268 165.9,268.2 165.8,268.2 165.8,268.5 165.6,268.5 165.6,268.6 165.5,268.6 165.5,268.7 
		165.4,268.7 165.4,268.8 165.3,268.8 165.3,268.9 165.1,268.9 165.1,269.1 164.9,269.1 164.9,269.2 164.8,269.2 164.8,269.3 
		164.6,269.3 164.6,269.4 164.5,269.4 164.5,269.5 164.4,269.5 164.4,269.7 164.2,269.7 164.2,269.8 164.1,269.8 164.1,269.9 
		163.9,269.9 163.9,270 163.7,270 163.7,270.1 163.7,270.1 163.7,270.3 163.5,270.3 163.5,270.4 163.3,270.4 163.3,270.5 
		163.2,270.5 163.2,270.6 163,270.6 163,270.7 162.9,270.7 162.9,270.9 162.7,270.9 162.7,270.7 162.4,270.7 162.4,270.9 
		161.9,270.9 161.9,271 161.7,271 161.7,270.9 161.6,270.9 161.6,270.7 161.4,270.7 161.4,270.6 161.3,270.6 161.3,270.5 
		161.2,270.5 161.2,270.4 160.2,270.4 160.2,270.5 160.1,270.5 160.1,270.6 159.9,270.6 159.9,270.7 159.4,270.7 159.4,271 
		159.5,271 159.5,271.2 159.3,271.2 159.3,271.1 158.4,271.1 158.4,271.2 158.3,271.2 158.3,271.5 158.2,271.5 158.2,271.9 
		158.1,271.9 158.1,272.1 158,272.1 158,272.2 157.6,272.2 157.6,272.3 157.5,272.3 157.5,272.4 157.4,272.4 157.4,272.5 
		156.3,272.5 156.3,272.7 155.9,272.7 155.9,272.5 155.6,272.5 155.6,272.7 155.4,272.7 155.4,272.8 155.3,272.8 155.3,272.9 
		155.2,272.9 155.2,273 155.1,273 155.1,273.1 154.9,273.1 154.9,273.2 154.8,273.2 154.8,273.4 154.6,273.4 154.6,273.5 
		154.5,273.5 154.5,273.6 154.1,273.6 154.1,273.7 153.7,273.7 153.7,273.9 153.5,273.9 153.5,274 153.3,274 153.3,274.1 
		152.8,274.1 152.8,274.2 152.5,274.2 152.5,274.3 152.2,274.3 152.2,274.4 151.6,274.4 151.6,274.6 151.3,274.6 151.3,274.7 
		150.3,274.7 150.3,274.8 149.9,274.8 149.9,274.7 149,274.7 149,274.6 148.6,274.6 148.6,274.7 148,274.7 148,274.8 147.9,274.8 
		147.9,274.9 147.8,274.9 147.8,275 147.6,275 147.6,275.2 147.2,275.2 147.2,275 146.7,275 146.7,275.2 146.5,275.2 146.5,275.3 
		146.3,275.3 146.3,275.4 146.1,275.4 146.1,275.5 146,275.5 146,275.9 145.9,275.9 145.9,276 145.8,276 145.8,276.2 145.7,276.2 
		145.7,276.5 145.6,276.5 145.6,276.6 145.5,276.6 145.5,276.7 145.4,276.7 145.4,276.8 145.3,276.8 145.3,277 145.1,277 
		145.1,277.1 144.9,277.1 144.9,277.2 144.8,277.2 144.8,277.3 144.6,277.3 144.6,277.4 144.4,277.4 144.4,277.6 143.7,277.6 
		143.7,277.7 142.9,277.7 142.9,277.8 142.3,277.8 142.3,277.9 141.9,277.9 141.9,278 141,278 141,278.2 140.8,278.2 140.8,278.3 
		140.2,278.3 140.2,278.4 140,278.4 140,278.5 139,278.5 139,278.6 138.8,278.6 138.8,278.8 138.6,278.8 138.6,278.6 136.7,278.6 
		136.7,278.8 136.4,278.8 136.4,278.9 136.3,278.9 136.3,279 135.9,279 135.9,279.1 135.8,279.1 135.8,279.2 135.7,279.2 
		135.7,279.5 135.5,279.5 135.5,279.6 135.4,279.6 135.4,279.7 135.3,279.7 135.3,279.8 135.2,279.8 135.2,280.1 135.1,280.1 
		135.1,280.2 134.7,280.2 134.7,280.1 134.6,280.1 134.6,280.2 134.4,280.2 134.4,280.3 134.2,280.3 134.2,280.4 134.1,280.4 
		134.1,280.6 134,280.6 134,280.7 133.7,280.7 133.7,280.8 133.6,280.8 133.6,280.9 133.5,280.9 133.5,281 133.3,281 133.3,281.2 
		132.8,281.2 132.8,281.3 132.7,281.3 132.7,281.2 132.5,281.2 132.5,281 132.3,281 132.3,280.9 132.1,280.9 132.1,281 132,281 
		132,281.2 131.9,281.2 131.9,281.3 131.9,281.3 131.9,281.4 131.7,281.4 131.7,281.5 131.1,281.5 131.1,281.4 130.7,281.4 
		130.7,281.5 130.4,281.5 130.4,281.6 130.3,281.6 130.3,281.8 130.2,281.8 130.2,281.9 130.1,281.9 130.1,282 130,282 130,282.1 
		129.8,282.1 129.8,282.2 129.5,282.2 129.5,282.1 129.1,282.1 129.1,282.2 128.8,282.2 128.8,282.4 128.7,282.4 128.7,282.5 
		128.6,282.5 128.6,282.6 128.4,282.6 128.4,282.7 128.2,282.7 128.2,282.8 128,282.8 128,282.7 127.7,282.7 127.7,282.6 
		127.4,282.6 127.4,282.5 126.5,282.5 126.5,282.4 126.2,282.4 126.2,282.5 125.9,282.5 125.9,282.4 125.8,282.4 125.8,282.2 
		125.7,282.2 125.7,282.1 125.3,282.1 125.3,282 125.1,282 125.1,282.1 124.8,282.1 124.8,282 124.2,282 124.2,281.9 123.9,281.9 
		123.9,281.8 123.7,281.8 123.7,281.9 123.5,281.9 123.5,281.8 123.4,281.8 123.4,281.6 123.2,281.6 123.2,281.5 123.1,281.5 
		123.1,281.4 123,281.4 123,281.3 122.4,281.3 122.4,281.4 121.9,281.4 121.9,281.3 121,281.3 121,281.4 120.6,281.4 120.6,281.3 
		120.2,281.3 120.2,281.4 119.6,281.4 119.6,281.5 119.5,281.5 119.5,281.4 119.5,281.4 119.5,281.3 119.4,281.3 119.4,281.2 
		119.2,281.2 119.2,281 119,281 119,280.9 118.7,280.9 118.7,280.8 118.5,280.8 118.5,280.7 118.3,280.7 118.3,280.6 117.7,280.6 
		117.7,280.4 117.6,280.4 117.6,280.3 117.5,280.3 117.5,280.2 117.2,280.2 117.2,280.3 117,280.3 117,280.4 116.9,280.4 
		116.9,280.7 116.8,280.7 116.8,280.8 116.8,280.8 116.8,280.9 116.7,280.9 116.7,281 116.5,281 116.5,281.2 116.3,281.2 
		116.3,281.3 116.1,281.3 116.1,281.4 116,281.4 116,281.5 115.5,281.5 115.5,281.6 115.3,281.6 115.3,281.8 114.9,281.8 
		114.9,281.6 114.6,281.6 114.6,281.8 114.5,281.8 114.5,281.9 114.4,281.9 114.4,282 114.1,282 114.1,281.9 113.9,281.9 113.9,282 
		113.7,282 113.7,282.1 113.6,282.1 113.6,282.2 113.1,282.2 113.1,282.4 111.8,282.4 111.8,282.5 111.6,282.5 111.6,282.6 
		111.5,282.6 111.5,282.5 111.4,282.5 111.4,282.1 111.3,282.1 111.3,282 111.1,282 111.1,281.9 110.9,281.9 110.9,281.2 
		110.8,281.2 110.8,280.8 110.7,280.8 110.7,280.7 110.4,280.7 110.4,280.6 110.1,280.6 110.1,280.4 109.3,280.4 109.3,280.6 
		109.1,280.6 109.1,280.7 108.9,280.7 108.9,280.8 108.8,280.8 108.8,280.9 108.8,280.9 108.8,281 108.4,281 108.4,280.9 
		108.3,280.9 108.3,280.8 108,280.8 108,280.7 108,280.7 108,280.6 107.9,280.6 107.9,280.1 108,280.1 108,279.5 107.9,279.5 
		107.9,279.4 107.7,279.4 107.7,279.2 107.4,279.2 107.4,279.1 107.1,279.1 107.1,279 106.9,279 106.9,278.9 106.8,278.9 
		106.8,278.8 106.6,278.8 106.6,278.6 106.2,278.6 106.2,278.8 106,278.8 106,278.9 105.7,278.9 105.7,279 105.2,279 105.2,279.1 
		105.1,279.1 105.1,279.2 104.9,279.2 104.9,279.4 104.6,279.4 104.6,279.5 104.4,279.5 104.4,279.6 104.3,279.6 104.3,279.7 
		104.2,279.7 104.2,280 104.3,280 104.3,280.2 104.4,280.2 104.4,280.6 104,280.6 104,280.4 103.8,280.4 103.8,280.3 103.5,280.3 
		103.5,280.4 103.2,280.4 103.2,280.3 102.8,280.3 102.8,280.4 102.2,280.4 102.2,280.6 102.1,280.6 102.1,280.7 102,280.7 
		102,280.8 101.9,280.8 101.9,280.9 101.8,280.9 101.8,281 101.6,281 101.6,280.9 101.4,280.9 101.4,280.8 101.2,280.8 101.2,280.8 
		101.2,280.7 101,280.7 101,280.8 100.9,280.8 100.9,280.9 100.9,280.9 100.9,281.2 100.8,281.2 100.8,281.2 100.8,281.2 100.8,282 
		100.7,282 100.7,282.2 100.8,282.2 100.8,282.6 100.9,282.6 100.9,282.7 100.8,282.7 100.8,283 100.7,283 100.7,283.1 100.5,283.1 
		100.5,283.3 100.1,283.3 100.1,283.4 99.9,283.4 99.9,283.7 99.8,283.7 99.8,284.4 99.7,284.4 99.7,285.2 99.6,285.2 99.6,286.1 
		99.5,286.1 99.5,286.2 99.4,286.2 99.4,286.5 99.4,286.6 99.4,286.7 99.4,286.7 99.3,286.7 99.3,286.8 99.3,287.4 99.2,287.4 
		99.2,287.5 99.1,287.5 99.1,287.6 98.9,287.6 98.2,287.6 98.2,287.7 98.1,287.7 98.1,287.9 97.9,287.9 97.9,288 97.8,288 
		97.8,288.1 97.7,288.1 97.7,288.2 97.8,288.2 97.8,288.7 97.7,288.7 97.7,288.9 97.6,288.9 97.6,289.2 97.7,289.2 97.7,289.3 
		97.9,289.3 97.9,289.2 98,289.2 98,289.1 98.1,289.1 98.1,288.8 98.2,288.8 98.2,288.7 98.4,288.7 98.4,288.8 98.6,288.8 
		98.6,289.2 98.3,289.2 98.3,289.3 98.2,289.3 98.2,289.7 98.3,289.7 98.3,289.8 98.6,289.8 98.6,289.7 98.8,289.7 98.8,289.8 
		98.9,289.8 98.9,290.1 98.9,290.6 98.8,290.6 98.8,290.7 98.7,290.7 98.7,290.9 98.6,290.9 98.6,291 98.4,291 98.4,291.1 98,291.1 
		98,291 97.8,291 97.8,290.9 97.2,290.9 97.2,291 97,291 97,292.1 97.1,292.1 97.1,292.2 97.2,292.2 97.2,292.4 97.3,292.4 
		97.3,292.7 97.3,292.7 97.3,292.9 97.4,292.9 97.4,293 97.5,293 97.5,293.1 97.6,293.1 97.6,293.3 97.7,293.3 97.7,293.4 
		97.9,293.4 97.9,293.6 98,293.6 98,293.7 98.1,293.7 98.1,294 98.5,294 98.5,293.9 98.9,293.9 98.9,293.7 99.1,293.7 99.1,293.6 
		99.3,293.6 99.3,293.5 99.6,293.5 99.6,293.4 100.3,293.4 100.3,293.3 100.6,293.3 100.6,293.1 100.8,293.1 100.8,293.3 101,293.3 
		101,293.4 101.1,293.4 101.1,293.5 101.7,293.5 101.7,293.6 101.9,293.6 101.9,293.7 102.2,293.7 102.2,294 102.1,294 102.1,294.1 
		102,294.1 102,294.2 101.8,294.2 101.8,294.3 101.5,294.3 101.5,294.5 101.4,294.5 101.4,294.6 101.3,294.6 101.3,294.7 
		101.2,294.7 101.2,294.8 101,294.8 101,294.9 100.9,294.9 100.9,295.1 100.8,295.1 100.8,295.3 100.7,295.3 100.7,295.5 
		100.6,295.5 100.6,295.8 100.5,295.8 100.5,295.9 100.4,295.9 100.4,296 100.3,296 100.3,296.3 100.4,296.3 100.4,296.4 
		100.5,296.4 100.5,296.5 100.6,296.5 100.6,297.1 100.7,297.1 100.7,297.2 100.9,297.2 100.9,297.1 101.1,297.1 101.1,297 
		101.5,297 101.5,297.1 101.7,297.1 101.7,297.2 102.6,297.2 102.6,297.1 103.1,297.1 103.1,297 103.3,297 103.3,296.9 103.5,296.9 
		103.5,296.7 103.9,296.7 103.9,296.6 104.2,296.6 104.2,296.5 104.4,296.5 104.4,296.4 104.5,296.4 104.5,296.3 104.7,296.3 
		104.7,296.1 104.9,296.1 104.9,296 105.1,296 105.1,296.1 105.2,296.1 105.2,296.3 105.3,296.3 105.3,296.4 106.7,296.4 
		106.7,296.6 106.8,296.6 106.8,296.7 106.9,296.7 106.9,296.9 108,296.9 108,297 108.2,297 108.2,297.1 108.4,297.1 108.4,297.2 
		108.5,297.2 108.5,297.3 108.6,297.3 108.6,297.5 108.7,297.5 108.7,297.6 108.8,297.6 108.8,297.7 108.9,297.7 108.9,297.8 
		109.4,297.8 109.4,297.9 109.7,297.9 109.7,298 110.1,298 110.1,298.2 110.4,298.2 110.4,298.3 110.6,298.3 110.6,298.4 
		110.7,298.4 110.7,298.5 111,298.5 111,298.6 111.3,298.6 111.3,298.8 111.5,298.8 111.5,298.9 111.8,298.9 111.8,299 112.1,299 
		112.1,299.1 112.6,299.1 112.6,299 112.8,299 112.8,299.1 112.9,299.1 112.9,299.2 113,299.2 113,299.4 113.1,299.4 113.1,299.5 
		113.3,299.5 113.3,299.4 113.4,299.4 113.4,299.5 114,299.5 114,299.4 114.2,299.4 114.2,299.6 114.3,299.6 114.3,300 114.6,300 
		114.6,300.1 114.7,300.1 114.7,300 114.8,300 114.8,300.1 114.9,300.1 114.9,300 115.4,300 115.4,300.1 115.5,300.1 115.5,300 
		115.7,300 115.7,300.1 115.9,300.1 115.9,300 116.3,300 116.3,300.1 117.2,300.1 117.2,300 117.4,300 117.4,299.8 117.8,299.8 
		117.8,300 118.1,300 118.1,299.8 118.4,299.8 118.4,299.7 119.1,299.7 119.1,299.6 119.2,299.6 119.2,299.7 119.9,299.7 
		119.9,299.8 121.1,299.8 121.1,300 121.2,300 121.2,300.4 121.2,300.4 121.2,300.7 121.3,300.7 121.3,300.8 121.7,300.8 
		121.7,300.9 121.8,300.9 121.8,300.8 122.1,300.8 122.1,300.7 122.3,300.7 122.3,300.6 122.4,300.6 122.4,300.7 122.5,300.7 
		122.5,300.8 122.8,300.8 122.8,300.6 122.9,300.6 122.9,300.4 123,300.4 123,300.3 123.1,300.3 123.1,300.2 123.4,300.2 
		123.4,300.3 123.5,300.3 123.5,300.4 124,300.4 124,300.6 124.2,300.6 124.2,300.7 124.7,300.7 124.7,300.6 124.8,300.6 
		124.8,300.4 125.2,300.4 125.2,300.3 125.5,300.3 125.5,300.4 125.7,300.4 125.7,300.6 126.1,300.6 126.1,300.7 126.8,300.7 
		126.8,300.9 127,300.9 127,301 127.4,301 127.4,301.2 127.8,301.2 127.8,301.3 127.9,301.3 127.9,301.4 128,301.4 128,301.5 
		128.1,301.5 128.1,301.6 128.2,301.6 128.2,301.8 128.3,301.8 128.3,301.9 128.3,301.9 128.3,302 128.4,302 128.4,302.1 
		128.7,302.1 128.7,302.2 129,302.2 129,302.4 129.2,302.4 129.2,302.5 129.2,302.5 129.2,302.6 129.4,302.6 129.4,302.7 
		129.5,302.7 129.5,302.8 129.6,302.8 129.6,303.1 129.5,303.1 129.5,303.3 129.6,303.3 129.6,303.6 129.7,303.6 129.7,303.7 
		129.9,303.7 129.9,303.8 130.1,303.8 130.1,303.9 130.4,303.9 130.4,303.8 131.6,303.8 131.6,303.9 132.1,303.9 132.1,303.8 
		132.4,303.8 132.4,303.9 132.8,303.9 132.8,304 133,304 133,304.2 133.5,304.2 133.5,304 133.6,304 133.6,304.2 134,304.2 134,304 
		134.1,304 134.1,304.2 134.4,304.2 134.4,304.3 134.8,304.3 134.8,304.2 135.7,304.2 135.7,304.3 135.9,304.3 135.9,304.2 
		136.3,304.2 136.3,304.3 136.4,304.3 136.4,304.4 136.6,304.4 136.6,304.5 136.7,304.5 136.7,304.6 136.8,304.6 136.8,305 
		137.1,305 137.1,305.1 137.2,305.1 137.2,305.2 137.2,305.2 137.2,305.4 137.3,305.4 137.3,305.5 137.4,305.5 137.4,305.6 
		137.5,305.6 137.5,305.7 137.6,305.7 137.6,305.8 137.7,305.8 137.7,306 137.8,306 137.8,306.1 137.9,306.1 137.9,306.2 138,306.2 
		138,306.3 138.1,306.3 138.1,306.4 138.1,306.4 138.1,306.6 138.2,306.6 138.2,306.7 138.3,306.7 138.3,306.8 138.4,306.8 
		138.4,306.9 138.5,306.9 138.5,307 138.6,307 138.6,307.3 138.7,307.3 138.7,307.4 138.9,307.4 138.9,307.5 139,307.5 139,307.6 
		139.1,307.6 139.1,307.8 139.2,307.8 139.2,307.9 139.3,307.9 139.3,308 139.4,308 139.4,308.1 139.5,308.1 139.5,308.2 
		139.7,308.2 139.7,308.4 139.8,308.4 139.8,308.5 139.9,308.5 139.9,308.6 140.1,308.6 140.1,308.7 140.3,308.7 140.3,308.8 
		140.6,308.8 140.6,308.9 140.8,308.9 140.8,309.2 141,309.2 141,309.1 141.1,309.1 141.1,308.7 141,308.7 141,308.6 140.9,308.6 
		140.9,308.5 140.8,308.5 140.8,308.4 140.2,308.4 140.2,308.2 140.1,308.2 140.1,308.1 140,308.1 140,307.8 139.8,307.8 
		139.8,307.6 139.7,307.6 139.7,307.5 139.5,307.5 139.5,307.6 139.4,307.6 139.4,307.5 139.2,307.5 139.2,307.4 139.1,307.4 
		139.1,307.2 139,307.2 139,306.3 139.1,306.3 139.1,306.2 139.2,306.2 139.2,306.1 139.8,306.1 139.8,306 139.9,306 139.9,306.1 
		140,306.1 140,306.3 140.1,306.3 140.1,306.7 140.5,306.7 140.5,306.4 141,306.4 141,306.6 141.1,306.6 141.1,306.7 141.2,306.7 
		141.2,306.8 141.3,306.8 141.3,307.3 141.2,307.3 141.2,307.5 141.6,307.5 141.6,307.6 141.9,307.6 141.9,307.8 142.1,307.8 
		142.1,307.9 142.3,307.9 142.3,308.5 142.2,308.5 142.2,308.8 142.5,308.8 142.5,308.6 142.4,308.6 142.4,308.2 142.5,308.2 
		142.5,308.1 142.6,308.1 142.6,308 142.7,308 142.7,307.9 143.1,307.9 143.1,308 143.3,308 143.3,308.1 143.6,308.1 143.6,308.2 
		143.7,308.2 143.7,308.4 143.8,308.4 143.8,308.5 144.1,308.5 144.1,308.6 144.2,308.6 144.2,308.7 144.3,308.7 144.3,308.9 
		144.7,308.9 144.7,309.1 144.9,309.1 144.9,309.2 145,309.2 145,309.3 145.1,309.3 145.1,309.4 145.9,309.4 145.9,309.5 146,309.5 
		146,309.7 146.3,309.7 146.3,309.5 146.6,309.5 146.6,309.4 146.9,309.4 146.9,309.5 146.9,309.5 146.9,309.7 147,309.7 147,309.8 
		147.1,309.8 147.1,309.9 148.9,309.9 148.9,310 149.2,310 149.2,310.1 149.5,310.1 149.5,310.3 149.6,310.3 149.6,310.4 
		149.9,310.4 149.9,310.6 150.2,310.6 150.2,310.7 150.3,310.7 150.3,310.9 150.4,310.9 150.4,311 150.5,311 150.5,311.2 
		150.8,311.2 150.8,311.3 151.3,311.3 151.3,311.5 151.4,311.5 151.6,311.5 151.6,311.6 151.7,311.6 151.7,311.7 151.9,311.7 
		151.9,311.8 152,311.8 152,312.3 152.1,312.3 152.1,312.5 152.3,312.5 152.3,312.7 152.5,312.7 152.5,312.8 153.1,312.8 
		153.1,312.9 153.2,312.9 153.2,313 153.8,313 153.8,313.1 153.9,313.1 153.9,313.5 154,313.5 154,313.6 153.9,313.6 153.9,314.1 
		153.8,314.1 153.8,314.3 153.9,314.3 153.9,314.5 154,314.5 154,314.6 154.4,314.6 154.4,314.5 154.6,314.5 154.6,314.3 
		154.7,314.3 154.7,314.2 154.9,314.2 154.9,314.1 155,314.1 155,314 155.1,314 155.1,313.9 155.2,313.9 155.2,313.7 155.4,313.7 
		155.4,313.6 155.5,313.6 155.5,313.5 156,313.5 156,313.6 156.2,313.6 156.2,313.5 156.6,313.5 156.6,313.6 156.7,313.6 
		156.7,313.5 156.9,313.5 157.1,313.5 157.1,313.4 157.3,313.4 157.3,313.5 157.5,313.5 157.5,313.6 157.5,313.6 157.5,313.7 
		157.6,313.7 157.6,313.9 157.7,313.9 157.7,314 157.9,314 157.9,314.1 158.2,314.1 158.2,314.2 158.3,314.2 158.3,314.5 
		158.2,314.5 158.2,314.7 158.1,314.7 158.1,314.8 158.1,315.1 158.2,315.1 158.5,315.1 158.5,314.9 158.6,314.9 158.6,314.8 
		158.7,314.8 158.7,314.9 159.6,314.9 159.6,315.1 159.7,315.1 159.7,315.2 159.8,315.2 159.8,315.3 159.7,315.3 159.7,315.4 
		159.5,315.4 159.5,315.5 159.4,315.5 159.4,315.9 159.5,315.9 159.5,316 159.6,316 159.6,316.1 159.8,316.1 159.8,316.3 
		160.2,316.3 160.2,316.4 160.3,316.4 160.3,316.7 160.4,316.7 160.4,317 160.5,317 160.5,317.1 161,317.1 161,317 161.1,317 
		161.1,317.1 161.3,317.1 161.3,317 161.7,317 161.7,317.1 161.9,317.1 161.9,317.3 161.9,317.3 161.9,317.8 162,317.8 162,318.1 
		162.1,318.1 162.1,318.2 162.3,318.2 162.3,318.3 163.2,318.3 163.2,318.7 163.2,319 163.1,319 163.1,319.5 163.2,319.5 
		163.2,319.9 163.6,319.9 163.6,319.7 163.8,319.7 163.8,319.6 163.9,319.6 163.9,319.4 164,319.4 164,319.6 164.1,319.6 
		164.1,319.7 164.2,319.7 164.2,319.9 164.3,319.9 164.3,320 164.5,320 164.5,320.2 164.6,320.2 164.6,320.5 164.8,320.5 
		164.8,320.6 164.9,320.6 164.9,320.7 165,320.7 165,320.6 165.1,320.6 165.1,320.4 165.1,320.3 165.2,320.3 165.2,320.6 
		165.3,320.6 165.3,320.7 165.3,320.8 165.3,320.8 165.4,320.8 165.4,320.9 165.4,321.1 165.4,321.1 165.6,321.1 165.6,321.2 
		165.9,321.2 165.9,321.3 166.2,321.3 166.2,321.4 166.3,321.4 166.3,321.5 166.4,321.5 166.4,322.4 166.4,322.4 166.4,322.5 
		166.5,322.5 166.5,322.6 166.6,322.6 166.6,322.7 166.7,322.7 166.7,322.8 166.8,322.8 166.8,323.2 166.9,323.2 166.9,323.3 
		166.8,323.3 166.8,323.7 166.7,323.7 166.7,323.9 166.6,323.9 166.6,324.2 166.5,324.2 166.5,324.4 166.4,324.4 166.4,324.8 
		166.4,324.8 166.4,324.9 166.3,324.9 166.3,324.6 166.1,324.6 166.1,324.6 166.1,324.5 165.9,324.5 165.9,324.4 165.6,324.4 
		165.6,324.5 165.4,324.5 165.4,324.6 165.2,324.6 165.2,324.9 165.1,324.9 165.1,325.2 165,325.2 165,325.4 164.9,325.4 
		164.9,325.6 164.8,325.6 164.8,326 164.7,326 164.7,327.2 164.8,327.2 164.8,327.4 164.9,327.4 164.9,327.5 165,327.5 165,327.6 
		165.1,327.6 165.1,327.9 165,327.9 165,328.1 164.6,328.1 164.6,328.2 164.5,328.2 164.5,328.4 164.3,328.4 164.3,328.2 
		164.2,328.2 164.2,328.1 163.5,328.1 163.5,328 163.2,328 163.2,327.9 163,327.9 163,327.8 162.8,327.8 162.8,327.6 162.6,327.6 
		162.6,327.5 161.3,327.5 161.3,327.6 161.1,327.6 161.1,327.8 161,327.8 160.8,327.8 160.8,327.9 160.4,327.9 160.4,328 159.8,328 
		159.8,328.1 159.6,328.1 159.6,328.2 159.3,328.2 159.3,328.4 159,328.4 159,328.5 158.9,328.5 158.9,328.6 158.7,328.6 
		158.7,328.7 158.6,328.7 158.6,328.8 158.4,328.8 158.4,329 158.4,329 158.4,329.2 158.3,329.2 158.3,329.4 158.4,329.4 
		158.4,329.7 158.3,329.7 158.3,329.9 158.2,329.9 158.2,330.2 158.1,330.2 158.1,330.3 158,330.3 158,330.4 157.9,330.4 
		157.9,330.6 157.8,330.6 157.8,330.9 157.7,330.9 157.7,331 157.6,331 157.6,331.2 157.5,331.2 157.5,331.7 157.5,331.7 157.5,332 
		157.5,332 157.5,332.2 157.6,332.2 157.6,332.3 157.7,332.3 157.7,332.4 157.8,332.4 157.8,332.8 157.7,332.8 157.7,333.1 
		157.6,333.1 157.6,333.3 157.5,333.3 157.5,333.5 157.5,333.5 157.5,334.1 157.4,334.1 157.4,334.2 157.3,334.2 157.3,334.3 
		157.2,334.3 157.2,334.5 156.8,334.5 156.8,334.6 156.6,334.6 156.6,334.7 156.6,334.7 156.6,334.8 156.5,334.8 156.5,334.9 
		156.2,334.9 156.2,334.8 156.1,334.8 156.1,334.7 155.9,334.7 155.9,334.8 155.8,334.8 155.8,334.7 155.5,334.7 155.3,334.7 
		155.3,334.7 155.3,334.8 155.1,334.8 155.1,335.1 154.9,335.1 154.9,335.7 155,335.7 155,336.3 154.9,336.3 154.9,336.6 155,336.6 
		155,336.9 154.9,336.9 154.9,337.1 154.9,337.1 154.9,337.5 154.9,337.5 154.9,337.9 154.9,337.9 154.9,338.3 154.8,338.3 
		154.8,338.4 154.4,338.4 154.4,338.5 154.3,338.5 154.3,338.7 154.2,338.7 154.2,338.8 154.1,338.8 154.1,338.9 154,338.9 154,339 
		153.8,339 153.8,339.1 153.5,339.1 153.5,339 153.4,339 153.4,338.7 153.3,338.7 153.3,338.5 153.2,338.5 153.2,338.4 153.1,338.4 
		153.1,338.2 153.1,338.2 153.1,337.9 153,337.9 153,337.8 152.9,337.8 152.9,337.6 152.8,337.6 152.8,337.1 152.7,337.1 152.7,337 
		152.6,337 152.6,336.9 152.5,336.9 152.5,337.5 152.4,337.5 152.4,337.8 152.4,337.9 152.3,337.9 152.3,338.3 152.2,338.3 
		152.2,338.8 152.2,338.8 152.2,339 152.2,339.4 152.2,339.4 152.2,339.5 152.4,339.5 152.7,339.5 152.7,339.3 152.8,339.3 
		152.8,339.4 152.9,339.4 152.9,339.5 153,339.5 153,339.7 152.8,339.7 152.8,339.9 152.6,339.9 152.6,340 152.5,340 152.5,340.1 
		152.2,340.1 152.2,340 152.1,340 152.1,339.7 151.9,339.7 151.9,339.6 151.7,339.6 151.7,339.5 151.6,339.5 151.6,339.4 
		151.4,339.4 151.4,338.8 151.5,338.8 151.5,338.4 151.6,338.4 151.6,337.9 151.7,337.9 151.7,337.7 151.9,337.7 151.9,337.6 
		152,337.6 152,337.3 151.9,337.3 151.9,337.2 151.6,337.2 151.6,337.3 151.5,337.3 151.5,337.5 151.4,337.5 151.4,337.6 
		151.3,337.6 151.3,337.2 151.4,337.2 151.4,336 151.3,336 151.3,335.2 151.5,335.2 151.5,335.1 151.6,335.1 151.6,334.9 
		151.7,334.9 151.7,334.7 151.6,334.7 151.6,334.2 151.7,334.2 151.7,334.1 151.8,334.1 151.8,334 152.1,334 152.1,333.9 
		152.2,333.9 152.2,333.7 152.3,333.7 152.3,333.6 152.4,333.6 152.4,334 152.2,334 152.2,334.6 152.3,334.6 152.3,334.8 
		152.9,334.8 152.9,334.3 152.8,334.3 152.8,334 152.7,334 152.7,333.9 152.6,333.9 152.6,333.6 152.5,333.6 152.5,333.3 
		152.4,333.3 152.4,333 152.3,333 152.3,332.7 152.2,332.7 152.2,332.4 152.2,332.4 152.2,332.1 152.1,332.1 152.1,332 151.9,332 
		151.9,331.8 151.8,331.8 151.8,331.7 151.5,331.7 151.5,331.6 151.3,331.6 151.3,331 151.3,331 151.3,330.9 151.2,330.9 
		151.2,330.8 151.1,330.8 151.1,330.6 151,330.6 151,330.5 150.9,330.5 150.9,330.4 150.8,330.4 150.8,330.3 150.6,330.3 
		150.6,330.2 150.5,330.2 150.5,329.9 150.4,329.9 150.4,329.7 150.4,329.7 150.4,329.4 150.3,329.4 150.3,329.2 150.2,329.2 
		150.2,329 150.1,329 150.1,328.8 150,328.8 150,328.6 149.9,328.6 149.9,328.5 149.8,328.5 149.8,328.2 149.7,328.2 149.7,328.1 
		149.6,328.1 149.6,327.9 149.6,327.9 149.6,327.6 149.5,327.6 149.5,327.5 149.4,327.5 149.4,327.3 149.3,327.3 149.3,326.8 
		149.2,326.8 149.2,326.3 149.3,326.3 149.3,326.2 149.4,326.2 149.4,326 149.3,326 149.3,325.8 149.1,325.8 149.1,325.7 
		148.9,325.7 148.9,325.6 148.8,325.6 148.8,325.5 148.7,325.5 148.7,325.4 148.7,325.4 148.7,325 148.6,325 148.6,324.8 
		148.4,324.8 148.4,324.6 148.3,324.6 148.3,324.5 148.4,324.5 148.4,324.3 148.5,324.3 148.5,324.2 148.6,324.2 148.6,324 
		148.8,324 148.8,323.9 148.9,323.9 148.9,323.8 148.8,323.8 148.8,323.7 147.9,323.7 147.9,323.8 147.7,323.8 147.7,324 147.8,324 
		147.8,324.3 147.8,324.3 147.8,324.5 147.9,324.5 147.9,324.8 148,324.8 148,325 148.1,325 148.1,325.5 148.2,325.5 148.2,325.6 
		148.3,325.6 148.3,325.7 148.4,325.7 148.4,326 148.5,326 148.5,326.2 148.6,326.2 148.6,326.4 148.7,326.4 148.7,326.7 
		148.7,326.7 148.7,327 148.8,327 148.8,327.3 148.9,327.3 148.9,327.5 149,327.5 149,327.8 149.1,327.8 149.1,328 149.2,328 
		149.2,328.1 149.3,328.1 149.3,328.5 149.4,328.5 149.4,328.7 149.5,328.7 149.5,329 149.6,329 149.6,329.3 149.6,329.3 
		149.6,329.6 149.7,329.6 149.7,329.8 149.8,329.8 149.8,330 149.9,330 149.9,330.3 150,330.3 150,330.5 150.1,330.5 150.1,330.8 
		150.2,330.8 150.2,331 150.3,331 150.3,331.2 150.4,331.2 150.4,331.7 150.4,331.7 150.4,332.2 150.5,332.2 150.5,332.5 
		150.6,332.5 150.6,333 150.6,333.4 150.7,333.4 150.7,334.3 150.8,334.3 150.8,337.1 150.7,337.1 150.7,337.8 150.6,337.8 
		150.6,338.1 150.5,338.1 150.5,338.5 150.4,338.5 150.4,339.4 150.4,339.4 150.4,339.9 150.3,339.9 150.3,340.1 150.2,340.1 
		150.2,340.3 150.1,340.3 150.1,340.5 150,340.5 150,340.8 149.9,340.8 149.9,341.1 149.8,341.1 149.8,341.3 149.9,341.3 
		149.9,341.5 150,341.5 150,341.8 150.1,341.8 150.1,342.1 150.2,342.1 150.2,342.4 150.3,342.4 150.3,342.6 150.4,342.6 
		150.4,343.1 150.4,343.1 150.4,343.2 150.5,343.2 150.5,343.5 150.6,343.5 150.6,343.8 150.5,343.8 150.5,344.7 150.4,344.7 
		150.4,344.8 150.4,344.8 150.4,345 150.5,345 150.5,344.8 150.6,344.8 150.6,344.7 151,344.7 151,344.8 151.1,344.8 151.1,344.9 
		151.3,344.9 151.3,345 151.3,345 151.3,344.9 151.4,344.9 151.4,344.8 151.5,344.8 151.5,344.4 151.6,344.4 151.6,344.2 
		151.7,344.2 151.7,344.1 151.8,344.1 151.8,343.9 151.9,343.9 151.9,343.8 152,343.8 152,343.7 152.1,343.7 152.1,343.6 
		152.3,343.6 152.3,343.5 152.4,343.5 152.4,343.3 152.6,343.3 152.6,343.2 152.7,343.2 152.7,343.1 152.8,343.1 152.8,343 153,343 
		153,342.9 153.1,342.9 153.1,342.7 153.1,342.7 153.1,342.5 153.2,342.5 153.2,342.4 153.3,342.4 153.3,342.3 153.7,342.3 
		154,342.3 154,342.4 154.1,342.4 154.1,342.5 154.2,342.5 154.2,342.6 154.7,342.6 154.7,342.5 154.8,342.5 154.8,342.1 
		154.7,342.1 154.7,341.7 154.6,341.7 154.6,341.5 154.5,341.5 154.5,341.2 154.6,341.2 154.6,340.8 154.7,340.8 154.7,340.7 
		154.9,340.7 154.9,340.6 155.5,340.6 155.5,340.5 155.9,340.5 155.9,340.6 156.1,340.6 156.1,340.5 156.5,340.5 156.5,340.6 
		157,340.6 157,340.7 157.2,340.7 157.2,340.8 157.5,340.8 157.5,340.9 158,340.9 158,341.3 158,341.9 158.1,341.9 158.1,342.1 
		158.2,342.1 158.2,342.6 158.1,342.6 158.1,342.7 158,342.7 158,343 157.9,343 157.9,343.1 157.8,343.1 157.8,343.2 157.7,343.2 
		157.7,343.5 157.6,343.5 157.6,343.6 157.5,343.6 157.5,344.2 157.6,344.2 157.6,344.8 157.5,344.8 157.5,345 157.5,345 
		157.5,345.1 157.4,345.1 157.4,345.4 157.3,345.4 157.3,345.5 157.2,345.5 157.2,345.7 157.1,345.7 157.1,345.8 157,345.8 157,346 
		156.8,346 156.8,346 156.8,346.1 156.6,346.1 156.6,346.2 156.5,346.2 156.5,346.3 156.2,346.3 156.2,346 156.1,346 156.1,345.7 
		156,345.7 156,345.5 155.8,345.5 155.8,345.4 155.4,345.4 155.4,345.6 155.3,345.6 155.3,345.8 155.4,345.8 155.4,346 155.5,346 
		155.5,346.1 155.6,346.1 155.6,346.4 155.7,346.4 155.7,346.9 155.7,346.9 155.8,346.9 155.8,347.2 155.8,347.2 155.8,347.4 
		155.9,347.4 155.9,347.5 156,347.5 156,347.9 156.1,347.9 156.1,348.6 156.2,348.6 156.2,348.8 156.3,348.8 156.3,349 156.4,349 
		156.4,349.1 156.5,349.1 156.5,349.4 156.6,349.4 156.6,349.8 156.6,349.8 156.6,350.2 156.7,350.2 156.7,350.4 157,350.4 
		157,350.5 157.2,350.5 157.2,350.6 157.3,350.6 157.3,350.8 157.2,350.8 157.2,350.9 157,350.9 157,351 156.7,351 156.7,351.1 
		156.6,351.1 156.6,351.4 156.6,351.4 156.6,351.6 156.5,351.6 156.5,351.8 156.4,351.8 156.4,352.1 156.3,352.1 156.3,353.3 
		156.4,353.3 156.4,356.1 156.3,356.1 156.3,357.2 156.2,357.2 156.2,358.2 156.3,358.2 156.3,358.3 156.2,358.3 156.2,358.7 
		156.1,358.7 156.1,358.8 156,358.8 156,360.2 155.9,360.2 155.9,360.3 155.8,360.3 155.8,360.6 155.8,360.6 155.8,361.1 
		155.7,361.1 155.7,361.5 155.6,361.5 155.6,362.3 155.5,362.3 155.5,362.4 155.4,362.4 155.4,362.6 155.3,362.6 155.3,362.7 
		155.4,362.7 155.4,363 155.3,363 155.3,363.3 155.2,363.3 155.2,363.6 155.3,363.6 155.3,363.7 155.2,363.7 155.2,364.3 
		155.1,364.3 155.1,364.4 155,364.4 155,364.7 154.9,364.7 154.9,365 154.9,365 154.9,365.3 154.8,365.3 154.8,365.5 154.7,365.5 
		154.7,366.2 154.6,366.2 154.6,366.8 154.5,366.8 154.5,367.2 154.4,367.2 154.4,367.4 154.3,367.4 154.3,367.8 154.2,367.8 
		154.2,367.9 154.3,367.9 154.3,368 154.5,368 154.5,367.9 154.6,367.9 154.6,367.8 154.7,367.8 154.7,367.7 154.8,367.7 
		154.8,367.5 154.9,367.5 154.9,367.3 154.9,367.3 154.9,367.1 155,367.1 155,366.9 155.1,366.9 155.1,366.8 155.2,366.8 
		155.2,366.6 155.3,366.6 155.3,366.3 155.4,366.3 155.4,366.2 155.5,366.2 155.5,366.1 155.6,366.1 155.6,366 155.7,366 
		155.7,365.7 155.8,365.7 155.8,365.6 156.1,365.6 156.1,365.7 156.3,365.7 156.3,365.6 156.4,365.6 156.4,365.7 156.6,365.7 
		156.6,365.9 156.7,365.9 156.7,365.7 156.9,365.7 156.9,365.4 157,365.4 157,365.3 157.1,365.3 157.1,365.1 157.2,365.1 157.2,365 
		157.3,365 157.3,364.8 157.4,364.8 157.4,364.4 157.5,364.4 157.5,363.2 157.5,363.2 157.5,362.7 157.5,362.7 157.5,362.3 
		157.4,362.3 157.4,362.1 157.3,362.1 157.3,360.8 157.2,360.8 157.2,360.1 157.3,360.1 157.3,360 157.2,360 157.2,359.7 
		157.1,359.7 157.1,359.6 156.8,359.6 156.8,359 156.9,359 156.9,358.9 157,358.9 157,358.5 157.1,358.5 157.1,358.2 157.3,358.2 
		157.3,357.8 157.4,357.8 157.4,357.6 157.8,357.6 157.8,357.5 158.1,357.5 158.1,357.3 158.4,357.3 158.4,357.2 157.8,357.2 
		157.8,357.3 157.6,357.3 157.6,357.5 157.4,357.5 157.4,357.3 157.3,357.3 157.3,357.2 157.2,357.2 157.2,357 157.1,357 
		157.1,356.5 157,356.5 157,355.9 157.1,355.9 157.1,355.8 157.3,355.8 157.3,355.7 157.9,355.7 157.9,355.8 158,355.8 158,356.1 
		158.1,356.1 158.1,356.4 158.2,356.4 158.2,356.5 158.6,356.5 158.6,356.4 158.7,356.4 158.7,356.3 158.4,356.3 158.4,356 
		158.3,356 158.3,355.9 158.2,355.9 158.2,355.8 158.1,355.8 158.1,355.6 158,355.6 158,355.3 157.9,355.3 157.9,355.1 157.8,355.1 
		157.8,354.7 158.1,354.7 158.1,354.5 157.7,354.5 157.7,354.6 157.6,354.6 157.6,354.7 157.1,354.7 157.1,354.4 157.2,354.4 
		157.2,354.2 157.3,354.2 157.3,354.1 157.4,354.1 157.4,353.8 157.5,353.8 157.5,353.4 157.4,353.4 157.4,353 157.5,353 
		157.5,352.8 157.7,352.8 157.7,352.9 157.9,352.9 157.9,353 158,353 158,353.2 158.2,353.2 158.2,352.9 158.3,352.9 158.3,352.6 
		158.1,352.6 158.1,352.4 158,352.4 158,352.3 157.9,352.3 157.9,352.1 157.8,352.1 157.8,351.8 157.9,351.8 157.9,351.2 
		157.8,351.2 157.8,350.9 157.7,350.9 157.7,350.8 157.6,350.8 157.6,350.5 157.5,350.5 157.5,350.4 157.1,350.4 157.1,350.3 
		157,350.3 157,349.6 156.9,349.6 156.9,349.4 156.8,349.4 156.8,349.2 156.7,349.2 156.7,348.8 156.8,348.8 156.8,348.7 157,348.7 
		157,348.5 157.1,348.5 157.1,348.4 157.3,348.4 157.3,348.5 157.4,348.5 157.4,348.6 157.6,348.6 157.6,348.5 157.8,348.5 
		157.8,348.1 157.9,348.1 157.9,348 158,348 158,347.8 158.1,347.8 158.1,347.6 158.2,347.6 158.2,347.4 158.3,347.4 158.3,347.3 
		158.4,347.3 158.4,347.2 158.4,347.2 158.4,347 158.5,347 158.5,346.9 158.6,346.9 158.6,346.8 158.8,346.8 158.8,346.7 159,346.7 
		159,346.6 159.4,346.6 159.4,347.3 159.2,347.3 159.2,347.4 159.1,347.4 159.1,347.5 158.7,347.5 158.7,347.6 158.6,347.6 
		158.6,348 158.7,348 158.7,348.2 158.8,348.2 158.8,348.7 158.9,348.7 158.9,348.8 159,348.8 159,349 159.2,349 159.2,349.1 
		159.3,349.1 159.3,349.3 159.2,349.3 159.2,349.7 159.1,349.7 159.1,350.3 159.2,350.3 159.2,350.9 159.3,350.9 159.3,351.4 
		159.3,351.4 159.3,351.4 159.3,351.8 159.4,351.8 159.4,352.3 159.5,352.3 159.5,352.7 159.6,352.7 159.6,353 160.1,353 
		160.1,353.2 160.2,353.2 160.2,353.3 160.3,353.3 160.3,353.4 160.5,353.4 160.5,353.5 161,353.5 161,353.6 161.1,353.6 
		161.1,355.1 161,355.1 161,355.3 160.9,355.3 160.9,355.4 160.5,355.4 160.5,355.8 160.4,355.8 160.4,356 160.3,356 160.3,356.6 
		160.4,356.6 160.4,356.7 160.5,356.7 160.5,356.9 160.6,356.9 160.6,357.1 160.7,357.1 160.7,357.2 160.8,357.2 160.8,357.5 
		161,357.5 161,357.6 161.1,357.6 161.1,357.7 161.1,357.7 161.1,357.8 161.2,357.8 161.2,357.9 161.3,357.9 161.3,358.2 
		161.1,358.2 161.1,358.3 161.1,358.3 161.1,358.8 161,358.8 161,359.4 160.8,359.4 160.8,359.5 160.5,359.5 160.5,359.6 
		160.3,359.6 160.3,359.7 160.2,359.7 160.2,360.6 160.2,360.6 160.2,361.9 160.1,361.9 160.1,362.3 160.2,362.3 160.2,362.4 
		160.3,362.4 160.3,362.5 160.4,362.5 160.4,362.6 160.6,362.6 160.6,362.5 160.7,362.5 160.7,362.4 160.9,362.4 160.9,362.3 
		161,362.3 161,362 161.1,362 161.1,361.8 161.1,361.8 161.1,361.5 161.2,361.5 161.2,361.4 161.5,361.4 161.5,362 161.4,362 
		161.4,363.2 161.3,363.2 161.3,363.6 161.4,363.6 161.4,363.8 161.5,363.8 161.5,364.8 161.6,364.8 161.6,365 161.5,365 
		161.5,365.3 161.4,365.3 161.4,365.5 161.3,365.5 161.3,365.6 161.2,365.6 161.2,365.7 161.1,365.7 161.1,365.9 161,365.9 161,366 
		160.9,366 160.9,366.1 160.8,366.1 160.8,366.2 160.6,366.2 160.6,366.3 160.5,366.3 160.5,366.5 160.4,366.5 160.4,366.6 
		160.2,366.6 160.2,366.7 160.2,366.7 160.2,366.8 160.1,366.8 160.1,366.9 159.9,366.9 159.9,367.1 159.8,367.1 159.8,367.2 
		159.7,367.2 159.7,367.3 159.6,367.3 159.6,367.4 159.4,367.4 159.4,367.5 159.3,367.5 159.3,367.7 159.3,367.7 159.3,367.8 
		159.2,367.8 159.2,367.9 159,367.9 159,368 158.9,368 158.9,368.1 158.8,368.1 158.8,368.3 158.7,368.3 158.7,368.4 158.5,368.4 
		158.5,368.5 158.4,368.5 158.4,368.6 158.4,368.6 158.4,368.7 158.3,368.7 158.3,368.8 158.1,368.8 158.1,369 158,369 158,369.1 
		157.9,369.1 157.9,369.2 157.8,369.2 157.8,369.3 157.6,369.3 157.6,369.4 157.5,369.4 157.5,369.6 157.4,369.6 157.4,369.7 
		157.2,369.7 157.2,369.8 157,369.8 157,369.9 156.9,369.9 156.9,370 156.7,370 156.7,370.2 156.6,370.2 156.6,370.3 156.5,370.3 
		156.5,370.4 156.4,370.4 156.4,370.5 156.2,370.5 156.2,370.6 156.1,370.6 156.1,370.8 155.9,370.8 155.9,370.9 155.8,370.9 
		155.8,371 155.4,371 155.4,371.1 155.1,371.1 155.1,371.2 155,371.2 155,371.4 154.9,371.4 154.9,371.5 154.9,371.5 154.9,371.8 
		155.1,371.8 155.1,371.7 155.3,371.7 155.3,371.6 155.8,371.6 155.8,371.5 155.9,371.5 155.9,371.4 156.1,371.4 156.1,371.2 
		156.2,371.2 156.2,371.1 156.4,371.1 156.4,371 156.6,371 156.6,370.9 156.6,370.9 156.6,370.8 156.8,370.8 156.8,370.6 157,370.6 
		157,370.5 157.1,370.5 157.1,370.4 157.3,370.4 157.3,370.5 157.5,370.5 157.5,370.4 157.6,370.4 157.6,370.3 157.7,370.3 
		157.7,370 157.6,370 157.6,369.9 157.7,369.9 157.7,369.8 157.9,369.8 157.9,369.7 158,369.7 158,369.6 158.1,369.6 158.1,369.4 
		158.2,369.4 158.2,369.3 158.3,369.3 158.3,369.2 158.4,369.2 158.4,369.1 158.5,369.1 158.5,369 158.6,369 158.6,368.8 
		158.7,368.8 158.7,368.7 159.3,368.7 159.3,368.3 159.3,368.3 159.3,368.1 159.5,368.1 159.5,368 159.6,368 159.6,367.9 
		159.7,367.9 159.7,367.8 159.8,367.8 159.8,367.7 159.9,367.7 159.9,367.5 160,367.5 160,367.4 160.2,367.4 160.2,367.3 
		160.4,367.3 160.4,367.4 160.7,367.4 160.7,367.1 160.9,367.1 160.9,366.8 161,366.8 161,366.7 161.1,366.7 161.1,366.6 
		161.3,366.6 161.3,366.5 161.4,366.5 161.4,366.3 161.5,366.3 161.5,366.2 161.6,366.2 161.6,366.1 161.7,366.1 161.7,365.9 
		161.8,365.9 161.8,365.7 161.9,365.7 161.9,365.6 162,365.6 162,365.7 162.1,365.7 162.1,365.9 162.2,365.9 162.2,366 162.3,366 
		162.3,366.1 162.4,366.1 162.4,366.2 162.7,366.2 162.7,366.3 162.8,366.3 162.8,366.5 163,366.5 163,366.6 163.3,366.6 
		163.3,366.5 163.4,366.5 163.4,366.7 163.3,366.7 163.3,367.1 163.4,367.1 163.4,367.2 163.4,367.5 163.2,367.5 163.2,367.7 
		163.1,367.7 163.1,367.8 163,367.8 163,367.9 162.7,367.9 162.7,368.4 162.6,368.4 162.6,368.5 162.5,368.5 162.5,368.7 
		162.4,368.7 162.4,368.8 162.3,368.8 162.3,369 162.1,369 162.1,369.1 162,369.1 162,369.2 161.9,369.2 161.9,369.4 162,369.4 
		162,369.6 162.1,369.6 162.1,369.8 162.5,369.8 162.5,369.6 162.6,369.6 162.6,369.4 162.7,369.4 162.7,369.2 162.8,369.2 
		162.8,369 163,369 163,368.8 163.4,368.8 163.4,369 163.7,369 163.7,368.7 163.7,368.7 163.7,368.5 163.6,368.5 163.6,368.4 
		163.5,368.4 163.5,368.3 163.7,368.3 163.7,368.1 163.7,368.1 163.7,368 163.9,368 163.9,367.9 164,367.9 164,367.8 164.1,367.8 
		164.1,367.7 164.3,367.7 164.3,367.5 164.4,367.5 164.4,367.5 164.4,367.4 164.5,367.4 164.5,367.3 164.6,367.3 164.6,367.2 
		164.6,367.2 164.6,367.1 164.7,367.1 164.7,366.9 165,366.9 165,366.8 165.5,366.8 165.5,366.7 165.7,366.7 165.7,366.8 
		165.9,366.8 165.9,366.9 166,366.9 166,367.1 166.1,367.1 166.4,367.1 166.4,366.9 166.5,366.9 166.5,366.8 166.7,366.8 
		166.7,366.9 166.8,366.9 166.8,367.2 166.9,367.2 166.9,367.3 167.1,367.3 167.1,367.3 167.1,367.4 167.8,367.4 167.8,367.5 
		167.9,367.5 168.2,367.5 168.2,367.3 168.3,367.3 168.3,366.8 168.2,366.8 168.2,366.7 168.1,366.7 168.1,366.6 168.1,366.6 
		168.1,366.2 168.2,366.2 168.2,366.1 168.3,366.1 168.3,366 168.5,366 168.5,365.9 168.9,365.9 168.9,366.1 169,366.1 169,366.8 
		168.9,366.8 168.9,367.5 168.8,367.5 168.8,367.7 168.6,367.7 168.6,367.8 168.4,367.8 168.4,368 168.3,368 168.3,368.1 
		168.2,368.1 168.2,368.4 168.1,368.4 168.1,368.5 167.8,368.5 167.8,368.6 167.5,368.6 167.5,368.8 167.4,368.8 167.4,369.2 
		167.3,369.2 167.3,369.4 167.4,369.4 167.4,369.7 167.5,369.7 167.5,369.9 167.6,369.9 167.6,370.2 167.7,370.2 167.7,370.3 
		167.9,370.3 167.9,370.4 168,370.4 168,370.5 168.2,370.5 168.2,370.4 168.7,370.4 168.7,370.5 168.8,370.5 168.8,370.6 
		168.9,370.6 168.9,370.8 169,370.8 169,370.9 169,370.9 169,371.2 169,371.2 169,371.5 169.2,371.5 169.2,371.6 169.4,371.6 
		169.4,371.7 169.5,371.7 169.5,372.2 169.6,372.2 169.6,372.6 169.7,372.6 169.7,372.8 169.6,372.8 169.6,373 169.5,373 
		169.5,373.2 169.4,373.2 169.4,373.3 169.2,373.3 169.2,373.4 169.1,373.4 169.1,373.5 169,373.5 169,373.9 169,373.9 169,374.1 
		168.9,374.1 168.9,374.2 168.8,374.2 168.8,374.2 168.8,374.4 168.7,374.4 168.7,374.5 168.6,374.5 168.6,374.6 168.5,374.6 
		168.5,374.7 168.4,374.7 168.4,375.1 168.3,375.1 168.3,375.3 168.2,375.3 168.2,375.6 168.1,375.6 168.1,375.9 168.1,375.9 
		168.1,376.5 168.1,376.5 168.1,376.8 168.2,376.8 168.2,376.9 168.4,376.9 168.4,376.9 168.4,377.1 168.3,377.1 168.3,378.2 
		168.2,378.2 168.2,378.3 168.1,378.3 168.1,378.4 168.1,378.8 168.1,378.8 168.1,378.9 168.2,378.9 168.2,379.5 168.1,379.5 
		168.1,379.9 168,379.9 168,380 167.9,380 167.8,380 167.8,380.1 167.6,380.1 167.6,380.2 167.5,380.2 167.5,380.6 167.6,380.6 
		167.6,380.9 167.5,380.9 167.5,381.1 167.3,381.1 167.3,380.9 167.2,380.9 167.2,380.8 167.1,380.8 167.1,380.7 167,380.7 
		167,380.1 166.7,380.1 166.7,380.4 166.6,380.4 166.6,380.7 166.5,380.7 166.5,381.4 166.6,381.4 166.6,381.5 166.9,381.5 
		166.9,381.7 167.2,381.7 167.2,381.8 167.3,381.8 167.3,382.4 167.2,382.4 167.2,382.9 167.3,382.9 167.3,383.2 167.3,383.2 
		167.3,383.3 167.4,383.3 167.4,383.5 167.5,383.5 167.5,384.2 167.4,384.2 167.4,384.9 167.3,384.9 167.3,385.7 167.3,385.7 
		167.3,386.2 167.2,386.2 167.2,386.7 167.3,386.7 167.3,386.9 167.3,386.9 167.3,387.4 167.3,387.4 167.3,387.5 167.1,387.5 
		167.1,387.7 166.9,387.7 166.9,387.8 166.8,387.8 166.8,388.1 167,388.1 167,388.3 167.2,388.3 167.2,388.4 167.3,388.4 
		167.3,389.2 167.3,389.2 167.3,389.6 167.4,389.6 167.4,389.7 167.3,389.7 167.3,389.8 167.3,389.8 167.3,389.9 167.2,389.9 
		167.2,390.1 167.1,390.1 167.1,390.3 167,390.3 167,390.5 167.1,390.5 167.1,390.8 167.2,390.8 167.2,391 167.3,391 167.3,391.4 
		167.3,392.9 167.2,392.9 167.2,393.1 167.2,393.3 167.1,393.3 167.1,393.5 166.9,393.5 166.9,393.6 166.7,393.6 166.7,395.2 
		166.8,395.2 166.8,395.4 166.9,395.4 166.9,395.6 167.1,395.6 167.1,395.7 167.2,395.7 167.2,395.8 167.3,395.8 167.3,395.9 
		167.4,395.9 167.4,396.3 167.3,396.3 167.3,396.4 167.4,396.4 167.4,396.5 167.7,396.5 167.7,396.6 167.8,396.6 167.8,396.8 
		167.7,396.8 167.7,396.9 167.8,396.9 167.8,397 167.7,397 167.7,397.4 167.5,397.4 167.5,397.5 167.3,397.5 167.3,397.6 
		167.3,397.6 167.3,397.7 167.2,397.7 167.2,397.8 167.1,397.8 167.1,398 167,398 167,398.2 167.1,398.2 167.1,398.3 167.2,398.3 
		167.2,398.4 167.3,398.4 167.3,398.7 167.4,398.7 167.4,398.8 167.5,398.8 167.5,398.9 167.6,398.9 167.6,399 168.1,399 
		168.1,399.2 168.4,399.2 168.4,399.3 168.5,399.3 168.5,399.4 168.4,399.4 168.4,399.5 168.3,399.5 168.3,399.9 168.4,399.9 
		168.4,400 168.5,400 168.5,400.1 168.6,400.1 168.6,400.2 168.8,400.2 168.8,400.4 169.7,400.4 169.9,400.4 169.9,400.5 
		170.1,400.5 170.1,400.6 170.2,400.6 170.2,400.7 170.3,400.7 170.3,400.8 170.5,400.8 170.5,401 170.6,401 170.6,401.1 
		170.7,401.1 170.7,401.3 170.6,401.3 170.6,401.4 170.5,401.4 170.5,401.6 170.4,401.6 170.4,401.7 170.3,401.7 170.3,401.8 
		170.1,401.8 170.1,402.2 170,402.2 170,402.3 170.1,402.3 170.1,402.6 170,402.6 170,402.9 169.9,402.9 169.9,403 169.7,403 
		169.7,403.1 169.5,403.1 169.5,403.2 169.4,403.2 169.4,403.4 169,403.4 169,403.2 169,403.2 169,403.2 169,403.1 168.8,403.1 
		168.8,403 168.5,403 168.5,403.1 168.4,403.1 168.4,403.2 168.2,403.2 168.2,403.4 168.1,403.4 168.1,403.2 167.8,403.2 
		167.8,403.5 167.7,403.5 167.7,403.6 167.6,403.6 167.6,403.7 167.5,403.7 167.5,403.8 167.4,403.8 167.4,403.9 167.3,403.9 
		166.9,404 166.9,403.7 166.8,403.7 166.8,403.4 166.4,403.4 166.4,403.5 166.5,403.5 166.5,403.8 166.3,403.8 166.3,404.1 
		166,404.1 166,403.7 165.9,403.7 165.9,403.6 165.8,403.6 165.8,403.4 165.7,403.4 165.7,403.5 165.5,403.5 165.5,403.8 
		165.4,403.8 165.4,404 165.3,404 165.3,404.1 165.2,404.1 165.2,404.2 164.6,404.2 164.6,404.1 164.3,404.1 164.3,404 164.1,404 
		164.1,403.8 164,403.8 164,404 163.9,404 163.9,404.1 163.8,404.1 163.8,404.2 163.7,404.2 163.7,404.3 163.7,404.3 163.7,404.9 
		163.6,404.9 163.6,405.1 163.5,405.1 163.5,405.4 163.6,405.4 163.6,405.5 163.7,405.5 163.7,406 163.7,406 163.7,406.5 
		163.8,406.5 163.8,406.8 164,406.8 164,406.7 164.1,406.7 164.1,406.6 164.2,406.6 164.2,406.5 164.3,406.5 164.3,406.2 
		164.4,406.2 164.4,406 164.6,406 165.1,406 165.1,405.9 165.3,405.9 165.3,405.7 165.4,405.7 165.4,405.6 165.5,405.6 165.5,405.7 
		165.6,405.7 165.6,405.9 165.7,405.9 165.7,406 165.9,406 165.9,406.1 166.1,406.1 166.1,406.2 166.3,406.2 166.3,406.3 
		166.4,406.3 166.4,406.5 166.4,406.5 166.4,406.9 166.5,406.9 166.5,407.1 166.4,407.1 166.4,407.2 165.5,407.2 165.5,407.3 
		165.5,407.3 165.5,407.4 165.5,407.4 165.5,407.7 165.6,407.7 165.6,407.9 165.7,407.9 165.7,408 165.8,408 165.8,408.1 166,408.1 
		166,408.6 165.8,408.6 165.8,408.7 165.5,408.7 165.5,408.6 165.4,408.6 165.4,408.5 165.2,408.5 165.2,408.4 165.1,408.4 
		165.1,408.5 164.9,408.5 164.9,408.6 164.8,408.6 164.8,408.7 164.7,408.7 164.7,408.9 164.6,408.9 164.6,409.1 164.6,409.1 
		164.6,409.2 164.5,409.2 164.5,409.3 164.4,409.3 164.4,409.9 164.5,409.9 164.5,410.2 164.6,410.2 164.6,410.4 164.5,410.4 
		164.5,410.7 164.4,410.7 164.4,410.9 164.3,410.9 164.3,411 164.1,411 164.1,411.1 163.8,411.1 163.8,411.4 163.7,411.4 
		163.7,411.5 163.7,411.5 163.7,411.9 163.6,411.9 163.6,412 163.5,412 163.5,412.6 163.7,412.6 163.7,412.7 163.8,412.7 
		163.8,412.8 164,412.8 164,413.7 163.9,413.7 163.9,413.8 163.7,413.8 163.7,413.9 163.5,413.9 163.5,414 163.3,414 163.3,414.1 
		163.2,414.1 163.2,414.3 163.1,414.3 163.1,414.4 163,414.4 163,414.5 163,414.5 162.8,414.5 162.8,414.6 162.6,414.6 162.6,414.7 
		162.5,414.7 162.5,414.9 162.4,414.9 162.4,415 162.3,415 162.3,415.1 162.2,415.1 162.2,415.2 162.1,415.2 162.1,415.3 162,415.3 
		162,415.4 161.9,415.4 161.9,415.7 161.9,415.7 161.9,416 161.8,416 161.8,416.2 161.7,416.2 161.7,416.4 161.8,416.4 161.8,416.5 
		162,416.5 162,416.6 162.2,416.6 162.2,416.9 162.8,416.9 162.8,417 162.9,417 162.9,417.1 163,417.1 163,417.4 163.1,417.4 
		163.1,417.6 163.2,417.6 163.2,418.1 162.8,418.1 162.8,417.8 162.6,417.8 162.6,417.7 162.3,417.7 162.3,417.8 162.1,417.8 
		162.1,418 161.9,418 161.9,418.2 162,418.2 162,418.3 162.3,418.3 162.3,418.4 162.4,418.4 162.4,418.6 162.5,418.6 162.5,418.8 
		162.4,418.8 162.4,418.9 162.2,418.9 162.2,419 162,419 162,419.2 161.9,419.2 161.9,419.3 161.7,419.3 161.7,419.4 161.6,419.4 
		161.6,419.5 161.5,419.5 161.5,419.6 161.4,419.6 161.4,419.8 161.3,419.8 161.3,420 161.4,420 161.4,420.2 161.5,420.2 
		161.5,420.4 161.6,420.4 161.6,420.6 161.7,420.6 161.7,420.7 161,420.7 161,420.8 160.7,420.8 160.7,421 160.4,421 160.4,421.1 
		160.2,421.1 160.2,421.2 159.9,421.2 159.9,421.3 159.8,421.3 159.8,421.7 159.1,421.7 159.1,421.7 159.1,421.8 159,421.8 
		158.9,421.8 158.9,421.9 158.9,422 158.8,422 158.6,422 158.6,422.2 158.4,422.2 158.4,422.3 158.4,422.3 158.4,422.4 158.4,422.5 
		158.3,422.5 158.3,422.6 158.3,422.8 158.2,422.8 158.2,422.9 158.1,422.9 158.1,423.1 158,423.1 158,423.3 158,423.7 158.1,423.7 
		158.1,423.8 158.3,423.8 158.3,424 158.8,424 158.8,424.1 159,424.1 159.3,424.1 159.3,424 159.9,424 159.9,424.1 160.1,424.1 
		160.1,424.3 160.2,424.3 160.2,424.6 160.5,424.6 160.5,424.6 160.5,424.7 160.7,424.7 160.7,424.8 160.8,424.8 160.8,424.9 
		161,424.9 161,425 161.8,425 161.8,424.9 161.9,424.9 162,424.9 162,424.8 162.1,424.8 162.1,424.6 162.2,424.6 162.2,424.3 
		162.1,424.3 162.1,424.2 162,424.2 161.6,424.2 161.6,424.1 161.4,424.1 161.4,424 161.2,424 161.2,423.8 161.1,423.8 161.1,423.6 
		161.9,423.6 161.9,423.5 161.9,423.5 161.9,423.6 162.3,423.6 162.3,423.5 162.4,423.5 162.4,423.4 162.5,423.4 162.5,423.2 
		162.6,423.2 162.6,423.1 162.7,423.1 162.7,423 162.8,423 162.8,422.9 162.9,422.9 162.9,422.8 163.2,422.8 163.2,422.6 
		163.3,422.6 163.3,422.5 163.7,422.5 163.7,422.8 163.7,422.8 163.7,422.9 163.7,422.9 163.7,423 163.6,423 163.6,423.1 
		163.5,423.1 163.5,423.3 163.5,423.4 163.4,423.4 163.4,423.6 163.3,423.6 163.3,424 163.4,424 163.4,424.1 163.5,424.1 
		163.5,424.2 163.6,424.2 163.6,424.3 164.5,424.3 164.5,424.4 164.7,424.4 164.7,424.3 165.1,424.3 165.1,424.2 165.4,424.2 
		165.4,424.1 165.6,424.1 165.6,424 165.7,424 165.7,423.8 166,423.8 166,423.7 166.4,423.7 167,423.7 167,423.6 167.1,423.6 
		167.1,423.5 167.3,423.5 167.3,423.4 167.5,423.4 167.5,424 167.4,424 167.4,424.2 167.3,424.2 167.3,424.3 167.3,424.3 
		167.3,424.4 167.1,424.4 167.1,424.6 166.8,424.6 166.8,424.7 166.6,424.7 166.6,424.8 166.5,424.8 166.5,424.9 166.4,424.9 
		166.4,425 166.4,425 166.4,425.2 166.3,425.2 166.3,425.3 166.1,425.3 166,425.3 166,425.4 165.8,425.4 165.8,425.5 165.3,425.5 
		165.3,425.6 165.2,425.6 165.2,425.8 165,425.8 165,425.9 164.9,425.9 164.9,426 164.8,426 164.8,426.1 164.7,426.1 164.7,426.5 
		164.8,426.5 164.8,426.6 164.9,426.6 164.9,426.7 164.9,426.7 165,426.7 165.1,426.7 165.1,426.8 165.1,426.8 165.2,426.8 
		165.2,427 165.3,427 165.3,427.1 165.5,427.1 165.5,427.2 165.5,427.2 165.5,427.3 166.4,427.3 166.4,427.4 166.7,427.4 
		166.7,427.6 167.2,427.6 167.2,427.5 167.2,427.4 167.4,427.4 167.4,427.3 167.6,427.3 167.6,427.2 168.1,427.2 168.1,427.1 
		168.3,427.1 168.3,427 168.5,427 168.5,426.8 168.7,426.8 168.7,426.7 169.2,426.7 169.2,426.6 169.3,426.6 169.3,426.5 
		169.5,426.5 169.5,426.4 169.7,426.4 169.7,426.2 169.9,426.2 169.9,426.1 170.1,426.1 170.1,426 170.3,426 170.3,425.9 
		170.4,425.9 170.4,425.8 170.6,425.8 170.6,425.6 170.8,425.6 170.8,425.5 170.9,425.5 170.9,425.4 171.6,425.4 171.6,425.6 
		171.5,425.6 171.5,425.8 171.4,425.8 171.4,425.9 171.3,425.9 171.3,426 171.1,426 171.1,426.2 171,426.2 171,426.5 170.9,426.5 
		170.9,426.6 170.8,426.6 170.8,426.7 170.8,427.1 170.9,427.1 170.9,427.7 170.8,427.7 170.8,427.8 170.8,427.8 170.8,427.9 
		170.6,427.9 170.6,428 170.4,428 170.4,428.1 170.4,428.1 170.3,428.1 170.3,428.5 170.4,428.5 170.4,428.6 171,428.6 171.5,428.6 
		171.5,428.7 172.4,428.7 172.4,428.9 172.6,428.9 172.6,429 172.5,429 172.5,429.1 172.4,429.1 172.4,429.2 172.3,429.2 
		172.3,429.3 172.2,429.3 172.2,429.5 172,429.5 172,429.6 171.9,429.6 171.9,430.1 172,430.1 172,430.3 172.1,430.3 172.1,430.4 
		172.1,430.4 172.5,430.4 172.5,430.5 172.6,430.5 172.6,430.4 172.8,430.4 172.8,430.5 172.8,430.5 173.2,430.5 173.2,430.7 
		173.8,430.6 173.8,430.5 174.3,430.5 174.3,430.7 174.4,430.7 174.4,430.7 174.4,430.8 174.6,430.8 174.6,430.9 175.2,430.9 
		175.2,430.9 175.2,430.8 175.3,430.8 175.3,430.7 175.6,430.7 175.6,430.8 175.9,430.8 175.9,430.9 176.2,430.9 176.2,431 
		176.3,431 176.5,431 176.5,431.1 176.8,431.1 176.8,431.3 177.6,431.3 177.6,431.1 177.9,431.1 177.9,431.3 178,431.3 178,431.4 
		178.1,431.4 178.1,431.5 178.3,431.5 178.3,431.4 178.4,431.4 178.4,431.3 178.9,431.3 178.9,431.1 179.1,431.1 179.1,431 
		179.4,431 179.4,430.9 179.6,430.9 179.6,430.8 180,430.8 180,430.9 180.4,430.9 180.4,431 180.7,431 180.7,430.9 180.8,430.9 
		180.8,430.8 180.9,430.8 180.9,430.7 181,430.7 181,430.5 181.1,430.5 181.1,430.4 181.2,430.4 181.2,429.9 181.1,429.9 
		181.1,429.8 181,429.8 181,428.5 181.1,428.5 181.1,428.4 181.2,428.4 181.2,428.3 181.3,428.3 181.3,428.1 181.5,428.1 181.5,428 
		182.2,428 182.2,428.1 182.3,428.1 182.3,428.3 182.4,428.3 182.4,428.4 182.6,428.4 182.6,428.3 182.8,428.3 182.8,428.1 
		182.9,428.1 182.9,428 183,428 183,427.9 182.9,427.9 182.9,427.5 182.9,427.4 183,427.4 183,427.3 183.1,427.3 183.1,427.2 
		183.2,427.2 183.2,427.1 183.2,427.1 183.2,427 183.3,427 183.3,426.8 183.8,426.8 184,426.8 184,426.7 184.1,426.7 184.1,426.6 
		184.3,426.6 184.3,426.5 184.5,426.5 184.5,426.4 184.6,426.4 184.6,426.2 184.7,426.2 184.7,426.1 184.9,426.1 184.9,426 
		185.1,426 185.1,425.9 185.2,425.9 185.2,425.8 185.3,425.8 185.3,425.6 185.4,425.6 185.4,425.5 185.5,425.5 185.5,425.4 
		185.4,425.4 185.4,425.2 185.3,425.1 185.3,425 185.2,425 185.2,424.7 185.3,424.7 185.3,424.6 185.2,424.6 185.2,424 185.3,424 
		185.3,423.8 185.4,423.8 185.4,423.7 185.5,423.7 185.5,423.6 185.6,423.6 185.6,423.5 185.8,423.5 185.8,423.4 185.9,423.4 
		185.9,423.2 186,423.2 186,423.1 186.3,423.1 186.3,423 186.6,423 186.6,422.9 187.4,422.9 187.4,422.8 188.4,422.8 188.4,422.6 
		189,422.6 189,422.8 189.1,422.8 189.1,422.9 189.2,422.9 189.2,423 189.3,423 189.3,423.3 189.3,423.6 189.4,423.6 189.4,423.8 
		189.4,423.8 189.4,424 189.7,424 189.7,424.1 190,424.1 190,424.3 190.1,424.3 190.1,424.6 190.3,424.6 190.3,424.7 190.7,424.7 
		190.7,424.8 191.1,424.8 191.1,424.9 191.2,424.9 191.2,425.2 191.3,425.2 191.3,425.3 191.4,425.3 191.4,425.4 191.5,425.4 
		191.5,425.5 191.7,425.5 191.7,425.6 191.9,425.6 191.9,425.5 192.1,425.5 192.1,425.4 192.2,425.4 192.2,425.3 192.3,425.3 
		192.3,425.2 192.6,425.1 192.6,425 192.9,425 192.9,424.9 192.9,424.9 192.9,424.7 193,424.7 193,424.6 193.3,424.6 193.3,424.7 
		193.5,424.7 193.5,424.8 193.8,424.8 193.8,424.7 194.1,424.7 194.1,424.6 194.2,424.6 194.2,424.4 194.5,424.4 194.5,424.3 
		194.7,424.3 194.7,424.2 194.7,424.2 194.7,424.1 195.6,424.1 195.6,424.2 195.8,424.2 195.8,424.3 195.7,424.3 195.7,424.4 
		195.6,424.4 195.6,424.6 195.2,424.6 195.2,424.7 195.1,424.7 195.1,424.8 195.1,424.9 195,424.9 195,425.2 195.3,425.2 
		195.3,425.3 195.4,425.3 195.4,425.5 194.9,425.5 194.9,425.6 194.8,425.6 194.8,426 194.9,426 194.9,426.1 195,426.1 195,426.2 
		195.1,426.2 195.1,426.4 195,426.4 195,426.5 195.1,426.5 195.1,426.6 195.2,426.6 195.2,426.7 195.3,426.7 195.3,426.8 
		195.6,426.8 195.7,426.8 195.7,427 195.8,427 195.8,427.1 195.9,427.1 195.9,427.2 196,427.2 196,427.3 195.9,427.3 195.9,427.4 
		195.8,427.4 195.8,427.6 195.5,427.6 195.5,427.7 195.4,427.7 195.4,427.9 195.5,427.9 195.5,428 195.6,428 195.6,427.9 
		195.7,427.9 195.7,427.8 195.9,427.8 195.9,427.9 196.3,427.9 196.3,428 196.5,428 196.5,428.1 196.6,428.1 196.6,428.3 
		196.7,428.3 196.7,428.5 196.8,428.5 196.8,428.7 196.9,428.7 196.9,428.9 197,428.9 197,429 197.1,429 197.1,429.2 197.4,429.2 
		197.4,429.1 197.5,429.1 197.5,429 197.6,429 197.6,428.5 197.6,427.8 197.5,427.8 197.5,427.4 197.6,427.4 197.6,427.3 
		198.1,427.3 198.1,427.4 198.4,427.4 198.4,427.6 198.5,427.6 198.5,428 198.4,428 198.4,428.1 198.2,428.1 198.2,428.3 
		198.4,428.3 198.4,428.4 198.5,428.4 198.5,428.5 198.6,428.5 198.6,428.6 198.7,428.6 198.7,428.7 199.2,428.7 199.2,428.6 
		199.3,428.6 199.3,428.5 199.4,428.5 199.4,428.3 199.5,428.3 199.5,428 199.7,428 199.7,428.1 199.8,428.1 199.8,428.6 
		199.9,428.6 199.9,428.7 200.3,428.7 200.3,428.9 200.5,428.9 200.5,429 200.6,429 200.6,429.1 201.2,429.1 201.2,429 201.4,429 
		201.4,428.9 201.6,428.9 201.6,428.6 202.6,428.6 202.6,428.5 202.9,428.5 202.9,428.4 203,428.4 203,428.3 203.1,428.3 203.1,428 
		203.2,428 203.2,427.8 203.4,427.8 203.4,427.7 203.5,427.7 203.5,427.8 203.8,427.8 203.8,427.7 203.9,427.7 203.9,427.3 
		203.8,427.3 203.8,427.2 203.6,427.2 203.6,427 203.7,427 203.7,426.8 203.8,426.8 203.8,426.6 203.9,426.6 203.9,426.4 204,426.4 
		204,425.8 203.8,425.8 203.8,425.6 203.7,425.6 203.7,425.5 203.8,425.5 203.8,425.4 203.7,425.4 203.7,425.2 203.2,425.2 
		203.2,424.6 203.3,424.6 203.3,424.3 203.2,424.3 203.2,424.2 202.9,424.2 202.9,424.4 202.8,424.4 202.7,424.4 202.7,424.3 
		202.7,424.3 202.7,424.2 202.6,424.2 202.6,424.2 202.6,424.1 202.6,424 202.8,424 202.8,423.8 202.9,423.8 202.9,423.6 203,423.6 
		203,423.1 202.9,423.1 202.9,423 202,423 201.9,423 201.9,423.1 201.8,423.1 201.7,423.1 201.6,423.1 201.6,423 201.5,423 
		201.5,422.9 201.1,422.9 201.1,422.8 201,422.8 201,422.6 200.9,422.6 200.9,422.4 200.8,422.4 200.8,422 200.8,421.7 200.7,421.7 
		200.7,421.6 200.6,421.6 200.6,421.3 200.5,421.3 200.5,421.2 200.2,421.2 200.2,421.1 200.1,421.1 200.1,421 200,421 200,421 
		200,420.8 199.7,420.8 199.7,420.6 199.6,420.6 199.6,420.2 199.7,420.2 199.7,420 199.8,420 199.8,418.8 199.9,418.8 199.9,418.6 
		199.8,418.6 199.8,418.3 199.9,418.3 199.9,418.1 199.9,417.6 199.8,417.6 199.8,417.5 200,417.5 200,417.4 200.1,417.4 200.1,417 
		200.2,417 200.2,416.9 200.1,416.9 200.1,416.8 200.2,416.8 200.2,416.4 200.3,416.4 200.3,416.3 200.4,416.3 200.4,416.2 
		200.5,416.2 200.5,416 200.7,416 200.7,416.2 200.8,416.2 200.8,416.3 200.9,416.3 200.9,416.4 200.9,416.4 200.9,416.5 
		201.1,416.5 201.1,416.6 201.4,416.6 201.4,416.5 201.6,416.5 201.6,416.4 202.1,416.4 202.1,416.3 202.6,416.3 202.8,416.3 
		202.8,416.2 202.9,416.2 202.9,416 203.1,416 203.1,415.9 203.2,415.9 203.2,415.8 203.1,415.8 203.1,415.6 203.2,415.6 
		203.2,415.3 203.3,415.3 203.3,415.1 203.2,415.1 203.1,415.1 203.1,415 202.8,415 202.8,414.9 202.7,414.9 202.7,414.6 
		202.6,414.6 202.6,414.5 202.5,414.5 202.5,414.4 202.4,414.4 202.4,414 202.3,414 202.3,413.4 202.4,413.4 202.4,413.3 
		202.5,413.3 202.5,413.2 202.6,413.2 202.6,413.1 203.5,413.1 203.5,413.2 203.5,413.2 203.5,413.3 203.6,413.3 203.6,413.5 
		203.7,413.5 203.7,413.7 203.8,413.7 203.8,413.8 203.8,413.9 203.9,413.9 203.9,414 204,414 204,414.1 204.2,414.1 204.2,414.3 
		204.3,414.3 204.4,414.3 204.4,414.3 204.4,414.4 204.4,414.4 204.4,414.5 204.6,414.5 204.6,414.5 204.6,414.5 204.6,414.6 
		204.7,414.6 205.3,414.6 205.3,414.7 205.4,414.7 205.4,414.9 205.5,414.9 205.5,415 205.4,415 205.4,415.1 205.3,415.1 
		205.3,415.2 205.3,415.2 205.3,415.4 204.4,415.4 204.4,415.3 204.2,415.3 204.2,415.6 204.3,415.6 204.3,415.7 204.6,415.7 
		204.6,415.8 204.7,415.8 204.7,415.9 205,415.9 205,416.3 205.2,416.3 205.2,416.4 205.4,416.4 205.4,416.5 205.9,416.5 
		205.9,416.4 206,416.4 206,416.2 205.9,416.2 205.9,415.8 205.8,415.8 205.8,415.7 205.9,415.7 205.9,415.4 206,415.4 206,415.3 
		206.1,415.3 206.1,415.2 206.5,415.2 206.5,415.3 206.6,415.3 206.6,415.4 206.7,415.4 206.7,415.6 206.8,415.6 206.8,416 
		206.4,416 206.4,416.2 206.4,416.3 206.3,416.3 206.3,416.6 206.4,416.6 206.4,416.8 206.5,416.8 206.5,416.9 206.6,416.9 
		206.6,416.9 206.6,417 206.8,417 206.8,417.1 207.2,417.1 207.2,417.2 207.4,417.2 207.4,417.1 207.9,417.1 207.9,417.2 
		208.3,417.2 208.3,417.1 208.5,417.1 208.5,417 208.9,417 208.9,416.9 209.1,416.9 209.1,416.8 209.2,416.8 209.2,416.6 
		209.4,416.6 209.4,416.5 209.6,416.5 209.6,416.6 209.7,416.6 209.7,416.5 209.7,416.4 209.9,416.4 209.9,416.5 209.9,416.5 
		210.4,416.5 210.4,416.6 210.6,416.6 210.6,416.5 210.7,416.5 210.7,416.5 210.7,416.4 210.8,416.4 210.8,416.3 210.9,416.3 
		210.9,416.2 211,416.2 211,416 211.1,416 211.1,415.9 211.2,415.9 211.2,415.8 211.3,415.8 211.3,415.7 211.5,415.7 211.5,415.6 
		212,415.6 212,415.7 212.3,415.7 212.3,415.8 212.4,415.8 212.4,415.7 212.6,415.7 212.6,415.2 212.5,415.2 212.5,415.1 
		212.4,415.1 212.4,414.9 212.4,414.9 212.4,414.4 212.4,414.4 212.4,414.3 212.5,414.3 212.5,414 212.6,414 212.6,413.9 
		212.7,413.9 212.7,413.8 212.8,413.8 212.8,413.7 212.9,413.7 212.9,413.3 213,413.3 213,412.9 213.1,412.9 213.1,412.8 
		213.2,412.8 213.2,412.7 213.3,412.7 213.3,412.6 213.3,412.6 213.3,412.5 213.4,412.5 213.4,412.3 213.5,412.3 213.5,412.1 
		213.7,412.1 213.7,412 213.9,412 213.9,411.9 214.1,411.9 214.1,411.7 214.2,411.7 214.2,410.8 214.3,410.8 214.3,410.7 
		214.2,410.7 214.2,410.1 214.2,410.1 214.2,409.9 214.1,409.9 214.1,409.7 213.9,409.7 213.9,409.6 213.8,409.6 213.8,409.5 
		213.8,409.1 213.7,409.1 213.7,408.4 213.8,408.4 213.8,408.1 213.9,408.1 213.9,408 214,408 214,407.8 214.1,407.8 214.1,407.5 
		214.2,407.5 214.2,407.1 214.2,407.1 214.2,406.7 214.3,406.7 214.3,406.5 214.4,406.5 214.4,406.2 214.6,406.2 214.6,406 
		214.7,406 214.7,405.9 214.8,405.9 214.8,405.7 214.8,405.6 214.9,405.6 214.9,405.5 215,405.5 215,405.4 215,405.4 215,405.2 
		215,404.9 215.1,404.9 215.1,404.5 215.2,404.5 215.2,404.3 215.2,404.1 215.3,404.1 215.3,404 215.5,404 215.5,403.8 215.6,403.8 
		215.6,403.7 215.8,403.7 215.8,403.6 216,403.6 216,403.5 216.2,403.5 216.2,403.4 216.8,403.3 216.8,403.2 216.8,403.2 
		216.8,403.1 217,403.1 217,403 217.1,403 217.1,402.9 217,402.9 217,402.4 217.3,402.4 217.3,402.2 217.4,402.2 217.4,402 
		217.5,402 217.5,401.9 217.6,401.9 217.6,401.8 217.7,401.8 217.7,401.7 217.9,401.7 217.9,401.6 218,401.6 218,401.4 218.1,401.4 
		218.1,401.3 218.2,401.3 218.2,401.2 218.5,401.2 218.5,401.1 219,401.1 219,401 219.5,401 219.5,400.8 219.7,400.8 219.7,400.7 
		219.9,400.7 220,400.7 220,400.6 220.1,400.6 220.2,400.6 220.2,400.5 220.2,400.5 220.2,400.5 220.4,400.5 220.4,400.4 
		220.4,400.4 220.5,400.4 220.5,400.2 220.7,400.2 220.7,400.1 220.9,400.1 220.9,400 221,400 221,399.9 221.2,399.9 221.2,399.8 
		221.3,399.8 221.3,399.6 221.5,399.6 221.5,399.5 221.7,399.5 221.7,399.4 221.8,399.4 221.8,399.3 222,399.3 222,399.2 
		222.1,399.2 222.1,399 222.6,399 222.6,399.1 222.6,399.2 223.1,399.2 223.1,399.3 223.2,399.3 223.2,399.5 223.4,399.5 
		223.4,399.6 223.5,399.6 223.9,399.6 223.9,399.9 224,399.9 224,399.8 224.2,399.8 224.2,399.6 224.3,399.6 224.3,399.5 
		224.4,399.5 224.4,399.4 224.5,399.4 224.5,399.3 224.7,399.3 224.7,399.2 224.8,399.2 224.8,399 224.8,399 224.8,398.9 
		224.9,398.9 224.9,398.8 225,398.8 225,398.7 225.1,398.7 225.1,398.6 225.3,398.6 225.3,398.4 225.4,398.4 225.4,398.4 
		225.4,398.3 225.5,398.3 225.5,398.2 225.7,398.2 225.7,398.1 226,398.1 226,398.1 226,398 226.2,398 226.5,398 226.5,397.8 
		226.9,397.8 226.9,397.7 228,397.7 228,397.6 228.2,397.6 228.2,397.5 228.3,397.5 228.3,397.4 228.8,397.4 228.8,397.2 
		228.9,397.2 228.9,397.1 229.3,397.1 229.3,397.1 229.3,397 229.4,397 229.4,396.9 229.6,396.9 230.2,396.9 230.2,397 230.7,395.6 
		230.7,394.1 231.2,392.2 233.3,387.6 235,383.4 237,379.5 237.8,377.5 238.4,374 238.5,370.7 239,363 239.4,360.6 240,358.2 
		240.9,356.2 242.9,352.4 244.6,348.1 247.7,342.3 249.5,338 251.2,335.2 254.2,331.8 256.7,329.7 258.7,328.7 259.8,328.5 
		260.9,328.4 262.1,328.5 263.2,328.8 264.2,329.2 265.9,330.4 270.8,334.8 272.6,336.1 274.5,337.2 278.5,339.2 283.1,341.9 
		286.2,343.3 288.2,344.3 295.8,349.9 299.6,351.1 306.7,353.8 312.2,357 316.4,358.8 320.1,360.9 322,361.9 324.2,362.5 326.4,363 
		330.8,364.1 335.6,366.4 337.7,367.2 343.2,368.5 345.4,369.2 350.1,371.5 352.3,372.2 356,372.8 364.8,373.3 368.5,373.8 
		370.7,374.6 375.4,377 382.3,379.2 389.8,378.3 398.4,378.1 421.4,378.2 427.9,377.9 430.4,377.6 432.8,377 438.6,374.3 
		442.3,373.5 447.4,373.2 460.6,373.2 463.2,373.1 465.7,372.6 468,371.6 470,370.3 472.7,367.8 475,364.9 476.7,361.7 478.9,355.4 
		480,351.3 485.3,343.6 488.1,337.4 489.4,335.5 490.8,333.8 493.3,331.5 496,329.5 498,328.7 501.4,328 503.6,327.5 505.7,326.8 
		510.4,324.3 512.5,323.5 514.7,323.2 517.1,323.2 519.3,323.6 520.4,324 521.4,324.4 523.3,325.7 528.3,330 530,331.4 531.9,332.4 
		535,333.9 537.8,336 542.3,340.2 555.2,353.7 558,356 559.9,357.4 564,359.2 568.6,361.8 569.6,362.3 571.9,362.9 574.2,363.1 
		577.8,363.3 581.3,363.1 586.6,362.7 594.2,363.5 596.7,364 599.2,364.9 602.6,366.6 604.8,367.5 614.9,370.3 612.3,363.6 
		609.1,357.8 607.1,353.6 605.8,351.6 601.4,345.8 600.2,343.8 599.6,341.6 599.5,339.4 599.9,337.5 600.7,335.2 600.7,333.6 
		600.3,332.5 599.7,331.8 597.6,330 605.1,321.2 609.5,316.7 612.4,314.5 613.5,314 615.8,313.3 618.1,313 620.5,312.9 625,313.5 
		627.2,314.1 633,316.8 635.4,317.5 638,317.9 641.9,318.1 648.6,318.2 653.9,318 659,317.5 662.1,313.4 664.3,311 666,309.6 
		667,309 671,307.1 673.8,305.1 677.3,301.9 685.8,293.3 688.5,290.9 691.3,289 694.6,287.5 696.3,286.6 698.8,284.6 701.1,282.3 
		702.9,279.8 703.6,278 704,275.7 	"/>
	<polygon class="st0" points="101.2,278.4 101.3,278.4 101.3,278.5 101.9,278.5 101.9,278.3 102,278.3 102,277.6 101.8,277.6 
		101.8,277.7 101.1,277.7 101.1,278.2 101.2,278.2 	"/>
	<polygon class="st0" points="98,294.5 97.8,294.5 97.8,294.6 97.4,294.6 97.4,294.7 97.3,294.7 97.3,294.8 97.1,294.8 97.1,294.9 
		96.6,294.9 96.6,295.1 96.4,295.1 96.4,295.2 96.4,295.2 96.4,295.3 96.3,295.3 96.3,295.5 96.2,295.5 96.2,295.7 96.1,295.7 
		96.1,295.8 96,295.8 96,296.3 96.1,296.3 96.3,296.3 96.3,296.4 96.4,296.4 96.4,296.5 96.5,296.5 96.5,296.6 96.8,296.6 
		96.8,296.5 97,296.5 97,296.4 97.2,296.4 97.2,296.3 97.5,296.3 97.5,296.1 97.6,296.1 97.6,295.9 97.7,295.9 97.7,295.7 
		97.8,295.7 97.8,295.5 97.9,295.5 97.9,295.4 98,295.4 98,295.3 98.1,295.3 98.1,294.6 98,294.6 	"/>
	<polygon class="st0" points="100.3,295.1 100.3,294.9 100.6,294.9 100.6,294.8 100.8,294.8 100.8,294.7 100.9,294.7 100.9,294.6 
		101,294.6 101,294.5 101.1,294.5 101.1,294 101,294 101,293.9 100.9,293.9 100.9,293.7 100.4,293.7 100.4,293.9 100.3,293.9 
		100.3,294 100.1,294 100.1,294.1 99.3,294.1 99.3,294.2 99.2,294.2 99.2,294.3 99.1,294.3 99.1,294.5 99.1,294.5 99.1,294.8 
		99.1,294.8 99.1,294.9 99.2,294.9 99.2,295.1 	"/>
	<polygon class="st0" points="154.7,333.3 154.7,333.4 154.6,333.4 154.6,333.6 154.5,333.6 154.5,333.7 154.4,333.7 154.4,334.1 
		154.4,334.2 154.5,334.2 154.5,334.5 154.6,334.5 154.6,334.6 154.8,334.6 154.8,334.7 155,334.7 155,334.6 155.1,334.6 
		155.1,334.6 155.1,334.5 155.2,334.5 155.2,334.2 155.1,334.2 155.1,334 155,334 155,333.7 154.9,333.7 154.9,333.5 154.9,333.5 
		154.9,333.3 	"/>
	<polygon class="st0" points="147.8,323.2 147.8,323.1 147.8,323.1 147.8,322.7 147.8,322.7 147.8,322.6 147.6,322.6 147.6,322.5 
		147.1,322.5 147.1,322.4 146.9,322.4 146.9,322.2 146.9,322.2 146.9,322.1 146.8,322.1 146.8,321.8 146.9,321.8 146.9,321.6 
		146.9,321.6 146.9,321.4 146.8,321.4 146.8,321.3 146.3,321.3 146.3,321.1 146.2,321.1 146.2,320.9 146.1,320.9 146.1,320.6 
		146,320.6 146,320.2 146,320.2 146,320.1 145.8,320.1 145.8,320 145.6,320 145.6,319.9 145.5,319.9 145.5,319 145.2,319 145.1,319 
		145.1,319.1 145.1,319.1 145.1,319 145,319 145,318.9 144.9,318.9 144.9,318.8 144.8,318.8 144.8,318.7 144.7,318.7 144.7,318.4 
		144.6,318.4 144.6,318.3 144.5,318.3 144.5,318.2 144.4,318.2 144.4,318.1 144.3,318.1 144.3,317.9 144.2,317.9 144.2,317.8 
		144.2,317.8 144.2,317.7 144.1,317.7 144.1,317.5 144,317.5 144,317.3 143.9,317.3 143.9,317.2 143.8,317.2 143.8,317.1 
		143.7,317.1 143.7,317 143.6,317 143.6,316.9 143.5,316.9 143.5,316.6 143.4,316.6 143.4,316.5 143.4,316.5 143.4,316.4 
		143.3,316.4 143.3,316.1 143.2,316.1 143.2,315.9 143.1,315.9 143.1,315.3 143,315.3 142.6,315.3 142.6,315.2 142.5,315.2 
		142.5,315.1 142.4,315.1 142.4,314.9 142.3,314.9 142.3,314.8 142.1,314.8 142.1,314.6 142,314.6 142,314.3 141.9,314.3 141.9,314 
		141.8,314 141.8,313.7 141.9,313.7 141.9,313.3 141.7,313.3 141.7,313.1 141.6,313.1 141.6,313 141.6,313 141.6,311.8 141.5,311.8 
		141.5,311.6 141,311.6 141,311.7 140.9,311.7 140.9,311.8 140.8,311.8 140.8,311.9 140.7,311.9 140.7,312.1 140.7,312.1 
		140.7,312.3 140.5,312.3 140.5,312.5 140.6,312.5 140.6,312.7 140.7,312.7 140.7,312.9 140.7,312.9 140.7,313.3 140.8,313.3 
		140.8,314 140.9,314 140.9,314.1 141,314.1 141,314.3 141.1,314.3 141.1,314.5 141.2,314.5 141.2,314.6 141.3,314.6 141.3,314.7 
		141.4,314.7 141.4,314.9 141.5,314.9 141.5,315.1 141.6,315.1 141.6,315.2 141.7,315.2 141.7,315.3 141.8,315.3 141.8,315.4 
		142,315.4 142,315.5 142.1,315.5 142.1,315.7 142.3,315.7 142.3,315.8 142.4,315.8 142.4,315.9 142.5,315.9 142.5,316 142.6,316 
		142.6,316.1 142.7,316.1 142.7,316.3 142.8,316.3 142.8,316.5 142.9,316.5 142.9,316.6 143,316.6 143,316.7 143.1,316.7 
		143.1,316.9 143.2,316.9 143.2,317 143.3,317 143.3,317.1 143.4,317.1 143.4,317.3 143.4,317.3 143.4,317.5 143.5,317.5 
		143.5,317.6 143.6,317.6 143.6,317.7 143.7,317.7 143.7,317.8 143.8,317.8 143.8,318.1 143.9,318.1 143.9,318.2 144,318.2 
		144,318.3 144.1,318.3 144.1,318.4 144.2,318.4 144.2,318.5 144.2,318.5 144.2,318.8 144.3,318.8 144.3,319 144.4,319 144.4,319.1 
		144.6,319.1 144.6,319.3 144.7,319.3 144.7,319.4 144.8,319.4 144.8,319.6 144.9,319.6 144.9,319.7 145,319.7 145,319.9 
		145.1,319.9 145.1,320 145.1,320 145.1,320.1 145.1,320.2 145.2,320.2 145.2,320.3 145.3,320.3 145.3,320.5 145.4,320.5 
		145.4,320.6 145.5,320.6 145.5,320.7 145.6,320.7 145.6,320.8 145.7,320.8 145.7,321.1 145.8,321.1 145.8,321.2 145.9,321.2 
		145.9,321.4 146,321.4 146,321.5 146.1,321.5 146.1,321.6 146.2,321.6 146.2,321.8 146.3,321.8 146.3,322 146.4,322 146.4,322.4 
		146.5,322.4 146.5,322.5 146.6,322.5 146.6,322.7 146.7,322.7 146.7,322.8 146.9,322.8 146.9,323 147.1,323 147.1,323.1 
		147.3,323.1 147.3,323.2 	"/>
</g>
</svg>
