<?xml version="1.0" encoding="utf-8"?>
<!-- Generator: Adobe Illustrator 24.2.3, SVG Export Plug-In . SVG Version: 6.00 Build 0)  -->
<svg version="1.1" id="Layer_1" xmlns="http://www.w3.org/2000/svg" xmlns:xlink="http://www.w3.org/1999/xlink" x="0px" y="0px"
	 viewBox="0 0 850 567" style="enable-background:new 0 0 850 567;" xml:space="preserve">
<style type="text/css">
	.st0{fill:#F2933D;stroke:#000000;stroke-width:0.4;stroke-miterlimit:9;}
</style>
<g>
	<polygon class="st0" points="205.6,418.6 205.3,418.3 204.6,418.5 204.6,419.3 205.5,419.4 	"/>
	<polygon class="st0" points="183.9,424.4 183.2,424.9 182.2,424.7 181.8,425.1 182.1,425.7 183.9,426.1 185.3,426.1 185,424.9 	"/>
	<polygon class="st0" points="185.1,429.2 186.8,429.4 187.8,428.9 187.8,428.5 187.2,427.2 186.3,426.5 185.4,426.6 184.3,428.1 
		184.3,428.9 	"/>
	<polygon class="st0" points="180.6,416.3 181.8,416.4 182.6,417.4 181.7,418.2 182.8,419.6 183.6,419 183.2,418.1 183.3,416.8 
		184.1,416.8 183.9,414.9 184,413.8 184.5,413.7 184.9,413 185.6,411.9 184.3,411.5 183.5,411.6 182.9,411.3 182.9,412.3 
		182.5,412.8 181.7,413 181.9,414.2 181.4,414.1 181.1,412.8 179.9,413.3 180.1,415.9 	"/>
	<polygon class="st0" points="202.4,426 203,426.5 203.9,426.8 205.2,426.4 205.3,424.9 204.9,424.7 203.1,425.5 	"/>
	<polygon class="st0" points="184.7,414.7 186.1,414.7 187,414.9 188.6,416.1 188.5,417.3 188.6,418.1 187.8,418.8 187.8,419.2 
		189.3,420.7 189.9,421.9 189.9,422.7 188.8,422.7 188.2,422.3 187,422.5 187.1,423.1 186.6,423.4 186.6,424 187.2,424 187.4,423.5 
		188.3,423.5 188.3,424.9 187.9,425.2 187.6,426.3 187.6,427.3 188.3,428.8 188.7,428.8 189.9,430.3 189.7,431.1 191.1,431.3 
		191.5,431.6 192.6,431.5 195.1,431.5 195.7,431.2 196.4,429.9 197.9,430.2 198.9,430.2 199.7,430.4 200.1,429.9 201.3,429.9 
		202.1,429.5 203.7,429.5 203.9,428.8 202.8,428.4 202.4,427.3 202.8,427.1 202.6,426.3 201,426.4 200.6,427.1 199.3,427.5 
		198.5,427.5 197.6,426.7 197.3,426 197.4,425.1 196.9,424.4 195.8,423.8 195.6,423.4 196.4,422.9 196.8,421.9 196.3,421.5 
		196.3,420.9 194.8,420.7 193.8,421 192.5,422.4 191.8,422.5 191.3,421.8 191.4,420.7 189.8,418.9 189.9,417.2 189.5,416.2 
		190.2,416 191.4,416.6 192.8,416.7 193.8,417.2 195.1,417.2 197.8,417.5 198.2,415.7 198.9,415.7 199.3,415.3 198.4,414.7 
		199.3,413.7 198.3,413.5 197.2,414.2 196.7,414.2 196.2,414.8 195.3,414.5 195,415 194.3,415 194.1,413.8 193.2,413.9 192.7,413.1 
		191.3,413.7 190.8,413.7 190.8,412.9 191.2,412 189.5,411.9 189,412.4 188.3,412.4 188,411.7 187.7,412.3 185.8,413 184.7,414.3 	
		"/>
	<polygon class="st0" points="172.2,429.6 171.5,430.2 170.6,429.7 170.7,431.1 170.4,431.6 171.5,432 172.4,432 173.2,431.4 
		172.6,429.9 	"/>
	<polygon class="st0" points="199.3,424 199.9,423.9 200.1,423.3 199.2,423.4 	"/>
	<polygon class="st0" points="220.6,416.6 220.2,416.3 219,417 218.4,417.7 219.2,417.9 220.4,417.4 	"/>
	<polygon class="st0" points="206.5,416.2 206.5,417.8 207.8,418.1 208,417.2 207.9,416.1 207.5,415.4 207.1,415.4 	"/>
	<polygon class="st0" points="179.8,415.7 179.2,414.7 178.4,415 178.6,416.7 179.6,416.2 	"/>
	<polygon class="st0" points="180.6,426.2 180.3,426 179.6,426.9 179.7,427.9 179.3,428.9 179.9,428.9 180.7,427.5 	"/>
	<polygon class="st0" points="208.3,408.7 208.5,407.8 208.1,408.2 207.3,408.3 207.2,409.1 207.8,409.1 	"/>
	<polygon class="st0" points="184.7,441.3 184.2,440.8 184.3,440 185.1,439.2 185.2,438.4 184.7,437.5 183.1,437.9 183.7,439.2 
		183.3,439.9 183.3,440.6 182.2,441.3 181.7,442.9 181.3,443 180.1,444 180.2,444.9 181.1,445.2 182.7,444.6 182.9,443.4 183.6,443 
		184.8,443.6 185.5,443 184.9,442.6 	"/>
	<polygon class="st0" points="493.6,116.1 493.9,115.5 493.7,114.7 493,114.4 492.7,115 491.9,114 491.6,114.3 491.1,115.5 
		492.4,116.1 	"/>
	<polygon class="st0" points="499.5,112.4 498.6,112.2 498.5,113.1 499.4,113.1 	"/>
	<polygon class="st0" points="497.2,117.2 497.2,116.3 496.9,116.1 496,117.2 496.8,117.4 	"/>
	<polygon class="st0" points="677.7,355.5 676.2,353.2 675.4,352.3 674.2,351.6 671.7,350.6 670.7,350 669.4,349 668.3,348.4 
		664.6,348.1 659.9,348 657.6,348.1 656.1,348.4 654.7,348.8 652.3,350 650.4,350.7 649,350.7 647,350.1 644.7,348.8 642.8,347.9 
		641.5,347.1 640.5,346.2 639.6,345.1 638.9,343.8 638.1,341.8 636.8,339.9 635.3,338.1 632.2,334.6 630.7,332.8 629.9,331.5 
		628.7,328.8 627.9,327.5 626.4,325.7 622.2,321 620.8,319.2 620.2,317.8 618.6,313.1 618.2,311.3 615.1,311.9 612.6,312.2 
		609.9,312.2 607.4,312.1 605.9,311.9 604.5,311.5 600.8,309.8 599.1,309.3 596.6,309 589.6,308.7 587,308.4 579.8,305.4 
		578.1,304.3 576.5,302.9 572.2,298.8 570.6,297.3 569.4,296.5 566.2,294.9 565,294.1 561.7,291.3 560.6,290.4 557.4,288.8 
		556.2,288 554.5,286.6 550.3,282.4 548.7,281 547.4,280.3 546.1,279.9 544.1,279.7 541.4,279.7 540.9,277.5 540.3,276 539.5,274.7 
		537,271.6 536.1,270.3 535.4,269 534.5,266.9 532.9,263.8 532.4,262.4 531.7,258.7 531.3,257.2 530.7,255.9 529.4,253.4 
		528.3,250.7 527,248.2 526.4,246.9 526,245.4 525.5,242.4 525.1,240.9 524.6,239.6 523.3,237.1 522.1,234.5 521.3,233.3 
		519.8,231.9 518.6,231.1 516,229.9 513.2,227.7 511.4,225.4 509.6,222.7 508.6,221.9 506.9,221.2 506.9,216.5 506.4,214 
		505.7,212.6 504.8,211.9 503.8,211.4 503.8,184.6 503.9,180.2 504,178.5 504.3,176.8 504.8,175.3 506.3,172.1 506.8,169.7 
		507,166.2 507,157.4 507.1,155.7 507.5,154 508.1,152.5 509,151.1 510,149.8 513.9,145.6 515,144.3 515.8,142.9 517.1,140.2 
		518,138.9 521.4,134.4 523.1,132 521.3,132.1 518,132.1 517.2,132 515.1,132.2 514.1,132.7 513,132.9 512.7,132.7 511.1,132.6 
		510.5,132.9 508.4,132.7 507.8,133.6 505.6,134.4 503.8,134.4 503.4,135.2 502.3,134.4 501.5,134.8 500.2,134.8 499.2,135.4 
		496.4,135.7 494.9,136.5 494.6,136.8 493.6,136.8 493.4,137.2 492.6,137.2 492.1,136.6 490.7,136.5 490,137 489.5,138 488.7,137.9 
		488.6,138.7 487.5,138.3 486.3,138.8 485.5,138.8 484.8,139.3 484,139.4 481.9,139.3 481.1,139.7 479.5,139.7 479.4,140.2 
		478.2,140.1 477.5,140.9 476.6,140.6 475.2,141 474.5,142.1 473.4,142.3 472.1,142.8 471.5,143.5 471.4,144.2 470,144.2 
		469.7,144.6 469,144.1 468.6,144.7 468,144.4 467.6,143.7 467,143.5 467,142.9 466.4,142.8 465.1,142.1 463.6,142.3 463.3,141.7 
		462.6,141.5 461.8,140.3 461.5,139.4 460.5,138.6 460.1,137.2 458.8,136.9 457.5,137.4 456.6,136.5 456.2,135.1 456.4,134.2 
		457,134.1 457.6,133.2 458.2,133.2 458.2,132 458.9,131 459.7,131.2 460.8,130.3 461.1,129.6 461.8,129.6 461.9,129 462.5,128.3 
		464,128.1 464.5,128.7 465.3,127.8 465.9,128 466.8,127.8 467.9,125.2 468.7,125.4 469.4,124.6 470.7,124.7 471.1,124.9 
		472.2,124.7 473.3,123.8 474,122.9 474.7,122.7 475.1,122.9 475.7,122.3 477.3,121 477.6,120.4 478.3,120.2 479.2,120.4 
		479.4,119.6 480.2,118.9 481.5,118.3 482.1,117.5 483,116.8 483,114.4 483.8,113.8 483.7,113 484,111.7 484.8,110.9 485.2,110.1 
		484.6,108.9 483.8,108.8 483.6,108.1 482.7,107.4 482.2,107.4 481.4,106.9 480.1,107.2 479.7,107 477.8,107 476.5,106.4 
		475.5,106.2 475.3,106.5 473,105.5 471.1,105.4 469.5,105 468.9,103.5 467.7,104.4 467,104 466.4,104 466.1,103.4 464.8,103.1 
		464.5,102.6 463.9,102.9 463.1,102.7 462.8,101.9 461.4,101.7 461.2,101.3 458,101.2 458,101.7 457.2,101.8 455.5,101.1 455.4,100 
		454.1,100.3 453.6,99.7 452.5,99.7 451.9,100.3 450.9,98.9 450.2,99.3 449.4,98.9 447.8,99.3 447.2,99.1 446.4,99.9 445.2,99.1 
		444.7,99.7 444.7,100.7 443.2,100.9 442.5,100.6 442.4,98.8 441.5,99.8 441.2,99.3 440.5,99.1 439.8,98.2 439.5,98.5 438.5,98.6 
		437.5,99.3 437.3,100 435.8,99.3 435,98.2 434.3,99.3 434.6,100.4 433.9,102 432.9,102 431.9,101.6 431.5,101 431.2,99.1 
		431.9,97.9 431.8,97 431.1,96.2 430.5,97.6 428.7,97.5 427.6,97.1 427.3,97.6 426.4,97.4 426.4,96.7 425,96.5 425.4,98 425.2,98.7 
		423.9,98.9 423.5,98.5 423,97.2 422.5,97.3 422.1,98.6 421.4,98.7 420.5,98.2 419.7,97.2 419,97.3 417.9,98.1 417.7,98.9 
		417.1,98.6 416.1,99.6 415.4,99.4 415.3,100.4 414.6,101.3 413.6,101.7 413.8,102.6 413.3,102.9 412.2,102.7 411.8,103.1 
		411.9,104.8 411.4,105.1 411.6,105.8 412.5,106.2 412.6,106.9 411.8,108 412.7,109 412.5,110.9 412.8,111.3 414.4,111.3 
		415.4,112.2 415.9,112.3 416.9,112.9 417.6,113.8 417.5,114.7 418.3,115 418.5,115.8 419,116 421,116.1 422.1,116.6 422.3,116.3 
		423.7,115.8 424.4,116.2 426.1,117.9 426.6,119 426.6,120 425.4,121 424.7,122.8 425.3,123.7 426.4,124 427.7,125 429.3,126.7 
		429.5,127.3 432,128.4 433.3,130 433.7,131 433.6,132.4 435,133.5 435.4,134.7 434.7,135.4 435.6,136.2 436.4,136.1 436.6,134.8 
		437.9,134.3 438.8,133.6 439.3,132.7 439.3,132.2 440,131.6 441.2,131.7 442.2,132 443.7,132.9 444.5,134.1 445.8,134.4 446.7,135 
		447.2,134.9 448.3,135.8 449.4,136.3 450.9,136.3 452,136.8 452.6,137.5 452.8,138.6 452.5,139.3 451.9,139.4 451.5,140 
		451.4,140.8 449.4,140.8 449.4,141.7 448.8,142.8 447.4,142.8 446.7,143.7 445.1,144.4 443.8,145.3 443.4,145.9 442.5,146.3 
		441.2,146.4 440.2,147.8 439,149.1 438.2,149.4 437.3,150.6 436.4,151.1 436.1,151.9 435.7,152 434.8,153 434.1,153 433.8,154.1 
		432.6,155.3 432.3,156 431.6,156 429.3,156.7 428.3,157.5 426.5,157.8 425.5,157.1 422.3,157 422,157.3 420.9,156.8 420,156.8 
		418.6,155.3 417.5,155.1 416.2,155.2 415.4,155.8 414.9,155.8 413.6,156.8 412.6,156.7 411.3,157.2 410.1,157.2 409.1,156.7 
		407.3,156.5 406.5,157.1 405.8,156.5 406.6,155.8 405.2,155.1 403.9,155.3 404.1,154.2 402,152.5 401.1,152 400.5,152.1 
		397.2,152.1 395.1,152.7 394.5,153.2 393.6,153.3 392.2,154.2 391.5,154.4 390.7,155.2 390.1,155.5 390.6,158.6 390.8,161.8 
		390.7,163.3 390.4,164.8 389.9,166.3 389.1,167.5 387.7,169.2 384.5,172.3 382.8,173.8 381,175 378.9,175.9 377.8,176.5 
		376.6,177.4 374.8,178.9 371.5,182.3 369,185.2 367.6,187.1 366.7,188.8 368.2,192 369.3,194.8 371.3,198.5 372.5,201.2 
		374.1,204.3 374.6,205.7 374.8,208 374.7,209.6 374.3,211.1 372.6,214.9 372.2,216.3 371.5,219.3 371.1,220.7 369.6,223.9 
		369.1,225.3 368.3,229 367.9,230.5 366.1,234.3 365.7,235.8 364.8,239.5 364.3,240.8 363.2,243.2 362.8,244.6 362.9,246 
		363.1,246.8 363.8,248 365.2,249.4 366.4,250 368.2,250.9 369.8,252.1 370.7,253.2 371.4,254.5 371.7,256.1 371.8,258.4 
		371.5,261.5 371.1,263 369.6,266.2 369.1,267.5 367.6,274.5 366.1,276.6 364.8,279.2 364.1,280.5 360.9,284.5 360.1,285.7 
		358.9,288.3 358.2,289.5 357.3,290.6 356.2,291.5 355,292.3 352.5,293.5 350.1,294.9 346.8,296.3 343.1,298.4 340.5,299.6 
		337.5,301.3 334.2,302.8 331.2,304.5 329.8,305.1 326.4,306.1 324,307.1 320.3,304.4 318.6,303.2 316.5,302.5 312.8,301.7 
		308.6,299.4 305.9,298.3 302.9,296.6 301.6,296.1 300.1,295.8 297.8,295.6 292.1,295.6 289.5,295.8 287.9,296.1 286.4,296.6 
		284,297.8 282.6,298.3 281,298.6 276.9,299.1 275.3,299.4 273.9,299.9 270.8,301.4 266.6,302.9 264.5,303.9 263.4,305 261.2,306.3 
		258.9,307.7 255.6,309.2 252.6,310.9 250,312.1 248.7,312.9 247.4,313.8 245.6,315.4 240.6,320.8 238.9,322.5 237.6,323.4 
		236.3,324.1 234.9,324.3 233.4,324.1 232.2,323.6 229.9,322.4 228.4,322 226.9,321.7 224.4,321.6 220.3,321.5 216.3,321.5 
		213.8,321.7 212.3,322 210.9,322.5 207.9,324.2 206,325.1 204.5,326.3 203.6,327.5 202.3,330.6 201.2,334.2 199.4,338.1 
		198.9,340.6 198.7,345.1 198.7,359.9 198.5,363.6 198.1,366.4 199.5,366.5 201.5,366.5 203.1,366.8 204,367.3 205.3,366.9 
		206.3,365.7 207.3,365.5 208.8,365.5 209.9,365.3 210.1,364.7 211.1,364.4 211.6,363.9 213.6,363.9 215.8,364.3 216.3,364.7 
		218.1,365 219.2,364.4 220.3,363.3 221,362.8 222.3,363 223.2,363.3 225.1,363.3 225.5,363.5 226.6,363.5 226.9,363.8 228.3,364.3 
		230.7,363.7 231.2,363.9 232.5,364.7 234.2,366.5 234.9,366.5 235.4,365.4 236.2,364.8 236.8,364.7 237.6,364.1 238.8,364.1 
		240,364.5 240.8,364.3 240.8,363.3 241.6,361.4 242.2,359.7 242.9,359 243.8,358.9 245.6,359.7 246.1,359.2 247.4,359.2 249,359.7 
		250.1,359.7 252.5,359.3 253.2,359.8 255.1,361.8 255.5,362.4 257.1,363.9 257.8,365 258.5,366.4 258.9,367.9 258.6,369.5 256,372 
		255.8,372.5 256.4,374.5 256.2,376 255.7,377.1 254.9,379.5 254.4,382.5 254.7,383.4 253.9,384.8 254.4,385.8 254.2,386.8 
		253.3,386.9 252.4,387.6 251.9,387.6 251.2,388.2 250.3,388.2 249.5,388.7 248.1,389.2 244.9,389.5 244.4,389.8 243.3,389.5 
		242.9,389.9 241.8,389.8 240.5,388.8 239,389 238.9,389.3 238.9,390.9 238,391.8 238.1,394 237.8,394.6 238.5,395.7 238.7,396.4 
		238.8,398.2 238.4,399.3 237.6,399.6 237,400.6 236.4,400.4 235.9,401 234.6,401 234.3,401.9 233.5,402.3 233.1,401.6 232,401.9 
		231.2,401.3 230.5,401.7 230.1,401.2 230,400.3 229.3,399.9 228.2,401.3 227.1,400.7 226.6,401.5 226.2,401.6 226,403.1 226.8,404 
		226.7,405 227.4,404.9 227.6,405.7 227.3,406.1 227.2,408.1 226.9,408.4 227.2,409.8 228.2,409.3 228.6,410.2 228.5,411.4 
		228,412.8 227.5,412.4 226.9,413.3 226.1,414 225.1,414.2 224.7,414.8 224.5,416.1 224.2,416.9 222.2,418.6 221.8,419.2 
		220.9,419.4 220.9,419.4 220.8,419.3 220.8,419.2 220.7,419.2 220.3,419.5 219.6,419.3 219.4,419.9 218.3,420.3 217,421.8 
		216.4,421.9 215.7,422.5 213.9,422.3 213.2,422.6 213.5,423.3 212.9,424.1 212.1,424.1 211.6,424.8 210.9,425 210.6,425.6 
		209.9,425.8 209.6,426.5 209,427 207.7,426.8 207.2,427.1 206.3,427.1 206.3,428.7 205.6,429.2 205.3,430 205.3,430.8 204.4,431.9 
		203.9,433.9 203.6,434.8 202.6,434.6 202.5,435.1 200.7,435 198.3,437.1 198.2,438.5 197.6,438.9 197.6,440.6 198.5,440.3 
		199.7,441.4 200.3,443.3 199.8,444.3 198.6,444.2 197,442.5 196.4,442.4 196.5,441.6 197.3,440.9 196.8,439.8 195.7,439 
		195.1,439.2 195,440.1 194.3,440.5 192.3,440.6 191.6,439.8 191.3,439.1 192.1,438.1 192.6,437.8 193.7,438.1 194.1,437.6 
		194.3,436.4 195.2,437.6 196.5,437.9 196.8,437.4 196.4,436.6 195.9,436.4 195.8,435.7 196.5,435 196.9,433.5 196.4,433.6 
		195.7,432.7 195.6,431.9 194.6,432.9 194,433 193.1,434.3 192.3,434.7 192,434.5 190.9,434.6 190.3,435.3 190.3,435.9 189.7,436.7 
		189.9,437.4 190.3,437.7 190.4,438.9 189.9,439.5 189.2,441.8 189.1,442.6 187.3,443.5 187.4,444.6 186.8,445 186.8,445.9 
		188.2,446.4 189.1,445.6 190.7,445.7 191,446.2 191.8,446.2 192.3,446.8 192.4,447.6 193.1,447.9 195.5,447.5 196.5,447.7 
		196.8,447.4 198.1,447.6 199.9,447.6 200.1,447.8 201.8,447.6 202.5,447.9 205.1,447.9 206.4,448.4 207.4,449.2 208.9,449.5 
		210.5,450.8 210.7,451.2 211.7,452.5 212,453.6 212.5,454.1 212.9,455.1 213.3,457.4 212.9,458.1 212.9,458.8 213.8,460.4 
		213.5,461.5 213.5,464.2 213.3,464.9 214,466.3 214.9,467 216.1,468.6 217.2,469.9 217.5,470.9 218.1,471.1 218.8,472.5 219.2,473 
		219.4,473.9 221.5,474.2 223.6,474.3 224.3,472.6 225.2,471.8 226.3,471.3 229.6,470.3 230.9,469.5 232.7,468.1 236.6,464.3 
		238.4,462.8 239.6,461.9 242.9,460.3 244,459.4 247.9,456.2 249.1,455.4 251.7,454.2 255.3,452.2 258,451 259.8,449.8 262.4,447.3 
		271.4,438 279.2,430 290.9,417.8 293.5,415.3 295.7,413.6 296.8,413 298.9,412.1 300.6,410.9 302.7,408.9 304.3,406.7 305.7,404.6 
		308,405.5 310.5,405.9 313.1,406.1 320,406.2 321.6,406.3 323.3,406.6 324.7,407.2 327.7,408.8 330.4,410 333.4,411.6 334.8,412.1 
		337.2,412.5 342.1,412.8 344.5,413.1 346,413.5 349.1,414.9 350.5,415.3 351.9,415.6 354,415.7 359.1,413.2 361.8,412.1 365.4,410 
		368.7,408.6 371.9,406.7 373.8,406.5 375.3,406.5 376.8,406.7 378.2,407.3 379.4,408.1 380.6,409.1 384.5,413 386.2,414.5 
		387.4,415.3 390.7,417.1 395.5,421 396.9,421.7 399.1,422.3 403.6,422.8 405,423.1 406.3,423.6 409.4,425.1 410.8,425.4 
		412.3,425.5 413.8,425.4 415.2,425.1 418.3,423.6 419.6,423.1 421.8,422.7 424.9,422.5 428,425.8 431.2,422.5 434.3,422.5 
		437.4,422.7 439.6,423.1 441,423.6 444,425 445.6,425.4 448.9,425.7 453.2,425.8 456.3,422.5 458.1,424.8 458.9,426.1 459.5,427.5 
		460.6,430.4 460,431.7 458.8,435.3 456.8,439 455.6,441.7 454.3,444.2 453.7,445.5 453.3,447 453.2,448.5 453.3,450.1 453.6,451.6 
		454.4,453.5 456.1,456.3 457,457.3 458.4,458 460.6,458.4 463.1,458.4 466.4,458.2 470.5,457.7 473.4,458.5 474.8,458.9 
		476.1,459.7 477.4,460.7 480.2,463.4 486.9,470.4 488.5,472.2 489.9,474.1 490.6,475.5 491.4,477.5 492.7,480 493.3,481.3 
		493.7,482.8 494.2,485.8 494.6,487.2 495.2,488.5 496.5,491 497.6,493.8 499.2,497 499.6,498.3 500.5,502.7 501.5,504.7 503,506.2 
		504.2,506.9 506.2,507.8 508.6,509.1 509.8,509.7 512.7,510.3 515,508.5 516.9,507.6 521.9,506.3 525,504.8 526.3,504.3 
		529.9,503.5 531.3,503.1 534.4,501.6 535.7,501.1 539.3,500.3 540.7,499.9 543.8,498.3 545.2,497.9 548.8,497.1 550.2,496.6 
		553.8,494.7 556.5,493.5 560.2,491.6 561.6,491.1 564.5,490.5 565.9,490.1 569,488.6 570.3,488.1 572.6,487.8 575.6,487.6 
		577.9,485.7 579.1,484.9 580.4,484.3 583.2,483.1 585.3,481.8 588,480.6 591.6,478.5 594.3,477.3 597.9,475.2 600.5,474 
		603.5,472.2 605.6,471.6 607.8,471.5 610,472 611.9,473 616.5,476.5 616.5,462.5 616.4,457 621.3,453.7 622.5,452.9 623.8,452.4 
		627.4,451.6 628.8,451.2 632.5,449.3 635.2,448.2 638.8,446.1 640.8,445.2 642.1,444.5 644,443 646.9,440.2 650.9,436 652.9,433.5 
		653.7,432.2 654.9,429.5 655.7,428.2 657.2,426.4 661.4,421.8 662.8,419.9 663.5,418.6 664.4,416.5 666,413.4 666.6,411.2 
		667.2,405.8 667.4,404.3 667.9,402.9 669.4,399.7 669.7,398.2 670,395.1 670.1,387.9 670.2,386.3 670.7,384 671.4,382.7 
		674.8,377.2 673.8,374.7 673.5,373.1 673.3,370.8 673.6,368.5 674.1,367.1 675.7,364 677,361.3 677.7,360 679.6,357.8 	"/>
	<polygon class="st0" points="433.6,138.9 434.1,138.2 434,137.6 432.9,137.9 432.2,138.3 432.5,139.3 	"/>
	<polygon class="st0" points="379.7,68.3 379.6,69.3 380.6,70.1 380.5,72 380.1,72.4 380.3,73.7 380,74.1 379.2,74.1 379.2,74.6 
		379.7,75.1 379.4,76.2 380.4,77.1 381.3,77 382.6,78 383.2,78 383.9,78.9 384.2,80.1 385.4,79.8 385.8,80.3 386.5,80.3 387.3,81.2 
		388,82.3 388.8,82.6 390.8,81.4 391.5,81.1 392.2,81.4 393,81.2 393.9,81.4 394.7,82.2 395.5,82 396.1,82.9 396.5,81.8 397.4,81.7 
		398.3,82.3 398.9,81 400,81 400.3,81.5 400.9,81.6 401.4,81.2 401.4,80.6 401.9,80 404.4,79.4 405.5,78.6 406.2,78.6 407,78.1 
		407.5,78.1 407.7,77.2 407.2,76.6 407.1,75.8 407.7,74.8 408.9,74.4 410.8,74.1 411.3,74.8 412.6,74.2 412.8,73.8 414.3,73.4 
		414.4,73 415.3,73.1 415.8,71.8 416.5,71.7 418,71.8 420,70.3 420.8,70.3 421,69.4 421.9,69.3 422,68.8 423.1,68.5 423.3,67.6 
		424.4,66.6 422.7,66.9 422.5,66.3 423,65.4 422.6,65.1 422.4,64.1 421.5,64.5 421.1,64 420,64.1 419.7,63.5 418,63.1 417.5,62.4 
		417.5,61.9 416.5,61.4 415.2,61.4 413.7,60.7 412.7,61.4 412.8,62 411.9,62 410.7,61.4 409.5,60.3 410,60 409.6,58.6 408.7,58.8 
		409.1,59.5 409.1,60.1 407.6,60 406.8,60.2 406.8,58.7 406.2,58.3 405.8,58.9 404.8,59.5 403.4,58.9 403.4,58.3 402.5,57.3 
		401.3,56.7 400.9,57.2 399.4,57.6 399.3,58.4 398.9,59.2 397.9,58.9 396.7,60.3 395.8,60 394.8,58.6 394,59.1 394,59.7 392.1,60 
		391.9,60.3 390,60.3 388.3,60.8 388.3,62.6 387.9,63.2 386.9,63.3 386.4,63.7 384.8,63.7 383.7,63.4 384.7,62 384.2,61.8 
		384.6,60.8 383,61 381.9,62.6 380.1,62.7 380,63.2 378.8,64.1 379.3,64.8 379.1,65.5 378.5,65.9 379,66.5 378.5,67.3 	"/>
	<polygon class="st0" points="411.1,58.1 410.8,57.9 410.3,58.6 410.8,59 	"/>
	<polygon class="st0" points="408.1,116.1 408.3,115.2 407.5,112.9 406.9,114 406.2,114.5 406.1,115.5 405.6,116.2 405.1,116.4 
		404.8,117 405.9,117.9 405.9,118.9 407,119.2 408.3,118.6 407.4,117.2 407.6,116.4 	"/>
	<polygon class="st0" points="370.8,65.5 370.4,64 371.2,63.4 371.1,62.7 370.3,62.6 369.8,63.5 369.3,63.5 369,64.1 370,65.3 	"/>
	<polygon class="st0" points="402.8,108.9 403.3,108.8 403.8,107.7 404.7,107 405,105.9 404.8,105.2 403.6,105.5 403.1,105 
		402.6,103.8 402.1,103.9 401.3,105 399.8,104.8 399,104.1 398.8,103.3 398.3,102.6 398.4,101 398.7,100.5 398,100.5 397.1,101.6 
		396.2,101.3 394.1,101.4 394.5,102 394.5,104 395,104.7 394.9,105.6 395.4,106.1 395.7,107.1 396.1,107.6 395.8,109 394.5,109.6 
		392.8,109.6 391.6,108.9 390.5,108.6 390.7,110.3 390.1,110.9 390.3,112.1 390,112.5 390,113.5 391.6,114.1 393.4,115.3 
		394.5,114.8 395.7,114.7 396.9,115.5 397.3,115.2 398.5,115.1 399.6,114.4 400.3,114.8 400.1,115.5 401.4,115.6 402,116.4 
		402.5,116 403,116.6 403.9,117 404.3,115.2 403.2,115.5 402.9,114.8 402.2,114.8 402,113.1 401.2,112.4 401,111.4 402,109.9 	"/>
	<polygon class="st0" points="374,96.6 373.3,97.5 372.7,97.7 372.6,100.1 372.3,100.6 372.1,102 371.6,102.7 370.8,103 
		370.5,103.7 369.6,103.9 369.4,104.8 368.7,105.3 369.4,106.4 369.3,107.3 370.1,107.5 370.7,108.5 371.4,109 371.4,109.8 
		370.9,111.5 370.5,112 371.1,112.6 372.1,112.4 373,111.7 373.5,110 374.1,109.3 375.3,109.5 377,108.5 377.3,108 378,108.1 
		379.4,107.7 380.1,106.9 380.8,107.1 381.2,106.4 380.5,106.2 379.3,105.1 378.5,104.1 378.7,102.6 379.1,101.7 380.5,100.7 
		381.2,100.6 381.4,99.7 382.2,99.3 382.7,99.4 383.2,98.7 383.9,98.5 384,97.7 383.1,97.9 382.8,97.6 381.5,97.6 380.7,96.8 
		380.4,95.3 379,95.8 378.4,94.8 377.2,93.9 377,93.1 376.2,93.3 375.7,94 375.7,94.5 374.8,95.1 374,96.2 	"/>
	<polygon class="st0" points="369.5,91.3 369.8,90.9 370.8,90.5 372,90.8 372.6,90.3 373.7,89.7 374.5,90.3 374.8,90 374.5,89 
		373.7,88.6 372.6,88.9 370.5,89.3 369.6,89.3 368.7,90 367.3,90.1 366.7,90.4 366.1,91.4 366,92.4 366.8,93.2 	"/>
	<polygon class="st0" points="388.4,104.1 390.4,105.1 390.7,104.1 390.7,103.4 391.3,102.4 390.3,101.6 390.5,100.6 391.4,99 
		390.9,98.1 391.2,97 391.6,96.3 390.8,95.8 390.3,96.3 390.7,96.9 390.5,98.2 389.4,98.7 389.4,99.8 389,100.2 389.5,102.2 
		388.7,103.3 	"/>
	<polygon class="st0" points="386.9,113.2 387.1,112.1 386.2,112.4 	"/>
</g>
</svg>
