<?xml version="1.0" encoding="utf-8"?>
<!-- Generator: Adobe Illustrator 24.2.3, SVG Export Plug-In . SVG Version: 6.00 Build 0)  -->
<svg version="1.1" id="Layer_1" xmlns="http://www.w3.org/2000/svg" xmlns:xlink="http://www.w3.org/1999/xlink" x="0px" y="0px"
	 viewBox="0 0 800 533" style="enable-background:new 0 0 800 533;" xml:space="preserve">
<style type="text/css">
	.st0{fill:#F2933D;stroke:#000000;stroke-width:0.4;stroke-miterlimit:9;}
</style>
<g>
	<polygon class="st0" points="353.9,111.8 354,111.8 354,112 354.2,112 354.2,112.2 354.3,112.2 354.3,112.6 354.6,112.6 
		354.6,112.8 354.9,112.8 354.9,112.6 355.1,112.6 355.1,112.4 355.2,112.4 355.2,112 355.1,112 355.1,110 354.9,110 354.9,109.8 
		354.8,109.8 354.8,110 354.6,110 354.6,110.2 354,110.2 354,110.6 353.9,110.6 353.9,111 353.7,111 353.7,111.6 353.9,111.6 	"/>
	<polygon class="st0" points="629.6,247.1 622.7,244.2 613.3,239 604.9,235.3 594.6,229 592,226.9 590,224.2 583.1,211.9 
		580.3,204.8 575.6,195 574.6,191.3 573.1,183.6 572,179.8 570.5,176.5 566.7,170.2 561.6,160.7 558.2,151.6 555.6,141.6 556.2,139 
		556.5,135.3 556.2,131.5 555.8,129.7 554.5,126.4 548.9,115.5 546.2,111.5 542.2,106 536,96.7 534.4,93.3 532.2,88 527.1,78.4 
		523.4,69.7 513.2,53.3 511.5,53.4 511.5,55 511.3,55 511.3,55.4 510.7,55.4 510.7,55.8 510.6,55.8 510.6,55.6 510.3,55.6 
		510.3,55.8 510,55.8 510,56 509.7,56 509.7,56.2 509.2,56.2 509.2,56.4 509.1,56.4 509.1,56.2 508.5,56.2 508.5,56.4 507.7,56.4 
		507.7,56.2 507.4,56.2 507.4,56 507.6,56 507.6,55.8 507.9,55.8 507.9,55.6 507.6,55.6 507.6,55.2 507.4,55.2 507.4,55 507.1,55 
		507.1,54.8 506.4,54.8 506.4,55 506.2,55 506.2,55.2 505.8,55.2 503.7,55.2 503.7,55.6 503.6,55.6 503.6,56.2 503.7,56.2 
		503.7,56.6 503.9,56.6 503.9,56.8 503.4,56.8 503.4,57 503.1,57 503.1,57.2 502.4,57.2 502.4,57 501.6,57 501.6,56.8 501,56.8 
		501,56.6 500.6,56.6 500.6,56.4 499.1,56.4 499.1,56.2 497.7,56.2 497.7,56.4 495.8,56.4 495.8,56.2 494.8,56.2 494.8,56 494.3,56 
		494.3,55.8 494,55.8 494,55.6 493.7,55.6 493.7,55.4 493.3,55.4 493.3,55.2 491.9,55.2 491.9,55 490.3,55 490.3,55.2 490,55.2 
		490,55.4 489.8,55.4 489.8,55.6 487.9,55.6 487.9,55.4 487.5,55.4 487.5,55.2 487,55.2 487,55.4 486.4,55.4 486.4,55.6 485.2,55.6 
		485.2,55.8 483.1,55.8 483.1,55.6 482.7,55.6 482.7,55.4 482.2,55.4 482.2,55.2 481.9,55.2 481.9,55 480.9,55 480.9,55.4 
		480.4,55.4 480.4,55.6 479.9,55.6 479.9,55.8 479.7,55.8 479.7,56.4 479.9,56.4 479.9,56.6 480,56.6 480,56.8 479.9,56.8 
		479.9,57.2 479.7,57.2 479.7,57.4 479.6,57.4 479.6,57.6 478.7,57.6 478.7,57.4 478.4,57.4 478.4,56.8 478.2,56.8 478.2,56.6 
		478.4,56.6 478.4,56.4 478.2,56.4 478.2,56.2 477.9,56.2 477.9,56 477.8,56 477.8,55.8 477.6,55.8 477.6,55.6 477,55.6 477,55.4 
		476.7,55.4 476.7,55.8 476.1,55.8 476.1,55.4 476,55.4 476,55.6 475.7,55.6 475.7,55.8 475.4,55.8 475.4,56 473.7,56 473.7,56.2 
		473.4,56.2 473.4,56.4 473.1,56.4 473.1,56.6 470.3,56.6 470.3,56.4 468.4,56.4 468.4,56.2 467.8,56.2 467.8,56.4 467,56.4 
		467,56.6 466.9,56.6 466.9,56.8 466.6,56.8 466.6,57 466,57 466,57.2 465.5,57.2 465.5,57.4 465.4,57.4 465.4,57.6 465.1,57.6 
		465.1,57.8 464.2,57.8 464.2,58 462.7,58 462.7,58.2 462.3,58.2 462.3,58.4 460.9,58.4 460.9,58.2 459.9,58.2 459.9,58 459.6,58 
		459.6,58.2 459.7,58.2 459.7,58.4 459,58.4 459,58.2 458.8,58.2 458.5,58.2 458.5,58.4 457.3,58.4 457.3,58.6 457,58.6 457,58.8 
		456.9,58.8 456.9,59.2 456.2,59.2 456.2,59.4 456,59.4 456,59.6 456.2,59.6 456.2,60.5 456.3,60.5 456.3,61.3 456.4,61.3 
		456.4,61.9 456,61.9 456,62.1 455.9,62.1 455.9,62.3 455.7,62.3 455.7,62.9 455.6,62.9 455.6,63.5 455.7,63.5 455.7,63.6 
		455.7,63.7 455.9,63.7 455.9,64.5 455.7,64.5 455.7,64.9 455.6,64.9 455.6,65.1 455.7,65.1 455.7,66.3 455.9,66.3 455.9,67.3 
		455.7,67.3 455.7,67.5 455.3,67.5 455.3,67.7 455,67.7 455,68.1 454.8,68.1 454.8,68.3 454.7,68.3 454.7,68.5 454.5,68.5 
		454.5,68.7 454.4,68.7 454.4,68.9 454.2,68.9 454.2,69.1 453.9,69.1 453.9,69.3 453.8,69.3 453.8,69.7 453.6,69.7 453.6,69.9 
		453.5,69.9 453.5,70.1 452.7,70.1 452.7,69.9 452.6,69.9 452.6,69.7 452.4,69.7 452.4,69.5 452.1,69.5 452.1,69.9 450.8,69.9 
		450.8,70.1 448.3,70.1 448.3,69.9 447.8,69.9 447.8,70.1 447.7,70.1 447.7,70.3 447.2,70.3 447.2,70.5 446.6,70.5 446.6,70.3 
		446,70.3 446,70.1 445.3,70.1 445.3,69.9 443.2,69.9 443.2,69.7 442.9,69.7 442.9,70.1 441.1,70.1 441.1,70.3 440.6,70.3 
		440.6,70.5 440.1,70.5 440.1,70.7 439.6,70.7 439.6,70.9 439.5,70.9 439.5,71.1 439.3,71.1 439.3,72.1 439.2,72.1 439.2,72.3 
		438.9,72.3 438.9,73.5 438.7,73.5 438.7,73.7 437.5,73.7 437.5,73.5 437.2,73.5 437.2,73.3 437.1,73.3 437.1,72.9 436.9,72.9 
		436.9,72.5 436.8,72.5 436.8,71.9 436.6,71.9 436.6,71.7 436.5,71.7 436.5,71.5 436,71.5 436,71.3 435.7,71.3 435.7,71.1 435,71.1 
		435,70.5 434.8,70.5 434.8,70.7 434.2,70.7 434.2,70.9 433.6,70.9 433.6,71.1 432.3,71.1 432.3,71.3 431.7,71.3 431.7,71.5 
		431.3,71.5 431.3,71.9 430.7,71.9 430.7,72.1 430.2,72.1 430.2,72.3 429.6,72.3 429.6,72.5 429.3,72.5 429.3,72.9 428.3,72.9 
		427.7,72.9 427.7,72.5 427.4,72.5 427.4,73.3 426.6,73.3 426.6,73.1 425.7,73.1 425.7,72.9 424.8,72.9 424.8,73.1 424.6,73.1 
		424.6,73.3 423.4,73.3 423.4,73.5 421.1,73.5 421.1,73.7 420.7,73.7 420.7,73.9 420.4,73.9 420.4,74.1 420.1,74.1 420.1,74.3 
		419.8,74.3 419.8,74.5 419.5,74.5 419.5,74.7 419.2,74.7 419.2,74.9 419.3,74.9 419.3,75.3 419.5,75.3 419.5,75.7 419.3,75.7 
		419.3,75.9 419,75.9 419,76.1 418.6,76.1 418.6,76.3 418,76.3 418,76.5 417.8,76.5 417.8,76.6 417.5,76.6 417.5,76.8 416.5,76.8 
		416.5,77.2 416.4,77.2 416.4,77.8 416.5,77.8 416.5,78.2 416.7,78.2 416.7,78.8 416.1,78.8 416.1,78.6 415.9,78.6 415.9,78.2 
		415.8,78.2 415.8,77.8 415.7,77.8 415.6,77.8 415.6,77.4 415.5,77.4 415.5,77 415.3,77 415.3,76.8 415,76.8 415,76.6 414.7,76.6 
		414.7,76.8 414.6,76.8 414.6,77 414.3,77 414.3,76.8 413.7,76.8 413.7,77 413.5,77 413.5,77.6 413.7,77.6 413.7,78 413.8,78 
		413.8,78.4 414,78.4 414,78.8 414.1,78.8 414.1,79.2 414.3,79.2 414.3,79.4 414.6,79.4 414.6,79.8 414.7,79.8 414.7,79.9 414.7,81 
		414.9,81 414.9,81.4 414.7,81.4 414.7,81.6 414.6,81.6 414.6,81.8 414.4,81.8 414.4,82 414.3,82 414.3,82.4 414.1,82.4 414.1,82.6 
		413.8,82.6 413.8,82.8 413.7,82.8 413.7,83 413.5,83 413.5,83.2 413.2,83.2 413.2,83.4 412.9,83.4 412.9,83.6 412.6,83.6 
		412.6,83.8 412.2,83.8 412.2,84 411.9,84 411.9,84.2 411.6,84.2 411.6,84.4 411.3,84.4 411.3,84.6 411.1,84.6 411.1,84.8 
		410.8,84.8 410.8,85 410.5,85 410.5,85.2 410.4,85.2 410.4,85.4 410.1,85.4 410.1,85.6 409.8,85.6 409.8,85.8 409.3,85.8 
		409.3,86.6 408.7,86.6 408.7,86.8 408.5,86.8 408.5,87 408,87 408,87.2 407.9,87.2 407.9,87.4 407.3,87.4 407.3,87.6 407.1,87.6 
		407.1,88 407,88 407,88.4 406.8,88.4 406.8,88.8 406.7,88.8 406.7,91 406.5,91 406.5,91.4 406.4,91.4 406.4,91.6 406.1,91.6 
		406.1,91.8 405.8,91.8 405.8,92 404.4,92 404.4,92.2 403.5,92.2 403.5,91.6 403.1,91.6 403.1,92.5 402.9,92.5 402.9,92.7 402,92.7 
		402,92.9 400.7,92.9 400.7,93.1 400.4,93.1 400.4,93.3 400.1,93.3 400.1,93.5 399.5,93.5 399.5,93.7 399.1,93.7 399.1,93.9 
		398.9,93.9 398.9,94.1 398.8,94.1 398.8,94.3 398.6,94.3 398.6,94.5 398.5,94.5 398.5,94.7 398.3,94.7 398.3,94.9 398.2,94.9 
		398.2,95.1 398,95.1 398,95.3 397.9,95.3 397.9,95.7 397.7,95.7 397.7,95.9 397.6,95.9 397.6,96.1 397.3,96.1 397.3,96.3 
		397.1,96.3 397.1,96.5 397,96.5 397,96.3 396.5,96.3 396.5,96.5 396.2,96.5 396.2,96.7 395.6,96.7 395.6,96.9 395.2,96.9 
		395.2,97.1 395,97.1 395,97.3 394.7,97.3 394.7,97.1 394,97.1 394,96.9 393.4,96.9 393.4,96.7 393.2,96.7 393.2,96.5 393.1,96.5 
		393.1,96.1 392.9,96.1 392.9,95.9 392.5,95.9 392.5,95.7 392.2,95.7 392.2,95.5 391.8,95.5 391.8,95.3 391.6,95.3 391.6,95.5 
		390.7,95.5 390.7,95.3 390.1,95.3 390.1,95.1 389.7,95.1 389.7,95.3 389.2,95.3 389.2,95.5 388.9,95.5 388.9,95.7 388.8,95.7 
		388.8,95.9 388.5,95.9 388.5,96.1 388.3,96.1 388.3,96.3 388.2,96.3 388.2,96.5 387.9,96.5 387.9,96.7 387.6,96.7 387.6,96.9 
		387.3,96.9 387.3,97.1 387,97.1 387,97.3 386.5,97.3 386.5,97.5 386.2,97.5 386.2,97.7 385.9,97.7 385.9,97.9 385.6,97.9 
		385.6,98.3 385.5,98.3 385.5,98.5 385.2,98.5 385.2,98.7 384.9,98.7 384.9,98.9 384.8,98.9 384.8,99.3 384.6,99.3 384.6,99.5 
		384.3,99.5 384.3,99.7 384.2,99.7 384.2,99.9 383.9,99.9 383.9,100.1 383.6,100.1 383.6,100.3 383.3,100.3 383.3,100.5 383,100.5 
		383,100.7 382.7,100.7 382.7,100.9 382.5,100.9 382.5,101.1 382.2,101.1 382.2,101.3 381.9,101.3 381.9,101.5 381.8,101.5 
		381.8,101.7 381.5,101.7 381.5,101.9 381.2,101.9 381.2,102.1 380.9,102.1 380.9,102.3 380.7,102.3 380.7,102.5 380.4,102.5 
		380.4,102.7 380.3,102.7 380.3,102.9 380,102.9 380,103.1 379.8,103.1 379.8,103.3 379.5,103.3 379.5,103.5 379.4,103.5 
		379.4,103.7 378.5,103.7 378.5,103.9 378.2,103.9 378.2,104.1 377.6,104.1 377.6,104.3 377.4,104.3 377.4,104.5 377.3,104.5 
		377.3,104.7 377,104.7 377,104.9 376.8,104.9 376.8,105.1 376.7,105.1 376.7,105.3 376.4,105.3 376.4,105.5 376.3,105.5 
		376.3,106.1 376.1,106.1 376.1,106.9 376,106.9 376,107.5 375.8,107.5 375.8,107.9 375.5,107.9 375.5,108.1 374.6,108.1 
		374.6,107.9 374.5,107.9 374.5,108.4 374.3,108.4 374.3,108.8 374.2,108.8 374.2,109 374,109 374,109.2 373.7,109.2 373.7,109 
		373.6,109 373.6,109 373.6,108.8 373.4,108.8 373.4,109.2 373.4,109.4 373.7,109.4 373.7,109.6 373.6,109.6 373.6,110.2 
		373.4,110.2 373.4,110.4 373.3,110.4 373.3,111.2 373,111.2 373,112 372.7,112 372.7,112.2 372.5,112.2 372.5,112.6 372.4,112.6 
		372.4,113.8 372.2,113.8 372.2,114.2 372.1,114.2 372.1,114.4 371.9,114.4 371.9,115 371.8,115 371.8,115.6 371.2,115.6 
		371.2,116.6 371,116.6 371,117 370.9,117 370.9,117.2 370.7,117.2 370.7,117.4 370.6,117.4 370.6,117.6 370.4,117.6 370.4,118 
		370.3,118 370.3,118.4 370.1,118.4 370.1,119 370,119 370,119.2 369.8,119.2 369.8,119.6 369.7,119.6 369.7,120 369.4,120 
		369.4,120.4 369.2,120.4 369.2,120.8 369.1,120.8 369.1,121 369,121 369,121.2 366.3,121.2 366.3,121.4 366,121.4 366,121.6 
		365.8,121.6 365.8,121.8 365.5,121.8 365.5,122 364.8,122 364.8,121.8 364.3,121.8 364.3,121.6 362.4,121.6 362.4,121.4 
		362.2,121.4 362.2,121.2 361.9,121.2 361.9,121 361.8,121 361.8,120.8 361.6,120.8 361.6,120.6 361.5,120.6 361.5,120.4 
		361.2,120.4 361.2,120.2 361.1,120.2 361.1,120 360.6,120 360.6,119.8 360,119.8 360,119.6 359.6,119.6 359.6,119.4 359.3,119.4 
		359.3,119.2 358.8,119.2 358.8,119 358.5,119 358.5,118.8 358.4,118.8 358.4,119 357.3,119 357.3,119.2 356.6,119.2 356.6,119.4 
		356.3,119.4 356.3,119.2 356,119.2 356,119 355.8,119 355.8,118.8 355.5,118.8 355.5,118.4 356,118.4 356,118.2 356.3,118.2 
		356.3,118.4 356.4,118.4 356.4,118.2 356.9,118.2 356.9,118 357,118 357,117.8 357.2,117.8 357.2,117.6 357.3,117.6 357.3,117 
		357.2,117 357.2,116.8 357,116.8 357,116.6 356.7,116.6 356.7,116.8 356.3,116.8 356.3,117 356.1,117 356.1,117.2 356,117.2 
		356,117.4 355.8,117.4 355.8,117.6 355.7,117.6 355.7,117.8 355.5,117.8 355.5,118 355.4,118 355.4,117.8 355.2,117.8 355.2,117.6 
		355.1,117.6 355.1,117.4 354.9,117.4 354.9,117.2 354.6,117.2 354.6,117 354.5,117 354.5,116.8 354.3,116.8 354.3,116.4 
		354.2,116.4 354.2,115.4 354.3,115.4 354.3,115.2 354.5,115.2 354.5,115 355.2,115 355.2,114.8 355.7,114.8 355.7,114.6 
		356.1,114.6 356.1,114.4 356.3,114.4 356.3,114.2 356.6,114.2 356.6,113.8 356.1,113.8 356.1,113.6 355.8,113.6 355.8,113.4 
		354.6,113.4 354.6,113.2 352.9,113.2 352.9,113 352.7,113 352.7,112.8 352.9,112.8 352.9,112.4 353,112.4 353,112 352.9,112 
		352.9,111.8 352.7,111.8 352.7,111.4 352.6,111.4 352.6,111.2 352,111.2 352,111 351.1,111 351.1,111.2 350.8,111.2 350.8,111.4 
		350.6,111.4 350.6,111.6 350.8,111.6 350.8,111.8 350.3,111.8 350.3,112.2 350.2,112.2 350.2,112.4 350,112.4 350,112.8 
		350.2,112.8 350.2,113.4 350.3,113.4 350.3,113.6 350.6,113.6 350.6,113.8 351.8,113.8 351.8,114 352.1,114 352.1,114.2 
		352.3,114.2 352.3,114.6 352.4,114.6 352.4,115 352.3,115 352.3,115.2 351.8,115.2 351.8,115 351.5,115 351.5,114.8 350.2,114.8 
		350.2,115 349.6,115 349.6,115.2 349,115.2 349,115.4 348.7,115.4 348.7,115.6 348.5,115.6 348.5,115.8 348.2,115.8 348.2,116 
		348.1,116 348.1,116.2 347.9,116.2 347.9,116.4 347.8,116.4 347.8,116.6 347.6,116.6 347.6,116.8 347.5,116.8 347.5,117 347.3,117 
		347.3,117.2 347,117.2 347,117.4 346.9,117.4 346.9,117.6 346.6,117.6 346.6,117.8 346.7,117.8 346.7,118 346.6,118 346.6,118.2 
		346.7,118.2 346.7,118.4 346.4,118.4 346.4,118 346.3,118 346.3,117.8 345.7,117.8 345.7,117.6 345.5,117.6 345.5,117.4 
		345.4,117.4 345.4,117.2 345.2,117.2 345.2,117 345.1,117 345.1,116.8 345,116.8 345,116.6 343.9,116.6 343.9,116.8 343.8,116.8 
		343.8,117 343.9,117 343.9,117.2 343.3,117.2 342.7,117.2 342.7,117.4 342,117.4 342,117.6 341.8,117.6 341.8,118 341.7,118 
		341.7,118.4 341.5,118.4 341.5,118.8 341.4,118.8 341.4,119 341.2,119 341.2,119.2 341.2,119.4 341.1,119.4 341.1,120.2 
		340.9,120.2 340.9,120.8 341.1,120.8 341.1,121.6 341.4,121.6 341.4,121.8 341.5,121.8 341.5,122.2 341.7,122.2 341.7,122.4 
		341.8,122.4 341.8,122.6 342,122.6 342,123.2 341.8,123.2 341.8,123.8 341.7,123.8 341.7,124 341.5,124 341.5,124.3 341.4,124.3 
		341.4,124.5 341.2,124.5 341.2,124.7 341.1,124.7 341.1,124.9 338.5,124.9 338.5,124.7 337.9,124.7 337.9,124.5 337.6,124.5 
		337.6,124.7 337.2,124.7 337.2,125.1 335.4,125.1 335.4,124.7 335.3,124.7 335.3,124.5 335.1,124.5 335.1,124.1 335,124.1 
		335,123.8 334.8,123.8 334.8,123.6 334.1,123.6 334.1,123.8 333.1,123.8 332.3,123.8 332.3,124 331.8,124 331.8,124.1 331.4,124.1 
		331.4,124.3 331.5,124.3 331.5,124.5 331.8,124.5 331.8,124.7 332,124.7 332,125.3 332.1,125.3 332.1,125.7 331.5,125.7 
		331.5,125.9 330.9,125.9 330.9,126.1 329.2,126.1 329.2,125.9 329,125.9 329,126.1 328.9,126.1 328.9,126.3 328.7,126.3 
		328.7,126.5 328.4,126.5 328.4,126.7 328.3,126.7 328.3,126.9 328,126.9 328,127.4 328,127.5 328.1,127.5 328.1,127.7 328.3,127.7 
		328.3,127.9 328.4,127.9 328.4,128.1 328.7,128.1 328.7,128.3 328.9,128.3 328.9,128.5 329,128.5 329,128.7 329.2,128.7 
		329.2,128.9 329.3,128.9 329.3,129.3 329.2,129.3 329.2,129.5 329.3,129.5 329.3,129.7 329.4,129.7 329.4,129.9 329.6,129.9 
		329.6,130.5 329.7,130.5 329.7,131.9 329.6,131.9 329.6,132.1 329.4,132.1 329.4,132.3 329.3,132.3 329.3,132.5 329,132.5 
		329,132.7 328.9,132.7 328.9,132.9 328.7,132.9 328.7,133.1 327.8,133.1 327.8,133.3 326.9,133.3 326.9,133.5 326.8,133.5 
		326.8,133.7 326.6,133.7 326.6,133.9 326.3,133.9 326.3,133.7 325.9,133.7 325.9,133.5 325.7,133.5 325.7,132.9 325.9,132.9 
		325.9,132.7 325.7,132.7 325.7,132.5 325.6,132.5 325.6,132.3 325.1,132.3 325.1,133.1 325,133.1 325,133.9 324.5,133.9 
		324.5,134.1 324.2,134.1 324.2,134.3 324.1,134.3 324.1,134.7 322.6,134.7 322.6,134.5 322,134.5 322,132.9 321.8,132.9 
		321.8,132.7 321.7,132.7 321.7,132.5 321.5,132.5 321.5,132.3 321.7,132.3 321.7,132.1 321.2,132.1 321.2,131.9 319.8,131.9 
		319.8,131.7 319.5,131.7 319.5,131.5 318.1,131.5 318.1,131.3 318,131.3 318,131.5 317.8,131.5 317.8,131.7 317.5,131.7 
		317.5,131.9 317.2,131.9 317.2,132.1 315.3,132.1 315.3,132.3 313.8,132.3 313.8,132.5 311.7,132.5 311.7,132.3 311.1,132.3 
		311.1,132.1 310.4,132.1 310.4,131.9 310.2,131.9 310.2,131.7 310.1,131.7 310.1,131.5 309.9,131.5 309.9,131.3 309.8,131.3 
		309.8,131.1 309,131.1 309,131.5 308.9,131.5 308.9,131.7 309,131.7 309,132.3 307.7,132.3 307.7,132.7 307.5,132.7 307.5,133.1 
		306.2,133.1 306.2,132.9 304.6,132.9 304.6,132.9 304.6,133.1 304.4,133.1 304.1,133.1 304.1,133.3 304.1,133.5 304,133.5 
		304,133.7 303.7,133.7 303.1,133.7 303.1,133.9 302,133.9 302,134.1 301.7,134.1 301.7,134.3 301.1,134.3 301.1,134.5 301,134.5 
		301,134.7 300.4,134.7 300.4,134.9 299.6,134.9 299.6,135.1 298.7,135.1 298.7,135.3 298.4,135.3 298.4,135.5 298,135.5 298,135.7 
		297.8,135.7 297.8,135.9 297.5,135.9 297.5,136.1 297.3,136.1 297.3,136.3 297,136.3 297,136.5 296.7,136.5 296.7,136.7 
		296.2,136.7 296.2,136.9 296.1,136.9 296.1,137.1 295.9,137.1 295.9,137.3 295.8,137.3 295.8,137.5 295.5,137.5 295.5,137.7 
		295.3,137.7 295.3,137.9 295,137.9 295,138.1 294.7,138.1 294.7,138.3 294.4,138.3 294.4,138.5 294.3,138.5 294.3,138.7 294,138.7 
		294,138.9 293.7,138.9 293.7,139.1 293.2,139.1 293.2,139.3 293.1,139.3 293.1,139.5 292.9,139.5 292.9,139.7 292.6,139.7 
		292.6,139.9 292.5,139.9 292.5,139.7 292.2,139.7 292.2,139.9 292,139.9 292,140 291.9,140 291.9,140.4 291.3,140.4 291.3,140.6 
		291.1,140.6 291.1,140.8 291.3,140.8 291.3,141 291.1,141 291.1,141.4 291,141.4 291,141.6 290.8,141.6 290.8,142 290.7,142 
		290.7,142.4 290.5,142.4 290.5,142.6 290.2,142.6 290.2,142.8 289.5,142.8 289.5,143 288.3,143 288.3,143.2 288.2,143.2 
		288.2,143.6 288,143.6 288,144 287.9,144 287.9,145 287.7,145 287.7,145.4 287.6,145.4 287.6,145.6 287.3,145.6 287.3,145.8 
		287,145.8 287,146 286.8,146 286.8,146.2 286.5,146.2 286.5,146.4 286.2,146.4 286.2,146.6 284.9,146.6 284.9,146.8 284.6,146.8 
		284.6,147 284.4,147 284.4,147.6 284.3,147.6 284.3,147.8 284.1,147.8 284.1,148 284,148 284,148.2 283.7,148.2 283.7,148.4 
		283.5,148.4 283.5,148.6 283.4,148.6 283.4,148.8 283.2,148.8 283.2,149 282.9,149 282.9,149.2 282.8,149.2 282.8,149.4 
		282.6,149.4 282.6,149.6 282.3,149.6 282.3,149.8 282.2,149.8 282.2,150 282,150 282,150.2 281.7,150.2 281.7,150.4 281.6,150.4 
		281.6,150.8 281.5,150.8 281.5,151.2 281.3,151.2 281.3,151.6 281.2,151.6 281.2,152 281,152 281,152.2 280.9,152.2 280.9,152.4 
		280.6,152.4 280.6,152.6 280.4,152.6 280.4,152.8 280.1,152.8 280.1,153 279.7,153 279.7,153.2 279.2,153.2 279.2,153.4 
		279.1,153.4 279.1,153.6 278.8,153.6 278.8,153.8 278.3,153.8 278.3,154 277.7,154 277.7,154.2 277.1,154.2 277.1,154.4 
		276.5,154.4 276.5,154.6 275.9,154.6 275.9,154.8 275.3,154.8 275.3,155 274.9,155 274.9,155.2 274.4,155.2 274.4,155.4 
		274.3,155.4 274.3,155.6 274.1,155.6 274.1,155.8 274,155.8 274,156 273.4,156 273.4,156.1 272.8,156.1 272.8,156.3 272.5,156.3 
		272.5,156.5 272.4,156.5 272.4,156.7 272.1,156.7 272.1,156.9 271.6,156.9 271.6,157.1 271.2,157.1 271.2,157.3 271,157.3 
		271,157.5 270.7,157.5 270.7,157.7 270.6,157.7 270.6,157.9 270.4,157.9 270.4,158.1 270.6,158.1 270.6,158.5 270.4,158.5 
		270.4,159.3 270.6,159.3 270.6,159.7 270.9,159.7 270.9,159.9 272.4,159.9 272.4,160.1 272.7,160.1 272.7,160.3 272.8,160.3 
		272.8,160.5 273.1,160.5 273.1,160.7 273.3,160.7 273.3,160.9 273.4,160.9 273.4,161.3 273.3,161.3 273.3,161.5 273.1,161.5 
		273.1,161.7 272.5,161.7 272.5,161.5 272.4,161.5 272.4,161.3 272.1,161.3 272.1,161.1 271.9,161.1 271.9,160.9 271.2,160.9 
		271.2,160.7 271,160.7 271,160.5 270.9,160.5 270.9,160.1 270.4,160.1 270.4,159.7 269.8,159.7 269.8,159.5 269.4,159.5 
		269.4,159.4 269.4,159.3 269.3,159.3 269.1,159.3 269.1,159.1 268.8,159.1 268.8,159.3 267.9,159.3 267.9,159.1 267.4,159.1 
		267.4,159.3 267.3,159.3 267.3,159.5 267.1,159.5 267.1,159.7 266.5,159.7 266.5,159.9 266.4,159.9 266.4,160.3 266.5,160.3 
		266.5,160.5 266.7,160.5 266.7,160.3 266.8,160.3 266.8,160.1 267,160.1 267,159.9 267.3,159.9 267.3,160.1 267.6,160.1 
		267.6,160.3 267.7,160.3 267.7,160.5 267.9,160.5 267.9,160.9 267.7,160.9 267.7,161.1 267.3,161.1 267.3,160.9 266.5,160.9 
		266.5,161.1 266.2,161.1 266.2,161.3 266.1,161.3 266.1,161.9 266.4,161.9 266.4,162.1 266.8,162.1 266.8,162.3 267.1,162.3 
		267.1,162.7 267.3,162.7 267.3,162.9 267.1,162.9 267.1,163.1 267,163.1 267,162.9 266.2,162.9 266.2,163.1 266.1,163.1 
		266.1,163.7 265.9,163.7 265.9,163.9 266.5,163.9 266.5,164.3 266.7,164.3 266.7,164.5 266.8,164.5 266.8,164.7 267.1,164.7 
		267.1,164.9 267.6,164.9 267.6,165.1 268,165.1 268,165.3 268.2,165.3 268.2,165.5 268.5,165.5 268.5,165.7 268.6,165.7 
		268.6,165.7 268.6,166.5 268.8,166.5 268.8,166.7 268.9,166.7 268.9,167.1 269.1,167.1 269.1,167.3 269.2,167.3 269.2,168.1 
		269.2,169.3 269.1,169.3 269.1,169.7 268.9,169.7 268.9,170.1 268.8,170.1 268.8,170.5 268.6,170.5 268.6,170.7 268.5,170.7 
		268.5,170.9 268.2,170.9 268.2,171.1 268,171.1 268,171.3 267.7,171.3 267.7,171.5 267.6,171.5 267.6,171.8 267.4,171.8 267.4,172 
		267.3,172 267.3,172.2 267.1,172.2 267.1,172.6 267,172.6 267,172.8 266.8,172.8 266.8,173 266.7,173 266.7,173.2 266.5,173.2 
		266.5,173.4 266.4,173.4 266.4,173.6 266.2,173.6 266.2,173.8 266.1,173.8 266.1,174 265.9,174 265.9,174.2 265.8,174.2 
		265.8,174.4 265.5,174.4 265.5,174.6 265.4,174.6 265.4,174.8 265.1,174.8 265.1,175 264.6,175 264.6,175.2 264,175.2 264,175.8 
		263.9,175.8 263.9,176 263.6,176 263.6,176.2 263.3,176.2 263.3,176.4 263,176.4 263,176.6 262.7,176.6 262.7,176.8 262.8,176.8 
		262.8,177 262.7,177 262.7,177.2 262.4,177.2 262.4,177.4 262.2,177.4 262.2,177.6 262.1,177.6 262.1,177.8 261.9,177.8 261.9,178 
		261.6,178 261.6,178.2 260.7,178.2 260.7,178.6 260.6,178.6 260.6,179 259.7,179 259.7,179.2 257.7,179.2 257.7,179.4 257.6,179.4 
		257.6,179.6 257.5,179.6 257.5,179.8 257.3,179.8 257.3,180 257.2,180 257.2,180.2 257,180.2 257,180.4 256.9,180.4 256.9,180.6 
		256.7,180.6 256.7,180.8 256.6,180.8 256.6,181 256.4,181 256.4,181.2 256.3,181.2 256.3,181.4 256.1,181.4 256.1,181.6 
		255.7,181.6 255.7,181.8 255.1,181.8 255.1,182 254.6,182 254.6,182.2 254.3,182.2 254.3,182.4 251.3,182.4 251.2,182.4 
		251.2,182.2 250.7,182.2 250.7,182.4 250.4,182.4 250.4,182.6 250.3,182.6 250.3,182.9 250.3,183 250.2,183 250.1,183 250.1,183 
		250.1,183.2 249.9,183.2 249.6,183.2 249.6,183.4 249.6,184.2 249.7,184.2 249.7,184.4 249.9,184.4 249.9,184.6 250,184.6 
		250,184.8 250.1,184.8 250.1,185 250.3,185 250.3,185.4 250.1,185.4 250.1,185.8 250,185.8 250,186.2 249.7,186.2 249.7,186.4 
		249.4,186.4 249.4,186.6 249.3,186.6 249.3,187 249.1,187 249.1,187.2 249,187.2 249,187.4 248.7,187.4 248.7,187.6 248.5,187.6 
		248.5,187.8 248.2,187.8 248.2,187.9 247,187.9 247,188.1 246.9,188.1 246.9,188.3 246.6,188.3 246.6,188.5 245.2,188.5 
		245.2,189.5 244.3,189.5 244.3,189.7 243.6,189.7 243.6,189.9 243,189.9 243,190.1 242.2,190.1 242.2,190.3 241.9,190.3 
		241.9,190.5 241.8,190.5 241.8,190.7 241.5,190.7 241.5,190.9 241.1,190.9 241.1,191.1 240.5,191.1 240.5,191.3 240,191.3 
		240,191.5 239.7,191.5 239.7,191.7 239.4,191.7 239.4,191.9 239.1,191.9 239.1,192.5 239.3,192.5 239.3,192.7 239.4,192.7 
		239.4,192.9 239.6,192.9 239.6,192.7 240.3,192.7 240.3,192.5 240.6,192.5 240.6,192.3 240.9,192.3 241.2,192.3 241.2,192.5 
		241.7,192.5 241.7,192.7 241.8,192.7 241.8,192.9 242.1,192.9 242.1,193.1 242.2,193.1 242.2,193.5 242.4,193.5 242.4,193.7 
		242.5,193.7 242.5,194.1 242.7,194.1 242.7,194.3 243,194.3 243,194.5 243.3,194.5 243.3,194.7 243.6,194.7 243.6,195.3 
		243.6,195.5 243.4,195.5 243.4,195.7 243.3,195.7 243.3,196.5 243.1,196.5 243.1,196.7 243,196.7 243,196.9 242.8,196.9 
		242.8,197.1 242.7,197.1 242.7,197.3 242.5,197.3 242.5,198.1 242.4,198.1 242.4,198.3 242.2,198.3 242.2,198.5 242.1,198.5 
		242.1,198.7 241.9,198.7 241.9,198.9 241.7,198.9 241.7,199.1 241.5,199.1 241.5,199.3 241.1,199.3 241.1,199.5 240.8,199.5 
		240.8,199.9 240.6,199.9 240.6,200.9 240.5,200.9 240.5,201.1 240.3,201.1 240.3,201.3 239.9,201.3 239.9,201.5 239.6,201.5 
		239.6,201.7 239.1,201.7 239.1,201.9 238.3,201.9 237.9,201.9 237.9,202.3 237.8,202.3 237.8,202.6 237.8,203.5 237.6,203.5 
		237.6,203.8 237.5,203.8 237.5,204 237.2,204 237.2,204.2 237,204.2 237,204.4 236.7,204.4 236.4,204.4 236.4,204.6 236.1,204.6 
		236.1,204.8 235.3,204.8 235.1,204.8 235.1,205 234.8,205 234.8,204.8 234.5,204.8 234.5,205 234.2,205 234.2,205.2 233.9,205.2 
		233.9,205.4 233.6,205.4 233.6,205.6 233.3,205.6 233.3,205.8 233,205.8 233,206 232.7,206 232.7,206.2 232.4,206.2 232.4,206.8 
		232.3,206.8 232.3,207.8 232.1,207.8 232.1,208.2 232.1,208.6 231.8,208.6 231.8,208.8 231.2,208.8 231.2,209 231.1,209 
		231.1,209.4 230.9,209.4 230.9,209.6 230.8,209.6 230.8,209.8 230.5,209.8 230.5,210 230.3,210 230.3,210.4 230.2,210.4 
		230.2,210.8 230,210.8 230,211 229.4,211 229.4,211.2 228.7,211.2 228.7,211.4 228.5,211.4 228.5,212 229.4,212 229.4,212.4 
		229.3,212.4 229.3,212.6 229.3,213 228.8,213 228.8,213.2 228.4,213.2 228.4,213.4 228.2,213.4 228.2,213.8 228.1,213.8 
		228.1,214.2 227.9,214.2 227.9,214.4 227.8,214.4 227.8,214.6 227.5,214.6 227.5,214.8 227.3,214.8 227.3,215 227,215 227,215.2 
		226.9,215.2 226.9,215.4 226.7,215.4 226.7,215.6 226.4,215.6 226.4,215.8 226.3,215.8 226.3,216 226.1,216 226.1,216.2 
		225.9,216.2 225.9,216.4 225.7,216.4 225.7,216.2 225.3,216.2 225.3,216 224.7,216 224.7,215.8 224.4,215.8 224.4,215.6 
		223.9,215.6 223.9,215.8 223.8,215.8 223.8,215.9 223.8,216 223.7,216 223.6,216 223.6,216 223.6,216.4 223.5,216.4 223.5,217.2 
		223.3,217.2 223.3,217.6 223.2,217.6 223.2,217.8 222.9,217.8 222.9,218 222.7,218 222.7,218.2 222.4,218.2 222.4,218.4 222,218.4 
		222,218.6 221.5,218.6 221.5,218.8 220.9,218.8 220.9,219 220.5,219 220.5,219.2 220.2,219.2 220.2,219.4 219.9,219.4 219.9,219.5 
		219.6,219.5 219.6,219.7 219.4,219.7 219.4,219.9 219.1,219.9 219.1,220.1 218.8,220.1 218.8,220.3 218.5,220.3 218.5,220.5 
		218.2,220.5 218.2,220.7 217.8,220.7 217.8,220.9 217.2,220.9 217.2,221.1 216.8,221.1 216.8,221.3 216.2,221.3 216.2,221.5 
		215.9,221.5 215.9,221.7 215.7,221.7 215.7,221.9 215.4,221.9 215.4,222.1 215.1,222.1 215.1,222.3 214.7,222.3 214.7,222.5 
		214.2,222.5 214.2,222.7 213.8,222.7 213.8,222.9 213.3,222.9 213.3,223.1 212.9,223.1 212.9,223.3 212.4,223.3 212.4,223.5 
		212,223.5 212,223.7 211.5,223.7 211.5,224.1 211.4,224.1 211.4,224.3 210.9,224.3 210.9,224.1 210.3,224.1 210.3,223.9 
		208.9,223.9 208.9,223.7 208.6,223.7 208.4,223.7 208.4,223.8 208.4,223.9 208.3,223.9 208.3,224.1 208,224.1 208,224.1 208,223.9 
		207.5,223.9 207.5,224.3 207.4,224.3 207.4,224.4 207.4,224.5 207.2,224.5 206.8,224.5 206.8,224.7 205.3,224.7 205.3,224.5 
		204.8,224.5 204.8,224.7 204.5,224.7 204.5,224.9 204.4,224.9 204.4,225.1 203.8,225.1 203.8,225.3 202.9,225.3 202.9,225.5 
		202.7,225.5 202.7,225.7 202.4,225.7 202.4,226.1 202.1,226.1 202.1,226.5 200.8,226.5 200.8,226.7 200.4,226.7 200.4,226.9 
		200.1,226.9 200.1,227.1 199.6,227.1 199.6,227.3 199.2,227.3 199.2,227.5 198.6,227.5 198.6,227.7 198.1,227.7 198.1,227.9 
		196.5,227.9 196.5,228.3 196.3,228.3 196.3,228.5 194.5,228.5 194.5,228.7 194.2,228.7 194.2,228.9 194,228.9 194,229.1 
		193.5,229.1 193.5,229.3 193.1,229.3 193.1,229.5 192.8,229.5 192.8,229.7 191.3,229.7 191.3,230.3 191.1,230.3 191.1,230.5 
		190.8,230.5 190.8,230.7 190.5,230.7 190.5,230.9 189.9,230.9 189.9,231.1 189.3,231.1 189.3,231.3 188.7,231.3 188.7,231.5 
		188.1,231.5 188.1,231.7 187.8,231.7 187.8,231.9 187.5,231.9 187.5,232.1 186.2,232.1 186.2,231.9 186.1,231.9 186.1,232.1 
		183.7,232.1 183.7,232.3 182.8,232.3 182.8,232.5 182.6,232.5 182.6,232.3 182.5,232.3 182.5,232.5 182,232.5 182,232.7 
		181.3,232.7 181.3,232.9 180.8,232.9 180.8,233.3 180.7,233.3 180.7,233.9 179.9,233.9 179.9,233.7 179.5,233.7 179.5,234.1 
		179.6,234.1 179.6,235.1 179.5,235.1 179.5,235.3 179.2,235.3 179.2,235.4 178.6,235.4 178.6,235.6 177.4,235.6 177.4,235.4 
		175.9,235.4 175.9,235.6 175,235.6 175,235.4 174.9,235.4 174.9,235.1 174.7,235.1 174.7,234.5 174.4,234.5 174.4,234.3 174,234.3 
		174,234.5 174.1,234.5 174.1,234.7 174,234.7 174,235.6 174.1,235.6 174.1,235.8 174.3,235.8 174.3,236 174.4,236 174.4,236.6 
		174.6,236.6 174.6,237.2 174.7,237.2 174.7,238.2 174.6,238.2 174.6,238.6 174.7,238.6 174.7,239 174.9,239 174.9,239.2 175,239.2 
		175,239.6 175.2,239.6 175.2,239.8 175.5,239.8 175.5,240 175.6,240 175.6,240.2 175.8,240.2 175.8,240.4 175.9,240.4 175.9,240.5 
		175.9,240.6 176.1,240.6 176.1,240.8 176.7,240.8 176.7,241 177,241 177,241.2 177.3,241.2 177.3,241.4 177.4,241.4 177.4,241.6 
		177.9,241.6 177.9,241.8 178.9,241.8 178.9,242 179.3,242 179.3,242.4 178.6,242.4 178.6,242.2 178.1,242.2 178.1,242 177,242 
		177,241.8 176.7,241.8 176.7,241.6 176.2,241.6 176.2,241.4 175.6,241.4 175.6,241.2 175.5,241.2 175.5,241 175.2,241 175.2,240.9 
		175.2,240.8 174.9,240.8 174.9,240.6 174.7,240.6 174.7,240.4 174.4,240.4 174.4,240.2 174.3,240.2 174.3,240 174.1,240 
		174.1,239.2 174,239.2 174,238.8 173.8,238.8 173.8,238.6 173.7,238.6 173.7,237.6 173.5,237.6 173.5,236.8 173.4,236.8 
		173.4,236.6 173.2,236.6 173.2,236.4 172.9,236.4 172.9,236.2 172.8,236.2 172.8,235.8 172.6,235.8 172.6,236 172.3,236 
		172.3,236.2 172,236.2 172,236.4 171.6,236.4 171.6,236.6 171.3,236.6 171.3,236.8 170.8,236.8 170.8,237 170.4,237 170.4,237.2 
		170,237.2 170,237.4 169.7,237.4 169.7,237.6 169.5,237.6 169.5,238 169.7,238 169.7,238.6 169.5,238.6 169.5,239 169.4,239 
		169.4,239.6 168.9,239.6 168.9,239.4 168.8,239.4 168.8,238.2 168.6,238.2 168.6,238 168.5,238 168.5,237.8 168.2,237.8 
		168.2,237.6 168,237.6 168,237.4 167.4,237.4 167.4,237.6 166.5,237.6 166.5,237.8 166.1,237.8 166.1,238 165.6,238 165.6,238.2 
		165.2,238.2 165.2,238.4 164.6,238.4 164.6,238.6 163.8,238.6 163.8,238.8 163.2,238.8 163.2,239 162.5,239 162.5,239.2 
		161.5,239.2 161.5,239.4 161.3,239.4 161.3,240.2 161.5,240.2 161.5,240.8 161.6,240.8 161.6,241.2 161.8,241.2 161.8,242.4 
		161.6,242.4 161.6,242.6 161.5,242.6 161.5,243 161.3,243 161.3,243.2 161.2,243.2 161.2,243.6 161,243.6 161,243.8 160.9,243.8 
		160.9,244 160.7,244 160.7,244.4 160.6,244.4 160.6,244.6 160.1,244.6 160.1,245 160,245 160,245.2 159.8,245.2 159.8,245.6 
		159.7,245.6 159.7,245.8 159.1,245.8 159.1,245.6 158.9,245.6 158.9,245.4 158.6,245.4 158.6,245.2 158.5,245.2 158.5,245 
		158.2,245 158.2,244.8 157.3,244.8 157.3,245.2 157.4,245.2 157.4,245.4 157.6,245.4 157.6,245.6 158,245.6 158,245.8 158.2,245.8 
		158.2,246 158.3,246 158.3,246.2 158.8,246.2 158.8,246.4 158.6,246.4 158.6,246.6 158.3,246.6 158.3,246.8 158.2,246.8 158.2,247 
		157.9,247 157.9,247.2 157.7,247.2 157.7,247.4 157.4,247.4 157.4,247.6 157.3,247.6 157.8,250.2 157.8,250.2 159.7,257.6 
		163.4,268.2 164.9,271.3 168.1,275.8 174.5,282.7 193.1,301.8 259.3,370.4 262.9,374.7 265,377.7 266.5,380.7 268.2,385 
		269.5,387.7 271.1,390.4 278.2,400.6 286,406.9 293.2,413.8 305.8,426.8 309.8,431.3 312.1,434.4 314.1,437.7 317.1,444.7 
		322.2,454.3 324.4,460 325.8,463 330.8,470.8 336,479.7 343.3,478 346.9,476.8 354.9,472.9 358.3,471.6 362.1,470.8 376,468.4 
		375.4,466.4 375.3,465.3 375.7,464 376.4,462.9 377.4,462 386.8,456 396.8,451.3 399.8,449.2 410,441.2 419.7,436.1 429,430.3 
		435.9,427.3 445.1,422 452,419.1 461.3,413.8 466.4,411.6 469.8,409.7 473,407.3 477.6,403.2 485.1,395.8 492.3,388.2 496.2,383.4 
		498.4,380 499.3,378.1 500.5,374.4 501.9,366.7 502.9,363 506.6,354.8 507.9,351.3 509.7,341.7 510.7,337.9 511.4,336.2 
		515.4,328.2 518.5,321.3 520.6,318.3 523.1,315.8 526,313.7 532.7,310.7 540.4,306.3 548.7,302.5 551.5,300.3 554,297.7 556,294.7 
		559,287.8 562.2,282.7 564.7,279.5 567.4,276.6 570.3,274.1 571.9,273.1 573.6,272.4 575.4,272.1 577.1,272.1 578.7,272.5 
		580.2,273.3 581.4,274.3 582.3,275.5 583.9,278 587.8,283.2 597.3,278 606.5,272.2 613.4,269.2 622.6,263.9 631.1,260.3 642.7,254 
			"/>
</g>
</svg>
