<?xml version="1.0" encoding="utf-8"?>
<!-- Generator: Adobe Illustrator 24.2.3, SVG Export Plug-In . SVG Version: 6.00 Build 0)  -->
<svg version="1.1" id="Layer_1" xmlns="http://www.w3.org/2000/svg" xmlns:xlink="http://www.w3.org/1999/xlink" x="0px" y="0px"
	 viewBox="0 0 800 533" style="enable-background:new 0 0 800 533;" xml:space="preserve">
<style type="text/css">
	.st0{fill:#F2933D;stroke:#000000;stroke-width:0.4;stroke-miterlimit:9;}
</style>
<polygon class="st0" points="549,407.4 548.1,405 547.4,403.9 545.5,402.6 543.3,402 537,401.5 533.8,402.8 527.6,406.2 
	525.2,406.9 519.1,408.3 516.9,409.2 513.9,410.8 511.8,411.7 509.4,412 508.2,411.8 507,411.6 505.8,411.1 503.8,409.7 
	500.9,407.1 493.3,399.5 487.9,395.1 490.3,392 494.6,385.9 497.3,380.2 500.1,374.9 501.1,372.4 501.6,369.6 501.8,366.8 
	501.5,362.8 500.7,360.3 499.9,359.3 498.8,358.4 496.5,357.6 492.6,357.2 473.8,357.6 433,357.7 427.3,357.5 423.2,356.8 
	420.7,355.9 415.6,353.2 411.1,351.2 405,347.7 401.6,346.1 399.3,344.9 396,342.3 392.8,339.5 389.9,336.5 387.2,333.3 385.8,331 
	385.3,329.7 385,328.4 385,325.8 385.2,324.6 386,322.4 390.2,313.7 392.6,310.4 396.4,306.6 399.5,304.2 403.9,302 405.9,300.8 
	408.5,298.4 409.7,296.3 410.5,293.8 410.9,289.9 410.8,285.8 409.9,279.7 416.3,280.3 424.8,280.5 430.4,280.4 434.5,279.9 
	437.1,279.2 443.4,276 454.4,271.6 458.1,263.5 459.9,258.7 463.4,252.4 465.3,247.7 467.5,243.5 468.5,241.3 469.3,237.5 
	470.1,229.6 470.6,227 471.3,224.7 473.3,220.3 474.1,218 474.6,215.4 475.4,207.5 475.8,204.9 476.5,202.5 478.7,197.3 
	479.8,191.8 480.4,183.9 480.5,124.6 480.2,119.9 479.6,116.9 478.7,114.1 476.5,108.9 475.8,106.1 474.2,90.3 473.7,87.7 
	471.5,82.4 470.7,80.1 470.3,77.6 469.5,69.6 469.1,67.1 468.3,64.7 465.9,59.2 463.9,50.5 463.5,49.2 462.2,46.8 458.8,42.3 
	454.9,38.2 451.7,35.4 449.5,33.9 447,32.8 443.2,32.2 437.9,32 431.3,32.3 424.4,33.1 418.7,32.3 412.7,32 406.7,32.2 402.4,32.8 
	399.7,33.8 391.8,38.3 389.9,39.7 387,42.4 392.3,51 393.1,53.1 393.2,54.2 392.9,56.4 392.1,58.3 390.1,62 388.6,63.7 387.6,64.4 
	386.4,64.8 384,65.3 381.4,65.4 369,65.4 366.3,65.7 363.7,66.4 361.5,67.3 357.4,69.6 352.9,71.6 346.7,75.1 342.2,77.1 337.1,80 
	331.7,82.6 329.8,84.1 327.5,86.8 326.9,87.9 326.1,90.2 324.4,97.6 321.7,104.2 321,107 320,115.6 319.5,118.4 318.7,120.8 
	316.3,126.3 315.6,129.1 315.2,132 315,136.5 315,155.8 315,169.9 315,181.5 315.3,187.4 316.3,191.5 319.1,198 319.8,200.7 
	320.4,206.4 320.3,212.2 319.8,216.4 319.1,219.1 316.7,224.5 315.9,227 315.4,229.8 314.6,237 314,239.8 313.2,242.2 310.8,247.7 
	309.5,252.7 308.8,256.4 307.9,258.8 305.2,264.1 303.2,268.8 299.7,275.1 297.8,279.8 295.6,284 294.6,286.2 293.9,288.7 
	293.3,293.7 289,302.6 287.1,307.4 284.3,312.7 281.9,318.4 278.5,324.8 276.5,329.4 275.1,331.7 273.5,333.8 270.9,336.7 
	268,339.6 265.1,342.3 261.9,344.6 256.4,347.2 255.5,347.8 253.7,349.3 252.2,351.2 251.6,352.3 250.8,354.8 250.7,356.1 
	250.6,358.8 251,361.4 251.4,362.6 253,365.9 255.9,370.8 257.2,372.6 259,374 267,378.6 274.8,381.3 278.8,382.3 277.3,391.7 
	276.7,394.3 275.7,396.7 274.3,399 272.6,401 269.9,404 265.1,408.6 261.9,410.9 259.7,412.2 257.3,413.1 256.6,416.7 256.5,419.3 
	256.5,420.6 257.1,423.1 258.2,425.3 259.6,427.3 263.4,432.1 264.8,434.1 265.9,436.2 267.5,439.7 269.6,442.9 273.1,446.9 
	283.2,457.4 284.8,459.4 286.3,461.5 287.5,463.8 288.9,467.3 292.3,473.6 294.1,478.4 297.5,484.7 299.4,489.4 300.6,491.5 
	306,499.7 312.5,500.6 320.2,500.9 389.7,501 397.4,500.9 401.9,500.4 404.7,499.7 409.8,497.4 412.4,496.4 424.7,494.4 
	427.3,493.5 431.1,491.8 433.8,490.9 436.6,490.4 442.5,489.9 445.2,486.6 446.3,484.9 447.3,483.1 448.8,479.3 450,477.3 
	451.5,475.4 454.7,471.8 458.9,467.4 468.4,457.8 472.7,453.7 476.6,449.3 480.1,445.8 482.8,443.3 485.7,441.3 490.2,439.3 
	496.4,435.8 500.9,433.8 507,430.3 511.6,428.3 516.7,425.5 519,424.6 525.1,423.3 527.5,422.6 529.7,421.6 533.7,419.3 
	538.3,417.4 543.4,414.5 545.7,413.6 549.4,412.8 "/>
</svg>
