<?xml version="1.0" encoding="utf-8"?>
<!-- Generator: Adobe Illustrator 24.2.3, SVG Export Plug-In . SVG Version: 6.00 Build 0)  -->
<svg version="1.1" id="Layer_1" xmlns="http://www.w3.org/2000/svg" xmlns:xlink="http://www.w3.org/1999/xlink" x="0px" y="0px"
	 viewBox="0 0 800 533" style="enable-background:new 0 0 800 533;" xml:space="preserve">
<style type="text/css">
	.st0{fill:#F2933D;stroke:#000000;stroke-width:0.4;stroke-miterlimit:9;}
</style>
<polygon class="st0" points="596.3,230 594.9,224.7 593.9,222.2 591,216.6 589.4,212.9 588.1,210.5 586.5,208.2 582,202.6 
	579.7,199.1 577.6,194.2 573.9,187.5 571.9,182.5 568.3,175.8 566.3,170.8 563.4,165.2 562.4,162.7 560.5,156.3 558.7,151.8 
	555.3,150.8 549.9,148.2 544.8,147 540.9,146.1 538.5,145.2 533.1,142.2 528.3,140.1 521.8,136.3 517,134.2 510.6,130.4 
	505.8,128.2 501.5,125.8 499.2,124.8 496.6,124.1 493.9,123.9 486.9,124 478.9,122.5 476.5,121.7 472.1,119.5 469.5,118.6 
	466.5,118 461.9,117.6 447.7,117.5 438.3,117.8 435.3,118.3 432.4,119.1 428.5,121.2 423.5,123.3 421.1,124.5 418.9,125.9 
	414.9,129.3 408.7,129.8 405.6,130.3 402.8,131.3 397.4,133.8 394.5,134.6 391.4,135 383.6,135.4 375.9,135.3 372.1,134.7 
	370.2,134.1 369,133.5 366.8,132 363.9,129.3 350.9,115.6 345.2,110 343.2,108.3 341.1,107 337.3,105.3 335.2,104.2 333.2,102.7 
	330.2,100 323.6,93.3 317.1,86.4 314.6,83.3 310.2,77 309.4,73.9 307.1,66.7 306.1,64.3 303.3,58.6 302.6,56 302.1,53.3 298.2,54.1 
	295.7,55 290.3,58 285.5,60.1 283.3,61.6 280.1,64.2 277.1,67.1 270.2,74.2 266.5,78.4 264.9,80.6 263.4,82.9 261.3,87.8 
	257.7,94.5 255.7,99.5 252.8,105.1 252.3,106.3 251.6,109 250.8,114.2 251.1,126.8 251.1,146.7 251.9,150.7 252.8,153.2 
	255.8,158.8 257.9,163.7 260.2,168 261.1,170.3 261.4,173 261.3,174.3 260.7,176.8 257.9,182.3 255.3,188.4 252.2,193.9 250,198.7 
	248.6,200.7 245.8,203.3 243.6,204.6 239,206.9 235.7,209.4 232.6,212.2 228.6,216.3 225.9,219.5 224.3,221.7 223,224.2 
	221.5,227.9 219.1,232.3 218.1,234.7 217.2,238.8 216.6,245.8 216.6,251.6 216,255.7 215.2,258.3 212.7,264 211.3,269.3 211,275 
	210.6,277.8 209.9,280.4 207.8,284.8 207,287.1 206.7,288.4 206.7,291 206.9,292.3 207.8,294.6 210,299 212.1,303.9 215.7,310.6 
	217.8,315.6 220.1,319 223.7,323.3 228.7,328.4 231.9,331.1 234.2,332.5 235.4,333 242.4,335.5 244.8,336.1 245.2,348.6 245,351.9 
	244.5,355 243.6,357.9 242.2,360.6 239.5,365 237.9,366.8 236.7,367.5 234.1,368.4 228.4,368.9 212.9,368.5 202.6,367.3 
	207.7,376.9 208.4,379.1 208.5,380.2 208.2,382.4 206.3,388 205.7,392.3 205.4,396.9 205.5,401.5 205.7,404.5 206.2,407.5 
	207.1,410.1 209.2,414.6 210.1,417.3 210.6,420.2 211.4,427.8 212.3,432.2 215.5,439.1 217.7,445.5 219.8,449.8 224.9,450.8 
	227.4,451.5 234.1,455 239,457 248,461.2 255.7,463.3 261.2,466 263.6,466.9 270.1,468.4 272.6,469.2 279.3,472.3 282.1,473.1 
	290.9,474.2 293.7,474.7 296.3,475.6 301.8,478.3 306,479.3 309,479.6 313.4,479.7 319.3,479.3 323.4,478.3 329,475.6 331.4,474.8 
	335.4,474.1 340.9,473.8 340.4,471.2 339.5,468.7 338.9,467.6 337.4,465.6 334.6,463.3 329.2,460.4 327.3,458.7 325.8,456.8 
	325.2,455.6 324.3,453 323.9,450.3 323.7,447.4 323.7,440.2 323.9,434.4 324.4,430.2 325.1,427.5 331.3,414.5 333.9,411.1 
	337.8,406.7 346.1,398.3 349.3,395.4 351.5,393.7 353.9,392.4 357.4,390.8 362.9,387.8 364,387.3 366.7,386.6 370.9,386.1 
	375.2,385.9 381.2,386 385.7,386.4 388.6,386.8 391.3,387.6 398.1,390.7 401,391.4 405.5,392 417.6,392.7 422.6,390.7 426.5,388.9 
	426.9,387.2 427.6,385.6 428.9,383.5 430.4,381.6 434.8,376.8 446.7,364.7 452.1,359 455.5,355.1 458.1,351.5 478.1,351.4 
	482.2,351.2 484.9,350.8 487.5,350.2 488.7,349.7 494.2,346.7 498.9,344.5 502.3,342.2 505.4,339.4 509.4,335.3 513,331 
	515.3,327.5 517.9,321.5 520.9,316.5 521.4,311.8 522,300.9 522.5,296.3 523.2,293.4 526.3,286.5 527.6,281.2 528.9,276 
	531.5,270.2 532.3,267.7 532.8,265 533.7,256.7 534.3,254 534.7,252.7 535.9,250.4 539,246.2 544.1,244.9 549.7,242.2 552.2,241.3 
	555.1,240.8 562.4,239.9 565.3,239.4 567.8,238.5 573.4,235.9 576.2,235.2 580.6,234.7 591.2,234.2 597.4,233.7 "/>
</svg>
