<?xml version="1.0" encoding="utf-8"?>
<!-- Generator: Adobe Illustrator 24.2.3, SVG Export Plug-In . SVG Version: 6.00 Build 0)  -->
<svg version="1.1" id="Layer_1" xmlns="http://www.w3.org/2000/svg" xmlns:xlink="http://www.w3.org/1999/xlink" x="0px" y="0px"
	 viewBox="0 0 800 533" style="enable-background:new 0 0 800 533;" xml:space="preserve">
<style type="text/css">
	.st0{fill:#F2933D;stroke:#000000;stroke-width:0.4;stroke-miterlimit:9;}
</style>
<polygon class="st0" points="585.3,233.4 584.9,231.1 584.5,230 582.9,227.1 578.4,220.9 576,216.4 574.2,214.1 572.6,212.9 
	570.8,212 564.4,210.4 563.9,206.7 563.5,199.4 563.1,195.9 562.5,193.6 560.5,189.1 559.9,187.1 559.4,183.7 559,176.6 
	558.6,173.1 558.1,170.9 556.1,166.4 555.4,164.5 554.9,161.3 554.8,156.9 555.3,153.6 556,151.6 558.2,147.2 559.5,144.4 
	560.5,142.5 561.9,140.7 564.3,138.4 566.1,137 568.6,135.5 561.3,126.5 560.1,124.6 557.8,119.9 556.6,118.1 553.1,113.7 
	551.9,111.9 550.9,109.9 549.3,106.1 547.1,101.8 545.5,98.1 544.3,96.4 542.9,95.1 541.3,94 540.3,93.6 537.1,93 532.6,92.9 
	520,93.1 515.8,92.9 514,92.5 513.2,92.2 512.5,91.9 511.7,91 506,87.3 499,81.4 497.3,80.4 494.6,79.1 492.8,78.1 491.2,76.9 
	489.7,75.5 487.6,73.3 485.9,70.8 485,69 483.8,66.1 482.2,63.5 480.2,61.2 478,59.1 476.3,58 475.4,57.5 473.4,56.9 471.3,56.7 
	467,56.6 466.6,55.3 466.3,54.6 465.7,54 465,53.6 464.2,53.3 463.4,53.3 462.5,53.5 460.9,54.2 458.2,56.6 454.2,57.6 449.8,59.8 
	448,60.5 442.9,61.6 441,62.2 435.8,64.9 432.1,66.5 426.9,69.3 425,69.9 420,71.1 418.1,71.8 414.7,73.5 412.8,74.2 411.8,74.4 
	408.6,74.5 406.6,74.2 405.6,73.9 400.4,71.4 394.8,69.5 394.1,69 393.3,67.9 389.7,66.5 383.8,64.7 379.4,62.5 377.5,61.8 
	370.7,60.3 370.1,66.6 369.7,68.8 369.3,69.8 368.2,71.8 366.9,73.6 364.6,76 362.9,77.4 361,78.6 357.3,80.2 352.2,83 348.4,84.6 
	343.4,87.5 339.7,89.2 337,91.1 331.9,95.4 330.1,96.6 326.4,98.3 321.3,101.1 316.6,103 311.1,106.1 310.4,106.6 309.8,107.3 
	309.3,108.2 309.1,109.1 309.1,110.1 309.3,111.1 309.7,111.9 310.3,112.7 311.6,114 313.2,115 314.2,115.3 319.1,116.2 
	321.1,116.8 322.8,117.7 326,120.2 326,124.7 323,125.4 322.1,125.8 320.2,126.8 317.8,128.8 311.5,135 309,137 307.1,138 
	303.5,139.6 299.3,142.1 296.5,143.3 294.7,144.3 293.1,145.5 288.5,149.4 286.8,150.4 285,151.2 279,152.6 277.2,153.4 
	275.6,154.6 274.2,156.1 273,157.7 270.7,161.4 263.4,160.8 260.4,160.1 255.1,157.6 253.2,157 249.2,156.1 247.2,155.5 
	245.4,154.6 240.4,151.5 234.8,160.5 232.7,165.2 230.5,169.6 229.8,171.5 228.7,176.8 228.1,178.8 225.5,184.1 223.8,187.9 
	221.5,192.3 220.8,194.2 220.4,196.4 220.3,198.6 220.3,200.8 220.5,203 221.3,206.1 223.7,211.4 224.2,213.5 224.4,215.6 
	224.2,217.7 223.8,219.8 221.3,225.2 220.3,229.2 217.7,232.5 216.6,234.2 215.6,236.2 214.4,239.2 218,238.2 219.8,237.4 
	221.5,236.4 224.6,233.8 227.7,233.2 229.6,232.5 236,228.6 237.2,227.3 238.7,225 239.8,223.5 241.2,222.2 242.7,221.1 
	246.3,219.3 251.4,216.4 255.1,214.8 260.2,211.9 263.9,210.2 268.2,207.9 270.1,207.2 275.1,206.1 277.1,205.6 282.4,202.9 
	286.1,201.3 287.8,200.3 292.7,197 293.2,196.5 293.4,195.9 293.6,194.9 303.6,191.9 308.6,189 315.3,186 316.9,185.8 317.8,185.9 
	318.6,186.3 320,187.4 321.1,188.8 325.1,197.8 325.7,201 326.5,208.6 327,210.7 328.1,213.4 325,216.9 323.6,218.7 322.4,220.6 
	320.1,225.4 318,228.1 314.1,232.5 301.5,245.1 298.4,248.6 296.4,251.4 295.9,252.4 295.3,254.7 294.9,258.1 294.8,261.6 
	294.9,273.6 294.9,288 295.1,293.8 295.6,296.1 296.3,298.1 298.5,302.5 300.1,306.3 302.8,311.6 303.3,313.6 304.2,319.9 
	305.4,325.2 308.2,325.1 311.1,325.5 312.9,326.3 313.7,326.9 315.1,328.2 316.3,329.8 318.4,334.4 320.7,338.7 322.3,342.6 
	324,346 324.6,347.8 324.9,349.9 324.6,351.9 324,353.7 322.4,357.2 321.8,359.2 320.7,364.4 320,366.3 318.3,369.7 317.5,372.7 
	317.1,378 316.5,380.9 316.1,381.8 315.5,382.6 314.6,383.2 313.7,383.7 312.6,383.9 310.5,384.1 308.3,384 306.1,383.6 304,383 
	300.2,380.9 298.5,380.5 296.7,380.7 295.9,381.1 294.6,382.3 291.4,387.8 289.5,392.6 287.3,397 286.6,399 285.4,404.2 
	284.9,406.2 282.9,410.7 282.2,412.7 281.8,414.8 281.6,418.1 281.7,427.4 283,429.7 285,431.8 286.5,433 290.7,435.4 292.8,437.4 
	294.4,439.9 298.3,448 298.8,450.3 299.2,453.9 299.2,460 299.1,468.6 298.9,472.3 298.6,474.7 298,476.8 297.1,479.5 332.6,479.7 
	337.6,479.4 339.8,479 341.9,478.1 345,475.1 348.1,472.5 348.9,469.8 350.9,465.5 353,457.3 354.9,452.8 355.6,450.7 356,447.3 
	356.4,437.9 356.8,435.6 357.2,434.5 357.6,433.4 358.8,431.5 361,429 363.5,426.9 365.5,425.8 366.6,425.4 370.1,424.9 
	373.7,424.8 388.4,425 402.9,424.9 408.7,425.2 411,425.5 413.2,426 418.4,428.5 425.2,430.3 427.3,431.2 431.5,433.1 434.9,433.9 
	438.5,434.2 444.6,434.3 459.4,434.1 466.8,433.9 470.7,434.1 474,434.1 476.1,434 478.2,433.6 480.1,432.9 484.3,430.5 
	488.1,428.9 491.4,427 493.2,426.1 495.1,425.5 499.2,424.7 501.2,424.1 506.3,421.4 510.1,419.8 515.1,416.9 518.9,415.2 
	523.9,412.3 527.7,410.7 531.9,408.2 536.5,406.1 541.5,403.2 545.3,401.7 552.5,398.1 555,396.8 559.1,394.2 561.9,392.9 
	563.7,391.9 565.3,390.7 569.9,386.8 572.4,385.1 578.8,382.6 582.6,381.5 581.5,377.3 580.6,373 580,371 579.2,369.1 577.4,365.7 
	575.7,361.8 574.6,360 573.2,358.3 567.3,351.8 565.2,349.3 564.1,347.5 562.4,343.7 559.6,338.4 558.1,334.6 556.3,331.1 
	555.4,329.3 554.8,327.2 554,323 553.4,321 550.9,315.7 550.4,313.6 550.2,311.5 550.4,309.3 550.6,308.3 551,307.2 552,305.3 
	554,302.8 559.3,297.2 561.4,294.7 562.5,292.9 564.2,289.1 565.4,287.3 567.4,284.7 572.6,279 574.6,276.5 575.7,274.7 
	577.4,270.9 579.1,268.4 581.8,265.5 585,262.8 585.4,254.3 585.6,238.3 "/>
</svg>
