<?xml version="1.0" encoding="utf-8"?>
<!-- Generator: Adobe Illustrator 24.2.3, SVG Export Plug-In . SVG Version: 6.00 Build 0)  -->
<svg version="1.1" id="Layer_1" xmlns="http://www.w3.org/2000/svg" xmlns:xlink="http://www.w3.org/1999/xlink" x="0px" y="0px"
	 viewBox="0 0 800 533" style="enable-background:new 0 0 800 533;" xml:space="preserve">
<style type="text/css">
	.st0{fill:#F2933D;stroke:#000000;stroke-width:0.4;stroke-miterlimit:9;}
</style>
<polygon class="st0" points="634.9,144.5 619.9,128.9 617.7,126.6 615.3,124.6 613.6,123.5 610,121.8 605.2,119.1 601.6,117.5 
	596.7,114.8 593.1,113.3 589.1,111 584.8,109 584,108.5 582.6,107.2 581.5,105.7 581,104.8 580.4,102.9 580,99.7 580,93.3 
	580.3,87.9 580.6,85.8 581.2,83.8 583.2,79.6 583.5,78.7 584,76.8 585,68.3 585.7,64 582.2,65.3 576.5,67 571.5,69.4 568.3,70.1 
	562.8,70.8 560.7,71.2 558.8,71.8 554.7,73.8 552.5,74.3 548.1,74.7 535.5,74.7 533.3,74.9 531.1,75.3 529.2,76 525.2,78.2 
	521.6,79.8 516.7,82.5 512.2,84.3 509.3,85.8 508.9,90.3 509,92.7 509.3,95 510,97 511.5,100.4 512.1,102.4 512.6,104.6 
	513.4,110.2 513.8,112.4 514.5,114.2 515.5,116.4 516.1,118 516.1,119.7 515.8,120.5 515.4,121.3 514.6,121.9 513.8,122.4 
	512,122.8 506,123.5 504.1,124.1 499.9,126 496.6,126.7 490.9,127 474.6,127 470.1,126.7 466.9,125.9 461,122.8 456.4,120.8 
	454.5,121.5 452.6,121.9 447.3,122.4 444.9,125 443.5,126 442.6,126.4 440.7,126.8 436.3,127.1 427.1,126.9 422.7,126.4 
	420.6,125.8 416.4,123.8 414.6,123.2 412.5,122.7 410.3,122.5 404.6,122.3 394.4,122.4 391.1,122.5 387.9,123 386,123.7 
	381.9,125.9 378.3,127.5 373.5,130.3 370,131.9 365.1,134.7 361.5,136.3 356.7,139 353.1,140.6 348.2,143.4 344.6,144.9 
	338.3,148.1 339.3,151.1 339.9,153.3 340.3,155.7 340.4,159.3 340.2,161.5 339.9,162.6 339.4,163.6 338.8,164.5 338.1,165.1 
	337.3,165.5 335.4,166.1 332.3,166.3 311.1,165.7 305.7,165.8 303.6,166.2 301.7,167 301,167.6 299.6,168.9 298.6,170.6 298,172.6 
	297.9,174.6 298.1,176.7 298.7,178.7 299.2,179.7 300.4,181.5 307.2,188.8 309.2,191.4 310.2,193.3 311.9,196.9 314.2,201.1 
	316.2,206.8 315.4,209.7 314.8,213.8 308.4,220.4 304.8,223.8 302.6,225.6 301.1,226.4 298.2,227.6 297.4,228.1 295.9,229.2 
	293,231.9 285.3,239.9 283.8,241.2 282.3,242.5 280.7,243.5 277.1,245 270.3,248.2 265.8,250.9 263.8,252 260.7,252.8 256.3,253.1 
	251.9,252.8 248.7,252.3 246.7,251.5 242.7,249.6 239.5,248.8 233.8,248.5 220.2,248.5 201.4,248.4 196,248.7 192.9,249.4 
	188.8,251.4 187,252 182.2,253.1 180.3,253.8 178.5,254.8 176.7,256.2 174.3,258.4 171.2,261.7 168.4,265.2 165,270.9 170.5,270.3 
	175.7,270.1 179.8,270.2 182.8,270.7 184.8,271.6 186.6,272.8 189.1,275 192.1,278.2 194.9,281.8 195.9,283.7 196.2,284.7 
	197.8,291.6 199.7,295.9 200.3,297.8 200.6,299.8 201.2,306 201.6,308.1 202.2,309.9 203.9,314 204.3,316.1 205.6,328.5 
	206.1,330.8 207.9,334.9 208.6,337.1 209,339.5 209.3,343.2 209.2,390 208.8,396.2 207.8,400.6 215.9,400.9 218.2,401.1 
	220.4,401.5 222.5,402.2 226.4,404.3 230.9,406.1 233.1,407.2 235.6,407.8 239.9,409.1 245.7,410.3 247.5,411 250.8,412.6 
	252.7,413.3 255.9,413.8 263.5,414.2 266.7,414.7 268.6,415.4 272.7,417.4 275.6,418.1 278.7,418.3 281.7,418 284.6,417.3 
	287.7,415.7 289.3,415.1 291.2,414.8 293.1,415.1 294,415.5 295.8,416.6 301.3,421.4 306.3,425.1 309.5,418.1 311,414.3 
	312.6,411.8 316.7,407.1 323.3,400.4 325.7,398.5 327.5,397.5 328.3,397.2 330.1,396.8 335.6,396.3 338.4,395.8 340.2,395.2 
	344.3,393.2 346.4,392.6 348.5,392.3 351.8,392.2 355.1,392.2 357.3,392.4 360.4,393.2 364.6,395.2 366.4,395.9 371.1,397 
	373,397.6 374.7,398.5 382.6,403.3 383.2,404.5 385.1,406.4 386.9,408.7 389.2,410.7 391.3,413 395.1,415.6 401.3,420.6 
	403.2,421.8 409.2,423.7 410,424.2 412.5,425.9 413.3,426.3 416.4,427 423,427.4 425.1,427.8 426.9,428.5 429.4,430.2 430.2,430.6 
	432,431.1 436.9,431.9 438.7,432.4 440.1,433.3 442.6,435.3 450.5,439.8 453,441 457.9,443.9 461.4,445.4 465.5,447.7 466.3,448.1 
	468,448.6 472.3,449.4 474,449.9 475.7,450.7 478.9,452.5 482.5,454.1 484.8,455.8 489.2,459.6 490.8,460.8 495.8,463.5 
	497.3,464.7 500.1,467.1 501.5,468.2 503,468.9 503.9,469 504.7,469 506.3,468.5 511.3,466.2 512.8,465.3 515.1,463.5 520.7,457.8 
	523.7,455.3 525.3,454.2 528.1,452.9 529.6,452 531.1,450.9 533.3,449.1 529.2,444.7 526.7,441.6 525.7,440 524.5,437.3 
	523.5,435.6 522.4,434 519.3,430.3 518.2,428.7 517.3,427 517,426 516.6,424 516.6,421.9 516.9,419.8 517.3,418.8 517.7,417.9 
	518.7,416.3 521,413.2 523,410.6 517.7,410.1 514.6,409.6 512.7,409 510.9,408 509.3,406.8 507.7,405.4 504,401.6 502,399.2 
	500.9,397.5 500.5,396.5 500.2,395.5 499.9,393.4 499.9,391.4 500.2,389.3 500.9,387.5 502.6,384.1 503.3,382.3 504.6,376.4 
	506.3,371.5 506.3,369.9 504.9,365.9 504.5,363.9 504.3,361.9 504,357.6 503.6,355.6 503.1,353.7 501.1,349.4 500.5,347.5 
	499.5,342.5 498.9,340.6 498.1,338.9 496.3,335.5 494.8,331.9 492.6,327.7 491.9,325.8 491.4,322.7 491.3,320.6 491.4,318.5 
	491.9,315.4 492.6,313.5 494.2,311.1 496.9,308.1 500.5,304.6 502,303.3 503.6,302.2 505.1,301.4 508,300.2 512.8,297.4 
	516.4,295.9 521.3,293.1 524.9,291.6 529.7,288.8 533.3,287.3 537.3,284.9 541.7,282.9 543.3,281.9 546.3,279.4 548.3,277.3 
	550.3,275 552.2,272.6 554.5,268.6 555.4,266.6 558.2,261.6 559.7,257.9 562.3,252.8 562.9,250.9 564.3,243.9 566.7,243.9 
	568.1,243.7 568.7,243.4 569.4,242.5 569.5,241.3 571.7,237 572.7,235.3 577.6,229.1 578.7,227.6 580.8,223.1 581.9,221.4 
	583.9,219 588.8,213.5 590.8,211.1 591.9,209.3 593.5,205.7 594,204.8 595.1,203.1 597.2,200.7 600.1,197.6 603.2,194.8 
	605.7,193.1 609.2,191.5 610.9,190.4 613.3,188.4 617.8,184 620.1,181.9 622.6,180.2 625.2,179 626.8,178 628.3,176.8 629.5,175.4 
	630.4,173.7 631.6,171 633.8,166.8 634.1,165.9 634.6,163.9 634.9,161.8 635,158.6 "/>
</svg>
