<?xml version="1.0" encoding="utf-8"?>
<!-- Generator: Adobe Illustrator 24.2.3, SVG Export Plug-In . SVG Version: 6.00 Build 0)  -->
<svg version="1.1" id="Layer_1" xmlns="http://www.w3.org/2000/svg" xmlns:xlink="http://www.w3.org/1999/xlink" x="0px" y="0px"
	 viewBox="0 0 800 533" style="enable-background:new 0 0 800 533;" xml:space="preserve">
<style type="text/css">
	.st0{fill:#F2933D;stroke:#000000;stroke-width:0.4;stroke-miterlimit:9;}
</style>
<polygon class="st0" points="687.7,178.6 687.1,176.5 685.7,173.8 681.8,168.8 680.8,164.9 679.4,161.4 678.5,159.7 677.9,159 
	676.5,157.8 671.6,154.8 669,153.7 663.4,152.2 662.7,151.8 660.1,149.9 659.3,149.5 657.3,148.9 652.1,148.2 650.2,147.6 
	649.4,147.2 646.8,145.3 646.1,144.9 639.6,143 634.5,140.2 630.7,138.4 628,136.5 623.8,133 621,131.2 619,130.5 611.6,128.6 
	612.2,125.2 612.5,119.8 612.6,102.1 602.8,102.6 592.5,102.5 590,102.3 587.5,101.8 585.3,101 581.1,99.1 577.5,98.3 573.7,97.9 
	569.9,97.9 555.4,98.1 543.9,97.9 508.5,98 502.3,97.7 499.8,97.4 497.5,96.8 492.2,94.4 490,93.8 486.4,93.4 476.7,93.1 
	473.2,92.7 470.9,92.1 465.6,89.8 462.1,89 457.3,88.6 450.2,88.5 455.4,96.3 456.3,98.2 456.6,99.2 457,101.4 457.2,104.7 
	457,108.1 456.6,110.2 455.9,112.2 453.9,116.7 452.4,122.9 451.7,124.8 451.2,125.7 450,127.3 448.5,128.6 446.9,129.6 444.2,131 
	441.9,132.7 439.8,134.9 436.8,139 434.3,140.3 430.1,142.9 425.4,145 421.2,147.6 417.4,149.3 413.1,151.5 411.2,152.2 
	407.8,152.7 400.8,153.1 397.4,153.5 394.4,154.4 390,156.4 387.8,157 385.5,157.3 382,157.5 378.4,157.4 374.8,157 371.2,156.3 
	368.8,162.3 367.4,166.3 364.5,171.6 363,175.6 360.1,182.3 359.6,185.3 359.3,190.2 359.2,200.2 359.4,217.6 359.2,221 
	358.7,223.2 357.8,225.1 356.4,226.3 350.9,229.7 346.3,231.8 344.5,233.1 342,235.3 340.5,237 339.2,238.9 326,240.6 324,241.2 
	319.7,243.4 317.7,244.1 314.3,244.7 310.8,244.7 307.3,244.1 305.2,243.2 302.5,241.1 296.7,235.2 294.1,233 292.1,231.8 
	291.1,231.4 288.8,230.9 284.2,230.6 280.7,230.7 278.4,231 275.2,231.8 270.8,234 267.9,234.9 263.6,235.4 255.6,235.4 
	251.6,235.8 249.5,236.2 247.7,236.9 244.2,238.7 242.3,239.4 240.3,239.7 237.1,239.6 235.1,239.1 234.2,238.7 229.9,236.4 
	225.3,234.3 219,230.7 218,233.5 217.5,235.6 217,240.7 216.9,248.4 217.1,267.7 217,271.4 216.7,273.9 216,276.3 215.5,277.3 
	213.6,280.1 210.4,283.5 206,287.4 204.5,287.4 202.7,287.8 197.6,289.8 193,290.9 190.8,291.5 185.5,294 181.9,294.8 175.7,295.1 
	145.3,295 136.6,295.4 130.1,301.9 126.7,305.8 124.9,308.2 124,309.9 122.7,313 121.6,314.7 119.6,317.1 114,323 112.9,324.5 
	112.4,325.3 112.1,326.1 112,327.1 112.1,328 112.4,328.9 113.4,330.5 115.3,332.7 122.1,339.3 125,342.3 126.2,344 126.8,344.9 
	127.2,345.8 127.8,347.8 128.1,349.8 128.2,352.9 128,356 127.5,358 126.8,359.9 125.7,361.6 123.3,364.9 121.1,367.6 122.5,371.1 
	124,376.2 124.8,378.2 127.1,382.6 128.7,386.5 131.5,391.8 133.1,395.7 135.9,400.9 137.6,404.8 139.5,407.6 143,412 144.2,413.8 
	145.3,415.7 146.5,418.6 148.8,423 149.6,425 150.7,429.2 151.6,432 157.5,433.5 159.4,434.2 162.9,435.9 164.9,436.6 168.2,437.1 
	176.3,437.6 179.6,438.1 181.6,438.8 186,440.9 191,442.6 195.1,444.5 199.3,434.1 199.7,433.2 200.9,431.2 202.2,429.5 
	204.5,426.9 219.1,411.9 222.4,408.7 225,406.7 226.9,405.6 230.6,404 234.9,401.6 238.7,400 240.6,398.8 242.3,397.4 243.9,395.9 
	245.3,394.2 246.5,392.3 246.9,391.3 247.1,390.2 247.1,388.1 246.6,386.2 244.9,382.8 244.2,380.9 243.8,378.8 243.5,376.6 
	243.4,369.7 243.3,355.9 243.4,351.4 243.8,348.1 244.4,346 244.8,345 250.4,335.8 256.7,336.6 259.9,337.1 261.8,337.8 
	266.2,339.9 268.1,340.5 273.2,341.7 275.1,342.4 279.4,344.7 283.2,346.4 288.2,349.4 292,351.1 294.6,353 298.9,356.7 300.6,358 
	302.5,359.1 305.3,360.3 308.7,362.2 310.5,363 313.6,363.8 318.9,364.3 322,364.9 323.9,365.5 328.2,367.6 330.4,368.2 
	334.8,368.6 346.4,368.7 350.9,369 354.1,369.7 358.5,371.8 360.4,372.5 363.5,373 367.8,373.3 373.8,373.3 378.5,373.8 
	380.7,374.4 386,376.8 388.2,377.4 390.5,377.8 394.1,378 400.1,378.1 407.3,377.9 410.7,377.2 412.8,376.3 414.7,375 419.1,371.5 
	421.6,369.9 423.9,369.2 430.9,367.9 435.4,366.3 436.3,365.4 437.9,364.7 441,364.2 444.5,364 448.1,364.2 450.6,364.6 
	452.9,365.2 455.9,366.6 457.6,367.6 458.5,367.9 461.5,368.6 467.2,368.9 473,368.8 475.2,368.5 477.4,368.1 479.4,367.4 
	483.8,365.3 485.9,364.7 489.3,364.4 496.3,364 499.6,363.5 501.6,362.8 506,360.7 514,358.6 519.3,356.1 521.3,355.5 526.4,354.4 
	528.3,353.6 532.6,351.5 534.6,350.9 538.7,350.1 540.7,349.5 545.9,346.8 549.7,345.1 554.8,342.2 558.5,340.4 560.3,339.1 
	565.4,334.9 568.2,333.2 571.3,332.3 577.6,331.4 584,332 592.5,332.1 601.1,332.2 605.4,332.7 608.3,333.6 612.6,335.7 
	614.7,336.3 616.9,336.7 623.8,337 633,336.9 636.4,336.6 638.5,335.9 639.5,335.4 641.3,334.1 643,332.6 644.5,331 645.9,329.2 
	647.1,327.3 649.3,322.5 650.5,320.7 655.2,314.4 658.1,308.7 659.4,306.9 663.7,301.6 664.8,299.8 666.6,295.9 668.3,292.5 
	669,290.7 669.2,289.6 669.2,287.6 669,286.5 666.4,280.2 665,274 664.3,272 662.2,267.5 660.2,259.2 658.1,254.7 657.4,252.7 
	655.6,242.7 657.8,239.7 659.8,237.3 663.4,233.5 668.6,228.1 670.9,225.9 673.3,224 674.9,222.8 676.5,222 681.1,215.2 
	682.5,212.4 683.3,209 683.7,200.6 684.1,197.1 685,194 687.1,189.5 687.6,187.4 688,185.2 688,180.8 "/>
</svg>
