<?xml version="1.0" encoding="utf-8"?>
<!-- Generator: Adobe Illustrator 24.2.3, SVG Export Plug-In . SVG Version: 6.00 Build 0)  -->
<svg version="1.1" id="Layer_1" xmlns="http://www.w3.org/2000/svg" xmlns:xlink="http://www.w3.org/1999/xlink" x="0px" y="0px"
	 viewBox="0 0 850 567" style="enable-background:new 0 0 850 567;" xml:space="preserve">
<style type="text/css">
	.st0{fill:#F2933D;stroke:#000000;stroke-width:0.4;stroke-miterlimit:9;}
</style>
<polygon class="st0" points="663.9,282.4 663,277.9 662.3,275.7 661.5,273.7 659.5,270 657.8,265.9 656.6,264 654.6,261.5 
	651.4,258.5 648.8,256.7 644.8,254.9 642.9,253.7 640.2,251.5 636.8,248.2 633.7,244.7 631.8,241.8 630.9,239.6 630.3,236.3 
	627.7,235.3 626.3,234.1 624.1,230.8 618.9,224.4 617.6,222.4 616.5,220.3 615.3,217.2 613.3,213.4 612.5,211.5 611.9,209.3 
	611.5,207 610.4,202.6 608.2,197.8 607.5,195.8 606.3,190.2 605.7,188 603.2,182.2 602.6,180 601.9,175.7 602.1,170.6 602.1,168.2 
	601.8,165.8 601.2,163.6 600.1,161.4 597.9,158.6 595.3,156.1 592.5,154.1 588.5,152.3 583.9,149.9 581.8,149.1 579.4,148.7 
	573.2,148.4 553.1,148.6 549.5,148.3 547.1,147.9 545,147.1 535.6,142.3 533,140.3 529.4,137.1 527.1,135.4 525.5,134.5 522.4,133 
	519.8,131.2 517.3,129 514.9,126.6 510.2,121.8 507.2,118.4 505.1,115.8 504,114 502.3,109.8 499.3,104.3 498,100.9 497.1,99.2 
	495.9,97.4 493.8,94.9 491.2,94.2 489.6,93.7 485.2,91.3 483.4,90.8 481.6,90.7 480.8,90.8 479,91.5 478.1,92 476.4,93.3 
	472.4,96.8 470.7,98.1 469,99.1 465.9,100.6 463.3,102.4 460,105.4 452.9,112.7 449.7,115.8 447.2,117.7 445.5,118.7 442.3,120.1 
	440.5,121.3 438,123.4 431.6,129.6 429.2,131.7 427.4,132.9 424.2,134.3 422.5,135.3 420,137.2 415.8,140.9 413.2,142.7 
	409.3,144.6 404.9,147.2 402.8,147.9 400.6,148.3 398.3,148.3 397.2,148.2 395,147.5 394,147 392,145.6 390.3,144 388,141.3 
	386.1,138.3 384.3,134.2 383.2,132.4 381.2,129.8 378.3,126.4 379.5,123.5 380.6,119.1 377.3,116.4 375.5,115.3 374.3,114.9 
	370.7,114.2 367,114.2 364.5,114.6 362.2,115.2 357.6,117.5 354.4,118.5 349.6,119 339.8,119.1 336.2,119.6 335.1,119.9 333,120.7 
	331.2,121.9 328.8,123.9 326.3,126.1 324.6,127.3 322.9,128.3 319.7,129.7 317.9,130.9 312.1,135.8 310.4,137 308.7,138 
	305.5,139.4 303.8,140.6 301.3,142.7 295.7,148.2 293.3,150.4 290.6,152.2 286.7,154.1 284.9,155.2 282.4,157.3 276.8,162.8 
	274.4,165 271.7,166.8 267.8,168.7 266,169.8 263.5,171.9 257.2,178.2 254.7,180.2 253.7,180.8 252,181.6 248.5,182.3 245.2,185.2 
	243.4,186.4 241.4,187.4 237.2,189.1 237.1,190.3 236.8,190.9 235.7,191.9 231.7,193.9 228.8,194.9 229.4,200.6 229.6,207.5 
	229.3,242.2 229.6,246.2 230.1,248.8 231.2,251.1 231.9,252.2 233.7,253.9 235.7,255.2 239.5,256.9 245.3,260.2 244.7,265.2 
	244.8,267.4 245.3,270.7 241,278.3 240.1,280.3 239.4,282.4 238.2,288 237.4,290 235.7,292.8 232.3,297.4 231.2,301.5 229,307.8 
	227.7,310.5 225.6,313.8 220.8,318.1 217.9,321.3 216.1,324 214.3,328.1 213.2,330 211,332.7 204.6,339.7 203.2,341.5 202,343.5 
	200.2,347.6 197.2,353.1 195.5,357.3 193.5,361 192.7,363 192,365.2 191.2,369.7 190.6,371.8 188.3,376.6 187.6,378.7 187.1,380.9 
	186.7,384.3 186.9,393.4 186.8,401.9 186.3,406 185.1,410.5 186.1,413.9 187.5,419.5 188.3,421.5 190.2,425.3 190.9,427.4 
	191.4,429.7 191.6,432.1 191.6,438.1 191.1,442.8 190.4,445 190,446 187.6,450.7 187,452.9 186.6,455.2 186.4,458.5 186.6,460.6 
	186.8,461.5 187.3,462.5 187.9,463.3 188.9,463.9 189.8,464.2 190.8,464.2 192.7,463.7 196.7,461.3 200.6,459.4 203.5,457.3 
	208.8,452.2 215.4,444.9 218.2,441.1 220.1,437.1 221.1,435.2 222.4,433.6 224.1,432.2 226.1,431.3 228.2,430.8 231.6,430.6 
	235,430.8 238.4,431.7 240.3,432.6 243.8,434.7 247.9,436.4 252.3,439.1 257.1,441.4 259.5,443.4 261.4,445.9 263.3,449.9 
	264.5,451.8 268.8,457.5 270.2,459.4 273,465.5 275.9,470.6 278.2,476.3 290.8,474.4 292.8,473.9 294.8,472.8 299.6,469.4 
	301.1,467.9 302.6,466.3 303.7,464.6 305.6,460.6 306.8,458.7 309,455.9 315.3,448.9 317.4,446.2 322.2,436.4 322.9,434.2 
	323.5,430.6 323.6,419.2 324,414.2 324.6,411.8 326.8,407.1 327.5,405 327.9,402.7 328.6,395.7 329,393.5 329.7,391.4 332.1,386.7 
	334.3,381.6 336.1,378.8 338.9,374.8 340.8,373.4 342.5,372.1 349.7,365.4 352.3,363.6 356.3,361.8 361.7,358.7 365.7,357 
	371.2,353.9 375.2,352.1 380.6,349 385.6,346.9 392.3,342.9 395.5,342.8 398.7,342.1 400.6,341.3 404.2,339.3 408.2,337.6 
	413.7,334.6 415.8,334 420.2,333.1 422.3,332.4 426.9,330.2 428.9,329.5 434.3,328.3 436.4,327.6 441.9,324.7 445.9,323 
	450.5,320.5 452.5,319.7 455.7,319 460,317.8 465.5,315.1 467.8,314.5 470.2,314.1 476.3,313.8 482.5,313.9 486,314.3 488.3,315.1 
	489.2,315.6 490.9,316.9 492.2,318.5 493.3,320.4 497.1,329.2 498.7,336.9 499.6,338.9 500.9,340.6 502.4,342 504.2,343.1 
	507.1,344.5 512.6,347.4 516.8,348.8 521.9,348.4 528.9,348.3 588.7,348.3 592.8,348 595.4,347.5 597.8,346.7 602.3,344.7 
	606.1,343.8 607.5,343.7 612.9,343.4 625.4,343.5 630.1,348.4 632.9,344.9 634,343.1 635,341 636.7,336.6 638.4,333.3 639.1,331.1 
	640,326.7 640.6,324.5 643.3,318.7 643.9,316.5 645,310.9 645.7,308.8 647.9,304 648.4,301.9 649.2,297.5 650,295.3 650.5,294.4 
	651.1,293.5 652.5,292 654.2,290.7 660.9,287.9 664.9,286.5 "/>
</svg>
