<?xml version="1.0" encoding="utf-8"?>
<!-- Generator: Adobe Illustrator 24.2.3, SVG Export Plug-In . SVG Version: 6.00 Build 0)  -->
<svg version="1.1" id="Layer_1" xmlns="http://www.w3.org/2000/svg" xmlns:xlink="http://www.w3.org/1999/xlink" x="0px" y="0px"
	 viewBox="0 0 800 533" style="enable-background:new 0 0 800 533;" xml:space="preserve">
<style type="text/css">
	.st0{fill:#F2933D;stroke:#000000;stroke-width:0.4;stroke-miterlimit:9;}
</style>
<g>
	<polygon class="st0" points="670.3,81.7 668.3,77.1 667.6,75.2 667.1,73 666.4,67.6 662.5,67.2 659.4,66.6 657.4,65.9 653,63.8 
		649,62.7 645.9,62 644,61.2 639.7,58.8 635.9,57.1 630.7,54.3 628.5,53.7 625.1,53.3 619.2,53.3 616.8,53.5 614.6,54 612.6,54.7 
		608.2,57 603.4,58.8 601.5,59.8 597.6,61 591.1,63.5 585.9,66.4 582.1,68.1 576.8,70.9 568.8,73 564.4,75.2 562.3,75.9 558.9,76.4 
		555.4,76.6 525.4,76.5 521.1,75 519,74.4 512.3,69.7 509.6,68.2 507.6,67.6 505.4,67.2 498.6,66.6 492.5,70.3 490.7,71.1 
		487.6,71.8 482.6,72.2 480.2,72.6 478,73.4 473.7,75.4 470.2,76.1 466.5,76.4 461.4,76.5 451.7,76 445.7,76.3 435.7,76.4 
		430.1,76.4 417.9,76.4 411.2,76.2 407.3,75.8 403.7,74.9 402.3,82 401.4,85.2 400.3,87.2 396.2,92.5 395,94.4 394.2,96.4 
		393.4,99.5 397.8,104.1 400,107 400,106.8 400.1,106.8 400.1,106.7 400.5,106.7 400.5,106.6 400.5,106.6 400.5,106.7 400.9,106.7 
		400.9,106.8 401.2,106.8 401.2,106.9 401.7,106.9 401.7,106.8 402.2,106.8 402.2,106.7 403.1,106.7 403.1,106.8 403.2,106.8 
		403.2,106.7 403.4,106.7 403.4,106.8 404.3,106.8 404.3,106.9 404.4,106.9 404.4,106.8 404.9,106.8 404.9,106.9 405.2,106.9 
		405.2,107 405.4,107 405.4,107.1 405.6,107.1 405.6,107.2 405.8,107.2 405.8,107.1 405.9,107.1 405.9,107 406,107 406,106.9 
		406.7,106.9 406.7,107 406.9,107 406.9,107.1 407.1,107.1 407.1,107.2 407.2,107.2 407.2,107.3 407.3,107.3 407.3,107.5 
		407.8,107.5 407.8,107.6 408.3,107.6 408.3,107.7 408.3,107.7 408.3,107.6 408.7,107.6 408.7,107.5 408.9,107.5 408.9,107.3 
		409.1,107.3 409.1,107.2 409.2,107.2 409.2,107.1 410.3,107.1 410.3,107.3 410.6,107.3 410.6,107.5 410.8,107.5 410.8,107.6 
		411,107.6 411,107.7 411.2,107.7 411.2,107.8 411.5,107.8 411.5,107.7 412.2,107.7 412.2,107.6 412.7,107.6 412.7,107.5 
		413.7,107.5 413.7,107.6 414.2,107.6 414.2,107.5 414.6,107.5 414.6,107.3 414.9,107.3 414.9,107.5 415.1,107.5 415.1,107.6 
		415.1,107.6 415.1,107.7 415.3,107.7 415.3,107.8 415.4,107.8 415.4,108 415.6,108 415.6,108.1 415.8,108.1 415.8,108.3 
		416.6,108.3 416.6,108.5 417.1,108.5 417.1,108.6 417.7,108.6 417.7,108.7 417.8,108.7 417.8,108.8 417.9,108.8 417.9,108.9 
		418,108.9 418,109 418,109 418,109.1 418.1,109.1 418.1,109.2 418.2,109.2 418.2,109.3 418.3,109.3 418.3,109.4 418.4,109.4 
		418.4,109.6 418.5,109.6 418.5,109.8 418.5,109.8 418.5,109.9 418.7,109.9 418.7,110 418.8,110 418.8,110.1 419,110.1 419,110.3 
		419,110.3 419,110.4 419.1,110.4 419.1,110.6 419.2,110.6 419.2,110.7 419.3,110.7 419.3,110.8 419.4,110.8 419.4,111 419.5,111 
		419.5,111.1 419.6,111.1 419.6,111.2 419.8,111.2 419.8,111.3 419.9,111.3 419.9,111.4 420,111.4 420,111.5 420.1,111.5 
		420.1,111.7 420.4,111.7 420.4,111.8 420.5,111.8 420.5,111.9 420.6,111.9 420.6,112 420.7,112 420.7,112.1 420.8,112.1 
		420.8,112.2 421.1,112.2 421.1,112.3 421.2,112.3 421.2,112.4 421.4,112.4 421.4,112.5 421.4,112.5 421.4,112.7 421.6,112.7 
		421.6,112.8 421.7,112.8 421.7,112.9 421.9,112.9 421.9,113 421.9,113 421.9,113 421.9,113.1 422.1,113.1 422.1,113.2 422.2,113.2 
		422.2,113.3 422.4,113.3 422.4,113.4 422.4,113.4 422.4,113.5 422.6,113.5 422.6,113.6 422.7,113.6 422.7,113.8 422.9,113.8 
		422.9,113.9 422.9,113.9 422.9,114 423.1,114 423.1,114.1 423.2,114.1 423.2,114.2 423.4,114.2 423.4,114.3 423.4,114.3 
		423.4,114.4 423.6,114.4 423.6,114.5 423.7,114.5 423.7,114.6 423.8,114.6 423.8,114.8 423.9,114.8 423.9,114.9 424,114.9 424,115 
		424.1,115 424.1,115.1 424.3,115.1 424.3,115.2 424.3,115.2 424.3,115.3 424.4,115.3 424.4,115.4 424.6,115.4 424.6,115.5 
		424.7,115.5 424.7,115.6 424.8,115.6 424.8,115.7 424.9,115.7 424.9,115.9 425.1,115.9 425.1,116 425.3,116 425.3,116.1 
		425.9,116.1 425.9,116.2 426.2,116.2 426.2,116.3 426.5,116.3 426.5,116.4 426.6,116.4 426.6,116.5 426.7,116.5 426.7,116.6 
		426.8,116.6 426.8,116.7 426.8,116.7 426.8,116.9 426.9,116.9 426.9,117 427,117 427,117.2 427.1,117.2 427.1,117.3 427.2,117.3 
		427.2,117.4 427.3,117.4 427.3,117.5 427.3,117.5 427.3,117.6 427.4,117.6 427.4,117.7 427.7,117.7 427.7,117.8 427.9,117.8 
		427.9,118 428,118 428,118.2 428.2,118.2 428.2,118.4 428.4,118.4 428.4,118.5 428.5,118.5 428.5,118.6 428.7,118.6 428.7,118.7 
		428.8,118.7 428.8,118.8 428.9,118.8 428.9,119 429,119 429,119.2 429.2,119.2 429.2,119.3 429.4,119.3 429.4,119.5 429.5,119.5 
		429.5,119.8 429.6,119.8 429.6,120.1 429.7,120.1 429.7,120.2 429.7,120.2 429.7,120.4 429.8,120.4 429.8,120.5 430,120.5 
		430,120.6 430.2,120.6 430.2,120.7 430.6,120.7 430.6,120.8 430.7,120.8 430.7,120.9 430.8,120.9 430.8,121.1 430.9,121.1 
		430.9,121.2 431.1,121.2 431.1,121.3 431.1,121.3 431.1,121.4 431.3,121.4 431.3,121.5 431.4,121.5 431.4,121.6 431.6,121.6 
		431.6,121.7 431.6,121.7 431.6,121.8 431.8,121.8 431.8,121.9 431.9,121.9 432.1,121.9 432.1,122.1 432.2,122.1 432.2,122.2 
		432.5,122.2 432.5,122.3 432.7,122.3 432.7,122.4 432.8,122.4 432.8,122.5 432.9,122.5 432.9,122.6 433.1,122.6 433.1,122.7 
		433.4,122.7 433.4,122.8 433.9,122.8 433.9,122.9 434,122.9 434,123 434.3,123 434.3,123.2 434.5,123.2 434.5,123.3 434.5,123.3 
		434.5,123.4 434.7,123.4 434.7,123.5 435,123.5 435,123.6 435,123.6 435,123.7 435.3,123.7 435.3,123.8 435.4,123.8 435.4,123.9 
		435.5,123.9 435.5,124.3 435.5,124.3 435.5,124.8 435.5,124.8 435.5,125.1 435.4,125.1 435.4,125.4 435.2,125.4 435.2,125.5 
		435.3,125.5 435.3,125.7 435.4,125.7 435.4,125.8 435.6,125.8 435.6,125.9 435.8,125.9 435.8,126 436,126 436,126.3 436.1,126.3 
		436.1,126.6 436.2,126.6 436.2,126.7 436.3,126.7 436.3,127 436.4,127 436.4,128.1 436.2,128.1 436.2,128.5 436.1,128.5 
		436.1,128.6 436,128.6 436,128.7 435.9,128.7 435.9,128.8 435.1,128.8 435.1,128.9 434.5,128.9 434.5,128.8 433.5,128.8 
		433.5,128.9 433.3,128.9 433.3,129.1 433.2,129.1 433.2,129.2 433.1,129.2 433.1,129.3 432,129.3 432,129.2 431.6,129.2 
		431.6,129.1 430.9,129.1 430.9,129 430.7,129 430.7,129.1 430.7,129.1 430.7,129.2 430.5,129.2 430.5,129.3 430.3,129.3 
		430.3,129.5 430.1,129.5 430.1,129.6 429.9,129.6 429.9,129.7 429.7,129.7 429.7,129.8 429.6,129.8 429.6,129.9 429.2,129.9 
		429.2,130 428.4,130 428.4,130.1 428.3,130.1 428.3,130.2 428.1,130.2 428.1,130.3 427.9,130.3 427.9,130.5 427.8,130.5 
		427.8,130.6 427.3,130.6 427.3,130.7 426.8,130.7 426.8,130.8 426.8,130.8 426.8,131.1 425.9,131.1 425.1,131.1 425.1,131 425,131 
		425,131.1 424.3,131.1 424.3,131.2 423.5,131.2 423.5,131.3 422.8,131.3 422.8,131.4 422.7,131.4 422.7,131.6 422.6,131.6 
		422.6,131.7 422.4,131.7 422.4,131.8 422.4,131.8 422.4,131.9 422.3,131.9 422.3,132 422.2,132 422.2,132.1 422,132.1 422,132.2 
		421.6,132.2 421.6,132.1 421.4,132.1 421.4,132 421.1,132 421.1,131.9 420.8,131.9 420.8,131.8 420.5,131.8 420.5,131.7 
		420.3,131.7 420.3,131.6 420,131.6 420,131.4 420,131.4 420,131.3 419.8,131.3 419.8,131.2 419.7,131.2 419.7,131.1 419.6,131.1 
		419.6,131 419.5,131 419.5,130.9 419.4,130.9 419.4,130.8 418.9,130.8 418.9,130.7 418.3,130.7 418.3,130.6 418,130.6 418,130.7 
		418,130.7 418,130.8 417.9,130.8 417.9,130.9 417.8,130.9 417.8,131 417.7,131 417.7,131.1 417.6,131.1 417.6,131.2 417.5,131.2 
		417.5,131.3 417.5,131.3 417.5,131.4 417.4,131.4 417.4,131.6 417,131.6 417,131.2 417.1,131.2 417.1,131.1 417,131.1 417,131 
		416.9,131 416.8,131 416.8,131.2 416.8,131.2 416.8,131.2 416,131.2 416,131.3 415.9,131.3 415.9,131.8 416.4,131.8 416.6,131.8 
		416.6,132 416.6,132 416.6,132.3 416.5,132.3 416.5,132.4 416.4,132.4 416.4,132.7 416.3,132.7 416.3,132.9 416.2,132.9 
		416.2,133.1 416.1,133.1 416.1,133.2 415.7,133.2 415.7,133.3 415.6,133.3 415.6,133.5 415.5,133.5 415.5,133.8 415.4,133.8 
		415.4,134 415.3,134 415.3,134.2 415.2,134.2 415.2,134.4 415.1,134.4 415.1,134.5 415,134.5 415,134.7 414.9,134.7 414.9,134.5 
		414.8,134.5 414.8,134.7 414.5,134.7 414.5,134.8 414.2,134.8 414.1,134.8 414.1,134.9 413.9,134.9 413.9,135 413.8,135 
		413.8,135.1 413.7,135.1 413.7,135.5 413.7,135.5 413.7,135.8 413.7,135.8 413.7,136.1 413.7,136.1 413.7,136.2 413.6,136.2 
		413.6,136.4 413.5,136.4 413.5,136.6 413.4,136.6 413.4,137 413.3,137 413.3,137.1 413.2,137.1 413.2,137.2 413.2,137.2 
		413.2,137.8 413.1,137.8 413.1,137.9 413,137.9 413,138 412.9,138 412.9,138.2 412.8,138.2 412.8,138.3 412.7,138.3 412.7,138.4 
		412.7,138.4 412.7,138.6 412.6,138.6 412.6,138.7 412.5,138.7 412.5,138.9 412.4,138.9 412.4,139 412.3,139 412.3,139.1 
		412.2,139.1 412.2,139.3 412.2,139.3 412.2,139.6 411.9,139.6 411.9,139.7 411.8,139.7 411.8,139.9 411.7,139.9 411.7,140.1 
		411.7,140.1 411.7,140.3 411.6,140.3 411.6,140.5 411.4,140.5 411.4,140.7 411.3,140.7 411.3,141 411.2,141 411.2,141.2 
		411.2,141.2 411.2,141.3 411.1,141.3 411.1,141.4 410.9,141.4 410.9,141.5 410.8,141.5 410.8,141.6 410.5,141.6 410.5,141.8 
		410.4,141.8 410.4,142.2 410.3,142.2 410.3,142.5 410.4,142.5 410.4,142.8 410.5,142.8 410.5,142.9 410.6,142.9 410.6,143.1 
		410.7,143.1 410.7,143.3 410.8,143.3 410.8,143.4 410.9,143.4 410.9,143.6 411,143.6 411,143.8 411.1,143.8 411.1,143.9 
		411.2,143.9 411.2,144.2 411.2,144.2 411.2,144.3 411.2,144.3 411.2,144.6 411.3,144.6 411.3,144.7 411.4,144.7 411.4,145.5 
		411.3,145.5 411.3,145.8 411.3,146.2 411.2,146.2 411.2,146.4 411.2,146.4 411.2,146.7 411.1,146.7 411.1,146.9 411.1,147.3 
		411,147.3 411,147.6 410.9,147.6 410.9,147.8 410.8,147.8 410.8,148.1 410.7,148.1 410.7,148.5 410.7,148.5 410.7,148.7 
		410.6,148.7 410.6,148.9 410.5,148.9 410.5,149 410.4,149 410.4,149.1 410.3,149.1 410.3,149.2 410.3,149.2 410.3,149.4 
		410.2,149.4 410.2,149.6 410.1,149.6 410.1,149.7 410,149.7 410,149.8 409.9,149.8 409.9,149.9 409.8,149.9 409.8,150 409.8,150 
		409.8,150.1 409.7,150.1 409.7,150.2 409.6,150.2 409.6,150.4 409.5,150.4 409.5,150.5 409.4,150.5 409.4,150.6 409.3,150.6 
		409.3,150.7 409.3,150.7 409.3,150.9 409.2,150.9 409.2,151 409.1,151 409.1,151.1 409,151.1 409,151.2 408.9,151.2 408.9,151.3 
		408.8,151.3 408.8,151.5 408.8,151.5 408.8,151.6 408.6,151.6 408.6,151.7 408.3,151.7 408.3,151.8 408.2,151.8 408.2,151.9 
		408,151.9 408,152 407.8,152 407.8,152.1 407.6,152.1 407.6,152.2 407.4,152.2 407.4,152.3 407.3,152.3 407.3,152.5 407,152.5 
		407,152.6 406.8,152.6 406.8,152.7 406.6,152.7 406.6,152.8 406.4,152.8 406.4,152.9 406.2,152.9 406.2,153 405.1,153 405.1,152.9 
		403.7,152.9 403.7,152.8 403.2,152.8 403.2,152.7 402.6,152.7 402.6,152.6 401.8,152.6 401.8,152.5 401,152.5 401,152.3 
		400.7,152.3 399.6,152.3 399.6,152.5 399.4,152.5 399.4,152.6 399.2,152.6 399.2,152.7 399.1,152.7 399.1,152.8 399.1,152.8 
		399.1,152.9 398.8,152.9 398.8,153 398.6,153 398.6,153.1 398.5,153.1 398.5,153.2 397.5,153.2 397.5,153.3 397.2,153.3 
		397.2,153.5 397,153.5 397,153.6 396.9,153.6 396.9,153.7 396.6,153.7 396.6,153.6 396.2,153.6 396.2,153.7 395.8,153.7 
		395.8,153.8 395.4,153.8 395.4,153.9 395.3,153.9 395.3,154 395.2,154 395.2,153.8 394.7,153.8 394.7,153.9 394.2,153.9 394.2,154 
		393,154 393,154.1 392.8,154.1 392.8,154.2 392.4,154.2 392.4,154.3 392.1,154.3 392.1,154.4 391.9,154.4 391.9,154.3 391.8,154.3 
		391.8,154.2 391.7,154.2 391.7,154.1 391.5,154.1 391.5,154.2 391.4,154.2 391.4,154.3 391.3,154.3 391.3,154.4 390.9,154.4 
		390.9,154.3 390.5,154.3 390.5,154.4 390.3,154.4 390.3,154.4 390.3,154.6 390,154.6 390,154.7 389.7,154.7 389.7,154.6 
		389.5,154.6 389.5,154.7 389,154.7 389,154.8 388.9,154.8 388.9,154.7 388.8,154.7 388.8,154.8 388.4,154.8 388.4,154.9 
		388.2,154.9 388.2,154.8 387.9,154.8 387.9,154.9 387.8,154.9 387.8,155 387.7,155 387.7,155.1 387.5,155.1 387.5,155.2 
		387.3,155.2 387.3,155.3 387.1,155.3 387.1,155.2 386.9,155.2 386.9,155.3 386.8,155.3 386.8,155.4 386,155.4 386,155.6 
		385.5,155.6 385.5,155.4 385.3,155.4 385.3,155.3 385.1,155.3 385.1,155.2 384.9,155.2 384.9,155.3 384.6,155.3 384.6,155.4 
		384.5,155.4 384.5,155.6 384.5,155.6 384.5,155.7 384.4,155.7 384.4,155.8 382.4,155.8 382.4,155.7 382,155.7 382,155.6 
		381.9,155.6 381.9,155.4 381.7,155.4 381.6,155.4 381.6,155.3 381.5,155.3 381.5,155.2 381.1,155.2 381.1,155.1 380.9,155.1 
		380.9,155 380.7,155 380.7,154.9 380.4,154.9 380.4,154.8 380.1,154.8 380.1,154.7 379.5,154.7 379.5,154.6 379.2,154.6 
		379.2,154.4 378.2,154.4 378.2,154.6 375.7,154.6 375.7,154.7 375.5,154.7 375.5,154.8 375.2,154.8 375.2,154.9 375,154.9 375,155 
		374.9,155 374.9,155.1 374.8,155.1 374.8,155.2 374.7,155.2 374.7,155.3 374.6,155.3 374.6,155.4 374.4,155.4 374.4,155.7 
		372.9,155.7 372.9,155.6 372.7,155.6 372.7,155.4 372.1,155.4 372.1,155.6 371.9,155.6 371.9,155.7 371.8,155.7 371.8,155.8 
		371.4,155.8 371.4,155.7 371.4,155.7 371.4,155.6 371.1,155.6 371.1,155.7 371,155.7 371,155.8 370.2,155.8 370.2,155.9 
		368.8,155.9 368.8,155.8 368.2,155.8 368.2,155.7 368,155.7 368,155.6 367.8,155.6 367.8,155.4 367.6,155.4 367.6,155.3 
		367.3,155.3 367.3,155.2 367.1,155.2 367.1,155.1 366.9,155.1 366.9,155 366.6,155 366.6,154.9 366.5,154.9 366.5,154.8 
		366.3,154.8 366.3,154.7 366.1,154.7 366.1,154.6 365.9,154.6 365.9,154.4 365.7,154.4 365.7,154.3 365.6,154.3 365.6,154.2 
		365.3,154.2 365.3,154.1 365.1,154.1 365.1,154 365,154 365,153.9 364.8,153.9 364.8,153.8 364.6,153.8 364.6,153.7 364.4,153.7 
		364.4,153.6 364.2,153.6 364.2,153.5 364.1,153.5 364.1,153.3 364.1,153.3 364.1,153.2 363.9,153.2 363.9,153.1 363.7,153.1 
		363.7,153 363.6,153 363.6,152.9 363.5,152.9 363.5,152.8 363.4,152.8 363.4,152.7 363.2,152.7 363.2,152.6 363.1,152.6 
		363.1,152.5 363.1,152.5 363.1,152.3 363,152.3 363,152.2 362.8,152.2 362.8,152.1 362.7,152.1 362.7,152 362.5,152 362.5,151.9 
		362.4,151.9 362.4,151.8 362.2,151.8 362.2,151.7 362.1,151.7 362.1,151.6 362,151.6 362,151.5 361.8,151.5 361.8,151.3 
		361.7,151.3 361.7,151.2 361.6,151.2 361.6,151.1 361.4,151.1 361.4,151 361.2,151 361.2,150.9 361.2,150.9 361.2,150.8 361,150.8 
		361,150.7 360.9,150.7 360.9,150.6 360.3,150.6 360.3,150.5 359.9,150.5 359.9,150.4 359.7,150.4 359.7,150.2 359.6,150.2 
		359.6,150.1 359.4,150.1 359.4,150 359.3,150 359.3,149.9 358.8,149.9 358.8,149.8 358.8,149.8 358.8,149.7 358.6,149.7 
		358.6,149.6 358.5,149.6 358.5,149.5 358.3,149.5 358.3,149.4 358.3,149.4 358.3,149.2 358.2,149.2 358.2,149.1 358.1,149.1 
		358.1,149 357.7,149 357.7,148.9 357.6,148.9 357.6,148.8 357.5,148.8 357.5,148.7 357.4,148.7 357.4,148.6 357.3,148.6 
		357.3,148.5 357.3,148.5 357.3,148.4 357.2,148.4 357.2,148.3 357,148.3 357,148.1 356.9,148.1 356.9,148 356.8,148 356.8,147.9 
		356.8,147.9 356.8,147.8 356.6,147.8 356.6,147.7 356.5,147.7 356.5,147.6 356.4,147.6 356.4,147.5 356.3,147.5 356.3,147.4 
		356.2,147.4 356.2,147.3 356.1,147.3 356.1,147.1 356,147.1 356,147 355.9,147 355.9,146.9 355.8,146.9 355.8,146.8 355.7,146.8 
		355.7,146.7 355.6,146.7 355.6,146.6 355.4,146.6 355.4,146.5 355.4,146.5 355.4,146.4 355.3,146.4 355.3,146.3 355.2,146.3 
		355.2,146.2 355,146.2 355,146 354.9,146 354.9,145.9 354.9,145.9 354.9,145.8 354.8,145.8 354.8,145.7 354.6,145.7 354.6,145.6 
		354.5,145.6 354.5,145.5 354.4,145.5 354.4,145.4 354.4,145.4 354.3,145.4 354.2,145.4 354.2,145.3 354.2,145.3 354.1,145.3 
		353.8,145.3 353.8,145.2 353.1,145.2 353.1,145.3 352.9,145.3 352.9,145.4 352.7,145.4 352.7,145.3 352.6,145.3 352.6,145.2 
		352.5,145.2 352.5,144.8 352.5,144.8 352.5,144.7 352.4,144.7 352.4,144.6 352.3,144.6 352.3,144.5 352.1,144.5 352.1,144.4 
		351.9,144.4 351.9,144.3 351.5,144.3 351.5,144.4 351.3,144.4 351.3,144.3 350.9,144.3 350.9,144.2 349.9,144.2 349.9,144.3 
		349.5,144.3 349.5,144.4 349.2,144.4 349.2,144.3 348.4,144.3 348.4,144.4 348.1,144.4 348.1,144.5 348,144.5 348,144.6 
		347.9,144.6 347.9,144.7 347.8,144.7 347.8,144.8 347.7,144.8 347.7,144.9 347.6,144.9 347.6,145 347.6,145 347.6,145.2 
		347.4,145.2 347.4,145.3 347.1,145.3 347.1,145.4 347,145.4 347,145.5 346.7,145.5 346.7,145.6 346.1,145.6 346.1,145.7 346,145.7 
		346,145.8 345.3,145.8 345.3,145.7 345.2,145.7 345.2,145.6 344.7,145.6 344.7,145.5 343.3,145.5 343.3,145.4 343,145.4 343,145.3 
		342.5,145.3 342.5,145.2 342.3,145.2 342.3,145 342,145 342,144.9 341.9,144.9 341.9,144.8 341.8,144.8 341.8,144.7 341.3,144.7 
		341.3,144.6 341.1,144.6 341.1,144.5 340.8,144.5 340.8,144.7 340.8,144.7 340.8,144.8 340.2,144.8 340.2,144.7 339.8,144.7 
		339.8,144.6 339.6,144.6 339.6,144.4 339.3,144.4 339.3,144.2 339.3,144.2 339.3,143.9 339.3,143.9 339.3,143.8 338.5,143.8 
		338.5,143.7 338.3,143.7 338.3,143.6 338.2,143.6 338.2,143.5 338,143.5 338,143.4 337.9,143.4 337.9,143.3 337.9,143.3 
		337.9,143.2 337.8,143.2 337.8,143.1 337.6,143.1 337.6,143.2 337.5,143.2 337.5,143.1 337.4,143.1 337.4,142.9 337.2,142.9 
		337.2,142.8 336.8,142.8 336.8,142.7 336.4,142.7 336.4,142.6 336.3,142.6 336.3,142.5 336.1,142.5 336.1,142.4 335.9,142.4 
		335.9,142.3 335.7,142.3 335.7,142.2 335.5,142.2 335.5,142.1 335.5,142.1 335.5,142 335.2,142 335.2,141.8 334.9,141.8 
		334.9,141.7 334.6,141.7 334.6,141.6 334.3,141.6 334.3,141.5 334,141.5 334,141.4 333.8,141.4 333.8,141.3 333.5,141.3 
		333.5,141.5 333,141.5 333,141.6 332.8,141.6 332.8,141.7 332.5,141.7 332.5,141.8 332.4,141.8 332.4,141.7 332.1,141.7 
		332.1,141.8 331.7,141.8 331.7,141.7 331.6,141.7 331.6,141.6 331.6,141.6 331.6,141.5 331.4,141.5 331.4,141.4 331.3,141.4 
		331.3,141.2 331.2,141.2 331.2,141.1 331.2,140.8 331,140.8 331,140.7 330.6,140.7 330.6,140.8 330.1,140.8 330.1,140.7 
		329.9,140.7 329.9,140.6 329.6,140.6 329.6,140.5 329.4,140.5 329.4,140.6 328.6,140.6 328.6,140.7 328,140.7 328,140.8 
		327.9,140.8 327.9,140.7 327.8,140.7 327.8,140.6 326.4,140.6 326.4,140.7 326.1,140.7 326.1,140.8 324.8,140.8 324.8,140.7 
		324.8,140.7 324.8,140.6 324.5,140.6 324.5,140.5 324.1,140.5 324.1,140.4 323.8,140.4 323.8,140.5 322.1,140.5 322.1,140.4 
		321.8,140.4 321.8,140.5 321.4,140.5 321.4,140.6 321.1,140.6 321.1,140.7 320.9,140.7 320.9,141 320.6,141 320.6,141.1 
		320.5,141.1 320.5,141.2 320.3,141.2 320.3,141.3 320.1,141.3 320.1,141.4 320,141.4 320,141.5 319.9,141.5 319.9,141.6 
		319.5,141.6 319.5,141.7 319.4,141.7 319.4,141.8 319.1,141.8 319.1,142 318,142 318,142.1 317.9,142.1 317.9,142.2 317.8,142.2 
		317.8,142.3 317.6,142.3 317.6,142.2 317.5,142.2 317.5,142.1 317.1,142.1 317.1,142 317,142 317,142.1 316.5,142.1 316.5,142.2 
		316.5,142.2 316.5,142.3 316.2,142.3 316.2,142.4 315.9,142.4 315.9,142.5 315.8,142.5 315.8,142.6 315.6,142.6 315.6,142.7 
		315.4,142.7 315.4,142.8 315.2,142.8 315.2,142.9 315.1,142.9 315.1,143.1 315,143.1 315,142.9 314.7,142.9 314.7,142.8 
		314.5,142.8 314.5,142.9 314.2,142.9 314.2,143.1 314,143.1 314,143.2 313.8,143.2 313.8,143.3 313.7,143.3 313.7,143.4 
		313.6,143.4 313.6,143.5 313.6,143.5 313.6,143.4 313.2,143.4 313.2,143.5 313.1,143.5 313.1,143.6 313.1,143.6 313.1,143.7 
		313,143.7 313,143.8 312.2,143.8 312.2,143.9 312.1,143.9 312.1,144.2 311.9,144.2 311.9,144.4 311.5,144.4 311.5,144.7 
		311.4,144.7 311.4,144.9 311.2,144.9 311.2,145 311.2,145 311.2,145.2 311,145.2 311,145.4 310.5,145.4 310.5,145.3 310.4,145.3 
		310.4,145.2 310.3,145.2 310.3,145 310.2,145 310.2,144.9 310,144.9 310,144.8 309.8,144.8 309.8,144.9 309.7,144.9 309.7,145.2 
		309.6,145.2 309.6,145 309.5,145 309.5,144.9 309.4,144.9 309.4,144.8 308.7,144.8 308.7,144.9 308.6,144.9 308.6,145 308.5,145 
		308.5,145.2 308.4,145.2 308.4,145.3 308.3,145.3 308.3,145.4 308.3,145.4 308.3,145.5 308.2,145.5 308.2,145.6 308,145.6 
		308,145.9 307.9,145.9 307.9,146.3 307.8,146.3 307.8,146.4 307.8,146.4 307.8,146.6 307.7,146.6 307.7,146.7 307.5,146.7 
		307.5,146.8 307.1,146.8 307.1,146.9 306.9,146.9 306.9,147 306.8,147 306.8,146.9 306.7,146.9 306.7,146.8 305.5,146.8 
		305.5,146.9 305.4,146.9 305.4,147.1 305.3,147.1 305.3,147.3 305,147.3 305,147.4 304.6,147.4 304.6,147.5 304.4,147.5 
		304.4,147.6 304.3,147.6 304.3,147.7 303.2,147.7 303.2,147.6 303,147.6 303,147.5 302.9,147.5 302.9,147.4 302.9,147.4 
		302.9,147.5 302.8,147.5 302.8,147.6 302.4,147.6 302.4,147.5 302.3,147.5 302.3,147.4 301.2,147.4 301.2,147.1 300.5,147.1 
		300.5,147.4 300,147.4 300,147.5 299.8,147.5 299.8,147.6 299.2,147.6 299.2,147.7 299,147.7 299,147.8 298.9,147.8 298.9,147.9 
		298.5,147.9 298.5,148 298.1,148 298.1,148.1 297.7,148.1 297.7,147.9 297.3,147.9 297.3,147.8 296,147.8 296,147.9 295.6,147.9 
		295.6,148 295.5,148 295.5,148.1 295.4,148.1 295.1,148.1 295.1,148 294.9,148 294.9,147.9 294.2,147.9 294.2,148 294.2,148 
		294.2,148.1 294.1,148.1 294.1,148.3 294,148.3 294,148.4 293.9,148.4 293.9,148.5 293.6,148.5 293.6,148.4 293.2,148.4 
		293.2,148.7 293.2,148.7 293.2,148.9 293.1,148.9 293.1,149 293,149 293,149.4 293.2,149.4 293.2,149.5 293.7,149.5 293.7,149.6 
		293.7,149.6 293.7,149.7 293.8,149.7 293.8,149.8 293.9,149.8 293.9,150 294,150 294,150.2 294,150.4 294.1,150.4 294.1,150.5 
		294.2,150.5 294.2,151.3 294.1,151.3 294.1,151.9 294,151.9 294,152 293.9,152 293.9,152.1 293.8,152.1 293.8,152.3 293.7,152.3 
		293.7,152.5 293.6,152.5 293.6,152.6 293.5,152.6 293.5,152.7 293.4,152.7 293.4,152.8 293.1,152.8 293.1,152.9 293,152.9 293,153 
		292.7,153 292.7,153.1 292.5,153.1 292.5,153.2 292.4,153.2 292.4,153.3 292,153.3 292,153.5 291.3,153.5 291.3,153.6 290.5,153.6 
		290.5,153.7 290,153.7 290,153.8 289.8,153.8 289.8,153.9 289.6,153.9 289.6,154 289.4,154 289.4,154.1 289.2,154.1 289.2,154.2 
		289,154.2 289,154.1 288.8,154.1 288.8,154 288.6,154 288.6,153.9 288.2,153.9 288.2,153.8 287.9,153.8 287.9,153.7 287.4,153.7 
		287.4,153.9 287.2,153.9 287.2,154 287,154 287,154.1 286.9,154.1 286.9,154.2 286.5,154.2 286.5,154.3 286.4,154.3 286.4,154.4 
		286.1,154.4 286.1,154.2 286,154.2 286,154.1 286.1,154.1 286.1,154 286.2,154 286.2,153.9 286.4,153.9 286.4,153.8 286.4,153.8 
		286.4,153.3 286.3,153.3 286.3,153.2 285.8,153.2 285.8,153 285.5,153 285.5,153.1 285.4,153.1 285.4,153.2 285.3,153.2 
		285.3,153.5 285.2,153.5 285.2,153.7 285.1,153.7 285.1,153.8 285,153.8 285,153.9 284.7,153.9 284.7,153.8 284.1,153.8 
		284.1,153.5 284,153.5 284,153.3 283.6,153.3 283.6,153.5 283.2,153.5 283.2,153.3 283.1,153.3 283.1,153.2 283,153.2 283,153.3 
		282.6,153.3 282.6,153.2 282.4,153.2 282.4,153.1 282,153.1 282,153 281.8,153 281.8,152.7 281.7,152.7 281.7,152.5 281.6,152.5 
		281.6,152.3 281.1,152.3 281.1,152.2 281.1,152.2 281.1,152.5 279.8,152.5 279.8,152.3 279.1,152.3 279.1,152.2 278.8,152.2 
		278.8,152.1 277.5,152.1 277.5,152 277.2,152 277.2,151.9 276.2,151.9 276.2,151.8 276.2,151.8 276.2,151.7 274.7,151.7 
		274.7,151.6 274.2,151.6 274.2,151.5 274.1,151.5 274.1,151.3 273.2,151.3 273.2,151.2 272.7,151.2 272.7,151 272.4,151 
		272.4,150.9 272.3,150.9 272.3,151 271.8,151 271.8,150.9 271.8,150.9 271.8,150.8 271.4,150.8 271.4,150.7 271,150.7 271,150.6 
		270.7,150.6 270.7,150.5 270.1,150.5 270.1,150.4 269.7,150.4 269.7,150 268.9,150 268.9,149.9 268.4,149.9 268.4,149.8 
		268.1,149.8 268.1,149.7 267.9,149.7 267.9,149.6 267.7,149.6 267.7,149.5 267.5,149.5 267.5,149.4 267.5,149.4 267.5,149.2 
		267.1,149.2 267.1,149.1 266.5,149.1 266.5,149 266.1,149 266.1,148.9 265.8,148.9 265.8,148.8 265.5,148.8 265.5,148.7 
		264.9,148.7 264.9,148.6 264.6,148.6 264.6,148.5 264.3,148.5 264.3,148.4 264.1,148.4 264.1,148.3 263.7,148.3 263.7,148.1 
		263.5,148.1 263.5,148 263.1,148 263.1,147.9 263.1,147.9 262.9,147.9 262.9,147.8 262.6,147.8 262.6,147.7 262.3,147.7 
		262.3,147.6 262.1,147.6 262.1,147.5 261.9,147.5 261.9,147.4 261.3,147.4 261.3,147.3 260.8,147.3 260.8,147.1 260.5,147.1 
		260.5,147 260.3,147 260.3,146.9 260,146.9 260,146.8 259.9,146.8 259.9,146.7 259.4,146.7 259.4,146.6 259,146.6 259,146.5 
		258.6,146.5 258.6,146.4 258,146.4 258,146.3 257.8,146.3 257.8,146.2 257.6,146.2 257.6,146 257.2,146 257.2,145.9 257.1,145.9 
		257.1,145.8 256.9,145.8 256.9,145.7 256.8,145.7 256.8,145.6 256.7,145.6 256.7,145.5 256.5,145.5 256.5,145.4 256.3,145.4 
		256.3,145.2 255.8,145.2 255.8,145 255.2,145 255.2,144.9 255.1,144.9 255.1,144.7 254.8,144.7 254.8,144.6 254.5,144.6 
		254.5,144.5 254.4,144.5 254.4,144.4 254,144.4 254,144.3 253.8,144.3 253.8,144.2 253.6,144.2 253.6,144.1 253.5,144.1 
		253.5,143.9 252.9,143.9 252.9,143.8 252.9,143.8 252.9,143.7 252.7,143.7 252.7,143.6 252.4,143.6 252.4,143.5 252.4,143.5 
		252.4,143.4 252,143.4 252,143.3 251.8,143.3 251.8,143.2 251.6,143.2 251.6,143.1 251.4,143.1 251.4,142.9 251.3,142.9 
		251.3,142.8 250.9,142.8 250.9,142.7 250.5,142.7 250.5,142.5 250.2,142.5 250.2,142.4 250,142.4 250,142.3 249.7,142.3 
		249.7,142.2 249.5,142.2 249.5,142.1 249.2,142.1 249.2,142 248.9,142 248.9,141.8 248.6,141.8 248.6,141.7 248,141.7 248,141.6 
		247.4,141.6 247.4,141.5 247.2,141.5 247.2,141.6 246.9,141.6 246.9,141.5 246.8,141.5 246.8,141.2 246.6,141.2 246.6,141.1 
		246.6,141.1 246.6,141.1 246.6,140.8 246.5,140.8 246.5,140.7 246.3,140.7 246.3,140.6 246.1,140.6 246.1,140.5 246,140.5 
		246,140.4 245.8,140.4 245.8,140.3 245.1,140.3 245.1,140.6 245,140.6 245,140.7 245.1,140.7 245.1,140.8 245,140.8 245,141 
		244.9,141 244.9,141 244.9,141.2 244.8,141.2 244.8,141.3 244.7,141.3 244.7,141.4 244.6,141.4 244.6,141.5 244.6,141.5 
		244.6,141.6 244.5,141.6 244.5,141.7 244.4,141.7 244.4,141.8 244.2,141.8 244.2,141.7 243.8,141.7 243.8,141.8 243.4,141.8 
		243.4,142 243.2,142 243.2,142.1 243.2,142.1 243.2,142.2 243.1,142.2 243.1,142.3 242.8,142.3 242.8,142.4 242.7,142.4 
		242.7,142.5 242.4,142.5 242.4,142.6 242.2,142.6 242.2,142.7 242,142.7 242,142.8 241.8,142.8 241.8,142.9 241.7,142.9 
		241.7,143.1 241.6,143.1 241.6,143.2 241.5,143.2 241.5,143.3 241.4,143.3 241.4,143.4 241.2,143.4 241.2,143.5 241,143.5 
		241,143.6 240.9,143.6 240.9,143.7 240.8,143.7 240.8,143.8 240.8,143.8 240.8,143.9 240.7,143.9 240.7,144.1 240.6,144.1 
		240.6,144.2 240.5,144.2 240.5,144.3 240.4,144.3 240.4,144.4 240.3,144.4 240.3,144.6 240.3,144.6 240.3,144.8 240.1,144.8 
		240.1,144.9 240,144.9 240,145 239.8,145 239.8,145.2 239.8,145.2 239.8,145.4 239.7,145.4 239.7,145.5 239.6,145.5 239.6,145.6 
		239.5,145.6 239.5,145.7 239.4,145.7 239.4,145.9 239.3,145.9 239.3,146 239.2,146 239.2,146.3 239.1,146.3 239.1,146.4 239,146.4 
		239,146.6 238.9,146.6 238.9,146.8 238.8,146.8 238.8,146.9 238.7,146.9 238.7,147 238.6,147 238.6,147.1 238.5,147.1 238.5,147.3 
		238.6,147.3 238.6,147.4 238.4,147.4 238.4,147.6 238.3,147.6 238.3,147.8 238.2,147.8 238.2,147.9 238.1,147.9 238.1,148 238,148 
		238,148.1 237.9,148.1 237.9,148.3 237.8,148.3 237.8,148.4 237.8,148.4 237.8,148.9 237.7,148.9 237.7,149.1 237.6,149.1 
		237.6,149.4 237.5,149.4 237.5,149.7 237.4,149.7 237.4,149.8 237.4,149.8 237.4,150 237.3,150 237.3,150.4 237.2,150.4 
		237.2,150.6 237.1,150.6 237.1,150.7 237,150.7 237,150.8 236.9,150.8 236.9,150.9 236.9,150.9 236.9,151.1 236.8,151.1 
		236.8,151.2 236.7,151.2 236.7,151.3 236.6,151.3 236.6,151.5 236.5,151.5 236.5,151.7 236.4,151.7 236.4,151.9 236.4,151.9 
		236.4,152.1 236.3,152.1 236.3,152.3 236.2,152.3 236.2,152.5 236.1,152.5 236.1,152.6 236,152.6 236,152.8 235.9,152.8 
		235.9,152.9 235.8,152.9 235.8,152.6 235.9,152.6 235.9,152.5 235.9,152.5 235.9,152.3 236,152.3 236,151.7 236.1,151.7 
		236.1,151.5 236.2,151.5 236.2,151.3 236.3,151.3 236.3,151.1 236.4,151.1 236.4,150.9 236.4,150.9 236.4,150.8 236.5,150.8 
		236.5,150.6 236.6,150.6 236.6,150.2 236.7,150.2 236.7,150.1 236.8,150.1 236.8,149.9 236.9,149.9 236.9,149.6 236.9,149.6 
		236.9,149.4 237,149.4 237,148.8 237.2,148.8 237.2,148.6 237.3,148.6 237.3,148.5 237.4,148.5 237.4,148.3 237.4,148.3 
		237.4,148.1 237.5,148.1 237.5,147.9 237.6,147.9 237.6,147.6 237.7,147.6 237.7,147.4 237.8,147.4 237.8,147.3 237.8,147.3 
		237.8,147.1 237.9,147.1 237.9,147 238,147 238,146.9 238.1,146.9 238.1,146.7 238.2,146.7 238.2,146.6 238.3,146.6 238.3,146.4 
		238.3,146.4 238.3,146.3 238.4,146.3 238.4,146.2 238.5,146.2 238.5,146 238.6,146 238.6,145.9 238.7,145.9 238.7,145.8 
		238.8,145.8 238.8,145.7 238.8,145.7 238.8,145.6 238.9,145.6 238.9,145.4 239,145.4 239,145.3 239.1,145.3 239.1,145.2 
		239.3,145.2 239.3,145 239.4,145 239.4,144.9 239.5,144.9 239.5,144.8 239.6,144.8 239.6,144.6 239.7,144.6 239.7,144.5 
		239.8,144.5 239.8,144.4 239.8,144.4 239.8,144.2 239.9,144.2 239.9,144.1 240,144.1 240,143.9 240.1,143.9 240.1,143.8 
		240.2,143.8 240.2,143.7 240.3,143.7 240.3,143.6 240.4,143.6 240.4,143.5 240.5,143.5 240.5,143.4 240.7,143.4 240.7,143.3 
		240.8,143.3 240.8,143.2 240.8,143.2 240.8,143.1 241,143.1 241,142.9 241.1,142.9 241.1,142.8 241.2,142.8 241.2,142.7 
		241.3,142.7 241.3,142.6 241.5,142.6 241.5,142.5 241.7,142.5 241.7,142.4 241.7,142.4 241.7,142.3 242.1,142.3 242.1,142.2 
		242.2,142.2 242.2,142.1 242.4,142.1 242.4,142 242.5,142 242.5,141.8 242.7,141.8 242.7,141.7 242.8,141.7 242.8,141.6 
		242.9,141.6 242.9,141.5 243.1,141.5 243.1,141.4 243.2,141.4 243.2,141.3 243.2,141.3 243.2,141.2 243.4,141.2 243.4,141.1 
		243.5,141.1 243.5,141 243.6,141 243.6,140.8 243.7,140.8 243.7,140.7 244,140.7 244,140.6 244.2,140.6 244.2,140.2 243.5,140.2 
		243.5,140.1 235,140.1 235,140 230.1,140 230.1,140.1 229.3,140.1 229.3,140.2 228.5,140.2 228.5,140.3 227.7,140.3 227.7,140.4 
		226.9,140.4 226.9,140.5 226.2,140.5 226.2,140.6 224.1,140.6 224.1,140.7 221.9,140.7 221.9,140.8 219.9,140.8 219.9,141 
		214.8,141 214.8,140.8 214.1,140.8 214.1,140.7 213.5,140.7 213.5,140.6 212.8,140.6 212.8,140.5 209.7,140.5 209.7,140.4 
		209.2,140.4 209.2,140.3 208.7,140.3 208.7,140.2 208.2,140.2 208.2,140.1 207.7,140.1 207.7,140 207.1,140 207.1,139.9 
		206.6,139.9 206.6,139.7 206.1,139.7 206.1,139.6 205.6,139.6 205.6,139.5 205,139.5 205,139.4 204.5,139.4 204.5,139.3 
		204.3,139.3 204.3,139.2 203.9,139.2 203.6,139.2 203.6,139.1 203.4,139.1 203.4,139 203,139 203,138.9 202.9,138.9 202.9,138.7 
		202.5,138.7 202.5,138.9 202.3,138.9 202.3,139 202,139 202,139.1 201.4,139.1 201.4,139.2 201.2,139.2 201.2,139.3 200.9,139.3 
		200.9,139.4 200.6,139.4 200.6,139.3 200.5,139.3 200.5,139.2 200.1,139.2 200.1,139.1 199.7,139.1 199.7,139 199.3,139 
		199.3,138.9 199,138.9 199,138.7 198.5,138.7 198.5,138.6 198.1,138.6 198.1,138.5 197.8,138.5 197.8,138.4 197.2,138.4 
		197.2,138.3 196.6,138.3 196.6,138.2 196.1,138.2 196.1,138.1 195.6,138.1 195.6,138 195.2,138 195.2,137.9 194.9,137.9 
		194.9,137.8 194.7,137.8 194.7,137.6 194.6,137.6 194.6,137.5 194.3,137.5 194.3,137.6 194.1,137.6 194.1,137.8 191.5,137.8 
		191.5,137.9 190.7,137.9 190.7,138 190.3,138 190.3,138.1 190,138.1 190,138.2 189.7,138.2 189.7,138.3 189.4,138.3 189.4,138.4 
		189.1,138.4 189.1,138.5 188.8,138.5 188.8,138.6 188.4,138.6 188.4,138.7 185.5,138.7 185.5,139 183.7,139 183.7,139.1 
		183.5,139.1 183.5,139.2 183.4,139.2 183.4,139.3 183.1,139.3 183.1,139.4 181.8,139.4 181.8,139.5 181.5,139.5 181.5,139.6 
		181,139.6 181,139.7 180.7,139.7 180.7,139.9 180,139.9 180,139.7 179.6,139.7 179.6,139.6 179.1,139.6 179.1,139.5 178.7,139.5 
		178.7,139.4 178.6,139.4 178.6,139.3 178.5,139.3 178.5,139.2 178.2,139.2 178.2,139.1 177.7,139.1 177.7,139 177.6,139 
		177.6,139.1 177.3,139.1 177.3,139 177.2,139 177.2,138.7 176.9,138.7 176.9,138.9 175.1,138.9 175.1,138.7 174.6,138.7 
		174.6,138.6 174.4,138.6 174.4,138.5 174.3,138.5 174.3,138.4 174.2,138.4 174.2,138.3 173.9,138.3 173.9,138.4 173.3,138.4 
		173.3,138.3 173.2,138.3 173.2,138.2 173.1,138.2 173.1,138 172.9,138 172.9,138.1 172.8,138.1 172.8,138.2 172.6,138.2 
		172.6,138.1 172.4,138.1 172.4,138 172.3,138 172.3,137.9 172.2,137.9 172.2,138 171.9,138 171.9,138.1 171.7,138.1 171.7,138 
		171.3,138 171.3,137.9 170.9,137.9 170.9,137.8 170.6,137.8 170.6,137.6 170.3,137.6 170.3,137.5 169.9,137.5 169.9,137.6 
		169.8,137.6 169.8,137.8 169.4,137.8 169.4,137.6 169.2,137.6 169.2,137.5 167.6,137.5 167.6,137.6 166.9,137.6 166.9,137.5 
		163.2,137.5 163.2,137.6 162.7,137.6 162.7,137.8 162.3,137.8 162.3,137.9 161.8,137.9 161.8,138 161.4,138 161.4,138.1 
		160.9,138.1 160.9,138.2 160.6,138.2 160.6,138.3 160.3,138.3 160.3,138.4 159.6,138.4 159.6,138.3 158.7,138.3 158.7,138.4 
		158.4,138.4 158.4,138.5 158.1,138.5 158.1,138.7 157.9,138.7 157.9,139 156.8,139 156.8,138.9 156.5,138.9 156.5,139 156.2,139 
		153.8,142.3 148.8,148.7 147.7,150.7 145.8,154.5 144.6,156.4 143.1,158.2 137.5,164.3 136,166.2 134.8,168.1 133.9,170.3 
		133.4,172.7 133.2,175.2 133.2,187.7 132.9,192.6 132.2,196.1 130.1,200.7 129.4,202.8 129,205.2 128.8,207.6 128.6,213.9 
		128.6,252.2 130.1,252.9 131.4,253.9 132.4,255.8 133,259.4 133.1,266.1 135.5,267.1 136.9,268.3 139.5,272.2 142.1,275.4 
		144.5,277.3 146.1,278.5 149.7,280.3 151.4,281.3 153.6,283.4 154.7,285 156.4,288.9 158.3,292.4 159.1,294.3 159.6,296.4 
		160.4,300.7 160.9,302.8 161.8,304.6 163.6,308.2 165.2,312.1 167.1,315.7 167.9,317.5 168.5,319.6 169.5,324.9 170.2,326.9 
		172.5,331.4 173.7,334.3 174.8,336.2 176,338.1 179.5,342.5 180.7,344.4 181.6,346.4 182.3,349.5 186.2,349.6 189,349.9 
		190.9,350.5 192.6,351.5 195,353.5 201,359.4 203.4,361.5 205,362.6 208,364 209.6,364.9 211.3,366.1 216,370.1 217.6,371.3 
		219.2,372.2 222.2,373.6 223.9,374.7 226.3,376.8 232.3,382.7 234.7,384.7 235.5,385.3 237.1,386.2 247.4,390.5 251,391 261,391.4 
		264.6,391.9 266.9,392.5 272.3,394.9 274.3,395.5 276.5,395.8 280,396 283.8,395.9 287.4,395.5 291.8,394.6 292.4,397.3 293,399.1 
		294.7,403.9 295.6,405.9 297.6,408.5 303.6,415.1 305.7,417.7 306.8,419.6 308.6,423.4 309.7,425.3 311.8,427.9 316.3,432.9 
		318.4,435.4 320.2,438.2 321.4,441 322.4,442.8 323.7,444.4 325.1,445.8 326.9,446.8 329.6,448.1 332.9,449.9 334.7,450.6 
		335.7,450.8 337.8,450.8 338.8,450.6 340.5,449.8 343.9,448.1 345.9,447.5 348,447.2 351.3,447 354.7,447 358.1,447.1 363.3,447.5 
		364.9,448.4 366.7,449.8 368.1,450.7 371.7,452.1 373.4,453.1 374.5,454.4 376.8,457.7 379.4,461 381,461.6 382.4,462.6 
		385.8,466.8 387.9,468.8 389.6,469.8 396.7,473.5 399.9,474.5 406.9,475.3 409.1,475.7 411.1,476.4 415.6,478.5 417.9,479.1 
		421.5,479.6 425.2,479.7 430.1,479.6 433.7,479.3 437.2,478.5 441.7,476.5 443.7,475.8 447,475.3 454.9,474.9 457,474.5 
		457.9,474.1 458.8,473.5 459.5,472.9 460.6,471.3 463,467.2 463.8,465.4 464.1,464.2 464.5,461.7 464.6,459.2 464.6,446.6 
		464.8,441.7 465.6,438.3 467.6,433.7 468.3,431.6 468.7,429.3 469.5,422.1 470,419.8 474.9,409.6 476.6,407.1 479.5,403.7 
		480.7,402 481.7,400.4 483.1,397.3 483.9,395.7 485.1,394 489.1,389.2 490.2,387.5 490.7,386.6 491.4,385 492.7,380.7 493.5,377.4 
		498.1,370.7 499.6,368 500.2,365.9 501.1,361.6 501.6,359.6 503.7,355 504.3,353 505.4,347.7 506.1,345.7 506.9,343.8 509.5,339.3 
		511.8,334.7 513.1,333.3 514.5,332.2 521.4,328.5 523.2,327.8 525.3,327.5 527.3,327.8 529.1,328.5 532.4,330.3 536.2,332.1 
		541.3,335.2 545,336.9 549.3,339.3 551.4,340 553.6,340.5 558.4,340.8 566.8,340.8 574,340.7 577.6,340.4 580.9,339.7 586.2,337.1 
		592.4,335.1 600.6,336 612.9,336.4 617.5,336 619.5,335.3 620.4,334.7 621.7,333.3 623.9,329.7 624.9,327.6 625.7,325.3 
		626.1,322.8 626.2,320.3 625.9,310.3 624,309.8 618.5,307.9 617.5,307.5 615.7,306.3 613.2,304.2 609.2,300.2 606.3,296.8 
		604.5,294 602.9,290.1 599.9,284.8 598.4,280.9 596.6,277.4 595.9,275.6 595.7,274.5 595.7,272.4 595.9,271.4 596.6,269.6 
		598.2,266.1 598.8,264 599.1,261.8 599.4,257.3 600.4,253.1 602.5,248.6 603.1,246.6 603.5,243.3 603.5,238.6 604,233.1 
		604.8,229.9 605.6,228 607.4,224.4 608.6,221.5 609.6,219.6 610.9,217.8 613.1,215.2 616.3,212 618.7,209.7 621.3,207.8 625,206 
		626.7,204.9 628.9,202.9 630.1,201.3 631.8,197.5 634.3,193.1 636.3,188.3 638.5,183.9 639.1,181.9 639.1,180.9 638.8,178.8 
		638.1,176.9 636.3,173.5 634.7,169.6 632.3,165.2 631.6,163.2 630.9,160 630.9,144.2 630.7,134.2 631.3,130.1 631.9,128 632.3,127 
		634.6,122.5 636.2,118.6 639.1,113.3 640.7,109.4 641.8,107.6 643.2,105.8 646.1,102.5 651.6,96.9 654,94.6 656.5,92.4 658.2,91.3 
		662,89.6 666.4,87.2 668.3,86.5 671.4,85.9 	"/>
	<polygon class="st0" points="245.8,90.1 245.9,90.1 245.9,90.4 246,90.4 246,90.6 246.1,90.6 246.1,90.8 246.1,90.8 246.1,90.9 
		246.2,90.9 246.2,91 246.3,91 246.3,91.1 246.4,91.1 246.4,91.3 246.5,91.3 246.5,91.5 246.6,91.5 246.6,91.6 246.6,91.6 
		246.6,91.8 246.7,91.8 246.7,91.9 246.8,91.9 246.8,92 247,92 247,92.2 247.1,92.2 247.1,92.4 247.1,92.4 247.1,92.6 247.2,92.6 
		247.2,92.9 247.3,92.9 247.3,93 247.5,93 247.5,93.1 247.6,93.1 247.6,93.2 247.8,93.2 247.8,93.4 247.9,93.4 247.9,93.5 
		248.1,93.5 248.1,93.6 248.2,93.6 248.2,93.7 248.3,93.7 248.3,93.9 248.4,93.9 248.4,94 248.7,94 248.7,93.9 249.2,93.9 
		249.2,93.7 249.5,93.7 249.5,93.6 249.8,93.6 249.8,93.5 250,93.5 250,93.4 250.3,93.4 250.3,93.3 250.6,93.3 250.6,93.4 
		250.9,93.4 250.9,93.3 250.7,93.3 250.7,93.2 251.1,93.2 251.1,93.1 251.2,93.1 251.2,93 251.3,93 251.3,92.9 251.5,92.9 
		251.5,92.7 251.9,92.7 251.9,92.6 252,92.6 252,92.5 252.7,92.5 252.7,92.4 252.9,92.4 252.9,92.5 253.3,92.5 253.3,92.4 
		253.4,92.4 253.4,92.3 253.5,92.3 253.5,92.2 253.6,92.2 253.6,92 253.7,92 253.7,91.9 253.8,91.9 253.8,91.6 253.9,91.6 253.9,91 
		253.9,91 253.9,90.5 254,90.5 254,90.3 254.1,90.3 254.1,90.2 254,90.2 254,89.5 254.1,89.5 254.1,89.3 254.2,89.3 254.2,89.2 
		254.3,89.2 254.3,88.4 254.4,88.4 254.4,88.3 254.4,88.3 254.4,88.2 254.5,88.2 254.5,88.1 254.6,88.1 254.6,87.3 254.5,87.3 
		254.5,87.2 254.4,87.2 254.4,87 254.4,87 254.4,86.7 254.3,86.7 254.3,86.6 254.2,86.6 254.2,86.2 254.1,86.2 254.1,86.1 254,86.1 
		254,86.2 253.9,86.2 253.9,85.8 253.9,85.8 253.9,85.6 253.8,85.6 253.8,85.5 253.7,85.5 253.7,85.1 253.6,85.1 253.6,85 253.7,85 
		253.7,84.8 253.6,84.8 253.6,84.7 253.4,84.7 253.4,84.6 253.4,84.6 253.4,84.5 253.3,84.5 253.3,84.1 253,84.1 253,83.9 
		252.9,83.9 252.9,83.7 252.9,83.7 252.9,82.8 252.8,82.8 252.8,82.4 252.7,82.4 252.7,82.2 252.8,82.2 252.8,81.8 252.6,81.8 
		252.6,81.5 252.5,81.5 252.5,81.4 252.4,81.4 252.4,81.3 252.4,81.3 252.4,81.1 252.3,81.1 252.3,80.7 252.4,80.7 252.4,80.6 
		252.3,80.6 252.3,80.5 252.2,80.5 252.2,80.4 251.9,80.4 251.9,79.9 251.9,79.9 251.9,79 252,79 252,78.9 252.1,78.9 252.1,78.8 
		252.2,78.8 252.2,78.7 252.3,78.7 252.3,78.5 252.4,78.5 252.4,77.4 252.4,77.4 252.4,77.3 252.5,77.3 252.5,77.2 252.6,77.2 
		252.6,76.9 252.7,76.9 252.7,76.8 252.8,76.8 252.8,76.7 253.6,76.7 253.6,76.8 253.9,76.8 253.9,76.9 253.9,76.9 253.9,76.8 
		254.1,76.8 254.2,76.8 254.2,76.6 254.8,76.6 254.8,76.7 254.9,76.7 254.9,76.6 255,76.6 255,76.5 255.2,76.5 255.2,76.4 
		255.3,76.4 255.3,76.3 255.8,76.3 255.8,76.2 256,76.2 256,76.1 256.1,76.1 256.1,75.9 256.2,75.9 256.2,75.7 256.3,75.7 
		256.3,75.5 256.2,75.5 256.2,75.2 256.1,75.2 256.1,74.8 256.2,74.8 256.2,74.7 256.3,74.7 256.3,74.6 256.3,74.6 256.3,74.5 
		256.4,74.5 256.4,74.3 256.5,74.3 256.5,74.2 256.6,74.2 256.6,74.1 256.7,74.1 256.7,74 256.8,74 256.8,73.8 256.8,73.8 
		256.8,73.6 256.9,73.6 256.9,73.5 257.1,73.5 257.1,73.4 257.2,73.4 257.2,73.1 257.3,73.1 257.3,73 257.3,73 257.3,72.8 
		257.4,72.8 257.4,72.7 257.5,72.7 257.5,72.6 257.4,72.6 257.4,72.5 257.3,72.5 257.3,72.4 257,72.4 256.1,72.4 256.1,72.3 
		255.6,72.3 255.6,72.2 255,72.2 255,72.1 254.9,72.1 254.9,72.2 254.4,72.2 254.4,72.1 252.9,72.1 252.9,72 252.9,72 252.9,71.9 
		252.7,71.9 252.7,71.7 251.9,71.7 251.9,71.9 251.6,71.9 251.6,72 251,72 251,72.1 250.5,72.1 250.5,72.2 250.5,72.2 250.3,72.2 
		250.3,72.3 250,72.3 250,72.4 249.7,72.4 249.7,72.5 249,72.5 249,72.6 248.4,72.6 248.4,72.7 248.1,72.7 248.1,72.6 247.7,72.6 
		247.7,72.5 247.4,72.5 247.4,72.4 247.2,72.4 247.2,72.3 247.1,72.3 247.1,72.2 246.8,72.2 246.8,72.3 246.6,72.3 246.6,72.4 
		246.5,72.4 246.5,72.5 246.4,72.5 246.4,72.6 246.5,72.6 246.5,72.8 246.6,72.8 246.6,73 246.6,73 246.6,73.1 246.7,73.1 
		246.7,73.2 246.9,73.2 246.9,73.3 247,73.3 247,73.4 247.2,73.4 247.2,73.5 247.3,73.5 247.3,73.6 247.4,73.6 247.4,73.7 
		247.6,73.7 247.6,73.8 247.7,73.8 247.7,74 247.8,74 247.8,74.1 247.9,74.1 247.9,74.2 248,74.2 248,74.3 248.1,74.3 248.1,74.4 
		248.2,74.4 248.2,74.5 248.4,74.5 248.4,74.6 248.5,74.6 248.5,74.7 248.5,74.7 248.5,74.9 248.6,74.9 248.6,75.2 248.7,75.2 
		248.7,75.9 248.8,75.9 248.8,76.2 248.9,76.2 248.9,76.5 249,76.5 249,76.8 248.9,76.8 248.9,76.7 248.8,76.7 248.8,76.8 
		248.7,76.8 248.7,77.5 248.6,77.5 248.6,77.8 248.7,77.8 248.7,78 248.8,78 248.8,78.2 248.9,78.2 248.9,78.3 249,78.3 249,78.5 
		249,78.5 249,78.7 249.1,78.7 249.1,78.9 249,78.9 249,79.6 249,79.6 249,80.9 248.9,80.9 248.9,81 249,81 249,81.3 248.9,81.3 
		248.9,81.8 248.8,81.8 248.8,82 248.7,82 248.7,82.2 248.6,82.2 248.6,82.5 248.5,82.5 248.5,82.6 248.5,82.6 248.5,82.8 
		248.4,82.8 248.4,83 248.3,83 248.3,84.2 248.4,84.2 248.4,84.5 248.3,84.5 248.3,84.6 248.2,84.6 248.2,84.7 248.1,84.7 
		248.1,84.9 248.2,84.9 248.2,85 248.1,85 248.1,85.2 248,85.2 248,85.3 248,85.3 248,85.6 247.9,85.6 247.9,85.8 247.8,85.8 
		247.8,86.1 247.7,86.1 247.7,86.2 247.6,86.2 247.6,86.4 247.5,86.4 247.5,86.6 247.4,86.6 247.4,87 247.3,87 247.3,87.1 
		247.2,87.1 247.2,87.4 247.1,87.4 247.1,87.6 247.1,87.6 247.1,87.7 247,87.7 247,87.9 246.9,87.9 246.9,88 246.8,88 246.8,88.1 
		246.7,88.1 246.7,88.4 246.6,88.4 246.6,88.5 246.6,88.5 246.6,88.8 246.5,88.8 246.5,88.9 246.4,88.9 246.4,89 246.3,89 
		246.3,89.2 246.2,89.2 246.2,89.3 246.1,89.3 246.1,89.4 246.1,89.4 246.1,89.7 246,89.7 246,89.8 245.9,89.8 245.9,89.7 
		245.8,89.7 245.8,89.8 245.7,89.8 245.7,89.9 245.8,89.9 	"/>
</g>
</svg>
