<?xml version="1.0" encoding="utf-8"?>
<!-- Generator: Adobe Illustrator 24.2.3, SVG Export Plug-In . SVG Version: 6.00 Build 0)  -->
<svg version="1.1" id="Layer_1" xmlns="http://www.w3.org/2000/svg" xmlns:xlink="http://www.w3.org/1999/xlink" x="0px" y="0px"
	 viewBox="0 0 800 533" style="enable-background:new 0 0 800 533;" xml:space="preserve">
<style type="text/css">
	.st0{fill:#F2933D;stroke:#000000;stroke-width:0.4;stroke-miterlimit:9;}
</style>
<g>
	<polygon class="st0" points="650,207.4 649.8,205.5 649.3,202.4 648.3,202.4 647.6,202.6 646.7,203.3 646.2,203.8 645.5,204 
		644.9,204.4 642.3,205.4 641.6,205.4 640.8,205.8 639.7,205.8 638.5,206.2 636.6,206.2 633.5,205.5 631.6,205.3 629.9,204.8 
		627.9,204.4 625,203.5 622.4,202.5 618.9,201.4 616.2,200.4 612.8,198.9 611.8,198.6 611.3,198.1 610,197.9 609.5,197.4 
		608.5,197.2 607.1,196.2 606.1,195.8 606.1,195.4 604.9,195.1 603.3,194.1 601.5,193.1 601.4,192.9 597.9,191 597.7,191 
		595.6,189.9 594.3,189.1 593.5,188.9 593,188.2 591.7,187.4 591,187.2 590.3,186.7 589.8,186.7 589.4,186.1 588.4,185.5 
		585.1,183.4 584.7,182.9 584.2,182.8 583.7,182.2 581.9,181 581.1,179.9 580.4,180.5 579.6,180.4 580.1,179.8 579.9,178.8 
		579.3,177.4 578.5,177.3 578.3,175.4 578,175.2 577.4,172.8 577.5,172.4 577.4,171.4 578.1,170.8 578.5,170.8 578.9,170 
		579.3,169.8 579.3,168.9 579.7,168.5 582,168.6 583,168.4 583.5,168.1 584.2,168.1 583.8,167 583.2,167 582.8,166.5 582.7,165.5 
		582.9,165.1 582.2,164.6 581.4,163.4 581.4,162.6 581.1,161.6 581.3,161.4 581.3,160 581.1,159.1 580.8,158.8 580.9,158.1 
		580.5,158 580.4,156.2 579.8,155.3 578.8,155.2 578.8,154.4 577.8,154.4 577.7,153.7 577.4,153.1 576.4,153.1 575.6,152.6 
		575.5,151.3 575,151.4 574.8,150.7 574.1,150.1 573.5,150.1 573.8,148.9 573.1,148.5 572.8,148 572.7,145.8 572,145.7 570.6,146.2 
		568.5,147.6 568.2,148.8 568.3,149.5 567,150.3 566.2,150.3 565.9,151.6 564.7,151.4 563.8,151.6 562.7,152.1 562,152.6 
		561.4,152.5 560.2,153.2 559.2,154.2 558.8,154.2 557.9,155.1 557,154.7 556.8,155.2 555.9,155.3 555,156.2 554.4,156.2 
		552.8,157.3 552.2,157.4 552,157.9 552.5,158.6 551.7,159.6 549.3,159.8 548.7,160.1 547.5,160.4 546.2,159.6 545,158.6 
		544.7,158.6 543.5,157.6 543.1,156.9 542.2,157 541.5,156.8 539.6,155.2 538.9,154.4 537.9,154.1 537.3,154.3 536.8,155.1 
		536.3,155.1 535.5,154.6 534.7,154.9 533.6,154.9 533.3,154.7 531.8,154.6 531.5,155.3 531,155.3 530.2,154.7 529.6,154.9 
		528.8,155.7 528.1,155.8 527.5,156.3 525.5,157.2 524.4,157.2 524.2,156.9 522.7,156.8 522.6,157.1 521.2,157.2 521.1,158.4 
		520.2,158.8 519.7,159.5 518.2,159.7 518.4,161.4 517.4,161.7 516.8,162.4 515.4,162.1 515.1,161.8 513.9,161.7 513.7,162.2 
		515,163.2 515.3,164.2 514.7,165.4 514.7,166.3 513.2,167.9 512.3,168.2 512.3,168.9 511.6,169.9 510.9,169.9 510.5,170.7 
		509.4,171.4 508.9,172.3 509,173 508.7,173.3 508.3,174.5 507.8,174.5 507.4,175 506.6,175.4 505.5,175.3 504.9,175.1 503.5,175.2 
		503.3,174.7 502.8,174.6 502.1,175.7 501.4,175.3 500.5,175.7 499.3,175.5 497.6,176.2 497,175.9 496,176.3 495.8,177.1 495,176.8 
		493.5,176.8 493.1,176.3 491.1,176.7 490.3,176.7 490.2,177.2 489.5,177.3 489.3,176.8 488.6,176.8 488,177.3 486.8,177.2 
		485.7,177.4 484,176.5 483.6,176 483.1,176.1 482.7,175.6 481.7,175.6 480.6,174.9 480,174.7 479.2,173.7 477.7,172.5 477,171.8 
		476.8,171.2 475.9,170.4 475.3,169.5 475,169.9 474.2,169.7 473.5,169.7 472.2,170.6 471.6,170.6 471.3,171.2 470.2,171.8 
		470.1,172.4 469.3,172.3 467.7,172.9 467,172.9 466.4,172.6 465.4,172.6 465.1,172.4 463.7,172.8 462.9,172.6 462,172.6 
		461.8,172.3 460.9,172.3 460.4,171.8 459.2,172.1 457.9,171.8 457.2,171.8 457,171.4 456.2,171.4 455,171.9 454.9,172.2 
		452.6,172.1 452.5,172.5 451.5,173.1 450.4,173.2 449.3,172.5 448.6,172.5 448.2,172.2 447.1,172.2 446.5,171.9 446.2,171.4 
		445.2,171.3 444.4,170.7 442.8,170 441.8,169.9 440.9,169.7 439.7,169.7 438.9,170.2 438.3,170.1 437.8,170.6 436.1,170.9 
		435,170.4 433.4,170.7 431.4,171.9 431.3,172.3 430.6,172.5 430.2,173 430.2,173.7 429.7,174.7 429.1,174.9 428.7,175.6 
		427.5,175.9 426.7,176.7 426.2,176.8 425.5,177.5 425,177.6 424.8,178.2 423.5,178.4 422.8,180.1 421,181.4 420.1,182.4 
		418.8,182.7 418.6,183 416.8,184 416.8,185.1 417.2,185.4 417.7,186.7 417.9,188.1 417.1,189.1 416.4,189.5 415.9,189.5 413.5,191 
		412.1,193 410.6,193.4 409.9,194.2 409.6,195 408.7,196.1 407.6,196.2 406.6,197.4 405.8,198.9 405.1,199.9 404.3,200.1 
		403.6,200.8 403.1,202.3 403.1,203 402.6,204 402.2,204.5 401.3,204.6 400.5,206.1 400.3,207.4 399.4,207.9 398,208.1 397.5,209.3 
		396.1,211.5 396.1,212 395.3,213 394.2,212.9 393.9,212.7 392.7,212.6 392.6,212.3 391.3,212.2 390.9,212 389.9,212 389.4,212.6 
		388,213.2 386.5,213.4 385.9,214.3 385.3,214.7 384.8,215.6 384.5,216.5 383.8,217.6 384.3,218 384,218.6 383,218.7 382.4,219.1 
		382.3,219.6 382.8,220.7 382.7,221.7 381.9,222.3 380.8,222.4 380.5,223 379.8,223.9 379.8,224.7 379.3,225.3 379.3,226 
		378.9,226.7 378.5,226.8 378.5,228.6 378.3,229.4 377.8,229.8 377.2,230.2 376.6,231.3 376,231.4 375.1,232.1 375.1,232.8 
		374.7,233.6 374.2,234 374,235.1 372.3,235.2 371.7,235.4 371.1,236.1 368,237.1 366.6,238.4 366.1,238.4 364.9,239.6 364.1,239.8 
		363.2,241.1 362.3,241.2 360.9,240.4 360.6,240.4 358.8,242.3 356.9,242 356,241.5 355.5,241.5 354.3,243.3 352.9,243.2 
		352.2,243.3 351.7,243 350.9,243 350.6,242.7 349.5,243 348.7,242.9 348.5,242.6 347.5,242.5 347.1,242 346.4,241.7 345.7,241 
		344.4,241.5 344.2,241.8 343.1,242 342.3,242.5 342.6,243 343.6,243.3 343.6,245.3 343,245.3 343,246.2 343.3,246.6 343.2,248.6 
		342.7,249.3 342.3,250.4 342.4,252.2 342.7,252.7 342.3,254.2 343.1,255.2 343.5,255.4 343.8,256.2 343.8,256.9 343.4,257.4 
		342.5,257.3 342.4,257.8 341.4,258.1 340.8,259.8 341.1,260.8 341,261.4 341.6,262.1 341.7,263.3 342.2,263.9 342.6,264 
		343.1,264.9 343.6,266.9 343.6,267.6 343.8,267.8 344.1,269.3 343.8,270.2 343,271.1 342.5,271.3 341.9,272.3 341.2,272.7 
		341.4,273.5 340.4,274.6 339.4,274.6 338.4,275.2 337.2,275.2 336,274.4 335.4,274.9 334.4,274.8 334.1,274.4 333.5,274.9 
		333,275.9 332.3,276.5 331.5,278.5 331.6,279.3 332,280.3 332,280.8 332.5,281.4 332.6,282 332,282.9 331.2,283.6 330.6,284.5 
		330.6,285.8 330.3,287.1 330,287.5 330,290.8 328.9,292.1 328.6,292.7 328.1,293 328.2,294.2 327.7,294.9 326.2,295.1 325.6,295.4 
		325.3,295.8 325.1,298.9 324.6,299.5 324.6,300.4 324.1,301.1 323.4,301.6 322.8,301.6 322.2,303.4 321.2,303.8 321.1,304.5 
		320.3,304.9 318.6,304.7 316.8,305.6 316,305.6 314.5,306.2 313.1,308.2 311.9,309.2 310.8,308.9 310,308.9 309.2,309.4 308,310.4 
		306.5,310.6 305.3,310.6 304.8,310.1 303.1,311.1 301.5,310.9 300.5,310.4 299.6,310.5 299.5,311.1 299,311.1 296.1,309.3 
		294.9,309.1 293.8,309.1 293.4,308.8 292.7,308.8 291.6,308.1 290.6,308 290.2,307.6 288.9,307.3 288.5,308.5 287.6,309.3 
		287,309.5 286.5,310.2 285.9,310.4 285.6,311.7 284.8,313 284,313.6 283.4,314.9 283.4,315.5 283.1,316.8 282.5,318.5 282.5,319 
		282.1,320.4 282.1,320.9 281.5,322.6 280.8,323.6 280.6,324.1 280.6,326.8 280.1,328.5 280.1,329.3 279.5,331.5 279.9,332 
		279.4,332.9 279.4,333.6 278.9,335.1 278.7,336.5 278.3,337.1 278.1,338.5 277.3,339.7 276.8,340.1 276.4,341.4 276.4,342.8 
		277.4,343.9 278.7,345.9 279.3,347.1 279.1,348 278.7,348.4 278.5,349.3 278.7,351.6 277.7,352.2 277.4,353.2 277.7,353.9 
		276.9,354.6 277,355.1 276.6,355.4 276.7,356.1 275.9,356.1 275.2,356.4 274.8,357.3 274.9,358 274.5,358.6 275.5,360 275.1,361.7 
		274.5,362.7 274.7,363.2 274.7,364.2 274,365.4 273,366.2 274,366.8 276.6,369.2 277.4,369.8 278.9,371.2 279.8,373 279.8,374.1 
		279.7,376.2 279.3,377.3 278.7,378.1 278,378.6 278.1,379.6 277.3,382.3 277.8,383 278,384.3 277.8,385 278.5,387.4 278.5,388.4 
		277.8,390.4 277.4,390.6 276.8,391.3 276.7,391.9 275.9,392.9 275.3,393.2 273.9,394.6 273.7,395.5 274,396.6 274.5,397.1 
		274.3,398.7 275.3,400.5 275.8,400.9 276.1,401.8 276.7,402.4 276.9,404.8 278,406.6 278.6,409 278.1,409.9 278.1,410.6 
		278.7,414.4 278.6,415 279.3,417.3 279.4,419.4 280.1,420.8 280.1,421.8 279.6,423.4 279.6,426.8 279.8,427.6 279.8,429.2 
		279,430.2 279.1,431.3 278.7,432.6 278.7,433 277.8,435.8 277.5,436.1 277.2,437.7 276.4,439.3 276.4,440.3 275.3,443.5 
		274.6,444.1 274.3,445.4 273.6,446.1 273.2,447.2 272.3,448.6 271.3,449.7 270.7,449.9 269.7,450.8 269,450.8 268.1,451.5 
		267,452.7 266.7,452.7 265.7,453.6 264.6,455.3 264.7,457 264.2,457.7 263.8,460.5 263.5,461.6 263,462.1 262.4,463.8 261.7,465.1 
		261.6,466 261.3,466.3 261.2,467.9 260.9,468.1 261.2,469.4 261.2,470.4 260.8,471 260.6,472.7 260.4,473.1 260.3,475 259.8,475.1 
		259.1,476.3 258.1,477.1 258.3,477.8 259,478 259.3,479.6 258.8,481.2 257.8,481.3 257,482 256.7,482.5 255.9,482.7 255.4,483.5 
		255.4,485.3 255.1,486.4 254.6,487.3 254.3,488.1 254.4,488.9 254.1,489.6 254.1,490.9 253.5,491.6 253.8,492.2 254.3,492.3 
		254.6,493.1 255.1,493.3 255.7,494.4 257,494.8 257.2,495.2 258,495.5 258.3,496 259.6,496 260.4,496.5 261.3,496.5 263.2,497.2 
		263.8,497.7 264.5,497.7 265.2,498.1 265.6,498.7 266.2,498.7 267.5,500.2 270.2,500.1 271.1,500.5 271.4,500.9 273.2,501 
		274,500.4 274.6,500.5 275.8,499 277.3,499.1 277.7,499.6 278.5,499.6 279.8,498.6 280.6,498.7 283.1,498.7 283.8,498.9 
		285.1,498.1 287.5,498 287.9,498.4 288.5,498.4 289.2,497.9 290.6,498.1 291.6,497.1 291.5,496.5 291.9,496.2 292.1,495.3 
		292.5,494.9 294,494.6 294.5,494.1 295.1,493.8 296.2,493.8 297.4,493.5 298.7,495.3 298.3,495.9 298.5,496.7 299.7,497.1 
		300.6,497.1 301.4,495.3 302.2,494.9 302.1,493.7 303.5,492.8 303.5,492.2 304.2,491.6 305.3,491.6 306.3,490.4 307.9,490.3 
		308.4,490.7 310,490.5 310.7,489.9 311.4,489.9 311.8,489.6 312.8,489.6 313.7,490.1 316.3,489.8 317.9,490.2 318.9,490.2 
		319.3,490.8 320.2,490.7 320.6,491 321.5,491.2 322.8,491.2 325,489.7 326.2,489.8 326.9,489 328.8,489 330,489 331.1,490.3 
		331.9,490.3 332.7,491.2 333.7,491.2 333.3,489.8 333.8,488.7 334.1,487.3 334.8,486.2 335.3,485.8 336.3,485.8 337.9,485.3 
		339.8,485.5 341.7,484.2 342.6,483.9 345.1,483.7 346.2,484.2 346.6,483 347.8,481.8 349.2,480.9 350.2,480.8 351,480 351.7,479.8 
		352.1,478.8 353.9,478.2 355.7,478.2 356.1,478 357,477.2 360.4,477 361.1,476 362,475.6 363,475.5 364.3,475 367,474.9 367.7,475 
		368.5,475.5 370.1,475.2 372.7,473.5 374.3,473.5 374.8,473.2 375.8,473.2 377.2,473 379.2,473.5 379.5,473.8 380.4,473.8 
		381.9,472.8 382.4,472.2 383.3,472.3 383.5,472.1 385.2,471.9 386.1,471.4 387.7,470.7 390.2,470.8 391.4,469.3 392.8,468.8 
		394,468.7 394.6,469.1 396.7,468.8 397.8,468.5 398.6,467.9 398.8,467.4 400.8,466 401.9,465.5 402.7,465.4 405.6,465.4 
		406.1,465.7 407.4,465.9 408.2,466.6 408.7,466.6 409.5,465.8 410.8,464.7 410,464.2 410.5,460.8 410.7,456.2 410.7,437.8 
		411,432.2 411.7,429 413.8,424.2 415.3,419.7 416.8,415.8 418,414.3 419.2,413.3 419.9,412.9 422.2,411.7 426,409.6 427.7,408.9 
		429.6,408.6 432.6,408.3 437.7,408.3 442.8,408.4 445.8,408.6 447.8,408.9 449.6,409.5 452.5,411 454,411.6 455.8,411.8 
		457.6,411.5 459.3,410.7 460.8,409.5 462.9,407.5 469.2,400.8 471.4,398.8 473,397.6 474.6,396.7 477.9,395.2 481.7,393 
		485.8,391.2 488.6,389.4 491.3,387.8 492.8,386.5 495.3,385.2 500.6,383.4 504.4,381.4 506.2,380.8 508.2,380.4 513.2,379.9 
		515.2,379.5 517,378.9 520,377.4 521.8,376.7 523.9,376.4 527,376.1 534.2,376.1 537,376.3 538.9,376.7 540.6,377.3 544.3,379.4 
		547.7,380.9 552.8,383.7 557.5,384.6 560.1,385.6 562.3,387 566.8,390.4 569.8,389.2 574.1,387.9 575.8,387.2 579.5,385.1 
		583.6,383.2 587.3,381 590.7,379.6 595.2,377 599.3,375.2 602.3,373.4 605.5,371.9 607,371 608.3,369.9 609.4,368.5 610.3,367 
		611.8,363.7 612.8,362.2 616.7,357.2 617.7,355.7 619.2,352.4 620.1,351.1 621.1,349.8 623,341.1 623.6,339.4 625.5,335.5 
		626.1,333.6 626.3,331.7 626.4,329.7 626.3,326.8 625.8,324.9 625,323.3 623.9,321.9 622.6,320.8 621.9,320.4 619.6,319.3 
		618.2,318.5 616.9,317.4 616.4,316.7 615.6,315.2 615.3,314.4 615.2,312.5 615.6,310.8 617.1,307.8 617.7,306.2 618.8,301.6 
		619.3,299.8 621.5,295 622.1,293.2 623,288.5 623.6,286.8 625.5,282.8 626,281 626.8,277.3 627.4,275.5 629.5,270.8 630,268.9 
		630.1,267 629.8,264.2 629.2,262.4 627.2,258.6 625.8,255.1 623.2,250.5 621.9,247 620,243.1 621.2,240.9 622.8,238.5 626.1,234.9 
		630.2,230.8 632.3,228.9 633.8,227.8 635.3,227 637.9,225.8 640.1,224.3 642.2,222.6 644.2,220.6 646.1,218.6 647.9,216.5 
		648.9,215 649.6,213.2 649.9,211.3 650,209.4 	"/>
	<polygon class="st0" points="253.1,333.8 254.3,334.2 254.9,334.7 255.5,334.7 256.3,334.3 257.2,333.2 258,332.5 257.7,332.2 
		256.7,332.8 255.6,332.5 255.1,332 253.1,331.4 252.2,332.2 252.1,332.8 252.4,333.8 	"/>
	<polygon class="st0" points="251.1,334.6 250.6,334.6 250.3,335.1 250.9,335.3 	"/>
	<polygon class="st0" points="260.1,339.2 259.8,338.4 258.6,338.9 258.5,339.4 259.6,339.6 	"/>
	<polygon class="st0" points="254.3,383.9 254.8,383.7 255,383.1 257.5,382.1 258,381.3 258.6,380.8 258.9,379.8 257.7,379.6 
		257.5,378.8 258.2,377.9 257.5,377.3 257.5,377 256.4,375.8 257,374.9 256.5,373.3 257,372.5 258.2,372.2 257.9,371.5 257.4,371.4 
		257.6,370.5 256.7,369.6 257.2,368.8 256.6,368.2 256.5,367.3 255.7,367.1 255.9,366.3 255.5,365.9 253.3,365.9 252.4,364.9 
		252,364 251.2,363.8 250.4,363.8 249,364.8 247.7,364.9 247.2,365.8 246.3,365.8 245.7,365.3 244.6,365.2 243.4,364.8 241,364.6 
		240.8,365 239.1,365 237,364.8 236.6,365.3 236,365.3 235.8,365.8 233.9,366 232.8,365.8 231.3,366.4 230.4,366.5 227.9,366.5 
		227.3,366.7 227.3,367.4 227.6,368.2 228.6,368.8 228.8,369.8 229.1,370.1 229.4,371.4 229.8,372 230.4,372.7 231.6,372.9 
		232,373.3 232.6,373.4 233,374 234,373.8 234.7,372.8 235.6,372.8 236.4,373.7 237.4,374.1 238,374.1 238.6,375 238.2,375.3 
		238.1,376.1 239.4,376 240.7,376.9 241.4,377.5 242.7,377.5 243.2,378 243.2,378.6 243.8,379.2 244.3,379.2 245,379.7 245.7,379.7 
		245.8,380.1 246.7,380.9 247.4,380.9 249.1,381.4 249.1,382.9 249.7,382.8 250.1,383.1 250.1,384.1 250.7,385 251.4,384.8 
		253.2,383.8 253.8,383.6 	"/>
	<polygon class="st0" points="281.1,293.6 281.5,294.8 282.1,295.1 282.3,295.8 282.9,296 283.7,295.8 284.8,295.7 286.1,296.6 
		286.9,296.4 287.4,295.8 288.1,295.2 288.2,294.5 288.8,294.1 289,293.5 289.9,292.8 290.6,292.9 290.9,292.4 292.3,292.5 
		292.9,292.8 293.8,294.3 294.3,294.3 294.5,293.8 295.7,293.5 296.6,292.8 297.1,291.6 297.3,290.2 298.3,289.8 299.7,289.8 
		300.3,289.2 301.6,288.6 302.2,287.7 302.5,287 303,287 304.2,286.4 304.8,285.8 306,285.2 306.8,285.1 307,284.8 308.5,283.8 
		309,283.8 309.9,283.2 311.1,282.6 311.6,282.2 313.1,282.1 313.5,281.7 314.7,281.3 315.2,280.5 317.1,279.1 317.6,279 
		318.5,277.8 318.4,277.5 318.6,276.3 320.2,275.1 320.8,275.1 321.1,274.7 322.4,274.3 323.1,273.7 323.6,273 325.8,270.5 
		326.1,269.5 327.4,268.5 327.5,267.4 328.1,266.8 328.6,266.8 329.7,265.4 329.9,265 331,264.7 333.6,263 333.9,262.6 334.7,262.3 
		335.4,261.9 336.8,260.7 336.5,259.4 336,258.2 335.7,257.8 335.6,256 335,255 334.8,254 334.4,253.3 334.5,252.9 334.2,251.9 
		333.7,251.8 333,251 332.8,250.3 332.1,249.3 331.6,248.3 331.7,248 331.2,246.9 331.2,246.2 330.7,244.9 330.9,244 331.5,243.2 
		331.6,242.6 331.2,241.7 330.7,241.5 330.5,240.4 331,239.8 331.9,239.6 332.2,240 332.8,240 333,240.5 333.8,240.5 335.4,239.8 
		335.9,239.4 336.5,238.3 337.9,238.2 339.1,236.7 339.7,236.6 341.3,235.5 343.3,235.5 344.2,234.9 344.9,234.7 345.6,234.8 
		345.9,234.4 346.7,234.5 347.8,234.2 348.5,233 348.3,231.8 349.4,230.8 350.1,230.7 350.3,231.2 350.8,231.3 351.5,230.1 
		352.6,230 353.4,229.6 354.1,228.8 355,228.6 355.4,228 356.2,227.4 356.9,226.8 357.5,226.7 357.9,226 358.3,226 358.8,225 
		359.7,224.9 360,224.2 360.5,223.7 360.6,223 362.5,222.1 362.7,220.9 364.1,220.1 364.9,219.3 365.5,217.8 366.1,217 366,216.2 
		365.6,215.1 365.8,214.5 366.7,213.7 367,213.7 369.1,212.2 369.3,211.7 370,211.1 370.6,210.2 372.2,209.3 372.4,209 373.8,209.1 
		375.2,208.1 376.5,208.1 378.2,207.1 379.2,206.7 380.2,206.7 380.6,206.5 381.1,205.3 381.9,204.8 383,205 383.8,204.6 
		383.9,204.1 385.1,204 385.6,203.3 385.5,202.6 386.6,200.9 386.7,200.1 387.2,199.5 387.9,199.5 389.2,199.9 390.2,199.9 
		391.8,198.5 392.1,198.1 391.9,197.5 392.1,196.4 392.7,196.1 393.7,195 394.4,194.6 394.8,193.6 396.3,191.8 397.5,190.9 
		397.7,190.4 398.7,189.6 399.3,188.9 399.8,187.8 400.2,187.8 401.4,185.6 401.9,184.4 401.6,182.6 401.1,181.2 401.1,180.2 
		400.5,178.4 400.5,177.4 400.8,176.6 401.6,176.5 402.1,175.2 403.2,175.1 403.8,175.3 404,174.4 403.7,174 403.7,172.8 
		404.1,171.2 404.4,170.6 405.3,170.2 406.6,170.3 407.5,170.1 408.1,169.4 410.1,169.3 410.5,169.6 411.2,169.6 411.6,169.9 
		413.4,170.6 414.3,169.8 414.8,168.8 415.2,168.4 415.1,167.7 414.4,167.5 414.4,166.3 414.9,165.8 416,166 416.2,165.3 417.3,165 
		419.5,165 419.7,164.2 419.1,163.6 418.9,162.1 418.6,161.8 418.6,160.9 418.4,160.5 417.9,156.9 417.9,155 418.7,153.5 
		419.5,152.9 421.2,152.3 423.3,152.3 423.7,151.7 424.5,151.3 424.8,150.8 425.7,150 426.5,149.7 426.6,148.9 427.6,148.1 
		428,146.7 428.6,146.2 429.4,145.9 430.2,144.9 431.5,144.6 431.6,144.3 432.3,144.3 432.8,143.9 433.7,143.8 434.1,143.5 
		436.2,143 436.4,142.6 437.8,142.3 439.1,142.3 441,141.5 441.8,140.7 443.3,139.7 444.5,139.2 445.1,139.2 445.4,138.9 447,138.3 
		448.4,138.1 449,137.7 450.1,137.7 451.2,137.4 452.8,136 453.8,135.8 454.1,135.4 454.9,135.5 456.2,134.5 456.6,134.5 
		458.7,133.4 459.9,133.4 460.8,132.7 461.2,132.1 463.3,130.9 463.9,130.3 464.6,130.2 465.6,129.3 466.4,128.3 467.7,127.7 
		468.4,126.7 469.6,125.8 470.2,125.7 471.9,124.4 473.3,124.4 473.5,124 474.5,123.2 475.6,123 476.4,122.6 477.6,122.6 479,122 
		480.1,121.7 480.4,121.4 482.9,121 483.8,120.6 484.9,120.4 485.7,119.8 486.5,119.6 488.3,119.5 488.7,119.4 489.8,118.3 
		490.8,118.3 491.2,117.9 493.3,117.7 494.3,117.5 495.4,117.6 496.4,117.9 497.2,117.2 497.7,116.4 497.8,114.1 498,113.2 
		498.5,112.8 499.2,112.9 499.5,112.6 499.8,111.3 500.2,111.2 501.3,110 501.6,109.4 502,109.4 502.4,108.7 503.4,107.9 504.2,107 
		504.3,106.5 504.9,106.3 505.6,105.4 505.3,97.3 505.4,67.6 505.6,64.2 506,62 506.7,59.9 508.3,56.1 508.8,54 509,50.8 
		508.7,46.5 505.3,37.4 504.4,35.8 503.3,34.4 501.9,33.3 500.3,32.5 497.5,32 494.7,32 491.8,32.3 490,32.9 488.5,33.6 485.5,35.4 
		482.2,36.8 477.7,39.5 474.4,41 472.9,42 471.5,43.2 466.6,48 464.4,50 462.8,51.1 461,51.9 459.1,52.3 457.1,52.5 451.9,52.5 
		446.8,52.2 441.6,51.4 439.3,56.6 438,60.1 435.9,63.9 435.3,65.7 435.1,67.6 435.2,70.5 435.6,72.3 436.4,73.9 439.2,78.5 
		443.1,81.6 444.1,82.6 444.7,82.4 445.8,83.1 447,83.3 447,83.9 447.6,84.3 448.4,85.6 449,85.8 450.2,85.9 450.5,86.4 450.6,87.2 
		451.7,88.5 452,89.7 451.7,90.5 453.2,92.8 453.8,94.4 454.4,96.9 454.6,97.3 454.7,100 455.3,100.5 455.4,102.2 455.9,103.9 
		455.9,106.4 455.6,107.7 454.9,108.7 454.6,108.7 454,109.5 452.8,110.1 452.5,110.7 450.1,112.3 449.4,113.5 448.6,114.2 
		447.3,115 446.7,115.8 446.5,116.3 445.7,116.7 445.5,117.2 444.6,117.5 444.4,117.9 443.3,118.5 442.8,118.5 441,119.4 439.5,120 
		438.9,120.8 437.8,121.3 436,121.5 435.2,121 434.4,121.4 433.1,121.2 432.2,120.7 431.3,119.4 431.6,118.7 432.2,118.1 432,116.6 
		431.1,118 430.5,118.1 429.4,119.2 429,119.4 428.9,120.8 428,121.7 426.9,121.6 425.9,122.2 424.6,123.6 424.3,124.5 423.8,125.3 
		423.4,127 423.1,127.4 423.1,128.3 422.9,128.7 422.6,130.2 422.6,131.1 421.8,132.6 421.2,132.8 420.7,133.4 419.4,133.4 
		418.5,134.4 418,134.5 417.8,133.8 413.6,133.9 412.6,134.3 409.6,134.2 409.2,134.8 408.4,134.4 406.8,134.1 406.2,134.5 
		404.7,134.5 403,133.4 402.4,133.4 402,134 401.1,133.8 400.3,134 399.5,134.6 399,135.3 398.4,135.3 396.9,135.9 396.1,135.8 
		395.1,136 393.7,136.9 392.3,137.6 391.7,137.6 390.3,138.4 389.9,139.2 389.1,139.3 389,139.7 387.4,140.3 386.6,141.7 
		385.8,141.8 385.3,142.2 384.6,143 383.5,143.7 382.6,143.5 381,143.6 380.1,144.2 379.7,145.2 379.2,145.2 378.8,145.8 378,146.1 
		376.6,147.6 375.9,147.6 374.2,149.5 372.5,150.2 372.2,150.6 371.3,151.1 370.1,151.3 370,152.1 369.5,152.6 368.6,152.5 368,153 
		367.7,153.9 366.9,154.1 366,154.6 365.9,155.1 365.3,155.5 364.7,155.5 364.3,155.8 363.6,155.8 360.9,156.6 359.1,156.5 
		358.6,156.8 356,157.3 355.9,157.9 355,158 353.6,158.9 353.4,159.3 352,160 351.9,160.3 350.9,160.7 350.3,161.6 350.2,162.7 
		348.9,163.4 348.2,164.2 348.2,164.7 347.6,165.4 347.2,165.4 346.3,166.2 345.4,166.2 344.8,167.8 343.7,167.9 341.5,167.9 
		340.4,168.5 340.4,169.8 339.4,170.8 338.2,171.6 338,172 337,172.5 336.1,172.5 334.9,173.7 333,174.2 332,175 332,176.7 
		331.4,177.3 330.3,177.5 328.9,178.2 328.6,178.7 328,179.1 327.2,179.1 326.5,179.8 326.1,180.7 325.2,181 324.9,181.9 
		324.3,182.7 324.3,183.5 323.7,184.3 322.6,184.3 321.8,184.7 321.2,184 321.5,182.7 320.2,182.5 319.4,183.1 318.9,183.1 
		318.1,183.6 317.6,183.6 317,184 316.8,184.8 316.3,185.3 315.6,185.6 315.5,186.3 315,186.7 314.8,187.5 314.3,188.4 313,189.1 
		311.1,189.5 309.8,189.5 307.9,190.1 306.8,189.9 305.7,190.4 304.8,191.3 304.2,191.5 304,192.4 303.2,192.4 302.9,192.9 
		302.1,193.4 302.1,194.1 301.6,194.6 301.1,194.6 299.7,195.5 298.9,195.8 298.2,197.1 296.7,197.9 296,198.8 295.2,198.9 
		294.7,199.5 294.2,199.7 294,200.5 294.5,200.9 294.8,200.6 295.5,200.6 295.5,201 297.3,200.9 298.1,200.7 299,201.1 300.1,201.3 
		300.7,202.8 301.2,203.3 301.6,204.6 301.5,206.6 301.2,206.9 300.2,207.1 300.1,208.7 299.5,209 299.3,209.6 299,209.8 
		297.9,209.7 297,209.8 297,210.4 297.5,210.7 297.9,211.4 299.2,212.2 300,212.3 300.5,213.1 301.2,213.1 302.4,214.8 302.7,214.8 
		303.8,215.6 303.9,216.2 306,218 306.3,218.1 307.7,220.1 308.1,220.2 309.7,222.2 310.4,224 310.8,226.3 310.2,227.3 309.5,227.4 
		309.2,227.8 309.3,228.8 309.1,229 309.2,231.1 309.7,232.9 309.8,235.8 309.5,236.1 308.6,237.6 307.9,238.4 307,238.5 
		306.8,239.2 307.4,239.9 307.9,241.4 307.7,243.3 307.3,243.9 306.6,244.1 306.4,245.4 305.3,247 305.3,247.9 304.4,249 
		304.4,249.3 303.4,250 302.9,250.6 302.9,251.6 302.3,253.6 301.8,253.8 301.5,254.5 300.4,255 298.5,256.9 298.5,257.8 298.2,259 
		297.3,260.2 297,261.8 295.7,264.4 295.4,264.7 295,266.6 294.5,267.3 294.4,267.8 293.9,268.1 293.1,269.1 292.5,270.6 
		292.5,271.8 292.2,273.7 291.6,275.1 291.1,275.6 290.9,276.3 289.4,278 288.3,279.5 287.7,280 286.9,280.9 286.4,282.2 
		285.9,282.3 285.3,284.5 284.6,285.9 283.9,287.6 283.4,288.1 283.4,288.7 282.6,289.2 282.1,290.4 280.9,291.2 280.4,292.1 
		280.6,293 	"/>
	<polygon class="st0" points="228.2,267.3 229.7,267.1 230,267.4 231.2,266.2 231.4,265.7 232.7,265 234.9,264.8 235.6,265 
		236.3,264.3 236,263.9 236,263 236.6,262.4 237.3,262.3 238.1,261.4 239.2,261.1 239.9,260.2 240.7,259.4 240.8,258.2 241.2,257.3 
		241.1,256.6 240.7,255.9 240.7,254.3 240.3,253.8 239.4,254.5 239.1,255.8 239,256.8 238.7,257.1 237.8,257 237.3,257.3 
		235.9,257.3 235.4,257 234.9,257.4 235,258.3 234.5,258.7 234.2,260.6 232.8,260.7 230.5,260.4 229.8,259.6 229.3,259.6 
		228.6,258.7 228.3,258 229.3,257.7 229.4,256.8 228.6,256.5 228.2,255.7 228.6,254.7 228.2,254.4 228.1,253.7 228.6,252.6 
		229.4,252.3 229.7,251.5 230.2,251.5 230.4,250.9 230.4,250.1 230.1,249.4 229.5,249.1 229.1,248.4 229.1,247.7 229.4,247.2 
		230.2,246.8 230.8,245.5 230.9,242.9 231.1,242.1 230.4,241.2 230.6,239.2 230.4,237.6 231.2,235.9 230.7,235 229.9,234.3 
		229.9,233.5 228.4,233.2 227.5,233.7 226.3,233 225.4,233.3 224.3,232.8 223.7,232.1 223.2,231.1 223,230.2 223.1,229.5 
		223.8,229.2 224,228.4 223.8,227.8 222.8,226.9 222,227.2 221.7,227.7 221.5,228.6 220.5,227.7 219.9,227.8 219.5,227.4 
		218.1,227.2 217.6,227.5 216.1,227.5 215,228.5 213.5,228.6 213.2,228.4 211.1,228.5 210.2,228.8 209.4,229.4 209.4,230.6 
		208.9,230.8 208.1,230.3 206.9,230.3 204.5,231.2 203.6,231.6 203.5,232.2 202.7,232.7 202.3,233.3 200.1,234.2 199.6,234.2 
		199.2,234.5 197.9,234.9 197.7,235.9 196.9,236.4 196.9,236.9 196.3,237.2 195.8,237 195.3,237.1 194,236.9 192.8,236.9 
		191.6,236.2 190.5,236.2 189.8,236.7 189,237 187.9,237 187.4,236.7 186.6,236.7 186.3,237 182.9,237.1 181.8,237.3 180.3,238.3 
		180,238.7 179.4,238.8 178.4,239.8 177.5,239.8 176.8,240.2 176.5,241.1 174.6,242.2 173.7,242.3 173.2,242.6 173.1,243.3 
		172,243.5 171.9,244.2 169.7,244.8 169.3,245.4 168.4,245.7 167.7,245.7 167.1,246.7 165.7,246.7 165.1,247.4 164,247.8 
		163.3,248.7 163.2,249.1 162.1,249.6 161.9,250.1 161.2,250.1 160.3,250.7 159.7,251.3 158.8,251.7 158.9,252.5 157.1,254.6 
		156.3,255.2 155.4,255.3 154.8,256 154.1,256.2 153.4,255.9 153,256.6 152.4,257 151.4,257.3 151.2,258.8 150.6,259.4 150.7,260.4 
		151,260.8 151,262.3 150.9,263.4 150.6,264.2 150.6,265 150.3,266.6 150,267.1 150.4,267.9 150.9,267.9 151.8,267.4 152.1,267.8 
		153.1,267.7 155.6,268.8 157.1,269 157.5,269.5 158.2,269.5 159.4,270.1 160,270.1 160.9,270.6 160.9,271.6 161.5,271.6 162,272.5 
		163,272.5 165.1,273.3 165.6,273.8 165.7,274.8 166.2,275.7 166.7,277.1 166.7,277.7 167.2,278.6 168.3,278.4 169,279.2 169.3,279 
		170.3,278.9 170.8,278 173,277.1 173.7,277.2 174.3,276.2 175,276.1 176.6,276.1 177.9,276.4 178.2,277 179.8,276.8 179.9,276.3 
		180.7,276.3 180.9,277.1 181.6,277.3 182,277 183,277.5 183.7,277 184.1,275.2 184.7,274.5 185.1,274.4 186.9,274.5 187.9,274.7 
		188.4,275 189.5,275 189.9,275.3 190,275.9 191,275.9 192.2,275.6 192.9,276 194,275.5 194.9,276.2 195.6,275.8 197.1,275.5 
		197.8,275.1 197.9,274.6 199.1,274.9 199.2,274.2 199.8,273.4 200.5,273 201.3,273.1 201.7,272.7 203.3,272.4 203.4,272.7 
		204.3,272.5 205.5,271.7 205.9,271.1 207.1,271.1 207.5,270.7 209.3,270.7 210.6,270.2 210.8,269.5 212.3,269.1 214.7,269.2 
		215,268.6 215.7,268 216.8,267.8 217.8,267.8 218.6,267.1 220,267 220.3,266.6 220.9,266.7 221.9,266 222.3,265.9 223,266.7 
		223.6,266.8 224.9,267.8 227.8,267.8 	"/>
	<polygon class="st0" points="423,176 422.3,176.1 421.3,176.9 421.1,177.6 422.2,177.5 422.3,177.8 423.8,178 423,176.8 
		423.4,175.6 	"/>
</g>
</svg>
