<?xml version="1.0" encoding="utf-8"?>
<!-- Generator: Adobe Illustrator 24.2.3, SVG Export Plug-In . SVG Version: 6.00 Build 0)  -->
<svg version="1.1" id="Layer_1" xmlns="http://www.w3.org/2000/svg" xmlns:xlink="http://www.w3.org/1999/xlink" x="0px" y="0px"
	 viewBox="0 0 800 533" style="enable-background:new 0 0 800 533;" xml:space="preserve">
<style type="text/css">
	.st0{fill:#F2933D;stroke:#000000;stroke-width:0.4;stroke-miterlimit:9;}
</style>
<polygon class="st0" points="717.2,396.8 716.5,392.5 715.6,390 712.9,384.2 712.1,381.6 710.7,374.8 709.8,372.3 707,366.5 
	706.3,363.8 705.8,361.1 700,361.1 698.8,355.7 696.1,349.8 695.2,347.3 693.8,340.5 693.1,337.9 689.9,330.8 688.6,325.4 
	687.3,320.1 684.7,314.2 683.8,311.5 681.9,297.8 681.1,295.1 679,290.5 678.2,287.8 677.6,284.8 676.8,277.1 676.2,274.1 
	675.3,271.4 672.8,265.6 671.8,260.9 671.5,256.1 671.3,247.8 671.4,237.8 671.7,231.3 672.1,228.1 672.9,225.1 676,218.1 
	676.8,215.2 677.4,210.6 677.5,204.4 677.2,199.8 676.2,195.4 672.9,188.4 670.7,181.9 669.4,178.8 665.6,177.8 656.2,176.2 
	653.8,175.3 648.1,172.6 640.3,170.6 637.8,169.8 634.4,167.8 627.2,162.6 623,161.3 614.7,158.2 608.1,154.4 603.2,152.3 
	596.6,148.5 592.9,146.9 590.5,145.6 588.3,144 585.1,141.2 579.1,135 576.5,131.6 575.1,129.1 574.7,127.7 574.1,124.9 573.8,122 
	573.8,114.7 574,111.8 574.4,109 575.2,106.2 575.8,105 577.3,102.6 580.1,99.4 589.1,90.2 595.3,84.4 601.2,79.9 602.4,76 
	602.8,73.1 602.8,68.8 602.4,66 601.4,63.2 599.9,60.8 597,57.5 594.9,55.6 592.5,54.1 591.2,53.6 589.9,53.3 587.2,53.3 584.8,54 
	579.3,56.8 574.2,58.3 570.2,61.7 568,63.2 565.5,64.4 560.4,66.5 556.5,69 551.7,71.2 545.1,75.1 540.2,77.2 534.7,80.2 
	532.2,81.1 528.3,82 523.1,83.3 517.4,86 515,87 508.4,88.4 505.8,89.2 499,92.6 494.1,94.7 491.9,96 484.9,100.7 483.5,102.5 
	482.3,105.7 473.9,105.8 470.7,106.1 467.9,106.8 466.6,107.4 463.2,109.8 456.1,112.6 455,113.2 451.8,115.7 446.7,118 
	445.9,118.5 444.9,120 445.1,122.1 439.2,123 434.9,123.4 429.2,123.6 423.5,123.3 420.8,122.8 418.3,121.8 412.8,118.8 
	409.3,117.2 407.1,115.8 404.4,113.1 403,111 400.1,104.9 398.6,102.6 396.8,100.4 390.9,94 386.6,90.3 384.3,88.8 379.4,86.6 
	374,83.5 369.2,81.3 366.8,79.9 364.5,78.2 359.1,73.5 355.6,71.1 350.8,68.8 344.2,64.9 339.4,62.8 333.9,59.8 332.7,59.3 
	330,58.5 325.7,58 310.5,57.8 302.8,57.6 299.6,64.3 297.6,69.4 294,76.3 291.9,81.3 284,94.5 280.1,94.5 277.4,94.8 275,95.6 
	270.5,97.6 267.9,98.5 254.7,100.5 252.1,101.4 247.5,103.5 245,104.4 242,105 234.6,105.8 231.7,106.4 229.1,107.3 223.4,110.1 
	214.3,112.9 207.7,114.3 200.6,116.3 197.9,116.8 192.3,117.2 179.5,117.3 175.4,117.7 172.7,118.4 171.5,118.9 165.9,121.7 
	163.4,122.4 158.1,123.5 155.6,124.4 154.4,125 152.1,126.5 149,129.3 135.2,143.6 130.2,148.5 128.1,150.2 125.8,151.7 
	122.2,153.3 119.9,154.6 117.7,156.2 115.6,158 109.6,163.9 89.6,184.8 94.5,191.3 96.4,194.8 97.2,197.5 97.5,200.3 97.5,206.1 
	97.1,208.9 96.3,211.6 93.7,217.4 92.5,221.4 92,225.9 91.4,236.7 90.4,241.2 88.6,244.7 82.7,253.6 132.1,253.6 136.8,253.8 
	141.4,254.5 144.1,255.4 149.6,258.4 154.4,260.6 161,264.5 165.9,266.7 171.4,269.7 173.8,270.7 180.9,272.7 186.1,276.3 
	194.4,278.8 201.1,282.4 206,284.5 212.7,288.1 220.6,290.5 224.7,293.6 226.9,294.6 232.5,296.5 233.5,297 236.7,299.6 
	237.7,300.1 246.1,302.5 256.4,307.6 258.6,309 260.5,310.6 262.2,312.5 265.3,317.4 268.2,320.6 272.7,328.9 280.2,336.1 
	296.3,352.8 300.1,356.7 302.1,358.4 304.2,360.1 310.2,364 311,366.2 312.2,368.4 313.7,370.5 316.4,373.4 318.3,375.2 
	320.4,376.8 322.7,378 326.4,379.6 329.8,381.9 333,384.8 336.1,387.8 339,391 341.7,394.3 343.1,396.7 345.2,401.8 347.5,406.3 
	348.6,408.7 349.3,411.4 350.5,418.2 351.4,420.8 354.2,426.5 356.4,431.4 357.8,433.6 359.6,435.4 361.7,436.9 366.4,439.2 
	371.9,442.3 375.6,443.8 380.5,445.2 384.5,444.6 394.8,443.8 397.4,443.2 399.8,442 400.7,441.1 402,439.1 405.5,432.7 
	406.3,430.2 407.7,423.5 408.6,420.9 409.2,419.8 410.7,417.7 412.5,415.9 416.2,413.3 430,414.3 434.1,415.1 436.6,416 442.1,419 
	446.9,421.1 452.3,424.1 455.7,425.3 463.8,430.5 469.8,433.2 474.2,435.7 476.5,436.7 480.5,437.6 490.1,438.6 492.7,439.3 
	493.9,439.8 499.4,442.8 504.3,444.9 510.9,448.8 515.8,450.9 522.3,454.7 527.2,457 530.4,459.2 536.3,464.4 539.6,466.6 
	542.1,467.6 547.9,469.7 552.1,470.7 555.7,469.3 558.1,468.5 562.2,467.9 567.4,467.5 576.9,467.8 581.6,468.4 584.5,469.2 
	590,471.7 592.7,472.6 597.1,473.4 606,473.9 610.4,474.5 613.2,475.2 620,478.3 624.2,479.3 630.2,479.7 642.4,479.7 646.5,476.3 
	648.7,474.9 653.5,472.7 659,469.5 663.7,467.3 666.1,465.9 668.4,464.3 673.9,459.6 676.2,457.9 678.6,456.6 683.4,454.4 
	688.9,451.3 693.6,449.1 694.7,448.4 696.6,446.7 698.3,444.7 698.9,443.6 701.7,437.6 704.7,431.9 706.8,426.8 710.5,420 
	712.6,415 715.6,409.3 716.6,406.8 717.2,402.5 717.3,399.6 "/>
</svg>
