<?xml version="1.0" encoding="utf-8"?>
<!-- Generator: Adobe Illustrator 24.2.3, SVG Export Plug-In . SVG Version: 6.00 Build 0)  -->
<svg version="1.1" id="Layer_1" xmlns="http://www.w3.org/2000/svg" xmlns:xlink="http://www.w3.org/1999/xlink" x="0px" y="0px"
	 viewBox="0 0 850 567" style="enable-background:new 0 0 850 567;" xml:space="preserve">
<style type="text/css">
	.st0{fill:#F2933D;stroke:#000000;stroke-width:0.4;stroke-miterlimit:9;}
</style>
<polygon class="st0" points="624.8,295.2 624.2,293.6 621.1,287.1 620,285.6 618.9,284.4 616,282.2 615.6,281.7 615,280.4 
	606.1,277.6 601.4,275.1 598.1,273.6 593.4,271.2 591.4,270.6 585.1,269.9 582.1,269.3 577.4,266.9 573.7,265.2 572,264.2 
	569.5,262.3 563.4,261.7 560.1,261.3 555.3,261.7 551.1,261.9 547,261.9 543.9,261.5 541.2,260.7 537.3,258.6 533.9,257.1 
	528,253.5 526.7,252.5 526.2,251.8 522.9,245.8 522.3,244 521.7,240.6 520.8,237.4 518.9,233.3 518.3,231.6 517.3,226.8 516.8,225 
	514.6,220.1 512.9,212.5 510.6,207.6 509.2,203 507.7,199.3 510.6,197 513.2,195.9 513.7,189 513.8,166.6 513.9,163.1 514.2,160.9 
	514.7,158.7 517.1,152.9 518.2,148.2 518.8,146.3 521.2,141.5 522.7,138 524.6,134.2 525.3,132.1 525.8,128.8 526,125.3 
	525.8,111.4 522.8,112.2 517,113.1 515.2,113.5 513.5,114.2 509.6,116.2 507.7,116.7 505.8,117 502,117.1 499.1,116.6 497.5,115.8 
	496.7,115.2 495.4,114 494.4,112.5 494,111.6 492.9,109.1 491,105.1 490.4,103.2 490,100.1 489.9,90.4 489.5,86.2 489.1,84.1 
	487.2,80.1 486.6,78.3 485.7,73.6 485.1,71.7 482.8,66.9 481.3,63.4 480.2,61.7 478.9,60.1 476.8,57.8 472.2,53.4 471.4,56.8 
	469.6,61.9 468.7,63.7 467.1,65.9 463.7,70.2 461.5,73.3 461.1,73.7 460.5,73.9 459.6,74 452.7,71.9 447.1,70.7 445.4,70.1 
	441.5,68.2 439.7,67.6 436,66.8 434.2,66.3 429.6,63.8 426.2,62.3 421.5,59.8 419.7,59.3 415.1,58.2 413.4,57.6 409.5,55.7 
	407.7,55.2 404.1,54.4 402.3,53.8 400.7,52.9 397.9,50.6 394,50.4 392.1,50.1 390.2,49.6 386.3,47.8 384.6,47.2 382.7,46.8 
	376,46.1 373.4,45.2 367,42 365.5,41 364.1,39.8 362.9,38.5 361.1,35.5 358.7,34.6 356.8,34.2 353.9,34 352,34.2 350.1,34.7 
	349.2,35.2 347.6,36.3 345.4,38.2 342,41.9 339.5,45 338.5,46.7 337,50.2 335.4,52.6 333.5,54.9 329.4,59.3 327.5,61.6 326.5,63.3 
	324.5,67.5 323.5,69 320,73.4 319,74.9 317.4,78.3 316.5,79.9 314.7,81.9 313.4,83.1 311.9,84 310.4,87 308.9,91.6 306.4,96.4 
	305,99.9 302.4,104.6 300.9,108.1 298.8,112.1 296.9,116.4 294.2,121.1 292.7,124.6 291.1,127.7 290.4,129.3 290.2,131.2 
	290.4,133.1 291,134.8 293.6,139.2 294.6,140.5 295.2,141.1 298.1,142.9 299.6,144.1 304.9,148.9 308.7,152 309.2,154.3 
	309.5,156.4 309.7,159.6 309.8,162.8 309.7,164.9 309.4,166.8 308.8,168.7 308.4,169.5 307.1,170.6 302.1,173.7 291.4,178.1 
	286.7,181.2 285.1,182 283.3,182.6 279.7,183.4 277.9,183.9 273.2,186.4 269.8,187.8 265.1,190.3 263.3,190.9 259.6,191.6 
	257.9,192.2 253.9,194.1 252.2,194.8 243.8,196.6 244.8,198.7 246.3,203.2 248.6,208.1 249.3,211.2 249.5,214.4 249.4,218.7 
	249,221.9 248.5,223.9 246.3,228.8 245.8,231 245.5,233.2 245.3,237.7 245.2,244.7 245.3,250.5 245.6,253.8 246.2,257.1 248,261.2 
	248.6,263 249,265.1 249.6,270.5 250,272.6 250.6,274.4 252,277.7 252.6,279.6 253.9,289.1 254.5,291 256.4,295.1 257.3,298.8 
	258.2,302.6 260.4,307.5 260.9,309.4 261.9,314.1 262.5,315.9 264.4,319.9 265.3,323.7 269.3,323.7 269.6,325.6 270.1,327.5 
	272,331.5 272.7,333.3 273.7,338 274.2,339.8 276.1,343.9 276.8,345.6 277.2,348.6 277.3,350.6 277.2,352.6 276.8,355.6 
	276.1,357.4 274,361.3 272.5,364.8 269.9,369.6 268.5,373.1 266.4,377.1 264.5,381.3 264,382 262.9,383.4 261.5,384.6 260.8,385.1 
	257.5,386.6 253.7,388.8 250.3,390.3 248.6,391.2 247,392.4 243.2,395.7 241.6,396.9 239.9,397.8 236.6,399.3 232.8,401.6 
	229.4,403.1 227.9,404.1 225.1,406.4 226,408.5 226.4,409.1 227.8,410 229.3,410.5 232.8,411.5 238.6,413.7 241.2,414.3 247,415 
	248.8,415.5 250.4,416.2 254,418.4 255.3,419.3 255.9,420 256.4,420.7 256.7,421.5 257,423.3 257.3,431.2 257.7,434.1 258.3,435.9 
	259.8,439.1 260.4,440.9 260.7,442.8 261.1,447.8 261.4,449.7 262,451.6 262.4,452.5 263.4,454.2 266.6,458.2 267.7,459.8 
	268.6,461.5 269.7,464.2 271.8,468.1 273.3,471.5 274.2,473.1 275.4,474.4 276.7,475.6 278.3,476.5 281.7,478 283.3,479.2 
	284.7,480.4 286.5,482.5 287,483.3 287.3,484.1 287.4,485 287.2,485.9 286.9,486.7 286.5,487.3 285.3,488.4 283.9,489.3 
	281.5,490.3 279.9,491.3 277.6,493.1 272.5,497.9 270.2,499.8 268.6,500.9 264.4,503 262.1,504.8 256.1,510.6 251.9,515.1 
	250.1,517.7 249.7,518.6 249.2,520.5 248.9,522.5 248.8,524.5 248.8,533 254.9,528.8 257.3,527.5 260.3,526.7 265.5,526.1 
	267.5,525.8 269.3,525.1 273.3,523.3 275.3,522.8 278.6,522.4 281.9,522.3 302.2,522.5 305.5,522.2 308.7,521.5 313.4,519.4 
	319.8,517.8 322.3,516.7 326.7,514.1 328,513.1 330.6,510 333,507.7 334.3,505.5 335.8,504 337.5,502.8 339.5,502.1 342.8,501.6 
	346.1,501.6 351.8,501.7 357,502.1 367.3,501.8 417.6,501.8 441.6,502 444.8,501.9 447.9,501.4 449.8,500.5 452.3,498.6 
	454.6,496.4 461.4,489.3 463,487.9 464.6,486.6 466.3,485.6 468.9,484.4 472.7,482.3 473.6,482 475.5,481.5 479.5,481.1 485.8,481 
	491,481.2 495,481.6 497.8,482.5 501.7,484.4 503.5,485 508,486.2 512.7,488.3 514.4,488.7 516.2,488.6 517.8,488 519.3,487.1 
	521.3,485.4 523.4,483.6 524.9,482.5 529.8,480 531.2,478.9 533.3,477.1 537,474.4 541.9,472 546.9,468.9 548.1,467.7 548.6,466.9 
	549.3,465 549.6,462.9 549.7,459.6 549.5,455.1 549.2,451.8 548.5,448.6 546.3,443.6 545.8,441.6 545.5,439.5 545.4,436.3 
	545.4,432 545.7,423.3 572.4,423.5 577.9,423.2 580.1,422.7 582.1,422 589.6,417.8 589.5,407.9 589.8,402.2 590.5,398.9 592.2,395 
	592.9,392.9 593.3,390.7 593.5,388.5 593.6,383.8 593.5,379.2 593.2,375.8 592.6,371.8 594.3,370.5 598,368.3 599.8,366.5 
	600.9,365 602.5,361.7 603.5,360 607.2,355.2 608.3,353.5 610.9,348.4 612.1,346.7 615.3,342.8 616.9,340.3 618.5,336.8 
	620.6,332.9 621.2,331.1 621.5,329.1 621.7,327.1 621.8,320.3 621.7,312.3 622,306.8 622.7,303.7 624.1,300.6 624.7,299 624.9,298 
	624.9,296.2 "/>
</svg>
