<?xml version="1.0" encoding="utf-8"?>
<!-- Generator: Adobe Illustrator 24.2.3, SVG Export Plug-In . SVG Version: 6.00 Build 0)  -->
<svg version="1.1" id="Layer_1" xmlns="http://www.w3.org/2000/svg" xmlns:xlink="http://www.w3.org/1999/xlink" x="0px" y="0px"
	 viewBox="0 0 800 533" style="enable-background:new 0 0 800 533;" xml:space="preserve">
<style type="text/css">
	.st0{fill:#F2933D;stroke:#000000;stroke-width:0.4;stroke-miterlimit:9;}
</style>
<polygon class="st0" points="573.6,87 573.1,85.2 572.7,84.3 568.4,77.2 566.2,70.7 564,66.5 562.7,63.4 561.4,61.4 558.3,57.6 
	557,55.6 555.7,52.6 553.5,48.4 552.3,45.3 550.1,41.1 548.8,38 547.6,36 546,34.1 544.8,33 543.5,32 542.1,31.2 540.5,30.8 
	538.8,30.6 536.4,30.6 533.4,30.8 530.3,30.2 528.7,29.7 525.3,28.1 523.7,27.6 521.9,27.2 517.4,26.7 514.7,26.1 512.7,25 
	507.1,21.3 504.5,22.6 500.6,24 496.5,26 492.1,27.2 490.8,28 490.3,28.5 488,32.3 487,34.4 486.5,37.2 486.1,41.9 485.8,43.7 
	485.2,45.4 483.6,49 482.8,52.2 482.5,53.9 482.1,55.5 481.4,57 480,59.7 478.6,62.8 477.2,65 474.4,68.4 473.4,69.8 472.6,71.3 
	471.6,73.6 470.1,76.4 469.5,77.8 469.1,79.6 468.8,81.4 468.7,89.9 468.4,93.6 468.2,94.5 467.7,96.1 466.1,99.6 465.2,102.9 
	462.2,102.8 460.7,102.7 459.2,102.4 457.8,101.8 456.5,100.9 455.3,99.8 450.6,95.1 448.8,93.6 447.5,92.7 445.1,91.6 443.9,90.9 
	442.6,89.9 438.3,86.3 437,85.5 434.6,84.3 433.4,83.6 432.1,82.7 430.3,81.1 428.6,81.4 427.1,81.9 425.7,82.5 423,84.1 420,85.4 
	417.9,86.9 414.6,89.8 413.2,90.7 412.4,91.1 410.8,91.7 406.8,92.6 405.4,93.1 401.9,94.8 400.5,95.2 398.4,95.6 394.5,95.8 
	392,96.4 385.2,99.8 382.5,101.7 378.3,99.8 374.5,98.4 371.1,96.6 369.6,96.1 367.8,95.8 366,95.6 357,95.4 355.2,95.2 353.5,94.7 
	349.3,92.8 343,91.1 338.9,89.1 337.3,88.6 334.1,87.9 332.5,87.4 328.5,85.3 325.5,84 321.4,81.8 319.8,81.4 314.9,80.6 312.5,80 
	309.5,80.9 308,81.6 303.2,84.2 301,85.2 296.9,87.5 293.9,88.8 290.5,90.7 287,92.4 285.8,93.3 284.7,94.4 283.9,95.8 283.6,96.7 
	283.2,98.4 283,101.1 283.2,109.6 283.1,113.4 282.8,116.1 282.5,116.9 281.9,118.4 279.6,122.3 278.7,123.5 278.2,124 273.1,127.1 
	268.8,129.2 265.6,131.6 262.1,135.2 262.9,137.2 263.7,138.3 264.9,139.1 267.4,140.5 271.1,142.2 274.5,142.8 275.8,143.2 
	276.5,143.5 279.9,145.4 282.8,146.7 284.2,147.6 285.5,148.7 288,151.1 294.6,157.9 296.4,159.8 298.1,161.7 299,163.1 
	299.8,164.6 300.2,165.9 300.6,167.9 299.3,168.3 298.1,168.8 294.4,172.4 293.6,173.6 291,178.2 289.1,182.7 286,188.2 
	285.1,189.4 282.7,191.6 281.9,193.6 280.1,197 278.8,200.1 277.4,202.9 276.8,204.3 276.2,206.9 276,211.3 277.7,212.1 
	278.6,213.1 279.2,214.4 280.4,218.1 281.1,219.5 283,222.1 283.3,223.7 283.9,225.2 284.3,226 285.5,227.5 286.9,228.6 
	289.7,230.1 292,231.8 294,233.8 295.8,236.1 296.5,237.7 297.7,242.1 299.8,245.5 300.2,246.9 301,250.9 302.9,256.7 302.6,258.3 
	302.1,259.6 300.8,261.5 299.2,263.1 297.3,264.6 296.1,265.2 293.7,266.3 291.7,267.7 289.8,269.4 283.6,275.6 281.1,277.9 
	279.1,279.3 276.2,280.7 275.5,281.1 274.3,282.1 272.7,283.9 270.4,286.8 266.8,287.2 262.9,287.3 258.1,287.3 255.3,287.1 
	253.4,286.8 251.7,286.3 247.5,284.4 246,283.9 242.7,283.5 241,283.6 239.3,283.8 237.6,284.3 236.9,284.7 234.7,286.2 
	231.6,289.5 226.2,295.9 227.7,297.1 228.1,297.6 228.5,298.4 228.4,299.6 227.9,301.3 227.6,302.6 227.6,304.2 228.1,305.8 
	228.9,307.2 232.1,311.4 233.1,312.8 234.4,315.9 236.8,320.1 238.7,324.9 239.4,325 239.8,325.3 240.1,325.7 240.4,326.3 
	240.7,327.9 240.9,332.6 240.6,344.1 240.6,348.2 241.1,351 241.4,351.9 242.2,353.3 243.3,354.4 243.9,354.9 245.5,355.6 
	248.1,356.1 254.4,356.2 257.1,356.6 258.7,357.1 262.1,358.7 267.6,360.1 269,360.8 270.2,361.7 271.3,362.9 272.1,364.3 
	275.1,370.8 275.5,372.6 275.6,374.4 275.7,383.9 276,386.6 276.6,389.1 278.3,392.6 279.3,394.8 280.1,396.2 281.1,397.4 
	282.4,398.4 283.1,398.7 283.8,399 285.5,399.3 289.7,399.5 291.3,399.8 292.9,400.3 296.3,402 297.8,402.5 301.8,403.4 
	303.4,403.9 307.5,406 310.5,407.3 314.2,409.1 315.8,411.5 316.7,412.8 318.3,414.6 319.5,415.6 320.8,416.5 321.5,416.8 
	322.7,417.2 324.7,417.6 328.2,421.2 331.7,424.8 333.5,426.4 334.8,427.2 336.3,427.9 338.6,428.5 340.2,430.4 341.1,431.7 
	341.8,433.1 342.8,435.4 344.7,438.9 345.7,440.9 345.2,446.4 344.2,450.2 347.7,456.3 348.4,457.7 348.6,458.5 348.9,460.3 
	349.1,462 349.1,470.1 349.3,473.6 349.7,475.3 350,476 351.8,479.5 353.1,482.5 354.6,484.7 356.3,486.6 368,498.7 371,502 
	373.2,504.7 375.5,508.4 377.8,508.6 379.4,508.9 380.9,509.4 384.3,511.1 385.8,511.5 387.5,511.7 389.1,511.6 390.7,511.1 
	392,510.2 393.2,509.1 394,507.9 395.4,504.9 396.3,503.4 400,498.5 400.9,497 402.8,493.3 406.5,488.4 407.4,486.9 407.8,486.1 
	408.1,485.3 408.5,483.5 408.7,480.8 408.5,468.6 408.6,464.9 409,462.3 409.7,460.6 410.6,459.2 411.7,457.8 415.3,454 
	417.3,452.3 418.7,451.3 421.4,449.7 422.2,446.4 422.6,443.3 422.7,437 422.5,430.2 422.8,427.7 423.2,426.1 423.7,424.5 
	425.4,421 425.8,419.4 426.5,416 426.9,414.4 427.6,413 429.1,410.2 430.3,407.1 432.5,402.9 433.9,399.9 434.8,398.5 435.8,397.1 
	440.6,391.9 442.2,389.9 443,388.5 444.4,385.4 445.7,383.5 447.8,381 451.4,377.9 453,375.4 453.9,373.4 455.6,368.8 456.4,365.6 
	458.9,362.2 460.2,360.2 460.8,358.7 461.7,354.6 462.1,352.9 462.8,351.5 466,345.8 465.7,343.4 465.6,341.8 466.1,338 
	461.7,335.6 458.9,334.3 457.4,333.4 456.1,332.1 455.6,331.3 454.8,329.5 454.4,327.6 454.2,324.7 454.4,298.9 454.2,293.8 
	453.8,289.5 456,288.8 458.9,287.4 459.8,286.6 460,286.1 460,285.2 463.1,284 464.6,283.2 466,282.3 468.4,280.2 471,279.7 
	472.3,279.1 473,278.7 474.9,277.1 479.6,272.5 481.4,270.9 482.7,270.1 485.7,268.7 487.6,267.3 489.5,265.7 493.6,261.6 
	495.5,260.1 496.8,259.2 499.7,257.8 501.7,256.5 503.5,254.8 507.6,250.8 509.5,249.2 510.8,248.3 513.1,247.3 514.4,246.6 
	515.7,245.6 520,242 521.3,241.1 523.7,240.1 524.9,239.4 526.2,238.4 528,236.8 526,234.3 525.2,233 523.8,229.9 522.1,226.4 
	521.5,224.9 521.3,223.1 521.1,218.7 518.7,218.2 517.2,217.6 513.8,215.8 510.8,214.5 506.8,212.1 503.9,210.8 500.5,208.9 
	498.9,208.3 496.2,207.9 493.4,207.8 489.7,207.9 485.7,208.3 486,202 486.1,189.5 486.2,166 487.8,165.6 491.7,164.3 493.6,163.5 
	496.9,161.5 499.3,160.4 500.6,159.7 501.8,158.8 503.7,157.2 506.1,155.1 507.5,154.3 510.4,152.9 514.4,150.6 516.7,149.6 
	518.1,148.9 519.4,148 523,144.8 524.3,143.9 525.7,143.1 527.9,142.1 528.6,141.6 530,140.6 531.2,139.4 536.2,134.6 538.3,133 
	539.8,132.3 543.7,131.2 546.5,130.3 546.6,129.2 546.7,128.5 547.3,127.1 548.2,125.9 549.8,124.1 551,123 552.3,122.1 
	553.5,121.4 555.9,120.4 557.3,119.5 558.5,118.5 560.4,116.9 563.3,113.9 566.2,110.9 567.9,109 568.8,107.7 569.7,106.3 
	570.9,103.2 572.5,99.3 573.3,96.5 573.7,93.7 573.8,89.8 "/>
</svg>
