<?xml version="1.0" encoding="utf-8"?>
<!-- Generator: Adobe Illustrator 24.2.3, SVG Export Plug-In . SVG Version: 6.00 Build 0)  -->
<svg version="1.1" id="Layer_1" xmlns="http://www.w3.org/2000/svg" xmlns:xlink="http://www.w3.org/1999/xlink" x="0px" y="0px"
	 viewBox="0 0 800 533" style="enable-background:new 0 0 800 533;" xml:space="preserve">
<style type="text/css">
	.st0{fill:#F2933D;stroke:#000000;stroke-width:0.4;stroke-miterlimit:9;}
</style>
<polygon class="st0" points="748.8,122.5 748.2,120.8 743.7,113.5 741.9,112.9 740.3,112.1 738.6,110.9 737.1,109.5 735.7,108 
	734.4,106.3 733.4,104.5 733.1,103.4 732.7,101.2 732.5,98.9 732.6,96.6 732.8,94.4 733.3,92.2 733.6,91.2 735.9,86.7 736.6,84.7 
	737,82.6 737,80.4 736.7,78.2 736.1,76.1 733.8,71.7 732,67.8 730.2,65.1 728.1,62.5 722.6,56.8 718.6,52.9 717,51.5 715.2,50.2 
	713.4,49.2 710.5,47.9 708.8,46.8 707.2,45.5 705,43.3 703.6,41.7 702.5,40 701.5,38.1 700.3,35.2 698.5,32 694.6,33.1 688,35.6 
	685.5,37.4 680.8,41.4 679.1,42.6 677.3,43.7 674.5,44.9 670.2,47.6 667.6,49 660.3,52.6 656.4,54.2 651.2,57.2 646.5,59.3 
	642.2,61.9 638.3,63.5 633.1,66.5 629.3,68.2 624.1,71.2 620.3,72.9 615,75.7 613,76.3 608.8,77.1 606.8,77.7 605,78.6 601.5,80.5 
	597.7,82.2 593.4,84.6 591.4,85.4 589.3,85.8 587.1,85.9 583.8,85.9 579.7,85.6 572.1,85.9 557,86 550.7,86 547.1,85.7 543.6,84.9 
	539.3,82.9 537.1,82 530.1,80.1 524.8,77.6 522.5,77 520.2,76.7 514.2,76.5 499.3,76.5 484.3,76.3 480.6,76.4 477,77 475.8,77.4 
	473.9,78.5 471.2,80.7 469,83.2 467.8,85.2 467.3,86.3 467,87.4 466.6,89.8 466.2,99.4 465.7,103 465,105.1 463,109.7 460.9,118.1 
	458.9,122.5 458,125.3 454.8,127.9 451.6,131 449.6,131.9 447.2,132.4 442.1,132.7 405.7,132.5 334.4,132.4 330.6,132.1 
	328.1,131.6 320.4,128.5 317.9,128.1 313,127.7 308.6,127.4 305.4,126.8 303.5,126.2 299,124.1 296.8,123.5 294.4,123.1 
	288.3,122.8 279.8,122.7 276.5,123.1 274.5,123.8 273.6,124.4 272.3,125.8 269,131.7 268.3,133.7 267.3,139.1 266.7,141.1 
	264.2,146.7 263.3,149.3 261.2,152.5 259.3,154.8 257.3,157 253.7,160.5 248.5,166.4 244.2,170.7 241.3,172.7 240.3,173.3 238,174 
	235.7,174.3 232,174.4 198.8,174.1 191.5,174.3 189.2,174.6 186.9,175.2 181.5,177.8 173,180.3 169.5,179.4 167.1,179.1 164.6,179 
	162.1,179.3 159.8,179.9 158.7,180.3 154.5,182.6 150.8,184.3 146.6,186.6 144.4,187.5 140.9,188.1 137.3,188.3 129.9,188.4 
	125,188.2 121.5,187.8 119.2,187.2 111.1,183.1 108,180.9 102.5,175.7 99.8,175.1 97.7,175.2 96.6,175.4 90.2,177.9 79.8,179.5 
	77.7,180.3 74.2,181.9 72.1,182.6 69.9,183.1 62.8,183.9 60.5,184.4 53.2,187.2 55,191.7 56.7,196.9 58.8,201.5 59.5,203.6 
	60,205.9 60.2,208.4 60.2,213.2 59.9,216.9 59.4,219.2 58.7,221.3 56.7,225.8 56.1,228.1 55.8,231.7 55.4,238.9 54.8,242.5 
	54.4,243.6 53.5,245.4 51,248.7 54.1,251.4 55.9,252.5 57.3,253 59.1,253.4 62.3,253.5 65.6,253.3 67.7,252.7 68.7,252.3 
	70.6,251.2 75.5,247.2 77.2,246.3 78.2,246 79.1,246.1 80.8,246.5 85.9,248.7 87.7,249.8 89.1,251.2 89.8,252 90.8,253.8 
	91.5,255.9 91.8,259.3 91.6,262.7 91.4,265.1 90.5,269.8 90.4,271 89.9,272.8 88.4,276.2 87.8,278.2 87.4,280.4 86.8,287.1 
	86.4,289.3 85.8,291.3 83.5,295.8 82.3,298.7 81.8,299.7 80.6,301.7 78.3,304.3 75.8,306.8 71.2,310.4 74.8,311.8 82.1,315 
	83.9,316.2 90,321.3 91.9,322.4 94,323 97.3,323.4 100.7,323.5 134.2,323.4 138.7,323.8 140.8,324.3 141.7,324.7 146.1,327.1 
	149.9,328.9 152.6,330.8 155.9,334 169,347.7 174,352.6 176.6,354.7 178.5,355.7 181.3,357 183,358.1 185.4,360.1 191.7,366 
	194.8,369.5 197.4,371.9 200.1,373.9 203.8,375.8 205.6,377 208.1,379.1 214.5,385.4 216.2,386.8 218.1,387.8 220.2,388.5 
	223.5,388.9 239.2,388.9 246.3,389.5 248.2,392 250.2,394.4 253.9,398.3 257.6,402.1 259.9,404.3 261.5,405.6 263.2,406.8 
	264.8,407.7 268.7,412.9 272.7,417.7 274.2,419.7 275.3,422 276,424.4 276.4,426.9 276.5,430.7 276.2,473.8 276.4,481.5 276.7,484 
	277.3,486.4 279.7,492 282.3,500.5 290.5,500.8 315.8,501 319.5,500.9 323.1,500.5 325.5,499.8 327.4,498.7 333.5,493.7 
	335.3,492.4 343.3,488.2 344.3,487.8 346.3,487.3 349.5,487.3 351.6,487.6 353.5,488.3 357.9,490.4 361,491.1 365.4,491.3 
	369.6,490.8 373.2,491.8 375.1,492.6 376.8,493.6 380,496.3 391.9,496.4 396.6,496.4 400,496 402.2,495.3 404.2,494.2 406.8,492 
	415.8,482.8 419.2,479.8 421.1,478.5 425.7,476.1 433.6,469.7 443.6,464.6 445.8,464 449.2,463.7 465.6,463.6 470.2,463.3 
	473,462.8 477.5,455.9 478.4,454 478.7,452.9 479.2,450.5 479.4,448.2 479.4,438.5 479.6,434.9 480,432.6 481.1,429.5 483,426 
	484.7,422 486.6,419.2 488.9,416.6 491.3,414.1 498.9,407.8 508.6,414.5 510.4,415.5 512.6,416.4 515,416.8 517.4,417 528.5,417.1 
	530.8,417.5 533.1,418.2 535,419.6 536.6,421.3 539.7,426.9 542.1,429.5 543.9,430.8 550.8,434.4 553.1,435.2 555.4,435.7 
	559,435.9 563.9,436 570.1,435.9 573.7,435.7 576,435.3 578.3,434.7 583.6,432.3 587.1,431.5 591.9,431.2 602.9,431.1 607.6,430.7 
	609.9,430.1 615.2,427.6 618.6,426.8 622.2,426.5 625.8,426.5 634,427.1 636,426.2 637.9,425.2 640.6,423.2 644.7,419.3 647,416.8 
	648.4,415.1 649.6,413.2 650.4,411.1 650.9,408.9 652.2,401 648.8,400.2 642.2,397.8 635.5,393.9 634,392.8 632.8,391.2 
	630.4,387.1 629,384.3 628.7,383.3 628.4,381.1 628.4,378.8 628.6,377.7 629.2,375.6 629.7,374.7 631,373.1 632.5,371.8 
	633.3,371.3 638,369 640.6,367.1 643.1,364.9 645.5,362.4 647.8,359.9 649.1,358.1 650.3,356.2 651.9,352.3 654.8,346.9 
	656.8,342.1 659.3,337.6 660.8,333.6 664.4,326.1 665,321.8 665.6,319.7 666.4,317.8 668.3,314.2 669.9,310.3 672.9,305 674.5,301 
	676.8,296.5 677.6,294.5 678.2,291.3 679.3,287.1 681.3,282.5 682,280.4 682.5,278 683.1,272 683.6,269.6 684.3,267.5 686.3,262.9 
	686.9,260.6 687.3,257.1 687.4,252.2 686.9,247.4 686.3,245.1 683.9,239.6 683.1,236.1 682.8,231.2 682.8,221.3 682.9,209.4 
	682.8,193.1 683,189.3 683.4,186.8 683.9,184.4 685.9,179.8 686.6,177.7 687.1,175.4 687.9,168.1 688.5,165.8 690.8,160.2 
	692.2,153.9 692.9,151.9 693.4,151 695.3,148.7 696.9,147.5 701.5,145.2 705.8,142.8 709.7,141.2 714.9,138.2 718.7,136.5 
	722.2,134.6 724,133.7 726.2,133.2 728.5,132.9 739,132.9 741.2,132.8 743.2,132.4 744.2,132.1 745.1,131.5 746.3,130.1 748,127 
	748.7,125.3 749,123.5 "/>
</svg>
