<?xml version="1.0" encoding="utf-8"?>
<!-- Generator: Adobe Illustrator 24.2.3, SVG Export Plug-In . SVG Version: 6.00 Build 0)  -->
<svg version="1.1" id="Layer_1" xmlns="http://www.w3.org/2000/svg" xmlns:xlink="http://www.w3.org/1999/xlink" x="0px" y="0px"
	 viewBox="0 0 800 533" style="enable-background:new 0 0 800 533;" xml:space="preserve">
<style type="text/css">
	.st0{fill:#F2933D;stroke:#000000;stroke-width:0.4;stroke-miterlimit:9;}
</style>
<polygon class="st0" points="660.1,173.9 659.3,169.6 658.6,167.5 656.9,163.8 646.6,148.3 580.6,148.6 566.5,148.3 557.4,146.9 
	553.2,145.4 544.8,141.5 537.9,139.9 525.7,139.2 506.5,139.3 487,139 472,137.7 467.4,131.7 460.8,124.4 413.5,75.4 412.7,74.6 
	412.7,74.8 412.3,74.8 412.3,75.1 411.9,75.1 411.9,75.5 411.8,75.5 411.8,75.7 411.4,75.7 411.4,76.1 411.3,76.1 411.3,76.4 
	411.1,76.4 411.1,76.6 410.8,76.6 410.8,76.8 410.3,76.8 410.3,77 409.8,77 409.8,77.2 409.6,77.2 409.6,77.4 409.2,77.4 
	409.2,77.7 408.7,77.7 408.7,77.9 407.7,77.9 407.7,78.1 407.5,78.1 407.5,78.3 407.4,78.3 407.4,78.8 407,78.8 407,79 406.5,79 
	406.5,79.2 406.4,79.2 406.4,79.4 405.6,79.4 405.6,79.8 405.4,79.8 405.4,80.1 405.2,80.1 405.2,80.3 405.1,80.3 405.1,80.7 
	404.3,80.7 404.3,80.9 403.9,80.9 403.9,81.1 403.4,81.1 403.4,81.4 403.1,81.4 403.1,81.6 402.8,81.6 402.8,81.8 402.5,81.8 
	402.5,82 402.1,82 402.1,82.2 401.8,82.2 401.8,82.5 401.5,82.5 401.5,82.7 401.2,82.7 401.2,82.9 400.8,82.9 400.8,83.1 
	400.5,83.1 400.5,83.3 400.2,83.3 400.2,83.5 399.9,83.5 399.9,83.8 399.7,83.8 399.7,84 399.2,84 399.2,84.2 398.9,84.2 
	398.9,84.4 398.5,84.4 398.5,84.6 398.4,84.6 398.4,84.8 397.9,84.8 397.9,85.1 397.6,85.1 397.6,85.3 397.2,85.3 397.2,85.5 
	396.9,85.5 396.9,85.7 396.6,85.7 396.6,85.9 396.3,85.9 396.3,86.2 395.9,86.2 395.9,86.4 395.6,86.4 395.6,86.6 395.3,86.6 
	395.3,86.8 394.8,86.8 394.8,87.2 393.8,87.2 393.8,87.5 393.3,87.5 393.3,87.7 393.2,87.7 393.2,87.9 392.7,87.9 392.7,88.1 
	391.9,88.1 391.9,88.3 391.4,88.3 391.4,88.5 391,88.5 391,88.8 390.9,88.8 390.9,89 390.4,89 390.4,89.2 389.9,89.2 389.9,89.4 
	389.6,89.4 389.6,89.6 389.2,89.6 389.2,89.8 388.9,89.8 388.9,90.1 388.4,90.1 388.4,90.3 388.1,90.3 388.1,90.5 387.5,90.5 
	387.5,90.7 387,90.7 387,90.9 386.3,90.9 386.3,91.2 385.8,91.2 385.8,91.4 385.3,91.4 385.3,91.6 384.5,91.6 384.5,91.8 
	383.7,91.8 383.7,92 383.2,92 383.2,92.2 382.6,92.2 382.6,92.5 382.1,92.5 382.1,92.7 381.6,92.7 381.6,92.9 380.9,92.9 
	380.9,93.1 380.3,93.1 380.3,93.3 380.4,93.3 380.4,93.5 379.9,93.5 379.9,93.8 378.6,93.8 378.6,94 378.3,94 378.3,94.2 
	377.8,94.2 377.8,94.4 377.5,94.4 377.5,94.6 377,94.6 377,94.9 376.4,94.9 376.4,95.1 375.7,95.1 375.7,95.3 375.1,95.3 
	375.1,95.5 374.4,95.5 374.4,95.7 373.7,95.7 373.7,95.9 373.1,95.9 373.1,96.2 372.4,96.2 372.4,96.4 371.8,96.4 371.8,96.6 
	371.3,96.6 371.3,96.8 370.5,96.8 370.5,97 369.2,97 369.2,97.2 367.9,97.2 367.9,97.5 366.6,97.5 366.6,97.7 366.1,97.7 
	366.1,97.9 365.8,97.9 365.8,98.1 364.9,98.1 364.9,98.3 364.4,98.3 364.4,98.6 364.1,98.6 364.1,98.8 363.8,98.8 363.8,99 
	363.5,99 363.5,99.2 363.3,99.2 363.3,99.4 363,99.4 363,99.6 362.7,99.6 362.7,99.9 362.3,99.9 362.3,100.1 361.2,100.1 
	361.2,100.3 360.9,100.3 360.9,100.5 360.4,100.5 360.4,100.7 357.9,100.7 357.9,100.9 357.3,100.9 357.3,100.7 356.8,100.7 
	356.8,100.9 356.1,100.9 356.1,101.2 355.5,101.2 355.5,101.4 355.3,101.4 355.3,101.6 355.1,101.6 355.1,101.4 354.8,101.4 
	354.8,101.6 354.3,101.6 354.3,101.8 354,101.8 354,102 351.7,102 351.7,102.2 351.4,102.2 351.4,102.5 351.1,102.5 351.1,102.7 
	350.6,102.7 350.6,102.5 349.8,102.5 349.8,102.7 349.1,102.7 349.1,102.9 348.8,102.9 348.8,103.1 348,103.1 348,103.3 
	346.8,103.3 346.8,103.6 344.9,103.6 344.9,103.8 344.4,103.8 344.4,104 343.6,104 343.6,104.2 342.7,104.2 342.7,104.4 
	342.3,104.4 342.3,104.6 341.9,104.6 341.9,104.9 341.6,104.9 341.6,105.1 341.3,105.1 341.3,104.6 340.5,104.6 340.5,104.9 
	340,104.9 340,105.1 339.6,105.1 339.6,105.3 339,105.3 339,105.1 338.5,105.1 338.5,105.3 338.2,105.3 338.2,105.5 338,105.5 
	338,105.7 337.2,105.7 337.2,105.5 336.4,105.5 336.4,105.7 336.2,105.7 336.2,105.9 335.7,105.9 335.7,105.7 335.4,105.7 
	335.4,105.9 332.1,105.9 332.1,106.2 331.8,106.2 331.8,105.9 331.6,105.9 331.6,106.2 330.8,106.2 330.8,106.4 330.5,106.4 
	330.5,106.6 328.4,106.6 328.4,106.8 327.9,106.8 327.9,107 326.4,107 326.4,107.3 325.6,107.3 325.6,107.5 324.3,107.5 
	324.3,107.7 324,107.7 324,107.5 323.7,107.5 323.7,107.3 322,107.3 322,107.5 321.5,107.5 321.5,107.7 319.6,107.7 319.6,107.9 
	318.4,107.9 318.4,108.1 316,108.1 316,108.3 315.8,108.3 315.8,108.1 315.2,108.1 315.2,108.3 314.5,108.3 314.5,108.6 314,108.6 
	314,108.8 313.4,108.8 313.4,109 311.7,109 311.7,108.8 311.1,108.8 311.1,108.6 310.4,108.6 310.4,108.8 309.8,108.8 309.8,109 
	307.8,109 307.8,109.2 306.4,109.2 306.4,109.4 305.9,109.4 305.9,109.2 305.4,109.2 305.4,109.4 304.9,109.4 304.9,109.6 
	304.6,109.6 304.6,109.9 303.4,109.9 303.4,109.6 303.1,109.6 303.1,109.9 301.8,109.9 301.8,109.6 300.3,109.6 300.3,109.9 
	300,109.9 300,110.1 299.3,110.1 299.3,110.3 297.9,110.3 297.9,110.5 296.4,110.5 296.4,110.7 294.9,110.7 294.9,111 294.4,111 
	294.4,110.7 294.1,110.7 294.1,111 293.8,111 293.8,111.2 293.1,111.2 293.1,110.7 291.3,110.7 291.3,111 291,111 291,111.2 
	287.3,111.2 287.3,111 287.1,111 287.1,110.7 286.6,110.7 286.6,110.5 286.5,110.5 286.5,109.9 286.3,109.9 286.3,109.6 286,109.6 
	286,109.4 284.8,109.4 284.8,109.2 284.2,109.2 284.2,109.4 284,109.4 284,109.6 283.8,109.6 283.8,110.3 284,110.3 284,110.7 
	284.2,110.7 284.2,111.2 284.5,111.2 284.5,111.4 282,111.4 282,111.6 281.1,111.6 281.1,111.4 277.6,111.4 277.6,111.6 
	277.5,111.6 277.5,112 277.3,112 277.3,112.3 277,112.3 277,112.5 276.2,112.5 276.2,112.7 275.4,112.7 275.4,112.9 274.7,112.9 
	274.7,113.1 274.1,113.1 274.1,112.9 272.3,112.9 272.3,113.1 272.1,113.1 272.1,113.3 271.6,113.3 271.6,113.6 271.3,113.6 
	271.3,113.3 270,113.3 270,113.6 269.6,113.6 269.6,113.3 268,113.3 268,113.6 267.9,113.6 267.9,113.8 267.7,113.8 267.7,114.2 
	267.5,114.2 267.5,114.4 267.4,114.4 267.4,114.7 267,114.7 267,114.9 266.7,114.9 266.7,115.3 266.5,115.3 266.5,115.7 
	266.4,115.7 266.4,116 266.2,116 266.2,116.2 265.7,116.2 265.7,116.4 265.4,116.4 265.4,116.2 264.3,116.2 264.3,116.4 
	263.8,116.4 263.8,116.6 263.6,116.6 263.6,116.8 263.3,116.8 263.3,117 263.1,117 263.1,117.3 262.8,117.3 262.8,117.5 
	262.6,117.5 262.6,117.7 262.1,117.7 262.1,117.9 261.6,117.9 261.6,118.4 261.5,118.4 261.5,118.8 260,118.8 260,118.6 
	259.5,118.6 259.5,118.8 259,118.8 259,119 258.7,119 258.7,119.2 257.9,119.2 257.9,119.4 257.4,119.4 257.4,119.7 256.9,119.7 
	256.9,119.9 256.4,119.9 256.4,120.1 255.8,120.1 255.8,120.3 255.3,120.3 255.3,120.5 253.2,120.5 253.2,120.7 252.2,120.7 
	252.2,120.9 252.2,121 251.5,121 251.5,120.9 251.5,120.7 250.2,120.7 250.2,120.9 250.2,121 248.6,121 248.6,121.2 247.5,121.2 
	247.5,121 247.3,121 247.3,120.9 247.3,120.7 247,120.7 247,120.5 246.8,120.5 246.8,120.3 246.6,120.3 246.6,120.1 246.3,120.1 
	246.3,120.3 245.8,120.3 245.8,120.5 245.5,120.5 245.5,120.7 245.2,120.7 245.2,120.9 245.2,121 244.4,121 244.4,121.2 244,121.2 
	244,121.4 242.6,121.4 242.6,121.6 240.1,121.6 240.1,121.8 239.9,121.8 239.9,121.6 238.3,121.6 238.3,122 236.8,122 236.8,121.8 
	236.7,121.8 236.7,121.6 235.9,121.6 235.9,121.8 235.7,121.8 235.7,122 233.3,122 233.3,121.6 232.8,121.6 232.8,121.4 
	232.4,121.4 232.4,121.6 232,121.6 232,121.8 231.5,121.8 231.5,121.6 231.3,121.6 231.3,121.8 231.1,121.8 231.1,122 230.8,122 
	230.8,122.3 229.8,122.3 229.8,122 229.3,122 229.3,121.8 228,121.8 228,122 227.9,122 227.9,122.3 227.5,122.3 227.5,122 
	227.2,122 227.2,121.8 226.9,121.8 226.9,121.6 226.6,121.6 226.6,121.2 225.9,121.2 225.9,121.6 225.8,121.6 225.8,121.8 
	225.6,121.8 225.6,122 225.4,122 225.4,122.3 225.3,122.3 225.3,122.5 224.9,122.5 224.9,122.7 224.6,122.7 224.6,122.9 
	224.4,122.9 224.4,123.6 224.3,123.6 224.3,123.8 223.3,123.8 223.3,124 223,124 223,123.8 222.5,123.8 222.5,124.2 222.3,124.2 
	222.3,124.4 221.8,124.4 221.8,124.7 221.7,124.7 221.7,124.9 220.5,124.9 220.5,124.7 220.2,124.7 220.2,124.4 219.4,124.4 
	219.4,124.7 218.9,124.7 218.9,124.9 217.6,124.9 217.6,124.7 217.4,124.7 217.4,124.9 216.3,124.9 216.3,124.7 215.6,124.7 
	215.6,124.9 215.3,124.9 215.3,125.1 214.2,125.1 214,125.1 213.8,125.1 213.8,124.9 213.4,124.9 213.4,125.1 211.9,125.1 
	211.9,124.9 211.1,124.9 211.1,125.1 210.6,125.1 210.6,124.9 210.1,124.9 210.1,125.1 207.8,125.1 207.8,124.9 207,124.9 
	207,125.1 206.8,125.1 206.8,125.3 203.7,125.3 203.7,125.1 201.3,125.1 201.3,124.9 200,124.9 202.5,129.4 207.8,138 211.2,145.4 
	213.3,148.8 215.8,151.8 218.8,154.2 222.1,156.1 227.3,158.6 230.4,160.8 233,163.6 234,165.2 234.8,167 235.4,169 235.5,173.2 
	234.5,177.1 230,185.4 226.7,193.1 222,201.8 220.5,205.7 219.2,211.9 196.6,235.3 189.4,242.3 186.4,244.7 183.2,246.8 
	177.2,249.4 174.3,251 171.5,253 166.2,257.5 161.8,259.8 159.4,262.3 157.6,265.5 153.4,275.5 150.7,281.1 146.4,293 142.1,301.9 
	140.7,306 139.8,310.7 139.5,315.5 139.8,322.8 140.5,327.5 141.9,331.7 145.9,340.5 149.2,351.9 151,355.2 153.8,357.6 
	164.9,364.7 168.7,366.4 175.6,368.8 183.7,376.1 200.6,392.8 204.2,397 205.9,400 206.5,401.7 206.7,403.4 206.5,405.1 
	205.9,406.7 205.1,408.2 203.2,411 194.6,420.7 187.4,430.6 200,437.7 209.2,441.9 217.6,446.5 219.4,447.3 223.4,448.2 
	229.7,448.4 233.8,447.8 237.6,446.5 244.4,443 248.1,441.6 252.2,440.7 260.2,439.9 276.1,439.9 284.5,438.9 290.4,437.1 
	299,432.8 305.5,431.2 310.1,430.7 317,430.4 326.1,431 330.6,432 332.7,432.8 336.6,435.1 341.8,439.6 353.2,451.2 358.6,455.3 
	362.8,457.2 369.7,458.4 376.7,458.3 383.5,457.2 387.4,455.7 396,451.4 400,450.3 426.1,446.9 428.8,443.2 431.7,439.8 
	436.6,435.3 440.3,432.9 449.3,428.6 460.3,421.9 463.1,419.4 464.9,415.7 465.8,411.4 466.3,404.5 465.9,370 466.1,350.2 
	466.7,340.4 467.6,334.5 473.5,321.1 476.4,313.2 482.1,302.7 485,294.7 489.7,282.8 496.9,284.2 504,285 511.1,285.2 518.1,284.9 
	522.6,284.3 527,283.1 535.7,279.1 541.8,277.2 548.6,276.5 562.3,275.8 569,274.7 573,273.3 581.5,268.9 589,265.6 597.4,260.5 
	606.6,256.3 615,251.2 619.9,248.6 625.9,240.4 630,236.1 634.7,232.6 639.9,229.9 643.2,227.8 646.1,225.2 648.5,222.1 
	649.5,220.4 650.9,216.5 653.8,204.3 658,195.4 659.3,191.4 660.1,187.1 660.5,180.5 "/>
</svg>
