<?xml version="1.0" encoding="utf-8"?>
<!-- Generator: Adobe Illustrator 24.2.3, SVG Export Plug-In . SVG Version: 6.00 Build 0)  -->
<svg version="1.1" id="Layer_1" xmlns="http://www.w3.org/2000/svg" xmlns:xlink="http://www.w3.org/1999/xlink" x="0px" y="0px"
	 viewBox="0 0 800 533" style="enable-background:new 0 0 800 533;" xml:space="preserve">
<style type="text/css">
	.st0{fill:#F2933D;stroke:#000000;stroke-width:0.4;stroke-miterlimit:9;}
</style>
<g>
	<polygon class="st0" points="282.3,447.9 282.3,447.6 282.3,447.6 282.3,447.5 282.2,447.5 282.2,447.2 282.1,447.2 282.1,447 
		282.1,447 282.1,446.6 281.9,446.6 281.9,447.3 282,447.3 282,447.5 282.1,447.5 282.1,447.9 282.1,447.9 282.1,447.9 	"/>
	<polygon class="st0" points="281.2,440.6 281.1,440.6 281.1,440.4 281,440.4 281,440.3 280.9,440.3 280.9,440.2 280.8,440.2 
		280.8,440.1 280.7,440.1 280.7,440 280.6,440 280.6,439.9 280.5,439.9 280.5,439.9 280.4,439.9 280.4,439.8 280.3,439.8 
		280.3,439.7 280.3,439.7 280.3,439.6 280.2,439.6 280.2,439.3 280.1,439.3 280.1,438.8 280.1,438.8 280.1,438.7 279.9,438.7 
		279.9,438.5 279.9,438.5 279.9,438.1 279.6,438.1 279.6,438 279.5,438 279.5,437.9 279.4,437.9 279.4,437.8 279.3,437.8 
		279.3,437.7 279.1,437.7 279.1,437.6 279,437.6 279,437.5 279,437.5 279,437.4 278.8,437.4 278.8,437.3 278.7,437.3 278.7,437.2 
		278.7,437.2 278.7,437.1 278.6,437.1 278.6,436.9 278.5,436.9 278.5,436.8 278.5,436.8 278.5,436.7 278.4,436.7 278.4,436.6 
		278.3,436.6 278.3,436.5 278.3,436.5 278.3,436.4 278.2,436.4 278.2,436.3 278.1,436.3 278.1,436.1 278.1,436.1 278.1,435.9 
		278,435.9 278,435.8 277.9,435.8 277.9,435.7 277.8,435.7 277.8,435.6 277.7,435.6 277.7,435.5 277.6,435.5 277.6,435.4 
		277.6,435.4 277.6,435.2 277.5,435.2 277.5,435.1 277.4,435.1 277.4,435 277.4,435 277.4,434.9 277.3,434.9 277.3,434.8 
		277.2,434.8 277.2,434.7 277.1,434.7 277.1,434.9 277,434.9 277,435.1 277.2,435.1 277.2,435.2 277.3,435.2 277.3,435.3 
		277.4,435.3 277.4,435.5 277.4,435.5 277.4,435.6 277.6,435.6 277.6,435.8 277.6,435.8 277.6,436.1 277.7,436.1 277.7,436.2 
		277.8,436.2 277.8,436.3 277.9,436.3 277.9,436.4 278,436.4 278,436.6 278.1,436.6 278.1,436.8 278.1,436.8 278.1,436.9 
		278.2,436.9 278.2,437 278.3,437 278.3,437.1 278.3,437.1 278.3,437.2 278.4,437.2 278.4,437.3 278.5,437.3 278.5,437.4 
		278.5,437.4 278.5,437.5 278.7,437.5 278.7,437.6 278.7,437.6 278.7,437.6 278.9,437.6 278.9,437.7 279,437.7 279,437.9 279,437.9 
		279,438.1 279.1,438.1 279.1,438.2 279.2,438.2 279.2,438.4 279.2,438.4 279.2,438.5 279.4,438.5 279.4,438.6 279.5,438.6 
		279.5,438.7 279.7,438.7 279.7,438.8 279.9,438.7 279.9,438.9 279.9,438.9 279.9,439.4 280,439.4 280,439.7 280.1,439.7 
		280.1,439.9 280.1,439.9 280.1,440 280.2,440 280.2,440.1 280.3,440.1 280.3,440.3 280.3,440.3 280.3,440.4 280.4,440.4 
		280.4,440.5 280.5,440.5 280.5,440.6 280.5,440.6 280.5,440.8 280.6,440.8 280.6,440.9 280.7,440.9 280.7,440.7 281,440.7 281,441 
		280.9,441 280.9,441 280.7,441 280.7,441.1 280.9,441.1 280.9,441.2 281,441.2 281,441.3 281.1,441.3 281.1,441.4 281.2,441.4 
		281.2,441.5 281.2,441.5 281.2,441.1 281.2,441.1 	"/>
	<polygon class="st0" points="522.9,160.9 522.1,158.8 521.7,158.2 520.6,157.2 516,154.2 512,152.5 507.7,150.2 505.4,149.1 
		504.6,148.7 503.3,147.7 502.2,146.5 501.4,145 500.8,143.3 500.3,139.9 502.8,137.6 503.8,136.3 507.5,129.8 508.8,126.6 
		510.7,122.8 511.3,121.1 511.7,118 511.9,108.5 512.2,105.4 512.7,103.5 514.7,98.9 515.3,96 515.5,92.9 515.6,83.5 515.8,79.4 
		516.5,76.5 518.1,72.7 518.7,70.9 519.1,68.9 520,61.1 518.7,47.1 517.5,45.9 516.7,44.7 516.1,43 515.8,41.3 515.8,38.5 
		516.1,36.7 517.4,32.4 516,32 515.6,32.4 514.8,33.2 512.7,33.4 510.1,33.5 508.5,33.6 506.6,34.6 502.4,36.2 497.9,37.2 
		493.3,37.4 489.3,38.1 488.1,38.7 486.9,39.6 485.8,40.6 485.1,42.2 484,43.4 482.9,43.9 482.7,44 481,44 479.2,43.7 475,42.9 
		472.1,42.4 470.6,41.8 469.4,41.2 468.4,41.2 467.5,41.9 467.5,41.9 465,44.2 464,45.1 463.2,45.8 463,46.1 462.2,47.2 461.5,48.3 
		461,49 459.9,48.8 458.9,48.1 458,47.9 457.5,48.1 456.3,48.5 454.1,48.3 452.5,47.6 451.6,46.8 450.2,46.6 448.6,46.9 447.1,46.4 
		445.5,45.6 443.2,45.2 441.5,45.3 439.4,45.3 437.1,44.5 434.5,43.9 432.5,42.7 431.4,42 431.2,41.9 430.5,41.5 429.7,41.5 
		429.3,41.5 429.3,41.6 428.8,42.4 428.6,43.1 428.4,43.7 428.3,45.9 427.6,46.6 425.7,47.8 423.2,49 423.1,49.1 421.7,50 
		419.6,52.2 418.2,53.3 417.2,55 416.5,56.3 415.8,57.9 415.8,59.1 416.2,60.1 416.9,60.9 418.3,62.4 418.6,62.8 419.3,63.9 
		419.9,65.3 419.5,66.9 418.8,67.9 418.5,68.6 417.1,70.2 416.7,71.3 417.5,72.4 418.6,73.8 418.9,74.3 417.3,75.6 415.7,77 415,78 
		414.3,78.9 413.9,79.5 412.8,80.9 412,82.5 411.6,83.8 411.2,85.2 410.1,86.4 408.1,87.8 407.7,87.8 405.7,88.1 400.8,88 395,87.8 
		390.7,88.2 385.3,88.2 378.3,88 372.7,88.1 369.8,88.1 368.2,89.3 367,91.8 365.8,94.4 363.7,99.8 362.4,102.5 361,105.7 
		360.1,109.3 358.8,113.7 359.2,116.8 359.2,117.3 361.2,120.3 365.1,126.5 366,128.5 367,129.5 370,132.4 375,134.9 376.9,135.8 
		380.3,135.7 382.6,134.9 384.7,134.9 386.8,136 389.3,138.8 392.1,140.7 394.6,141.4 397.9,143.5 398.4,145.9 400.8,149.9 
		401.6,151.1 403.3,153.5 407.7,157.4 411.3,158.9 416.7,159.5 420,159.9 422.5,161.2 423.7,164.2 424.1,167.3 423.7,168.1 
		422.1,171.5 422,171.8 422.1,172.1 422.6,174.1 422.9,175.1 423.1,175.9 423.3,176.8 423.5,177.6 424.8,182.1 423.7,184.6 
		423.7,184.8 423.8,184.9 423.7,185 423.7,185.2 423.7,185.4 423.7,185.5 423.7,185.8 423.7,185.9 423.7,185.9 423.7,186.1 
		423.6,186.2 423.6,186.3 423.5,186.3 423.4,186.4 423.2,186.5 423.2,186.6 423,186.7 422.9,186.8 423.3,189.2 425,191.9 425,192.2 
		425.7,194.6 425.9,197.9 425.7,198.5 425.2,200.6 424.7,202.4 426.9,205.3 427.4,206 428.4,208.7 427.8,216.1 427.8,216.4 
		428.2,219.6 429.1,220.9 431.1,222.1 431.9,223.2 433.4,232.7 433.8,235.6 433.3,239.1 432.9,243.9 432.6,247.1 431.8,248.8 
		430.1,250.3 430.1,250.3 429.6,250.6 427.2,251.8 426.8,252 424.1,254.7 422.6,255.6 421.5,256.2 419.2,256.1 416.5,253.9 
		415,251.3 414.5,250.6 412.8,249.9 410.7,250.4 410.8,252.8 410.7,252.8 410.7,252.8 410.6,252.8 410.5,252.7 410.5,252.7 
		410.4,252.7 410.3,252.7 410.3,252.7 410.2,252.7 410.1,252.7 410,252.7 410,252.7 409.9,252.7 409.8,252.7 409.7,252.7 
		409.7,252.7 409.6,252.7 409.5,252.7 409.4,252.7 409.4,252.7 409.3,252.7 409.2,252.6 409.1,252.6 409.1,252.6 409,252.6 
		408.9,252.6 408.8,252.6 408.8,252.7 408.7,252.7 408.6,252.7 408.6,252.7 408.5,252.8 408.4,252.8 408.4,252.8 408.3,252.9 
		408.2,252.9 408.2,253 408.2,253 408.1,253.1 408.1,253.2 408,253.2 408,253.3 407.9,253.3 407.9,253.4 407.8,253.4 407.8,253.5 
		407.7,253.5 407.6,253.6 407.6,253.6 407.5,253.6 407.5,253.7 407.4,253.7 407.3,253.8 407.3,253.8 407.2,253.9 407.2,253.9 
		407.1,253.9 407,254 407,254 406.9,254 406.8,254.1 406.8,254.1 406.7,254.1 406.6,254.1 406.5,254.2 406.5,254.2 406.4,254.2 
		406.3,254.2 406.3,254.2 406.2,254.3 406.1,254.3 406,254.3 406,254.3 405.9,254.3 405.8,254.3 405.7,254.3 405.7,254.4 
		405.6,254.4 405.5,254.4 405.4,254.4 405.4,254.4 405.3,254.4 405.2,254.4 405.2,254.4 405.1,254.4 405,254.3 405,254.3 
		404.9,254.3 404.8,254.2 404.8,254.2 404.8,254.1 404.7,254 404.7,254 404.7,253.9 404.6,253.8 404.6,253.8 404.5,253.7 
		404.5,253.7 404.4,253.6 404.3,253.6 404.3,253.5 404.2,253.5 404.2,253.4 404.1,253.4 404.1,253.3 404.1,253.2 404,253.2 
		403.9,253.1 403.9,253.1 403.8,253.1 403.7,253.1 403.6,253.1 403.6,253.2 403.5,253.2 403.1,253.3 403,253.3 402.9,253.3 
		402.9,253.4 402.8,253.4 402.7,253.5 402.7,253.5 402.6,253.5 402.6,253.6 402.6,253.7 402.6,253.8 402.6,253.8 402.6,253.9 
		402.6,254 402.6,254.1 402.5,254.1 402.5,254.2 402.5,254.3 402.5,254.4 402.5,254.4 402.5,254.5 402.5,254.6 402.5,254.6 
		402.4,254.7 402.4,254.8 402.4,254.9 402.4,254.9 402.4,255 402.4,255.1 402.4,255.2 402.4,255.2 402.3,255.3 402.3,255.4 
		402.3,255.4 402.3,255.5 402.2,255.6 402.2,255.7 402.2,255.7 402.2,255.8 402.1,255.9 402.1,255.9 402.1,256 402,256.1 402,256.1 
		401.9,256.2 401.9,256.2 401.8,256.3 401.8,256.4 401.7,256.4 401.7,256.5 401.6,256.5 401.6,256.6 401.6,256.6 401.5,256.7 
		401.5,256.8 401.5,256.8 401.4,256.9 401.4,257 401.4,257.1 401.3,257.1 401.3,257.2 401.2,257.2 401.2,257.2 401.1,257.3 
		401,257.3 400.9,257.3 400.9,257.3 400.8,257.3 400.7,257.3 400.7,257.2 400.6,257.2 400.6,257.1 400.5,257.1 400.4,257.1 
		400.4,257.1 400.3,257 400.2,257 400.1,257 400.1,257 400,257 399.9,257 399.8,257 399.8,257 399.7,257 399.6,257 399.6,257 
		399.5,257 399.4,257 399.3,256.9 399.3,256.9 399.2,256.9 399.1,256.9 399,256.9 399,256.8 398.9,256.8 398.8,256.8 398.8,256.8 
		398.7,256.8 397.8,259.3 397.6,259.9 396.7,260.5 396.3,260.8 396.3,260.9 396.3,261 396.3,261 396.3,261.1 396.3,261.2 
		396.3,261.3 396.2,261.3 396.2,261.4 396.2,261.5 396.2,261.6 396.2,261.6 396.2,261.7 396.2,261.8 396.1,261.8 396.1,261.9 
		396.1,262 396.1,262.1 396,262.1 396,262.2 396,262.3 396,262.3 395.9,262.4 395.9,262.5 396,262.6 396,262.6 396,262.7 396,262.8 
		396,262.9 396,262.9 396,263 396,263.1 396,263.1 395.9,263.2 395.9,263.3 395.8,263.3 395.8,263.4 395.8,263.5 395.7,263.5 
		395.7,263.6 395.7,263.7 395.6,263.7 395.6,263.8 395.5,263.8 395.5,263.9 395.4,263.9 395.4,264 395.3,264.1 395.3,264.1 
		395.3,264.2 395.2,264.3 395.2,264.3 395.2,264.4 395.1,264.4 395.1,264.5 395,264.5 394.9,264.6 394.9,264.6 394.8,264.7 
		394.8,264.7 394.7,264.8 394.6,264.8 394.6,264.8 394.5,264.8 394.4,264.9 394.4,264.9 394.3,264.9 394.2,264.9 394.1,264.9 
		394.1,265 394,265 393.9,265 393.8,265 393.8,265 393.7,265 393.6,265 393.6,265 393.5,265 393.4,265 393.3,265 393.3,265 
		393.2,265.1 393.1,265.1 393,265.1 393,265.1 392.9,265.1 392.8,265.1 392.7,265.1 392.7,265.1 392.6,265.1 392.5,265.1 
		392.5,265.1 392.4,265.1 392.3,265.1 392.2,265.1 392.2,265.1 392.1,265.1 392,265.1 391.9,265.1 391.9,265.1 391.8,265.1 
		391.7,265.1 391.6,265.1 391.6,265.1 391.5,265.1 391.5,265.1 390.9,267.2 390.7,267.9 389.7,268.5 389.3,269 388.2,270.3 
		382.9,273.1 382.2,273.5 382.2,273.5 382.1,273.6 382.1,273.6 382,273.7 382,273.8 381.9,273.8 381.9,273.9 381.8,273.9 381.8,274 
		381.7,274 381.7,274.1 381.6,274.2 381.6,274.2 381.5,274.3 381.5,274.3 381.5,274.4 381.4,274.4 381.4,274.5 381.3,274.5 
		381.3,274.6 381.2,274.7 381.2,274.7 381.1,274.8 381.1,274.8 381,274.9 380.9,274.9 380.9,275 380.8,275 380.8,275.1 380.7,275.1 
		380.7,275.2 380.6,275.2 380.6,275.3 380.5,275.4 380.5,275.4 380.4,275.5 380.4,275.5 380.3,275.6 380.3,275.6 380.2,275.7 
		380.2,275.7 380.1,275.8 380.1,275.8 380,275.9 380,276 379.9,276 379.9,276.1 379.8,276.1 379.8,276.2 379.7,276.2 379.7,276.3 
		379.7,276.4 379.6,276.4 379.5,276.5 379.4,276.5 379.4,276.6 379.3,276.6 379.3,276.7 379.2,276.7 379.2,276.8 379.1,276.8 
		379.1,276.9 379,276.9 379,277 378.9,277 378.8,277.1 378.8,277.1 378.7,277.2 378.7,277.2 378.6,277.3 378.6,277.3 378.5,277.3 
		378.4,277.4 378.4,277.4 378.3,277.5 378.2,277.5 378.2,277.5 378.1,277.6 378,277.6 378,277.7 377.9,277.7 377.9,277.7 
		377.8,277.8 377.7,277.8 376.8,278.9 376.8,278.9 376.7,279 376.7,279 376.7,279.1 376.6,279.2 376.6,279.2 376.5,279.3 
		376.5,279.4 376.4,279.4 376.4,279.5 376.3,279.5 376.3,279.6 376.3,279.6 376.2,279.7 376.2,279.8 376.2,279.9 376.2,279.9 
		376.2,280 376.1,280.1 376.1,280.1 376.1,280.2 376,280.3 376,280.3 375.9,280.4 375.9,280.4 375.8,280.5 375.8,280.5 375.7,280.6 
		375.7,280.7 375.7,280.7 375.6,280.8 375.6,280.8 375.5,280.9 375.5,281 375.4,281 375.4,281.1 375.3,281.1 375.2,281.2 
		375.2,281.2 375.1,281.2 375.1,281.3 375,281.3 374.9,281.4 374.9,281.4 374.8,281.4 374.7,281.5 374.7,281.5 374.6,281.6 
		374.6,281.6 374.5,281.6 374.4,281.7 374.4,281.7 374.3,281.8 374.3,281.8 374.2,281.9 374.2,281.9 374.1,282 374,282 374,282 
		373.9,282.1 373.8,282.1 373.8,282.1 373.7,282.2 373.6,282.2 373.5,282.2 373.5,282.2 373.4,282.2 373.3,282.2 373.3,282.3 
		373.2,282.3 373.1,282.3 373,282.3 373,282.3 372.9,282.3 372.8,282.4 372.8,282.4 372.7,282.4 372.6,282.4 372.5,282.4 
		372.5,282.4 372.4,282.5 372.3,282.5 372.3,282.5 372.2,282.5 372.1,282.5 372,282.6 372,282.6 371.9,282.6 371.8,282.6 
		371.7,282.6 371.7,282.6 371.6,282.6 371.5,282.7 371.5,282.7 371.4,282.7 371.3,282.7 371.2,282.7 371.2,282.7 371.1,282.7 
		371,282.7 370.9,282.7 370.9,282.7 370.8,282.6 370.7,282.6 370.7,282.6 370.6,282.6 370.5,282.6 370.4,282.6 370.4,282.6 
		370.3,282.6 370.2,282.6 370.1,282.5 370.1,282.5 370,282.5 369.9,282.5 369.8,282.5 369.8,282.5 369.7,282.5 369.6,282.5 
		369.5,282.5 369.5,282.5 369.4,282.5 369.3,282.5 369.3,282.5 369.2,282.5 369.1,282.5 369,282.4 369,282.4 368.9,282.4 
		368.8,282.4 368.7,282.4 368.7,282.4 368.6,282.4 368.5,282.4 368.4,282.4 368.4,282.4 368.3,282.4 368.2,282.4 368.1,282.4 
		368.1,282.3 368,282.3 367.9,282.3 367.9,282.4 367.8,282.4 367.7,282.4 367.6,282.4 367.6,282.4 367.5,282.4 367.4,282.4 
		367.3,282.4 367.3,282.4 367.2,282.5 367.1,282.5 367,282.5 367,282.5 366.9,282.5 366.5,282.6 366.1,282.7 365.6,282.8 
		365.3,282.9 364.7,283 364.2,283 363.9,283.1 363.6,283.1 363.2,283.1 363.1,283.1 362.6,282.9 362.3,282.6 362,282.3 361.7,281.9 
		361.4,281.5 361.1,281 360.8,280.5 360.4,280.2 360.1,279.9 359.7,279.7 359.4,279.6 359.2,279.6 359,279.7 358.9,279.9 
		358.7,280.1 358.5,280.3 358.2,280.6 358,280.7 357.7,280.9 357.3,280.9 356.9,280.9 356.7,280.9 355.4,285.2 354.8,287.3 
		355.1,290.4 355.2,292 355.3,293.2 355.4,293.7 355.1,294.6 354.8,295.3 354.7,295.6 353.6,298.7 353.6,298.8 353.5,298.8 
		353.5,298.9 353.5,299 353.5,299.1 353.5,299.1 353.5,299.2 353.5,299.3 353.5,299.4 353.5,299.4 353.5,299.5 353.5,299.6 
		353.5,299.7 353.5,299.7 353.5,299.8 353.5,299.9 353.4,300 353.4,300 353.4,300.1 353.4,300.2 353.4,300.3 353.4,300.3 
		353.4,300.4 353.4,300.5 353.4,300.5 353.5,300.6 353.5,300.7 353.5,300.8 353.5,300.8 353.5,300.9 353.6,301 353.6,301 
		353.6,301.1 353.7,301.2 353.7,301.2 353.7,301.3 353.8,301.4 353.8,301.4 353.8,301.5 353.9,301.6 353.9,301.7 353.9,301.7 
		353.9,301.8 353.9,301.9 354,301.9 354,302 354,302.1 354,302.1 354.1,302.2 354.1,302.3 354.1,302.4 354.1,302.4 354.2,302.5 
		354.2,302.6 354.2,302.6 354.2,302.7 354.3,302.8 354.3,302.9 354.3,302.9 354.3,303 354.4,303.1 354.4,303.1 354.4,303.2 
		354.5,303.3 354.5,303.3 354.5,303.4 354.5,303.5 354.6,303.5 354.6,303.6 354.6,303.7 354.6,303.8 354.6,303.8 354.6,304 
		354.6,304 354.6,304.1 354.6,304.2 354.5,304.2 354.5,304.3 354.5,304.4 354.4,304.4 354.4,304.5 354.3,304.5 354.3,304.6 
		354.2,304.7 354.2,304.7 354.1,304.8 354.1,304.8 354,304.8 353.9,304.9 353.9,304.9 353.8,304.9 353.7,304.9 353.6,304.9 
		353.6,304.9 353.5,304.9 353.4,304.9 353.3,304.9 353.3,304.9 353.2,304.9 353.1,304.9 353,304.9 353,304.9 352.9,304.9 
		352.8,304.9 352.8,304.9 352.7,304.9 352.6,305 352.5,305 352.5,305 352.4,305 352.3,305 352.2,305 352.2,305 352.1,305 352,305 
		352,305.1 351.9,305.1 351.8,305.1 351.8,305.2 351.7,305.2 351.6,305.2 351.6,305.3 351.5,305.3 351.5,305.4 351.4,305.4 
		351.3,305.5 351.3,305.5 351.2,305.6 351.2,305.6 351.1,305.7 351.1,305.7 351,305.8 350.5,307 354.8,313.7 356.3,315.9 356.3,316 
		356.4,316.1 356.4,316.1 356.5,316.2 356.5,316.2 356.6,316.3 356.6,316.3 356.7,316.4 356.7,316.4 356.8,316.5 356.8,316.5 
		356.8,316.6 356.9,316.7 356.9,316.7 357,316.8 357,316.9 357.1,316.9 357.1,317 357.1,317 357.2,317.1 357.2,317.2 357.3,317.2 
		357.3,317.3 357.3,317.4 357.4,317.4 357.4,317.5 357.4,317.6 357.4,317.6 357.4,317.7 357.4,317.8 357.4,317.9 357.5,317.9 
		357.4,318 357.4,318.1 357.4,318.2 357.4,318.2 357.4,318.3 357.4,318.4 357.4,318.5 357.4,318.5 357.4,318.6 357.3,318.7 
		357.3,318.8 357.3,318.8 357.3,318.9 357.3,319 357.2,319 357.2,319.1 357.2,319.2 357.1,319.2 357.1,319.3 357.1,319.4 357,319.4 
		357,319.5 356.9,319.5 356.9,319.6 356.8,319.7 356.8,319.7 356.8,319.8 356.7,319.8 356.6,319.9 356.6,319.9 356.5,320 356.5,320 
		356.4,320.1 356.4,320.1 356.3,320.2 356.2,320.2 356.2,320.2 356.1,320.2 356,320.3 355.9,320.3 355.9,320.3 355.8,320.3 
		355.7,320.3 355.7,320.3 355.6,320.3 355.6,320.4 355,321.4 354.8,321.6 353.7,322.3 353.3,322.6 351.8,325.5 351.7,325.6 
		351.4,326.1 353.1,327.7 354.7,327.2 355.5,327 355.7,328.1 355.5,328.7 354.9,330.2 352.5,335.9 352.6,336.9 353.7,344 
		355.3,347.9 356.1,349.8 356.7,351.2 358.8,350.9 363.6,355.8 363.6,355.9 363.7,357.9 363.7,357.9 363.8,357.9 363.8,358 
		363.9,358.1 363.9,358.1 364,358.2 364,358.2 364.1,358.3 364.1,358.3 364.2,358.4 364.2,358.4 364.3,358.5 364.3,358.5 
		364.4,358.6 364.4,358.7 364.4,358.7 364.5,358.8 364.5,358.9 364.5,359 364.5,359 364.5,359.1 364.5,359.2 364.5,359.2 
		364.5,359.3 364.5,359.4 364.5,359.5 364.5,359.5 364.5,359.6 364.5,359.7 364.5,359.8 364.5,359.9 364.5,360 364.5,360 
		364.5,360.1 364.5,360.2 364.5,360.3 364.5,360.3 364.4,360.4 364.4,360.5 364.4,360.6 364.4,360.6 364.4,360.7 364.4,360.8 
		364.3,360.8 364.3,360.9 364.3,361 364.3,361.1 364.2,361.1 364.2,361.2 364.2,361.3 364.2,361.3 364.2,361.4 364.1,361.5 
		364.1,361.6 364.1,361.6 364.1,361.7 364,361.8 364,361.8 364,361.9 364,362 363.9,362 363.9,362.1 363.9,362.2 363.9,362.3 
		363.9,362.3 363.8,362.4 363.8,362.5 363.8,362.5 363.8,362.6 363.7,362.7 363.7,362.8 363.7,362.8 363.7,362.9 363.6,363 
		363.6,363 363.6,363.1 363.5,363.2 363.5,363.2 363.5,363.3 363.5,363.4 363.4,363.4 363.4,363.5 363.4,363.6 363.4,363.7 
		363.4,363.7 363.3,363.8 363.3,363.9 363.3,363.9 363.3,364 363.3,364.1 363.2,364.2 363.2,364.2 363.2,364.3 363.2,364.4 
		363.2,364.4 363.1,364.5 363.1,364.6 363.1,364.7 363.1,364.7 363.1,364.8 363,364.9 363,364.9 363,365 362.9,365.1 362.9,365.1 
		362.9,365.2 362.9,365.3 362.8,365.4 362.8,365.4 362.8,365.5 362.8,365.6 362.7,365.6 362.7,365.7 362.7,365.8 362.6,365.8 
		362.6,365.9 362.5,365.9 362.5,366 362.4,366 362.4,366.1 362.3,366.2 362.3,366.2 362.3,366.2 362.2,366.3 362.2,366.3 
		362.1,366.4 362.1,366.5 362.1,366.5 362,366.6 362,366.7 362,366.7 361.9,366.8 361.9,366.8 361.8,366.9 361.8,366.9 361.7,367 
		361.7,367.1 361.6,367.1 361.6,367.2 361.6,367.3 361.6,367.3 361.5,367.4 361.5,367.5 361.4,367.5 361.4,367.6 361.3,367.6 
		361.3,367.7 361.2,367.7 361.2,367.8 361.2,367.9 361.1,367.9 361.1,368 361,368 361,368.1 361,368.2 360.9,368.2 360.9,368.3 
		360.8,368.4 360.8,368.4 360.7,368.5 360.7,368.5 360.7,368.6 360.6,368.7 360.6,368.7 360.5,368.8 360.5,368.8 360.4,368.9 
		360.4,368.9 360.3,369 360.2,369 360.2,369.1 360.1,369.1 360.1,369.2 360,369.2 360,369.3 359.9,369.3 359.8,369.3 355.4,368.5 
		354.8,370.4 355,370.6 359.4,375 362.1,380 361.9,380.7 361.8,380.9 361.6,381.7 353.9,383.5 351.6,386.4 346.2,386.6 346.2,387.3 
		346.4,388.4 346.6,388.9 346.9,389.4 347.9,390.8 348.2,392.8 348.3,393.1 348.8,393.1 349.1,393.4 349.1,393.6 349.3,394.8 
		348.4,396.4 348.2,396.6 347.8,397 347.3,397.1 346.5,398.2 345.7,398.5 344.8,398.5 344.6,398.3 343.3,396.9 342.4,396 
		340.9,393.2 340.5,391.8 340.2,390.9 338.8,393.6 338,395.3 338,395.5 337.6,399.8 337.6,400 337,400.5 336.5,401 335,401.1 
		334.9,401.1 334.1,401.2 333.1,400.8 332.4,399.5 331.1,398.8 329.8,401.3 330.1,401.8 330.4,402.4 330.8,403.3 330.8,403.4 
		331.1,404 331.1,404.1 330.6,405.5 329.2,406 328.6,406.2 328.6,407.6 326.9,408.3 328.2,409.6 327.2,410.3 325.8,411.4 
		325.8,411.6 325.9,411.9 325.5,412.5 324.4,414 324.7,414 328.2,415.2 328.3,416.6 328.4,419.1 327.4,419.7 326.7,420.1 
		325.8,420.6 317.1,425.4 316.3,425.8 313.6,426.4 312.9,428 311.2,431.4 310.9,431.9 310.9,432 310.7,432.2 310.3,433 309.9,433.8 
		309.3,435.1 309.2,435.3 309.1,435.4 308.3,436.9 308.1,437.3 307.8,438.9 307.2,441.9 307.2,442.4 307.4,443.9 307,444.4 
		305.6,446.1 305.5,446.3 303.4,447.6 301.4,448.8 299.4,450 296.9,450.8 295.3,451.2 293.1,451.5 290.4,451.9 288.5,451.5 
		285.4,450.2 284.7,449.3 283.9,452.3 284.4,453.4 282.3,453.1 282.3,453.2 282.3,453.2 282.3,453.3 282.4,453.3 282.4,453.4 
		282.5,453.4 282.5,453.5 282.6,453.5 282.6,453.6 282.7,453.6 282.7,453.7 282.9,453.7 282.9,453.7 283,453.7 283,453.8 
		283.1,453.8 283.1,453.9 283.2,453.9 283.2,454 283.3,454 283.3,454.1 283.6,454.1 283.6,454.2 283.7,454.2 283.7,454.5 
		283.8,454.5 283.8,454.8 283.9,454.8 283.9,454.9 284,454.9 284,455 284.1,455 284.1,455.1 284.1,455.1 284.1,455.2 284.2,455.2 
		284.2,455.3 284.3,455.3 284.3,455.4 284.3,455.4 284.3,455.5 284.4,455.5 284.4,455.6 284.6,455.6 284.6,455.7 284.7,455.7 
		284.7,455.8 284.8,455.8 284.8,456.4 284.7,456.4 284.7,456.7 284.8,456.7 284.8,456.9 284.9,456.9 284.9,457.1 285,457.1 
		285,457.1 285.3,457.1 285.3,457.2 285.4,457.2 285.4,457.3 285.4,457.3 285.4,457.5 285.5,457.5 285.5,457.6 285.6,457.6 
		285.6,457.7 285.6,457.7 285.6,457.9 285.7,457.9 285.7,458 285.8,458 285.8,458.2 285.9,458.2 285.9,458.3 285.9,458.3 
		285.9,458.5 286,458.5 286,458.6 286.1,458.6 286.1,458.7 286.1,458.7 286.1,458.9 286.2,458.9 286.2,459 286.3,459 286.3,459.1 
		286.3,459.1 286.3,459.3 286.5,459.3 286.5,459.4 286.6,459.4 286.6,459.5 286.5,459.5 286.5,459.8 286.6,459.8 286.6,459.9 
		286.7,459.9 286.7,460 286.8,460 286.8,460.1 286.9,460.1 286.9,460.4 287,460.4 287,460.5 287,460.5 287,460.5 287.2,460.5 
		287.2,460.6 287.4,460.6 287.4,460.8 287.4,460.8 287.4,461.2 287.5,461.2 287.5,461.2 287.5,461.4 287.6,461.4 287.6,461.7 
		287.5,461.7 287.5,461.7 287.5,461.7 287.3,461.7 287.3,461.8 287.2,461.8 287.2,462.1 287.3,462.1 287.3,462.2 287.4,462.2 
		287.4,462.4 287.5,462.4 287.5,462.8 287.6,462.8 287.6,463 287.6,463 287.6,463.2 287.7,463.2 287.7,463.4 287.8,463.4 
		287.8,463.5 287.8,463.5 287.9,463.5 287.9,463.6 287.9,463.6 287.9,463.9 287.9,464.5 287.9,464.5 287.9,465.5 287.7,465.5 
		287.7,465.4 287.6,465.4 287.6,465.3 287.5,465.3 287.5,465.4 287.4,465.4 287.4,465.7 287.2,465.7 287.2,465.8 287,465.8 
		287,465.7 287,465.7 287,465.5 286.9,465.5 286.9,465.1 286.8,465.1 286.8,464.6 286.7,464.6 286.7,464.5 286.4,464.5 286.4,464.6 
		286.3,464.6 286.3,464.7 286.3,464.7 286.3,464.9 286.4,464.9 286.4,465.1 286.5,465.1 286.5,465.3 286.5,465.3 286.5,465.5 
		286.6,465.5 286.6,465.8 286.7,465.8 286.7,466 286.7,466 286.7,466.1 286.8,466.1 286.8,466.2 286.9,466.2 286.9,466.3 
		287.2,466.3 287.2,466.2 287.7,466.2 287.7,466.3 287.9,466.3 287.9,466.3 288,466.3 288,466.4 288.2,466.4 288.2,466.5 
		288.3,466.5 288.3,466.6 288.4,466.6 288.4,466.7 288.5,466.7 288.5,466.9 288.5,466.9 288.5,467 288.6,467 288.6,467.2 
		288.7,467.2 288.7,467.4 288.7,467.4 288.7,467.5 288.7,467.5 288.7,467.7 288.7,467.7 288.7,467.8 288.8,467.8 288.8,467.9 
		289,467.9 289,468 289,468 289,468.1 289.1,468.1 289.1,468.3 289.2,468.3 289.2,468.5 289.2,468.5 289.2,468.6 289.3,468.6 
		289.3,468.9 289.2,468.9 289.2,469.1 289.4,469.1 289.4,469.2 289.6,469.2 289.6,469.4 289.7,469.4 289.7,469.6 289.8,469.6 
		289.8,469.7 289.9,469.7 289.9,469.9 289.9,469.9 289.9,470 289.9,470 289.9,470.1 289.8,470.1 289.8,470.2 289.7,470.2 
		289.7,470.5 289.8,470.5 289.8,470.7 289.9,470.7 289.9,471.2 289.9,471.2 289.9,471.5 290,471.5 290,471.8 290.1,471.8 
		290.1,471.9 290.1,471.9 290.1,472.7 290.2,472.7 290.2,472.8 290.3,472.8 290.3,473 290.3,473 290.3,473.1 290.4,473.1 
		290.4,473.2 290.5,473.2 290.5,473.8 290.5,473.8 290.5,474 290.6,474 290.6,474.7 290.5,474.7 290.5,475.4 290.5,475.4 
		290.5,475.6 290.4,475.6 290.4,475.8 290.3,475.8 290.3,476 290.3,476 290.3,476.4 290.2,476.4 290.2,476.7 290.3,476.7 
		290.3,476.9 290.3,476.9 290.3,477.6 290.3,477.6 290.3,478.2 290.3,478.2 290.3,478.4 290.4,478.4 290.4,478.5 290.5,478.5 
		290.5,478.8 290.4,478.8 290.4,479 290.5,479 290.5,479.3 290.5,479.3 290.5,479.7 290.6,479.7 290.6,480 290.7,480 290.7,480.3 
		290.8,480.3 290.8,480.7 290.8,480.7 290.8,480.9 290.8,480.9 290.8,481.1 290.7,481.1 290.7,481.5 290.6,481.5 290.6,482 
		290.5,482 290.5,482.1 290.5,482.1 290.5,482.3 290.4,482.3 290.4,482.3 290.3,482.3 290.3,482.5 290.3,482.5 290.3,482.6 
		290.3,482.6 290.3,483 290.3,483 290.3,483.2 290.2,483.2 290.2,483.4 290.1,483.4 290.1,483.5 290.1,483.5 290.1,483.6 290,483.6 
		290,483.8 289.9,483.8 289.9,483.9 289.9,483.9 289.9,484 289.8,484 289.8,484.1 289.7,484.1 289.7,484.2 289.6,484.2 289.6,484.3 
		289.5,484.3 289.5,484.5 289.4,484.5 289.4,484.6 289.5,484.6 289.5,484.7 289.6,484.7 289.6,485 289.6,485 289.6,485.2 
		289.7,485.2 289.7,485.3 289.8,485.3 289.8,485.5 289.9,485.5 289.9,485.6 289.9,485.6 289.9,485.7 290,485.7 290,485.8 
		290.1,485.8 290.1,485.9 290.1,485.9 290.1,486 290.2,486 290.2,486.1 290.3,486.1 290.3,486.2 290.3,486.2 290.3,486.3 
		290.4,486.3 290.4,486.4 290.5,486.4 290.5,486.5 290.5,486.5 290.5,486.7 290.6,486.7 290.6,486.8 290.7,486.8 290.7,486.9 
		290.8,486.9 290.8,487.1 290.8,487.1 290.8,487.7 290.8,487.7 290.8,488.1 290.8,488.1 290.8,488.2 290.9,488.2 290.9,488.3 
		291,488.3 291,488.4 291,488.4 291,488.5 291.1,488.5 291.1,488.6 291.2,488.6 291.2,488.7 291.2,488.7 291.2,488.8 291.3,488.8 
		291.3,488.9 291.4,488.9 291.4,489 291.4,489 291.4,489.2 291.5,489.2 291.5,489.3 291.6,489.3 291.6,489.5 291.6,489.5 
		291.6,489.6 291.7,489.6 291.7,489.8 291.8,489.8 291.8,490 292,490 292,490.1 292.1,490.1 292.1,490.2 292.2,490.2 292.2,490.3 
		292.3,490.3 292.3,490.3 292.3,490.3 292.3,490.4 292.4,490.4 292.4,490.5 292.5,490.5 292.5,490.6 292.6,490.6 292.6,490.7 
		292.7,490.7 292.7,490.8 292.8,490.8 292.8,491 292.8,491 292.8,491.1 292.9,491.1 292.9,491.3 293,491.3 293,491.4 293,491.4 
		293,491.5 293.1,491.5 293.1,491.6 293.2,491.6 293.2,491.7 293.2,491.7 293.2,491.8 293.4,491.8 293.4,491.9 293.4,491.9 
		293.4,492 293.6,492 293.6,492.1 293.6,492.1 293.6,492.2 293.8,492.2 293.8,492.3 293.9,492.3 293.9,492.4 294,492.4 294,492.5 
		294.1,492.5 294.1,492.6 294.2,492.6 294.2,492.7 294.3,492.7 294.3,492.7 294.4,492.7 294.4,492.8 294.5,492.8 294.5,492.9 
		294.6,492.9 294.6,493 294.8,493 294.8,493.1 294.8,493.1 294.8,493.2 294.9,493.2 294.9,493.3 295,493.3 295,493.4 295.1,493.4 
		295.1,493.5 295.2,493.5 295.2,493.6 295.3,493.6 295.3,493.7 295.4,493.7 295.4,493.8 295.4,493.8 295.4,493.8 295.6,493.8 
		295.6,493.9 295.6,493.9 295.6,494 295.7,494 295.7,494.1 295.9,494.1 295.9,494.2 295.9,494.2 295.9,494.3 296,494.3 296,494.4 
		296.1,494.4 296.1,494.5 296.2,494.5 296.2,494.6 296.3,494.6 296.3,494.7 296.4,494.7 296.4,494.8 296.5,494.8 296.5,494.9 
		296.7,494.9 296.7,494.9 296.8,494.9 296.8,495 296.9,495 296.9,495.1 297,495.1 297,495.2 297.1,495.2 297.1,495.3 297.2,495.3 
		297.2,495.4 297.3,495.4 297.3,495.5 297.4,495.5 297.4,495.6 297.5,495.6 297.5,495.7 297.6,495.7 297.6,495.8 297.8,495.8 
		297.8,495.9 297.9,495.9 297.9,496 298.1,496 298.1,496.1 298.2,496.1 298.2,496.1 298.3,496.1 298.3,496.2 298.5,496.2 
		298.5,496.3 298.6,496.3 298.6,496.4 298.8,496.4 298.8,496.5 299,496.5 299,496.6 299.1,496.6 299.1,496.7 299.2,496.7 
		299.2,496.8 299.4,496.8 299.4,496.9 299.5,496.9 299.5,497 299.6,497 299.6,497.1 299.8,497.1 299.8,497.2 299.9,497.2 
		299.9,497.2 300.1,497.2 300.1,497.3 300.3,497.3 300.3,497.4 300.4,497.4 300.4,497.5 300.5,497.5 300.5,497.6 300.8,497.6 
		300.8,497.7 300.9,497.7 300.9,497.8 301,497.8 301,497.9 301.2,497.9 301.2,498 301.4,498 301.4,498.1 301.6,498.1 301.6,498.2 
		301.9,498.2 301.9,498.3 302.1,498.3 302.1,498.4 302.3,498.4 302.3,498.4 302.5,498.4 302.5,498.5 302.8,498.5 302.8,498.6 
		303,498.6 303,498.7 303.2,498.7 303.2,498.8 303.4,498.8 303.4,498.9 303.7,498.9 303.7,499 303.9,499 303.9,499.1 304.3,499.1 
		304.3,499.2 304.5,499.2 304.5,499.3 304.8,499.3 304.8,499.6 304.8,499.6 304.8,500 304.7,500 304.7,500.3 305,500.3 305,500.4 
		305.4,500.4 305.4,500.5 305.9,500.5 305.9,500.3 305.7,500.3 305.7,500.2 305.5,500.2 305.5,500.1 305.3,500.1 305.3,500 
		305.2,500 305.2,499.9 305,499.9 305,499.7 305,499.7 305,499.5 305.1,499.5 305.1,499.4 305.2,499.4 305.2,499.5 305.7,499.5 
		305.7,499.5 306.1,499.5 306.1,499.6 306.9,499.6 306.9,499.7 307.7,499.7 307.7,499.8 307.9,499.8 307.9,499.9 308.3,499.9 
		308.3,500 308.5,500 308.5,500.1 308.9,500.1 308.9,500.2 309.2,500.2 309.2,500.3 309.4,500.3 309.4,500.4 309.7,500.4 
		309.7,500.5 310,500.5 310,500.6 310.3,500.6 310.3,500.7 310.5,500.7 310.5,500.7 311.2,500.7 311.2,500.8 311.5,500.8 
		311.5,500.9 311.9,500.9 311.9,501 313.9,501 313.9,500.9 314.1,500.9 314.1,500.8 314.5,500.8 314.5,500.7 314.8,500.7 
		314.8,500.7 315,500.7 315,500.6 315.2,500.6 315.2,500.5 315.2,500.5 315.2,500.4 315.4,500.4 315.4,500.3 315.8,500.3 
		315.8,500.2 316.1,500.2 316.1,500.1 316.6,500.1 316.6,500 316.6,500 316.9,500 316.9,499.9 317.2,499.9 317.2,499.8 317.5,499.8 
		317.5,499.6 318.1,499.6 318.1,499.5 318.6,499.5 318.6,499.5 319.1,499.5 319.1,499.4 319.6,499.4 319.6,499.3 320.1,499.3 
		320.1,499.2 320.6,499.2 320.6,499.1 322.3,499.1 322.3,499 322.6,499 322.6,498.9 322.7,498.9 322.7,498.8 322.9,498.8 
		322.9,498.7 323.2,498.7 323.2,498.6 323.6,498.6 323.6,498.5 323.9,498.5 323.9,498.4 324.9,498.4 324.9,498.3 325.4,498.3 
		325.4,498.2 326.1,498.2 326.1,498.1 327,498.1 327,498 332.6,498 332.6,498.1 334.2,498.1 334.2,498.2 334.6,498.2 334.6,498.3 
		335,498.3 335,498.4 335.3,498.4 335.3,498.4 335.6,498.4 335.6,498.4 336.1,498.4 336.1,498.4 336.4,498.4 336.4,498.5 
		336.8,498.5 336.8,498.6 337.2,498.6 337.2,498.7 337.5,498.7 337.5,498.8 337.9,498.8 337.9,498.9 338.2,498.9 338.2,499 
		338.6,499 338.6,499.1 339,499.1 339,499.2 339.3,499.2 339.3,499.3 340.2,499.3 340.2,499.1 340.3,499.1 340.3,499 340.6,499 
		340.6,499.1 340.8,499.1 340.8,499.2 341.1,499.2 341.1,499.3 341.3,499.3 341.3,499.4 342,499.4 342,499.5 342.2,499.5 
		342.2,499.5 342.5,499.5 342.5,499.6 342.7,499.6 342.7,499.7 342.9,499.7 342.9,499.8 343.1,499.8 343.1,499.9 343.3,499.9 
		343.3,500 343.6,500 343.6,500.1 343.8,500.1 343.8,500.2 344.4,500.2 344.4,500.1 345,500.1 345,500.2 346.4,500.2 346.4,500.3 
		346.8,500.3 346.8,500.4 347.2,500.4 347.2,500.5 349.1,500.5 349.1,500.6 349.5,500.6 349.5,500.7 349.9,500.7 349.9,500.6 
		350.4,500.6 350.4,500.5 350.6,500.5 350.6,500.4 350.9,500.4 350.9,500.3 352.1,500.3 352.1,500.2 352.8,500.2 352.8,500.1 
		353.4,500.1 353.4,500 354.1,500 354.1,499.9 354.6,499.9 354.6,499.8 355,499.8 355,499.7 355.2,499.7 355.2,499.6 355.7,499.6 
		355.7,499.5 356.1,499.5 356.1,499.5 356.2,499.5 356.2,499.4 356.4,499.4 356.4,499.3 356.7,499.3 356.7,499.2 356.9,499.2 
		356.9,499.1 357.2,499.1 357.2,499 357.4,499 357.4,498.9 357.7,498.9 357.7,498.8 357.9,498.8 357.9,498.7 358.1,498.7 
		358.1,498.6 358.6,498.6 358.6,498.7 358.8,498.7 358.8,498.6 358.7,498.6 358.7,498.4 359.1,498.4 359.1,498.4 359,498.4 
		359,498.2 359.5,498.2 359.5,498.1 359.5,498.1 359.5,498 359.6,498 359.6,497.9 359.7,497.9 359.7,497.8 359.8,497.8 359.8,497.7 
		359.9,497.7 359.9,497.5 359.9,497.5 359.9,497.4 360,497.4 360,497.3 360.1,497.3 360.1,497.2 360.1,497.2 360.1,497.2 
		360.2,497.2 360.2,497.1 360.4,497.1 360.4,497 360.5,497 360.5,496.9 360.6,496.9 360.6,496.8 360.7,496.8 360.7,496.7 
		360.8,496.7 360.8,496.6 361,496.6 361,496.5 361.1,496.5 361.1,496.4 361.2,496.4 361.2,496.3 361.3,496.3 361.3,496.2 
		361.5,496.2 361.5,496.1 361.6,496.1 361.9,496.1 361.9,496.2 361.9,496.2 361.9,496.3 362.1,496.3 362.1,496.2 362.2,496.2 
		362.2,496.1 362.4,496.1 362.4,496.1 362.5,496.1 362.5,496 362.6,496 362.6,495.9 362.7,495.9 362.7,495.8 363,495.8 363,495.7 
		363.4,495.7 363.4,495.5 363.5,495.5 363.5,495.4 363.7,495.4 363.7,495.5 363.9,495.5 363.9,495.6 364.8,495.6 364.8,495.5 
		365.9,495.5 365.9,495.4 366.4,495.4 366.4,495.5 366.4,495.5 366.4,495.6 366.8,495.6 366.8,495.5 366.8,495.5 366.8,495.3 
		366.9,495.3 366.9,495.2 367,495.2 367,495.1 367,495.1 367,495 367.1,495 367.1,494.9 367.2,494.9 367.2,494.9 367.4,494.9 
		367.4,494.8 368.3,494.8 368.3,494.9 368.6,494.9 368.6,494.9 369,494.9 369,495 369.3,495 369.3,495.1 369.7,495.1 369.7,495.2 
		370,495.2 370,495.3 370.4,495.3 370.4,495.4 370.6,495.4 370.6,495.5 370.8,495.5 370.8,495.6 371,495.6 371,495.7 371.2,495.7 
		371.2,495.8 371.5,495.8 371.5,495.9 371.7,495.9 371.7,496 371.9,496 371.9,496.1 372.1,496.1 372.1,496.1 373,496.1 373,496.2 
		373,496.2 373,496.4 373.1,496.4 373.1,496.5 373.5,496.5 373.5,496.4 373.9,496.4 373.9,496.6 374,496.6 374,496.8 374.2,496.8 
		374.2,496.9 374.5,496.9 374.5,497 375.1,497 375.1,496.9 375.3,496.9 375.3,496.8 375.6,496.8 375.6,496.9 375.9,496.9 
		375.9,497.1 375.9,497.1 375.9,497.2 376.4,497.2 376.4,497.2 376.5,497.2 376.5,497.3 376.6,497.3 376.6,497.4 376.8,497.4 
		376.8,497.5 377,497.5 377,497.6 377.1,497.6 377.1,497.8 377.1,497.8 377.1,498 377.3,498 377.3,497.9 377.4,497.9 377.4,497.8 
		377.5,497.8 377.5,497.7 377.7,497.7 377.7,497.6 377.7,497.6 377.7,497.5 378.2,497.5 378.2,497.6 378.4,497.6 378.4,497.5 
		378.6,497.5 378.6,497.4 378.7,497.4 378.7,497.3 378.8,497.3 378.8,497.2 379.1,497.2 379.1,497.2 380.4,497.2 380.4,497.1 
		380.7,497.1 380.7,497 381,497 381,496.9 381.1,496.9 381.1,496.8 381.3,496.8 381.3,496.7 381.4,496.7 381.4,496.6 381.5,496.6 
		381.5,496.5 381.5,496.5 381.5,496.3 381.6,496.3 381.6,496.2 381.7,496.2 381.7,496.1 381.7,496.1 381.7,496 381.9,496 
		381.9,495.9 382,495.9 382,495.8 382.2,495.8 382.2,495.7 382.2,495.7 382.2,495.5 382.3,495.5 382.3,495.3 382.4,495.3 
		382.4,495.1 382.4,495.1 382.4,494.9 382.5,494.9 382.5,494.8 382.6,494.8 382.6,494.7 382.7,494.7 382.7,494.6 382.8,494.6 
		382.8,494.4 382.8,494.4 382.8,494.3 383,494.3 383,494.2 383.1,494.2 383.1,494.1 383.2,494.1 383.2,494 383.3,494 383.3,493.9 
		383.5,493.9 383.5,493.8 383.6,493.8 383.6,493.8 383.7,493.8 383.7,493.7 383.9,493.7 383.9,493.3 384,493.3 384,493.2 
		384.2,493.2 384.2,493.1 384.7,493.1 384.7,493 385.1,493 385.1,492.9 385.5,492.9 385.5,492.8 385.8,492.8 385.8,492.7 
		386.2,492.7 386.2,492.7 386.4,492.7 386.4,492.6 386.5,492.6 386.5,492.5 386.7,492.5 386.7,492.3 387.3,492.3 387.3,492.2 
		387.7,492.2 387.7,492.1 387.7,492.1 388.2,492.1 388.5,492.1 388.5,491.9 389,491.9 389,492 389.1,492 389.1,492.1 389.4,492.1 
		389.4,492.2 390.2,492.2 390.2,492.3 390.4,492.3 390.4,492.4 390.6,492.4 390.6,492.5 390.9,492.5 390.9,492.6 391.1,492.6 
		391.1,492.7 391.5,492.7 391.5,492.7 391.4,492.7 391.4,492.8 392,492.8 392,492.9 392.1,492.9 392.1,493 392.3,493 392.3,493.1 
		392.4,493.1 392.4,493.2 392.6,493.2 392.6,493.3 392.6,493.3 392.6,493.5 392.7,493.5 392.7,493.6 392.8,493.6 392.8,493.7 
		392.8,493.7 392.8,493.6 392.9,493.6 392.9,493.5 393.2,493.5 393.2,493.6 393.3,493.6 393.3,493.7 393.5,493.7 393.5,493.8 
		393.7,493.8 393.7,493.8 393.8,493.8 393.8,493.9 394,493.9 394,494 394.2,494 394.2,494.1 394.3,494.1 394.3,494.2 394.4,494.2 
		394.4,494.3 394.6,494.3 394.6,494.4 394.7,494.4 394.7,494.5 394.9,494.5 394.9,494.6 395.1,494.6 395.1,494.7 395.2,494.7 
		395.2,494.8 395.3,494.8 395.3,494.9 395.5,494.9 395.5,494.9 395.7,494.9 395.7,495 395.8,495 395.8,495.1 396,495.1 396,495.2 
		396.1,495.2 396.1,495.3 396.2,495.3 396.2,495.4 396.4,495.4 396.4,495.5 396.5,495.5 396.5,495.6 396.6,495.6 396.6,495.7 
		396.8,495.7 396.8,495.9 396.9,495.9 396.9,496 397,496 397,496.1 397.1,496.1 397.1,496.1 397.2,496.1 397.2,496.2 397.3,496.2 
		397.3,496.3 397.4,496.3 397.4,496.4 397.5,496.4 397.5,496.5 397.6,496.5 397.6,496.6 397.7,496.6 397.7,496.7 397.8,496.7 
		397.8,496.8 398,496.8 398,496.9 398,496.9 398,497 398.2,497 398.2,497.1 398.2,497.1 398.2,497.2 398.4,497.2 398.4,497.2 
		398.6,497.2 398.6,497.3 398.9,497.3 398.9,497.4 398.9,497.4 398.9,497.5 399,497.5 399,497.6 399.1,497.6 399.1,497.7 
		399.1,497.7 399.1,497.8 399.3,497.8 399.3,497.9 399.5,497.9 399.5,498 399.6,498 399.6,498.1 399.7,498.1 399.7,498.2 
		399.8,498.2 399.8,498.3 399.9,498.3 399.9,498.4 400,498.4 400,498.4 400,498.4 400,498.5 400.1,498.5 400.1,498.6 400.2,498.6 
		400.2,498.7 400.3,498.7 400.3,498.8 400.4,498.8 400.4,498.9 400.8,498.9 400.8,498.8 400.9,498.8 400.9,498.6 401.1,498.6 
		401.1,498.7 401.1,498.7 401.1,498.8 401.3,498.8 401.3,498.9 401.3,498.9 401.3,499 401.5,499 401.5,499.1 402,499.1 402,499.2 
		402.1,499.2 402.1,499.3 402.2,499.3 402.2,499.1 402.2,499.1 402.2,498.9 402.6,498.9 402.6,498.8 402.9,498.8 402.9,498.7 
		403.4,498.7 403.4,498.6 403.5,498.6 403.5,498.4 403.6,498.4 403.6,498.4 403.7,498.4 403.7,498.2 403.9,498.2 403.9,498.3 
		404,498.3 404,498.4 404,498.4 404,498.5 404.3,498.5 404.3,498.6 404.4,498.6 404.4,498.7 404.6,498.7 404.6,498.8 404.6,498.8 
		404.6,498.9 405,498.9 405,499 405.1,499 405.1,499.2 405.5,499.2 405.5,499.4 405.6,499.4 405.6,499.5 405.7,499.5 405.7,499.6 
		405.7,499.6 405.7,499.7 405.9,499.7 405.9,499.8 406.1,499.8 406.1,499.9 406.2,499.9 406.2,500.1 406.5,500.1 406.5,500.3 
		406.6,500.3 406.6,500.4 407,500.4 407,500.3 407.1,500.3 407.1,500.2 407.4,500.2 407.4,500.1 407.6,500.1 407.6,500 407.7,500 
		407.7,499.8 407.7,499.8 407.7,499.6 407.8,499.6 407.8,499.5 407.9,499.5 407.9,499.5 408,499.5 408,499.4 408,499.4 408,499.3 
		408.1,499.3 408.1,499.1 408.3,499.1 408.3,498.6 408.4,498.6 408.4,498.4 408.5,498.4 408.5,498.3 408.6,498.3 408.6,498.2 
		408.7,498.2 408.7,498.1 408.8,498.1 408.8,497.9 408.9,497.9 408.9,497.3 409,497.3 409,497.2 409.1,497.2 409.1,497.1 
		409.3,497.1 409.3,497.2 409.5,497.2 409.5,497.1 409.9,497.1 409.9,496.8 410,496.8 410,496.7 410.1,496.7 410.1,496.6 
		410.2,496.6 410.2,496.4 410.3,496.4 410.3,496.1 410.4,496.1 410.4,496 410.4,496 410.4,495.8 410.6,495.8 410.6,495.7 
		410.7,495.7 410.7,495.6 410.9,495.6 410.9,495.5 410.9,495.5 410.9,495.4 411,495.4 411,495.3 411.1,495.3 411.1,495.2 
		411.2,495.2 411.2,495.1 411.3,495.1 411.3,495 411.3,495 411.3,494.9 411.4,494.9 411.4,494.9 411.5,494.9 411.5,494.8 
		411.7,494.8 411.7,494.7 411.8,494.7 411.8,494.6 412,494.6 412,494.5 412.1,494.5 412.1,494.4 412.3,494.4 412.3,494.3 
		412.4,494.3 412.4,494.2 412.6,494.2 412.6,494.1 412.8,494.1 412.8,494 412.9,494 412.9,493.9 413.1,493.9 413.1,493.8 
		413.1,493.8 413.1,493.8 414,493.8 414,493.8 414.2,493.8 414.2,493.9 414.3,493.9 414.3,494 414.4,494 414.4,494.1 414.6,494.1 
		414.6,494.2 414.8,494.2 414.8,494.1 414.9,494.1 414.9,494 414.9,494 414.9,493.9 415.2,493.9 415.2,493.6 415.5,493.6 
		415.5,493.4 415.5,493.4 415.5,493.3 415.6,493.3 415.6,493.2 415.7,493.2 415.7,493.1 415.8,493.1 415.8,493 415.9,493 
		415.9,492.9 416,492.9 416,492.8 416.1,492.8 416.1,492.7 416.2,492.7 416.2,492.7 416.2,492.7 416.2,492.5 416.3,492.5 
		416.3,492.4 416.6,492.4 416.6,492.3 416.9,492.3 416.9,492.2 416.9,492.2 416.9,492 417,492 417,491.8 417.1,491.8 417.1,491.7 
		417.2,491.7 417.2,491.6 417.3,491.6 417.3,491.5 417.3,491.5 417.3,491.5 417.6,491.5 417.6,491.4 417.8,491.4 417.8,491.3 
		417.9,491.3 417.9,491.2 418,491.2 418,491 418,491 418,490.5 418.3,490.5 418.3,490.3 418.2,490.3 418.2,490.1 418.3,490.1 
		418.3,489.9 418.4,489.9 418.4,489.8 418.4,489.8 418.4,489.6 418.5,489.6 418.5,489.5 418.6,489.5 418.6,489.4 418.8,489.4 
		418.8,489.3 418.9,489.3 418.9,489.2 418.9,489.2 418.9,489.2 419.2,489.2 419.2,489 419.3,489 419.3,488.8 419.4,488.8 
		419.4,488.7 419.6,488.7 419.6,488.8 419.8,488.8 419.8,488.7 419.9,488.7 419.9,488.5 420.2,488.5 420.2,488.4 420.2,488.4 
		420.2,488.2 420.3,488.2 420.3,488.1 420.6,488.1 420.6,488 420.6,488 420.6,487.9 420.8,487.9 420.8,487.8 420.9,487.8 
		420.9,487.6 420.9,487.6 420.9,487.5 421,487.5 421,487.4 421.1,487.4 421.1,487.3 421.1,487.3 421.1,487.2 421.3,487.2 
		421.3,487.3 421.6,487.3 421.6,487.4 421.7,487.4 421.7,487.5 422,487.5 422,487.6 422,487.6 422,487.7 422.2,487.7 422.2,487.8 
		422.4,487.8 422.4,487.9 422.5,487.9 422.5,488 422.6,488 422.6,488.1 422.7,488.1 422.7,488 422.7,488 422.7,487.7 422.9,487.7 
		422.9,487.6 423,487.6 423,487.5 423.1,487.5 423.1,487.6 423.4,487.6 423.4,487.1 423.5,487.1 423.5,486.9 423.6,486.9 
		423.6,486.7 423.7,486.7 423.7,486.6 423.8,486.6 423.8,486.5 423.9,486.5 423.9,486.3 424,486.3 424,486.2 424.2,486.2 
		424.2,486.3 424.5,486.3 424.5,486.2 424.8,486.2 424.8,486.1 425.1,486.1 425.1,486 425.3,486 425.3,485.8 425.4,485.8 
		425.4,485.8 425.5,485.8 425.5,485.7 425.6,485.7 425.6,485.6 425.7,485.6 425.7,485.5 425.8,485.5 425.8,485.4 425.9,485.4 
		425.9,485.3 426.4,485.3 426.4,485.2 427.2,485.2 427.2,485.3 427.3,485.3 427.3,485.4 427.4,485.4 427.4,485.5 427.5,485.5 
		427.5,485.6 427.5,485.6 427.5,485.7 427.6,485.7 427.6,485.8 428,485.8 428,485.8 428.1,485.8 428.1,485.9 428.4,485.9 428.4,486 
		428.5,486 428.5,486.1 429,486.1 429,486 429.6,486 429.6,485.9 430.2,485.9 430.2,485.8 430.4,485.8 430.4,485.8 430.6,485.8 
		430.6,485.7 430.8,485.7 430.8,485.6 431.1,485.6 431.1,485.7 431.1,485.7 431.1,485.8 431.3,485.8 431.3,485.8 431.7,485.8 
		431.7,485.8 431.8,485.8 431.8,485.6 431.9,485.6 431.9,485.5 431.8,485.5 431.8,485.4 432,485.4 432,485.3 432.2,485.3 
		432.2,485.2 432.3,485.2 432.3,485.1 432.9,485.1 432.9,485 433.4,485 433.4,485.1 433.5,485.1 433.5,485.2 433.9,485.2 
		433.9,485.3 434,485.3 434,485.4 434,485.4 434,485.5 434.2,485.5 434.2,485.4 434.2,485.4 434.2,485.2 434.3,485.2 434.3,485 
		434.2,485 434.2,484.9 434.7,484.9 434.7,485 434.9,485 434.9,485.1 435.1,485.1 435.1,485 435.4,485 435.4,485.1 436,485.1 
		436,485.2 436.2,485.2 436.2,485.3 437,485.3 437,485.4 438.7,485.4 438.7,485.7 439,485.7 439,485.6 439.1,485.6 439.1,485.5 
		439.1,485.5 439.1,485.4 439.2,485.4 439.2,485.3 439.3,485.3 439.3,485.2 439.3,485.2 439.3,485.1 439.6,485.1 439.6,485 
		440.1,485 440.1,484.9 440.2,484.9 440.2,484.7 440.6,484.7 440.6,484.8 440.7,484.8 440.7,484.9 440.9,484.9 440.9,485 441.1,485 
		441.1,485.1 441.2,485.1 441.2,485.2 441.3,485.2 441.3,485.3 442.7,485.3 442.7,485.2 443.1,485.2 443.1,485.1 443.5,485.1 
		443.5,485 443.9,485 443.9,484.9 444.2,484.9 444.2,484.8 444.4,484.8 444.4,484.7 444.4,484.7 444.4,484.6 444.6,484.6 
		444.6,484.6 444.7,484.6 444.7,484.5 445,484.5 445,484.6 445.3,484.6 445.3,484.5 445.6,484.5 445.6,484.6 445.8,484.6 
		445.8,484.6 445.9,484.6 445.9,484.7 446,484.7 446,484.8 446.2,484.8 446.2,484.9 446.2,484.9 446.2,485 446.4,485 446.4,485.1 
		446.5,485.1 446.5,485.2 447.6,485.2 447.6,485.1 447.8,485.1 447.8,485 448.2,485 448.2,484.9 448.9,484.9 448.9,484.8 449,484.8 
		449,484.7 449.1,484.7 449.1,484.6 449.2,484.6 449.2,484.5 449.3,484.5 449.3,484.4 449.8,484.4 449.8,484.3 449.9,484.3 
		449.9,484.2 449.9,484.2 450,484.2 450,484.1 450.1,484.1 450.1,484 450.2,484 450.2,483.9 450.4,483.9 450.4,483.8 450.5,483.8 
		450.5,483.7 450.8,483.7 450.8,483.6 450.9,483.6 450.9,483.5 451,483.5 451,483.5 451.2,483.5 451.2,483.4 451.3,483.4 
		451.3,483.3 451.6,483.3 451.6,483.2 452.2,483.2 452.2,483.3 452.5,483.3 452.5,483.2 452.7,483.2 452.7,483.3 452.8,483.3 
		452.8,483.4 452.9,483.4 452.9,483.3 453.1,483.3 453.1,483.4 453.3,483.4 453.3,483.5 453.4,483.5 453.4,483.5 453.8,483.5 
		453.8,483.5 454.7,483.5 454.7,483.4 454.7,483.4 454.7,483.2 454.8,483.2 454.8,483.1 455,483.1 455,483 455.2,483 455.2,482.9 
		455.5,482.9 455.5,483 455.6,483 455.6,482.9 455.8,482.9 455.8,482.8 455.9,482.8 455.9,482.7 456.3,482.7 456.3,482.6 
		456.5,482.6 456.5,482.7 457.3,482.7 457.3,482.8 457.5,482.8 457.5,482.9 457.7,482.9 457.7,483 457.8,483 457.8,483.1 458,483.1 
		458,483.2 458.1,483.2 458.1,483.1 458.2,483.1 458.2,483.2 458.7,483.2 458.7,483.1 459,483.1 459,483 459.2,483 459.2,482.8 
		459.3,482.8 459.3,482.6 459.5,482.6 459.5,482.5 459.6,482.5 459.6,482.4 459.6,482.4 459.6,482.3 459.7,482.3 459.7,482.3 
		459.8,482.3 459.8,482.2 459.9,482.2 459.9,481.9 460.1,481.9 460.1,481.8 460.2,481.8 460.2,481.5 460.2,481.5 460.2,481.4 
		460.4,481.4 460.4,481.3 460.5,481.3 460.5,481.2 460.8,481.2 460.8,481 461.1,481 461.1,480.9 461.1,480.9 461.1,480.8 
		461.4,480.8 461.4,480.7 461.4,480.7 461.4,480.6 461.6,480.6 461.6,480.5 461.8,480.5 461.8,480.4 462,480.4 462,480.3 
		462.2,480.3 462.2,480.2 462.5,480.2 462.5,480.1 462.7,480.1 462.7,480 463,480 463,480 463.3,480 463.3,479.9 463.8,479.9 
		463.8,479.8 463.9,479.8 463.9,479.7 464.4,479.7 464.4,479.6 464.5,479.6 464.5,479.4 464.8,479.4 464.8,479.3 465.5,479.3 
		465.5,479.2 465.6,479.2 465.6,479.1 465.7,479.1 465.7,479 465.8,479 465.8,478.9 466.1,478.9 466.1,478.9 467.6,478.9 
		467.6,478.8 468,478.8 468,478.7 468.1,478.7 468.1,478.6 468.2,478.6 469,478.6 469,478.5 469.1,478.5 469.1,478.4 469.6,478.4 
		469.6,478.5 470.3,478.5 470.3,478.6 470.6,478.6 470.6,478.5 470.9,478.5 470.9,478.6 471,478.6 471,478.7 471.3,478.7 
		471.3,478.6 470.6,477.9 466.9,474.8 464.2,470.5 463.5,469 463,467.2 462.9,464.5 463.2,462.7 463.7,461 465.7,457.3 467,454 
		469.1,449.1 465.9,445.4 464.3,443.4 463.4,441.9 461.5,438 457,432 456.2,430.4 455.9,429.5 455.4,426.5 455.2,422.5 455.3,403.1 
		455.5,400.1 455.9,397.2 456.5,395.5 458.2,391.8 458.7,390 459.4,386.5 460,384.8 462.2,380.3 463.6,377 466.1,372.6 468.6,366.7 
		468.9,365.2 468.8,364.4 468.4,362.9 466.9,359.3 466.1,357.8 465.1,356.4 463.9,355.3 462.5,354.5 460.9,353.9 459.2,353.6 
		459.2,346.9 459.4,345 459.7,343.2 460.2,341.5 462.1,337.8 463.1,335.4 464,333.9 465.1,332.7 466.3,331.6 467.8,330.7 
		470.1,329.7 474.4,327.3 477.6,325.9 481.9,323.4 485,322 488.6,320.1 490.3,319.5 492,319.2 496,319.1 497.6,317.3 499.1,315.4 
		501.6,310.8 505.6,305.6 506.6,304.1 507.3,302.3 507.7,300.4 507.9,298.4 508,295.4 508,291.4 507.8,288.4 507.5,286.5 507,284.6 
		506.6,283.7 505.6,282.2 502.1,277.8 501.1,276.2 499.6,273 497.7,269.3 497.1,267.7 496.7,264.9 496.6,260.2 496.8,256.3 
		497.5,251.4 494.5,246.9 493.7,245.4 493.4,244.4 492.9,241.5 492.8,236.5 493,233.5 493.7,230.6 494.9,228.3 498.8,222.3 
		501,215.1 502.1,212 502.7,209.4 505.7,205.9 511.4,199.7 513.2,197.6 514.7,195.3 516.7,191.3 520.7,186.2 521.7,184.6 
		522.1,183.7 522.4,182.8 522.8,180.9 523,178 	"/>
	<polygon class="st0" points="462.8,490.4 462.7,490.4 462.7,490.3 462.5,490.3 462.5,490.3 462.3,490.3 462.3,490.2 462,490.2 
		462,490.3 461.9,490.3 461.9,490.3 461.8,490.3 461.8,490.5 461.8,490.5 461.8,490.9 461.7,490.9 461.7,491.2 461.8,491.2 
		461.8,491.3 461.9,491.3 461.9,491.4 462.3,491.4 462.3,491.3 462.5,491.3 462.5,491.2 462.5,491.2 462.5,491.1 462.7,491.1 
		462.7,491 462.7,491 462.7,490.9 462.8,490.9 462.8,490.7 462.9,490.7 462.9,490.6 462.8,490.6 	"/>
	<polygon class="st0" points="458.5,491.6 458.4,491.6 458.4,491.5 458.2,491.5 458.2,491.5 458.1,491.5 458.1,491.4 458,491.4 
		458,491.3 457.9,491.3 457.9,491.2 457.6,491.2 457.6,491.3 457.4,491.3 457.4,491.5 457.3,491.5 457.3,491.6 457.2,491.6 
		457.2,491.7 456.5,491.7 456.5,491.8 456.5,491.8 456.5,491.9 456.2,491.9 456.2,492 456.2,492 456.2,492.1 456,492.1 456,492.2 
		456,492.2 456,492.3 455.9,492.3 455.9,492.5 456,492.5 456,492.7 456,492.7 456,492.7 456.2,492.7 456.2,492.8 456.4,492.8 
		456.4,492.9 456.5,492.9 456.5,493 456.5,493 456.5,493.2 456.8,493.2 456.8,493 457.1,493 457.1,492.9 457.4,492.9 457.4,493 
		457.5,493 457.5,493.4 457.4,493.4 457.4,493.5 457.3,493.5 457.3,493.7 457.4,493.7 457.4,493.8 457.6,493.8 457.6,493.7 
		457.7,493.7 457.7,493.6 457.8,493.6 457.8,493.5 458,493.5 458,493.4 458.1,493.4 458.1,493.3 458.3,493.3 458.3,493.2 
		458.4,493.2 458.4,493.1 458.5,493.1 458.5,492.7 458.4,492.7 458.4,492.2 458.5,492.2 458.5,492 458.5,492 458.5,491.8 
		458.5,491.8 	"/>
</g>
</svg>
