<?xml version="1.0" encoding="utf-8"?>
<!-- Generator: Adobe Illustrator 24.2.3, SVG Export Plug-In . SVG Version: 6.00 Build 0)  -->
<svg version="1.1" id="Layer_1" xmlns="http://www.w3.org/2000/svg" xmlns:xlink="http://www.w3.org/1999/xlink" x="0px" y="0px"
	 viewBox="0 0 800 533" style="enable-background:new 0 0 800 533;" xml:space="preserve">
<style type="text/css">
	.st0{fill:#F2933D;stroke:#000000;stroke-width:0.4;stroke-miterlimit:9;}
</style>
<polygon class="st0" points="671.9,219 671.4,217.4 670.5,216 669.4,214.9 668.1,214.1 667.3,213.9 665.7,213.6 661.8,213.1 
	660.4,212.7 659.3,212 658.9,211.5 658,209.9 655.6,209.4 654.1,208.8 650.7,207 647.8,205.7 646.4,204.7 645,203.6 643.2,201.7 
	642.1,200.3 641.2,198.8 639.3,195.1 635.7,190.2 634.8,188.8 634.4,188 634,186.3 633.9,183.8 634.4,181.3 636.1,177.9 
	636.6,176.3 636.9,173.8 636.7,171.3 636.2,169.7 634.5,166.3 633.2,163.2 631.4,159.7 629.7,156.1 628.3,154.3 627.1,153.3 
	625.5,152.6 624.7,152.4 622.9,152.1 621,152 606.8,152.2 572.9,152.1 569.3,146.8 568.2,144.7 567.9,143.9 567.7,142.2 
	567.8,139.6 568.2,138 569.8,134.5 570.3,133 570.8,130.4 571.2,126.1 571.8,123.7 572.4,122.2 573.8,119.4 575.4,115.6 
	577.8,111.2 575,109.9 572.6,109.2 569,108.9 561.7,108.8 560,108.7 558.2,108.4 556.7,107.8 553.3,106.1 547,104.4 543.6,102.7 
	542.1,102.1 539.6,101.7 537.1,101.6 534.6,101.9 532.3,102.7 528.9,104.5 526,105.9 522,108.2 519,109.5 515.7,111.4 514.2,112 
	510.3,113.3 508,114.2 503.8,115.6 502.1,115.8 497.1,116.3 495.4,116.6 493.9,117.1 490.5,118.7 489,119.2 485.8,119.8 
	484.2,120.4 483.4,120.7 482,121.7 480.7,122.9 478.3,125.6 476.8,127.8 475.1,131.2 474.2,131.8 473.8,132.2 472.4,134.6 
	471.4,135.9 469.8,137.8 467.3,140.4 465.4,142.1 464.1,143.2 462.7,144.1 461.4,144.6 459.4,147 458.2,148 453.6,150.6 
	451.3,151.5 449.5,151.9 445,152.3 443.2,152.7 441.6,153.2 438.9,154.5 437.3,155 435.6,155.4 431,155.9 429.3,156.2 427.7,156.8 
	424.3,158.4 422.7,158.8 419.3,159.2 412.2,159.5 408.9,159.2 405.4,159.1 401.9,159.2 399.4,159.4 397,160 393.6,161.7 
	392.1,162.3 390.5,162.6 388.8,162.8 386.2,162.9 383.7,162.8 381.1,162.5 379.5,162 375.4,160 373.9,159.6 369.9,158.7 
	368.4,158.1 365,156.2 362.1,154.9 358.1,152.6 355.1,151.3 351.1,149 347.5,147.3 344.8,145.8 342,144.4 340.5,143.6 339.1,142.5 
	335.8,139.7 333.7,138.2 330.8,136.9 327.4,134.9 324.6,133.5 323.1,132.7 321.7,131.7 317.7,128.3 316.3,127.4 313.4,126 
	310.7,124.5 309.3,123.8 307.7,123.4 306.1,123.1 306.1,119.5 301.9,119.2 299.5,118.7 298.1,118 295.4,116.5 292.4,115.2 
	288.4,113.1 286.8,112.6 282.8,111.7 281.4,111.1 278,109.3 275.1,108 271,105.8 268.6,105.1 262.7,103.9 260.5,104.5 255.1,105.6 
	253.4,106.2 250.1,107.8 247.3,108.4 243.4,108.6 238.5,108.7 231.6,108.5 226.7,108.2 225.8,116.2 225.4,118.2 224.8,120 
	223.7,122.5 223.2,124.3 222.5,129.6 222.1,131.3 221.8,132 221.4,132.8 220.3,133.8 216.9,136 215.2,136.8 212.5,137.3 
	209.6,137.5 179,137.4 175.1,137.3 173.2,137.1 171.4,136.8 169.6,136.1 166.3,134.6 164.6,134.2 161.9,133.8 155.4,133.4 
	151,132.8 148.7,134.5 146.9,136.1 145.2,137.9 143.7,139.8 143.2,140.5 142.6,141.8 140.7,147.7 136.7,154.2 136,155.7 
	135.5,157.3 134.8,160.6 134.3,162.1 132.6,165.6 132.1,167.1 131.7,169.7 131.8,171.4 132,172.2 132.6,173.8 133.1,174.4 
	134.2,175.6 135.5,176.4 136.3,176.7 138,177.1 140.5,177.1 143,176.9 145.4,176.3 148.8,174.5 150.4,174 153,173.5 158.4,173.2 
	161.1,172.8 162.8,172.4 165.4,171.1 166.8,170.5 168.4,170.3 170,170.5 170.8,170.8 172.2,171.7 173.5,172.8 174.6,174 
	175.4,175.4 175.7,176.2 175.8,177 175.6,178.5 175,179.7 173.3,182.8 172.3,183.9 168.4,186.1 166.3,187.1 164.6,187.5 
	161.9,187.7 156.5,187.7 154.7,187.9 153,188.4 151.7,189.3 150.6,190.4 150.2,191.1 149.5,192.6 149.2,195.1 149.1,198.6 
	146.8,199.1 145.4,199.8 144.2,200.7 143.2,201.9 142.4,203.2 141.1,206.1 139.6,208.9 138.3,211.9 137.5,213.4 136.5,214.8 
	133.8,218.2 132.8,219.7 132.4,220.5 132.2,221.3 131.8,223 131.6,226.5 131.7,231 132.2,236.5 131.9,239.4 131.5,245.1 
	131.2,246.9 130.5,249.4 128.9,252.9 128.3,255.6 128.1,258.3 128,261.1 128.2,266.7 128.4,268.6 128.9,270.3 130.8,274.6 
	132.4,281.1 134.2,285.4 134.8,288.1 135.3,292.8 135.6,294.6 136.1,296.2 137.5,299.1 138,300.6 139.2,305.5 138.7,310.4 
	138.5,315.6 138.5,366.8 138.3,371.9 137.7,374.8 134.3,382.1 133.3,383.7 129.4,389.5 134.4,392.2 138.1,393.8 141.4,395.7 
	142.1,396 143.8,396.4 146.4,396.7 149,396.8 164.3,396.7 166.9,396.9 168.6,397.2 170.2,397.8 173.5,399.6 176.5,400.9 
	180.5,403.3 183.4,404.6 187.4,406.9 190.4,408.2 192.6,409.7 194.6,411.6 197.8,414.9 199.5,417.1 200.4,418.7 200.8,419.4 
	203.5,426.2 205.4,431.4 210.4,426.3 212.9,424.3 214.5,423.3 215.4,422.9 217.2,422.4 219.1,422.1 222,422 221.8,418.5 
	221.4,415.9 220.9,414.4 219.3,410.8 218.8,409.2 217.9,405.2 217.3,403.7 216.1,400.9 215.7,399.4 215.7,397.8 215.9,397 
	216.4,395.5 217.8,392.8 219.1,389.8 220.1,388.4 223.3,384.2 224.2,382.7 224.8,381.2 225.6,378.3 226.2,377 226.7,376.4 
	227.3,375.9 228.8,375.4 230.4,375.2 236.5,374.9 239.1,374.4 240.6,373.8 243.3,372.3 246.2,371 249.6,369.1 253.2,367.5 
	254.6,366.7 258.3,364.3 259.3,363.4 260.1,362.1 261.3,357.5 262.2,355.4 260.8,354.7 259.2,354.2 256.5,353.8 253.8,353.6 
	244.3,353.6 242.5,353.4 240.7,353.1 239,352.4 237.6,351.4 231.2,346.2 232.9,343 235,339.5 236.6,335.8 237.5,334.4 238.4,333.1 
	239.5,332 240.7,330.9 242.7,329.5 244.1,328.9 246.5,328.4 249.1,327.8 250.4,327.3 253.8,325.4 256.7,324.2 260.7,321.8 
	263.7,320.6 267.7,318.3 270.1,317.2 271.4,316.5 272.7,315.5 274,314.4 280.7,307.6 282.5,305.8 284.5,304.3 285.8,303.6 
	288.1,302.5 290.1,301.1 292.6,298.8 298.1,293.1 299.9,291.4 301.9,289.9 303.3,289.3 308.3,288.1 309.7,287.6 313.1,286 
	314.9,285.5 317.7,285.3 325.4,285.1 327.2,285 329.1,284.6 330.7,284.1 333.4,282.8 335,282.2 336.7,281.9 341.2,281.3 343,281 
	344.5,280.4 348,278.8 348.8,278.5 350.6,278.2 352.5,278.1 354.3,278.1 357,278.6 358.5,279.1 361.9,280.8 364.3,281.3 366,281.4 
	367.7,281.3 370.5,280.9 380.4,282.1 382.2,282.5 385.5,284.1 387.2,284.7 390.1,285.2 394,285.4 400,285.4 403.9,285 406.6,284.3 
	410.7,282.3 412.4,281.8 415.1,281.5 417.6,281.8 419.1,282.4 419.7,283 420.2,283.7 420.6,284.5 420.8,286.2 420.9,290.7 
	421,292.4 421.5,294.1 422,294.8 422.7,295.4 423.4,295.8 425.1,296.2 427.8,296.4 433.6,296.2 438.4,295.6 441.2,293 443.3,290.6 
	444.6,288.6 445.6,286.4 446.3,284.9 447.3,283.5 448.4,282.2 450.7,279.6 454.3,275.9 456.2,274.1 458.1,272.4 459.5,271.5 
	462.4,270.2 465.1,268.7 466.5,268.1 468.1,267.6 471.3,267 472.9,266.5 476.3,264.8 477.8,264.2 484.9,262.6 490.3,264.5 
	494.4,266.7 497.3,268 501.4,270.2 508.2,272.3 514.7,270.2 518.8,268.2 525.1,266.5 529.3,264.6 535.6,262.9 539.7,261 
	541.5,260.5 544.3,260.2 555,260.1 560.8,260.5 563.5,261.1 566.8,262.6 568.5,263.2 571.4,263.7 574.3,263.9 628.4,263.9 
	633.4,263.7 637.4,263.3 642.9,264.4 644.4,265 647.8,266.7 652.5,268.2 655.3,269.3 654.6,264.7 654.4,260.9 654.4,258 
	654.6,256.1 655.2,253.4 655.8,251.9 657.2,249.2 658.5,246.1 660.8,242 662.1,239 663.1,237.5 666.4,233.4 667.8,231.2 
	669.2,228.2 670.8,225.5 671.4,224.1 671.9,222.4 672,220.7 "/>
</svg>
