<?xml version="1.0" encoding="utf-8"?>
<!-- Generator: Adobe Illustrator 24.2.3, SVG Export Plug-In . SVG Version: 6.00 Build 0)  -->
<svg version="1.1" id="Layer_1" xmlns="http://www.w3.org/2000/svg" xmlns:xlink="http://www.w3.org/1999/xlink" x="0px" y="0px"
	 viewBox="0 0 800 533" style="enable-background:new 0 0 800 533;" xml:space="preserve">
<style type="text/css">
	.st0{fill:#F2933D;stroke:#000000;stroke-width:0.4;stroke-miterlimit:9;}
</style>
<polygon class="st0" points="624.6,129.1 624.1,126.8 623.4,125.4 620.3,120 618.5,114.8 616.6,111.4 615.5,108.8 614.5,107.2 
	611.9,104 611.2,102.9 609.4,99.3 608.2,97.7 604.1,93.1 602.8,91.5 602.2,90.4 601,87.9 600.4,86.7 599.1,85.1 595.9,81.6 
	594.6,80 593.5,78.4 592.4,75.9 591.6,74.8 590.3,73.5 588.8,72.4 587.7,70.2 586.6,66.9 584.9,63.3 584.5,62 584,59.3 583.6,57.9 
	581.9,54.4 580.8,51.9 579.1,48.4 578.8,47 578.4,44.3 578.5,37.7 578.4,32 576.1,33.1 573,34.3 569.6,36 567.2,36.5 564.8,36.7 
	562.3,36.7 537.9,36.6 535.8,36.6 533.7,36.9 531.7,37.5 528.9,38.8 525,39.8 523.7,40.3 521.8,41.4 517,45.4 515.5,48.2 515,49.3 
	513.4,53.8 513,55.8 512.3,57.1 511.2,60.3 509.8,63.2 509.3,64.5 509,66.8 508.7,72.3 508.4,74.5 508,75.9 506.9,78.2 506.4,79.5 
	505.3,84.2 503.7,87.8 503.3,90.1 503,93.5 502.4,96.2 501,99.1 500.6,100.5 500.4,101.2 500.2,103.5 500,108.2 499.7,110.5 
	499.3,111.9 498,114.8 496.9,118.6 496.3,119.7 495.9,120.1 492.3,122.4 490.5,123.2 487.2,123.9 485.9,124.3 483.7,125.3 
	482.6,125.8 481.3,125.9 480.6,125.8 480,125.7 478.7,125.1 477.6,124.2 474.9,121.9 473.8,121.1 471.3,119.9 468,118 463.4,116.5 
	459.3,115 458,114.6 455.9,114.4 452.3,114.3 448.7,114.4 446.6,114.6 445.3,115.1 444.6,115.4 443.4,116.2 440.7,118.5 
	439.6,119.4 438.4,120.1 436.6,121 435.4,121.8 432,124.6 430.9,125.4 427.3,127.4 426.1,128.2 423.3,130.6 422.2,131.5 
	421.6,131.8 419.1,132.9 416.9,134.2 415.7,134.7 414.4,135.1 411.1,135.8 409.9,136.3 408.8,137 404.2,140 402.1,138.9 
	398.9,137.7 396.6,136.6 395.5,136.1 393.5,135.8 391.5,135.9 390.3,133 389.3,129.6 387.8,126.7 387.4,125.4 387.1,123.9 
	387,122.3 386.9,120 387,117.6 387.4,115.3 387.9,114 389.4,111.1 390.4,108.6 392.3,105.2 393.4,102.6 395.3,99.2 396.4,96.7 
	397.6,94.5 398.1,93.3 398.2,92.6 398.3,91.2 398,89.9 397.4,88.7 395.9,86.2 395.1,85.3 394.4,84.9 393,84.5 391.5,84.3 
	389.1,84.2 364.8,84.5 362.3,84.4 359.9,84.1 358.4,83.7 357.6,83.4 355,82 352.5,80.9 349.2,78.9 346.7,77.8 345.1,76.9 
	343.1,78.8 341.6,80.1 340.5,80.8 338.1,81.9 336.5,83.1 334.9,84.4 331.5,87.8 330.5,88.6 329.4,89.4 325.9,91.3 324.9,92.1 
	321.8,94.7 320.7,95.4 319.7,96 317.7,96.9 314.4,98.8 312.4,99.6 311.4,100.2 310.3,101 306.8,104 305.7,104.7 303.7,105.6 
	302.7,106.2 301.6,107 300.1,108.3 298.6,109.6 297.5,110.4 296.4,111 294.5,111.9 293.5,112.6 289.9,115.6 288.3,116.7 
	285.8,117.8 282.5,119.7 280,120.8 276.7,122.7 274.2,123.8 270.9,125.7 267.8,127 263.7,129.3 262,130.1 259.3,131.7 256.8,132.8 
	253.5,134.7 251,135.8 248.2,137.3 247,137.8 243.6,138.5 242.3,138.9 239,140.6 236.5,141.7 233.2,143.7 230.7,144.7 227.9,146.3 
	226.7,146.7 224.7,147.2 225.3,149.9 227.1,153.4 228.1,155.9 229.6,158.8 230.2,160.9 230.4,163.2 230.6,167.9 230.8,169.4 
	231.4,171.5 232.7,174.4 233.1,176.7 233.3,179.1 233.3,186.4 233.5,189.6 234,191.9 235.2,194.8 235.8,196.9 236,199.2 
	236.1,203.8 236.5,206 237.1,207.3 237.5,207.9 238.4,208.8 239.5,209.4 240.1,209.7 242,210.1 242,213.7 242.3,215.1 242.5,215.8 
	242.8,216.4 243.6,217.4 244.5,218.3 245.1,218.7 250.3,221.3 251.6,221.7 253,222 257.6,222.5 259,222.9 261.8,224.1 263.2,224.6 
	264.8,224.9 269.3,225.5 274.5,225 276.7,225 278,225.2 279.4,225.6 280.5,226.3 281.4,227.2 282.1,228.4 282.5,229.8 282.6,231.2 
	282.4,232.6 282.1,234 281.5,235.2 280.3,237.4 278.9,240.5 276.3,244.9 275.9,245.3 275,246.1 271.2,248.2 270,248.7 266.7,249.4 
	264.8,250 262,251.5 259.5,252.6 256.1,254.5 254.3,255.3 253.2,256 252.1,256.7 248.5,259.7 247.4,260.4 245,261.6 244,262.3 
	243,263.2 242.1,264.3 240.2,267 238.6,267.8 235.8,269.5 234,270.3 232.8,271 231.7,271.9 228.3,274.7 227.1,275.5 224.7,276.6 
	221.9,278.1 220.6,278.6 219.1,278.9 216,279.1 207.2,279.1 203.2,279 200.8,278.8 198.6,278.3 195.8,276.9 194.5,276.5 
	192.3,276.1 186.9,275.6 183.7,274.9 181.7,278.6 180.4,281.7 179.2,284 178.7,285.2 178.2,287.3 177.9,290.9 177.5,293 
	177.1,294.2 175.7,297.1 175.4,298.5 175.3,300.6 175.5,302 175.7,302.7 176.6,304.5 179.7,308.9 207.8,308.9 219.7,308.8 
	221.2,308.9 222.7,309.1 223.4,309.3 224.7,309.9 225.7,310.7 226.9,312.2 228.3,315.2 229.8,318.1 230.8,320.7 232.3,323.5 
	232.7,324.9 232.9,327 232.6,329 232.2,330.3 230.8,333.2 230.4,335.2 230.4,337.3 230.8,338.7 231.1,339.4 231.8,340.6 
	234.9,344.6 236.4,347.7 237.2,349 238.1,350.1 239.6,351.7 240.7,352.6 241.9,353.4 244.4,354.6 247.2,356 248.4,356.5 
	250.4,356.9 251.1,358.3 251.5,358.7 252.4,359.3 253.6,359.6 256.8,360 258.1,360.2 258.8,360.5 259.9,361.1 260.8,362 
	261.5,363.2 261.9,364.5 262,366 261.9,367.4 261.6,368.8 261,370 259.7,372.2 258.6,374.7 257.4,376.5 254.6,379.9 253.8,381.1 
	252.7,383.7 250.8,387.1 249.7,389.6 248.6,391.9 248.1,393.1 247.6,395.4 247.4,397 247.4,399.4 247.6,402.6 248.2,406.4 
	248.7,407.1 249.2,407.4 252.9,408.6 256.3,410.3 256.9,410.5 258.3,410.7 260.4,410.6 261.1,410.5 262.3,410.1 264.5,408.9 
	265.8,408.4 269.1,407.7 270.4,407.2 273.7,405.4 276.2,404.4 279.6,402.6 280.9,402.2 284.2,401.4 285.4,401 288.3,399.6 
	290.9,398.9 292.8,397.3 293.8,396.8 294.4,396.7 294.9,396.7 295.5,396.9 295.9,397.2 296.3,397.6 296.5,398 296.7,398.9 
	299.6,399 300.9,399.1 302.3,399.5 302.9,399.8 304,400.5 305.5,401.9 306.8,403.5 307.8,405.2 308.6,407.1 309.2,408.3 
	310.3,409.9 311.7,411.4 312.7,412.3 313.7,413.1 314.9,413.7 316.7,414.6 317.8,415.3 322.4,419.2 326.2,421.5 326.7,422.1 
	327.2,422.4 327.7,422.6 328.9,422.8 331.7,423 339.9,422.8 342.9,422.9 345,423.3 345.7,423.5 346.8,424.2 347.7,425.2 
	348.4,426.2 349.5,428.7 351,431.5 352,434 352.7,435.3 353.5,436.5 355.7,439.4 356.6,440.6 358.1,443.7 358.8,444.9 363.7,450.9 
	368.8,447.9 370.8,447.2 372.3,447 376.8,446.8 379,446.6 381,446 383.9,444.7 386.1,444.2 388.3,444 396,443.6 397.9,444.4 
	400.1,445.7 401.3,446.3 402.6,446.7 405.9,447.4 407.1,448 408.2,448.7 411.2,451.3 412.3,452 413.4,452.7 415.3,453.5 
	418.6,455.4 421.1,456.5 422.7,457.6 424.6,459.5 425.9,461.1 426.5,462.2 427.3,464.1 428,465.3 428.8,466.5 429.7,467.6 
	432.1,470.3 439.8,478.2 442.3,480.9 443.1,482 443.8,483.2 444.6,485.1 445.3,486.3 446,487.4 446.9,488.4 448.3,489.9 
	449.3,490.7 450.4,491.5 453.4,493 458,496.7 459.2,497.3 460.5,497.7 461.8,497.9 465.3,498.2 466.6,498.5 467.9,498.9 
	470.7,500.3 472.7,500.8 474.8,501 478.4,501 481.3,500.9 483.4,500.6 488,498.5 490.6,497.4 493.9,495.5 496.4,494.5 499.1,492.9 
	500.4,492.4 502.4,492 505.2,491.9 506.6,491.7 507.9,491.3 510.8,490 512,489.5 513.4,489.3 517.5,488.8 518.9,488.6 520.1,488.1 
	523,486.8 524.3,486.4 526.9,485.9 528.2,485.4 528.8,485.1 530,484.3 531.1,483.3 536.4,477.9 538.6,475.9 540.3,474.7 
	542.7,473.5 543.8,472.8 545.4,471.5 548.8,468.1 550.3,466.8 551.4,466 553,465.2 555.7,461.2 556.7,459.5 556.9,458.9 
	557.3,457.5 557.4,455.4 557,453.3 555.4,449.8 554.3,446.1 553.6,445.2 553.2,444.8 551.7,444.1 552,442.8 552.4,441.4 
	552.7,440.8 553.4,439.6 554.3,438.4 555.8,436.8 558.4,434.3 559.5,433.4 560.7,432.7 563.1,431.6 566.5,429.7 568.9,428.6 
	572.2,426.7 574.7,425.6 577.5,424.1 578.8,423.6 580.1,423.4 585,422.8 586.3,422.5 589.1,421.1 590.4,420.7 591.7,420.4 
	595.9,420 597.2,419.7 598.5,419.3 601.3,417.9 602.6,417.5 604,417.2 605.5,416.6 606.4,415.8 608.7,412.2 609.3,411.1 
	610.4,408.5 612.2,405.1 613.3,402.5 614.7,399.6 615.4,397.5 615.6,396 615.7,393.6 615.7,390.4 615.6,388 615.1,385.2 
	614.7,383.8 613.4,381 612.9,378.7 612.7,375.5 612.7,367.2 612.6,362.8 612.7,360.3 612.7,358.1 612.5,355.9 612.2,354.5 
	609.4,348.5 608.7,347.5 607.3,346.1 606.2,345.4 604.4,344.6 602.1,343.4 601,342.9 600.3,342.7 598.2,342.4 592.6,342.2 
	591.2,342 589.8,341.6 588.7,341.1 586.5,339.9 584,338.8 580.6,337 579.3,336.6 576.7,336.1 575.3,335.7 574.2,335.1 571.9,333.9 
	570.2,333.1 569.6,332.8 568.5,332 567.3,330.6 566.6,329.4 564.2,323.5 563.9,322.1 563.8,320.7 563.9,319.3 564.1,318.6 
	564.4,318 565.1,317 566.1,316.1 566.7,315.8 568.1,315.3 570.3,315.1 573.3,315.1 577.1,315.3 578.6,315.5 580,315.8 581.3,316.2 
	584.1,317.7 585.4,318.1 586.8,318.3 588.9,318.3 590.3,318.3 591.7,318 592.9,317.5 595.7,316 598.1,314.8 599.3,314 602.6,311.2 
	603.8,310.3 605,309.6 607.4,308.5 610.1,306.9 612.6,305.8 614.4,304.5 617.1,302.2 618.3,301.3 619.5,300.7 621.9,299.6 
	623.8,298.4 621,291.6 619.9,289.9 617.4,286.8 616.7,285.7 616,284.5 615.3,282.6 613.4,279.2 612.4,276.6 611.7,275.5 
	610.8,274.3 609.4,272.7 606.9,270.1 602.9,266 600.9,264 599.8,263.1 598.8,262.3 597.6,261.7 595.8,260.8 594.1,259.6 592,257.7 
	587,252.5 585.4,251.1 584.3,250.3 583.7,250 582.3,249.6 581,249.4 577.5,249.1 575.5,248.7 572.7,247.3 571.4,246.9 569.4,246.5 
	565.9,246.2 563.9,245.7 560.5,244.1 559.2,243.8 556.5,243.2 555.3,242.8 554.2,242.1 553.3,241.2 552.5,240.1 551.4,237.7 
	550.8,236.6 547.9,232.8 546.8,231.2 545.7,228.6 543.8,225.2 542.8,222.7 541.6,220.4 541.2,219.2 541,217.9 541.2,216.5 
	541.6,215.3 542.7,213.1 543.1,211.8 543.4,210.4 544.8,210.1 546.1,209.7 548.9,208.3 550.1,207.9 553.5,207.1 554.7,206.7 
	557.6,205.3 558.8,204.9 560.2,204.7 565,204.1 566.4,203.8 567,203.5 569.8,202 572.2,200.9 575.6,199 578,197.9 581.3,196 
	583.8,194.9 587.2,193 589.6,191.9 593,190 595.4,188.9 598.8,187 601.2,186 604.6,184.1 607.1,183 609.8,181.4 612.8,180 
	613.8,179.3 615.2,177.8 615.8,176.7 616.6,174.8 618.1,171.9 618.5,170.6 618.6,169.2 618.6,167.7 618.4,165.5 619.4,160.5 
	621.1,156.3 621.5,154.7 621.8,151.4 621.8,144.6 622,141.2 622.6,138.9 623.8,136 624.3,134.6 624.6,133.1 624.7,131.5 "/>
</svg>
