<?xml version="1.0" encoding="utf-8"?>
<!-- Generator: Adobe Illustrator 24.2.3, SVG Export Plug-In . SVG Version: 6.00 Build 0)  -->
<svg version="1.1" id="Layer_1" xmlns="http://www.w3.org/2000/svg" xmlns:xlink="http://www.w3.org/1999/xlink" x="0px" y="0px"
	 viewBox="0 0 800 533" style="enable-background:new 0 0 800 533;" xml:space="preserve">
<style type="text/css">
	.st0{fill:#F2933D;stroke:#000000;stroke-width:0.4;stroke-miterlimit:9;}
</style>
<polygon class="st0" points="693.5,360.6 693.2,357 692.8,354.7 692.1,352.7 690.1,348.3 689.4,344.9 689.1,339 689.2,319.7 
	689,316.2 688.3,312.8 687.5,311 685.7,307.5 684.1,303.7 681.3,298.5 679.6,294.7 677.8,292 673.1,285.8 670.8,281.1 669.6,279.3 
	665.4,273.9 664.3,272.2 663.3,270.4 662.1,267.5 659.9,263.1 659.2,261.2 658.2,256 657.6,254 655,248.7 653.5,244.9 650.8,239.6 
	650.2,237.6 649.4,233.4 648.8,231.4 646.8,227 646.1,225 645.8,222.9 645.5,219.6 645.6,210.3 646.4,208.6 647.6,206.9 
	649.6,204.4 654.8,198.9 655.9,197.3 656.8,195.6 656.9,194.6 656.9,193.8 656.7,192.9 655.3,189.7 653.6,184.9 652.4,182.7 
	651.9,179.9 650.9,176.3 650,171.4 649.3,169.7 648.7,169 647.9,168.4 647.1,168 645.2,167.6 643.3,167.4 637,167.4 633.9,166.9 
	632.9,166.6 631,165.6 628.5,163.6 625.4,160.5 622.5,157.2 620.7,154.5 618.5,149.8 617.4,148 615.4,145.5 610.2,139.8 
	608.2,137.2 607.1,135.4 604.9,130.8 602.9,127.4 601.5,124.7 598.4,123.1 593.5,121.3 588.5,118.4 584.7,116.8 580.5,114.5 
	578.5,113.8 576.1,113.4 573.7,113.2 562.5,113.1 557.6,112.8 554.1,112 548.9,109.7 545.4,108.9 539.2,108.5 521.4,108.6 
	515.1,108.4 512.7,108.1 510.3,107.5 506.2,105.5 504,104.8 501.6,104.3 499.2,104.1 493,103.9 460.2,104 453.9,103.7 449.8,103 
	436.8,104 433.6,104.4 431.5,105 427.3,106.9 425.2,107.7 415.1,109.3 413,110 408.8,111.9 405.3,112.7 401.7,113 396.8,113 
	390.6,112.9 385.1,112.5 382.2,111.5 377.6,108.9 376.2,107.9 375.5,107.2 375,106.3 374.3,104.2 374.1,102 374.2,87.5 374,85.1 
	373.6,82.7 373.3,81.6 372.3,79.4 369.2,73.8 368,72.3 365.1,69.7 364.3,68.6 362.4,66.7 361.7,65.6 357.6,63.8 352.7,62.1 
	348.4,60 346.5,59.3 343.1,58.8 335.2,58.3 331.9,57.8 329.9,57.1 326.5,55.5 324.6,54.7 318.8,53.3 314,53.7 305.7,54.1 
	302.3,54.5 300.1,55 295.8,57 293.8,57.7 291.6,58.2 285.9,58.8 283.7,59.3 281.7,59.9 277.4,62 273.5,63 271.1,66.3 270.2,68 
	269.8,69 269.4,71.1 268.7,77.6 268.3,79.7 267.7,81.6 265.7,86.1 264.7,90.2 263.6,94.3 261.2,99.6 260.7,101.9 260.3,105.4 
	259.8,113.9 259.4,117.5 257.1,121.4 255.1,126.1 253.3,128.8 250.5,132.1 247.4,135.2 245,137.4 242.4,139.3 238.7,141 
	234.5,143.3 233.6,143.6 231.5,144.2 229.4,144.4 226.2,144.6 210.7,144.7 208.7,147.4 206.1,150.5 201.9,154.9 192.7,164.3 
	189.3,168 188.1,169.5 187.1,171.1 186.6,172.4 186.2,173.7 183.2,175.1 179.3,176.6 170,176.1 166.4,175.6 164.2,175 159,172.6 
	156.8,172 154.6,171.7 151.1,171.5 146.5,171.4 143.1,171.5 139.8,171.9 137.8,172.4 136.9,172.8 132.7,175.1 129.9,176.4 
	128.1,177.4 126.3,178.7 123.9,181 117.5,187.5 114.4,190.9 112.4,193.5 107.6,203.6 107.1,205.7 106.7,208.9 106.5,213.4 
	106.5,219 106.7,221.2 107,223.4 107.7,225.4 108.1,226.3 109.3,227.8 110.8,229.1 115,231.3 117.2,233.1 118.3,234.7 118.8,235.5 
	119.4,237.5 119.9,239.5 125.8,239.4 130.4,239 132.6,238.4 136.9,236.3 138.8,235.7 141.8,235.1 145,234.9 149.4,234.9 
	153.6,235.5 161.3,238.1 160,242 158.9,245.7 158.1,247.3 155.9,249.8 153.4,253.7 149.3,258.6 148,260.3 147.5,261.3 147.1,262.3 
	146.8,263.3 146.7,264.4 146.8,265.4 147,266.5 147.4,267.4 147.9,268.3 149,269.9 151,272.1 161.7,282.9 164.5,285.6 166,286.9 
	167.5,288 169.1,288.8 171.2,289.8 172.6,290.6 174.5,292.2 175.9,294.3 177.2,297.2 178,298.9 179.1,300.5 180.4,302.1 
	183.9,305.9 198.6,321 198.4,359.1 198.6,362.7 199,364.9 199.3,366 200.6,368.7 202.9,372.7 204,374.2 204.7,374.8 208.7,377.5 
	212.9,381.3 223.5,392.1 225.8,394.7 227.8,397.4 232.6,407.5 233.1,409.5 234.2,414.7 234.8,416.6 236.9,421.1 239,429 244.2,430 
	246.2,430.6 248,431.4 252.8,434.3 254.2,435.4 255.3,436.9 258.4,442.8 259.1,444.7 260.3,450.9 261.1,452.9 262.3,454.8 
	265.2,458.2 280.2,474 282.6,476.3 285.2,478.3 287.2,479.1 289.3,479.5 291.4,479.5 293.4,479.1 295.3,478.5 299.5,476.2 
	304.4,474.5 308.3,472.6 310.2,469.6 310.3,468.5 310.2,467.6 318.6,465.7 320.6,465.1 322.3,464.2 330.4,459.1 330.8,457.2 
	331.2,456.4 333.3,452.1 334.4,449.2 335.3,447.4 337.1,444.9 340,442 342.4,440.2 344.1,439.2 346.9,437.9 348.5,436.9 354,432.4 
	356.4,430.7 360.1,429 363.5,427.1 365.2,426.3 367.2,425.7 369.2,425.4 373.6,429.9 387.3,444.3 389.5,446.2 391.3,447.1 
	392.1,447.3 393.7,447.5 395.3,447.2 396.2,446.8 397.9,445.8 404.4,441 406.3,440.4 412.7,438.2 417.7,435.3 422.3,433.2 
	426.5,430.8 430.2,429.2 435.3,426.3 438,425.1 439.9,424.1 442.4,422.1 445.5,419.1 461.6,402.2 464.1,400.1 465.9,399.1 
	466.9,398.8 469,398.4 471.1,398.4 472.1,398.6 474.1,399.1 478.3,401.3 480.1,402.1 483.2,402.6 487.5,402.8 487.8,408.3 
	488.2,410.5 488.8,412.4 491,416.8 492.6,420.6 495,425 497,429.7 499.9,434.9 501.4,438.7 503.6,443.1 504.3,445 505.3,450.2 
	505.9,452.3 509.6,460.4 511.2,462.9 512.5,464.3 514.1,465.5 518.5,467.7 522.7,470.1 526.4,471.7 530.6,474.1 532.6,474.8 
	536,475.3 541.7,475.4 546.2,475 548.3,474.4 552.6,472.2 554.6,471.5 556.8,471.1 560.3,470.8 588.2,470.8 593.3,470.9 
	595.8,471.1 598.2,471.4 600.3,472.1 601.8,472.9 604.9,474.6 609.6,476.5 613,478.3 614.7,479.1 616.7,479.6 619.9,479.7 
	621.9,479.4 623.8,478.7 628,476.4 631.7,474.8 635.9,472.4 640.3,470.2 641.9,469 643.2,467.6 644.2,465.9 644.6,464.9 
	646.3,457.8 648.2,453.4 648.9,451.4 649.3,448.2 649.5,443.7 653.5,442.6 656.1,441.5 660.3,437.5 663.1,435.6 666.7,433.8 
	671.8,431 675.6,429.4 679.8,427.1 684.2,425 686.4,423.1 687.6,421.5 688.1,420.6 688.5,419.6 688.9,417.3 689.3,409.2 
	689.6,405.7 690.4,402.6 692.4,398.1 693,395.9 693.3,393.5 693.5,387.5 "/>
</svg>
