<?xml version="1.0" encoding="utf-8"?>
<!-- Generator: Adobe Illustrator 24.2.3, SVG Export Plug-In . SVG Version: 6.00 Build 0)  -->
<svg version="1.1" id="Layer_1" xmlns="http://www.w3.org/2000/svg" xmlns:xlink="http://www.w3.org/1999/xlink" x="0px" y="0px"
	 viewBox="0 0 800 533" style="enable-background:new 0 0 800 533;" xml:space="preserve">
<style type="text/css">
	.st0{fill:#F2933D;stroke:#000000;stroke-width:0.4;stroke-miterlimit:9;}
</style>
<polygon class="st0" points="685.6,98.5 684,96.2 681.4,93 675.6,86.8 670.7,81.8 667.6,79.1 665.4,77.6 664.2,77 661.8,76.2 
	656.9,75.1 654.5,74.4 649.2,71.8 646.9,71 640.7,69.6 638.3,68.9 633,66.3 630.7,65.5 628.1,65 620.4,64.2 616.7,63.3 614.5,62.3 
	610.4,60 605.9,57.9 600.7,55 599.6,54.5 597.1,53.7 594.6,53.4 590.6,53.3 586.7,53.7 584.2,54.4 582.1,55.5 578,57.8 573.4,59.9 
	567.3,63.6 562.7,65.6 557.5,68.5 555.2,69.4 551.4,70 546.1,70.2 540.7,70 535,69.3 535.3,91 535.3,101.5 535,104.4 534.6,107.3 
	533.2,111 528.9,119.8 527.5,121.8 524.9,124.2 522.8,125.5 519.5,127.1 513.1,130.5 510.8,131.3 506.2,132.5 502.6,131.9 
	499.6,131.7 496.7,131.8 493.8,132.2 491.1,133.1 484.9,136.1 476.4,138.7 471.6,137.5 466,136.9 457.5,136.8 451.9,137.4 
	449.3,138.1 444,140.7 441.6,141.5 437.5,142.2 427.7,142.7 423.6,143.4 421.2,144.2 417,146.2 414.7,147.1 412.2,147.6 
	403.2,148.7 400.8,149.3 395.4,151.8 393.1,152.6 390.6,153.1 381.6,154.1 378,155.2 372.8,158 369.4,159.5 367.1,160.8 
	363.8,163.5 356.6,170.4 353.4,173.2 351.1,174.7 346.7,176.9 343.3,179.3 341.2,181.2 339.3,183.2 337,186.4 335.9,188.6 
	333.9,193.2 329.9,200.4 328.6,202.2 326.8,203.6 319.9,208 315.1,210.5 307.3,209.3 304.8,208.7 303.7,208.2 302.6,207.6 
	300.8,206 299.3,204.1 298.7,203 297.8,200.6 296.2,193.2 293.9,187.6 293.1,185.2 292.7,182.4 291.9,175.1 291.4,172.2 
	290.6,169.7 288.2,164.1 287.6,161.6 287.3,158.9 287,153.5 286.3,149.3 285.5,147.1 284.2,145 282,142.2 280.3,140.6 279.3,139.9 
	278.4,139.3 277.3,139 276.2,138.8 275.1,139 274,139.4 273.1,140 271.3,141.4 265.3,147.6 262.5,150.2 259.6,152.3 255,154.5 
	253,155.8 250.1,158.3 242.8,165.4 240,167.8 238,169.1 234.3,170.8 232.4,171.9 230.5,173.4 224.8,178.2 222.8,179.6 221.7,180.1 
	219.7,180.9 213.8,182.4 210.9,186.6 209.3,188.6 206.8,191.5 200.6,198 198.2,200.9 196.8,203 196.2,204 194.6,207.8 193.6,209.8 
	192.2,211.8 190.7,213.8 187.2,217.5 183.5,221 180.6,223.2 176.6,225.8 173,231.1 169.9,235.1 164.6,240.7 148.3,257.4 
	145.7,260.2 143.3,263.2 142,265.3 140,270 136.6,276.4 133.8,284.5 132.7,288.7 127.8,295.6 126.1,298.8 125.3,301.3 124.3,306.4 
	123.6,308.9 121.1,314.4 120.3,316.8 119,323.2 118.2,325.7 116.5,328.9 111,337 114,341.1 115.5,342.9 117.2,344.3 119,345.4 
	124.5,349.1 126.4,350.7 129.2,353.2 135.6,359.6 138.4,362.1 141.4,364.2 145.9,366.3 147.9,367.7 150.8,370.1 158.1,377.2 
	160.9,379.6 162.9,381 166.5,382.7 168.4,383.8 170.4,385.3 175,389.3 176.9,390.8 179.1,392 180.1,392.3 182.2,392.7 185.5,392.7 
	190.3,391.8 192.2,392.8 193,390 194.7,388.6 198.2,393.8 217.5,398.9 220,400.2 233.6,407.3 233.6,407.3 233,401.7 232.9,399 
	233.1,396.3 233.9,393.8 235,391.6 236.6,389.7 241.5,385.2 244.2,383.2 249.5,380.3 251.6,378.7 256.8,374.3 258.9,372.7 
	261.2,371.5 264.7,370 269.8,367 275.3,364.4 277.2,363 278.9,361.3 280.3,359.3 283.1,353.6 284.6,351.4 288.8,346.1 290.2,343.8 
	290.8,342.6 291.6,340.1 292.9,333.7 293.8,331.3 296.3,325.9 297,323.4 297.5,320.8 301.3,317.6 303.3,316.3 307.9,314.2 
	313,311.1 316,309.6 351.7,309.5 356.1,309.7 360.5,310.4 363.2,311.3 372.5,316.3 373.6,317.1 375.5,319.1 377,321.4 377.9,323.3 
	382.4,331.3 384.8,337.1 387,341.4 388,343.7 388.8,347.5 389.5,355.6 390,358.2 390.7,360.6 393.1,366.1 393.8,368.6 394.7,373.6 
	395.6,376.1 396.1,377.1 397.6,379.1 399.4,380.7 400.3,381.4 404.8,383.5 411,386.9 415.7,388.6 420.2,390.5 426.5,394.1 
	432.6,398 437.2,400 443.5,403.4 445.9,404.1 448.4,404.6 448.4,410.2 454.9,410.4 457.5,410.8 458.7,411.3 461.1,412.6 
	463.2,414.2 466.1,417.2 467.8,419.3 469.2,421.7 471.1,426.4 474.2,433 474.9,435.5 476.1,441.9 476.9,444.3 479.7,449.7 
	481.2,453.2 482.4,455.5 483.9,457.7 488.1,463 489.6,465.3 490.6,467.8 491.4,471.5 491.4,471.5 491.7,472.6 493.9,479.7 
	498.4,474 503.2,469.7 512.7,463.3 519,459 527.7,455 539.6,448.4 540.2,447.9 546.6,443.3 553.4,440.7 559.8,440.1 560.7,440 
	563.4,438.6 566.4,437 566.9,436.8 572.3,434.9 574.8,434.6 586.8,436 595.5,435.1 603.8,430 616.7,424.6 621,422.9 634.4,418.3 
	637.5,417.3 644.9,413.1 655.4,405.4 662.1,401.7 667.7,399.8 669.8,399 674.3,398.4 674.4,396.7 674.4,396.7 675,384.6 
	674.9,362.6 675.2,354.6 675,349.1 674.4,345.2 673.4,342.8 672.1,340.7 667.5,334.8 666.1,332.8 664.9,330.6 663.3,327.2 
	661.9,324.9 660.3,322.8 654.7,316.7 633.3,294.8 630.6,291.7 629,289.5 627.7,287.1 627.3,285.9 626,279.5 625.3,277.1 
	622.8,271.6 622,269.2 621.4,265.2 621.1,258.8 620,254.7 617.6,249.2 616.8,246.7 614.9,233.8 614.1,231.3 611.8,225.8 
	611.1,223.1 610.6,217.4 610.2,204.1 609.5,197.8 611.4,193.4 614.4,187.9 615.5,184 616.1,177.9 616,165 619,163.8 619.8,163.2 
	620.6,162.4 623.1,158.6 624.7,156.6 631.9,148.6 634.5,145.5 636.6,142.2 638.6,137.5 642.1,131.1 644,126.4 645.4,124.2 
	647.8,121.1 652.3,116.1 657.9,110.3 661.8,106.8 663.9,105.3 666.3,104.3 668.9,103.8 671.5,103.5 675.5,103.5 680.8,103.8 
	684.5,104.2 689,105 "/>
</svg>
