<?xml version="1.0" encoding="utf-8"?>
<!-- Generator: Adobe Illustrator 24.2.3, SVG Export Plug-In . SVG Version: 6.00 Build 0)  -->
<svg version="1.1" id="Layer_1" xmlns="http://www.w3.org/2000/svg" xmlns:xlink="http://www.w3.org/1999/xlink" x="0px" y="0px"
	 viewBox="0 0 850 567" style="enable-background:new 0 0 850 567;" xml:space="preserve">
<style type="text/css">
	.st0{fill:#F2933D;stroke:#000000;stroke-width:0.4;stroke-miterlimit:9;}
</style>
<g>
	<polygon class="st0" points="636.5,36.6 636.5,36.4 636,36.4 636,36.6 635.6,36.6 635.6,36.4 635.5,36.4 635.5,36.3 635.4,36.3 
		635.4,36.2 635.3,36.2 635.3,36 634.8,36 634.8,35.8 634.7,35.8 634.7,35.6 634.6,35.6 634.6,35.5 634.7,35.5 634.7,35.2 
		634.7,35.1 634.4,35.1 634.4,35 634.3,35 634.3,34.8 633.9,34.8 633.9,35 633.4,35 633.4,34.8 633.3,34.8 633.3,34.7 633.1,34.7 
		633.1,34.6 632.9,34.6 632.9,34.4 632.2,34.4 632.2,34.3 631.8,34.3 631.8,34.2 631.6,34.2 631.6,34 631.3,34 631.3,34.2 
		631.1,34.2 631.1,34.3 630.9,34.3 630.9,34.4 630.7,34.4 630.7,34.6 630.5,34.6 630.5,34.7 630.4,34.7 630.4,34.8 630.2,34.8 
		630.2,35 630.1,35 630.1,35.1 629.9,35.1 629.9,35.2 629.8,35.2 629.8,35.4 629.6,35.4 629.6,35.6 629.5,35.6 629.5,35.8 
		629.3,35.8 629.3,35.9 629.1,35.9 629.1,36 629,36 629,36.2 628.8,36.2 628.8,36.3 628.7,36.3 628.7,36.4 628.4,36.4 628.4,36.6 
		628.3,36.6 628.3,36.7 628.2,36.7 628.2,36.8 628.1,36.8 628.1,37 627.9,37 627.9,37.1 627.8,37.1 627.8,37.2 627.7,37.2 
		627.7,37.4 627.5,37.4 627.5,37.5 627.4,37.5 627.4,37.6 627.2,37.6 627.2,37.8 627.1,37.8 627.1,37.9 626.9,37.9 626.9,38 
		626.8,38 626.8,38.2 626.7,38.2 626.7,38.3 626.7,38.3 626.6,38.3 626.6,38.5 626.5,38.5 626.5,38.6 626.4,38.6 626.4,38.7 
		626.3,38.7 626.3,38.9 626.2,38.9 626.2,39 626,39 626,39.1 625.9,39.1 625.9,39.3 625.7,39.3 625.7,39.4 625.6,39.4 625.6,39.5 
		625.4,39.5 625.4,39.7 625.2,39.7 625.2,39.8 625.1,39.8 625.1,39.9 624.9,39.9 624.9,40.1 624.7,40.1 624.7,40.2 624.6,40.2 
		624.6,40.3 624.5,40.3 624.5,40.5 624.3,40.5 624.3,40.6 624.1,40.6 624.1,40.5 623.8,40.5 623.8,40.7 623.7,40.7 623.7,41.1 
		623.5,41.1 623.5,41.3 623.4,41.3 623.4,41.4 623.3,41.4 623.3,41.5 623.1,41.5 623.1,41.7 622.9,41.7 622.9,41.8 622.7,41.8 
		622.7,41.9 622.5,41.9 622.5,42.1 622.4,42.1 622.4,42.2 622.2,42.2 622.2,42.3 622.1,42.3 622.1,42.5 622,42.5 622,42.6 
		621.9,42.6 621.9,42.7 621.7,42.7 621.7,42.9 621.6,42.9 621.6,43 621.3,43 621.3,43.2 621.1,43.2 621.1,43.3 620.8,43.3 
		620.8,43.4 620.7,43.4 620.7,43.6 620.4,43.6 620.4,43.7 620.2,43.7 620.2,44 620,44 620,44.1 619.7,44.1 619.7,44.2 619.6,44.2 
		619.6,44.4 619.4,44.4 619.4,44.5 619.3,44.5 619.3,44.6 619.2,44.6 619.2,44.8 618.9,44.8 618.9,44.9 618.7,44.9 618.7,45 
		618.5,45 618.5,45.2 618.3,45.2 618.3,45.3 618.1,45.3 618.1,45.4 617.8,45.4 617.8,45.6 617.6,45.6 617.6,45.7 617.4,45.7 
		617.4,45.8 617.1,45.8 617.1,46 616.8,46 616.8,46.1 616.7,46.1 616.7,46.2 616.3,46.2 616.3,46.4 616.2,46.4 616.2,46.5 
		615.8,46.5 615.8,46.6 615.7,46.6 615.7,46.8 615.5,46.8 615.5,46.9 615.2,46.9 615.2,47 615,47 615,47.2 614.9,47.2 614.9,47.4 
		614.6,47.4 614.6,47.6 614.5,47.6 614.5,47.7 613.7,47.7 613.7,47.9 612.5,47.9 612.5,48 612.3,48 612.3,48.1 612.2,48.1 
		612.2,48.3 612,48.3 612,48.4 611.5,48.4 611.5,48.5 611.2,48.5 611.2,48.4 610.6,48.4 610.6,48.5 610.3,48.5 610.3,48.7 
		609.9,48.7 609.9,48.8 609.7,48.8 609.7,48.9 609.4,48.9 609.4,49.1 609.2,49.1 609.2,49.2 608.9,49.2 608.9,49.3 608.9,49.3 
		608.2,49.3 608.2,49.5 607.9,49.5 607.9,49.6 607.8,49.6 607.8,49.7 607,49.7 607,49.9 605.9,49.9 605.7,49.9 605.7,49.9 605.7,50 
		605.6,50 605.6,50.1 605,50.1 604.6,50.1 604.6,50.2 604.6,50.3 604.5,50.3 604.1,50.3 604.1,50.4 604.1,50.4 604.1,50.4 
		603.8,50.4 603.8,50.5 603.8,50.5 603.6,50.5 602.7,50.5 602.7,50.7 601.7,50.7 601.7,50.8 600.9,50.8 600.9,50.9 600.2,50.9 
		600.2,50.8 599.9,50.8 599.9,50.7 599,50.7 599,50.8 598.9,50.8 598.9,50.9 598.7,50.9 598.7,51.1 598.5,51.1 598.5,51.2 
		598.3,51.2 598.3,51.3 598.1,51.3 598.1,51.5 597.9,51.5 597.9,51.6 597.7,51.6 597.7,51.7 597.6,51.7 597.6,51.9 597.4,51.9 
		597.4,52 597.3,52 597.3,52.1 597,52.1 597,52.3 596.6,52.3 596.6,52.4 596,52.4 596,52.1 595.8,52.1 595.8,52 595.5,52 
		595.5,52.1 595.4,52.1 595.4,52.4 595.3,52.4 595.3,52.6 595.2,52.6 595.2,52.7 595,52.7 595,52.8 594.8,52.8 594.8,53 594.7,53 
		594.7,53.1 594.5,53.1 594.5,53.2 594.3,53.2 594.3,53.4 594.1,53.4 594.1,53.5 593.9,53.5 593.9,53.6 593.7,53.6 593.7,53.8 
		593.6,53.8 593.5,53.8 593.5,53.9 593.3,53.9 593.3,54 592.8,54 592.8,54.2 592.3,54.2 592.3,54.3 591.9,54.3 591.9,54.4 
		591.5,54.4 591.5,54.6 589.5,54.6 589.5,54.7 589.2,54.7 589.2,54.8 587.9,54.8 587.9,55 587.1,55 587.1,55.1 586.7,55.1 
		586.7,55.2 586.3,55.2 586.3,55.4 585.9,55.4 585.9,55.5 585.6,55.5 585.6,55.4 585.4,55.4 585.4,55.5 584.7,55.5 584.7,55.6 
		584.2,55.6 584.2,55.8 583.7,55.8 583.7,55.9 583.3,55.9 583.3,56 582.8,56 582.8,56.2 582.4,56.2 582.4,56.3 581.9,56.3 
		581.9,56.4 580.8,56.4 580.8,56.6 579.9,56.6 579.9,56.7 576.5,56.7 576.5,56.6 575.8,56.6 575.8,56.7 575.2,56.7 575.2,56.4 
		574.6,56.4 574.6,56.3 574.4,56.3 574.4,56.2 574,56.2 574,56 573.9,56 573.9,55.8 573.8,55.8 573.8,55.6 573.7,55.6 573.7,55.5 
		573.5,55.5 573.5,55 573.6,55 573.6,54.8 574.6,54.8 574.6,54.7 574.7,54.7 574.7,54.4 573.3,54.4 573.3,54.3 572.7,54.3 
		572.7,54.4 572.4,54.4 572.3,54.4 572.3,54.3 572.1,54.3 572.1,54.2 571.9,54.2 571.9,54 571.5,54 571.5,53.9 571.3,53.9 
		571.3,53.8 570.5,53.8 570.5,53.9 570,53.9 570,54 569.8,54 569.8,54.2 569.6,54.2 569.6,54 569.2,54 569.2,54.2 569,54.2 
		569,54.3 568.6,54.3 568.6,54.4 568.2,54.4 568.2,54.6 567.8,54.6 567.8,54.7 566.3,54.7 566.3,54.6 566.3,54.6 566.1,54.6 
		566.1,54.3 566,54.3 566,54 565.9,54 565.9,53.9 565.8,53.9 565.8,53.8 565.7,53.8 565.7,53.6 565,53.6 565,53.8 564.8,53.8 
		564.8,53.9 564.3,53.9 564.3,54 564.1,54 564.1,54.2 563.8,54.2 563.8,54.3 563.1,54.3 563.1,54.4 562.7,54.4 562.7,54.3 
		562.3,54.3 562.3,54.4 561.9,54.4 561.9,54.3 561.6,54.3 561.6,54.4 561.5,54.4 561.5,54.5 561.5,54.6 561.4,54.6 561.4,54.7 
		561.3,54.7 561.3,54.8 561,54.8 561,54.7 560.7,54.7 560.7,54.6 560.1,54.6 558.9,54.6 558.9,54.4 558.8,54.4 558.8,54.3 
		558.7,54.3 558.7,54.2 556.8,54.2 556.8,54 556.6,54 556.6,54.2 555.9,54.2 555.9,54.3 554.9,54.3 554.9,54.6 554.7,54.6 
		554.7,54.7 553.8,54.7 553.8,54.6 553.7,54.6 553.7,54.4 553.6,54.4 553.6,54.3 553.5,54.3 553.5,54.2 551.8,54.2 551.8,54 
		551.5,54 551.5,53.9 551.4,53.9 551.4,53.8 551.1,53.8 551.1,53.6 550.8,53.6 550.8,53.5 550.6,53.5 550.6,53.4 550.5,53.4 
		550.5,53.2 550.3,53.2 550.3,53.1 550.1,53.1 550.1,53 550,53 550,52.8 549.8,52.8 549.8,52.7 549.7,52.7 549.7,52.6 549.5,52.6 
		549.5,52.4 549.4,52.4 549.4,52.3 549,52.3 549,52.1 548.9,52.1 548.9,51.6 548.8,51.6 548.8,51.2 548.2,51.2 548.2,51.3 
		547.9,51.3 547.9,51.5 547.8,51.5 547.8,51.6 547.7,51.6 547.7,51.7 547.5,51.7 547.5,51.9 547.3,51.9 547.3,52 547.2,52 
		547.2,52.1 547,52.1 547,52.3 546.5,52.3 546.5,52.4 546.4,52.4 546.4,52.6 546.2,52.6 546.2,52.7 546.1,52.7 546.1,52.8 546,52.8 
		546,53 545.8,53 545.8,53.1 545.5,53.1 545.5,53.2 545.2,53.2 545.2,53.4 544.5,53.4 544.5,53.5 544.2,53.5 544.2,53.6 543.9,53.6 
		543.7,53.6 543.7,53.5 543.5,53.5 543.5,53.4 543.3,53.4 543.3,53.2 543.2,53.2 543.2,53.1 543.1,53.1 543.1,53.2 542.8,53.2 
		542.8,53.4 542.7,53.4 542.7,53.5 542.6,53.5 542.6,53.6 542.5,53.6 542.5,53.8 542.3,53.8 542.3,53.9 542.1,53.9 542.1,54 
		541.9,54 541.9,54.2 541.7,54.2 541.7,54.4 541.6,54.4 541.6,54.6 541.5,54.6 541.5,54.7 541.2,54.7 541.2,54.8 541.1,54.8 
		541.1,55 541,55 541,55.1 540.8,55.1 540.8,55.2 540.7,55.2 540.7,55.4 540.6,55.4 540.6,55.5 540.5,55.5 540.5,55.6 540.3,55.6 
		540.3,55.8 540.1,55.8 540.1,55.9 539.7,55.9 539.7,56 539.5,56 539.5,56.2 539.4,56.2 539.4,56.3 539.3,56.3 539.3,56.4 
		539.2,56.4 539.2,56.6 539,56.6 539,56.7 538.9,56.7 538.9,56.9 538.7,56.9 538.7,57 538.5,57 538.5,57.1 538.4,57.1 538.4,57.3 
		538.3,57.3 538.3,57.4 538.1,57.4 538.1,57.5 537.9,57.5 537.9,57.7 537.6,57.7 537.6,57.8 537.4,57.8 537.4,57.9 537.3,57.9 
		537.3,58.1 537.2,58.1 537.2,58.2 537.1,58.2 537.1,58.3 536.9,58.3 536.9,58.5 536.7,58.5 536.7,58.6 536.4,58.6 536.4,58.7 
		536.2,58.7 536.2,58.9 536.1,58.9 536.1,59 536,59 536,59.1 535.7,59.1 535.7,59.3 535.5,59.3 535.5,59.7 535.4,59.7 535.4,59.8 
		535.3,59.8 535.3,59.9 535.1,59.9 535.1,60.2 535,60.2 535,60.3 534.8,60.3 534.8,60.5 534.7,60.5 534.7,60.6 534.5,60.6 
		534.5,60.7 534.4,60.7 534.4,60.9 534.3,60.9 534.3,61 534.1,61 534.1,61.1 534,61.1 534,61.3 533.8,61.3 533.8,61.4 533.6,61.4 
		533.6,61.6 533.4,61.6 533.4,61.7 533.2,61.7 533.2,61.8 533.1,61.8 533.1,62 533,62 533,62.1 532.8,62.1 532.8,62.2 532.6,62.2 
		532.6,62.4 532.5,62.4 532.5,62.5 532.4,62.5 532.4,62.6 532.1,62.6 532.1,62.8 532,62.8 532,62.9 531.9,62.9 531.9,63 531.7,63 
		531.7,63.2 531.6,63.2 531.6,63.3 531.4,63.3 531.4,63.4 531.2,63.4 531.2,63.6 531.1,63.6 531.1,63.7 530.9,63.7 530.9,63.8 
		530.8,63.8 530.8,64 530.6,64 530.6,64.1 530.4,64.1 530.4,64.2 530.3,64.2 530.3,64.1 530.2,64.1 530.2,64.2 530,64.2 530,64.4 
		529.9,64.4 529.9,64.5 529.7,64.5 529.7,64.6 529.6,64.6 529.6,64.8 529.5,64.8 529.5,64.9 529.4,64.9 529.4,65 529.2,65 
		529.2,65.2 529,65.2 529,65.3 528.8,65.3 528.8,65.4 528.8,65.4 528.7,65.4 528.7,65.4 528.7,65.3 528.6,65.3 528.6,65.4 
		528.6,65.4 528.5,65.4 528.5,65.6 528.4,65.6 528.4,65.7 528.1,65.7 528.1,65.8 527.8,65.8 527.8,66 527.4,66 527.4,66.1 527,66.1 
		527,66.3 526.8,66.3 526.8,66.4 526.6,66.4 526.6,66.5 526.4,66.5 526.4,66.7 526.1,66.7 526.1,66.8 525.8,66.8 525.8,66.9 
		525.2,66.9 525.2,67.1 524.7,67.1 524.7,67.2 523.8,67.2 523.8,67.1 523.6,67.1 523.6,66.9 523.4,66.9 523.4,66.7 523,66.7 
		523,66.5 522.6,66.5 522.6,66.7 522.2,66.7 522.2,66.8 521.5,66.8 521.5,66.9 521.1,66.9 521.1,67.1 520.8,67.1 520.8,67.2 
		520.5,67.2 520.5,67.1 520,67.1 520,67.2 519.5,67.2 519.5,67.1 519.4,67.1 519.4,66.9 519.2,66.9 519.2,67.1 518.3,67.1 
		518.3,67.2 518.2,67.2 518.2,67.3 518.1,67.3 518.1,67.5 517.9,67.5 517.9,67.3 516.6,67.3 515.9,67.3 515.9,67.5 515.1,67.5 
		515.1,67.6 514.9,67.6 514.9,67.7 514.8,67.7 514.8,67.9 514.6,67.9 514.6,68 514.4,68 514.4,68.1 514.3,68.1 514.3,68.3 
		514.2,68.3 514.2,68.4 514,68.4 514,68.5 514,68.5 513.7,68.5 513.7,68.7 513.6,68.7 513.4,68.7 513.4,68.8 513.3,68.8 513.3,68.8 
		513.3,68.8 513.3,68.9 513.2,68.9 513.2,69.1 513.1,69.1 513.1,69.2 512.7,69.2 512.7,69.3 512.4,69.3 512.4,69.5 512.2,69.5 
		512.2,69.6 512.1,69.6 512.1,69.7 512,69.7 512,69.9 511.9,69.9 511.9,70 511.5,70 511.5,69.9 511,69.9 510.8,69.9 510.8,69.7 
		510.7,69.7 510.7,69.6 510.6,69.6 510.6,69.5 510.5,69.5 510.5,69.3 510.4,69.3 510.4,69.2 510,69.2 510,69.1 509.9,69.1 
		509.9,69.2 509.7,69.2 509.7,69.3 509.6,69.3 509.6,69.5 509.5,69.5 509.5,69.7 509.5,70 509.4,70 509.4,70.1 508.5,70.1 508.5,70 
		508.3,70 508.3,69.9 508.2,69.9 508.2,69.7 508.2,69.6 508,69.6 508,69.2 507.9,69.2 507.9,68.9 507.8,68.9 507.8,68.8 507.9,68.8 
		507.9,68.5 507.7,68.5 507.7,68.4 507.2,68.4 507.2,68.5 507.1,68.5 507.1,68.7 507,68.7 507,68.8 506.9,68.8 506.9,68.9 
		506.7,68.9 506.7,69.1 506.4,69.1 506.4,68.9 506.1,68.9 506.1,68.5 506,68.5 506,68 505.9,68 505.9,67.3 506.3,67.3 506.3,67.2 
		506.4,67.2 506.4,67.1 506.6,67.1 506.6,66.8 505.8,66.8 505.8,66.9 505.6,66.9 505.6,67.1 505.4,67.1 505.4,67.2 505.3,67.2 
		505.3,67.3 505,67.3 505,67.5 504.2,67.5 504.2,67.6 504.1,67.6 504.1,67.7 504,67.7 504,68.1 504.1,68.1 504.1,68.5 504,68.5 
		504,68.7 503.7,68.7 503.7,68.8 503.5,68.8 503.5,68.9 503.4,68.9 503.4,69.1 503.2,69.1 503.2,69.2 503.1,69.2 503.1,69.3 
		502.8,69.3 502.8,69.5 502.7,69.5 502.7,69.6 502.6,69.6 502.6,69.7 502.5,69.7 502.5,69.9 502.4,69.9 502.4,70.1 502.5,70.1 
		502.5,70.3 502.6,70.3 502.6,70.8 502.5,70.8 502.5,71 502.1,71 502.1,70.8 501.7,70.8 501.7,71 501.6,71 501.6,71.2 501.5,71.2 
		501.5,71.6 501.4,71.6 501.4,71.8 501.2,71.8 501.2,71.9 501.1,71.9 501.1,72 501,72 501,72.2 500.9,72.2 500.9,72.3 500.1,72.3 
		500.1,72.4 500.1,72.6 499.8,72.6 499.8,72.7 499.4,72.7 499.4,72.8 499,72.8 499,72.7 498.9,72.7 498.9,72.6 498.8,72.6 
		498.8,72.4 498.6,72.4 498.6,72.3 498.3,72.3 498.3,72.2 498.1,72.2 498.1,72 497.9,72 497.9,71.9 497.8,71.9 497.8,71.8 
		497.5,71.8 497.5,71.6 497.3,71.6 497.3,71.8 497.2,71.8 497.2,71.9 497,71.9 497,72 497.1,72 497.1,72.2 497.2,72.2 497.2,72.3 
		497.6,72.3 497.6,72.4 497.7,72.4 497.7,72.8 497.6,72.8 497.6,73.1 497.5,73.1 497.5,73.2 497.4,73.2 497.4,73.5 497.4,73.8 
		497.5,73.8 497.5,73.9 497.4,73.9 497.4,74 497.3,74 497.3,74.2 497.2,74.2 497.2,74.3 497.1,74.3 497.1,74.4 496.9,74.4 
		496.9,74.6 496.8,74.6 496.8,74.7 496.6,74.7 496.6,74.8 496.6,74.8 496.6,74.9 496.6,75 496.5,75 496.3,75 496.3,75.1 496.2,75.1 
		496.2,75.3 496,75.3 496,75.4 495.7,75.4 495.7,75.5 495.6,75.5 495.6,75.7 495.4,75.7 495.4,75.8 494.5,75.8 494.5,75.9 
		494.3,75.9 494.3,76.1 494.2,76.1 494.2,76.2 494.1,76.2 494.1,76.3 493.6,76.3 493.6,76.1 493.5,76.1 493.5,75.8 493.2,75.8 
		493.2,75.9 493.1,75.9 493.1,76.1 492.9,76.1 492.9,76.2 492.8,76.2 492.8,76.3 492.7,76.3 492.7,76.5 492.6,76.5 492.6,76.6 
		492.4,76.6 492.4,76.7 492.3,76.7 492.3,76.9 492.2,76.9 492.2,77 492.1,77 492.1,77.1 492,77.1 492,77.3 491.9,77.3 491.9,77.4 
		491.8,77.4 491.8,77.5 491.7,77.5 491.7,77.7 491.6,77.7 491.6,77.8 491.4,77.8 491.4,77.9 491.3,77.9 491.3,78.1 491.2,78.1 
		491.2,78.2 491.1,78.2 491.1,78.3 491,78.3 491,78.5 490.8,78.5 490.8,78.6 490.7,78.6 490.7,78.7 490.5,78.7 490.5,78.9 
		490.4,78.9 490.4,79 490.2,79 490.2,79.1 490.1,79.1 490.1,79.3 489.9,79.3 489.9,79.4 489.8,79.4 489.8,79.5 489.6,79.5 
		489.6,79.7 489.5,79.7 489.5,79.8 489.3,79.8 489.3,80 489.2,80 489.2,80.1 489.1,80.1 489.1,80.2 489,80.2 489,80.4 488.8,80.4 
		488.8,80.5 488.6,80.5 488.6,80.6 488.4,80.6 488.4,80.8 488.3,80.8 488.3,80.9 488.2,80.9 488.2,81 488.1,81 488.1,81.2 488,81.2 
		488,81.3 487.7,81.3 487.7,81.4 487.6,81.4 487.6,81.6 487.5,81.6 487.5,81.7 487.3,81.7 487.3,81.8 487.2,81.8 487.2,82 487,82 
		487,82.1 486.9,82.1 486.9,82.2 486.7,82.2 486.7,82.4 486.6,82.4 486.6,82.5 486.5,82.5 486.5,82.6 486.3,82.6 486.3,82.8 
		486.1,82.8 486.1,82.9 485.9,82.9 485.9,83.2 485.7,83.2 485.7,83.3 485.6,83.3 485.6,83.4 485.4,83.4 485.4,83.6 485.3,83.6 
		485.3,83.7 485.1,83.7 485.1,83.8 485,83.8 485,84 484.8,84 484.8,84.1 484.7,84.1 484.7,84.2 484.5,84.2 484.5,84.4 484.3,84.4 
		484.3,84.5 484.2,84.5 484.2,84.7 484,84.7 484,84.8 483.9,84.8 483.9,84.9 483.7,84.9 483.7,85.1 483.6,85.1 483.6,85.2 
		483.4,85.2 483.4,85.3 483.3,85.3 483.3,85.5 483.1,85.5 483.1,85.6 482.8,85.6 482.8,85.7 482.8,85.7 482.8,85.9 482.5,85.9 
		482.5,86 482.4,86 482.4,86.1 482.2,86.1 482.2,86.3 482.1,86.3 482.1,86.4 481.9,86.4 481.9,86.5 481.8,86.5 481.8,86.7 
		481.6,86.7 481.6,86.8 481.4,86.8 481.4,86.9 481.3,86.9 481.3,87.1 481.1,87.1 481.1,87.2 480.9,87.2 480.9,87.3 480.8,87.3 
		480.8,87.5 480.6,87.5 480.6,87.6 480.4,87.6 480.4,87.7 480.2,87.7 480.2,87.9 480.1,87.9 480.1,88 479.9,88 479.9,88.1 
		479.7,88.1 479.7,88.3 479.6,88.3 479.6,88.4 479.4,88.4 479.4,88.5 479.2,88.5 479.2,88.7 479,88.7 479,88.8 478.8,88.8 478.8,89 
		478.6,89 478.6,89.1 478.4,89.1 478.4,89.2 478.2,89.2 478.2,89.4 478.1,89.4 478.1,89.5 478,89.5 478,89.6 477.9,89.6 477.9,89.8 
		477.7,89.8 477.7,89.9 477.5,89.9 477.5,90 477.3,90 477.3,90.2 477.1,90.2 477.1,90.3 476.9,90.3 476.9,90.4 476.8,90.4 
		476.8,90.6 476.6,90.6 476.6,90.7 476.2,90.7 476.2,90.8 476,90.8 476,91 475.9,91 475.9,91.1 475.7,91.1 475.7,91.2 475.6,91.2 
		475.6,91.4 475.4,91.4 475.4,91.5 475.3,91.5 475.3,91.6 475.1,91.6 475.1,91.8 475,91.8 475,91.9 474.8,91.9 474.8,92 474.7,92 
		474.7,92.2 474.6,92.2 474.6,92.3 474.5,92.3 474.5,92.4 474.3,92.4 474.3,92.6 474.1,92.6 474.1,92.7 473.9,92.7 473.9,92.8 
		473.8,92.8 473.8,93 473.6,93 473.6,93.1 473.5,93.1 473.5,93.2 473.3,93.2 473.3,93.4 473.2,93.4 473.2,93.5 473,93.5 473,93.7 
		472.9,93.7 472.9,93.8 472.7,93.8 472.7,93.9 472.6,93.9 472.6,94.1 472.4,94.1 472.4,94.2 472.2,94.2 472.2,94.3 472,94.3 
		472,94.5 471.9,94.5 471.9,94.6 471.8,94.6 471.8,94.7 471.5,94.7 471.5,94.6 471.4,94.6 471.4,94.5 471.1,94.5 471.1,94.6 
		471,94.6 471,94.7 470.9,94.7 470.9,94.9 470.6,94.9 470.6,95 470.5,95 470.5,95.1 470.4,95.1 470.4,95.3 470.3,95.3 470.3,95.4 
		469.9,95.4 469.9,95.5 469.7,95.5 469.7,95.7 469.6,95.7 469.6,95.8 469.5,95.8 469.5,95.7 469.4,95.7 469.4,95.8 469.2,95.8 
		469.2,95.9 469,95.9 469,96.1 468.9,96.1 468.9,96.2 468,96.2 468,96.3 467.6,96.3 467.6,96.5 466,96.5 466,96.6 465.6,96.6 
		465.6,96.7 465.3,96.7 465.3,96.9 464.6,96.9 464.6,97 464.2,97 464.2,97.1 463.9,97.1 463.9,97.3 463.5,97.3 463.5,97.4 
		462.5,97.4 462.5,97.3 461.2,97.3 461.2,97.4 461.1,97.4 461.1,97.5 460.8,97.5 460.8,97.7 460.7,97.7 460.7,97.8 459.9,97.8 
		459.9,97.5 459.7,97.5 459.7,97.7 459.6,97.7 459.6,97.8 458.6,97.8 458.6,97.5 457.9,97.5 457.9,97.4 457.5,97.4 457.5,97.3 
		457.1,97.3 457.1,97.2 457.1,97.1 456.7,97.1 456.7,97 456.5,97 456.5,96.9 456.3,96.9 456.3,96.7 455.8,96.7 455.8,96.9 
		455.4,96.9 455.4,97 454.4,97 454.4,96.9 454.1,96.9 454.1,96.7 453.9,96.7 453.9,96.6 453.6,96.6 453.6,96.5 453.5,96.5 
		453.5,96.1 453.3,96.1 453.3,95.9 453.2,95.9 453.2,95.8 453.1,95.8 453.1,95.7 452.8,95.7 452.8,95.5 452.2,95.5 452,95.5 
		452,95.4 451.6,95.4 451.6,95.3 451.5,95.3 451.5,95.1 451.3,95.1 451.3,95 451.2,95 451.2,94.9 450.9,94.9 450.9,94.7 450.7,94.7 
		450.7,94.6 450.6,94.6 450.6,94.5 450.4,94.5 450.4,94.3 450.1,94.3 450.1,94.2 449.8,94.2 449.8,94.1 449.7,94.1 449.7,93.9 
		449.5,93.9 449.5,93.8 449.4,93.8 449.4,93.2 449.3,93.2 449.3,93.1 449.2,93.1 449.2,93 449.1,93 449.1,92.8 449,92.8 449,92.6 
		448.6,92.6 448.6,92.4 448.5,92.4 448.5,92.2 448.4,92.2 448.4,91.9 448.3,91.9 448.3,91.5 448.2,91.5 448.2,91.4 448,91.4 
		448,91.2 447.9,91.2 447.9,91.1 447.7,91.1 447.7,91 447.6,91 447.6,90.7 447.5,90.7 447.5,90.6 447.2,90.6 447.2,90.6 447.2,90.4 
		447.1,90.4 447.1,90.3 447,90.3 447,89.9 447.2,89.9 447.2,89.8 447.4,89.8 447.4,89.5 447.3,89.5 447.3,89.4 447.1,89.4 
		447.1,89.2 447,89.2 447,89.1 446.9,89.1 446.9,89 446.8,89 446.8,88.8 446.7,88.8 446.7,88.7 446.6,88.7 446.6,88.5 446.5,88.5 
		446.5,88.4 446.4,88.4 446.4,88.3 446.3,88.3 446.3,88.1 446.2,88.1 446.2,88 446.1,88 446.1,87.9 445.9,87.9 445.9,87.7 
		445.8,87.7 445.8,87.6 445.7,87.6 445.7,87.5 445.6,87.5 445.6,87.3 445.5,87.3 445.5,87.2 445.4,87.2 445.4,87.1 445.3,87.1 
		445.3,86.9 444.9,86.9 444.9,86.8 444.8,86.8 444.8,86.7 444.7,86.7 444.7,86.6 444.7,86.5 444,86.5 444,86.6 444,86.7 443.7,86.7 
		443.7,86.5 443.4,86.5 443.4,86.4 443.3,86.4 443.3,86.1 443.2,86.1 443.2,85.2 443.1,85.2 443.1,84.9 443,84.9 443,84.8 
		442.5,84.8 442.5,84.7 442.3,84.7 442.3,84.8 442.2,84.8 442.2,84.9 442.3,84.9 442.3,85.1 442.4,85.1 442.4,85.9 441.7,85.9 
		441.7,85.7 441.3,85.7 441.3,85.9 441,85.9 441,86 440.6,86 440.6,86.1 440.2,86.1 440.2,86.3 439.7,86.3 439.7,86.4 439.4,86.4 
		439.4,86.5 439.1,86.5 439.1,86.5 439.1,86.4 438.9,86.4 438.9,86.3 438.7,86.3 438.7,86.1 438.5,86.1 438.5,86 438.3,86 
		438.3,85.9 438.1,85.9 438.1,85.7 438,85.7 438,85.6 437.6,85.6 437.6,85.5 437.5,85.5 437.5,85.3 437.4,85.3 437.4,85.2 
		436.2,85.2 436.2,85.3 435.8,85.3 435.8,85.5 435.6,85.5 435.6,85.6 435.5,85.6 435.5,85.7 435.4,85.7 435.4,85.9 435.3,85.9 
		435.3,86 435.2,86 435.2,86.3 435.1,86.3 435.1,86.4 435.2,86.4 435.2,86.5 435.1,86.5 435.1,86.8 435,86.8 435,87.1 434.9,87.1 
		434.9,87.3 434.8,87.3 434.8,87.7 434.7,87.7 434.7,88 432.1,88 432.1,88.1 431.8,88.1 431.8,88.3 431.7,88.3 431.7,88.4 
		431.3,88.4 431.3,88.5 431.2,88.5 431.2,88.8 431.3,88.8 431.3,89 431.2,89 431.2,89.6 431.1,89.6 431.1,89.8 431,89.8 431,90.2 
		430.9,90.2 430.9,90.3 430.6,90.3 430.6,90.4 430.5,90.4 430.5,90.7 430.4,90.7 430.4,90.8 430.2,90.8 430.2,91 430.1,91 
		430.1,91.2 430,91.2 430,91.8 429.9,91.8 429.9,91.9 429.6,91.9 429.6,92 429.2,92 429.2,92.2 429,92.2 429,92.8 428.8,92.8 
		428.8,93 428.6,93 428.6,93.1 428.3,93.1 428.3,93.2 427.9,93.2 427.9,93.4 427.7,93.4 427.7,93.5 427.6,93.5 427.6,93.7 
		427.3,93.7 427.3,93.8 427.2,93.8 427.2,93.9 427.1,93.9 427.1,94.2 427,94.2 427,94.3 426.9,94.3 426.9,94.6 426.6,94.6 
		426.6,94.7 426.1,94.7 426.1,94.9 425.8,94.9 425.8,94.7 425.5,94.7 425.5,94.9 425.4,94.9 425.4,95 425.3,95 425.3,95.1 
		425.2,95.1 425.2,95.7 425.1,95.7 425.1,95.9 425,95.9 425,96.1 424.9,96.1 424.9,96.8 424.9,97.1 424.8,97.1 424.8,97.3 
		424.7,97.3 424.7,97.4 424.6,97.4 424.6,97.5 424.4,97.5 424.4,97.8 424.2,97.8 424.2,97.9 423.9,97.9 423.9,98.1 423.8,98.1 
		423.8,98.2 423.6,98.2 423.6,98.4 423.5,98.4 423.5,98.5 423.3,98.5 423.3,98.6 423.2,98.6 423.2,98.8 423,98.8 423,98.9 
		422.9,98.9 422.9,99 422.7,99 422.7,99.2 422.6,99.2 422.6,99.3 422.3,99.3 422.3,99.4 422.1,99.4 420.9,99.4 420.9,99.6 
		420.6,99.6 420.6,99.7 420.2,99.7 420.2,99.8 419.9,99.8 419.9,100 419.8,100 419.8,100.1 419.6,100.1 419.6,100.2 419.5,100.2 
		419.5,100.5 419.4,100.5 419.4,100.8 419.3,100.8 419.3,100.9 419.2,100.9 419.2,101 419.1,101 419.1,101.2 418.9,101.2 
		418.9,101.4 418.6,101.4 418.6,101.3 418,101.3 418,101.6 417.9,101.6 417.9,101.7 417.8,101.7 417.8,102 417.7,102 417.7,102.2 
		417.6,102.2 417.6,102.4 417.5,102.4 417.5,102.6 417.4,102.6 417.4,102.8 417.3,102.8 417.3,102.9 417.1,102.9 417.1,103.1 
		417,103.1 417,103.2 416.8,103.2 416.8,103.3 416.7,103.3 416.7,103.5 416.5,103.5 416.5,103.6 416.4,103.6 416.4,103.7 
		416.3,103.7 416.3,103.9 416.2,103.9 416.2,104 416.1,104 416.1,104.1 416,104.1 416,104.3 415.9,104.3 415.9,104.4 415.7,104.4 
		415.7,104.5 415.4,104.5 415.4,104.7 415.2,104.7 415.2,104.8 415,104.8 415,104.9 414.8,104.9 414.8,105.1 414.5,105.1 
		414.5,105.2 414.3,105.2 414.3,105.3 414.1,105.3 414.1,105.5 413.7,105.5 413.7,105.6 413.5,105.6 413.5,105.7 413.4,105.7 
		413.4,105.9 413.2,105.9 413.2,106 413.1,106 413.1,106.1 412.9,106.1 412.9,106.3 412.7,106.3 412.7,106.4 412.5,106.4 
		412.5,106.5 412.5,106.5 412.2,106.5 412.2,106.7 412.1,106.7 412.1,106.5 411.7,106.5 411.7,106.7 411.5,106.7 411.5,106.8 
		411.4,106.8 411.4,106.9 411.2,106.9 411.2,107.1 411.1,107.1 411.1,107.1 411.1,107.2 411,107.2 410.9,107.2 410.9,107.3 
		410.9,107.4 410.8,107.4 410.8,107.5 410.6,107.5 410.6,107.6 410.5,107.6 410.5,107.8 410.3,107.8 410.3,107.9 410.2,107.9 
		410.2,108 410,108 410,108.2 409.9,108.2 409.9,108.3 409.7,108.3 409.7,108.4 409.6,108.4 409.6,108.6 409,108.6 409,108.6 
		409,108.6 409,108.7 408.9,108.7 408.9,108.7 408.9,108.7 408.9,109 408.7,109 408.4,109 408.4,109.1 408.3,109.1 408.3,109.2 
		408.1,109.2 408.1,109.4 408,109.4 408,109.5 407.8,109.5 407.8,109.6 407.5,109.6 407.5,109.8 407.3,109.8 407.3,109.9 
		407.1,109.9 407.1,110 406.6,110 406.6,110.2 406.4,110.2 406.4,110.3 406.3,110.3 406.3,110.4 406.2,110.4 406.2,110.6 
		406.1,110.6 406.1,110.8 405.8,110.8 405.8,111 405.5,111 405.5,111.1 405.4,111.1 405.4,111.2 405,111.2 405,111.4 404.7,111.4 
		404.7,111.5 404.3,111.5 404.3,111.6 404,111.6 404,111.8 403.6,111.8 403.6,111.9 403.2,111.9 403.2,112.1 403.1,112.1 
		403.1,112.2 402.9,112.2 402.9,112.1 402.4,112.1 402.4,112.2 402.2,112.2 402.2,112.3 402,112.3 402,112.5 401.8,112.5 
		401.8,112.6 401.6,112.6 401.6,112.7 401.1,112.7 401.1,112.6 401,112.6 401,112.5 400.8,112.5 400.8,112.3 400.7,112.3 
		400.7,112.2 399.8,112.2 399.8,112.1 399.7,112.1 399.7,111.9 399.6,111.9 399.6,111.8 398.6,111.8 398.6,111.9 397.8,111.9 
		397.8,112.1 397.5,112.1 397.5,112.2 397.3,112.2 397.3,112.3 397.2,112.3 397.2,112.2 394.8,112.2 394.8,112.1 393.1,112.1 
		393.1,112.2 392.9,112.2 392.9,112.3 392.3,112.3 392.3,112.5 392.1,112.5 392.1,112.6 391.9,112.6 391.9,112.7 391.8,112.7 
		391.8,112.9 391.7,112.9 391.7,113 391.5,113 391.5,112.9 391.3,112.9 391.3,113 390.3,113 390.3,112.9 390.2,112.9 390.2,113 
		390,113 390,112.9 389,112.9 389,112.7 388.9,112.7 388.9,112.9 388.5,112.9 388.5,113 388.3,113 388.3,113.1 388,113.1 388,113.3 
		387.7,113.3 387.7,113.4 387.5,113.4 387.5,113.5 386.4,113.5 386.4,113.7 386.1,113.7 386.1,113.5 385.9,113.5 385.9,113.7 
		385.5,113.7 385.5,113.8 385.4,113.8 385.4,113.9 385,113.9 385,114.1 384.9,114.1 384.9,114.2 384,114.2 384,114.3 383.8,114.3 
		383.8,114.2 383.7,114.2 383.7,114.1 383.5,114.1 383.1,114.1 383.1,113.9 383,113.9 383,113.8 382.9,113.8 382.9,113.7 
		382.8,113.7 382.8,113.4 382.2,113.4 382.2,113.3 382.1,113.3 382.1,113.1 382,113.1 382,112.9 381.9,112.9 381.9,112.7 
		381.8,112.7 381.8,112.5 381.7,112.5 381.7,112.3 381.6,112.3 381.6,112.3 381.6,112.2 381.5,112.2 381.5,112.1 381.4,112.1 
		381.4,111.9 381.3,111.9 381.3,111.8 381.1,111.8 381.1,111.6 379.9,111.6 379.9,111.8 379.6,111.8 379.6,111.9 379.3,111.9 
		379.3,112.1 379.1,112.1 379.1,112.2 378.8,112.2 378.8,112.3 378.6,112.3 378.6,112.5 378.3,112.5 378.3,112.6 378.1,112.6 
		378.1,112.7 377.8,112.7 377.8,112.9 377.4,112.9 377.4,113 377,113 377,113.1 376.7,113.1 376.7,113.3 375.9,113.3 375.9,113.4 
		375,113.4 375,113.3 374.7,113.3 374.7,113.1 374.4,113.1 374.4,113 374,113 374,112.9 373.2,112.9 373.2,113 372.8,113 
		372.8,113.1 372.5,113.1 372.5,113.3 372.2,113.3 372.2,113.4 372.1,113.4 372.1,113.5 371.5,113.5 371.5,113.7 370.5,113.7 
		370.5,113.8 369.4,113.8 369.4,113.7 369,113.7 369,113.5 368.6,113.5 368.6,113.8 368.5,113.8 368.5,113.9 368.3,113.9 
		368.3,114.1 368.2,114.1 368.2,114.2 367.8,114.2 367.8,114.3 367.6,114.3 367.6,114.5 367.3,114.5 367.3,114.6 367.1,114.6 
		367.1,114.7 366.9,114.7 366.9,114.9 366.6,114.9 366.6,115 366.4,115 366.4,115.1 365.9,115.1 365.9,115.3 365.6,115.3 
		365.6,115.1 364.9,115.1 364.9,115 364.5,115 364.5,114.9 364,114.9 364,114.7 363.9,114.7 363.9,114.6 363.7,114.6 363.7,114.5 
		363.5,114.5 363.5,114.3 363.4,114.3 363.4,114.2 363.2,114.2 363.2,114.1 363,114.1 363,113.8 362.9,113.8 362.9,113.5 
		362.8,113.5 362.8,113.4 362.6,113.4 362.6,113.1 362.4,113.1 362.4,113 362.1,113 362.1,112.9 361.9,112.9 361.9,113 361.3,113 
		361.3,113.1 361.2,113.1 361.2,113.3 359.8,113.3 358.2,113.3 358.2,113.4 358.1,113.4 358.1,113.5 357.7,113.5 357.7,113.7 
		357.3,113.7 357.3,113.8 357.1,113.8 357.1,113.7 356.6,113.7 356.6,113.5 356.4,113.5 356.4,113.4 355.8,113.4 355.8,113.3 
		355.1,113.3 355.1,113.1 354.9,113.1 354.9,113 354.7,113 354.7,112.9 354.6,112.9 354.6,112.7 354.4,112.7 354.4,112.6 
		353.9,112.6 353.9,112.5 353.8,112.5 353.8,112.2 353.7,112.2 353.7,112.1 353.5,112.1 353.5,111.9 353.4,111.9 353.4,111.8 
		353.3,111.8 353.3,111.6 353.2,111.6 353.2,111.5 353,111.5 353,111.4 352.9,111.4 352.9,111.2 352.7,111.2 352.7,111 352.6,111 
		352.6,110.8 352.5,110.8 352.5,110.2 352.4,110.2 352.4,109.8 352.2,109.8 352.2,109.6 352.1,109.6 352.1,109.2 351.7,109.2 
		351.7,109.1 351.5,109.1 351.5,109 351,109 351,109.1 350.2,109.1 350.2,109.2 350.1,109.2 350.1,109.4 349.9,109.4 349.9,109.5 
		349.7,109.5 349.7,109.6 349.4,109.6 349.4,109.8 348.7,109.8 348.7,109.6 348.1,109.6 348.1,109.8 347.8,109.8 347.8,109.9 
		347.4,109.9 347.4,110 347.3,110 347.3,110.2 347,110.2 347,110.3 346.6,110.3 346.6,110.4 346.5,110.4 346.5,110.7 346.1,110.7 
		346.1,111.1 346.3,111.1 346.3,111 346.7,111 346.7,110.7 346.8,110.7 346.8,110.6 347.2,110.6 347.2,110.4 347.4,110.4 
		347.4,110.3 347.5,110.3 347.5,110.2 347.9,110.2 347.9,110 348.2,110 348.2,109.9 348.6,109.9 348.6,110 349.2,110 349.2,110.2 
		349.3,110.2 349.3,110.6 349.2,110.6 349.2,110.8 349.1,110.8 349.1,111.1 349,111.1 349,111.2 348.9,111.2 348.9,111.5 
		348.8,111.5 348.8,111.8 348.7,111.8 348.7,111.9 348.6,111.9 348.6,112.1 348.4,112.1 348.4,112.2 347.9,112.2 347.9,112.5 
		347.8,112.5 347.8,112.6 347.5,112.6 347.5,112.5 347.4,112.5 347.4,112.2 347.2,112.2 347.2,112.1 347.1,112.1 347.1,111.8 
		346.8,111.8 346.8,112.1 346.9,112.1 346.9,112.2 347,112.2 347,112.3 347.1,112.3 347.1,112.9 347.2,112.9 347.2,113.3 
		347.1,113.3 347.1,113.4 347,113.4 347,113.5 346.8,113.5 346.8,113.7 346.7,113.7 346.7,113.8 346.5,113.8 346.5,113.9 
		346.3,113.9 346.3,113.4 346.4,113.4 346.4,113.1 346.5,113.1 346.5,113 346.6,113 346.6,112.6 346.4,112.6 346.4,112.7 
		346.2,112.7 346.2,113 346.1,113 346.1,113.3 346,113.3 346,114.2 345.8,114.2 345.8,114.3 345.6,114.3 345.6,114.5 345.5,114.5 
		345.5,114.6 345.2,114.6 345.2,114.7 345.1,114.7 345.1,114.9 344.9,114.9 344.9,115 344.8,115 344.8,115.1 344.3,115.1 
		344.3,115.3 344.1,115.3 344.1,115.4 343.9,115.4 343.9,115.5 343.7,115.5 343.7,115.7 343.6,115.7 343.6,115.8 343.5,115.8 
		343.5,115.9 343.4,115.9 343.4,116.1 343.1,116.1 343.1,116.2 342.3,116.2 342.3,116.3 342.2,116.3 342.2,116.5 342.2,116.5 
		341.9,116.5 340.2,116.5 340.2,116.3 338.9,116.3 338.9,116.2 338.6,116.2 338.6,116.1 338.2,116.1 338.2,116 338.2,115.9 
		337.9,115.9 337.9,115.8 337.6,115.8 337.6,115.7 337.3,115.7 337.3,115.5 337.1,115.5 337.1,115.4 336.7,115.4 336.7,115.3 
		336.4,115.3 336.4,115.3 336.4,115.2 336.4,115.1 336.2,115.1 336.2,115.1 336.2,115.1 336.2,115 336,115 336,114.9 335.8,114.9 
		335.6,114.9 335.6,114.7 335.6,114.7 335.5,114.7 335.5,114.7 335.5,114.6 335.3,114.6 335.2,114.6 335.2,114.5 335.1,114.5 
		335.1,114.5 335.1,114.4 335.1,114.3 334.9,114.3 334.6,114.3 334.6,114.2 334.3,114.2 334.3,114.1 334.1,114.1 334.1,113.9 
		333.9,113.9 333.9,113.8 333.5,113.8 333.5,113.7 333.4,113.7 333.4,113.5 332.9,113.5 332.9,113.4 332.2,113.4 332.2,113.3 
		332,113.3 332,113.2 332,113.1 331.7,113.1 331.7,113 331.1,113 331.1,112.9 331,112.9 331,112.7 330.5,112.7 330.5,112.9 
		330.4,112.9 330.4,112.7 329.9,112.7 329.9,112.6 329.8,112.6 329.8,112.5 329.7,112.5 329.7,112.3 329.4,112.3 329.4,112.2 
		329.1,112.2 329.1,112.1 328.6,112.1 328.6,111.9 328.4,111.9 328.4,111.8 328,111.8 328,111.6 327.9,111.6 327.9,111.5 
		327.7,111.5 327.7,111.4 327.5,111.4 327.5,111.2 327.3,111.2 327.3,111.1 326.8,111.1 326.8,111 326.7,111 326.7,110.8 
		326.6,110.8 326.6,110.7 326.5,110.7 326.5,110.3 326.4,110.3 326.4,110.2 326.3,110.2 326.3,109.9 326.2,109.9 326.2,109.8 
		325.9,109.8 325.9,109.6 325.3,109.6 325.3,109.5 325,109.5 325,109.4 324.9,109.4 324.9,109.2 324.8,109.2 324.8,108.8 
		324.7,108.8 324.7,108.7 324.6,108.7 324.6,108.6 324.3,108.6 324.3,108.4 323.9,108.4 323.9,108.3 323.7,108.3 323.7,108.2 
		323.5,108.2 323.4,108.2 323.4,108 323.4,108 323.3,108 323.3,107.9 323.3,107.8 323.2,107.8 323.2,107.6 323.1,107.6 323.1,107.5 
		323,107.5 323,107.4 322.8,107.4 322.5,107.4 322.5,107.2 322.4,107.2 322.4,107.1 322.2,107.1 322.2,106.9 322,106.9 322,106.8 
		321.9,106.8 321.9,106.5 321.8,106.5 321.8,106.3 321.6,106.3 321.6,106.1 321.4,106.1 321.4,106 321.3,106 321.3,106 321.3,105.9 
		321.2,105.9 321.2,105.7 321.1,105.7 321.1,105.6 321,105.6 321,105.5 320.9,105.5 320.9,105.3 321,105.3 321,105.2 320.9,105.2 
		320.9,105.1 321,105.1 321,104.5 321.1,104.5 321.1,104.4 320.6,104.4 320.6,104.3 320.5,104.3 320.5,104.1 320.4,104.1 320.4,104 
		320.3,104 320.3,103.7 320.2,103.7 320.2,103.6 320,103.6 320,103.7 319.9,103.7 319.9,103.6 318.1,103.6 318.1,103.5 317.9,103.5 
		317.9,103.2 317.8,103.2 317.8,103.1 317.9,103.1 317.9,102.8 317.6,102.8 317.6,102.9 317.5,102.9 317.5,103.1 317.4,103.1 
		317.4,103.3 317.1,103.3 317.1,103.2 316.9,103.2 316.9,103.1 316.6,103.1 316.5,103.1 316.5,103 316.5,102.9 316.5,102.9 
		316.1,102.9 316.1,102.8 315.6,102.8 315.6,102.6 315.3,102.6 315.3,102.5 315.1,102.5 315.1,102.4 314.9,102.4 314.9,102.2 
		314.7,102.2 314.7,102.1 314.5,102.1 314.5,102 314.3,102 314.3,101.8 314.1,101.8 314.1,101.7 314,101.7 314,101.4 313.9,101.4 
		313.9,100.8 314,100.8 314,100.6 314.1,100.6 314.1,100.4 314.2,100.4 314.2,100 314.2,99.7 314.1,99.7 314.1,99.6 313.5,99.6 
		313.2,99.6 313.2,99.4 313.1,99.4 313,99.4 313,99.3 312.5,99.3 312.5,99 312.4,99 312.4,98.9 311.6,98.9 311.6,98.8 310.8,98.8 
		310.8,98.6 310,98.6 310,98.8 309.6,98.8 309.6,98.9 309.5,98.9 309.5,99 307.7,99 307.7,99.2 306.9,99.2 306.9,99.3 306.7,99.3 
		306.7,99.4 306.6,99.4 306.6,99.3 306.5,99.3 306.5,99.4 306.4,99.4 306.4,99.3 306,99.3 306,99.2 305.6,99.2 305.6,99 305,99 
		305,98.9 304.5,98.9 304.5,99 304.4,99 304.4,99.2 304.3,99.2 304.3,99.3 303.3,99.3 303.3,99.4 302.9,99.4 302.9,99.6 301.8,99.6 
		301.8,99.7 301.4,99.7 301.4,99.8 301.1,99.8 301.1,100 300.9,100 300.9,99.8 300.7,99.8 300.7,100 300.6,100 300.6,100.1 
		299.8,100.1 299.8,100.2 299.6,100.2 299.6,100.4 299,100.4 299,100.5 298.9,100.5 298.9,100.6 298.6,100.6 298.6,100.8 
		298.3,100.8 298.3,100.9 298,100.9 298,101 297.7,101 297.7,100.9 297,100.9 297,101 295.8,101 295.8,101.2 295.6,101.2 
		295.6,101.4 294.3,101.4 294.3,101.6 293.8,101.6 293.8,101.4 293.2,101.4 293.2,101.6 293.1,101.6 293.1,101.7 292.3,101.7 
		292.3,101.8 292.1,101.8 292.1,102 291.7,102 291.7,101.8 291.2,101.8 291.2,101.7 291,101.7 291,101.8 290.6,101.8 290.6,102 
		290.4,102 290.4,102.1 289.9,102.1 289.9,102.2 289.5,102.2 289.5,102.1 289.3,102.1 289.3,102 288.7,102 288.7,102.1 288.2,102.1 
		288.2,102.2 287.8,102.2 287.8,102.4 287.7,102.4 287.7,102.2 286.4,102.2 285,102.2 285,102.4 282.4,102.4 282.4,102.1 
		282.3,102.1 282.3,102 279.9,102 279.9,101.8 279.4,101.8 279.4,101.7 278.9,101.7 278.9,101.8 278.5,101.8 278.5,102 278.2,102 
		278.2,101.8 277.9,101.8 277.8,101.8 277.8,101.7 277.5,101.7 277.5,101.6 277.3,101.6 277.3,101.4 277.2,101.4 277.2,101.2 
		277.1,101.2 277.1,100.6 277,100.6 277,100.5 276.8,100.5 276.8,100.4 276.7,100.4 276.7,100.5 275.9,100.5 275.9,100.4 
		275.8,100.4 275.8,100.2 275.6,100.2 275.6,100.1 275.5,100.1 275.5,99.8 275.6,99.8 275.6,99.7 275.7,99.7 275.7,99.6 276.1,99.6 
		276.1,99.4 277,99.4 277,99.6 277.3,99.6 277.3,99.7 277.5,99.7 277.5,99.6 277.8,99.6 277.8,99.3 277.3,99.3 277.3,99.2 
		276.8,99.2 276.8,99 275.9,99 275.9,99.2 275.7,99.2 275.7,99.3 275.4,99.3 275.4,99.4 275.3,99.4 275.3,99.6 275.2,99.6 
		275.2,99.8 275,99.8 275,99.7 274.8,99.7 274.8,99.6 274.5,99.6 274.5,99.4 274.3,99.4 274.3,99.3 274.1,99.3 274.1,99.2 274,99.2 
		274,99.3 273.8,99.3 273.8,99.2 273.4,99.2 273.4,99 272.9,99 272.9,98.9 272.4,98.9 272.4,98.8 272,98.8 272,98.6 271.6,98.6 
		271.6,98.5 270.9,98.5 270.9,98.4 270.5,98.4 270.5,98.2 270.2,98.2 270.2,98.4 270,98.4 270,98.2 269.7,98.2 269.7,98.1 
		269.3,98.1 269.3,97.9 269,97.9 269,97.8 268.9,97.8 268.9,97.7 268.9,97.5 268.8,97.5 268.8,97.3 268.7,97.3 268.7,97.1 
		268.6,97.1 268.6,97 268.5,97 268.5,96.7 268.4,96.7 268.4,96.6 267,96.6 267,96.5 266.8,96.5 266.8,96.6 266.7,96.6 266.7,96.7 
		266.5,96.7 266.5,96.6 266.4,96.6 266.4,96.5 266.3,96.5 266.3,96.3 266.2,96.3 266.2,95.9 266.1,95.9 266.1,96.1 266,96.1 
		266,96.3 265,96.3 265,96.2 264.8,96.2 264.8,96.1 264.7,96.1 264.7,95.8 264.8,95.8 264.8,95.7 264.6,95.7 264.6,95.5 264.5,95.5 
		264.5,94.9 264.4,94.9 264.4,94.7 264,94.7 264,94.9 263.6,94.9 263.6,95 262.8,95 262.8,95.1 261.8,95.1 261.8,95 261.2,95 
		261.2,95.1 260.4,95.1 260.4,95.3 259,95.3 259,95.1 258.8,95.1 258.8,95.3 258.1,95.3 258.1,95.1 258,95.1 258,95.3 257.9,95.3 
		257.9,95.1 256.6,95.1 256.6,95 256.3,95 256.3,94.9 255.5,94.9 255.5,94.7 254.7,94.7 254.7,94.6 254.6,94.6 254.6,94.2 
		254.5,94.2 254.5,94.1 254.4,94.1 254.4,94.1 254.4,94.2 253.8,97.3 252.7,100.6 249.2,110 246.3,115.4 245.4,117.4 243,124.6 
		242.3,127.2 237.4,134.7 235.6,138 234.7,140.3 233.8,144.2 233,148 232.1,150.4 229.3,155.9 227.4,160.7 223.8,167.1 221.8,171.8 
		219.5,176.1 218.5,178.4 217.6,182.3 216.3,192.2 215.4,191.4 214.6,191.3 213.8,191.6 213.2,192.3 212.9,193.1 212.8,194 
		213,195.1 213.8,196.9 216,200.9 218.1,205.6 221.7,212.1 223.8,216.9 225.8,220 230.6,226 232,228 235.3,234.9 236.8,236.9 
		242.2,243.9 243.4,246 246.1,251.8 248.2,254.9 252,260 254.7,269.7 256.2,277.5 257,279.9 259.6,285.5 260.3,288 260.8,290.6 
		261.4,293.1 262.2,295.5 263.4,297.4 266.1,300.5 266.2,309.9 270.3,318 272.7,323.9 274.9,328.2 275.9,330.5 276.7,334.4 
		277,341.2 278.3,346.3 280.8,351.9 281.6,354.4 282.1,357.3 282.9,364.6 283.4,367.5 284.2,370 286.2,374.4 287,376.9 287.5,379.8 
		288.3,387.1 288.8,390 289.6,392.5 292.1,398 292.7,400.8 293.2,406.5 293.4,418.2 293.9,422.5 294.9,426.3 297.4,431.9 298.2,436 
		298.5,440.3 298.5,452 298.8,454.8 299.3,457.5 300.4,459.9 301.1,461 302.7,462.7 304.6,464.2 309,466.4 312.2,468.7 315.3,471.4 
		320.4,476.4 324.2,479.6 326.3,480.9 330.9,483 337.1,486.7 340.6,488.2 342.7,489.4 344.7,490.8 350.4,495.8 353.5,497.9 
		358.1,500 364.3,503.8 368.9,505.8 374,508.6 376.3,509.2 377.5,509.3 380,509 382.1,508.1 386,506.1 388.2,505.5 393.9,501.8 
		397,500.2 399.5,499.4 404.5,498.2 412.8,499 416.7,499.8 419,500.7 424.3,503.6 428.9,505.6 434.1,508.5 436.4,509.5 442.6,510.9 
		445.1,511.6 450.4,514.2 452.8,515 455.3,515.4 463.1,516.2 465.6,516.8 466.8,517.2 468,517.8 470.3,519.3 477.6,525.3 
		479.9,526.6 484.3,528.7 490.3,532.3 497.9,532.8 508.7,533 516.4,532.9 522.4,532.5 526.8,531.6 531.9,529.2 534.6,528.2 
		543.1,526.6 546.4,525.6 548.7,522.9 551.7,518.9 553.5,515.7 553.9,514.4 554.4,511.7 554.4,509.1 554.2,507.7 553.5,505.1 
		552.1,502.6 549.4,499.4 542.5,492.1 540.7,489.9 539.4,487.4 538.9,486.1 538.4,483.4 538.1,479.4 538.2,473.8 538.7,467.1 
		538.3,459.7 538.2,452.7 538.1,442.8 538.3,437.3 538.6,434.6 539.4,432 540,430.8 541.5,428.4 544.1,425.2 550,419.1 555.1,414.2 
		558.3,411.5 560.5,410.1 565.1,408 570.3,405 576.1,402.5 582.3,398.9 585.8,397.4 588,396.2 589.9,394.8 592.7,392.3 598.3,386.3 
		598.1,379.7 597.6,377.1 597.2,375.8 596.7,374.6 595.4,372.5 593.8,370.5 592,368.7 590.1,367.1 588.1,365.6 585.9,364.4 
		582.5,362.9 580.3,361.5 577.2,358.9 569.4,351.3 566.3,348.8 564.1,347.6 559.6,345.5 554.4,342.3 547.6,339.4 544.9,340.4 
		541.1,341.1 537.2,341.2 534.6,340.8 532.2,340.1 523.6,335.8 521.5,334.5 519.8,332.8 518.3,330.8 517.7,329.7 516.9,326.9 
		516.5,324 516.5,319.5 516.7,315 517.8,307.8 516.8,300.5 516.6,291.5 516.9,284.2 517.9,280 518.9,277.7 521.1,273.4 523.1,268.7 
		526.1,263.3 528.7,257.5 532.2,251 534.1,246.2 537.6,239.8 539.6,235 543,228.5 544.1,225.5 546.6,221.5 548.1,219.5 551.4,215.6 
		555,212 557.8,209.5 559.8,208 561.8,207 565.5,205.4 566.5,204.8 568.5,203.4 571.3,200.9 574,198.2 582,189.6 603.8,189.7 
		608.5,189.5 611.5,189.1 614.4,188.4 616.5,187.3 626.6,180.9 622.7,174.4 621.3,170.8 620.7,167.9 619.9,160.6 619.4,157.8 
		618.6,155.3 616.2,149.7 615.6,147.1 615.1,143.1 614.6,134.7 615.3,125.2 615,102.2 615.1,96.1 615.6,91.6 616.3,88.7 619.2,82 
		621.6,73.7 622.7,71.4 624.8,68.5 625.7,62.3 626,54.5 629.2,50.5 630.6,48.4 631.7,46 633.7,41 633.8,39.8 634.2,39.1 634.9,38.5 
		635.3,38.3 636.3,37.3 637.2,36.6 	"/>
	<polygon class="st0" points="367.6,106.9 367.8,106.9 367.8,107.1 368.3,107.1 368.3,106.9 368.7,106.9 368.7,106.7 368.6,106.7 
		368.6,106.4 368.3,106.4 368.3,106.3 368.4,106.3 368.4,105.9 367.7,105.9 367.7,106.3 367.6,106.3 367.6,106.5 367.5,106.5 
		367.5,106.8 367.6,106.8 	"/>
</g>
</svg>
