<?xml version="1.0" encoding="utf-8"?>
<!-- Generator: Adobe Illustrator 24.2.3, SVG Export Plug-In . SVG Version: 6.00 Build 0)  -->
<svg version="1.1" id="Layer_1" xmlns="http://www.w3.org/2000/svg" xmlns:xlink="http://www.w3.org/1999/xlink" x="0px" y="0px"
	 viewBox="0 0 800 533" style="enable-background:new 0 0 800 533;" xml:space="preserve">
<style type="text/css">
	.st0{fill:#F2933D;stroke:#000000;stroke-width:0.4;stroke-miterlimit:9;}
</style>
<polygon class="st0" points="620.5,148.9 618.9,147.6 615.7,142.8 609.9,135.4 608.5,133.1 605.9,127.4 601.8,121.3 599.4,118.2 
	596.2,115.8 586.9,108.5 581.3,112 578.6,114.4 577.2,116.4 576.6,117.5 576.2,118.7 575.8,121.3 575.8,123.9 576,125.2 
	576.8,127.7 578.1,129.9 582.7,135.8 583.7,137.9 583.9,139.1 583.9,140.2 583.5,142.3 580.5,149.7 579.8,150.7 578.3,152.5 
	576.4,153.9 574.1,154.7 572.8,154.9 570.4,154.6 568.2,153.7 561.1,149.8 559.1,148.5 557.4,146.8 555.3,143.9 552.9,138.3 
	549,131.4 547.6,129.7 546.5,129.1 544.2,128.3 541.7,128 531.1,128.3 528.6,128.2 526.4,127.7 525.4,127.2 524.4,126.4 
	523.8,125.4 523.5,124.4 523.5,123.3 523.9,121.2 526.3,116.4 527.3,112.5 527.7,108.3 528.2,96.7 528.6,92.5 526.3,89.2 
	523.8,86.3 521,84 516.5,81.1 512.3,84.6 510.7,86.2 508.5,89.2 506.6,92.6 502.4,101 501.7,103.4 500.4,109.7 499.6,112 
	497.1,117.5 496.4,119.9 495.1,126.2 494.3,128.6 491.9,134 491.3,136.4 490.3,141.4 489.5,143.8 488.9,144.9 487.5,146.8 
	485.7,148.4 483.7,149.7 480.5,151.3 475.3,154 473,154.9 470.5,155.3 467.9,155.5 464,155.4 461.5,155.1 459,154.4 457.9,153.9 
	452.8,151 448.4,149 442.3,145.3 437.8,143.3 432.7,140.6 431.6,140.1 429.2,139.5 424.4,139.2 416.8,134.7 411.2,132.3 405,129 
	402.6,128.3 396.5,127 394.3,126.2 389.1,123.6 386.7,122.9 381.8,121.9 379.4,121.2 373.2,117.8 368.7,115.9 364.6,113.6 
	362.5,112.5 360.1,111.8 355.2,110.9 352.8,110.2 350.7,109.2 346.6,106.9 342.1,104.9 340,103.5 338,101.9 335.1,99.1 332.4,96.2 
	329.1,91.9 326.2,86.5 322.8,85.1 318,83.7 315.6,82.8 312.6,80.8 309.9,78.3 307.4,75.5 305.5,72.5 303.4,68.2 302.1,66.5 
	300.2,64.8 293.3,60.5 284.1,53.3 274.3,59.6 272.2,60.6 269.4,61.3 266.4,61.7 261.9,61.9 240.5,61.8 232.8,70.1 230.1,72.8 
	227.4,75.2 225.4,76.6 224.4,77.2 220.8,78.8 218.9,79.8 217,81.2 214.2,83.6 210.7,87.2 207.4,91 206,92.9 203.5,96.9 202.5,99.7 
	199.2,106.1 197.2,110.8 193.8,117.1 191.9,121.7 188.5,128 186,133.8 183.1,139 181.1,143.6 178.9,147.8 177.9,150 177,154.1 
	176.7,161.3 176.9,170 177.9,177.2 176.8,184.2 176.6,188.6 176.6,193 177,195.8 177.8,198.5 178.4,199.6 179.8,201.6 181.5,203.2 
	183.6,204.5 192,208.7 194.3,209.4 196.8,209.8 200.6,209.7 204.3,209 206.9,208 213.6,210.8 218.7,213.9 223.1,216 225.3,217.3 
	228.3,219.7 235.9,227.1 238.9,229.6 241,231 244.4,232.5 246.5,233.6 248.5,235 250.3,236.6 252,238.4 253.6,240.3 254.9,242.4 
	255.4,243.5 255.8,244.8 256.3,247.4 256.4,253.8 251,259.6 248.3,262.1 246.4,263.5 244.3,264.7 240.9,266.1 234.8,269.6 
	229.2,272 224.1,275 219.6,277 217.4,278.4 214.3,281 209.4,285.9 203.6,291.8 201,295 199.5,297.2 198.9,298.4 198.2,301 
	197.9,303.6 197.7,309 197.8,318.6 197.9,325.5 198.3,332.7 197.8,339.2 197.7,344.7 198,348.7 198.5,351.2 198.9,352.5 
	200.3,354.9 202,357.1 208.7,364.2 211.4,367.4 212.7,369.8 213.4,372.4 213.6,373.7 213.6,376.3 213.2,378.9 212.8,380.1 
	211,383.3 208,387.2 205.8,389.8 214.9,391.6 218.5,392.6 224.7,395.9 229.2,397.9 234.4,400.7 236.6,401.6 242.7,403 245.1,403.7 
	251.2,407 255.7,409 259.8,411.3 262,412.2 265.7,413.1 272.1,413.5 272.1,419 274.6,419.5 276.9,420.2 279.1,421.1 283.2,423.4 
	287.6,425.5 289.8,427 295.9,432.1 298,433.7 300.2,434.9 304.6,437 309.7,440 314.2,442.1 317.4,444.3 322.4,448.7 324.6,450.2 
	326.8,451.5 331.2,453.6 335.2,456 340.8,458.5 346.9,462 351.4,464 357.5,467.6 362,469.5 367.1,472.4 369.4,473.3 375.4,474.6 
	377.8,475.4 384.1,478.4 386.5,479.1 390.4,479.6 394.3,479.7 398.2,479.6 400.8,479.3 403.3,478.8 405.5,477.9 410.7,475.3 
	414.4,474.4 418.3,474.1 423.5,474 428.8,474.1 433.9,474.5 444.8,474.1 449.9,473.5 452.3,472.8 457.6,470.4 459.9,469.6 
	462.6,469 469.5,468.2 472.2,467.7 474.6,466.9 478.8,464.9 481.2,464.1 483.9,463.6 490.8,462.9 493.6,462.4 497,461 504,457 
	505.9,455.5 509,451.9 501.3,448.1 494.6,445.2 487.8,441.1 486.1,439.8 484.8,437.9 480.7,431 478.2,425.2 475.6,420.1 475,417.7 
	474.9,416.4 475,415.2 475.6,412.8 480.9,402.1 483,399.3 486.3,395.6 488.5,392.2 491.8,385.4 493.4,383.2 495.2,381 499.1,376.9 
	503.3,373.2 506.6,370.9 510.9,368.8 512.7,367.4 514.3,365.6 515,364.7 516.1,362.4 518.2,353.9 520.6,348.5 521.7,344.7 
	522.1,340.5 522.2,336.1 522.1,311.4 522.3,304.2 522.6,301.4 523.3,298.8 526.2,292.3 527.5,287.3 527.5,281.8 528,279.3 
	528.6,276.8 531.7,270.4 533.7,265.7 534.3,264.5 535.9,262.3 537.7,260.3 539.6,258.4 541.7,256.8 544,255.5 545.2,255 
	551.2,253.7 553.6,253 558.8,250.5 561.1,249.7 563.6,249.3 571.3,248.6 573.8,248.1 576.1,247.4 581.1,245.2 583.2,241.9 
	585.6,238.7 588.3,235.8 597.4,226.2 599.8,223.2 601.1,221 603.1,216.4 606.5,210.1 608.4,205.4 610.6,201.2 611.6,199 
	612.3,196.5 613.5,190.2 614.4,187.9 616.9,182.5 617.6,180.1 618.1,177.5 618.4,172.2 619,168.3 619.8,165.9 622.1,160.5 
	622.7,158 623.1,155.4 623.4,150 "/>
</svg>
