<?xml version="1.0" encoding="utf-8"?>
<!-- Generator: Adobe Illustrator 24.2.3, SVG Export Plug-In . SVG Version: 6.00 Build 0)  -->
<svg version="1.1" id="Layer_1" xmlns="http://www.w3.org/2000/svg" xmlns:xlink="http://www.w3.org/1999/xlink" x="0px" y="0px"
	 viewBox="0 0 800 533" style="enable-background:new 0 0 800 533;" xml:space="preserve">
<style type="text/css">
	.st0{fill:#F2933D;stroke:#000000;stroke-width:0.4;stroke-miterlimit:9;}
</style>
<polygon class="st0" points="650.1,302.5 649.6,301.3 647.1,295.4 639.7,287.7 623.2,276 617.3,264 614.8,261.8 610.7,259.8 
	609.6,259.3 604.2,259.2 601.3,259.2 599,258.4 597.2,251.9 596.8,250.3 593.7,245.9 591.6,240.9 589.3,238 586.3,236.6 
	575.2,234.4 569.6,231.7 567.9,230 570.6,216.2 574.7,213.9 575.7,212.1 575.1,207.5 571.1,197.8 571.1,197.7 571.2,193 
	574.7,182.5 572.9,178.2 573.3,176.6 574.2,175.6 578.9,170.3 580.9,167.1 580.8,153.7 579.6,151.5 577.7,149.7 571.7,147.2 
	565.7,138.6 562.3,136.8 561.6,135.8 560.1,133.2 560.2,130.7 560.7,128.5 563.8,123.3 564.3,123 568.5,119.7 571.3,116.6 
	578.7,106.3 580.7,99.8 579.4,95 577.8,92.4 572.1,87.9 570.8,81.7 569.6,80.3 567.3,77.6 565.9,77.1 561.1,78.3 557.8,75.5 
	556.2,77.6 556.3,77.7 551.9,84.5 546.6,90.9 544.3,94.2 543,96.5 541.5,100 540.1,102.3 537.5,105.5 534.7,108.6 527.8,115.7 
	523.7,119.4 520.5,121.7 517.1,123.4 514.9,124.6 512.8,126.2 507.7,130.6 505.5,132.1 503,133.2 500.5,133.7 497.9,133.9 
	494,133.8 491.4,133.4 489,132.7 483.8,129.9 482.7,129.4 480.2,128.7 477.7,128.3 475.1,128.2 472.4,128.2 469.9,128.6 
	467.4,129.2 466.3,129.7 461.1,132.7 456.5,134.8 450.4,138.5 442.1,142.5 440,142.9 438.9,142.8 436.9,142.2 433.3,140.3 
	431.6,139.1 430.8,138.2 430.3,137.1 430.1,136 430.1,134.8 430.7,132.6 433.4,127.7 435.5,123.1 438.5,117.8 439.4,115.4 
	440,111.4 440.1,108.7 440.1,106 439.7,103.3 439.1,100.7 436.6,95.3 435.7,92.9 434.5,86.5 433.8,84 432.5,81.6 431,79.4 
	428.2,76.6 426.2,75.3 425.1,74.8 423.9,74.6 422.8,74.7 420.8,75.4 413.5,78.8 407.4,82.5 402.8,84.5 396.6,88.2 392,90.2 
	385.8,93.8 381.3,95.8 376.1,98.7 375,99.2 372.5,99.9 369.9,100.3 365.9,100.5 362,100.4 358,100 354.3,99.1 349,96.5 346.7,95.6 
	344.2,95.1 340.7,94.8 332,99.3 327.3,101.3 321,104.9 318.2,106 313.1,107.4 307.2,106.5 298.9,105.5 296.3,104.9 293.7,103.9 
	288.7,101.1 284.2,99 279.3,96.3 276.8,95.4 274.3,95.1 271.7,95.1 269.2,95.5 266.7,96.3 261.7,98.7 257.6,99.7 250.2,100.2 
	235.2,100.3 227.8,100.1 222,99.5 219.6,98.8 213.2,95.9 209,94.9 201.7,94.4 186.7,94.5 186.3,96.2 185.9,97 185.2,97.8 
	184.4,98.3 183.4,98.6 182.3,98.6 181.3,98.4 179.4,97.4 176,94.5 170.6,94.5 170.6,106.4 170.4,110.7 170,113.6 169.3,116.3 
	168.8,117.7 166.1,122.8 164.1,127.5 161.5,132.6 160.5,135.3 160,138.2 159.8,141.2 159.7,157.8 159.1,163.6 158.5,166.4 
	155.2,174.3 153,183 150.1,189.7 149.4,192.5 148.9,197.1 148.7,201.7 148.8,242 148.8,259.9 149,269.7 148.7,275.5 148.9,279.5 
	149.4,282.2 149.8,283.4 151,285.8 153.5,288.9 159.9,295.8 162.4,298.9 163.8,301.1 165.3,304.6 166.5,306.8 168.6,309.9 
	172.5,314.2 179.6,317.8 186.6,319.9 192.2,321.6 199.7,319.1 203.3,321.4 203.8,322.5 205.3,325.7 209.2,326.9 217.7,329.5 
	231.9,332.1 242.8,332.3 245.7,330.2 247.3,330 249.9,332.3 251.2,332.4 255,330.6 257,330.6 260.9,332.5 263.5,332.5 267.4,331.1 
	279.9,332.6 280.2,332.7 296.5,332.9 305.4,331.6 314.3,330.4 327,325.2 330.9,322.6 334.1,320.4 334.1,319.9 339.8,310.9 
	340.2,308.9 341,305.4 343.9,302.7 346.5,301.7 351.2,299.9 351.3,299.9 353.2,299.2 354.4,298.2 356.1,295.9 359.9,290.5 
	362.3,287.2 363.4,287.1 364.8,288.8 365.9,289.1 373.6,288.5 376.8,290.2 378.5,291.2 381.2,291.8 385.4,292.8 391.8,293.1 
	398.5,292.1 400.7,291.8 402.5,291.5 407.7,296.2 412,298.7 416.2,299.3 421.4,303.2 428.4,306.4 429,306.6 436.8,309.1 447.5,322 
	447.7,322.2 451.7,329.5 452.8,334.1 451.7,345 452.2,346 455.8,354.4 455.7,358.9 452.7,365 448,368.3 444.3,368.9 443.6,369 
	440.9,368.3 440.5,368.2 438.5,367.6 436.9,372 435.4,375.7 433.3,378.2 429.6,382.7 426.4,387.6 424.3,392.5 424.2,395.7 
	424.3,396.4 425.4,401 428.7,407.5 432,411.3 437.7,415.6 438.3,416.1 438.6,416.3 440.2,418.6 440.7,420.6 440.4,421.5 
	438.7,426.3 439,429.8 445,441 448.1,450.8 450.1,452.8 451.1,453.7 452.8,454.5 452.9,454.5 460.5,454.6 463.8,456.7 466.4,458.4 
	466.9,455.4 467.7,451 467.8,450.8 470.4,446.7 470.7,446.7 470.7,446.2 472.5,443.5 474.6,440.1 481.3,432.9 482.6,430 
	482.5,427.9 476.7,421.8 476.6,420.6 477.5,419 480,417.2 484.7,415.5 488.3,415.6 497.2,415.9 504.5,412.3 505.8,411.9 
	515.5,409.1 521.8,405 522.7,404.5 535.1,397.8 538.1,394.8 538.4,393.1 538.9,390.4 539,390 541,387.1 544.7,384.7 546,384.4 
	546,384.4 550.4,383.7 554,376.8 558.7,369.6 562,365.8 568.2,363.2 573.7,358.2 576.4,355.7 578.3,354.6 580.5,353.2 583.1,352.9 
	585.7,353.8 591.7,357 592,357.1 595.1,358.8 598.3,359.3 598.8,359.4 606.2,358.7 609.5,359.2 615,360.8 619.9,363.2 622.5,364.5 
	622.9,364.2 625.6,362.5 628.3,362.5 631.1,364.5 632.5,365.5 633.3,366.1 640.5,371.7 640.9,370.3 641.3,368.7 641.1,365.6 
	640.5,363.3 635.1,356.9 634.5,355.2 634.3,354.7 634.1,353.5 630.9,335.4 631.2,333.5 633.5,329.1 637.8,324.5 644.7,319.3 
	644.9,319.1 649.4,313.8 650.9,311.2 651.2,309 651.3,305.6 "/>
</svg>
