<?xml version="1.0" encoding="utf-8"?>
<!-- Generator: Adobe Illustrator 24.2.3, SVG Export Plug-In . SVG Version: 6.00 Build 0)  -->
<svg version="1.1" id="Layer_1" xmlns="http://www.w3.org/2000/svg" xmlns:xlink="http://www.w3.org/1999/xlink" x="0px" y="0px"
	 viewBox="0 0 800 533" style="enable-background:new 0 0 800 533;" xml:space="preserve">
<style type="text/css">
	.st0{fill:#F2933D;stroke:#000000;stroke-width:0.4;stroke-miterlimit:9;}
</style>
<g>
	<polygon class="st0" points="382.9,148.7 382.9,149 383,149 383,149.1 383.1,149.1 383.1,149.2 383.2,149.2 383.2,149.3 
		383.4,149.3 383.4,149.4 383.5,149.4 383.5,149.5 383.7,149.5 383.7,149.4 384.3,149.4 384.3,149.2 384,149.2 384,149.1 
		383.6,149.1 383.6,149 383.6,149 383.6,148.8 383.2,148.8 383.2,148.7 	"/>
	<polygon class="st0" points="531.7,326.4 531.4,325.7 530.8,324.2 530.7,322.3 532.6,318.2 532.9,316.7 533,316.2 531.4,314.4 
		524.5,312.3 523.9,309.5 523.9,307.7 523.9,307.7 523.9,305.9 523.9,303.1 523.1,301.5 521.1,300 518.4,299.2 515.8,299.4 
		515.3,299.4 510.1,302 507.2,302.4 506.1,301.6 506.1,300.5 507.3,297.4 509.1,295.4 510.9,293.3 511.9,292.2 511.9,290.1 
		509.7,284.2 510.7,279.1 510.4,277.9 508.4,277.3 505.8,277.8 503.6,277.4 501.9,276.7 500.7,275.3 500,273.7 499.5,269.9 
		497.1,264.8 496.7,259.5 496.1,258 494.7,257 494.7,256.7 494.5,248.2 490.7,241.2 491.3,238.9 490.1,236.9 490.2,235.3 496.1,231 
		499,226.9 501.3,221.1 502.2,216.6 502.7,214.1 503.8,211.7 505,205 504.7,200.4 504,196.7 500.3,185.1 500.4,183 500.6,181.7 
		501.5,177.5 505.7,169.2 506.4,168.9 509.3,165.9 511.9,160 514.6,156.2 515.1,153.7 514.5,150.4 514,147.3 512.3,143.8 
		511.2,141.7 510.8,139.9 511.7,135.8 513.4,132.5 517.2,127.9 517.3,127.8 524.3,119.5 526.6,115.1 526.7,112.8 526.7,112.6 
		526.7,112.2 526.4,111.2 523.7,105.4 523.8,105.2 522.2,104.4 518.3,105 515.7,105 514,104.7 513.2,104.5 511.4,103.5 509.9,102.3 
		506.1,99.1 504.5,97.9 503,97 500.1,95.6 498.5,94.5 496.2,92.5 490.3,86.7 488,84.8 486.3,83.7 482.7,82 480.2,80.3 478,78.2 
		472.8,73.1 470.6,71 469,69.8 464.5,66.8 463.1,65.9 461.7,64.8 460.5,63.3 458.1,60 442.3,60.4 437.4,60.3 433.8,60 430.3,59.2 
		424.2,56 420,54.1 418.3,51.5 416.1,47.1 415,45.5 413.7,44.1 411.3,42.4 403.5,38.5 400.2,37.8 392.2,37.5 388.9,37.1 385.9,36.2 
		381.6,34.1 379.5,33.5 377.2,33.2 371.4,33 355,33.1 347.3,32.8 341.5,32 339.4,33.8 337.4,36.5 335,38.5 332.8,40.9 328.1,44 
		325.7,46.2 323.2,48.5 316.1,56 314,58.6 312.9,60.5 311.2,64.3 308.3,69.4 306.7,73.2 304.5,77.4 304,79.3 304,80.3 304.3,82.4 
		304.7,83.3 305.8,84.9 307.9,86.9 310.2,88.5 310.3,88.5 310.3,88.3 310.4,88.3 310.4,88.2 310.5,88.2 310.5,88.1 310.8,88.1 
		310.8,88.2 310.9,88.2 310.9,88.3 311,88.3 311,88.5 311,88.5 311,88.6 311.1,88.6 311.1,88.8 311.2,88.8 311.2,88.9 311.4,88.9 
		311.4,89 311.4,89 311.4,89.1 311.7,89.1 311.7,89.2 311.8,89.2 311.8,89.3 311.8,89.3 311.9,89.3 311.9,89.4 311.9,89.4 
		311.9,89.5 312,89.5 312,89.6 312.1,89.6 312.1,89.7 312.3,89.7 312.3,89.8 312.3,89.8 312.3,90 312.4,90 312.4,90.2 312.5,90.2 
		312.5,90.3 312.6,90.3 312.6,90.4 312.7,90.4 312.7,90.5 312.8,90.5 312.8,90.6 313,90.6 313,91.6 312.9,91.6 312.9,92 313,92 
		313,92.1 313.1,92.1 313.1,92.3 313.1,92.3 313.1,92.9 313.1,92.9 313.1,93.1 313.1,93.1 313.1,93.5 313.2,93.5 313.2,94 313.3,94 
		313.3,94.4 313.5,94.4 313.5,94.5 313.6,94.5 313.6,94.4 313.8,94.4 313.8,94.3 313.7,94.3 313.7,94.2 313.8,94.2 313.8,94 
		313.9,94 313.9,93.9 313.8,93.9 313.8,93.6 313.7,93.6 313.7,93.3 313.6,93.3 313.6,92.9 313.5,92.9 313.5,91.8 313.5,91.8 
		313.5,91 313.4,91 313.4,90.6 313.3,90.6 313.3,90.5 313.2,90.5 313.2,90.3 313.1,90.3 313.1,90.2 313.1,90.2 313.1,90.1 
		312.9,90.1 312.9,90 312.8,90 312.8,89.8 312.7,89.8 312.7,89.7 312.6,89.7 312.6,89.6 312.5,89.6 312.5,89.5 312.4,89.5 
		312.4,89.4 312.3,89.4 312.3,89.2 312,89.2 312,89 311.9,89 311.9,88.9 311.8,88.9 311.8,88.8 311.6,88.8 311.6,88.2 311.7,88.2 
		311.7,88.1 311.8,88.1 311.8,88 311.9,88 311.9,87.9 312.1,87.9 312.1,87.5 311.4,87.5 311.4,87.4 311.4,87.4 311.4,87.3 
		311.3,87.3 311.3,87.2 311.2,87.2 311.2,87.1 311.1,87.1 311.1,86.8 311,86.8 311,86.3 311.1,86.3 311.1,86.1 311.2,86.1 311.2,86 
		311.3,86 311.3,85.9 311.4,85.9 311.4,85.8 311.7,85.8 311.7,85.7 311.9,85.7 311.9,85.5 312,85.5 312,85.7 312.1,85.7 312.1,85.5 
		312.3,85.5 312.3,85.4 312.4,85.4 312.4,85.3 312.6,85.3 312.6,85.2 313,85.2 313,85.1 313.1,85.1 313.1,85 313.1,85 313.1,84.9 
		313.2,84.9 313.2,84.7 313.4,84.7 313.4,84.6 314,84.6 314.3,84.6 314.3,84.5 314.9,84.5 314.9,84.4 315,84.4 315,84.5 315.6,84.5 
		315.6,84.4 315.7,84.4 315.7,84.3 316.1,84.3 316.1,84.1 316.1,84.1 316.1,84 316.2,84 316.2,83.9 316.4,83.9 316.4,83.8 
		316.5,83.8 316.5,83.7 316.5,83.7 316.5,83.6 316.6,83.6 316.6,83.5 316.7,83.5 316.7,83.4 316.8,83.4 316.8,83.3 316.9,83.3 
		316.9,83.2 316.9,83.2 316.9,83.3 317.1,83.3 317.1,83.2 317.2,83.2 317.2,83.1 317.3,83.1 317.3,83 317.4,83 317.4,82.6 
		317.5,82.6 317.5,82.5 317.6,82.5 317.6,82.4 317.7,82.4 317.7,82.3 317.7,82.3 317.7,82 317.8,82 317.8,81.9 317.9,81.9 
		317.9,81.7 317.9,81.7 318,81.7 318,81.6 318.1,81.6 318.1,81.5 318.2,81.5 318.2,81.2 318.2,81.2 318.2,81 318.3,81 318.3,80.9 
		318.3,80.8 318.4,80.8 318.4,80.7 318.5,80.7 318.5,80.4 318.6,80.4 318.6,80.3 318.5,80.3 318.5,80.1 318.6,80.1 318.6,79.6 
		318.6,79.6 318.6,79.5 318.7,79.5 318.7,79.4 318.8,79.4 318.8,79.3 318.9,79.3 318.9,79.2 319,79.2 319,79.1 319.1,79.1 319.1,79 
		319.3,79 319.3,78.9 319.4,78.9 319.4,78.8 319.5,78.8 319.5,78.7 319.8,78.7 319.8,78.5 320.3,78.5 320.3,78.4 320.6,78.4 
		320.6,78.3 320.8,78.3 320.8,78.2 320.9,78.2 321.1,78.2 321.1,78.1 321.3,78.1 321.3,78 321.4,78 321.4,77.9 321.5,77.9 
		321.5,77.8 321.6,77.8 321.6,77.7 321.9,77.7 321.9,77.6 322,77.6 322,77.5 322.2,77.5 322.2,77.4 322.3,77.4 322.3,77.3 
		322.3,77.3 322.3,77 322.4,77 322.4,76.9 322.5,76.9 322.5,76.9 322.5,76.7 322.7,76.7 322.7,76.5 322.8,76.5 322.8,76.4 
		322.9,76.4 322.9,76.2 323,76.2 323,76.1 323.2,76.1 323.2,75.9 323.2,75.9 323.2,75.7 323.4,75.7 323.4,75.5 323.5,75.5 
		323.5,75.4 323.6,75.4 323.6,75.3 323.6,75.3 323.6,75.2 323.9,75.2 323.9,75.3 324,75.3 324,75.5 324.1,75.5 324.1,76 324.2,76 
		324.2,76.1 324.2,76.2 324.3,76.2 324.3,76.3 324.4,76.3 324.4,76.4 324.5,76.4 324.5,76.5 324.5,76.5 324.5,76.6 324.6,76.6 
		324.6,76.7 324.7,76.7 324.7,77.1 324.7,77.6 324.6,77.6 324.6,77.8 324.5,77.8 324.5,77.9 324.5,77.9 324.5,78.2 324.6,78.2 
		324.6,78.3 324.7,78.3 324.7,78.4 324.8,78.4 324.8,78.3 324.9,78.3 324.9,78.2 324.9,78.2 324.9,78 325,78 325,77.6 325.1,77.6 
		325.1,77.1 325.2,77.1 325.2,77 325.1,77 325.1,76.9 325.1,76.9 325,76.9 325,76.8 324.9,76.8 324.9,76.7 324.9,76.7 324.9,76.5 
		324.8,76.5 324.8,76.2 324.7,76.2 324.7,75.9 324.7,75.9 324.6,75.9 324.6,75.5 324.5,75.5 324.5,75.2 324.5,75.2 324.5,75.1 
		324.4,75.1 324.4,74.6 324.5,74.6 324.5,74.5 324.5,74.5 324.5,74.2 324.5,74.2 324.5,74 324.5,74 324.5,73.9 324.6,73.9 
		324.6,73.8 324.7,73.8 324.7,73.7 324.9,73.7 324.9,73.6 324.9,73.6 324.9,73.5 325,73.5 325,73.4 325.3,73.4 325.3,73.3 
		325.5,73.3 325.5,73.2 325.7,73.2 325.7,73.3 325.8,73.3 325.8,73.4 325.9,73.4 325.9,73.5 326,73.5 326,73.6 325.9,73.6 
		325.9,73.7 326,73.7 326,74 326.1,74 326.1,74.1 326.1,74.1 326.1,74.3 326.2,74.3 326.2,74.5 326.3,74.5 326.3,74.6 326.5,74.6 
		326.5,74.7 326.5,74.7 326.5,75.1 326.6,75.1 326.6,75.4 326.7,75.4 326.7,75.5 326.8,75.5 326.8,75.6 326.9,75.6 326.9,75.9 
		327,75.9 327,76.1 327.1,76.1 327.1,76.5 327,76.5 327,76.6 327,76.6 327,76.7 326.9,76.7 326.9,77.1 326.8,77.1 326.8,77.3 
		326.9,77.3 326.9,78 327,78 327,77.9 327.1,77.9 327.1,77.8 327.3,77.8 327.3,77.7 327.4,77.7 327.4,77.5 327.4,77.5 327.4,77 
		327.5,77 327.5,76.6 327.6,76.6 327.6,76.3 327.5,76.3 327.5,76.1 327.4,76.1 327.4,75.6 327.4,75.6 327.4,75.5 327.3,75.5 
		327.3,75.3 327.2,75.3 327.2,75.1 327,75.1 327,74.9 326.9,74.9 326.9,74.7 326.8,74.7 326.8,74.5 326.7,74.5 326.7,74.4 
		326.7,74.2 326.6,74.2 326.6,74 326.5,74 326.5,73.9 326.5,73.9 326.5,73.8 326.4,73.8 326.4,73.6 326.3,73.6 326.3,72.9 
		326.4,72.9 326.4,72.8 326.5,72.8 326.5,72.7 326.6,72.7 326.6,72.6 326.7,72.6 326.7,72.5 326.9,72.5 326.9,72.4 327.1,72.4 
		327.1,72.3 327.3,72.3 327.3,72.2 327.5,72.2 327.5,72.1 327.7,72.1 327.7,72 327.8,72 327.8,71.9 327.9,71.9 327.9,71.8 
		327.8,71.8 327.8,71.7 327.9,71.7 327.9,71.5 328,71.5 328,71.7 328.2,71.7 328.2,71.5 328.3,71.5 328.3,71.4 328.4,71.4 
		328.4,71.3 328.6,71.3 328.6,71.2 328.8,71.2 328.8,71.1 329,71.1 329,71 329.1,71 329.1,70.9 329.3,70.9 329.3,70.8 329.4,70.8 
		329.5,70.8 329.5,70.7 329.7,70.7 329.7,70.6 329.9,70.6 329.9,70.5 329.9,70.5 329.9,70.4 330,70.4 330,70.3 330.1,70.3 
		330.1,70.1 330.3,70.1 330.3,70 330.3,70 330.3,69.9 330.4,69.9 330.4,69.8 330.6,69.8 330.6,69.7 330.7,69.7 330.7,69.5 
		330.7,69.5 330.7,69.3 330.8,69.3 330.8,69 331.4,69 331.4,68.9 331.5,68.9 331.5,68.7 332.2,68.7 332.2,68.9 332.4,68.9 332.4,69 
		332.7,69 332.7,68.9 332.8,68.9 332.8,69 333.2,69 333.2,69.1 333.6,69.1 333.6,69 334.4,69 334.4,69.1 334.5,69.1 334.5,69.3 
		334.6,69.3 334.6,69.4 334.7,69.4 334.7,69.5 334.8,69.5 334.8,69.6 335,69.6 335,69.5 335.1,69.5 335.1,69.4 335.5,69.4 
		335.5,69.5 335.7,69.5 335.7,69.6 335.8,69.6 335.8,69.7 335.9,69.7 335.9,69.8 336.2,69.8 336.2,69.9 336.4,69.9 336.4,70 
		336.5,70 336.5,70.1 336.6,70.1 336.6,70 336.8,70 336.8,69.9 337,69.9 337,70.1 337.3,70.1 337.3,70 337.4,70 337.4,70.1 
		337.6,70.1 337.6,70.3 337.5,70.3 337.5,70.4 337.6,70.4 337.6,70.5 337.7,70.5 337.7,70.6 337.8,70.6 337.8,70.7 337.9,70.7 
		337.9,70.8 338.2,70.8 338.2,70.9 338.3,70.9 338.3,71 338.3,71 338.3,71.1 338.6,71.1 338.6,71.2 338.8,71.2 338.8,71.1 
		339.2,71.1 339.2,71.2 339.3,71.2 339.3,71.3 339.4,71.3 339.4,71.4 339.5,71.4 339.5,71.5 339.7,71.5 339.7,71.4 339.8,71.4 
		339.8,71.3 340,71.3 340,71.4 340.1,71.4 340.1,71.5 340.2,71.5 340.2,71.8 340.3,71.8 340.3,72 340.4,72 340.4,72.2 340.5,72.2 
		340.5,72.3 340.7,72.3 340.7,72.4 340.8,72.4 340.8,72.3 341,72.3 341,72.4 341.2,72.4 341.2,72.5 341.3,72.5 341.3,72.6 
		341.4,72.6 341.4,72.7 341.6,72.7 341.6,72.9 341.7,72.9 341.7,73.1 341.9,73.1 341.9,73.2 342.1,73.2 342.1,73.1 342.3,73.1 
		342.3,73.2 342.4,73.2 342.4,73.3 342.5,73.3 342.5,73.4 342.9,73.4 342.9,73.5 343.1,73.5 343.1,73.6 343.3,73.6 343.3,73.7 
		343.6,73.7 343.6,73.6 343.7,73.6 343.7,73.5 344.2,73.5 344.2,73.6 344.2,73.6 344.2,73.7 344.3,73.7 344.3,73.8 344.4,73.8 
		344.4,73.9 344.6,73.9 344.6,74 344.9,74 344.9,74.1 345,74.1 345,74.2 345.1,74.2 345.1,74.3 345.3,74.3 345.3,74.5 345.4,74.5 
		345.4,74.6 346.1,74.6 346.1,74.5 346.2,74.5 346.2,74.6 346.3,74.6 346.3,74.8 346.4,74.8 346.4,75 346.5,75 346.5,75.3 
		346.7,75.3 346.7,75.4 346.9,75.4 346.9,75.5 347.2,75.5 347.2,75.6 347.4,75.6 347.4,75.7 347.5,75.7 347.5,75.9 347.7,75.9 
		347.7,76 347.9,76 347.9,76.1 347.9,76.1 347.9,76.2 348,76.2 348,76.3 348.2,76.3 348.2,76.4 348.3,76.4 348.3,76.5 348.4,76.5 
		348.4,76.6 348.5,76.6 348.5,76.7 348.7,76.7 348.7,76.8 349,76.8 349,76.9 349.2,76.9 349.2,77 349.7,77 349.7,77.1 349.8,77.1 
		349.8,77.5 349.9,77.5 349.9,77.6 350,77.6 350,77.7 350.1,77.7 350.1,77.8 350.4,77.8 350.4,77.9 350.5,77.9 350.5,78 350.5,78 
		350.5,78.1 351.1,78.1 351.1,78.2 351.3,78.2 351.3,78.3 351.3,78.3 351.3,78.4 351.4,78.4 351.4,78.5 351.5,78.5 351.5,78.7 
		351.6,78.7 351.6,78.8 352.1,78.8 352.1,78.9 352.1,78.9 352.1,79 352.2,79 352.2,79.2 352.3,79.2 352.3,79.3 352.5,79.3 
		352.5,79.4 352.7,79.4 352.7,79.5 352.9,79.5 352.9,79.6 353.4,79.6 353.4,79.7 353.4,79.7 353.4,79.4 353.4,79.4 353.4,79.3 
		353.2,79.3 353.2,79.2 353,79.2 353,79.1 352.9,79.1 352.9,79 352.8,79 352.8,78.9 352.5,78.9 352.5,78.8 352.4,78.8 352.4,78.7 
		352.3,78.7 352.3,78.5 352.2,78.5 352.2,78.2 352.1,78.2 352.1,78.1 352.2,78.1 352.2,78 352.5,78 352.5,77.9 352.6,77.9 352.6,78 
		352.7,78 352.7,78.1 352.8,78.1 352.8,78.2 353,78.2 353,78.3 353.2,78.3 353.2,78.4 353.3,78.4 353.3,78.7 353.4,78.7 353.4,78.8 
		353.8,78.8 353.8,78.7 354,78.7 354,78.5 354.2,78.5 354.2,78.7 354.3,78.7 354.3,78.8 354.2,78.8 354.2,78.9 354.2,78.9 354.2,79 
		354.1,79 354.1,79.1 354,79.1 354,79.3 353.9,79.3 353.9,79.5 353.8,79.5 353.8,79.7 353.8,79.7 353.8,79.8 353.7,79.8 353.7,79.9 
		353.6,79.9 353.6,80.2 353.5,80.2 353.5,80.4 353.8,80.4 353.8,80.3 353.9,80.3 353.9,79.9 354,79.9 354,79.7 354.1,79.7 
		354.1,79.5 354.3,79.5 354.3,79.6 354.4,79.6 354.4,79.5 354.5,79.5 354.5,79.4 354.7,79.4 354.7,79.6 354.7,79.6 354.7,79.7 
		354.9,79.7 354.9,79.8 355.3,79.8 355.3,79.9 355.4,79.9 355.4,80.1 355.3,80.1 355.3,80.3 355.2,80.3 355.2,80.4 355.1,80.4 
		355.1,80.5 355.1,80.5 355.1,80.6 354.8,80.6 354.8,80.5 354.7,80.5 354.7,80.4 354.6,80.4 354.6,80.3 354.5,80.3 354.5,80.2 
		354.4,80.2 354.4,80.3 354.2,80.3 354.2,80.6 354.4,80.6 354.4,80.7 354.6,80.7 354.6,80.8 354.7,80.8 354.7,80.9 354.9,80.9 
		354.9,81 355,81 355,81.1 355.1,81.1 355.1,81.2 355.3,81.2 355.3,81.3 355.4,81.3 355.4,81.5 355.5,81.5 355.5,81.6 355.5,81.6 
		355.5,81.7 355.7,81.7 355.7,81.8 355.9,81.8 355.9,81.9 356.1,81.9 356.1,82.1 356.2,82.1 356.2,82.2 356.7,82.2 356.7,82.3 
		356.7,82.3 356.7,82.6 356.8,82.6 356.8,82.7 356.9,82.7 356.9,82.9 357.4,82.9 357.4,83 357.5,83 357.5,83.1 357.6,83.1 
		357.6,83.2 357.9,83.2 357.9,83.3 358.1,83.3 358.1,83.4 358.2,83.4 358.2,83.5 358.4,83.5 358.4,83.6 358.4,83.6 358.4,83.7 
		358.5,83.7 358.5,83.8 358.6,83.8 358.6,83.9 358.8,83.9 358.8,84 358.9,84 358.9,84.1 359,84.1 359,84.3 359.1,84.3 359.1,84.4 
		359.3,84.4 359.3,84.5 359.4,84.5 359.4,84.6 359.5,84.6 359.5,84.8 359.7,84.8 359.7,84.9 359.9,84.9 359.9,85 360.1,85 
		360.1,85.1 360.1,85.1 360.1,85.2 360.3,85.2 360.3,85.3 360.4,85.3 360.4,85.4 360.5,85.4 360.5,85.5 360.6,85.5 360.6,85.7 
		360.8,85.7 360.8,85.8 360.9,85.8 360.9,85.9 361.1,85.9 361.1,86 361.2,86 361.2,86.1 361.6,86.1 361.6,86.2 361.7,86.2 
		361.7,86.3 361.9,86.3 361.9,86.4 362.1,86.4 362.1,86.5 362.2,86.5 362.2,86.6 362.4,86.6 362.4,86.7 362.6,86.7 362.6,86.8 
		362.6,86.8 362.6,86.9 362.6,86.9 362.8,86.9 362.8,87.1 363,87.1 363,87.2 363,87.2 363,87.3 363.4,87.3 363.4,87.4 363.5,87.4 
		363.5,87.5 364.1,87.5 364.1,87.6 364.2,87.6 364.2,87.7 364.3,87.7 364.3,87.8 364.3,87.8 364.3,87.9 364.5,87.9 364.5,88 
		364.6,88 364.6,88.1 364.7,88.1 364.7,88.2 364.8,88.2 364.8,88.3 364.9,88.3 364.9,88.5 365,88.5 365,88.6 365.1,88.6 365.1,88.5 
		365.1,88.5 365.1,88.6 365.4,88.6 365.4,88.7 365.5,88.7 365.5,89 365.6,89 365.6,89.1 365.6,89.1 365.6,89.3 365.7,89.3 
		365.7,89.6 365.5,89.6 365.5,90 365.6,90 365.6,90.1 365.8,90.1 365.8,90.2 365.9,90.2 365.9,90.3 366,90.3 366,90.4 366,90.4 
		366,90.5 366.2,90.5 366.2,90.6 366.3,90.6 366.3,90.7 366.4,90.7 366.4,90.8 366.5,90.8 366.5,90.9 366.6,90.9 366.6,91 366.7,91 
		366.7,91.1 366.8,91.1 366.8,91.2 366.9,91.2 366.9,91.4 367,91.4 367,91.5 367.1,91.5 367.1,91.6 367.2,91.6 367.2,91.7 
		367.2,91.7 367.2,91.9 367.3,91.9 367.3,92 367.6,92 367.6,92.1 367.7,92.1 367.7,92.2 367.8,92.2 367.8,92.3 367.9,92.3 
		367.9,92.4 368.1,92.4 368.1,92.5 368.1,92.5 368.1,92.6 368.2,92.6 368.2,92.8 368.3,92.8 368.3,92.9 368.5,92.9 368.5,93 
		368.5,93 368.5,93.1 368.7,93.1 368.7,93.2 368.8,93.2 368.8,93.3 368.9,93.3 368.9,93.5 368.9,93.5 368.9,93.7 369,93.7 369,93.8 
		369.1,93.8 369.1,93.9 369.3,93.9 369.3,94 369.3,94 369.3,94.2 369.4,94.2 369.4,94.4 369.5,94.4 369.5,94.5 369.7,94.5 
		369.7,94.6 369.7,94.6 369.7,94.7 369.8,94.7 369.8,95 369.9,95 369.9,95.1 370.1,95.1 370.1,95.2 370.2,95.2 370.2,95.3 
		370.3,95.3 370.3,95.7 370.2,95.7 370.2,95.8 370.2,95.8 370.2,95.9 370.1,95.9 370.1,96 370,96 370,96.1 369.9,96.1 369.9,96.2 
		369.7,96.2 369.7,96.3 369.7,96.3 369.7,96.4 369.5,96.4 369.5,96.5 369.4,96.5 369.4,96.6 369.3,96.6 369.3,96.7 369.2,96.7 
		369.2,96.8 369.1,96.8 369.1,97 368.9,97 368.9,97.1 368.9,97.1 368.9,97.2 368.7,97.2 368.7,97.3 368.6,97.3 368.6,97.4 
		368.5,97.4 368.5,97.5 368.4,97.5 368.4,97.6 368.2,97.6 368.2,97.7 368.1,97.7 368.1,97.8 368,97.8 368,97.9 367.9,97.9 367.9,98 
		367.8,98 367.8,98.1 367.7,98.1 367.7,98.2 367.6,98.2 367.6,98.4 367,98.4 367,98.7 367.1,98.7 367.1,98.8 367.2,98.8 367.2,98.9 
		367.3,98.9 367.3,99 367.5,99 367.5,99.1 367.7,99.1 367.7,99 367.6,99 367.6,98.8 367.7,98.8 367.7,98.6 367.7,98.6 367.7,98.5 
		367.9,98.5 367.9,98.4 368,98.4 368,98.2 368.1,98.2 368.1,98.1 368.2,98.1 368.2,98 368.3,98 368.3,97.9 368.5,97.9 368.5,97.8 
		368.5,97.8 368.5,97.7 368.7,97.7 368.7,97.6 368.8,97.6 368.8,97.5 368.9,97.5 368.9,97.4 369,97.4 369,97.3 369.2,97.3 
		369.2,97.2 369.3,97.2 369.3,97.1 369.4,97.1 369.4,97 369.5,97 369.5,96.8 369.7,96.8 369.7,96.7 369.7,96.7 369.7,96.6 
		369.8,96.6 369.8,96.5 369.9,96.5 369.9,96.4 370.1,96.4 370.1,96.3 370.2,96.3 370.2,96.2 370.2,96.2 370.2,96.1 370.4,96.1 
		370.4,96 370.8,96 370.8,96.1 370.9,96.1 370.9,96.3 371,96.3 371,96.4 371.1,96.4 371.1,96.5 371.2,96.5 371.2,96.6 371.4,96.6 
		371.4,96.7 371.5,96.7 371.5,96.8 371.6,96.8 371.6,97 371.7,97 371.7,97.1 371.8,97.1 371.8,97.2 371.8,97.2 371.8,97.3 372,97.3 
		372,97.4 372.1,97.4 372.1,97.6 372.2,97.6 372.2,97.7 372.3,97.7 372.3,97.8 372.3,97.8 372.3,97.9 372.5,97.9 372.5,98 372.6,98 
		372.6,98.2 372.7,98.2 372.7,98.5 372.7,98.5 372.7,98.6 372.9,98.6 372.9,98.7 373,98.7 373,98.9 373.1,98.9 373.1,99 373.1,99 
		373.1,99.1 373.2,99.1 373.2,99.2 373.3,99.2 373.3,99.3 373.4,99.3 373.4,99.4 373.5,99.4 373.5,99.5 373.5,99.5 373.5,99.8 
		373.6,99.8 373.6,100 373.8,100 373.8,100.1 373.9,100.1 373.9,100.2 373.9,100.2 373.9,100.3 374,100.3 374,100.5 374.1,100.5 
		374.1,100.6 374.2,100.6 374.2,100.8 374.3,100.8 374.3,100.9 374.4,100.9 374.4,101 374.4,101 374.4,101.2 374.5,101.2 
		374.5,101.3 374.6,101.3 374.6,101.4 374.7,101.4 374.7,101.5 374.8,101.5 374.8,101.6 374.9,101.6 374.9,101.7 375,101.7 
		375,101.9 375.1,101.9 375.1,102.1 375.2,102.1 375.2,102.2 375.3,102.2 375.3,102.4 375.4,102.4 375.4,102.6 375.5,102.6 
		375.5,102.7 375.6,102.7 375.6,102.8 375.6,102.8 375.6,103 375.7,103 375.7,103.2 375.9,103.2 375.9,103.4 376,103.4 376,103.5 
		376.1,103.5 376.1,103.7 376.2,103.7 376.2,103.8 376.3,103.8 376.3,104 376.4,104 376.4,104.1 376.5,104.1 376.5,104.3 
		376.5,104.3 376.5,104.4 376.6,104.4 376.6,104.5 376.7,104.5 376.7,104.7 376.8,104.7 376.8,104.9 376.9,104.9 376.9,105.4 
		376.9,105.4 376.9,105.6 376.9,105.6 376.9,105.7 376.9,105.7 376.9,106 377,106 377,106.2 377.1,106.2 377.1,106.3 377.3,106.3 
		377.3,106.6 377.3,106.6 377.3,106.8 377.4,106.8 377.4,107 377.5,107 377.5,107.1 377.7,107.1 377.7,107.2 377.7,107.2 
		377.7,107.4 377.8,107.4 377.8,107.5 377.9,107.5 377.9,107.7 378,107.7 378,107.9 378.1,107.9 378.1,108.2 378.1,108.2 
		378.1,108.3 378.3,108.3 378.3,108.4 378.4,108.4 378.4,108.5 378.5,108.5 378.5,108.6 378.6,108.6 378.6,108.8 378.6,108.8 
		378.6,109 378.8,109 378.8,109.1 379,109.1 379,109.3 379.1,109.3 379.1,109.4 379.2,109.4 379.2,109.6 379.3,109.6 379.3,109.7 
		379.4,109.7 379.4,109.8 379.5,109.8 379.5,109.9 379.6,109.9 379.6,110 379.7,110 379.7,110.2 379.8,110.2 379.8,110.4 
		379.9,110.4 379.9,110.5 380,110.5 380,110.7 380.1,110.7 380.1,111.1 380,111.1 380,111.4 379.9,111.4 379.9,111.5 379.8,111.5 
		379.8,111.6 379.5,111.6 379.5,111.7 379.4,111.7 379.4,111.8 379.2,111.8 379.2,111.9 379.1,111.9 379.1,111.8 379,111.8 
		379,111.7 378.7,111.7 378.7,111.9 378.8,111.9 378.8,112 379,112 379,112.1 379.3,112.1 379.3,112 379.4,112 379.5,112 
		379.5,111.9 379.7,111.9 379.7,111.8 379.8,111.8 379.8,111.7 379.9,111.7 379.9,111.6 380.1,111.6 380.1,111.5 380.3,111.5 
		380.3,111.4 380.6,111.4 380.6,111.5 380.7,111.5 380.7,111.6 380.8,111.6 380.8,111.8 380.9,111.8 380.9,111.9 381,111.9 381,112 
		381.1,112 381.1,112.1 381.1,112.1 381.1,112.2 381.2,112.2 381.2,112.5 381.3,112.5 381.3,112.6 381.4,112.6 381.4,112.7 
		381.5,112.7 381.5,112.8 381.5,112.8 381.5,112.9 381.6,112.9 381.6,113.1 381.7,113.1 381.7,113.2 381.8,113.2 381.8,113.4 
		381.9,113.4 381.9,113.6 381.9,113.6 381.9,114.3 382,114.3 382,114.4 382.1,114.4 382.1,114.5 382.2,114.5 382.2,114.6 
		382.3,114.6 382.3,114.8 382.4,114.8 382.4,114.9 382.5,114.9 382.5,115 382.6,115 382.6,115.2 382.7,115.2 382.7,115.3 
		382.8,115.3 382.8,115.5 382.8,115.5 382.8,115.6 382.9,115.6 382.9,115.7 383,115.7 383,115.8 383.1,115.8 383.1,115.9 
		383.2,115.9 383.2,116.1 383.2,116.1 383.2,116.2 383.4,116.2 383.4,116.4 383.5,116.4 383.5,116.6 383.6,116.6 383.6,116.8 
		383.6,116.8 383.6,116.9 383.7,116.9 383.7,117 383.9,117 383.9,117.1 384,117.1 384,117.2 384,117.2 384,117.4 384.1,117.4 
		384.1,117.5 384.2,117.5 384.2,117.6 384.3,117.6 384.3,117.7 384.4,117.7 384.4,117.8 384.4,117.8 384.4,118.1 384.5,118.1 
		384.5,118.2 384.6,118.2 384.6,118.3 384.7,118.3 384.7,118.4 384.8,118.4 384.8,118.5 384.9,118.5 384.9,118.6 385,118.6 
		385,118.7 385.1,118.7 385.1,118.9 385.2,118.9 385.2,119 385.3,119 385.3,119.1 385.4,119.1 385.4,119.3 385.5,119.3 385.5,119.6 
		385.6,119.6 385.6,119.8 385.7,119.8 385.7,120 385.9,120 385.9,120.2 386.1,120.2 386.1,120.3 386.1,120.3 386.1,120.4 
		386.2,120.4 386.2,120.5 386.3,120.5 386.3,120.7 386.4,120.7 386.4,120.9 386.5,120.9 386.5,121 386.5,121 386.5,121.2 
		386.6,121.2 386.6,121.3 386.7,121.3 386.7,121.4 386.8,121.4 386.8,121.5 386.9,121.5 386.9,121.6 386.9,121.6 386.9,121.7 
		387,121.7 387,121.8 387.1,121.8 387.1,121.9 387.3,121.9 387.3,122.2 387.4,122.2 387.4,122.3 387.4,122.3 387.4,122.4 
		387.5,122.4 387.5,122.6 387.6,122.6 387.6,123 387.7,123 387.7,123.1 387.8,123.1 387.8,123.2 387.8,123.2 387.8,123.3 
		387.9,123.3 387.9,123.5 388.1,123.5 388.1,123.7 388.2,123.7 388.2,123.8 388.2,123.8 388.2,124.1 388.4,124.1 388.4,124.2 
		388.5,124.2 388.5,124.3 388.4,124.3 388.4,124.4 388.5,124.4 388.5,124.5 388.6,124.5 388.6,124.7 388.6,124.7 388.6,124.8 
		388.7,124.8 388.7,124.9 388.8,124.9 388.8,125.1 388.9,125.1 388.9,125.3 389,125.3 389,125.5 389,125.5 389,125.7 389.1,125.7 
		389.1,125.8 389.2,125.8 389.2,126.2 389.3,126.2 389.3,126.8 389.2,126.8 389.2,126.9 389.1,126.9 389.1,127 389,127 389,127.1 
		389,127.1 389,127.2 388.9,127.2 388.9,127.3 388.8,127.3 388.8,127.4 388.9,127.4 388.9,128.1 389,128.1 389,128.3 389,128.3 
		389,128.5 389.1,128.5 389.1,128.8 389.2,128.8 389.2,129 389.3,129 389.3,130.5 389.4,130.5 389.4,131 389.5,131 389.5,131.4 
		389.4,131.4 389.4,132.2 389.4,132.5 389.3,132.5 389.3,132.7 389.2,132.7 389.2,132.8 389.1,132.8 389.1,132.9 389,132.9 389,133 
		389,133 389,133.6 388.9,133.6 388.9,133.8 388.7,133.8 388.7,133.9 388.6,133.9 388.6,134 388.5,134 388.5,134.2 388.4,134.2 
		388.4,134.3 388.2,134.3 388.2,134.4 388,134.4 388,134.3 387.9,134.3 387.9,134.4 387.8,134.4 387.6,134.4 387.6,134.3 
		387.1,134.3 387.1,134.2 387,134.2 387,134.3 386.9,134.3 386.9,134.5 386.8,134.5 386.8,135.2 386.9,135.2 386.9,135.3 
		386.8,135.3 386.8,135.5 386.7,135.5 386.7,135.6 386.5,135.6 386.5,135.7 386.4,135.7 386.4,135.8 386.3,135.8 386.3,135.9 
		386.2,135.9 386.2,136 386.1,136 386.1,136.1 386,136.1 386,136.3 385.8,136.3 385.8,136.4 385.7,136.4 385.7,136.5 385.7,136.5 
		385.7,136.7 385.6,136.7 385.6,136.8 385.5,136.8 385.5,137.1 385.4,137.1 385.4,137.3 385.3,137.3 385.3,137.5 385.2,137.5 
		385.2,138 385.1,138 385.1,138.6 385,138.6 385,139.1 385.1,139.1 385.1,139.6 385,139.6 385,139.7 384.9,139.7 384.9,139.9 
		384.8,139.9 384.8,140.1 384.8,140.1 384.8,141.2 384.8,141.2 384.8,141.4 384.9,141.4 384.9,141.6 385,141.6 385,141.7 
		385.1,141.7 385.1,141.9 385.2,141.9 385.2,142.1 385.3,142.1 385.3,142.7 385.2,142.7 385.2,142.9 385.3,142.9 385.3,143.3 
		385.3,143.3 385.3,143.5 385.4,143.5 385.4,143.6 385.5,143.6 385.5,144 385.6,144 385.6,144.1 385.7,144.1 385.7,144.2 
		385.8,144.2 385.8,144.3 385.9,144.3 385.9,144.4 386,144.4 386,144.7 386.1,144.7 386.1,144.8 386.1,144.8 386.1,144.9 
		386.2,144.9 386.2,145 386.3,145 386.3,145.5 386.2,145.5 386.2,145.6 386.1,145.6 386.1,145.7 385.8,145.7 385.8,145.8 
		385.7,145.8 385.7,145.9 385.6,145.9 385.6,146.1 385.5,146.1 385.5,146.2 385.2,146.2 385.2,146.3 385.1,146.3 385.1,146.4 
		385,146.4 385,146.5 384.6,146.5 384.6,146.6 384.3,146.6 384.3,146.7 383.8,146.7 383.8,146.9 384,146.9 384,147 384.1,147 
		384.1,147.1 384.3,147.1 384.3,147 384.8,147 384.8,146.9 385.1,146.9 385.1,146.8 385.5,146.8 385.5,146.7 385.6,146.7 
		385.6,146.6 385.7,146.6 385.7,146.5 385.9,146.5 385.9,146.4 386.1,146.4 386.1,146.3 386.2,146.3 386.2,146.2 386.3,146.2 
		386.3,145.9 386.4,145.9 386.4,145.8 386.5,145.8 386.5,145.7 386.5,145.7 386.5,145.6 386.8,145.6 386.8,145.8 386.9,145.8 
		386.9,145.9 386.9,145.9 386.9,146.1 386.9,146.1 386.9,146.2 386.7,146.2 386.7,146.3 386.6,146.3 386.6,146.4 386.5,146.4 
		386.5,146.5 386.4,146.5 386.4,146.8 386.5,146.8 386.5,146.9 386.5,146.9 386.5,147 386.6,147 386.6,147.1 386.7,147.1 
		386.7,147.2 386.9,147.2 386.9,147.1 387,147.1 387,147 387.1,147 387.1,146.9 387.3,146.9 387.3,146.8 387.6,146.8 387.6,146.9 
		387.8,146.9 387.8,147 387.8,147 387.8,147.1 387.9,147.1 387.9,147.2 387.9,147.2 387.9,147.2 388,147.2 388,147.3 388,147.5 
		388,147.5 388.1,147.5 388.1,147.5 388.1,147.7 388.1,147.7 388.2,147.7 388.2,148.3 388.1,148.3 388.1,148.7 388,148.7 388,149 
		387.9,149 387.9,149.1 387.8,149.1 387.8,149.2 387.8,149.2 387.8,149.5 387.8,149.5 387.8,149.4 388.3,149.4 388.3,149.7 
		388.4,149.7 388.4,149.9 388,149.9 388,150 387.8,150 387.8,150.1 387.7,150.1 387.7,150.3 386.9,150.3 386.9,150.1 386.9,150.1 
		386.9,150 386.8,150 386.8,149.9 386.7,149.9 386.7,149.8 386.1,149.8 386.1,149.7 385.8,149.7 385.8,149.6 385.4,149.6 
		385.4,149.7 385.6,149.7 385.6,149.8 385.7,149.8 385.7,149.9 386,149.9 386,150 386.1,150 386.1,150.1 386.2,150.1 386.2,150.5 
		386.3,150.5 386.3,150.8 386.4,150.8 386.4,151 386.5,151 386.5,151.2 386.5,151.2 386.5,152.1 386.5,152.1 386.5,152.7 
		386.4,152.7 386.4,152.9 386.3,152.9 386.3,153 386.2,153 386.2,153.4 386.1,153.4 386.1,154 386.1,154 386.1,154.3 386.1,154.3 
		386.1,154.7 386.2,154.7 386.2,154.9 386.1,154.9 386.1,155 386.1,155 386.1,155.1 386,155.1 386,155.3 385.9,155.3 385.9,155.4 
		385.8,155.4 385.8,155.5 385.7,155.5 385.7,155.6 385.6,155.6 385.6,155.8 385.5,155.8 385.5,156 385.4,156 385.4,156.2 
		385.5,156.2 385.5,156.3 385.6,156.3 385.6,156.4 385.7,156.4 385.7,156.5 385.7,156.5 385.7,156.6 385.8,156.6 385.8,156.7 
		385.9,156.7 385.9,156.8 386,156.8 386,157 386.1,157 386.1,157.1 386.1,157.1 386.1,157.7 386.2,157.7 386.2,157.8 386.3,157.8 
		386.3,158 386.5,158 386.5,158.2 386.5,158.2 386.5,158.3 386.6,158.3 386.6,158.5 386.7,158.5 386.7,158.6 386.8,158.6 386.8,159 
		386.9,159 386.9,159.1 386.9,159.1 386.9,159.3 387,159.3 387,159.6 387.1,159.6 387.1,159.7 387.2,159.7 387.2,159.9 387.3,159.9 
		387.3,160.2 387.4,160.2 387.4,160.4 387.4,160.4 387.4,160.5 387.5,160.5 387.5,160.6 387.6,160.6 387.6,160.8 387.7,160.8 
		387.7,160.9 387.8,160.9 387.8,161.7 387.8,161.7 387.8,161.9 387.9,161.9 387.9,162.1 388,162.1 388,162.2 388.1,162.2 
		388.1,162.3 388.2,162.3 388.2,162.5 388.2,162.5 388.2,162.7 388.3,162.7 388.3,163 388.4,163 388.4,163.1 388.5,163.1 
		388.5,163.2 388.6,163.2 388.6,163.1 388.6,163.1 388.6,163 388.8,163 388.8,163.6 388.9,163.6 388.9,163.8 388.6,163.8 
		388.6,163.9 388.6,163.9 388.6,164 388.5,164 388.5,164.4 388.6,164.4 388.6,164.6 388.6,164.6 388.6,164.7 388.7,164.7 
		388.7,164.6 389,164.6 389,164.4 389.4,164.4 389.4,164.6 389.5,164.6 389.5,164.8 389.5,164.8 389.5,165 389.6,165 389.6,165.1 
		389.7,165.1 389.7,165.3 389.8,165.3 389.8,165.5 389.9,165.5 389.9,165.8 389.9,165.8 389.9,165.9 390,165.9 390,166.1 
		390.1,166.1 390.1,166.3 390.2,166.3 390.2,166.4 390.3,166.4 390.3,166.6 390.3,166.6 390.3,166.7 390.4,166.7 390.4,166.9 
		390.5,166.9 390.5,167 390.6,167 390.6,167.3 390.7,167.3 390.7,167.8 390.7,167.8 390.7,168 390.8,168 390.8,168.2 390.9,168.2 
		390.9,168.4 391,168.4 391,168.8 391.1,168.8 391.1,168.9 391.1,168.9 391.1,169 391,169 391,169.1 390.9,169.1 390.9,169.2 
		390.7,169.2 390.7,169.3 390.7,169.3 390.7,169.5 390.7,169.5 390.7,169.7 390.8,169.7 390.8,170.1 390.9,170.1 390.9,170.5 
		391,170.5 391,170.7 391.1,170.7 391.1,170.9 391.1,170.9 391.1,171 391.1,171 391.1,171.1 391,171.1 391,171.2 390.9,171.2 
		390.9,171.4 390.7,171.4 390.7,171.5 390.6,171.5 390.5,171.5 390.5,171.6 389.7,171.6 389.7,171.7 389.5,171.7 389.5,171.8 
		389.2,171.8 389.2,171.9 389,171.9 389,172 388.9,172 388.9,172.1 388.8,172.1 388.8,172.2 388.7,172.2 388.7,172.3 388.8,172.3 
		388.8,172.4 388.9,172.4 388.9,172.3 389.1,172.3 389.1,172.4 389.5,172.4 389.5,172.3 389.6,172.3 389.6,172.2 389.8,172.2 
		389.8,172.1 390,172.1 390,172 390.3,172 390.3,171.8 390.6,171.8 390.6,171.7 391.1,171.7 391.1,171.8 391.2,171.8 391.2,171.9 
		391.4,171.9 391.4,172.2 391.6,172.2 391.6,172.3 391.7,172.3 391.7,172.4 391.8,172.4 391.8,172.8 391.9,172.8 391.9,173.1 
		392,173.1 392,173.4 392,173.4 392,173.5 392.1,173.5 392.1,173.9 391.9,173.9 391.9,174.2 391.7,174.2 391.7,174.4 391.8,174.4 
		391.8,174.7 391.7,174.7 391.7,174.8 391.6,174.8 391.6,174.9 391.6,174.9 391.6,175 391.5,175 391.5,175.1 391.4,175.1 
		391.4,175.9 391.3,175.9 391.3,176.1 391.2,176.1 391.2,176.3 391.1,176.3 391.1,176.5 391.1,176.5 391.1,176.6 391,176.6 
		391,177.1 390.9,177.1 390.9,177.2 391,177.2 391,177.3 391.1,177.3 391.1,177.5 391.1,177.5 391.1,177.8 391.1,177.8 391.1,177.9 
		391.1,177.9 391.1,178 391.1,178 391.1,178.1 391.1,178.1 391.1,178.7 391,178.7 391,178.8 391.1,178.8 391.1,179.1 391,179.1 
		391,180 390.9,180 390.9,180.4 390.8,180.4 390.8,180.7 390.7,180.7 390.7,181.2 390.7,181.2 390.7,181.3 390.5,181.3 390.5,181.4 
		390.4,181.4 390.4,181.3 390.3,181.3 390.3,181.4 390.1,181.4 390.1,181.5 389.9,181.5 389.9,181.6 389.9,181.6 389.9,181.7 
		389.8,181.7 389.8,181.8 389.6,181.8 389.6,182 389.5,182 389.5,182.6 389.5,182.8 389.5,182.8 389.5,183 389.4,183 389.4,183.1 
		389.3,183.1 389.3,183.2 389.2,183.2 389.2,183.3 389,183.3 389,183.4 388.9,183.4 388.9,183.4 388.9,183.5 388.8,183.5 
		388.7,183.5 388.7,183.6 388.7,183.6 388.7,183.6 388.6,183.6 388.6,183.7 388.4,183.7 388.4,183.8 388.3,183.8 388.3,183.9 
		388.2,183.9 388.2,184.1 388,184.1 388,184.2 387.9,184.2 387.9,184.4 387.7,184.4 387.7,184.5 387.4,184.5 387.4,184.6 
		387.4,184.6 387.4,184.7 387.3,184.7 387.3,184.8 387.2,184.8 387.2,184.9 387.1,184.9 387.1,185 387,185 387,185.2 386.9,185.2 
		386.9,186 386.8,186 386.8,186.2 386.7,186.2 386.7,186.4 386.6,186.4 386.6,186.9 386.7,186.9 386.7,187.5 386.8,187.5 
		386.8,187.5 386.8,188 386.5,188 386.5,188.3 386.5,188.3 386.5,188.4 386.5,188.4 386.5,188.5 386.8,188.5 386.8,190.9 
		386.7,190.9 386.7,191.7 386.9,191.7 386.9,191.8 387,191.8 387,192.1 386.9,192.1 386.9,192.2 386.7,192.2 386.7,192.3 
		386.6,192.3 386.6,193 386.5,193 386.5,193.9 386.5,193.9 386.5,194.7 386.5,194.7 386.5,194.9 386.6,194.9 386.6,195 386.5,195 
		386.5,195.1 386.4,195.1 386.4,195 386.2,195 386.2,194.9 386.1,194.9 386.1,195.3 386.2,195.3 386.2,195.4 386.3,195.4 
		386.3,195.5 386.5,195.5 386.5,195.8 386.4,195.8 386.4,195.9 386.3,195.9 386.3,196.1 386.2,196.1 386.2,196.7 386.1,196.7 
		386.1,197.1 386.1,197.1 386.1,197.2 386,197.2 386,197.3 385.5,197.3 385.5,197.2 385.2,197.2 385.2,197.1 384.5,197.1 384.5,197 
		384.1,197 384.1,196.9 384,196.9 384,197.1 384,197.1 384,197.3 384.2,197.3 384.2,197.4 384.3,197.4 384.3,197.5 384.9,197.5 
		384.9,197.6 385.5,197.6 385.5,197.7 385.6,197.7 385.6,197.9 385.5,197.9 385.5,198.2 385.6,198.2 385.6,198.3 386,198.3 
		386,198.5 385.9,198.5 385.9,198.7 385.8,198.7 385.8,198.9 385.7,198.9 385.7,199.1 385.6,199.1 385.6,199.2 385.5,199.2 
		385.5,199.5 385.3,199.5 385.3,199 385.3,199 385.3,198.8 385.2,198.8 385.2,198.6 384.9,198.6 384.9,198.5 384.8,198.5 
		384.8,198.7 384.8,198.7 384.8,199 384.7,199 384.7,199.1 384.6,199.1 384.6,199.2 384.5,199.2 384.5,199.5 384.4,199.5 
		384.4,199.6 384.2,199.6 384.2,199.2 384.3,199.2 384.3,198.8 384.1,198.8 384.1,198.7 383.6,198.7 383.6,198.8 383.5,198.8 
		383.5,198.9 383.4,198.9 383.4,199 383.8,199 383.8,199.3 383.7,199.3 383.7,199.5 383.5,199.5 383.5,199.6 383.4,199.6 
		383.4,199.8 383.3,199.8 383.3,199.9 383.1,199.9 383.1,199.8 383,199.8 383,199.7 382.4,199.7 382.4,199.8 382.3,199.8 382.3,200 
		382.2,200 382.2,200.1 381.9,200.1 381.9,200 381.9,200 381.9,199.8 381.7,199.8 381.7,199.9 381.5,199.9 381.5,200 381.3,200 
		381.3,200.1 381.2,200.1 381.2,200.2 380.8,200.2 380.8,199.9 380.7,199.9 380.7,199.6 380.8,199.6 380.8,199.3 381,199.3 
		381,199.2 381.1,199.2 381.1,199.1 381.2,199.1 381.2,198.9 381.1,198.9 381.1,198.8 381,198.8 381,198.9 380.8,198.9 380.8,199 
		380.7,199 380.7,199.1 380.7,199.1 380.7,199.2 380.6,199.2 380.6,199.3 380.5,199.3 380.5,199.5 380.4,199.5 380.4,199.7 
		380.5,199.7 380.5,200 380.3,200 380.3,200.1 380.2,200.1 380.2,200.2 379.8,200.2 379.8,200.1 379.6,200.1 379.6,200 379.5,200 
		379.5,199.9 379.4,199.9 379.4,199.8 379.4,199.8 379.4,199.7 378.9,199.7 378.9,199.6 377.8,199.6 377.8,199.5 377.7,199.5 
		377.7,199.3 377.6,199.3 377.6,199.2 377.4,199.2 377.4,199.1 377.3,199.1 377.3,199 377.1,199 377.1,198.9 376.9,198.9 
		376.9,198.8 376.5,198.8 376.5,198.9 376.3,198.9 376.3,199 376.2,199 376.2,199.1 376.1,199.1 376.1,199.2 376,199.2 376,199.3 
		376,199.3 376,199.5 375.9,199.5 375.9,199.6 375.7,199.6 375.7,199.7 375.4,199.7 375.4,199.8 374.9,199.8 374.9,199.9 
		374.8,199.9 374.8,200 374.7,200 374.7,200.1 374.4,200.1 374.4,200.2 374.2,200.2 374.2,200.3 374.1,200.3 374.1,200.4 
		373.9,200.4 373.9,200.5 373.6,200.5 373.6,200.6 372.8,200.6 372.8,200.5 372.7,200.5 372.7,200.9 372.6,200.9 372.6,201 372,201 
		372,201.1 371.8,201.1 371.8,201.2 371.7,201.2 371.6,201.2 371.6,201.3 371.4,201.3 371.4,201.4 371.4,201.4 371.4,201.5 
		371.3,201.5 371.3,201.6 371.2,201.6 371.2,201.7 371.1,201.7 371.1,201.8 371,201.8 371,201.9 371,201.9 371,202 370.8,202 
		370.8,202.1 370.7,202.1 370.7,202.3 370.6,202.3 370.6,202.4 370.3,202.4 370.3,202.5 370.2,202.5 370.2,202.6 370.2,202.6 
		370.2,202.7 370,202.7 370,202.9 369.9,202.9 369.9,203.3 369.8,203.3 369.8,203.5 369.7,203.5 369.7,203.8 369.6,203.8 369.6,204 
		369.5,204 369.5,204.1 369.4,204.1 369.4,204.4 369.3,204.4 369.3,204.5 369,204.5 369,204.6 368.6,204.6 368.6,204.7 368.5,204.7 
		368.5,204.8 368.5,204.8 368.5,204.9 368.2,204.9 368.2,205.1 368.1,205.1 368.1,205.2 367.9,205.2 367.9,205.3 367.8,205.3 
		367.8,205.4 367.7,205.4 367.7,205.5 367.6,205.5 367.6,205.6 367.6,205.7 367.5,205.7 367.5,205.8 367.3,205.8 367.3,205.9 
		367.1,205.9 367.1,205.8 366.9,205.8 366.9,205.9 366.8,205.9 366.8,206 366.8,206 366.7,206 366.7,206.1 366.6,206.1 366.4,206.1 
		366.4,206.2 366.4,206.2 366.4,206.3 366.3,206.3 366.3,206.3 366.3,206.5 366.2,206.5 366,206.5 366,206.6 365.8,206.6 
		365.8,206.7 365.6,206.7 365.6,206.8 365.6,206.9 365.6,206.9 365.6,207 365.4,207 365.4,207.1 365.2,207.1 365.1,207.1 
		365.1,207.1 365.1,207.2 365.1,207.2 364.8,207.2 364.8,207.3 364.7,207.3 364.7,207.4 364.7,207.5 364.7,207.5 364.7,207.6 
		364.8,207.6 364.8,207.7 364.7,207.7 364.7,207.9 364.5,207.9 364.5,208 364.3,208 364.3,208.1 364.1,208.1 364.1,208.2 
		363.9,208.2 363.9,208.3 363.9,208.3 363.9,208.4 363.8,208.4 363.8,208.5 363.4,208.5 363.4,208.6 363.3,208.6 363.3,208.7 
		363.1,208.7 363.1,208.8 362.7,208.8 362.7,208.9 362.6,208.9 362.6,209 362.6,209 362.6,209.1 362.3,209.1 362.2,209.1 
		362.2,209.3 362,209.3 362,209.5 361.9,209.5 361.9,209.5 361.9,209.6 361.8,209.6 361.8,209.7 361.8,209.7 361.8,209.8 
		361.6,209.8 361.6,209.9 361.5,209.9 361.4,209.9 361.4,210 361.4,210 361.4,210 361.3,210 361.3,210.1 360.8,210.1 360.8,210.2 
		360.5,210.2 360.5,210.3 360.4,210.3 360.4,210.4 360.3,210.4 360.3,210.5 360.1,210.5 360.1,210.7 359.7,210.7 359.7,210.8 
		359.7,210.8 359.7,211 359.6,211 359.6,211.2 359.5,211.2 359.5,211.3 359.2,211.3 359.2,211.4 359.1,211.4 359.1,211.6 359,211.6 
		359,211.7 358.9,211.7 358.9,211.8 358.8,211.8 358.8,212 358.7,212.1 358.7,212.2 358.5,212.2 358.5,212.3 358.1,212.3 
		358.1,212.4 358,212.4 358,212.5 358,212.5 358,212.6 357.9,212.6 357.9,212.7 357.8,212.7 357.8,212.8 357.7,212.8 357.7,212.9 
		357.6,212.9 357.6,213 357.5,213 357.5,213.1 357.3,213.1 357.3,213.2 357.2,213.2 357.2,213.3 356.8,213.3 356.8,213.4 
		356.7,213.4 356.7,213.6 356.6,213.6 356.6,213.7 356.3,213.7 356.3,213.8 356.2,213.8 356.2,213.9 356,213.9 356,214 355.9,214 
		355.9,214.1 355.8,214.1 355.8,214.2 355.7,214.2 355.7,214.3 355.5,214.3 355.5,214.4 355.3,214.4 355.3,214.5 355.2,214.5 
		355.2,214.6 354.8,214.6 354.8,214.7 354.7,214.7 354.7,214.8 354.5,214.8 354.5,215 354.3,215 354.3,215.1 354.2,215.1 
		354.2,215.2 354.1,215.2 354.1,215.3 353.9,215.3 353.9,215.4 353.8,215.4 353.8,215.5 353.6,215.5 353.6,215.6 353.6,215.6 
		353.4,215.6 353.4,215.7 353.4,215.7 353.4,215.7 353.4,215.8 353.2,215.8 353.1,215.8 353.1,215.9 353.1,215.9 353,215.9 353,216 
		352.8,216 352.7,216 352.7,216.1 352.7,216.1 352.6,216.1 352.5,216.1 352.5,216.2 352.3,216.2 352.3,216.3 352.3,216.4 
		352.1,216.4 352.1,216.4 352.1,216.5 352.1,216.5 352.1,216.5 352.1,216.6 351.9,216.6 351.9,216.7 351.7,216.7 351.5,216.7 
		351.5,216.8 351.4,216.8 351.4,216.9 351.4,216.9 351.3,216.9 351.2,216.9 351.2,217 350.9,217 350.9,217.1 350.7,217.1 
		350.7,217.2 350.5,217.2 350.5,217.3 350.3,217.3 350.3,217.4 350.2,217.4 350.2,217.5 350.2,217.5 350,217.5 349.9,217.5 
		349.9,217.6 349.9,217.6 349.8,217.6 349.6,217.6 349.6,217.7 349.6,217.8 349.5,217.8 349.5,217.8 349.5,217.9 349.3,217.9 
		349.2,217.9 349.2,217.9 349.2,218 349,218 349,218.1 348.8,218.1 348.8,218.2 348.7,218.2 348.7,218.3 348.5,218.3 348.5,218.4 
		348.4,218.4 348.4,218.5 348.1,218.5 348.1,218.6 347.9,218.6 347.9,218.7 347.8,218.7 347.8,218.8 347.5,218.8 347.5,219 
		347.3,219 347.3,219.2 347,219.2 347,219.3 346.9,219.3 346.9,219.4 346.7,219.4 346.7,219.5 346.6,219.5 346.6,219.6 346.3,219.6 
		346.3,219.7 346.2,219.7 346.2,219.8 345.9,219.8 345.9,219.9 345.8,219.9 345.8,220 345.6,220 345.6,220.1 345.4,220.1 
		345.4,220.2 345.2,220.2 345.2,220.3 345,220.3 345,220.4 344.8,220.4 344.8,220.6 344.6,220.6 344.6,220.7 344.6,220.7 
		344.6,220.8 344.4,220.8 344.4,220.9 344.3,220.9 344.3,221 344.2,221 344.2,221.1 344,221.1 343.9,221.1 343.9,221 343.8,221 
		343.8,221.1 343.6,221.1 343.6,221.2 343.4,221.2 343.4,221.3 343.1,221.3 343.1,221.4 342.9,221.4 342.9,221.5 342.7,221.5 
		342.7,221.6 342.4,221.6 342.4,221.7 342.1,221.7 342.1,221.8 342,221.8 342,222 341.7,222 341.7,222.1 341.6,222.1 341.6,222.2 
		341.2,222.2 341.2,222.3 340.8,222.3 340.8,222.4 340.5,222.4 340.5,222.5 340.3,222.5 340.3,222.6 340.1,222.6 340.1,222.8 
		340,222.8 340,222.9 340,222.9 340,223 339.9,223 339.9,223.1 339.8,223.1 339.8,223.2 339.7,223.2 339.7,223.6 339.6,223.6 
		339.6,224 339.6,224 339.6,224.2 339.6,224.2 339.6,224.4 339.6,224.4 339.6,224.9 339.5,224.9 339.5,225.1 339.4,225.1 
		339.4,225.4 339.3,225.4 339.3,225.7 339.2,225.7 339.2,225.8 339.1,225.8 339.1,225.9 339.1,225.9 339.1,226 339,226 339,226 
		339,226.1 339,226.2 338.9,226.2 338.9,226.2 338.9,226.2 338.9,226.4 338.7,226.4 338.7,226.5 338.7,226.5 338.7,226.6 
		338.6,226.6 338.6,226.7 338.5,226.7 338.5,226.8 338.4,226.8 338.4,227 338.3,227 338.3,227.3 338.3,227.3 338.3,227.4 
		338.2,227.4 338.2,227.9 338.1,227.9 338.1,228 338,228 338,228.3 337.9,228.3 337.9,228.4 337.9,228.4 337.9,228.5 337.7,228.5 
		337.7,228.6 337.6,228.6 337.6,228.7 337.5,228.7 337.5,228.8 337.2,228.8 337.2,229 337,229 337,229.1 336.6,229.1 336.6,229.3 
		336.5,229.3 336.5,229.4 336.4,229.4 336.4,229.5 336.3,229.5 336.3,229.6 336.2,229.6 336.2,229.7 336.1,229.7 336.1,229.8 
		336,229.8 336,229.9 335.8,229.9 335.8,230 335.7,230 335.7,230.1 335.6,230.1 335.6,230.2 335.5,230.2 335.5,230.5 335.4,230.5 
		335.4,230.6 335.4,230.6 335.4,230.7 335.2,230.7 335.2,230.8 335.1,230.8 335.1,230.9 335,230.9 335,231.1 334.9,231.1 
		334.9,231.4 334.9,231.4 334.9,231.8 334.8,231.8 334.8,232.1 334.7,232.1 334.7,232.2 334.6,232.2 334.6,232.3 334.5,232.3 
		334.5,232.4 334.3,232.4 334.3,232.8 334.2,232.8 334.2,232.9 334.1,232.9 334.1,233.2 334,233.2 334,233.3 333.9,233.3 
		333.9,233.4 333.8,233.4 333.8,233.5 333.7,233.5 333.7,233.6 333.7,233.6 333.7,233.7 333.6,233.7 333.6,234 333.5,234 
		333.5,234.1 333.4,234.1 333.4,234.2 333.3,234.2 333.3,234.3 333.3,234.3 333.3,234.4 333,234.4 333,234.6 332.9,234.6 
		332.9,234.8 332.8,234.8 332.8,235 332.7,235 332.7,235.1 332.6,235.1 332.6,235.2 332.5,235.2 332.5,235.3 332.4,235.3 
		332.4,235.4 332.2,235.4 332.2,235.5 332.1,235.5 332.1,235.6 332,235.6 332,235.7 331.9,235.7 331.9,235.8 331.8,235.8 331.8,236 
		331.6,236 331.6,236.1 331.6,236.1 331.6,236.2 331.6,236.2 331.6,236.3 331.5,236.3 331.5,236.4 331.2,236.4 331.2,236.6 
		331.1,236.6 331.1,236.7 330.8,236.7 330.8,236.8 330.6,236.8 330.6,236.9 330.3,236.9 330.3,237 330.1,237 330.1,237.1 330,237.1 
		330,237.2 329.5,237.2 329.5,237.4 329.5,237.4 329.3,237.4 329.3,237.5 329.1,237.5 329.1,237.6 329.1,237.6 329.1,237.7 
		328.9,237.7 328.9,237.8 328.8,237.8 328.8,237.9 328.7,237.9 328.7,238 328.6,238 328.6,238.1 328.6,238.1 328.6,238.2 
		328.5,238.2 328.5,238.4 328.4,238.4 328.4,238.6 328.3,238.6 328.3,238.9 328.2,238.9 328.2,239.2 328.2,239.2 328.2,239.3 
		328.2,239.3 328.2,239.4 328.2,239.4 328.2,239.6 328.1,239.6 328.1,239.7 328,239.7 328,239.9 327.9,239.9 327.9,240.2 
		327.8,240.2 327.8,240.4 327.7,240.4 327.7,240.5 327.8,240.5 327.8,240.6 327.7,240.6 327.7,240.8 327.6,240.8 327.6,240.9 
		327.5,240.9 327.5,241.1 327.4,241.1 327.4,241.4 327.3,241.4 327.3,241.6 327.2,241.6 327.2,241.7 327.1,241.7 327.1,241.8 
		327,241.8 327,241.9 327,241.9 327,242 326.8,242 326.8,242.3 326.5,242.3 326.5,242.4 326.5,242.4 326.5,242.5 326.4,242.5 
		326.4,242.6 326.3,242.6 326.3,242.7 326.2,242.7 326.2,242.8 326.1,242.8 326.1,242.9 326.1,242.9 326.1,243.1 326,243.1 
		326,243.4 325.9,243.4 325.9,243.5 325.8,243.5 325.8,243.7 325.7,243.7 325.7,244 325.6,244 325.6,244.1 325.5,244.1 325.5,244.2 
		325.4,244.2 325.4,244.3 325.3,244.3 325.3,244.5 325.3,244.5 325.3,244.6 325.2,244.6 325.2,244.8 325,244.8 325,244.9 
		324.9,244.9 324.9,245 324.7,245 324.7,245.1 324.6,245.1 324.6,245.2 324.5,245.2 324.5,245.4 324.5,245.4 324.5,245.5 
		324.5,245.5 324.4,245.5 324.4,245.6 324.2,245.6 324.2,245.7 324,245.7 324,245.9 323.8,245.9 323.7,245.9 323.7,246 323.6,246 
		323.2,246 323.2,246.1 323.1,246.1 323.1,246.2 323,246.2 323,246.3 322.8,246.3 322.8,246.4 322.6,246.4 322.6,246.5 322.4,246.5 
		322.4,246.6 322.2,246.6 322.2,246.7 321.9,246.7 321.9,246.8 321.1,246.8 321.1,246.9 320.9,246.9 320.9,247 320.7,247 
		320.7,247.1 320.6,247.1 320.6,247.3 320.5,247.3 320.5,247.4 320.4,247.4 320.4,247.5 320.1,247.5 320.1,247.6 320,247.6 
		320,247.7 319.7,247.7 319.7,247.8 319.5,247.8 319.5,247.9 319.4,247.9 319.4,248 319.3,248 319.3,248.1 319,248.1 319,248.2 
		319,248.2 319,248.3 318.8,248.3 318.8,248.4 318.6,248.4 318.6,248.5 318.4,248.5 318.4,248.7 318.2,248.7 318.2,248.8 318,248.8 
		318,248.9 317,248.9 317,248.8 316.7,248.8 316.7,248.9 316.5,248.9 316.5,249 316.4,249 316.4,248.9 316.2,248.9 316.2,249 
		316.1,249 316.1,249.1 316,249.1 316,249.2 315.8,249.2 315.8,249.3 315.4,249.3 315.4,249.4 315.2,249.4 315.2,249.5 315,249.5 
		315,249.6 314.8,249.6 314.8,249.7 314.8,249.7 314.8,249.8 314.6,249.8 314.6,249.9 314.4,249.9 314.4,250.1 314.1,250.1 
		314.1,250.2 314,250.2 314,250.3 313.8,250.3 313.8,250.4 313.6,250.4 313.6,250.5 313.5,250.5 313.5,250.6 313.3,250.6 
		313.3,250.7 313.2,250.7 313.2,250.9 313.1,250.9 313.1,251 312.8,251 312.8,251.1 312.7,251.1 312.7,251.2 312.5,251.2 
		312.5,251.3 312.1,251.3 312.1,251.5 311.9,251.5 311.6,251.5 311.6,251.6 311.1,251.6 311.1,251.5 310.9,251.5 310.9,251.3 
		310.6,251.3 310.6,251.2 310.5,251.2 310.5,251.1 310.3,251.1 310.3,251 309.7,251 309.7,251.1 309.5,251.1 309.5,251.2 
		309.4,251.2 309.4,251.3 309.3,251.3 309.3,251.5 309.3,251.5 309.3,251.6 309.2,251.6 309.2,251.7 309.1,251.7 309.1,252 309,252 
		309,252.3 308.9,252.3 308.9,252.5 308.9,252.6 308.9,252.6 308.9,252.9 308.8,252.9 308.8,253.2 308.7,253.2 308.7,253.3 
		308.6,253.3 308.6,253.4 308.5,253.4 308.5,253.6 308.5,253.6 308.5,253.7 308.4,253.7 308.4,253.9 308.3,253.9 308.3,254.1 
		308.2,254.1 308.2,254.3 308.1,254.3 308.1,254.4 308.1,254.4 308.1,254.5 308,254.5 308,254.6 307.9,254.6 307.9,254.8 
		307.8,254.8 307.8,255 307.6,255 307.6,255.1 307.4,255.1 307.4,255.2 307.3,255.2 307.3,255.3 307.1,255.3 307.1,255.4 
		306.9,255.4 306.9,255.5 306.8,255.5 306.8,255.7 306.5,255.7 306.5,255.8 306.3,255.8 306.3,255.9 306.2,255.9 306.2,256 306,256 
		306,256.1 305.9,256.1 305.9,256.2 305.7,256.2 305.7,256.3 305.6,256.3 305.6,256.5 305.6,256.5 305.6,256.6 305.6,256.6 
		305.6,256.7 305.5,256.7 305.5,256.8 305.4,256.8 305.4,256.9 305.3,256.9 305.3,257.1 305.2,257.1 305.2,257.2 305.1,257.2 
		305.1,257.3 305,257.3 305,257.4 304.8,257.4 304.8,257.5 304.4,257.5 304.4,257.6 304.3,257.6 304.3,257.7 304.2,257.7 
		304.2,257.6 304.1,257.6 303.9,257.6 303.9,257.5 303.7,257.5 303.7,257.4 303.6,257.4 303.6,257.3 303.5,257.3 303.5,257.2 
		303.4,257.2 303.4,257.1 303.3,257.1 303.3,256.9 303.1,256.9 303.1,257.1 303.1,257.1 303.1,257.2 303,257.2 303,257.3 
		302.8,257.3 302.8,257.4 302.7,257.4 302.7,257.5 302.6,257.5 302.6,257.7 302.6,257.7 302.6,258.5 302.5,258.5 302.5,258.6 
		302.4,258.6 302.4,258.8 302.3,258.8 302.3,258.9 302.2,258.9 302.2,259 302,259 302,259.1 301.9,259.1 301.9,259.2 301.2,259.2 
		301.2,259.3 301,259.3 301,259.4 301,259.4 301,259.6 300.9,259.6 300.9,259.9 300.8,259.9 300.8,260.5 300.7,260.5 300.7,261.3 
		300.6,261.3 300.6,261.7 300.6,261.8 300.5,261.8 300.5,262.3 300.6,262.3 300.6,262.4 300.5,262.4 300.5,262.7 300.6,262.7 
		300.6,262.8 300.5,262.8 300.5,263.1 300.5,263.1 300.5,263.2 300.4,263.2 300.4,263.4 300.5,263.4 300.5,263.6 300.5,263.6 
		300.5,264.2 300.5,264.2 300.5,264.8 300.4,264.8 300.4,264.7 300.3,264.7 300.3,265.5 300.2,265.5 300.2,265.7 300.1,265.7 
		300.1,265.8 300.1,265.8 300.1,265.9 300,265.9 300,266.6 299.9,266.6 299.9,266.9 299.8,266.9 299.8,267.2 299.7,267.2 
		299.7,267.3 299.7,267.3 299.7,267.4 299.5,267.4 299.5,267.5 299.4,267.5 299.4,267.7 299.3,267.7 299.3,267.9 299.2,267.9 
		299.2,268.5 299.1,268.5 299.1,268.6 299,268.6 299,268.7 298.9,268.7 298.9,268.8 298.8,268.8 298.8,268.9 298.7,268.9 298.7,269 
		297.1,269 297.1,269.1 296.7,269.1 296.2,269.1 296.2,269.1 296.2,269 296.1,269 296.1,268.9 296,268.9 296,268.7 295.9,268.7 
		295.9,268.6 295.5,268.6 295.5,268.5 295.4,268.5 295.4,268.4 295.3,268.4 295.3,268.3 295.2,268.3 295.2,268.1 295.1,268.1 
		295.1,268 294.7,268 294.7,268.1 294.6,268.1 294.6,268.3 294.5,268.3 294.5,268.4 294.4,268.4 294.4,268.5 294.3,268.5 
		294.3,268.6 294.2,268.6 294.2,268.7 294.1,268.7 294.1,268.8 293.9,268.8 293.9,268.9 293.8,268.9 293.8,269 293.8,269 
		293.8,269.1 293.7,269.1 293.7,269.3 293.6,269.3 293.6,269.4 293.5,269.4 293.5,269.5 293.4,269.5 293.4,269.8 293.4,269.8 
		293.4,270 293.3,270 293.3,270.3 293.2,270.3 293.2,270.5 292.9,270.5 292.9,270.6 293,270.6 293,270.8 292.9,270.8 292.9,270.9 
		292.8,270.9 292.8,271.3 292.7,271.3 292.7,271.5 292.6,271.5 292.6,271.8 292.6,271.8 292.6,272.2 292.5,272.2 292.5,272.3 
		292.4,272.3 292.4,272.4 292.3,272.4 292.3,272.6 292.2,272.6 292.2,272.7 292.2,272.7 292.2,272.8 292,272.8 292,272.9 
		291.9,272.9 291.9,273 291.7,273 291.7,273.2 291.7,273.2 291.7,273.3 291.6,273.3 291.6,273.6 291.5,273.6 291.5,274 291.4,274 
		291.4,274.1 291.2,274.1 291.2,274.2 291.1,274.2 291.1,274.4 291,274.4 291,274.5 290.9,274.5 290.9,274.6 290.9,274.6 
		290.9,274.7 290.8,274.7 290.8,274.8 290.7,274.8 290.7,274.9 290.5,274.9 290.5,275 290.4,275 290.4,275.1 290.2,275.1 
		290.2,275.3 289.8,275.3 289.8,275.4 289.6,275.4 289.6,275.5 289.4,275.5 289.4,275.6 289.2,275.6 289.2,275.7 289.1,275.7 
		289.1,276 288.9,276 288.9,276.1 288.8,276.1 288.8,276.5 288.8,276.5 288.8,277.6 288.7,277.6 288.7,277.8 288.8,277.8 
		288.8,278.1 288.8,278.2 288.8,278.3 288.8,278.3 288.8,279.1 288.8,279.1 288.8,279.2 288.8,279.2 288.8,280.5 288.7,280.5 
		288.7,280.7 288.8,280.7 288.8,281.2 288.7,281.2 288.7,281.5 288.6,281.5 288.6,281.6 288.5,281.6 288.5,282.2 288.4,282.2 
		288.4,282.9 288.4,282.9 288.4,283.1 288.3,283.1 288.3,283.5 288.2,283.5 288.2,284 288.1,284 288.1,284.2 288,284.2 288,284.3 
		288,284.4 288,284.4 288,284.5 287.9,284.5 287.9,284.8 287.8,284.8 287.8,285.2 287.7,285.2 287.7,285.3 287.6,285.3 287.6,285.4 
		287.5,285.4 287.5,285.5 287.4,285.5 287.4,285.7 287.3,285.7 287.3,285.8 287.1,285.8 287.1,285.9 287.1,285.9 287.1,286 287,286 
		287,286.2 286.9,286.2 286.9,286.3 286.8,286.3 286.8,286.4 286.7,286.4 286.7,286.6 286.3,286.6 286.3,286.8 286.2,286.8 
		286.2,286.9 285.6,286.9 285.6,287 285.4,287 285.4,287.1 284.8,287.1 284.8,287.2 284.5,287.2 284.5,287.3 283.6,287.3 
		283.6,287.4 283.4,287.4 283.4,287.5 283.3,287.5 282.9,287.5 282.9,287.6 282.4,287.6 282.4,287.7 281.6,287.7 281,287.7 
		281,287.6 280.4,287.6 280.4,287.7 280.2,287.7 280.2,287.8 280,287.8 280,288 279.8,288 279.8,288.1 279.6,288.1 279.6,288.2 
		279.6,288.2 279.6,288.3 279.4,288.3 279.4,288.4 279.2,288.4 279.2,288.5 279.1,288.5 279.1,288.6 279.1,288.6 279.1,288.7 
		278.9,288.7 278.9,288.8 278.7,288.8 278.7,288.9 278.7,288.9 278.7,289 278.6,289 278.6,289.1 278.5,289.1 278.5,289.2 
		278.3,289.2 278.3,289.4 277.8,289.4 277.8,289.5 277.6,289.5 277.6,289.6 277.5,289.6 277.5,289.7 277.5,289.7 277.5,289.8 
		277.4,289.8 277.4,289.9 277.1,289.9 277.1,290 276.6,290 276.6,290.1 276.4,290.1 276.4,290.2 276.3,290.2 276.3,290.1 
		276.2,290.1 276.2,289.9 276,289.9 276,289.8 275.9,289.8 275.9,289.9 275.8,289.9 275.8,290.1 275.9,290.1 275.9,290.3 276,290.3 
		276,290.4 276.1,290.4 276.1,290.6 276.2,290.6 276.2,291.1 276.1,291.1 276.1,291.7 276,291.7 276,292 275.9,292 275.9,293 
		275.8,293 275.8,293.3 275.8,293.3 275.8,293.4 275.6,293.4 275.6,293.6 275.7,293.6 275.7,293.7 275.6,293.7 275.6,294.2 
		275.7,294.2 275.7,294.3 275.6,294.3 275.6,294.6 275.4,294.6 275.4,294.7 275.4,294.7 275.4,294.8 275.3,294.8 275.3,295 
		275.2,295 275.2,295.3 275.1,295.3 275.1,295.5 275,295.5 275,295.6 274.9,295.6 274.9,295.7 274.8,295.7 274.8,295.8 274.7,295.8 
		274.7,295.9 274.6,295.9 274.6,296 274.5,296 274.5,296.1 274.5,296.1 274.5,296.2 274.3,296.2 274.3,296.4 274.2,296.4 
		274.2,296.5 274.1,296.5 274.1,296.6 274,296.6 274,296.7 273.8,296.7 273.8,296.8 273.7,296.8 273.7,296.9 273.7,296.9 
		273.7,297.2 273.6,297.2 273.6,297.6 273.5,297.6 273.5,297.8 273.4,297.8 273.4,297.9 273.3,297.9 273.3,298 273.1,298 
		273.1,298.1 272.4,298.1 272.4,298.2 272.3,298.2 272.3,298.3 272,298.3 272,298.4 271.9,298.4 271.9,298.5 271.8,298.5 
		271.8,298.6 271.7,298.6 271.7,298.7 271.6,298.7 271.6,298.8 271.4,298.8 271.4,298.9 271.3,298.9 271.3,299.2 271.2,299.2 
		271.2,299.4 271.2,299.4 271.2,299.5 271.1,299.5 271.1,299.6 270.9,299.6 270.9,299.7 269.9,299.7 269.9,299.8 269.8,299.8 
		269.8,300 269.6,300 269.6,300.1 269.5,300.1 269.5,300.2 269.3,300.2 269.3,300.3 269.2,300.3 269.2,300.4 269.1,300.4 
		269.1,300.6 269.1,300.6 269.1,300.8 269,300.8 269,300.9 268.9,300.9 268.9,301 268.7,301 268.7,301.1 268.6,301.1 268.6,301.2 
		268.3,301.2 268.3,301.3 268.2,301.3 268.2,301.4 268,301.4 268,301.5 267.9,301.5 267.9,301.7 267.8,301.7 267.8,301.8 
		267.7,301.8 267.7,302.2 267.6,302.2 267.6,302.3 267.5,302.3 267.5,302.4 267.4,302.4 267.4,302.5 267.4,302.5 267.4,302.6 
		267.3,302.6 267.3,302.7 267.4,302.7 267.4,302.8 267.3,302.8 267.3,303.1 267.2,303.1 267.2,303.5 267.1,303.5 267.1,303.8 
		267,303.8 267,304 267,304 267,304.1 266.9,304.1 266.9,304.2 266.8,304.2 266.8,304.3 266.6,304.3 266.6,304.4 265.8,304.4 
		265.8,304.5 265.7,304.5 265.7,304.8 265.7,304.8 265.7,305.1 265.6,305.1 265.6,305.3 265.5,305.3 265.5,305.5 265.4,305.5 
		265.4,305.8 265.3,305.8 265.3,306.4 265.4,306.4 265.4,306.5 265.5,306.5 265.5,306.6 265.5,306.8 265.6,306.8 265.6,307.1 
		265.7,307.1 265.7,307.4 265.7,307.4 265.7,307.5 265.8,307.5 265.8,307.7 265.9,307.7 265.9,308 265.8,308 265.8,308.2 
		266.1,308.2 266.1,308.3 266.1,308.3 266.1,308.5 266.2,308.5 266.2,308.6 266.3,308.6 266.3,308.7 266.4,308.7 266.4,308.9 
		266.5,308.9 266.5,309.9 266.6,309.9 266.6,310.1 266.6,310.1 266.6,310.5 266.7,310.5 266.7,311.3 266.6,311.3 266.6,311.6 
		266.6,311.6 266.6,311.7 266.5,311.7 266.5,312 266.4,312 266.4,312.3 266.3,312.3 266.3,312.5 266.2,312.5 266.2,312.6 
		266.1,312.6 266.1,312.7 266.1,312.7 266.1,312.8 266,312.8 266,313 265.9,313 265.9,313.3 265.8,313.3 265.8,313.4 265.7,313.4 
		265.7,313.5 265.6,313.5 265.6,313.7 265.7,313.7 265.7,313.8 265.9,313.8 265.9,313.9 266,313.9 266,314 266.1,314 266.1,314.3 
		266.1,314.3 266.1,315 266.2,315 266.2,315.1 266.3,315.1 266.3,315.3 266.4,315.3 266.4,316.4 266.3,316.4 266.3,316.5 
		266.4,316.5 266.4,316.5 266.4,316.5 266.4,316.6 266.4,316.6 266.6,316.6 266.6,316.7 266.6,316.7 266.6,316.9 266.7,316.9 
		266.7,317 266.8,317 266.8,317.1 266.9,317.1 266.9,317.3 267,317.3 267,317.5 267,317.5 267,317.6 267.1,317.6 267.1,317.7 
		267.3,317.7 267.3,317.8 267.5,317.8 267.5,317.9 267.7,317.9 267.7,318 267.8,318 267.8,318.1 267.8,318.1 267.8,318.3 
		267.9,318.3 267.9,319 268,319 268,319.3 268.1,319.3 268.1,319.7 268.2,319.7 268.2,319.9 268.2,319.9 268.2,320.1 268.3,320.1 
		268.3,320.4 268.4,320.4 268.4,320.8 268.5,320.8 268.5,320.9 268.7,320.9 268.7,321 268.7,321 268.7,321.1 268.8,321.1 
		268.8,321.2 268.9,321.2 268.9,321.3 269,321.3 269,321.4 269.1,321.4 269.1,321.5 269.1,321.5 269.1,321.7 269.2,321.7 
		269.2,321.8 269.3,321.8 269.3,321.9 269.4,321.9 269.4,322 269.6,322 269.6,322.1 269.8,322.1 269.8,322.2 269.9,322.2 
		269.9,322.3 270.2,322.3 270.2,322.4 270.4,322.4 270.4,322.5 270.5,322.5 270.5,322.6 270.6,322.6 270.6,322.7 270.7,322.7 
		270.7,322.8 270.8,322.8 270.8,322.9 270.8,322.9 270.8,323.1 271,323.1 271,323.2 271.1,323.2 271.1,323.3 271.2,323.3 
		271.2,323.4 271.2,323.4 271.2,323.6 271.3,323.6 271.3,323.8 271.4,323.8 271.4,323.9 271.5,323.9 271.5,324 271.6,324 
		271.6,324.1 271.6,324.1 271.6,324.2 271.7,324.2 271.7,324.3 271.8,324.3 271.8,324.6 271.9,324.6 271.9,324.7 272,324.7 
		272,324.8 272,324.8 272,324.9 272.1,324.9 272.1,325 272.2,325 272.2,325.2 272.3,325.2 272.3,325.4 272.4,325.4 272.4,325.5 
		272.4,325.5 272.4,325.7 272.5,325.7 272.5,325.9 272.6,325.9 272.6,326 272.7,326 272.7,326.2 272.8,326.2 272.8,326.4 
		272.9,326.4 272.9,326.6 272.9,326.6 272.9,326.8 273.1,326.8 273.1,326.9 273.3,326.9 273.3,327 273.4,327 273.4,327.1 
		273.6,327.1 273.6,327.3 273.7,327.3 273.7,327.4 273.7,327.4 273.7,327.5 273.8,327.5 273.8,327.6 273.9,327.6 273.9,327.7 
		274,327.7 274,327.8 274.1,327.8 274.1,327.9 274.1,327.9 274.1,328.1 274.2,328.1 274.2,328.3 274.3,328.3 274.3,328.5 
		274.4,328.5 274.4,328.7 274.3,328.7 274.3,328.8 274.6,328.8 274.6,328.9 274.7,328.9 274.7,329 275,329 275,329.1 275.1,329.1 
		275.1,329.2 275.2,329.2 275.2,329.3 275.3,329.3 275.3,329.4 275.4,329.4 275.4,329.7 275.4,329.7 275.4,329.8 275.6,329.8 
		275.6,329.9 275.7,329.9 275.7,330.1 275.8,330.1 275.8,330.2 276,330.2 276,330.3 276.1,330.3 276.1,330.4 276.2,330.4 
		276.2,330.5 276.2,330.5 276.2,330.6 276.3,330.6 276.3,330.7 276.4,330.7 276.4,330.8 276.5,330.8 276.5,330.9 276.6,330.9 
		276.6,331 276.6,331 276.6,331.1 276.7,331.1 276.7,331.2 276.8,331.2 276.8,331.6 276.9,331.6 276.9,331.8 277,331.8 277,332.1 
		277.1,332.1 277.1,332.2 277.1,332.2 277.1,332.4 277.2,332.4 277.2,332.5 277.3,332.5 277.3,332.9 277.4,332.9 277.4,333 
		277.5,333 277.5,333.1 277.5,333.1 277.5,333.4 277.6,333.4 277.6,333.6 277.7,333.6 277.7,333.7 277.8,333.7 277.8,333.8 
		277.9,333.8 277.9,333.9 277.9,333.9 277.9,334 278,334 278,334.1 278.1,334.1 278.1,334.4 278.3,334.4 278.3,334.5 278.3,334.5 
		278.3,334.6 278.4,334.6 278.4,334.7 278.5,334.7 278.5,334.8 278.6,334.8 278.6,334.9 278.7,334.9 278.7,335 278.7,335 
		278.7,335.2 278.9,335.2 278.9,335.3 279,335.3 279,335.4 279.1,335.4 279.1,335.5 279.2,335.5 279.2,335.6 279.3,335.6 
		279.3,335.8 279.4,335.8 279.4,335.9 279.6,335.9 279.6,336.1 279.7,336.1 279.7,336.2 279.8,336.2 279.8,336.3 280.1,336.3 
		280.1,336.7 280.2,336.7 280.2,337.3 280.3,337.3 280.3,337.4 280.4,337.4 280.4,337.5 280.8,337.5 280.8,337.6 280.8,337.6 
		280.8,337.7 280.9,337.7 280.9,337.8 281.2,337.8 281.2,337.9 281.2,337.9 281.2,338 281.4,338 281.4,338.1 281.5,338.1 
		281.5,338.2 281.6,338.2 281.6,338.3 281.7,338.3 281.7,338.4 281.7,338.4 281.7,338.6 281.8,338.6 281.8,338.7 281.9,338.7 
		281.9,338.9 282.1,338.9 282.1,339 282.1,339 282.1,339.1 282.2,339.1 282.2,339.3 282.4,339.3 282.4,339.5 282.5,339.5 
		282.5,339.6 282.5,339.6 282.5,339.8 282.6,339.8 282.6,340 282.7,340 282.7,340.1 282.8,340.1 282.8,340.2 282.9,340.2 
		282.9,340.5 282.9,340.5 282.9,340.7 282.9,340.7 282.9,340.9 282.9,340.9 282.9,341.1 283,341.1 283,341.2 283.1,341.2 
		283.1,341.6 283.2,341.6 283.2,341.7 283.3,341.7 283.3,341.8 283.3,341.8 283.3,341.9 283.4,341.9 283.4,342.1 283.5,342.1 
		283.5,342.2 283.6,342.2 283.6,342.3 283.7,342.3 283.7,342.4 283.8,342.4 283.8,342.5 283.8,342.5 283.8,342.7 283.8,342.8 
		283.9,342.8 283.9,342.8 283.9,342.8 283.9,343 284,343 284,343.1 284.1,343.1 284.1,343.2 284.2,343.2 284.2,343.3 284.2,343.3 
		284.2,343.4 284.3,343.4 284.3,343.5 284.4,343.5 284.4,343.7 284.5,343.7 284.5,343.9 284.6,343.9 284.6,344 284.6,344 
		284.6,344.2 284.7,344.2 284.7,344.4 284.8,344.4 284.8,344.6 284.9,344.6 284.9,344.7 285,344.7 285,344.8 285,344.8 285,344.9 
		285.1,344.9 285.1,345 285.2,345 285.2,345.1 285.3,345.1 285.3,345.2 285.4,345.2 285.4,345.3 285.4,345.3 285.4,345.6 
		285.5,345.6 285.5,345.7 285.6,345.7 285.6,345.8 285.7,345.8 285.7,345.9 285.8,345.9 285.8,346 285.9,346 285.9,346.1 286,346.1 
		286,346.2 286.1,346.2 286.1,346.3 286.2,346.3 286.2,346.5 286.3,346.5 286.3,346.6 286.3,346.6 286.3,346.8 286.4,346.8 
		286.4,347 286.5,347 286.5,347.1 286.6,347.1 286.6,347.3 286.7,347.3 286.7,347.4 286.7,347.4 286.7,347.6 286.8,347.6 
		286.8,348.1 286.7,348.1 286.7,348.2 286.8,348.2 286.8,348.7 286.9,348.7 286.9,348.9 287,348.9 287,349.1 287.1,349.1 
		287.1,349.2 287.1,349.2 287.1,349.3 287.1,349.3 287.1,349.4 287.1,349.4 287.1,349.6 287.2,349.6 287.2,349.8 287.3,349.8 
		287.3,350 287.4,350 287.4,350.1 287.5,350.1 287.5,350.2 287.5,350.2 287.5,350.3 287.6,350.3 287.6,350.4 287.7,350.4 
		287.7,350.6 287.8,350.6 287.8,350.7 287.9,350.7 287.9,350.8 288,350.8 288,351.3 288,351.3 288,351.5 288.2,351.5 288.2,351.6 
		288.4,351.6 288.4,351.7 288.5,351.7 288.5,351.8 288.7,351.8 288.7,352 288.8,352 288.8,352.2 288.8,352.2 288.8,352.3 289,352.3 
		289,352.7 289.1,352.7 289.1,352.8 289.2,352.8 289.2,353 289.3,353 289.3,353.1 289.4,353.1 289.4,353.3 289.5,353.3 289.5,353.5 
		289.6,353.5 289.6,353.7 289.7,353.7 289.7,353.8 289.8,353.8 289.8,354 289.9,354 289.9,354.3 290,354.3 290,354.5 290.1,354.5 
		290.1,354.6 290.1,354.6 290.1,354.7 290.2,354.7 290.2,355 290.3,355 290.3,355.4 290.4,355.4 290.4,355.6 290.5,355.6 
		290.5,355.7 290.6,355.7 290.6,355.8 290.8,355.8 290.8,355.9 290.9,355.9 290.9,356 290.9,356 290.9,356.1 291,356.1 291,356.3 
		291.2,356.3 291.2,356.5 291.1,356.5 291.1,356.6 291.2,356.6 291.2,356.8 291.3,356.8 291.3,356.9 291.3,356.9 291.3,357 
		291.4,357 291.4,357.1 291.5,357.1 291.5,357.2 291.6,357.2 291.6,357.4 291.7,357.4 291.7,357.5 291.7,357.5 291.7,357.6 
		291.8,357.6 291.8,357.8 292,357.8 292,357.9 292.2,357.9 292.2,358.2 292.2,358.2 292.2,358.3 292.3,358.3 292.3,358.6 
		292.4,358.6 292.4,358.7 292.5,358.7 292.5,358.9 292.6,358.9 292.6,359 292.6,359 292.6,359.1 292.7,359.1 292.7,359.6 
		292.6,359.6 292.6,359.9 292.7,359.9 292.7,360 292.9,360 292.9,360.1 293.1,360.1 293.1,360.2 293.4,360.2 293.4,360.3 
		293.6,360.3 293.6,360.4 293.7,360.4 293.7,360.6 293.8,360.6 293.8,360.7 293.8,360.7 293.8,361 293.9,361 293.9,361.2 294,361.2 
		294,361.4 294.1,361.4 294.1,361.7 294.2,361.7 294.2,362.2 294.1,362.2 294.1,362.5 294.2,362.5 294.2,362.7 294.4,362.7 
		294.4,362.8 295.1,362.8 295.1,362.9 295.3,362.9 295.3,363 295.4,363 295.4,363.1 295.5,363.1 295.5,363.1 295.5,363.2 
		295.7,363.2 295.7,363.3 295.8,363.3 295.8,363.4 295.9,363.4 295.9,363.5 296.1,363.5 296.1,363.6 296.2,363.6 296.2,363.9 
		296.3,363.9 296.3,364.1 296.3,364.1 296.3,364.2 296.4,364.2 296.4,364.3 296.5,364.3 296.5,364.5 296.6,364.5 296.6,364.6 
		296.8,364.6 296.8,364.5 296.8,364.5 296.8,364.7 296.9,364.7 296.9,364.9 297.1,364.9 297.1,365 297,365 297,365.1 297.1,365.1 
		297.1,365.3 297.2,365.3 297.2,365.4 297.3,365.4 297.3,365.5 297.4,365.5 297.4,365.6 297.6,365.6 297.6,366.1 297.7,366.1 
		297.7,366.3 297.8,366.3 297.8,366.4 298,366.4 298,366.7 298,366.7 298,366.8 298.2,366.8 298.2,366.9 298.3,366.9 298.3,367 
		298.4,367 298.4,367.1 298.6,367.1 298.6,367.2 298.7,367.2 298.7,367.4 298.8,367.4 298.8,367.5 298.9,367.5 298.9,367.6 
		298.9,367.6 298.9,367.8 299.2,367.8 299.2,368.1 299.3,368.1 299.3,368.2 299.3,368.2 299.3,368.3 299.4,368.3 299.4,368.4 
		299.3,368.4 299.3,368.6 299.4,368.6 299.4,368.7 299.5,368.7 299.5,368.8 299.6,368.8 299.6,368.9 299.7,368.9 299.7,369.2 
		299.7,369.2 299.7,369.3 299.9,369.3 299.9,369.6 300,369.6 300,369.7 300.1,369.7 300.1,369.8 300.1,369.8 300.1,369.9 
		300.2,369.9 300.2,370 300.3,370 300.3,370.2 300.4,370.2 300.4,370.5 300.5,370.5 300.5,370.6 300.5,370.6 300.5,370.7 
		300.7,370.7 300.7,371 300.8,371 300.8,371.2 300.9,371.2 300.9,371.4 301,371.4 301,371.5 301,371.5 301,371.7 301.1,371.7 
		301.1,372 301.2,372 301.2,372.1 301.3,372.1 301.3,372.4 301.4,372.4 301.4,372.5 301.4,372.5 301.4,372.6 301.5,372.6 
		301.5,372.8 301.6,372.8 301.6,372.9 301.7,372.9 301.7,373 301.8,373 301.8,373.5 301.7,373.5 301.7,373.7 301.6,373.7 
		301.6,373.8 301.4,373.8 301.4,373.9 301.5,373.9 301.5,374 301.6,374 301.6,374.1 301.7,374.1 301.7,374.2 301.9,374.2 
		301.9,374.3 302.2,374.3 302.2,374.4 302.3,374.4 302.3,374.5 302.5,374.5 302.5,374.6 302.6,374.6 302.6,374.7 302.6,374.7 
		302.6,374.8 302.7,374.8 302.7,375.1 302.8,375.1 302.8,375.2 302.9,375.2 302.9,375.3 303,375.3 303,375.4 303.1,375.4 
		303.1,375.6 303.2,375.6 303.2,375.7 303.3,375.7 303.3,375.8 303.4,375.8 303.4,376.2 303.3,376.2 303.3,376.3 303.4,376.3 
		303.4,376.8 303.5,376.8 303.5,376.9 303.6,376.9 303.6,377.6 303.7,377.6 303.7,378.1 303.8,378.1 303.8,378.4 303.9,378.4 
		303.9,378.6 303.9,378.6 303.9,378.7 304,378.7 304,378.8 304.2,378.8 304.2,378.9 304.3,378.9 304.3,379 304.3,379 304.3,379.1 
		304.4,379.1 304.4,379.3 304.5,379.3 304.5,379.7 304.4,379.7 304.4,379.8 304.3,379.8 304.3,379.9 304.3,379.9 304.3,380 
		304.2,380 304.2,380.4 304.7,380.4 304.7,380.5 304.9,380.5 304.9,380.7 305,380.7 305,380.9 304.9,380.9 304.9,381 304.4,381 
		304.4,380.9 304.3,380.9 304.3,380.8 304.3,380.8 304.3,380.7 304.2,380.7 304.2,380.5 304.1,380.5 304.1,380.4 304,380.4 
		304,380.3 303.9,380.3 303.9,380.2 303.8,380.2 303.8,380.1 303.7,380.1 303.7,380.2 303.7,380.2 303.6,380.2 303.6,380.4 
		303.7,380.4 303.7,380.5 303.8,380.5 303.9,380.5 303.9,380.6 303.9,380.7 303.9,380.7 303.9,380.7 303.9,380.7 304,380.8 
		304,380.9 304.1,380.9 304.1,381 304.1,381.2 304.2,381.2 304.2,381.3 304.2,381.3 305.2,381.3 305.2,381.2 305.8,381.2 
		305.8,381.3 306,381.3 306,381.5 306,381.5 306,381.7 306.1,381.7 306.1,381.9 306.2,381.9 306.2,382.1 306.3,382.1 306.3,382.2 
		306.4,382.2 306.4,382.3 306.4,382.3 306.4,382.4 306.5,382.4 306.5,382.5 306.6,382.5 306.6,382.7 306.7,382.7 306.7,382.8 
		306.6,382.8 306.6,382.9 306.7,382.9 306.7,383.1 306.8,383.1 306.8,383.6 306.8,383.6 306.8,383.7 306.9,383.7 306.9,383.8 
		307.1,383.8 307.1,383.9 307.2,383.9 307.2,384.2 307.3,384.2 307.3,384.3 307.3,384.3 307.3,384.4 307.5,384.4 307.5,384.5 
		307.6,384.5 307.6,384.6 307.7,384.6 307.7,384.7 307.7,384.7 307.7,385.2 307.8,385.2 307.8,385.4 307.9,385.4 307.9,385.5 
		308,385.5 308,385.7 308.1,385.7 308.1,385.8 308.1,385.8 308.1,385.9 308.2,385.9 308.2,386.1 308.3,386.1 308.3,386.3 
		308.4,386.3 308.4,386.5 308.5,386.5 308.5,386.6 308.5,386.6 308.5,386.8 308.6,386.8 308.6,386.9 308.7,386.9 308.7,387.1 
		308.8,387.1 308.8,387.3 308.9,387.3 308.9,387.4 308.9,387.4 308.9,387.7 309,387.7 309,387.8 309.1,387.8 309.1,388 309.2,388 
		309.2,388.1 309.3,388.1 309.3,388.3 309.3,388.3 309.3,388.5 309.4,388.5 309.4,388.6 309.5,388.6 309.5,388.7 309.6,388.7 
		309.6,388.8 309.7,388.8 309.7,389.1 309.8,389.1 309.8,389.3 309.8,389.3 309.8,389.4 309.9,389.4 309.9,389.6 310,389.6 
		310,389.7 310.1,389.7 310.1,389.8 310.2,389.8 310.2,390 310.2,390 310.2,390.2 310.3,390.2 310.3,390.5 310.4,390.5 310.4,390.7 
		310.5,390.7 310.5,390.9 310.6,390.9 310.6,391.1 310.6,391.1 310.6,391.3 310.7,391.3 310.7,391.4 310.8,391.4 310.8,391.6 
		310.9,391.6 310.9,391.7 311,391.7 311,392 311,392 311,392.2 311.1,392.2 311.1,392.3 311.2,392.3 311.2,392.4 311.3,392.4 
		311.3,392.6 311.4,392.6 311.4,392.8 311.4,392.8 311.4,393 311.5,393 311.5,393.3 311.6,393.3 311.6,393.5 311.7,393.5 
		311.7,393.7 311.8,393.7 311.8,393.9 311.9,393.9 311.9,394.1 311.9,394.1 311.9,394.2 312,394.2 312,394.3 312.1,394.3 
		312.1,394.5 312.2,394.5 312.2,394.6 312.3,394.6 312.3,394.9 312.3,394.9 312.3,395.1 312.4,395.1 312.4,395.3 312.5,395.3 
		312.5,395.5 312.6,395.5 312.6,395.9 312.7,395.9 312.7,396.2 312.7,396.2 312.7,396.4 312.8,396.4 312.8,396.5 312.9,396.5 
		312.9,396.7 313,396.7 313,396.9 313.1,396.9 313.1,397.1 313.1,397.1 313.1,397.3 313.2,397.3 313.2,397.5 313.3,397.5 
		313.3,397.6 313.4,397.6 313.4,397.7 313.5,397.7 313.5,398.4 313.5,398.4 313.5,398.5 313.6,398.5 313.6,398.6 313.7,398.6 
		313.7,398.7 313.9,398.7 313.9,398.8 314,398.8 314,399.1 314,399.1 314,399.4 314.1,399.4 314.1,399.6 314.2,399.6 314.2,399.7 
		314.3,399.7 314.3,399.8 314.4,399.8 314.4,399.9 314.4,399.9 314.4,400.1 314.5,400.1 314.5,400.2 314.6,400.2 314.6,400.6 
		314.7,400.6 314.7,400.7 314.8,400.7 314.8,400.9 314.8,400.9 314.8,401 314.9,401 314.9,401.1 315,401.1 315,401.4 315.1,401.4 
		315.1,401.8 315.2,401.8 315.2,402.1 315.2,402.1 315.2,402.3 315.3,402.3 315.3,402.5 315.4,402.5 315.4,402.7 315.5,402.7 
		315.5,402.9 315.6,402.9 315.6,403.2 315.6,403.2 315.6,403.4 315.7,403.4 315.7,403.9 315.8,403.9 315.8,404.1 315.9,404.1 
		315.9,404.3 316,404.3 316,404.8 316.1,404.8 316.1,405 316.1,405 316.1,405.3 316.2,405.3 316.2,405.4 316.3,405.4 316.3,405.3 
		316.4,405.3 316.4,405.5 316.5,405.5 316.5,405.7 316.5,405.7 316.5,406 316.6,406 316.6,406.2 316.7,406.2 316.7,406.4 
		316.8,406.4 316.8,406.6 316.9,406.6 316.9,406.9 316.9,406.9 316.9,407.2 317,407.2 317,407.5 317.1,407.5 317.1,407.8 
		317.2,407.8 317.2,407.9 317.3,407.9 317.3,408 317.3,408 317.3,408.2 317.4,408.2 317.4,408.3 317.5,408.3 317.5,408.5 
		317.6,408.5 317.6,408.8 317.7,408.8 317.7,409.1 317.7,409.1 317.7,409.2 317.8,409.2 317.8,409.4 317.9,409.4 317.9,409.6 
		318,409.6 318,409.7 318.1,409.7 318.1,409.9 318.2,409.9 318.2,410 318.2,410 318.2,410.3 318.3,410.3 318.3,410.5 318.4,410.5 
		318.4,410.9 318.5,410.9 318.5,411.1 318.6,411.1 318.6,411.3 318.6,411.3 318.6,411.6 318.7,411.6 318.7,411.8 318.8,411.8 
		318.8,412 318.9,412 318.9,412.2 319,412.2 319,412.4 319,412.4 319,412.5 319.1,412.5 319.1,412.6 319.2,412.6 319.2,412.7 
		319.3,412.7 319.3,413.1 319.4,413.1 319.4,413.3 319.4,413.3 319.4,413.4 319.5,413.4 319.5,413.5 319.6,413.5 319.6,413.6 
		319.7,413.6 319.7,413.7 319.8,413.7 319.8,413.9 319.8,413.9 319.8,414.1 319.9,414.1 319.9,414.4 319.8,414.4 319.8,414.5 
		319.9,414.5 319.9,414.6 320.1,414.6 320.1,414.7 320.2,414.7 320.2,414.8 320.3,414.8 320.3,415 320.3,415 320.3,415.1 
		320.4,415.1 320.4,415.3 320.5,415.3 320.5,415.5 320.6,415.5 320.6,415.8 320.7,415.8 320.7,416 320.7,416 320.7,416.1 
		320.8,416.1 320.8,416.3 320.9,416.3 320.9,416.5 321,416.5 321,416.7 321.1,416.7 321.1,416.8 321.1,416.8 321.1,417.2 
		321.2,417.2 321.2,417.3 321.3,417.3 321.3,417.5 321.4,417.5 321.4,417.6 321.5,417.6 321.5,417.8 321.5,417.8 321.5,418.1 
		321.6,418.1 321.6,418.2 321.7,418.2 321.7,418.3 321.8,418.3 321.8,418.6 321.9,418.6 321.9,418.7 321.9,418.7 321.9,418.8 
		322,418.8 322,419 322.1,419 322.1,419.3 322.2,419.3 322.2,419.6 322.3,419.6 322.3,419.8 322.3,419.8 322.3,420.1 322.4,420.1 
		322.4,420.3 322.5,420.3 322.5,420.4 322.6,420.4 322.6,420.5 322.7,420.5 322.7,420.6 322.8,420.6 322.8,420.8 322.8,420.8 
		322.8,421 322.9,421 322.9,421.2 323,421.2 323,421.4 323.1,421.4 323.1,421.6 323.2,421.6 323.2,421.9 323.2,421.9 323.2,422.1 
		323.3,422.1 323.3,422.4 323.4,422.4 323.4,422.8 323.5,422.8 323.5,423.1 323.6,423.1 323.6,423.3 323.6,423.3 323.6,423.6 
		323.7,423.6 323.7,424.3 323.8,424.3 323.8,424.5 323.9,424.5 323.9,424.6 324,424.6 324,425.4 323.9,425.4 323.9,425.6 
		323.8,425.6 323.8,425.7 323.7,425.7 323.7,425.8 323.6,425.8 323.6,425.9 323.5,425.9 323.5,426 323.4,426 323.4,426 323.4,426.1 
		323.3,426.1 323.3,426.2 323.2,426.2 323.2,426.3 323.3,426.3 323.3,426.4 323.6,426.4 323.6,426.7 323.5,426.7 323.5,426.8 
		323.3,426.8 323.3,427 323.2,427 323.2,426.8 323.1,426.8 323.1,427 323,427 323,427.2 323.1,427.2 323.1,427.3 323.2,427.3 
		323.2,427.4 323.2,427.4 323.2,427.6 323.3,427.6 323.3,427.7 323.2,427.7 323.2,427.8 323,427.8 323,427.7 322.9,427.7 
		322.9,427.6 322.8,427.6 322.8,427.7 322.6,427.7 322.6,427.9 322.5,427.9 322.5,428 322.6,428 322.6,428.1 322.5,428.1 
		322.5,428.3 321.9,428.3 321.9,428.6 321.9,428.6 321.9,428.9 321.8,428.9 321.8,429 321.7,429 321.7,429.1 321.5,429.1 
		321.5,429.2 321.4,429.2 321.4,429.3 321.3,429.3 321.3,429.2 321.1,429.2 321.1,429.1 321.1,429.1 321.1,429.2 320.9,429.2 
		320.9,429.3 320.7,429.3 320.7,429.5 320.6,429.5 320.6,429.6 320.5,429.6 320.5,429.7 320.4,429.7 320.4,429.9 320.3,429.9 
		320.3,430 320.2,430 320.2,430.1 319.9,430.1 319.9,430.2 319.8,430.2 319.8,430.3 319.8,430.3 319.8,430.4 319.5,430.4 
		319.4,430.4 319.4,430.4 319.4,430.5 319.4,430.5 319.4,430.5 319.4,430.6 319.4,430.6 319.3,430.6 319.3,430.6 319.3,430.7 
		319.3,430.7 319.3,430.7 319.2,430.7 319.2,430.8 319.2,430.8 319.1,430.8 319.1,430.9 319,430.9 319,431 318.9,431 318.9,431.1 
		318.7,431.1 318.7,431.3 318.6,431.3 318.6,431.4 318.6,431.4 318.6,431.5 318.5,431.5 318.5,431.6 318.3,431.6 318.3,431.7 
		318.2,431.7 318.2,431.8 318.2,431.8 318.2,431.9 318,431.9 318,432 317.9,432 317.9,432.1 317.8,432.1 317.8,432.2 317.7,432.2 
		317.7,432.3 317.7,432.3 317.7,432.8 317.6,432.8 317.6,433 317.5,433 317.5,433.1 317.4,433.1 317.4,433.5 317.3,433.5 
		317.3,433.6 317.3,433.6 317.3,433.8 317.3,433.8 317.3,433.8 317.3,433.9 317.4,433.9 317.4,434.1 317.5,434.1 317.5,434.5 
		317.1,434.5 317.1,434.6 317,434.6 317,435.3 317.1,435.3 317.1,436.1 317,436.1 317,436.2 316.9,436.2 316.9,436.3 316.9,436.3 
		316.9,436.2 316.8,436.2 316.8,436.1 316.4,436.1 316.4,436.2 316.3,436.2 316.3,436.4 316.2,436.4 316.2,436.5 316.1,436.5 
		316.1,436.6 316,436.6 316,436.7 315.9,436.7 315.8,436.7 315.8,436.9 315.7,436.9 315.7,437.1 315.4,437.1 315.4,437.2 
		315.3,437.2 315.3,437.3 315.2,437.3 315.2,437.5 315.1,437.5 315.1,437.6 315,437.6 315,437.7 314.9,437.7 314.9,437.8 
		314.8,437.8 314.8,437.9 314.8,437.9 314.8,438 314.6,438 314.6,438.1 314.5,438.1 314.5,438.3 314.4,438.3 314.4,438.4 
		314.3,438.4 314.3,438.5 314.1,438.5 314.1,438.6 314,438.6 314,438.7 314,438.7 314,438.9 313.9,438.9 313.9,439 313.8,439 
		313.8,439.3 313.7,439.3 313.7,439.4 313.6,439.4 313.6,439.7 313.5,439.7 313.5,439.8 313.4,439.8 313.4,439.9 313.3,439.9 
		313.3,440 313.2,440 313.2,440.1 313.1,440.1 313.1,440.2 313.1,440.2 313.1,440.3 313,440.3 313,440.4 312.8,440.4 312.8,440.5 
		312.7,440.5 312.7,440.6 312.6,440.6 312.6,440.8 312.5,440.8 312.5,440.9 312.4,440.9 312.4,441.1 312.3,441.1 312.3,441.2 
		312,441.2 312,441.3 311.9,441.3 311.9,441.4 311.7,441.4 311.7,441.5 311.6,441.5 311.6,441.6 311.4,441.6 311.4,441.7 
		311.2,441.7 311.2,441.8 311,441.8 311,441.9 311,441.9 311,442 310.9,442 310.9,442.2 310.8,442.2 310.8,442.3 310.6,442.3 
		310.6,442.5 310.6,442.5 310.6,442.6 310.4,442.6 310.4,442.7 310.3,442.7 310.3,442.8 310.2,442.8 310.2,442.9 310.1,442.9 
		310.1,443 310,443 310,443.1 309.9,443.1 309.9,443.2 309.8,443.2 309.8,443.3 309.8,443.3 309.8,443.4 309.7,443.4 309.7,443.6 
		309.6,443.6 309.6,443.7 309.5,443.7 309.5,443.9 309.3,443.9 309.3,444 309.3,444 309.3,444.1 309.1,444.1 309.1,444.2 
		308.9,444.2 308.9,444.3 308.8,444.3 308.8,444.4 308.7,444.4 308.7,444.7 308.6,444.7 308.6,445.3 308.7,445.3 308.7,445.4 
		308.9,445.4 308.9,445.6 308.9,445.6 308.9,445.7 308.9,445.7 308.9,445.8 308.8,445.8 308.8,445.9 308.6,445.9 308.6,446 
		308.5,446 308.5,446.2 308.1,446.2 308.1,446.3 307.9,446.3 307.9,446.2 307.7,446.2 307.7,446.1 307.3,446.1 307.3,446.2 
		307.2,446.2 307.2,446.3 307.1,446.3 307.1,446.7 306.9,446.7 306.9,446.9 306.8,446.9 306.8,447.6 306.8,447.6 306.8,447.8 
		306.7,447.8 306.7,448.2 306.5,448.2 306.5,448.1 306.4,448.1 306.4,448.2 306.4,448.2 306.4,448.5 306.5,448.5 306.5,448.7 
		306.4,448.7 306.4,448.8 306.4,448.8 306.4,448.9 306.3,448.9 306.3,449 306,449 306,449.1 305.9,449.1 305.9,449.6 305.8,449.6 
		305.8,449.9 305.9,449.9 305.9,450 306,450 306,450.4 305.9,450.4 305.9,450.5 305.8,450.5 305.8,450.7 305.7,450.7 305.7,451.4 
		305.6,451.4 305.6,451.6 305.6,451.6 305.6,452.3 305.6,452.3 305.6,452.5 305.7,452.5 305.7,452.6 305.8,452.6 305.8,452.7 
		305.9,452.7 305.9,452.9 306,452.9 306,453 305.9,453 305.9,454.3 305.8,454.3 305.8,454.4 305.7,454.4 305.7,455.7 306.6,456.4 
		306.9,456.7 310.8,461 314.1,460.1 315.1,459.8 319.8,457.2 323.8,455.1 327.6,453 329.3,452.6 329.9,452.4 331.9,452.6 334.2,455 
		336.1,458.7 335.7,464.9 334.3,470.2 333.7,472.2 334.2,474.5 334.8,475.6 336,476 341.4,476.3 343.6,476.3 343.9,476.3 
		348.3,477.6 349.4,478 357.4,480.4 361.7,481.3 363.3,481.6 368.4,485.6 370.6,489 372.4,493.6 372.5,494 374.4,499.2 376.6,500.5 
		376.9,500.7 378.6,501 378.9,500.5 382.6,493.2 383.5,483.5 384,478.2 384.4,474.3 382.5,468.3 382,467.6 382.6,465.8 384,461.1 
		387.3,454.5 389.3,451.4 391.3,448.3 395.9,444.8 399.3,443.9 400.5,443.6 403.4,443.5 404.1,443.7 406,444.3 410.5,447 
		413.6,447.4 416.2,446.4 417.4,446 418.4,444.7 417.2,442.1 415.1,437.2 416,432.7 417.4,430.9 421.6,427.9 429.5,432.4 
		433.2,432.6 435.9,431.7 436.5,431.5 438.2,430.4 439.5,429.1 440.5,425.7 440.1,419.4 440.9,417.3 443.5,414 444.3,411.7 
		444.1,409.1 444,408.6 442.4,403 445.1,397 444,394.4 442.4,392.7 441.6,391 441.5,389.4 441.4,387.7 440.2,383.4 443.4,374.2 
		442.3,370.8 438.9,363.8 440.4,359.4 442.4,356.4 445.3,355.9 445.9,355.3 446.6,352.1 445.5,348.6 445,347 445,343 446.7,341.7 
		449.4,343 452.3,345.4 453.5,346.3 456,347.6 462.4,348.7 466.4,351.3 468.2,350.9 469.4,349.8 471.6,344.7 472,342.2 472.4,340.2 
		472.5,339.2 473.4,338.6 476.6,339.9 477.5,340.3 477.9,339.9 479.7,338.1 481.4,337.2 487.1,337.2 491.4,341.1 497.5,339.4 
		499.1,339.5 505.8,344.6 506.5,345.2 509.2,345.5 510.3,345.3 511.8,345.1 513.4,343.2 515.6,340.6 519.6,340.6 525.6,340.6 
		526.9,339.1 528.3,337.5 533.1,334.8 534.3,332.5 534.7,330.6 	"/>
</g>
</svg>
