<?xml version="1.0" encoding="utf-8"?>
<!-- Generator: Adobe Illustrator 24.2.3, SVG Export Plug-In . SVG Version: 6.00 Build 0)  -->
<svg version="1.1" id="Layer_1" xmlns="http://www.w3.org/2000/svg" xmlns:xlink="http://www.w3.org/1999/xlink" x="0px" y="0px"
	 viewBox="0 0 800 533" style="enable-background:new 0 0 800 533;" xml:space="preserve">
<style type="text/css">
	.st0{fill:#F2933D;stroke:#000000;stroke-width:0.4;stroke-miterlimit:9;}
</style>
<polygon class="st0" points="717.3,412.1 716.3,403 712.5,398.5 709.8,397.5 706.2,391.9 700.9,388.8 700.1,387.6 701,385.2 
	700.1,382.7 699.5,382.6 699.2,382.6 695.3,382 693.3,379.7 688.6,369.7 685.2,366.6 683.4,365.9 680.5,364.8 679.6,363 
	678.4,355.7 676.5,352.5 674.1,350.9 671.1,352.5 669.4,352.6 667.4,347.1 669.6,340.7 668.4,338.1 665.5,338.1 662.3,340.9 
	658.8,341.3 646.8,332.8 643.1,331.2 636.3,325.9 638.5,321.8 638,318.7 630.6,321.3 628,320.3 626.7,318.4 626.4,315.6 626,306.4 
	624.8,303.9 623.2,301.2 616.3,296.2 612.3,291.4 611,281.1 609.6,276.6 602.4,268.3 597.7,266.3 595.1,264 589.7,254.9 
	580.8,242.5 579.1,241.2 579,241.2 573.8,240.8 571.1,239.6 566.8,234.6 554.7,225.3 551.7,223 549.9,223 543.7,223 542.5,223 
	542.1,222.3 540.2,220.9 538.6,220.1 535.2,220 533.1,218.2 527.4,213.3 520.5,207.4 518.5,206.1 515.9,204.5 515,203.9 510,201.1 
	506,201.3 502.8,203 500.8,200.2 497.1,199.1 494.5,196 486.3,195.1 477.6,197 475.8,199.6 472.6,199.1 469.7,202.6 463.2,202.8 
	460.8,202.1 456.2,203.9 447.1,205.4 444.4,204.5 443.7,204.8 440.3,206.1 435.4,206.3 430.1,207.3 425.5,204 423.3,203.9 
	417.1,204.6 408.2,203.3 400.2,204.3 396,205.2 390.1,207 383.5,205.9 377.6,205.7 373.1,207.3 369.1,210.2 363.6,212.5 
	355.7,211.5 350.3,212 344.1,212.3 336.9,212.7 331.1,210.5 325.7,207.7 318.7,201.9 310.6,198.7 305.1,195.9 303.7,194.6 
	301,192.1 295.2,190.3 290.8,187.3 280.2,178.7 271.8,179.8 266.7,180.4 258.9,178.6 254,175.1 252.1,172.4 249.2,169.9 
	245.9,168.6 239.4,166.3 235.4,164.1 232.4,161.2 229.5,156.4 228.6,150.6 230.2,143.9 232.2,140.3 235.7,136 248.7,132.2 
	254.6,131.6 256.7,130.2 256.9,126.8 254,122.8 249.2,118.6 247.5,113.1 243.7,110.7 235.5,101.1 232.7,102 230.1,103.3 
	227.8,104.9 220.2,110.9 217.5,112.5 214.7,113.5 206.2,115.7 198.8,119.2 194,120.2 189,120.6 182.3,120.5 173.9,120.1 
	164.5,120.4 143.2,120.3 136.8,120.4 132.1,121.1 130.5,121.5 128,122.7 122.4,126 120.3,127.5 119.4,128.5 118.7,129.8 
	118.3,131.1 118,133.9 118.5,138.1 119.5,140.7 121.9,145.4 122.6,148.1 122.8,149.5 122.5,152.5 121.2,155.4 119.5,158 
	117.4,160.3 115,162.3 112.4,163.9 110.9,164.4 108,164.8 106.6,164.6 104,163.8 99.5,161.3 97,160.3 92.9,159.7 90.2,160.1 
	88.9,160.5 87.7,161.2 86.7,162.1 85.2,164.3 82.5,168.8 80.7,172.6 80.1,175.7 80,180.3 80.5,183.4 80.9,184.9 87.2,197.8 
	88.9,200.5 94.9,207.9 96.7,210.4 103.1,223.4 104.1,226.3 104.8,230.9 104.9,235.7 104.9,243.7 111.3,244.2 114.2,245 115.5,245.8 
	117.4,247.7 120.4,252.6 122,255.6 123.1,258.9 123.8,264.4 123.9,270 123.6,324.9 123.2,337.5 135.3,345.9 141.8,349 147.9,352.1 
	149.2,352.6 152,353.2 154.9,353.3 158.3,353 162,349.2 164.9,346.8 166.5,344.8 171.8,335.4 174.8,328.9 176.4,326.6 178.4,324.6 
	180.7,323.1 182.3,322.5 185.6,321.7 190.7,321.4 197.6,321.4 211.7,321.5 218.6,322 221.9,322.7 224.8,323.7 230.8,327 
	236.1,329.4 242.1,332.8 244.9,333.8 248,334.4 252.9,334.8 268,334.8 269.3,338.3 270.8,340.2 279.6,346.1 286.2,349 293.5,353.1 
	298.9,355.4 306.1,359.6 311.3,362.1 313.9,363.8 321.1,369.8 324.9,372.5 330.2,375 337.4,379.2 342.8,381.5 350,385.6 355.3,388 
	362.5,392.3 367.7,394.7 373.6,397.8 376.3,398.4 379.1,398.4 381.8,397.7 386.5,395.4 389.2,394.4 392.3,393.8 397.1,393.4 
	435.1,393.2 443.2,393.5 448,394.2 450.7,395.3 456.7,398.6 462,401 466.8,403.7 469.3,404.9 473.7,406 481.2,406.7 502,406.5 
	507.2,406.1 510.6,405.5 513.7,404.3 530.6,395.6 532.1,394.9 535.4,394 542.3,393.4 558.3,393.4 565.4,393.2 570.7,392.6 
	575.2,391.5 578.4,390 584,392.5 591,385.6 602.5,377.8 610,370.5 611,369.6 622.1,357.9 624.8,354.1 630,349.3 632.1,348.4 
	633.5,347.7 637.1,347.2 640.4,347.9 641.9,350.1 643.4,356.5 649,369 650.9,372 656.2,377.1 660.1,379.1 672,383.8 678.3,386.2 
	701.6,412 716.7,424.2 719.4,431.9 720,420.7 "/>
</svg>
