<?xml version="1.0" encoding="utf-8"?>
<!-- Generator: Adobe Illustrator 24.2.3, SVG Export Plug-In . SVG Version: 6.00 Build 0)  -->
<svg version="1.1" id="Layer_1" xmlns="http://www.w3.org/2000/svg" xmlns:xlink="http://www.w3.org/1999/xlink" x="0px" y="0px"
	 viewBox="0 0 800 533" style="enable-background:new 0 0 800 533;" xml:space="preserve">
<style type="text/css">
	.st0{fill:#F2933D;stroke:#000000;stroke-width:0.4;stroke-miterlimit:9;}
</style>
<polygon class="st0" points="641.7,192.8 641.1,190.7 640.6,189.6 638.7,186.9 636.4,184.4 632.4,180.5 629.8,178.4 628,177.2 
	624.3,175.4 621.8,173.8 615,167.6 611,163.1 608,160.3 606.4,159.1 605.6,158.6 601.8,156.9 600.1,155.8 597.8,153.8 594.1,150.2 
	569.4,124.5 565.6,120.6 563.2,118.5 561.5,117.2 560.6,116.7 557.6,115.3 556,114.5 554.3,113.3 552.8,111.9 549.7,108.9 
	535.4,94.2 533.2,91.9 531.9,90.3 530.8,88.5 530,86.6 529.6,84.5 529.4,81.4 529.5,77.1 529.8,74 530.3,71.9 531.7,68 528.2,66.9 
	522.5,64.6 521,63.9 519.4,62.7 518,61.3 517.4,60.5 516.5,58.8 515.5,56.5 514.7,54.9 513.6,53.2 512.3,51.6 509.5,48.4 
	506.5,45.4 500.5,39.9 498,36.7 495.9,34.5 494.3,33.3 492.5,32.4 490.6,32.1 489.6,32 487.7,32 485.8,32.4 484.9,32.8 483.2,33.8 
	481.6,35 479.4,37.2 468.5,48.7 438.9,79.3 435.1,83.1 432.7,85.2 431.1,86.4 429.4,87.3 426.4,88.7 424.7,89.7 422.3,91.7 420,94 
	414.7,99.4 411.1,103.4 409.3,105.8 407.5,108.9 406.8,109.5 405.8,110 403.3,114.9 401.8,117.2 399.1,120.4 396.7,122.5 
	395.1,123.7 393.4,124.6 390.3,125.8 386.8,127.4 383.1,128.9 377.9,132.3 376.1,133.2 375,133.5 373,134 366.5,134.6 364.4,135 
	362.5,135.7 358,137.8 356,138.4 350.9,139.5 349,140.2 339.9,145 337.1,147.2 333.7,150.5 327,157.5 323.6,158.1 321.9,158.8 
	317.6,161.2 313.8,162.9 312.1,164 310.5,165.3 306.7,169 269.1,207.8 266.8,210 265.2,211.3 263.6,212.4 261.5,213.5 260.2,214.4 
	258.9,215.6 256.9,218.2 255.2,218.9 253.5,219.9 248,224.5 246.3,225.7 241.7,228 239.1,229.8 236.6,232 232.7,235.9 228.8,240 
	225.9,243.3 224.1,246 222.4,250 220.6,253.5 219.8,255.4 219.5,256.5 219.1,258.6 218.6,265.3 218.2,267.5 217.8,268.6 
	216.4,271.3 211.8,277.9 213.6,281.9 215.4,287.1 217.5,291.5 218,293.5 218,295.6 217.7,296.6 216.9,298.5 215.7,300.1 
	211.9,304.9 210.8,306.6 209,310.4 207.1,312.8 204.8,314.6 201.2,316.5 199.5,317.5 193.8,322.2 192.2,323.4 184.2,327.6 
	182.4,328.4 180.1,329 176.4,329.4 171.5,329.5 160.2,329.4 159.1,333.5 158,336.3 160.8,339.5 162.7,342 163.7,343.8 165.4,347.7 
	167.2,350.5 169.5,353.1 171.1,354.7 172.9,356 173.9,356.5 176,357.1 177.1,357.2 179.3,357.2 181.4,356.9 183.3,356.2 
	187.6,353.7 191.3,351.9 193.8,350.2 197.8,346.7 200.2,344.8 201.8,343.9 204.8,342.5 206.5,341.4 208.9,339.4 215,333.4 
	217.4,331.4 219.1,330.3 222.1,328.9 223.7,328 226.1,326.2 229.2,323.2 236,316.3 239.1,313.4 241.6,311.7 244.6,310.2 
	246.2,309.3 247.8,308.1 251.6,304.7 253.2,303.5 254.1,303 255.8,302.4 256.6,302.3 258.3,302.3 260,302.8 264.2,305.1 
	265.8,305.6 268.2,306.2 270.2,308.7 271.4,310.4 272.2,312 273.5,315.2 276.4,320.5 278,324.5 279,326.2 281,328.7 283.9,331.9 
	288.4,336.5 290.6,338.8 293,340.9 295.5,342.6 298.5,344 300,344.9 302.2,346.5 305.7,349.6 308.1,351.5 317.1,356.1 319.1,356.8 
	321.3,357.3 324.9,357.5 344,357.3 349.9,357.6 352.2,358 354.2,358.7 358.6,361 362.4,362.8 365.1,364.7 367.6,367.1 369.7,369.8 
	370.7,371.8 371.3,374 371.5,376.2 371.6,378.5 371.4,383.3 372,387.5 372.6,389.6 375,395.1 375.6,397.2 376.7,402.5 377.4,404.5 
	379.5,409.1 380.5,413.3 380.9,415.4 381.5,417.5 382.3,419.4 384.1,423 385.3,426 386.4,427.9 387.6,429.8 392.5,435.9 
	394.7,439.1 396,440.2 398.5,441.2 399.1,444.4 399.9,446.4 401.7,449.2 404.7,452.6 407.9,455.7 410.5,457.8 412.3,458.9 
	416.1,460.7 418.6,462.4 421.7,465.3 423.6,467.7 424.7,469.4 426.4,473.4 428.2,476.9 429.1,478.8 429.7,480.9 430.5,485.2 
	431.5,489.1 433.4,488.6 435.4,488.4 437.5,488.6 439.5,489.3 441.3,490.5 442.9,492 447.5,496.8 449.9,499 451.6,500.2 
	452.6,500.7 454.7,501 455.7,501 457.6,500.4 461.8,498.1 465.6,496.4 469,494.4 470.8,493.5 472.8,492.9 474.9,492.4 478.9,491.4 
	483.4,489.3 485.4,488.6 487.7,488.1 493.6,487.5 495.9,487.1 497.9,486.4 502.4,484.3 508.5,482.9 510.5,482.2 513.1,480.8 
	517.9,477.8 519.1,476.5 521.2,473.4 522.5,472 524,470.8 526,469.9 528.2,469.4 530.6,469.2 546.4,469.2 550,468.9 553.5,468.4 
	557.4,463.1 558.9,460.4 559.7,458.5 560.4,455.3 561.5,451.2 563.9,445.6 564.5,443.3 564.9,438.3 565.1,428.1 565.3,424.2 
	565.6,421.7 566.3,418.2 568.2,414 568.8,411.9 569.2,409.5 569.9,403.5 570.3,401.1 571,399 572.6,395.4 573.3,393.4 573.8,390.1 
	574,385.6 575.1,381.4 577.2,376.8 577.9,374.8 579.6,367.4 581.7,362.8 582.3,360.8 582.8,358.4 583.4,352.3 584.1,348.8 
	586.6,343.3 588.4,335.9 589.1,334 591.1,329.4 591.7,327.1 592.1,323.5 592.2,319.8 592.2,297.2 589.6,293.9 588.5,292.2 
	587.6,290.1 586.1,285.9 586,283.4 584.2,278.2 583.6,275 583.5,270.5 583.9,265.9 583.4,261.2 583.3,257.7 583.4,254.3 
	583.8,252.1 584.5,250.1 586.8,245.6 588.5,241.7 590.3,239 593.2,235.5 596.4,232.3 598.9,230.2 600.7,228.9 602.7,228.1 
	607.9,227 609.9,226.4 614.2,224.2 616.8,223.3 623.3,219.5 628.9,217 634.7,213.6 636.2,212.4 637.3,210.9 640.3,205.9 641.1,204 
	641.5,202.9 641.9,200.7 642,198.5 642,196.2 "/>
</svg>
