<?xml version="1.0" encoding="utf-8"?>
<!-- Generator: Adobe Illustrator 24.2.3, SVG Export Plug-In . SVG Version: 6.00 Build 0)  -->
<svg version="1.1" id="Layer_1" xmlns="http://www.w3.org/2000/svg" xmlns:xlink="http://www.w3.org/1999/xlink" x="0px" y="0px"
	 viewBox="0 0 900 600" style="enable-background:new 0 0 900 600;" xml:space="preserve">
<style type="text/css">
	.st0{fill:#F2933D;stroke:#000000;stroke-width:0.4;stroke-miterlimit:9;}
</style>
<g>
	<polygon class="st0" points="497.5,489.8 496.3,487.9 492.9,487.7 492.5,486.8 490,487 490.9,488.4 490.9,489.1 489.6,490.5 
		488.9,492.1 489.1,493.3 490.5,494.3 492.1,494.2 494.1,495.6 494.7,494.9 496.3,494.3 498.3,491.2 497.5,491.2 	"/>
	<polygon class="st0" points="491.4,474.5 490.8,471.7 490.1,471.4 488.5,469.1 486.8,469.6 485.1,469.6 483.2,470.2 482.5,470.7 
		483,473.1 484.6,474.9 485.4,477.2 487.6,477.2 488.4,476.7 490.5,476.3 	"/>
	<polygon class="st0" points="511.8,491 510.9,488.9 510,487.7 508,487.9 506.9,489.1 505.9,489.1 505.9,491 504.1,492.9 
		502.2,493.1 500.1,494.5 499.3,495.6 499.7,496.5 499.3,497.5 499.7,498.9 503.7,499.3 503.3,497.3 504.5,496.5 505.6,497.5 
		505.1,498.2 506.7,498.7 507.6,498 509.4,498 511.3,497.3 512.1,496.1 512.9,496.1 512.7,494 	"/>
	<polygon class="st0" points="461.1,500.1 459.4,500 460.2,501.9 461.5,501.9 462.3,501.2 462,499.6 	"/>
	<polygon class="st0" points="450.7,492.9 449.4,494 449.8,495.2 451.5,494.7 451.3,492.9 	"/>
	<polygon class="st0" points="533.4,508.7 532.2,507.3 532.1,506.3 530.6,509.1 531.3,510.6 532.6,512.2 534.3,512.4 534.2,510.3 	
		"/>
	<polygon class="st0" points="501.8,488.2 500.8,487 500,487.9 500,489.6 501.2,489.8 	"/>
	<polygon class="st0" points="525.3,493.8 524.2,494.5 523.2,494.5 522.3,495.6 519.4,496.8 518.3,497 518.4,501.4 517.6,502.8 
		514.6,503.1 514.8,503.8 517.2,504 516.8,504.9 516.8,506.6 515.9,507.7 517.3,509.9 518.1,512.8 517.6,513.6 516,514.7 
		516.1,515.6 517.1,515.9 517.2,517.1 518.1,517.7 523,517.7 523.5,516.8 523.2,513.8 523.9,513.3 524.2,511.2 523.5,508.4 
		523.8,505.6 525.3,504 526.4,503.8 526.8,502.9 529,499.6 530.1,497.5 530.1,495.8 529,494.7 	"/>
	<polygon class="st0" points="516.5,528.5 517.3,530.5 518.1,530.5 518,528.5 	"/>
	<polygon class="st0" points="467.8,389.9 470.7,388.5 472.1,388.3 472.8,387.3 474.7,386.7 475.4,386 477,386 477.8,384.8 
		480,383.4 481.6,381 481.4,379.7 482.4,378 483.2,377.6 483.7,374.8 484.5,373.6 486,372.9 486.2,371 485.5,370.3 485.1,366.9 
		485.9,365.7 489.1,365 491,363.8 491,357.7 489.9,356.3 489.9,355.5 490,352.2 490.6,350.3 491.3,349.8 491.3,348.4 492.5,346.4 
		492.1,345.6 492.2,344.2 493.5,344.2 495.1,341.9 497.2,340.5 497.6,339.1 498.3,338.4 498.3,336.6 497.2,334.5 496.3,334.5 
		494.6,333.1 494.5,332.1 493.7,331.2 493,329.4 491.8,329.1 491.3,328.4 491.6,327 490.1,324.2 488.9,322.4 486,321.4 484.6,320.5 
		483.9,319.1 481.8,317.9 481.8,316.6 483.3,315.4 485.3,315.1 486.2,314.4 487.4,312.4 488.5,312.3 489.1,311.6 490.9,311.4 
		491.8,310.3 491.7,309.3 493,307.5 496,307 499.2,303.9 499.6,301.2 500.4,298.9 501.2,298.1 502.5,297.5 504.8,293.3 505.6,292.3 
		507.7,288.4 510.2,287.7 511,285.8 512.5,286 513.9,285.6 514.2,284.6 515.5,283.4 516.4,281.6 516.7,280 515.5,279.1 514.6,277.7 
		514.6,276.3 515.1,275.3 516,274.9 516,273.4 517.7,271.4 518.8,271.1 518.5,270 519,267.6 517.7,267.1 516,267.1 516.9,265.1 
		515.8,265.1 514.4,265.8 514.7,264.3 513,263.7 512.7,262.7 510.6,263 510.1,261.4 507.6,260 506.9,259 504.8,259.7 503.8,258.8 
		503.9,257.6 501.7,257.4 501,254.8 499.9,256.2 499.9,257.1 498.5,258.6 497.9,257.6 498.3,256.5 497.6,256 496.6,256.4 
		495.2,256.2 494.2,257.2 493.5,256.4 493.5,255.3 492.8,254.4 490.4,254.6 488.4,254.1 487.9,253.2 487,253.2 486.4,254.4 
		484.1,254.6 483.8,253.7 481.7,252.9 482.2,254.6 482.2,255.8 481.3,257.2 479.9,257.8 480.1,259 479.7,260 478,260.7 474.4,260.7 
		471.9,260.6 470.5,260.7 469.1,260.2 465.5,260.4 464.5,259.3 462.9,259.3 456.7,256.9 455.8,256.2 454.6,256.2 453.3,255.7 
		451.5,256.2 450.6,255.3 448.7,255.3 447.9,255.7 447.7,253.9 446.8,251.5 444.9,251.1 443.1,249.4 441.8,249.7 440.4,249.2 
		439.7,249.5 437.2,249.5 435.3,248.7 434.4,247.1 431.8,246.2 429.4,245.1 427.6,243.7 424.9,243.7 424.1,243.4 422.2,244.6 
		420.9,244.4 414.2,244.4 413.6,243.7 410.5,241.6 408.6,241.3 406.7,241.3 406,240.6 405,240.6 404.2,239.5 404.6,237.3 404.4,236 
		402.9,236 401.4,237.6 400.4,238.1 398.9,238.1 397.5,236.7 394.4,235.9 391.4,235.7 391.2,235.2 387.7,234.5 385.9,232.2 
		385.6,231.3 384.5,231 383.8,229.9 383.5,228 382.7,227.8 382,228.5 381.3,230.3 379.6,228.8 379.2,227.3 377.7,225 375.4,223.1 
		373.9,222.7 372.4,223.1 371.6,223.9 369.6,225.2 368.3,225.2 365,223.6 364.1,225.2 362,224.8 361.8,223.4 363.8,222 363.2,219.4 
		360,217.3 358.2,217.3 356.8,216.9 355.7,215.5 354.7,215.5 353.3,214 351.7,213.1 350.5,213.1 349,213.6 343.4,210.4 342,209.2 
		339.1,208.2 337,208.5 336.6,209.7 334.8,211 332.5,209 326.9,206.6 324.1,204.8 322.9,204.8 321.1,203.3 320,203.3 319.5,202.6 
		317.2,201.3 316.9,200.6 315.3,199.6 316.5,198 316.2,197.3 314.9,197.3 314.7,195.9 312.4,195.9 312.4,197.1 311.4,198.7 
		310.2,199.1 307.3,198.9 306.2,198 305.2,198 304.4,197.1 301.6,195.6 300.2,195.6 299.3,194.9 297.4,194.9 293.8,195.7 
		290.6,194.3 289.4,194.5 288.1,193.1 285.2,192 284.3,191.3 281.8,190.3 277.2,186.6 274,184.3 266.7,181 263.1,178.6 259.8,175.6 
		258.5,175.2 257.2,173.6 256.4,173.5 254.1,171.7 250.9,171 250.5,170.5 249,170.3 247.8,170.1 247.1,169.4 245.9,169.4 
		244.7,168.6 240.5,166.6 239.7,165.8 238.8,165.8 235.8,164 234.6,164 230.5,161.4 229.9,161.4 226.3,159.3 225.1,158.4 
		223.4,157.7 220.3,155.8 218.6,155.2 213.3,151.7 210.2,150.3 208.9,149.5 205.8,148.8 205.6,148.1 202.1,146.3 198.2,145.1 
		194.9,143.2 193.5,142.8 190.1,140.7 189.4,140.7 188.1,139.6 187.3,139.6 185.3,138.2 184.4,138.2 183.7,137.2 182.7,137.2 
		181.9,136.3 180.5,136.1 180.2,135.4 179,135.1 175.6,133 173.9,131.8 172.3,131.2 163.6,126.2 162.1,125.6 158.9,123.5 
		158.1,123.4 155.2,121.8 153.6,120.2 149.4,118.3 146,116.2 141.8,113.9 135.2,110.9 133.1,109 129.3,107.8 127.6,106.4 
		126.6,106.4 126.2,105.5 124.2,104.6 122.8,103 120,102.7 119.1,101.8 118,100 115.9,98.8 114.7,98.6 114.7,96.5 113.8,95.3 
		111.9,95 109.9,92.9 108,93.2 108.3,91.5 107.6,90.6 106.3,90.1 104.4,90.1 102.1,87.8 101.1,87.8 100.4,84.8 97.4,84.3 96.6,85.7 
		94.6,85.3 94.5,84.4 93.3,83 95.6,82 95.7,81.3 94.4,80.9 93.8,80.1 92.8,79.7 92.3,78.8 89.5,75.7 88.1,75.3 87.8,74.1 86.1,72.7 
		85.2,71 85.2,69.5 79.8,71.8 77.4,73.5 75.6,75.6 74.8,78.5 75,80 76.4,82.5 78.5,84.3 80.9,85.6 85.5,87.5 89.5,90 94.5,94.4 
		100.5,100.5 97.7,104.3 96.1,106.9 95.1,109.7 94.8,111.4 93.2,128 92.5,133.2 91.1,138 87.9,145.3 86.7,150.8 86.2,158.7 
		86,178.6 85.7,182.4 85.1,186.2 84,189.5 81.3,195.3 80.2,198.4 77.3,210 73.5,218.7 72.4,224.3 71.4,233.8 70.7,237.6 69.6,240.9 
		66.4,248.1 64.7,254.7 63.6,259.6 62.6,261.8 60.4,265.1 58.1,267.2 55.4,268.9 51,270.9 44.2,274.6 37,278 34.4,279.9 32.3,282.2 
		30.6,284.9 30,286.5 27.4,298 23.4,306.7 20.7,314.8 18,320.3 27,334.6 30.3,342.3 34.9,350.7 37.4,357 42.4,365.4 46.9,373.8 
		49.2,377.6 49.9,376.1 53.4,373.3 54.5,372.9 56.4,372.9 57,372.4 61,371.9 62,371.5 63.9,371.5 64.5,371.9 65.3,370.8 67.4,369.9 
		69.4,369.6 73.3,369.2 78.9,369.2 80,369.7 82.5,369.6 83.5,370.3 85.4,370.1 86.4,370.8 88.1,370.8 88.9,371.3 91,371.3 91.9,371 
		92.3,369.7 93.6,368.5 94,367.6 95,366.9 96.9,366.4 99.9,366.6 101.3,366.4 103.2,366.9 104.2,367.8 105,367.8 105.7,369 
		105.1,370.8 106.3,371.7 109.2,372.4 109.5,373.3 111.6,374.8 112.8,375 113.7,376.1 115.1,375.7 117.5,375.7 121.8,376.1 
		122.6,375.4 128.9,376.2 130.6,376.9 132.1,376.9 134.9,377.5 138.4,378.9 140.2,379.4 141.8,379.2 145.5,379.2 147.2,379.7 
		150,379.7 151.3,378.5 152.3,378.5 153.9,379.2 156.3,379.6 157.3,381.1 158.2,381.7 161,381.8 161.5,382.4 163,382.5 164.4,383.2 
		165.3,382 168.1,382.7 170.3,382.7 170.7,383.2 172.6,383.4 175.3,385.2 178.9,385.2 180.6,386.4 181.9,386.4 183.7,386.9 
		185.7,388.2 186.5,388.2 190.2,389.7 191.1,390.4 192.4,390.6 195.8,392 197.3,393.1 199.1,393.6 199.9,394.3 201.9,395 203.1,396 
		205.7,396.9 206.5,397.8 208.2,398.1 208.9,398.8 212.3,400.6 212.9,401.5 214.8,402.3 215.6,404.1 217.4,405 218.3,405.8 
		218.7,407.1 220.3,408.3 221.1,408.3 223.4,409.7 226.1,410.8 228,412.2 229,412.3 232.1,415.3 232.4,416.9 233.8,416.9 
		234.5,417.4 237.2,418.6 237.6,419.2 240.8,420.6 244.6,422.8 245.8,423.9 246.3,425 247.4,425.3 248.4,424.4 248.7,420.9 
		249.3,419.2 249.3,417.9 250,416.7 250,415.5 251,414.8 252,413.2 252.4,410.8 253.8,409.4 254.5,409.4 256.6,407.6 257.2,406.6 
		257.7,404.6 258.7,404.6 259.2,403.7 263.4,403.6 265.6,404.1 269.3,404.3 270.9,405 272.9,406.9 274.3,409.2 274.4,410.8 
		273.6,412.1 273.3,414.1 273.3,419 272.7,421.6 272.7,423.7 273.3,426 274,427.1 273.4,428.6 273.6,430.2 272.9,430.7 272.5,432.1 
		273.9,433.7 274.2,435.3 275.2,435.3 276.7,436.7 278.9,437.7 279.2,438.3 283.8,440.2 285.3,440.4 286.3,439.8 291.7,439.7 
		292.7,439.3 296.1,439.3 297,439 301.5,439 302.8,438.6 303.5,439.1 304.4,438.4 305.6,439.1 306.6,438.8 306.6,441.3 307.4,441.1 
		307.8,438.4 308.9,438.8 310.3,438.4 310.5,440 311.1,440 311.6,438.8 313.1,438.4 314.7,438.6 315.4,434.9 317.7,433 319.9,433 
		321.2,431.8 321.8,432 325,432.7 327.8,433 329.8,434.8 331.6,434.4 333.3,434.4 334.6,433.7 338.6,433.4 339.5,433.9 340.9,433.9 
		342.1,433.2 342.1,432.3 343.3,430.7 345.2,430.4 346.5,429 348,428.1 349.9,428.3 350.5,427.8 352,428.1 352.2,427.2 353.8,427.2 
		355.5,429 360.9,432.5 361.8,432.7 362.9,433.5 363.7,433.5 368.2,437.6 368.4,438.4 370.1,438.8 372.1,440 373.5,441.4 
		373.9,443.2 375,443.2 376.7,443.9 378.8,443.7 379.8,444.4 380.2,442.7 381,442.1 383.1,442.5 384.7,443.5 385.2,442.5 
		386.6,441.4 388.5,441.8 388.5,440.7 390.4,438.8 391,434.8 393.1,431.6 395.6,431.6 399.4,432.1 400.5,432 401.4,432.7 
		402.2,434.1 403.2,434.1 404.3,435.3 405.3,435.1 407.2,433.2 407.7,431.1 410.2,429.9 411.5,428.5 413,428.3 414,428.6 
		417.7,428.6 421.3,426.7 421.5,425.5 422.7,424.3 424.6,423.5 424.9,423 428.1,423.2 429.4,422.1 431.4,419 432.2,418.3 
		433.1,415.8 434.1,414.6 436.4,415.3 438.6,415.3 439.3,414.6 442.3,415.1 443.1,414.4 446.4,414.4 447.4,414.1 449.5,414.1 
		451.5,415 453.5,415 454.2,414.6 456.6,412.3 457.5,411.1 458.1,408.3 457.9,404.8 457.3,404.3 455.7,404.8 452.3,404.1 
		450.3,403.9 447.9,402.7 446.1,401.3 444.1,398 442.7,397.4 440.7,395.7 440.3,393.9 439.7,392.7 438.6,391.7 438.6,390.8 
		437.7,389.4 436.5,389.4 434.4,387.3 433.7,385.4 433.5,382.4 434.7,380.6 438.6,379 438.7,378 437.5,376.1 437.5,374.7 438.7,375 
		439,376.4 439.8,377.6 439.8,378.6 439.7,379.7 438.3,380.4 437.9,381.1 436.4,381.1 435.4,383.1 435.4,384.3 436.2,385.9 
		439.1,388.2 440.2,390.1 440.4,391.3 441.8,393.9 443.2,394.3 445,394.3 446.5,395.2 446.9,396 447.9,396.4 447.9,398.3 
		449.5,401.1 451.7,401.8 454,401.3 454.9,400.1 455.8,399.9 457.8,398 458.3,398 459.4,395.5 461.2,394.5 461.7,392.7 462.3,392.7 
		463.4,391.1 464.8,391.1 467.3,390.4 	"/>
	<polygon class="st0" points="881.8,349.8 880.5,344.3 876.3,335.6 873.5,327.5 872.1,325.2 870.1,324.9 868.5,325.2 867.6,326.6 
		867.1,328.4 864.5,328.4 863.3,327.5 858.7,326.5 855.8,326.1 853.1,325.2 851.8,325.1 851.8,324.4 850.5,324.2 850.3,323.1 
		849.3,323.1 848.4,322.3 847,322.3 846.4,320.7 844.7,320.5 844.1,319.8 841.6,319.1 840.9,318.4 839.2,318.2 837.9,319.1 
		837.8,317.3 836.9,317.3 835,316.1 833.3,315.4 831.5,315.8 831.3,315.1 829.8,315.1 828.4,314.4 826.3,314.2 825.3,315.1 
		823.6,314.9 822.1,316.3 820.9,316.3 820.3,313.3 819.2,315.2 814.9,314.4 812.7,315.6 812.3,316.6 811.4,316.5 811,317.3 
		807,316.5 806.5,315.6 804.9,315.9 802.4,315.6 801.8,315.1 800,314.9 799.3,315.6 797.9,315.1 797.9,313.8 796.6,313.8 
		796.6,312.1 794.1,311.7 793.7,312.3 791.8,312.3 791,311.9 789.7,312.4 789.3,311.7 786.6,312.1 785.7,313.3 783,313.3 
		781.9,312.6 781.5,310.9 780.3,310 779.3,310 778.6,311 777,311 771.7,309.6 769.4,308.6 768,308.6 766.1,307.9 764.8,307.7 
		763.8,306.8 763.8,305.3 762.6,305.3 761.7,304.6 760.6,305.3 759.8,303.9 760,302.6 759.4,301.8 755,302.5 755,301.4 753.4,300.7 
		750.9,300.5 749.7,301.6 750.5,302.5 751.8,302.3 751.8,303.3 750.6,304.2 749.6,303.7 749.1,304.9 749.4,306.1 748,307.5 
		744.7,308.1 742.3,308.1 741.6,307.5 737.1,307 734.2,306.1 732,306 731.3,305.6 729.2,305.4 727.2,304.9 725.4,304 721.8,303.7 
		718.8,302.1 717.4,302.1 715.1,301.2 713,300.9 709.5,299.7 707.7,299.3 706.7,298.8 705.3,299.1 703.2,299.1 702.1,298.8 
		698.6,297 696.5,296.8 694.8,295.6 691.5,295.1 685.7,293.5 683.9,292.6 681.2,290.9 679,290.2 675.4,290.5 674.9,290 673.1,289.7 
		672.4,289 669.7,288.3 668.4,288.3 667.7,287.6 665.5,287.2 663,286 662.6,285.5 659.8,285.1 658.6,284.4 657.8,283.2 655.7,283.4 
		654.2,283.2 651.8,281.4 649.7,281.4 648.5,279.7 647.1,280 645.9,280.9 644.8,280.9 643.9,281.8 642.7,281.8 642.1,280.9 
		640.6,281.1 638.8,281.9 636.5,281.9 636.1,282.3 632.2,282.3 631.2,281.1 629.3,281.1 628,281.4 627.6,280.2 626.6,280.4 
		625.8,279.8 623,279.7 621.6,278.6 614.9,278.3 614.2,277.4 610.4,276.3 606.8,276 606.4,275.5 604.9,275.1 604.3,275.6 
		602.6,275.6 599.6,274.1 597.9,273.7 597.1,272.7 595.7,271.6 592.9,271.6 592.4,270.6 589.9,270 589.5,269.5 588,270 586.3,269.9 
		585.8,267.4 585,267.8 583.3,267.6 581.3,269 580.6,269 578.7,271.6 577.4,271.4 576.5,270.4 574.4,270.2 574.2,270.9 571.1,271.1 
		570.2,270 569,270.7 567.9,270.7 567.5,269.7 565.7,269.5 565.2,270 565.8,272.1 566.8,273.7 565,276 564.3,276.3 561.9,275.6 
		559.8,275.6 558.1,276.3 555.6,276.3 553.5,276.7 551.9,276.3 550.6,275.5 548.9,275.1 547,275.1 545.9,273.9 544.5,273.5 
		541.9,274.1 541.4,275.1 541.4,276.3 540.9,277.9 538.9,277.7 538.4,277.2 535.5,277.6 535.9,280 534,281.6 532.7,281.6 
		532.1,281.1 530.5,281.1 529,282.7 527.7,283.5 525.3,283.9 524.3,285.3 525.6,285.3 526.3,285.8 525.7,287.6 522.6,287.7 
		521,288.4 520,289.5 520.7,291.4 520.4,293 520.5,295.1 518.8,297.9 517.3,298.9 515,299.7 514.4,301.2 512.3,300.5 511.7,301.2 
		508,301.4 506.8,301.8 505.1,302.8 505.5,304.4 505.6,307 504.2,308.8 502.2,309.8 499.7,310.2 498.7,311.6 498.3,314.2 
		499.9,316.5 500.6,317.2 500.2,320 499.2,321.2 499.1,322.1 497.7,324 497.7,325.6 499.1,326.6 500.5,327 500.4,328.4 501.7,329.3 
		504.1,329.3 505.5,329.8 506,330.7 507.1,331 507.2,332.6 508.9,335.4 510.1,336.1 509.8,339.4 509.4,341.2 507.7,341.9 
		506.8,341.9 504.5,343.8 503.9,345 502.9,345.9 502.7,347.3 500,348 498,347.8 497.7,348.7 496.4,349.4 495,351.2 494.3,353.1 
		494.7,355.6 495.2,357.3 495,359.2 495.5,361.2 495.1,363.8 494.5,364.7 494.3,366.4 492.5,368 490.6,368.2 490.1,368.7 
		490.5,370.8 490.9,371.2 490.9,372.9 488.5,376.4 489.1,377.6 488.9,379 488.3,380.3 488.3,383.8 488,385.3 486.8,385.5 
		484.9,387.3 482.9,388 482.2,389 480.8,389.7 480.3,390.4 478.6,391 478.2,392 476.5,393.1 474.7,394.8 472.4,395.9 469.9,398.5 
		468.4,398.8 467.3,400.4 467.4,402.5 467.9,403.2 467.9,404.8 468.8,405.3 468.4,406.9 467.4,407.4 467,409.4 468.3,410.1 
		467.4,411.3 467.6,412.3 469.1,412.7 469,414.8 471.1,415.5 472.4,416.7 472.5,418.3 474.9,418.6 474.9,419.5 473.7,420.6 
		471.9,420.9 473.7,424.8 473.6,427.4 474.4,429.2 476.2,428.8 478.4,427.9 479.5,427.2 480.5,427.2 481.8,428.3 481.8,430.9 
		482.2,432 482,434.2 480.8,434.1 479.6,433.4 478.7,435.1 479,436.7 481.1,436.5 481.2,435.8 482.6,435.8 483.8,437.6 485.1,436.7 
		485.9,434.8 486.7,434.8 488.2,435.6 489.2,435.8 489.9,436.9 490.3,437.9 493.4,439.3 494.6,439 497.1,439.3 497.7,440.7 
		497.9,442.3 499.7,442.8 500.4,442.1 502.1,444.2 503.3,445.1 504.5,445.1 505.5,444.4 506.4,445.5 506.6,446.3 508.1,447 
		510,446.9 512.7,450.5 512.9,451.4 515.2,451.9 516.3,453.3 516.3,454.2 517.3,455.6 517.9,456 521.3,460.5 521.5,461.4 523,463.3 
		524.6,466.1 527.5,471.7 530.5,476 533.8,478.6 534.9,477.5 537.8,478.4 539,479.5 539.7,479.5 545.9,484.1 547.3,485.2 
		547.4,486.5 549.8,487.9 550.8,488.2 552,487 554.1,487 554.8,488 556.4,488.2 557.3,489.1 561.4,490 563.3,491.2 563.9,491.2 
		567.1,493.3 568.5,493.3 569.9,494.3 571.7,497.3 574.4,497.2 575.6,498.6 576.3,497.3 574.9,497 574.9,495.1 576.6,494.9 
		578.8,495.9 581.2,496.1 582.7,497.5 583.2,497.5 585.3,499.3 585.5,500.7 588.3,502.9 588.3,503.8 587.1,504.3 586.6,505.7 
		587.8,506.8 589.6,507 592.5,505.4 595.3,506.4 596.1,507.5 597,506.8 598.8,506.8 599.9,508.7 599.9,510.2 601.7,509.2 
		606.2,508.2 609.1,507.2 616.4,504.5 619.2,502.9 620.4,501.8 622.5,499.5 624.1,496.8 625.1,493.7 626.6,487.8 627.9,485.2 
		628.9,484.1 639,477.5 641.9,476.2 646.5,474.4 653.4,470.6 659.1,468.1 660.5,467.4 662.8,465.5 664.4,463.3 665.3,460.6 665,458 
		663.2,453.1 662.8,450 662.9,448.4 663.6,445.4 666.7,438.3 667.7,435 668.4,431.6 669.3,431.4 671.6,431 674.8,430 676.4,429.3 
		679.2,427.4 681.9,425.2 685.8,421.5 691.8,415 694.7,410.6 696.1,407.3 696.9,403.9 698.8,392.9 702.5,393.7 706.2,394.3 
		722.9,395 726.5,395.4 730,396.2 731.7,396.8 734.7,398.5 742.8,405.1 747.3,408 750.7,409.1 756.2,409.9 765.4,409.9 769.1,409.5 
		772.7,408.8 775.9,407.6 782.8,403.6 791.8,399.2 798.3,393.3 802.5,389.9 818.3,381.8 821.5,380.9 829.6,379.1 832.6,378 
		839.6,374.6 842.9,373.7 848,373.1 860.2,372.5 865.7,371.8 872.2,368.6 878.4,364.9 879.5,363.8 881.1,360.7 881.8,357.2 
		882,353.6 	"/>
</g>
</svg>
