<?xml version="1.0" encoding="utf-8"?>
<!-- Generator: Adobe Illustrator 24.2.3, SVG Export Plug-In . SVG Version: 6.00 Build 0)  -->
<svg version="1.1" id="Layer_1" xmlns="http://www.w3.org/2000/svg" xmlns:xlink="http://www.w3.org/1999/xlink" x="0px" y="0px"
	 viewBox="0 0 800 533" style="enable-background:new 0 0 800 533;" xml:space="preserve">
<style type="text/css">
	.st0{fill:#F2933D;stroke:#000000;stroke-width:0.4;stroke-miterlimit:9;}
</style>
<g>
	<polygon class="st0" points="277.9,205.5 278.3,204.2 278.2,203.2 277.1,202.3 275.7,203.2 275.3,205 277.1,205.7 	"/>
	<polygon class="st0" points="172.2,413.8 173.3,413.1 173.4,412.1 171.3,412.4 	"/>
	<polygon class="st0" points="167.7,414.3 168.7,414.8 169.3,414.5 169,412.9 	"/>
	<polygon class="st0" points="169.6,417.3 170.6,417.9 170.6,416.7 170.2,416.2 	"/>
	<polygon class="st0" points="266.5,187 265.5,186.2 265.2,185.5 264.7,186.4 266,188 	"/>
	<polygon class="st0" points="258.8,182.4 259.1,183.3 260.7,183.7 261.2,184.6 262.2,185 263.4,183 263.4,181.6 262.9,180.7 
		261,181.2 260.6,180.2 259.6,179.5 258.8,179.7 258.7,180.8 259.8,180.8 259.7,182 	"/>
	<polygon class="st0" points="253.9,155.6 254.4,153.3 254,152.3 252.8,152.7 252.4,153.8 253,154.4 253.1,156 	"/>
	<polygon class="st0" points="255.7,153.1 255.5,154.7 255,156 255,157.2 255.8,157.5 256.3,157 256.2,154.9 256.8,152.7 	"/>
	<polygon class="st0" points="236.3,261 237.4,259.4 235.7,260.3 	"/>
	<polygon class="st0" points="239.6,261.9 240.2,260.7 239.2,259.7 238.6,260.5 	"/>
	<polygon class="st0" points="235.8,254.9 237.8,256.3 238.6,256.6 239.2,254.9 238.8,254.4 237.8,254.7 235.3,252 235.3,251.5 
		234.8,252.8 234.8,254.1 235.1,255 	"/>
	<polygon class="st0" points="155.3,340.5 157.5,341.4 158.5,341.4 158.5,340.6 158,339.8 157.6,336.9 156.5,337.2 156.3,338 
		154.5,338.4 154.5,339.8 	"/>
	<polygon class="st0" points="140.2,343.9 140.6,342.7 139.3,342.6 139,341 139,342.9 139.4,343.7 	"/>
	<polygon class="st0" points="153.5,339.7 154.2,338.8 154.7,337.5 153.7,336.3 153.1,336.5 153.3,337.7 153,339.2 	"/>
	<polygon class="st0" points="143.9,337.3 143.5,339.7 144.5,341.2 145.5,341.1 146.9,338.6 147.7,339.7 148.7,339.6 149,340.2 
		150,340.3 150.8,339.3 150.3,337.7 151.1,337.4 150.7,336.6 150.9,335.4 151.7,335.8 152.2,334.3 152.1,333.5 151.4,332.5 
		151.7,331.5 151.3,330.5 150.6,330.8 149,330.8 146.9,333.3 145.8,333.9 144.8,333.9 143.8,334.4 143,335.3 143.2,336.7 	"/>
	<polygon class="st0" points="189.4,266.2 189.5,264.1 188.6,264.4 187.6,265.4 187.8,266.3 	"/>
	<polygon class="st0" points="675.9,438.2 674,436.2 672,433.3 670.6,430.1 668.3,425.8 667,422.7 664.9,418.3 664.4,416.6 
		663.8,413.2 663.3,411.5 661.4,407.1 660.8,404.5 660.2,398.3 659.8,396.6 657.8,392.2 656.4,389 654.9,386.7 653.1,384.7 651,383 
		649.5,382.1 647.8,381.5 644.5,380.8 642.9,380.4 639.4,378.7 637.8,378.1 634.2,377.7 626.6,377.5 623,377.2 621.2,376.7 
		617.6,375 614.4,374.2 610.4,373.7 609.1,373.4 608,372.8 607.4,372 604.4,370.8 600.4,369.6 598.9,369 595.4,367.1 592.3,365.7 
		588.2,363.3 585.3,361.9 582.9,360.1 581.2,353.5 580.2,351 578.9,349.5 577.3,348.4 575.4,347.8 573.5,347.6 570.6,347.5 
		553.3,347.6 549.3,347.7 547.4,348 545.6,348.6 543.9,349.6 539.1,353.5 537.7,354.4 534.7,355.8 530.5,358.1 528.2,358.9 
		524.7,361.7 519.6,366.8 518.3,368 516.1,369.4 514.4,369.9 511.8,370 510.1,369.7 508.6,369 507.2,368.1 502.4,364.2 499,358.5 
		497.7,355.3 495.4,351.1 493.6,347.2 492.7,345.8 489.2,341.2 488.3,339.8 487.3,337.5 486.4,336.1 485.4,334.8 483.5,333.4 
		479.7,332 477.7,331.1 472.9,329.6 471.1,329.3 468.3,329 462.6,328.8 459.8,328.5 458.2,328 453.2,326 448.1,324.5 444,322.2 
		440.9,320.8 439.5,319.9 437.4,318.1 435.4,316.2 420,300 418,298.1 415.9,296.5 413.5,295.6 410.2,294.9 408.6,294.4 405.1,292.7 
		402.7,291.9 398.3,291.5 390.2,291.6 389.5,289.8 388.5,288.8 387.1,288.3 384.8,288.2 382.3,288.9 379,290.6 375,292.1 
		372.4,293.3 372,287.9 371.6,285.3 371.1,283.7 369.7,280.8 369.2,279.1 368.8,277.2 368.3,272.4 368,270.5 367.5,268.8 
		366.1,265.9 365.6,264.2 365.3,262.3 364.8,257.4 364.4,255.5 363.9,253.9 362.6,250.9 362.1,249.2 361.8,247.3 361.2,241.6 
		360.7,239.8 359.3,237.7 357.5,236.2 353.9,234.4 350.4,232.4 347.3,231.1 343.8,229.3 341.5,228.4 335,226.8 335.7,224.3 
		336.8,218.2 337.3,216.6 338.7,213.6 339.2,212 339.6,210.1 340.1,205.2 340.7,202.4 342.7,198 344.1,193.9 345.5,191 350.1,190.7 
		353,190.2 354.8,189.6 358.3,188.1 360.1,187.6 363,187.3 371.9,187 374.7,186.6 376.5,186 379.9,184.4 385.5,182.9 388.6,181.6 
		390.8,180.6 394,179.7 394.5,177.2 395.1,175.6 396.5,173.5 398.2,171.7 400.1,170.1 401.6,169.3 403.2,168.9 407.2,168 
		409.3,166.9 410.5,165.7 411.4,164.4 412.8,161.4 414.6,158.7 416.3,156.8 418.2,155.3 419.6,154.5 422.9,153.7 426.5,149.9 
		426.6,124.8 426.6,121.7 426.3,118.6 425.4,115.8 423.7,112.3 422.4,109.2 419.9,104.9 418.2,101.3 418.9,98.6 419.2,96.6 
		419.4,93.6 419.3,90.6 419.1,88.7 418.6,86.9 416.7,82.5 416.1,79.6 415.8,75.7 415.8,65.6 415.3,61.7 414.8,60 413.1,56.3 
		411.7,50.4 411.2,48.8 409.3,45.2 407.6,41.3 403,34.1 400.7,33.9 397.5,33.1 393.9,31.5 392.1,31 389.4,30.7 383.7,30.4 381,30 
		379.4,29.4 375.9,27.5 372.9,26.1 369.4,24.3 367.8,23.7 364,23.1 356.1,23 353.1,22.9 350.3,22.3 347.6,21.3 346.1,23.8 
		344.2,26.2 341.8,28.5 339.9,29.9 336.1,31.6 333.6,33.6 330.7,36.5 317.2,50.5 308.2,59.7 298,70.3 294.9,73.2 292.9,74.6 
		289.8,75.9 285.7,78.3 282.6,79.6 281.3,80.5 278.7,82.7 275.5,85.2 271.8,87.1 270.4,88.1 268.4,89.8 263.8,94.2 261.7,95.9 
		260.3,96.7 256.5,97.8 255.2,98.4 254.2,99.4 253.4,101.3 250.9,101.3 248.6,100.8 249.7,103.3 251.6,103.4 256.3,104.5 
		260.1,106.2 261.6,107.3 263,109 265.6,110.8 267,112.8 269.2,115.2 269.7,116.5 270,117.9 271.2,119.3 271.8,119.3 273.1,120.9 
		273.5,122 275,123.9 275.7,124.2 275.6,125 276.9,127.7 276.9,128.2 278,131.3 278.1,132.8 277.7,134.5 276.1,135.8 275,136.1 
		273.4,135.7 272.2,137.5 270.4,138.3 269.3,137.8 269,138.7 268.2,139.9 266.4,141 266.2,141.8 265.3,141.8 264.1,142.6 
		264.1,143.3 262.6,144.2 261.4,144.5 260.4,142.9 260.1,144.1 258.9,144.3 258.2,144 258,145.2 256.8,145.9 257,147.2 255.9,148.4 
		256.8,149.2 256.7,149.9 257.3,151.5 257.8,150.8 259.7,150 259.8,149 260.8,148.5 260.8,149.9 259.8,151.5 258.9,151.6 
		257.6,153.1 257.5,154.3 257,155.3 257.3,156.6 256.5,157.3 256.4,158.8 256.7,160.1 256.2,161 256.2,162.2 257,165 257,167.6 
		256.2,168.5 256.6,169.2 256.5,170.4 257.6,172.3 259.4,171.1 260.6,172.5 260.7,174.7 261.4,176.2 262.4,176.9 263.1,176.9 
		264.1,177.7 264.8,177.7 267.6,177.1 268.9,177.4 269.8,178.6 270,180.5 270.8,181.3 269.8,182.2 269.6,183.3 271,183.9 
		272.8,183.7 273.1,183 274.2,182.4 275.2,183.3 276.1,183.1 276.3,181.4 277.5,180.7 278.5,180.7 278.7,179.6 279.5,178.9 
		280.7,178.6 282.9,177.7 284.6,176.8 285.7,175.7 286.4,175.7 287.9,176.4 289,178 289.2,179.5 290.6,180.1 290.5,178.9 
		289.7,177.7 289.9,176.3 291.2,175.8 292.5,175.9 293.3,177.3 293.7,177 295,174.6 297.1,174.5 296.5,175.4 295,175.9 295.3,176.6 
		297.3,178.5 298,179.6 299.1,179.7 301.2,181.4 301.2,182 302.9,182.9 304,183 304.9,183.7 307.1,184.2 307.8,183.9 309.4,184 
		309.2,182.5 308.3,182.9 308.5,180.7 309.7,179 311.7,178.5 311.9,177.7 312.9,176.4 314.2,175.3 317,176.6 318.1,178.4 
		317.8,179.4 318.2,181.8 318.8,182.9 318.8,184.1 317.2,185.1 315.6,185.4 315.8,187.4 314.8,190.5 315.8,191.3 316.2,190.5 
		317.4,190.4 319,191.2 320,192.4 320.2,193.8 321,194.9 320,195.3 319.7,196.3 320.4,196.7 320.4,197.6 319.2,199.3 318.5,198.3 
		317.5,198.7 315.8,198.4 314.4,200.6 313.5,200.9 313.4,202.4 312.7,202.6 311.7,201.7 310.5,201.6 309.7,200.3 309.9,199.1 
		311.5,198 310.9,197.2 309.4,198.4 308.1,199 306.7,199.2 306.5,201.5 305.4,202.3 302.9,202.3 302,203.3 302.3,204.9 301.8,205.4 
		300,204.7 298.8,206 298.2,205.6 296.7,209.5 296.1,210.4 298.5,210.5 300.2,211 301.3,212.3 301.3,213.1 300.9,214.4 299.8,216.4 
		299.5,217.6 298.9,218.4 296.1,219 295.6,219.4 294,219.2 293.3,218.8 292.7,217.6 291.3,216.5 291.2,215.9 291.5,213.6 
		292.2,212.3 292.1,210.3 291.5,208.7 289.9,209.5 289.6,210 288.1,211.2 287.1,211 284.8,214.1 284.5,214.8 283.7,214.8 
		280.9,213.6 280.2,212.2 279.3,212.4 279.1,214 279.7,215.8 281.3,218 282,218 283.5,221.3 284.5,223.8 287.1,227 288.5,227.2 
		288.5,229.3 290.5,231.3 290.5,232 289.2,234.1 288.1,234.5 286.9,234 285.1,232.1 284.5,232.1 283.8,231.1 282.8,231.1 
		282.3,231.9 282.1,234.2 282.7,234.7 282.4,235.9 281.5,235.5 280.7,236 281.2,238.3 280.9,239.8 280.3,241.3 278.5,242 277.5,242 
		275.4,241 274.7,239.5 274,238.7 272.8,238.1 272.2,236.8 271,235.4 269.5,235.8 269.4,236.7 268.6,237 266.7,238.9 265.7,238.9 
		264.9,238 264.8,236.9 265.2,235.8 264.4,232.7 262.5,232.4 261.4,233.9 260.6,234.4 260.6,235.2 259.6,235.7 258.9,235.6 
		258.2,236.2 256.5,236.8 255.8,237.6 254.8,236.9 253.8,237.6 253.8,238.4 253.2,238.8 253.4,239.8 250.4,239.9 249.9,241.1 
		249.1,239.7 248.4,239.4 247.2,239.8 247.3,240.8 245.9,240.2 245.4,239.6 243.8,239.1 242.8,239.2 242.4,240.7 243,241 
		243.3,242.5 242,242.2 241.2,242.6 240.8,243.6 239.9,243.7 240,245 239.6,246 240.8,246 240.6,247.3 239.9,247.7 240.2,249.8 
		240.8,250.5 240.6,253.1 239.9,253.9 241.4,255.6 241.8,256.6 241.2,257.1 241.8,257.9 242.8,258 242.1,259.1 242.4,259.5 
		244,259.4 245.8,260.7 246.1,261.8 245.2,262 245.6,263 244.8,264 243.8,263.8 244,262.5 243.3,262.6 243.1,264.2 242.1,263.7 
		241.2,264.3 241.4,265.1 240.5,266.3 238.4,266.9 238.4,267.9 239,268.4 239.8,266.8 241,267.1 241.4,267.9 240.8,268.6 
		241.6,270.1 243.2,269.9 243.5,270.3 243.5,272.4 245,273.4 246,273.2 246.6,272.4 248.4,271.4 248.5,273.8 247.4,274 247,274.9 
		246.2,275.3 247.1,278.1 246.8,279.5 248.6,279.7 249,279.1 250.4,279.5 251.4,280 251.6,278.9 254.1,279.8 255,281 255.8,280.7 
		257,280.9 257.4,281.3 257.4,283.8 258.8,284.2 259.2,285.4 259.6,286.1 261,286.2 260.5,287.3 261.2,288.6 262.7,288.2 
		263.7,289.2 263.7,290.5 264.6,290.4 265.6,288.4 266.6,288.7 266.6,290.7 268.1,290.7 268.6,292.4 268.3,293.1 267.2,294.3 
		267.4,296.3 266.3,296.8 266.7,298.4 264.1,298.4 265.6,299.3 267.3,298.7 267.6,297.4 268.4,297.4 268.8,300.3 268.2,300.9 
		268,302 268.8,302.9 271.7,304.1 273,304.3 274.5,304.8 274.6,305.3 275.9,305.5 276.9,306.1 276.3,307.6 276.5,311.1 278.2,312.1 
		278.2,313 276.4,313.1 273.1,311.4 269.6,309.9 269,310.4 273.7,312 276.3,313.3 277.5,314.1 277.5,314.6 277.4,314.7 277.4,314.7 
		277.3,314.7 277.2,315.2 279.5,317.5 281.9,319.6 283.3,321.2 284.2,322.4 284.3,323.5 286.5,326.8 286.4,327.7 286.9,329.5 
		286.8,330.3 285.9,330.5 285.8,331.4 288.7,331.1 290.1,332 290.5,333.7 291.7,334.1 292.1,333.6 293.5,334.5 293.1,335.8 
		293.9,336.5 294.1,334.5 294.9,333.9 296.2,334.5 296.3,333.3 297.3,333.4 297.4,334.2 298.5,334.6 298.9,333.1 298.2,331.9 
		298.8,331 300.1,332 301.2,332.3 301.7,330.4 302.7,330.1 303.3,331.5 303.9,331.2 303.9,330.1 308.3,329 309,327.6 310.9,328.1 
		311.5,326.8 313.1,327.3 314.4,328.1 315.2,327.4 317.2,328 317.7,327.5 319.2,328.8 320.1,328.7 320.2,329.7 321.4,329.8 
		322.6,329.5 322.6,328.7 321.6,328.6 322,327.1 323.6,327 324.2,327 325.2,328.1 325.4,328.9 327.3,330.8 328.2,331.3 328.4,332 
		329.6,331.8 330.2,332.4 331.8,332.7 333.2,332 333.8,331 335.4,330.1 335.8,329.1 336.9,329.5 337.8,328.4 337.5,327.7 
		341.2,327.8 342.4,327.1 343.3,327.1 344.4,328.7 344.7,330 345.8,331.6 346.2,333 346.1,335.3 345.1,335.7 344.2,335.4 343.8,334 
		342.1,333.5 341.4,334.9 339.4,334.9 339,336.9 336.8,339.3 336.8,340.5 335.8,341 336,341.6 335.1,342.4 334.8,343.6 333.6,345.1 
		331.4,345.4 328.9,346.4 328.2,347.4 327.3,347.8 326.8,348.5 326,349 322.9,347.9 322.1,347.1 322.2,346.5 321,345.8 319.6,343.7 
		318.9,343.6 317.6,344.2 316.2,344.3 314.3,345 313.3,344.9 313.1,344.2 311.9,343.8 310.8,343.9 310.3,343.9 309.2,342.6 
		308.9,344.1 307.3,345.7 304.7,345.8 303.2,347 302.4,348.2 301.5,348.8 299.1,349.8 294.2,351.2 290.1,353.5 289.2,353.7 
		288.5,353.8 287.3,353.2 281.1,355.2 277.4,355.2 276.5,355.9 272,356.9 270.2,356.8 268.2,357.5 266.1,357.7 264.6,358.2 
		263.8,358.8 262.6,359.3 261.2,360.2 259.6,362.5 257,362.7 254.6,361.9 252.6,360.6 252.6,360.2 250.8,360.2 250.2,359.5 
		248.9,358.9 248.2,357.8 248,356 248.2,355.1 247.9,353.1 246,352.2 245,350.9 245.5,350.1 245.8,348.4 244.4,348.2 243.2,347.6 
		242.4,344.8 241.6,344.1 241.4,342.6 242.8,341.8 242.6,341 241.6,339 240.7,339 239.9,338.4 239,336.9 237.8,336.8 238.4,338.1 
		238,339.8 236.6,339.6 236.3,338.5 235,337.4 234.5,337.7 234.3,338.9 232.2,340.2 231.3,342.2 230.4,342.5 229,344.8 228.9,345.9 
		229.6,346.6 229.7,347.5 229.2,348.6 228.1,348.9 227.8,350.2 227.2,350.8 226.9,352.3 227.1,354.3 227.4,355.2 228.3,356.1 
		228.8,360.5 230.1,363.5 229.3,364.2 229.1,362.5 228.1,361.9 227.1,361.8 227.5,363.6 227,364.3 228.4,365.2 229.9,365.5 
		231.3,366.7 231.8,368.1 231.5,369.2 233.1,370.1 233.4,371.5 233.1,373.4 233.8,374 233.5,375.6 230.5,376.9 228.4,377.2 
		226.7,376.6 225.1,374.9 224.2,372.7 223.1,372.6 221.6,370 221.9,369.3 221.6,368.3 219.7,367.8 219.1,366.4 218.9,364.9 
		219.5,364.2 219.9,362.2 219.9,357.9 219.5,356.4 218.7,355.1 216.8,354.8 216.2,354.4 215.5,351.6 214.7,350.9 215.1,350.2 
		214.7,348.1 213.1,347.5 213.3,345.8 212.6,345.1 213,344.5 212.9,343.3 212.1,342.7 211.5,341.2 210.1,342 209.7,343 209,343.3 
		208.1,342.4 206.6,341.6 206.5,340.9 205.3,340 206,338.4 207.3,338.6 207.7,337.8 208.5,338.1 209,337.6 209.2,336.1 209.9,335.2 
		208.9,334.2 209.7,333.5 210.2,332 209.8,329.9 209.3,329.2 208.4,328.9 206.7,328.9 207.5,327.8 208.5,327.3 208.3,326.6 
		209.5,326.1 211.2,325.8 213,325.3 214,325.3 215.9,326.7 216.1,328.1 217.8,327.3 218.3,327.4 218.9,326.3 218.6,325.2 218.7,324 
		217.9,321.9 217.7,319.5 217.1,318.4 217.2,317.6 216.7,316.7 216.9,315.2 216.7,313.2 216.2,310.9 215,310 214.9,306.8 
		214.3,306.3 213.3,307 212.2,307 210.8,306.3 209,304.1 208.8,303.1 207.9,303.2 207.5,301.9 205.1,300.4 204.2,299 201.7,297.4 
		201.1,294.2 201.3,293.5 201.1,291.5 201.3,290.5 200.4,287 200.1,286.5 200.2,284.6 198.9,282.9 197.2,283.9 196,282.1 
		195.8,280.8 194.9,280 194.2,277.9 193.2,277 192.7,275.7 190.6,274.6 191.1,273.8 190.2,271.6 191.6,271.3 191.8,270.2 191,269.7 
		190.8,268.6 189.4,267.9 188.6,269.2 188,269.2 187.4,268.4 185,267 185,266.1 184.4,265.4 183.2,265 183,264 182.3,264.1 
		181.5,263.6 180.2,261.5 178.8,260.3 176.8,262.1 173.6,261.1 172.4,261.4 170.8,260.9 170,261.5 168.9,261.3 167.6,259.6 
		167.4,259 165.8,258.7 164.5,258.7 164,259.5 162.4,260.8 162,261.6 160.7,262.5 159.5,262.7 158.9,263.2 156.9,262.9 155.7,263.6 
		153.7,263.7 153.3,264.4 152.1,264.7 151.1,266.2 151,267.9 150.2,269 149.7,272.4 150.5,274.2 150.5,276 150.9,277.4 150.5,278.5 
		149.9,278.9 150.4,280.3 150.5,281.3 151.3,282.1 151.4,282.9 151.3,285.2 151.7,286.4 151.7,290.1 151.2,290.4 151.5,294.1 
		152,296.2 152.7,296.4 153.9,297.5 153.8,298.8 154.9,300.3 155.3,301.4 156.2,302.2 156.4,303.6 156.2,305.5 155.5,305.5 
		155.4,303.6 154.5,303.9 154.5,305.8 155.3,307.8 155.3,308.6 156.6,310.3 157.3,309.2 158.5,309.5 159,310.3 158.5,311.2 
		159.4,311.9 159.2,313.5 158.5,314.4 158.7,315.1 160.1,315.2 161.2,314.7 162.1,316.6 163.2,318.1 163.9,318.3 163,320 
		162.3,320.2 161.8,321.6 162,323.4 161.6,323.6 160,327.1 159,327.6 158.7,330 159,330.6 159.3,333.6 160.1,333.5 161,333.9 
		162.2,330.5 163.2,330.8 164.1,330.3 164.4,328.9 164.3,326.5 165.4,325.4 165.7,324.1 167.5,324 168.2,323.6 170.7,324 
		171.8,324.9 172.8,326.2 173.8,326.4 175.5,328.2 176.4,328.1 177.8,330.1 178.6,329.5 180.4,330.9 181.5,331.5 182.4,332.9 
		183.7,332.9 184.4,334.1 185.4,334.9 186.2,336.8 188.9,338.6 188.4,340 187.7,340 187.4,341.4 187.6,342.6 186.7,343.7 
		185.2,344.3 185.8,345 185.7,346.5 184.6,347 184.1,348 182.6,348.2 181.5,347.2 181.6,345.8 181,343.9 179.7,342.8 178.4,341 
		177.9,340.1 176.9,339.8 176.3,340.7 174.1,339.5 173.3,339.4 173.1,340.9 173.4,341.8 174.4,341.8 175.7,342.6 175.7,344 
		175.1,345 175.4,345.7 176.5,345.2 176.8,344.5 177.8,345.4 178.4,347.3 179.2,348 178.8,349.8 178.4,350.8 178.8,351.4 
		178.5,352.3 179,354.5 179.4,355 180.8,355.7 180,356.7 178.4,357.1 178,358.6 177.1,359.8 176.2,359.8 175.8,361.6 174.4,362.4 
		174.3,363.2 173.2,363.8 173.4,365 171.3,365.2 171,366.3 170.2,366.4 169.5,365.8 168.6,366.6 168.2,367.5 167,367.4 166.8,368.3 
		166.8,369.8 165.3,370.5 164.2,369.9 163.2,370.2 162.9,371.6 162.2,371.6 161.4,373 160.5,372.6 159.6,373.1 159.9,371.1 
		161.4,370.2 161.2,368.8 160.6,368.2 160.2,366.8 159.4,366.8 158.5,368 158.1,365.2 157,365.3 156.8,366.8 156.8,368.9 
		157.2,370.1 157.9,371 157.5,371.5 157.5,373.4 156.9,373.8 157.3,375.6 156.6,377 155.2,377.8 153.6,378 152.3,378 151.4,377.4 
		151.5,376.1 149.7,376 147.6,374.1 148,373.2 147.7,371.9 147.9,369.9 146.9,370.1 146.7,372.4 144.9,372.8 144.1,372.3 
		143.1,372.3 141.6,370.8 141,368.7 139.9,368.2 141.3,367.5 140.8,366 141.4,365.2 142.4,365.8 142.1,364.1 142.9,363.8 
		142.5,362.1 141.1,361.9 141.5,360.5 140.7,359.3 140.8,356.1 139.9,355.9 139.4,356.9 139.5,357.9 138.9,359 138.2,359 137.5,360 
		138.1,361.9 137.6,362.8 136.3,362.4 136.1,361 134.8,359.9 133.7,357.9 132.9,357.2 133.1,359.3 133.1,362.3 132.8,364.3 
		133.4,367 134.8,368.3 135.7,371.3 137.3,372.5 136.9,373.4 135.6,373.2 135.2,374 134,374.7 133.4,374.7 133.3,373.2 132.4,372.9 
		131.9,374.3 132.1,377.3 132.7,379.7 132.1,382.1 131.2,383.1 130.2,383.7 128.9,383.8 128.1,384.5 127,384.7 126.3,384.5 
		125.5,385.4 124.5,385.2 123.4,383.6 123.8,382.5 122.9,382.1 120.9,382.5 120.7,385.3 120.8,387.8 120.2,388.5 120.2,390.2 
		120.5,391.3 122.4,392.3 123.5,392.4 123.9,391.1 124.8,390.7 125.9,390.9 126.7,390.2 127.6,390.5 130.4,390.3 131.1,391 
		132.6,391.2 134.2,392.1 135.1,393.4 136.5,393.5 137.6,395 137.3,397 138.4,397.4 138.6,399.7 140,400.1 140.6,401 141.5,401.4 
		142.7,402.8 144.1,402.7 144.7,403.9 146.3,404.2 147.2,403.3 148.2,403.5 150.2,403.2 152.1,403.8 153.1,403.8 153.4,401.9 
		154.7,400.7 154.6,400 155.5,399.6 156.1,398.2 157.7,397.7 157.5,396.5 157.8,395.7 157.5,394.7 156.7,394.3 156.6,393.3 
		158.8,393 159.6,394.3 161,395.8 161.3,398.8 160.9,399.3 160,399.1 158.5,400.6 158.5,401.9 158.9,402.6 158.8,403.8 158.3,404.7 
		161,407.2 161.7,407.2 163.3,408.3 163.7,409.7 164.4,409.3 165.2,410.7 166,411 166.5,411.9 168.2,412.6 168.3,410.9 168,409.9 
		166.9,408.8 165.8,406.1 165.9,405.5 168.1,405.5 168.8,406.4 171,406.5 171.6,407.1 170.4,408.1 170.8,408.9 172.2,409.6 
		173.2,409.5 173.4,410.4 173.3,411.8 173.8,412.2 175.2,410.8 175.8,411.1 175.3,412.8 175.3,413.5 174.6,414.3 175,415.1 
		176,414.2 176.9,414.4 177.6,415.7 179.6,415.7 181.9,415.1 182.2,413.9 182.8,413.9 183.2,415.1 181.7,416.9 182.2,418.3 
		183.2,418.4 184.2,419.1 185,418.5 186.3,420.5 187.2,419.3 188.4,418.4 189.1,416.7 189.5,418.5 188.8,420.6 189.8,421.8 
		189.1,422.2 188.2,421.9 187.8,423.5 189,425.4 189.6,425.6 190.2,427.2 189.9,428 189.8,430.8 190.4,431.5 192.4,432 191.9,432.9 
		192.3,433.3 192.5,435 192.2,435.6 193.4,436.1 195,435.2 195.5,435.9 195.4,438.3 197.2,437.8 197.5,438.7 198.9,439.2 
		199.7,438.9 200.5,438 200.6,436.9 201.2,435.9 200.9,433.3 201.1,431.9 200.2,430.5 202.1,430.9 203.1,432.8 203.6,433 204.5,436 
		205.1,436.3 205,439.1 204.5,441.5 205.9,442.8 207.3,443.7 208.1,442.6 208.7,442.4 210,443.6 210.6,442.8 211.8,442.3 212.6,441 
		212.7,439.6 211.9,437.6 211.7,435.9 211.8,434.2 211.5,433.4 210.1,432.2 212.5,432.4 212.7,432.8 214.6,432.4 214.9,432 
		215,430.5 215.5,429.7 215.7,427.6 216.1,425.5 216.7,424.9 216.7,424 217.1,422.7 217.1,420.5 216.6,419.6 216.6,417.6 
		216.1,416.8 216.6,415.3 216.5,413.7 219.3,411.8 220.5,411.9 221.5,410.9 221.5,410 222.9,410.2 224.8,409.6 225.3,410.3 
		227.2,411 227.6,408.9 228.9,408.9 230.1,410.7 231.6,411 232.4,409 233.5,410.3 234.5,409.7 234.5,409 235.9,409.4 236.9,409.1 
		238.3,410 239.2,409.7 241,410.3 241.1,409.1 241.8,407.5 242.6,408.5 244.4,408.1 244.9,406.7 245.8,405.2 246.8,405.5 
		246.9,406.7 248.3,407.9 249.7,408.3 250.4,409.5 250.4,410.5 251.8,411.7 252.8,411.5 253,412.1 254.4,412.4 254.6,412.9 
		254,413.8 252.4,413.7 251.6,412.7 250.4,413.5 250.8,414.7 250.1,415.2 249.8,416.8 250,418.2 249.8,421.1 250.5,420.8 
		250.8,422.9 250.9,424.7 251.8,423.6 253.8,424 254.2,422.1 255.7,421 257.8,421.7 258.9,423.3 260.2,423.5 260.3,424.2 
		261.8,424.8 262.9,425.9 263,427.1 262.4,428 262.6,428.9 261.8,429.6 261.6,430.3 262.4,431.6 263.7,431.8 264.1,432.8 
		264.8,433.1 264.8,434.3 265.8,434.3 265.6,435.5 264.2,436 264.3,436.9 265.6,436.9 267.1,439.3 267.4,440.6 269.4,443.9 
		269.1,445.7 269,449.9 268,450.9 267.8,453.3 268.2,454.6 269,455 269.8,457.1 270.3,457.6 270.2,458.9 271.2,460.7 270.9,461.9 
		272.2,463.6 273.2,463.7 273.1,465.1 274,467 275.6,465.5 275.4,464.5 276.1,464.1 276.8,463 276.8,461.4 277.3,461 277.3,460.1 
		278,459.6 279.7,457.6 280.6,456.9 282.1,456.3 283.7,455.4 285.5,455 285.9,454.6 287.4,454.3 289.5,453.1 291.5,452.9 
		292.7,452.4 294.9,452.2 296.2,452.3 297.6,453.7 297.9,452.6 299.5,452.5 301.1,452.8 303.7,454.3 304.8,455.8 305.9,456.1 
		307,457.7 309.2,459.1 310.8,459.4 313.6,459.4 314.7,459.6 316.7,460.5 318,461.9 320,464.9 321.1,465.3 322.1,467.1 322.6,468.4 
		322.4,470 323.5,472.5 324.2,471.8 325.8,472.2 326,471.2 327.6,471.1 329.6,472.2 329.8,472.9 331.8,474.8 331.8,476.3 
		332.7,476.3 333,477.5 333.5,477.5 334,478.5 335.5,478.7 337.1,480.5 338.6,480.2 339.3,481.7 340.3,482 340.7,481.1 342.2,480.8 
		342.6,481.8 343.7,482.3 345.4,482.7 346.1,481.7 346.8,482 347.2,481 348.4,481 350.1,479.6 351,479.6 351.6,480.4 352.2,479.6 
		353,479.6 354.1,480.2 354.8,479.3 356.1,479.6 357.3,479 357.5,480.2 358.3,480.3 360.9,481.8 361.7,481.1 362.9,481.4 
		363.6,482.7 364.8,482.6 365.9,483.7 366.7,485.5 367.5,486.9 367.5,487.9 367.9,489.4 368.9,490.8 370.5,492.2 371.1,494.3 
		371.5,496.8 371.5,499.3 371.7,500.1 371.3,501.4 369.1,501.5 368.3,503.9 367.7,504.4 367.9,505.6 368.6,506.9 370.2,507 
		370.5,507.9 370.5,509.2 369.5,509.7 369.5,510.9 372,511.3 376,511.6 385.3,511.7 390.3,511.4 393.1,510.8 397.4,508.7 
		401.3,507.1 403.2,506.1 406,505.4 411.2,503.4 413.3,502.1 417.1,498.9 418.4,497.9 421.3,496.5 422.7,495.6 423.8,494.5 
		424.8,493.2 425.4,491.7 425.9,489.2 426.3,487.6 427.2,485.2 428.4,483.8 430,482.6 432.9,481.8 436.9,481.6 449.5,481.8 
		468.5,481.8 473.7,481.6 478.1,481.2 482.5,484.1 484,484.8 485.8,485.3 488.6,485.6 491.4,485.4 493.3,485.1 494.9,484.5 
		498.4,482.8 500.9,482.1 504.4,481.8 510.9,481.7 515,481.2 516.5,480.6 519.3,479.3 520.9,478.8 523.5,478.4 527,478.2 
		527.6,475.6 528.2,474.1 530.6,470.7 534.2,474.4 540,474.4 543.8,473.9 545.6,473.3 549,471.5 554.2,469.5 559.7,467.7 
		562.6,467.2 568.6,466.9 579.5,467.2 585.1,467 588.8,467.3 590.6,467.7 592.7,468.7 593.8,469.6 598.3,470.4 600.2,470.6 
		603.2,470.7 607.1,470.1 610.6,469 612,467.7 616.8,466.2 621,464.2 622.9,463.7 627.8,462.7 632.7,461.3 635.6,460.3 641.2,459.1 
		642.8,458.5 646.4,456.8 652.9,455.1 657.2,452.9 660.2,451.5 663.7,449.5 667.4,447.8 671.6,445.4 674.7,444.2 679.8,441.8 	"/>
	<polygon class="st0" points="263,304.9 262.9,303.6 261.5,301.8 260.4,302.2 261,303.6 262.5,305.7 	"/>
	<polygon class="st0" points="231.6,316.9 231.3,317.5 231.7,319.3 231.5,321.6 231.7,323 233.3,324.6 233.9,324.3 234,323.3 
		235.8,323.6 237.3,325.1 239.8,326.1 239.3,326.6 238.6,328.8 240.5,329.7 243.2,329.7 244.6,326 244.5,324.8 245,322.3 
		243.9,321.1 243.3,319.6 243.8,318.6 242.1,319 240.6,317.8 240.4,315.5 240.6,312.8 241.4,311.5 240.6,311.1 240.6,310 
		239.8,308.8 240.3,307.6 239.7,306.1 237.5,304.7 236.8,303.5 235.9,302.7 233.6,303 232.7,301.3 232.5,301.8 233.3,303.6 
		234.5,304.5 234.5,305.1 233.4,306.1 233.6,309.5 232.9,310.3 231.9,310 231.9,311.3 231.5,312.7 231.9,313.7 231.6,315.4 	"/>
	<polygon class="st0" points="256.8,345.4 256,343.5 255.2,345 255.8,346 	"/>
	<polygon class="st0" points="253.8,349 253.2,349.8 253.7,350.7 255.2,349.8 254.7,348.5 	"/>
	<polygon class="st0" points="250,347 250.6,345.5 249.9,345 249.4,345.1 	"/>
	<polygon class="st0" points="248.8,337.2 249.4,336.4 251.4,335.3 251.4,334.6 250.3,332.8 250.6,331.4 249.2,330.7 247.4,331.3 
		247.4,333.2 247,335.7 	"/>
	<polygon class="st0" points="253,358.9 254.2,357.9 254.4,357 255.2,356.5 254.6,355.6 253.4,356.3 253.5,357.1 253,357.8 	"/>
	<polygon class="st0" points="174.4,361.5 174.9,360.3 174,358.6 172.9,358.8 172,359.7 173.4,361.4 	"/>
	<polygon class="st0" points="176.7,356.6 177.1,356.2 177.2,354.6 176.9,354.2 175.7,356.3 	"/>
	<polygon class="st0" points="177.4,351.2 177,350.8 176.9,349 176.5,347.6 175.9,348.1 175.8,350.8 176.4,351.8 177.1,352.3 	"/>
	<polygon class="st0" points="227.9,369.7 226.8,370.2 227.1,370.8 228.1,370.8 	"/>
</g>
</svg>
