<?xml version="1.0" encoding="utf-8"?>
<!-- Generator: Adobe Illustrator 24.2.3, SVG Export Plug-In . SVG Version: 6.00 Build 0)  -->
<svg version="1.1" id="Layer_1" xmlns="http://www.w3.org/2000/svg" xmlns:xlink="http://www.w3.org/1999/xlink" x="0px" y="0px"
	 viewBox="0 0 800 533" style="enable-background:new 0 0 800 533;" xml:space="preserve">
<style type="text/css">
	.st0{fill:#F2933D;stroke:#000000;stroke-width:0.4;stroke-miterlimit:9;}
</style>
<polygon class="st0" points="594.9,140.7 594.4,137.9 593.7,136.1 592.7,134.5 590.8,132.4 588.6,130.5 587.1,129.5 583.2,127.5 
	581.7,126.5 578.1,123.5 575.8,121.9 570.4,119.6 566.8,118.3 563,115.5 560.9,114.1 557.7,112.7 553.4,110.2 550.2,108.8 
	545.9,106.3 542.7,104.9 538.5,102.5 535.3,101.1 531,98.6 527.1,96.8 523.5,94.7 520.4,93.2 516.7,91.3 515.1,90.7 512.2,90.3 
	506.4,90 503.5,89.7 501.7,89.2 498,87.4 496.4,86.8 494.5,86.5 491.7,86.2 468.1,86.2 462.3,86.3 459.4,86.6 457.7,87 454.3,88.4 
	452.9,88.6 452.1,88.4 450.8,87.7 449.8,86.5 449.4,85.8 449.1,84.9 448.8,83.2 448.8,81.4 449.1,79.6 449.4,78.7 450.1,77.1 
	451.7,74.2 453.3,71.1 454.8,69.1 456.8,67.6 460.7,65.6 463,63.8 465.2,61.8 467.3,59.7 469.8,56.7 470.9,55 471.2,54.2 
	473.2,49.6 473.7,48.2 473.8,46.7 473.4,42.9 468.6,43.4 464.3,43.6 440.1,43.6 434.7,43.7 432.6,44 430.6,44.5 427,46.1 
	425.2,46.8 419.3,47.9 416.4,48.8 411.3,43.3 409.1,41.4 407.5,40.4 404.4,38.9 400,36.6 398.3,36.1 394.9,35.4 393.2,34.9 
	389.6,33 388,32.5 386.2,32.1 384.4,32 381.7,32 379,32.5 377.4,33.1 373.8,34.9 372,35.4 369.1,35.7 363.2,36 360.4,36.4 358.7,37 
	355,38.8 348.3,40.6 344.6,42.4 343,43 341.3,43.4 334.8,44.5 333.8,44.5 332.4,45 330.4,46.2 329.1,47.3 328,48.6 326.5,50.7 
	325.9,52.4 325.5,54.3 325.2,63.7 324.9,65.5 324.4,67.2 322.5,70.9 321.4,73.4 320.6,75 318.9,77.2 313.8,82.7 312.1,84.8 
	311.1,86.4 309.2,90.3 308.3,91.8 306.7,93.8 305,95.9 303.6,98 302.2,101.2 300.2,104.9 298.8,108.3 298.1,109.7 296.5,111.8 
	291.1,117.7 289.5,119.7 288.6,121.2 287.2,124.4 285.8,126.6 284.7,128 283,130 281.1,131.9 279.2,133.6 277.1,135 276,135.5 
	274.7,135.8 271.1,138.6 268.9,140.6 267.7,142 266.1,144.4 264.1,148.3 260.1,153.6 259.2,155.2 258.8,156 258.5,156.9 
	258.1,158.7 257.5,164.2 257.2,166 256.7,167.7 255.3,170.7 254.7,172.4 254.4,174.2 253.8,179.7 253.5,181.5 252.9,183.2 
	251.5,186.2 251,187.8 250.7,189.6 250.1,195.2 249.7,197 249.2,198.6 247.7,201.6 247.1,203.3 245.5,211.7 245.3,213.6 
	243.4,218.8 242.5,223.2 242,224.9 239.9,229.5 238.1,236.5 236.4,240.3 235.8,242 235.5,244 235.3,247 235.3,260.5 235,264.6 
	234.4,267.5 232.7,271.3 232.1,273 230.8,278.9 231.3,284.4 231.5,294.6 231.8,296.6 232.2,298.5 236.2,307 241,313.8 242,315.8 
	242.4,317.4 242.6,319.2 242.7,321 242.5,322.9 241.9,325.6 241.3,327.1 239.7,330.1 238.3,333.4 236.2,337 234.4,341.1 232,345.5 
	230.7,348.8 228.8,352.5 228.2,354.2 227.6,356.8 226.8,360.3 225,364.1 224.5,365.8 223.6,370.2 222.8,372.7 220.9,376.5 
	219.4,379.7 218.4,381.4 216.5,383.6 211.8,388.8 210.5,390.3 209.5,391.9 208,395.1 206.4,398.1 205.7,399.6 205.3,401.4 
	205,404.2 205.1,407 205.6,409.8 206.1,411.4 207.9,415.2 208.4,417.1 208.7,420 208.8,428 209.2,432 209.6,433.9 211.3,437.7 
	211.8,439.3 212.1,441.1 212.6,446.6 212.9,448.4 213.3,449.2 213.6,450 214.6,451.4 215.9,452.5 216.6,452.9 222.6,455.6 
	225.7,456.8 228.7,457.2 234,457.5 242.5,457.5 246.6,457.3 248.6,456.9 250.5,456.2 254,454.3 257.1,452.8 260.5,451 262.4,450.3 
	264.4,449.9 267.5,449.8 270.5,450.1 274.1,450.7 278,448 280.2,446.8 281.9,446.3 285.3,445.7 287.6,442.2 289.3,440.3 
	290.6,439.2 291.4,438.8 293.1,438.3 294,438.2 295.8,438.2 297.5,438.6 298.4,438.9 299.8,439.8 302.3,442 305.1,445.4 
	307.7,449.7 312.4,457.1 313.1,458.7 314.5,463.6 317.8,466.1 319.1,467.3 321.6,469.7 329,477.4 330.9,479.1 333.9,481.5 
	338,480.5 339.4,480 340.1,479.6 341.5,478.6 345.5,475.3 346.8,474.2 348.1,473.5 350.7,472.3 352.1,471.4 354,469.7 359.1,464.8 
	361.1,463.1 362.5,462.2 365.6,460.7 367.7,459.2 369.6,457.4 373.8,453.1 375,452.1 375.7,451.7 376.4,451.4 377.2,451.3 
	378,451.4 378.7,451.6 379.4,452 380,452.5 381.2,453.6 382.8,455.6 383.6,457.1 384.2,458.6 384.7,461.4 384.9,465.2 385.1,467.1 
	385.5,468.8 387.2,472.7 387.7,474.4 388.1,476.4 388.6,481.5 388.9,483.4 389.5,485.1 391.1,489 392.2,494.2 392.8,495.8 
	393.2,496.6 394.2,497.9 395.5,499 396.2,499.4 397.1,499.8 398.8,500.2 404.2,501 407.5,499.3 412.3,496.2 413.6,495.3 414.5,494 
	417.2,489 418.6,485.8 419.4,484.3 421,482.1 422.3,480.7 423.7,479.3 426.1,477.7 429.2,476.1 430.8,475.1 433,473.2 438,468.4 
	440.3,466.6 441.9,465.6 444.2,464.6 447.9,462.6 450.3,461.9 456.6,461.2 458.3,460.9 459.9,460.3 463.6,458.6 465.3,458.1 
	471.6,457.4 473.3,457 474.9,456.4 477.8,455 479.5,454.4 482.3,454 489.1,453.6 492,453.2 493.6,452.6 497.3,450.8 499.1,450.3 
	503,449.9 508.9,450 512.8,450.4 516.1,451.2 522,449.4 526.3,447.3 528.2,446.7 530.2,446.4 532.2,446.3 534.2,446.5 536.8,446.9 
	540,446.1 541.6,445.5 546,443.1 548.3,442.1 549.8,441.2 551.6,439.4 552.6,438.1 555.5,432 556.5,429.4 556.8,427.4 556.9,425.4 
	557,418.1 556.8,403.1 554.5,400.9 551.6,398.1 547.7,394 544.4,390.3 541.8,388.7 538.6,387.3 535.7,385.8 534.2,385.1 
	531.6,384.5 526.2,384 523.6,383.4 522.1,382.7 519.2,381.1 516,379.7 513.8,378.2 511,375.7 507.8,372.3 506.2,370.1 505.3,368.4 
	504.9,366.6 504.7,363.8 504.9,361 505.3,359 504.6,353.2 504.5,347.5 504.6,345.6 504.9,343.7 505.4,341.9 505.8,341.1 
	506.7,339.5 507.9,338.1 509.8,336 512.5,333.5 515.4,331.2 519.3,329.3 521.3,327.8 522.9,325.8 525.4,321.7 526.9,321.3 
	528.3,320.6 529.6,319.6 531.5,317.8 532.6,316.5 533.6,315.1 534.3,313.7 535.4,311 536.2,309.6 537.8,307.6 540.6,304.5 
	542,301.1 542.8,299.4 543.7,298 545.9,295.2 548,292.5 548.9,291.1 550.3,287.8 552.8,283.4 554.1,280.1 556.5,275.6 557.8,272.3 
	559.8,268.6 560.4,267 561.3,262.5 561.8,260.8 564,256.3 565.3,253 567.6,248.5 568.1,246.7 568.8,243.2 569.3,241.4 571.5,236.9 
	572.9,233.6 574.8,229.9 575.4,228.3 576,225.6 576.8,222.1 578.5,218.3 579.1,216.6 579.5,214.6 580,209.6 580.4,207.6 
	580.9,205.9 582.6,202 583.1,200.1 583.7,194.1 584.1,192.1 584.7,190.4 586.4,186.6 587.3,183.1 587.6,181.3 588.1,179.6 
	590.4,175.1 591.7,171.8 593.7,168.1 594,167.3 594.5,165.5 594.7,163.5 594.9,160.6 595,143.6 "/>
</svg>
