<?xml version="1.0" encoding="utf-8"?>
<!-- Generator: Adobe Illustrator 24.2.3, SVG Export Plug-In . SVG Version: 6.00 Build 0)  -->
<svg version="1.1" id="Layer_1" xmlns="http://www.w3.org/2000/svg" xmlns:xlink="http://www.w3.org/1999/xlink" x="0px" y="0px"
	 viewBox="0 0 800 533" style="enable-background:new 0 0 800 533;" xml:space="preserve">
<style type="text/css">
	.st0{fill:#F2933D;stroke:#000000;stroke-width:0.4;stroke-miterlimit:9;}
</style>
<polygon class="st0" points="617.7,326.7 608.3,316.1 605.4,312.4 603.9,309.9 601.9,305.2 600.7,302.7 597.9,298.9 591.6,291.8 
	582.6,282.6 579.1,279.4 575.3,276.8 569.6,274.3 561.8,269.8 559.1,268.8 554,267.3 551.8,263.7 550.6,261.1 549.4,255.8 
	548.9,248.3 548.7,229.2 547.8,219.4 550.1,213.7 553.8,207 556.9,199.7 560.5,193.1 563,187.4 564.5,184.7 566.4,182.4 
	568.6,180.5 571.2,179 576.7,176.3 580.6,173.3 586.7,167.5 591.3,162.5 593.3,159.9 595,157.1 598.2,149.9 602.2,143.3 
	606.4,135.3 599.8,126.3 597.4,122.4 594.9,116.5 590.7,108.5 588.3,102.6 584,94.6 581.6,88.7 577.3,80.7 574.2,73.4 570.5,66.7 
	568.6,62 565.1,57.8 563,56 561.8,55.3 558.9,54.3 553.1,53.3 543.4,58.6 536.3,61.6 528.6,66 522.9,68.5 515.2,73.4 507.2,77.7 
	504,73.4 502.7,71.3 502,70.3 501,69.4 499.7,68.7 498.3,68.4 496.9,68.4 495.5,68.7 494,69.3 492.7,70.1 490.3,72.2 488,74.6 
	485.9,77.2 483.3,81.5 480.8,87.3 479.1,89.8 477,91.9 474.6,93.7 467.8,97 461.4,100.6 455.7,103.1 453.3,104.8 451.2,107 
	449.5,109.4 447,115.2 443.5,121.9 443,123.3 442.1,126.4 440.6,134.4 439.6,137.4 436.5,144.2 435.7,147.3 434.5,153.7 
	433.5,156.8 432.8,158.3 430.9,161.2 427.6,165.2 421.6,171.5 415.4,177.7 411.6,181.1 408.9,183.1 406,184.7 401.8,186.6 394,191 
	388.3,193.4 380.6,197.8 374.9,200.3 367.2,205.1 359,209.4 350.5,216.1 348,217.8 339.7,221.7 331.8,226.8 331,227.5 330.4,228.4 
	330.1,229.5 330.2,230.4 330.7,232.1 319.1,234.1 315.9,234.8 313.1,235.9 306.4,239.1 303.4,240 297.3,241.5 288.6,240.7 
	282,240.7 277.1,241.2 274,242 272.6,242.6 266.2,246.2 260.5,248.7 252.8,253.2 247.1,255.7 240.6,259.4 235.1,262 232.3,263.5 
	229.6,265.6 227,267.8 219.7,275.3 213.6,280 205.3,284.3 202.6,286.3 198.9,289.8 195.6,293.7 193.8,296.6 191.3,302.4 188,309.2 
	186.6,313.8 185.4,325.4 184.8,328.6 183.8,331.5 180.7,338.4 179.6,343.5 179.2,348.9 179.1,358 179.4,365.4 180.1,372.8 
	201.9,372.4 207.7,372.5 213.4,373 218.9,374.2 225.2,377.2 228.6,378.4 232.3,379.1 236.1,379.4 251.7,379.6 266.5,378.8 
	266.4,405.6 265.9,413.8 265.1,418.9 276.2,421.7 279.3,422.8 283.5,425.5 289.9,430.9 293.9,433.7 299.6,436.5 307.4,440.7 
	317.2,443.5 318.3,444.1 322.1,447.1 323.4,447.7 326.3,448.5 334.2,449.6 337.1,450.4 338.4,451 342.3,454 343.4,454.5 
	351.8,456.8 355.9,458.6 363.1,463 365.3,464.8 366.2,466 367.6,468.5 369.7,473.7 371.3,479.7 394.8,455.2 401.8,448.3 
	404.2,446.2 406.8,444.3 409.5,442.8 413.7,440.9 416.3,439.2 418.8,437.2 424.7,431.5 440.9,414.7 444.5,411.4 447.1,409.6 
	448.5,408.9 451.5,407.9 457.7,406.7 460.7,405.8 467.2,402.5 468.6,402 471.7,401.2 476.6,400.7 491.5,400.5 498.1,400.1 
	501.3,399.5 509.5,397.1 517.3,395.5 527.9,392.2 534.6,389 537.6,387.9 541,387.2 549.7,386.2 553.1,385.6 556.2,384.5 561.5,382 
	564.5,381 580,378.6 583,377.6 588.3,375.2 591.2,374.3 594.2,373.9 598.9,374 608.1,358.5 610.5,352.6 614.8,344.6 617.1,338.6 
	620.9,330.8 "/>
</svg>
