<?xml version="1.0" encoding="utf-8"?>
<!-- Generator: Adobe Illustrator 24.2.3, SVG Export Plug-In . SVG Version: 6.00 Build 0)  -->
<svg version="1.1" id="Layer_1" xmlns="http://www.w3.org/2000/svg" xmlns:xlink="http://www.w3.org/1999/xlink" x="0px" y="0px"
	 viewBox="0 0 850 567" style="enable-background:new 0 0 850 567;" xml:space="preserve">
<style type="text/css">
	.st0{fill:#F2933D;stroke:#000000;stroke-width:0.4;stroke-miterlimit:9;}
</style>
<polygon class="st0" points="661.8,223.3 659.6,221.2 647.5,208.8 645.3,206.9 643.7,205.8 640.2,204.2 637.1,202.5 635.4,201.7 
	634.5,201.4 632.5,201 626.6,200.5 624.7,200.2 622.9,199.5 618.9,197.5 617,196.9 615.1,196.5 611.1,196.3 608.2,195.8 
	606.2,195.2 602.3,193.4 600.2,192.9 594.2,192.1 592.4,191.4 591.6,190.9 591,190.3 590,188.9 587.4,184.2 586.8,182.4 
	585.7,176.6 585,174.7 583.9,172.9 581.8,170.6 579.5,168.5 577.8,167.5 574.3,165.9 571.8,164.1 568.8,161.2 566.9,158.8 
	565.9,157 564.8,154.3 563.2,151 562.5,149.2 561.8,146.3 561.3,140.2 561,138.2 560.4,136.3 558.5,132.2 557.9,130.2 557.2,126.3 
	556.6,124.4 554.3,119.4 553.8,117.5 553.1,113.5 552.5,111.6 550,106.7 548.6,103 546.1,98.1 545.6,96.2 544.6,91.3 544,89.5 
	542,85.3 541.5,83.4 540.8,79.4 540.2,77.5 539.4,75.8 534.7,68 532.7,68.3 529.5,68.5 517.7,68.6 514.6,68.9 512.6,69.4 
	510.9,70.2 507.8,72 504.3,73.5 500.4,75.9 496.1,77.8 491.3,80.6 487.8,82.1 483.1,84.8 479.5,86.3 474.8,89 471.3,90.6 
	468.8,92.3 465.1,95.8 463,98.1 461,100.4 459.3,102.9 457.2,107.4 456,109.1 452.8,113.1 451.1,115.7 449.5,119.3 447,124.3 
	446.5,126.2 445.7,130.1 445.2,132 442.9,137.1 442.3,140 442,145.2 440.5,145.8 439.2,146.6 438.6,147.2 436.8,150 435.6,151.3 
	434.2,152.4 432.5,153.3 431.6,153.5 429.6,153.9 427.6,154 424.5,154 420.5,153.7 418.5,153.3 417.6,153 416.7,152.5 415.1,151.4 
	412.9,149.3 410.7,147.1 395,130.6 392.4,127.5 390.6,124.7 384,123.9 375.9,123.6 371.4,123.9 369.3,124.3 368.3,124.7 
	366.7,125.7 366,126.3 364.8,127.7 363.9,129.4 362.2,132.8 356.9,140.4 354.8,144.8 353.8,146.3 352.5,147.6 350.9,148.5 
	350,148.9 346.9,149.5 342.8,149.6 329.9,149.3 326.8,149.4 324.7,149.7 322.8,150.2 321.9,150.5 317.9,152.7 314.4,154.3 
	312.7,155.4 310.4,157.5 308.3,159.8 307.1,161.5 306.2,163.3 305.2,166.1 302.2,173 301.1,177.8 300.4,179.6 298.8,182.9 
	298,185.7 297.7,187.8 297.6,189.8 297.6,191.9 297.9,193.9 298.4,195.9 298.7,196.8 300.9,200.9 302.4,204.5 303.9,206.9 
	307.9,212.4 302.7,213.1 299.4,213.3 295,213.3 291.7,212.9 288.8,212 284.9,209.8 281.5,208.1 277.5,206 275.8,205.3 273.8,205 
	271.9,205 270,205.3 268.2,205.9 265,207.5 263.2,208.1 258.5,209.1 256.7,209.7 254.3,210.9 250.6,213.2 249.3,214.4 248.5,216.1 
	247.9,219.1 247.9,224.5 248.3,229 249.1,233 248,236.6 247.3,238.4 246.3,240 243.9,243.1 243,247 240.6,252 238.7,256.5 
	235.2,262.1 234.3,262.9 233.5,263.1 231.5,267.4 229.8,270.1 227,273.3 220.2,280.1 218,282.4 216.7,284.1 215.7,285.9 
	215.4,286.9 215,288.9 215,290.9 215.2,291.9 215.7,293.9 216.1,294.9 217.9,297.4 221.5,301.3 227.6,307.4 230,309.4 231.8,310.4 
	232.8,310.7 234.7,311.1 236.7,311.3 243.7,311.5 246.7,311.9 248.4,312.6 251.6,314.2 253.4,314.8 256.3,315.3 261.2,315.8 
	264.1,316.5 268.9,318.8 270.8,319.4 274.6,320.1 276.5,320.6 283.1,323.3 280.7,327.6 279.3,329.6 277.4,331.9 272,337.6 
	270.1,339.8 268.9,341.3 266.2,345.3 261.4,346.6 252.2,350.3 250.7,351.2 246.3,354 245.1,355.1 244.6,355.8 243.8,358.1 
	240.9,358.8 240,359.1 238.3,360.1 236,362 230.1,367.7 227.7,369.5 226.9,370 225,370.6 221.2,371.3 219.3,371.8 212.6,374.9 
	204,375.1 201.9,375.3 199.7,375.8 198.7,376.1 196.7,377.1 190,381.8 189.7,384.6 189.3,386.5 188.7,388.3 186.9,392.6 
	186.2,395.7 185.9,398.9 185.8,402.3 185.9,406.7 186.1,410 186.8,413.1 188.7,417.3 189.4,419.1 190.4,424 191,425.9 193.2,431 
	195.1,438.7 196.9,442.8 197.7,445.9 198.2,448.6 198.7,450.5 199.1,451.4 200.1,453 201.3,454.5 202.7,455.7 206.4,458.5 
	207.5,461 209.8,465 211.3,468.5 211.8,469.3 213,470.7 214.3,471.9 215.1,472.4 218.4,474.1 220.9,475.8 223.1,477.8 227.6,482.1 
	229.9,484.1 231.5,485.1 234.9,486.8 236.4,487.9 238.5,489.8 241.5,493.5 243.9,494 247.3,494.4 260.1,494.5 264.6,494.8 
	267.9,495.6 272.8,497.8 274.9,498.4 279.3,498.9 285,499 288.3,498.8 291.6,498.2 293.7,497.5 296.6,496.1 298.6,495.4 
	308.1,493.8 310.1,493.1 313,491.7 315,491 317.2,490.7 319.4,490.7 321.6,491 324.2,491.7 333,489.7 334.7,489.1 337.9,487.4 
	339.7,486.8 341.6,486.5 347.5,485.8 350.4,485.2 352,484.4 355.2,482.7 358.7,481.1 363.5,478.4 367,476.8 371.7,474.1 
	375.2,472.6 379.9,469.8 383.4,468.3 387.4,466.2 388.2,465.8 390.1,465.4 392,465.3 393.9,465.5 395.6,461.5 397.1,456.8 
	398.4,453.7 398.7,452.1 398.6,451.2 398.1,449.6 396,444.7 395.1,443.1 393.9,441.7 392.5,440.5 390.9,439.5 387.6,437.9 
	385.3,436.2 381.7,433.1 379.4,431.5 375.9,429.9 372.7,428.2 371.1,427.4 369.3,426.9 364.5,425.9 363.6,425.6 361.9,424.6 
	359.5,422.6 357.3,420.4 346.3,408.9 344.4,406.5 343.4,404.8 341.8,401.2 339.2,396.3 337.8,392.7 335.2,387.8 333.7,384.1 
	331,379.3 329.5,375.6 327.4,371.5 327,370.7 326.5,368.7 324.9,360.5 327.4,360 330.6,359 336.4,357.9 338.2,357.3 339.9,356.5 
	343,354.8 346.6,353.2 349.7,351.5 351.4,350.7 353.2,350.1 357,349.4 358.9,348.8 360.5,348.1 363.7,346.3 367.2,344.7 
	368.7,343.7 370.2,342.4 376.2,336.6 378.6,334.7 380.2,333.6 383.6,331.9 386.1,330.2 392.8,323.8 395.1,321.9 396.7,320.8 
	400.2,319.1 402.6,317.4 404.9,315.3 409.3,311 411.6,309.1 413.2,308 417.5,305.8 419.2,304.5 423.1,301.2 425.6,299.5 
	429.1,297.8 433.8,295.1 437.3,293.5 441.3,291.4 442.1,291 444.1,290.5 447.1,290.1 451.3,290.1 472.5,290.2 477.8,290 
	480.8,289.6 484.2,288.1 487.4,286.6 490.1,285.5 491.8,284.6 493.3,283.5 497.6,279.8 499.1,278.7 503,276.4 505.9,273.8 
	509,273.4 514.4,273.1 518.8,273.1 521.9,273.5 523,273.8 524.8,274.5 528.7,276.7 532.2,278.3 536,280.4 537.8,280.8 538.7,280.9 
	539.7,280.9 541.4,280.4 545.3,278.6 547.1,278 551.9,276.9 553.6,276.2 557.7,274.2 561.4,273.2 565.2,272.3 570,269.8 
	573.5,268.3 575.1,267.4 579.5,264.6 580.9,263.5 581.4,262.8 583.3,259.8 585.2,257.4 587.3,255.2 589.7,253.2 591.5,252.3 
	594.9,250.6 598.8,248.3 602.3,246.8 605.5,245.1 607.1,244.3 609.1,243.8 612.2,243.4 616.4,243.4 628.2,243.5 631.3,243.3 
	633.4,243.1 635.3,242.6 639.4,240.6 641.1,239.9 645.8,238.9 647.7,238.3 655.6,233.9 658.2,232.3 660.3,230.5 662.1,228.5 
	664.2,225.4 "/>
</svg>
