<?xml version="1.0" encoding="utf-8"?>
<!-- Generator: Adobe Illustrator 24.2.3, SVG Export Plug-In . SVG Version: 6.00 Build 0)  -->
<svg version="1.1" id="Layer_1" xmlns="http://www.w3.org/2000/svg" xmlns:xlink="http://www.w3.org/1999/xlink" x="0px" y="0px"
	 viewBox="0 0 800 533" style="enable-background:new 0 0 800 533;" xml:space="preserve">
<style type="text/css">
	.st0{fill:#F2933D;stroke:#000000;stroke-width:0.4;stroke-miterlimit:9;}
</style>
<polygon class="st0" points="599.9,225.2 599.1,223.8 599.1,223.5 598.8,222.3 598.5,220.4 597.1,217.2 598.2,214.8 599.7,211.3 
	600.2,207.9 598.7,202.3 592.2,185.6 591.3,182.7 589.8,180.9 585.5,176.4 584,175.1 582.9,173.6 582.1,172 582.2,169.7 
	582.9,166.4 581.3,161 581.5,159.6 582.1,155.9 582.8,153.9 583.2,152.4 582.3,150.8 581.1,148.2 581.8,146.3 581.8,146.1 
	582.2,144.4 581.1,142.5 575.4,137.1 573.8,135.3 572.8,134.5 570.4,132.6 567.1,129.4 564.3,126.3 563.1,125.2 563,125.1 
	560.7,123.7 559.6,123.2 557.7,123 553,122.2 551.2,121.7 549.3,120.8 544.2,117.6 540.8,115.7 538.3,114.7 535.5,114 534.8,113.7 
	533.6,113.2 531.4,111.1 531,109.4 531.3,105.5 531.2,104.3 531,100.6 530.4,99 529.1,97.4 528.4,96.4 527.1,94.7 526.3,92.6 
	525.9,89.8 526.5,87.3 527.8,84.1 531.1,77.5 531.2,77.4 529.1,73.5 528.3,69.8 527.3,67 526.2,65 524.7,63.1 522.7,60.9 
	519.5,59.6 516.7,58.7 516.3,58.5 516.2,58.5 516.1,58.5 516,58.4 514.8,58 513,56.9 511.4,55.6 510,54.6 509.5,54.2 509.4,54.2 
	507.2,53.5 506.2,53.4 504.9,53.3 503.3,53.5 502.4,53.7 496.6,55.4 496.2,55.5 494,56.1 493,56.4 483.8,59.6 484.2,60.1 
	483.2,61.3 480.7,65.4 480.1,67 479.6,68.9 479.3,72.9 479.4,87.5 479.2,90.5 478.9,92.5 478.3,94.2 476.4,97.9 475.1,101.2 
	472.7,105.6 471.2,108.8 470.2,110.1 468.5,111.9 467,112.8 464,114.4 458.9,118.4 457.4,119.4 455.7,120.1 451.5,121.1 
	449.8,121.6 445.4,124 442,125.5 439.1,124.9 436.4,124.6 433.7,124.7 431.9,125.1 430.3,125.7 428.9,126.6 424.5,130.2 
	422.3,130.7 418.5,131.8 414.1,132.5 412.4,133 410.9,133.8 408,135.4 404.9,136.7 400.6,139.2 397.4,140.6 395.4,142 392.9,144.4 
	391.4,146.4 389.2,149.8 388.4,152 386.7,155.7 386.2,157.5 385.3,161.8 384.7,163.5 383,167.3 382.5,169.2 382.2,171.3 
	382.1,174.4 382.1,191.4 381.9,194.5 381.6,196.5 381,198.3 379.3,202.1 378.1,207.3 377.5,209.1 376,211.6 373.2,215.4 
	370.5,216.6 367.5,217.9 363.1,220.1 361.4,220.7 358,221.4 356.3,221.9 351.8,223.9 349.3,224.5 343,225.2 340.6,226 336.9,227.9 
	333.8,229.3 329.5,231.8 326.4,233.3 324.9,234.4 319.8,238.5 318.2,239.4 317.3,239.7 314.4,240.2 310.5,240.3 306.4,240.1 
	301.6,239.5 305.7,246.4 306.6,248.3 307.2,251.2 307.3,254.3 307.2,256.3 306.8,258.2 306.2,260.1 304.5,263.8 303.9,266.8 
	303.6,271.1 303.5,279.9 303.1,284.2 302.7,286.2 300.4,291.7 299.2,298 299.5,301 299.5,302.8 299.3,304.7 298.7,306.4 
	296.9,310.1 295.9,312.5 295,314 293.3,315.8 292,316.8 288.2,318.6 284.6,320.6 281.4,322 277.1,324.4 273.9,325.8 269.6,328.3 
	266.4,329.7 262.1,332.1 258.9,333.5 254.6,336 251.5,337.4 247.2,339.8 244,341.2 239.7,343.7 236.5,345.1 232.9,347.1 
	232.2,347.4 230.5,347.8 224.2,348.5 222.5,348.8 220.9,349.4 217.2,351.2 215.5,351.7 211.2,352.6 209.7,353.2 206,355.1 
	204.3,355.6 202.6,355.9 202.2,357.7 201.7,359.4 200.3,362.3 199.7,363.8 199.5,365.6 199.7,367.3 200.3,368.8 201.8,371.7 
	203.1,375 205.6,379.4 207,382.6 208.4,384.8 212.1,389.6 212.9,391 214.3,394.2 215.3,395.5 216.5,396.7 217.9,397.6 219.5,398.2 
	222.9,398.9 224.5,399.4 229,401.4 231.6,402 236.1,402.4 238.7,402.9 240.3,403.5 243.9,405.2 246.5,405.8 251,406.2 252.7,406.4 
	254.5,406.9 255.3,407.3 256.7,408.3 258.8,410.2 265.2,416.9 267.9,419.4 270,420.9 272.4,422 273.9,422.8 275.3,423.8 276.6,425 
	279.3,427.6 284.4,432.9 287.6,436.2 289.4,438.3 290.5,439.7 291.4,441.2 292.8,444.5 295.1,448.9 296.1,451.4 296.9,452.9 
	297.9,454.3 301.2,458.4 302.5,460.5 306.2,469.3 309.4,471.2 313.2,474 314.7,475 317.8,476.5 321.4,478.4 324.1,479.3 327,479.6 
	336.1,479.7 339.2,479.6 342.1,479.2 344,478.8 347.7,477 349.3,476.4 354.2,475 355.6,474.4 357.4,473.2 362.3,472.4 369.1,471.8 
	371.7,471.3 373.1,470.8 375.3,469.2 376.8,468.6 383.1,467.6 385,467.1 396.9,461.2 399.9,460.6 405.7,460.3 410.4,457.9 
	411.8,457.3 414.7,456.7 419.6,456.2 421.5,455.9 423.2,455.3 426.9,453.5 433.6,451.7 438,449.6 439.7,449.2 441.4,449.1 
	443.2,449.2 444.9,449.6 449.3,451.7 451.1,452.2 453.9,452.5 459.8,452.9 462.6,453.3 464.3,453.9 467.2,455.3 468.9,455.9 
	470.7,456.3 475.6,456.8 477.5,457.2 479.2,457.8 482.9,459.5 484.7,460 490.5,460.7 492.4,461 494.1,461.6 497.8,463.4 
	501.2,464.3 501.2,459.5 501.1,456.6 500.7,453.9 500.1,452.2 496.3,444.5 495.2,442.9 491.7,438.5 490.7,437 486.9,429.3 
	486.6,428.4 486.4,426.6 486.4,423.8 486.8,422 487.9,419.7 489.4,417 490.3,415.7 490.9,415.2 491.7,414.8 492.4,414.5 494,414.3 
	496.5,414.7 498,415.2 500.6,416.7 502.2,417.2 503,417.3 504.8,417.1 505.6,416.8 507.2,415.9 508.6,414.7 509.9,413.3 
	510.9,411.8 511.6,410 511.8,408.3 511.7,407.4 511.3,405.8 509.8,403 509.3,401.5 509,398.9 509.2,397.3 509.4,396.5 509.8,395.8 
	510.3,395.2 511.6,394.3 514.9,392.3 516.4,391.6 517.3,391.3 520.1,390.9 524,390.9 536.6,390.9 542.2,390.8 547.2,391 551.2,391 
	554.2,390.8 557,390.2 561.4,388.1 566.5,386.8 568.1,386.2 569.8,385.3 574.3,381.7 575.6,380.8 577.2,380 578.8,379.4 
	577.9,378.4 577.7,376.1 578.1,375.9 579.7,375.9 581.4,376.3 583.6,375.7 583.5,374.6 583.2,373 583.9,371.4 583.4,370.6 
	583.7,367.6 583.5,366.2 582,364.5 581.1,363.9 580,363.1 578.2,362.6 576.7,362.2 573.1,360.2 573.1,358.3 572.3,357.3 
	571.2,354.1 567.4,347.9 561.6,340.1 561.8,335.9 562.3,333.2 562.3,330.4 564.1,326.3 564.8,325.2 565.3,324.5 566.6,322.9 
	568.4,319.6 566.5,314.8 567.9,313.3 566.4,309.8 565.3,308.1 562.7,306.2 562.4,305.9 561.1,304 560.8,303.7 557.1,300.6 
	555.7,300.6 552.5,299.5 551.7,298 549.9,296.7 549.7,293.8 552,293 552.3,289.2 553.5,288.5 557.2,286.8 560.4,284.3 565.3,280.3 
	567,278.3 568,277.9 568.6,279.1 569.9,279.7 571.1,276 570.9,275.4 570.7,274.4 571.1,273.8 573.2,275.6 575.1,275.7 573.9,268.3 
	573.7,266.6 577.1,265 579,262 581.9,259.9 584.7,255.3 589.3,246.3 591.9,240.5 592.9,237.6 593.1,234.8 594.6,231.5 595.5,231.5 
	597.9,231.4 598.2,230.7 598.6,229.7 599.7,227.9 600.5,226.3 "/>
</svg>
