<?xml version="1.0" encoding="utf-8"?>
<!-- Generator: Adobe Illustrator 24.2.3, SVG Export Plug-In . SVG Version: 6.00 Build 0)  -->
<svg version="1.1" id="Layer_1" xmlns="http://www.w3.org/2000/svg" xmlns:xlink="http://www.w3.org/1999/xlink" x="0px" y="0px"
	 viewBox="0 0 800 533" style="enable-background:new 0 0 800 533;" xml:space="preserve">
<style type="text/css">
	.st0{fill:#F2933D;stroke:#000000;stroke-width:0.4;stroke-miterlimit:9;}
</style>
<polygon class="st0" points="662.3,181.4 660.8,180.8 659.5,180 658.4,178.7 656.4,175.7 655.1,174.2 652.9,172 650.5,170 
	648.8,169 645.5,167.4 641.5,165.1 638,163.6 634.9,161.8 633.2,161.1 631.2,160.5 627.9,160.2 616.8,160.2 612.4,159.9 
	609.3,159.2 605.3,157.3 602.6,156.4 600.6,156.1 591.6,155.1 588.2,155.6 584.8,155.8 572,155.9 572,151.6 572.1,137.5 
	571.8,134.1 571.5,131.8 570.8,129.9 568.7,125.8 567.2,122.2 564.5,117.4 563,113.8 560.9,109.7 560.1,106.7 559.8,104.4 
	559.7,101 559.7,88.1 559.9,80.9 560.3,77.1 560.3,77.1 560.3,77.2 560.1,77.2 560.1,77.3 560,77.3 560,77.4 560,77.4 560,77.5 
	559.4,77.5 559.4,77.4 558.3,77.4 558.3,77.3 557.2,77.3 557.2,77.2 556.8,77.2 556.8,77.1 556.4,77.1 556.3,77.1 555.7,77.1 
	555.7,77 554.6,77 554.6,76.9 553.6,76.9 553.6,76.8 553.4,76.8 553.4,76.7 552.9,76.7 552.9,76.6 552.4,76.6 552.4,76.5 
	551.9,76.5 551.9,76.4 551.8,76.4 551.8,76.3 551.7,76.3 551.7,76.2 551.5,76.2 551.5,76.1 549.3,76.1 549.2,76 548.5,76 
	548.5,75.9 547.7,75.9 547.7,75.8 547.3,75.8 547.3,75.7 546.8,75.7 546.8,75.6 546.3,75.6 546.3,75.5 546,75.5 546,75.4 
	545.7,75.4 545.7,75.3 545.5,75.3 545.5,75.2 545.2,75.2 545.2,74.9 545.1,74.9 545.1,74.7 545.1,74.7 545.1,74.4 545.2,74.4 
	545.2,74.2 545.3,74.2 545.3,74.1 545.2,74.1 545.2,73.9 545.1,73.9 545.1,74 545.1,74 545.1,74.1 545,74.1 545,74.3 544.9,74.3 
	544.9,74.5 544.8,74.5 544.8,74.7 544.8,74.7 544.8,74.8 544.7,74.8 544.7,74.9 544.3,74.9 544.3,74.8 544.2,74.8 544.2,74.7 
	544.1,74.7 544.1,73.7 544.2,73.7 544.2,73.6 544.2,73.6 544.2,73.4 544.3,73.4 544.3,73.3 544.7,73.3 544.7,73.4 544.8,73.4 
	544.8,73.6 545,73.6 545,73.7 545.8,73.7 545.8,73.5 545.5,73.5 545.5,73.3 545.1,73.3 545.1,73.2 545,73.2 545,73 544.7,73 
	544.7,72.9 544,72.9 544,73 543.5,73 543.5,73.2 543.3,73.2 543.3,73.4 542.9,73.4 542.9,73.3 542.9,73.3 542.9,73.2 542.8,73.2 
	542.8,72.9 542.9,72.9 542.9,72.8 542.7,72.8 542.7,72.7 542.3,72.7 542.3,72.6 542,72.6 542,72.7 541.3,72.7 541.3,72.5 
	541.2,72.5 541.2,72.4 539.8,72.4 539.8,72.3 539.5,72.3 539.5,72.2 539.1,72.2 539.1,72 538.8,72 538.8,72.1 538.8,72.1 
	538.8,72.2 538.4,72.2 538.4,72.1 538.1,72.1 538.1,72 537.9,72 537.9,71.9 537.8,71.9 537.8,71.7 536.6,71.7 536.6,71.6 
	535.8,71.6 535.8,71.5 535.6,71.5 535.6,71.6 535.3,71.6 535.3,71.5 535.1,71.5 535.1,71.4 534.7,71.4 534.7,71.3 534.2,71.3 
	534.2,71.2 534.1,71.2 534.1,71.1 534.1,71.1 534.1,71.2 533.8,71.2 533.8,71.1 533.7,71.1 533.7,71 533.5,71 533.5,70.9 
	533.4,70.9 533.3,70.9 533.3,70.8 533,70.8 533,70.7 532.7,70.7 532.7,70.6 532.4,70.6 532.4,70.5 532.1,70.5 532.1,70.4 
	531.9,70.4 531.9,70.3 531.6,70.3 531.6,70.2 531.4,70.2 531.4,70.1 530.9,70.1 530.9,70 530.6,70 530.6,69.9 530.4,69.9 
	530.4,69.8 529.7,69.8 529.7,69.7 529.6,69.7 529.6,69.6 529.3,69.6 529.3,69.5 529.2,69.5 529.2,69.4 528.6,69.4 528.6,69.3 
	528,69.3 528,69.2 527.9,69.2 527.9,69 527.6,69 527.6,68.9 527.4,68.9 527.4,68.8 527.4,68.8 527.4,68.7 527,68.7 527,68.6 
	526.6,68.6 526.6,68.7 526.4,68.7 526.4,68.8 526.1,68.8 526.1,68.7 525.9,68.7 525.9,68.6 525.8,68.6 525.8,68.5 525.4,68.5 
	525.4,68.4 524.9,68.4 524.9,68.5 524.8,68.5 524.8,68.4 524.6,68.4 524.6,68.3 524.1,68.3 524.1,68.4 523.7,68.4 523.7,68.3 
	523.4,68.3 523.4,68.4 523.3,68.4 523.3,68.5 522.4,68.5 522.4,68.6 522.3,68.6 522.3,68.7 522.1,68.7 522.1,68.6 522.1,68.6 
	522.1,68.5 521.7,68.5 521.7,68.7 521.6,68.7 521.6,68.6 521.4,68.6 521.4,68.5 521.4,68.5 521.4,68.6 518.9,68.6 518.9,68.5 
	518.8,68.5 518.8,68.4 518.5,68.4 518.5,68.5 518.4,68.5 518.4,68.6 518.1,68.6 518.1,68.5 518,68.5 518,68.4 517.7,68.4 
	517.7,68.5 517.6,68.5 517.6,68.4 517.3,68.4 517.3,68.3 517,68.3 517,68.2 516.7,68.2 516.7,68.3 516.6,68.3 516.6,68.4 
	516.1,68.4 516.1,68.3 516,68.3 516,68.2 515.1,68.2 515.1,68.1 514.5,68.1 514.5,68 514.2,68 514.2,67.9 514.2,67.9 514.2,67.8 
	513.8,67.8 513.8,67.7 513.7,67.7 513.7,67.8 513.4,67.8 513.4,67.9 513,67.9 513,68 512.5,68 512.5,68.1 512.4,68.1 512.4,68.2 
	512,68.2 512,68.1 511.9,68.1 511.9,68 511.8,68 511.8,67.9 511.7,67.9 511.7,67.8 511.6,67.8 511.6,67.7 511.6,67.7 511.6,67.6 
	511.3,67.6 511.3,67.5 511.3,67.5 511.3,67.4 511.2,67.4 511.2,67.3 511,67.3 511,67.4 511,67.4 511,67.6 510.9,67.6 510.9,67.7 
	510.7,67.7 510.7,67.9 510.6,67.9 510.6,68 510.4,68 510.4,68.1 510,68.1 510,68 509.9,68 509.9,68.1 509.7,68.1 509.7,68.2 
	509.4,68.2 509.4,68.1 508.9,68.1 508.9,68.2 508.2,68.2 508.2,68.3 507.2,68.3 507.2,68.2 505.6,68.2 505.6,68.1 505.1,68.1 
	505.1,68 505,68 505,67.7 505,67.7 505,67.5 505,67.5 505,67.4 505.1,67.4 505.1,67.3 505,67.3 505,67.2 505,67.2 505,67.1 
	504.4,67.1 504.4,67.2 504,67.2 504,67.3 503.7,67.3 503.7,67.5 503.7,67.5 503.7,67.6 503.3,67.6 503.3,67.7 502.3,67.7 
	501.6,67.7 501.6,67.8 500,67.8 500,67.9 499.6,67.9 499.6,67.8 499.5,67.8 499.5,67.7 498.4,67.7 498.4,67.7 498.1,67.7 
	498.1,67.8 497.8,67.8 497.8,67.9 497.6,67.9 497.6,67.8 497.4,67.8 497.4,67.9 495.4,67.9 495.4,68 495.2,68 495.2,68.1 
	494.4,68.1 494.4,68.2 494.3,68.2 494.3,68.1 494.2,68.1 494.2,68.2 493.5,68.2 493.5,68.3 492.1,68.3 492.1,68.2 491.8,68.2 
	491.8,68.1 491.6,68.1 491.6,68 491.4,68 491.4,67.9 490.5,67.9 490.5,67.8 490.3,67.8 490.3,67.7 489.8,67.7 489.8,67.8 
	489.7,67.8 489.7,67.9 489.5,67.9 489.5,68 489.5,68 489.5,68.1 489.4,68.1 489.4,68.4 489.2,68.4 489.2,68.5 489.2,68.5 
	489.2,68.6 489.1,68.6 489.1,68.7 489,68.7 489,68.8 488.9,68.8 488.9,68.9 488.9,68.9 488.9,69 488.5,69 488.5,69.1 488.3,69.1 
	488.3,69.2 488.3,69.2 488.3,69.3 487.8,69.3 487.8,69.2 486.8,69.2 486.8,69.3 486.7,69.3 486.7,69.2 486.4,69.2 486.4,69.3 
	486.3,69.3 486.3,69.4 485.8,69.4 485.8,69.5 485.3,69.5 485.3,69.6 484.9,69.6 484.9,69.7 484.7,69.7 484.7,69.8 484.4,69.8 
	484.4,69.9 484.2,69.9 484.2,70 483.8,70 483.8,70.1 483.5,70.1 483.5,70.2 482.9,70.2 482.9,70.1 482.9,70.1 482.9,70 482.4,70 
	482.4,69.9 482.1,69.9 482.1,70 481.6,70 481.6,70.1 481,70.1 481,70.2 480.3,70.2 480.3,70.1 480,70.1 480,70 479.7,70 479.7,69.9 
	479.3,69.9 479.3,69.8 479.1,69.8 479.1,69.9 479,69.9 479,70 478.7,70 478.7,70.1 478.4,70.1 478.4,70.2 478.3,70.2 478.3,70.1 
	478.1,70.1 478.1,70.2 477.9,70.2 477.9,70.3 477.4,70.3 477.4,70.4 477.2,70.4 477.2,70.5 477,70.5 476.9,70.5 476.9,70.4 
	476.8,70.4 476.8,70.3 476.6,70.3 476.6,70.2 476.4,70.2 476.4,70.3 476.3,70.3 476.3,70.4 475.9,70.4 475.9,70.3 475.7,70.3 
	475.7,70.2 475.6,70.2 475.6,70.3 475.4,70.3 475.4,70.4 474.9,70.4 474.9,70.5 474.8,70.5 474.8,70.4 474.6,70.4 474.6,70.3 
	474.4,70.3 474.4,70.2 473.7,70.2 473.7,70.3 473.3,70.3 473.3,70.4 473.1,70.4 473.1,70.5 472.9,70.5 472.9,70.6 472.5,70.6 
	472.5,70.7 472.1,70.7 472.1,70.8 471.8,70.8 471.8,70.9 471.8,70.9 471.7,70.9 471.7,70.9 471.7,70.8 471.6,70.8 471.6,70.9 
	471.6,70.9 471.4,70.9 471.4,70.9 471.4,70.8 471.3,70.8 471.3,70.9 471.3,70.9 470.9,70.9 470.9,70.9 470.9,70.8 470.8,70.8 
	470.8,70.9 470.8,70.9 469.3,70.9 469.3,70.9 469.3,70.8 469.3,70.8 469.3,70.7 469.1,70.7 469.1,70.6 469,70.6 469,70.5 
	468.9,70.5 468.9,70.4 468.6,70.4 468.6,70.2 468.4,70.2 468.4,70.1 468.6,70.1 468.6,69.9 468.7,69.9 468.7,69.8 468.9,69.8 
	468.9,69.7 468.8,69.7 468.8,69.5 468.7,69.5 468.7,69.4 468.6,69.4 468.6,69.5 468.5,69.5 468.5,69.6 468.1,69.6 468.1,69.7 
	467.9,69.7 467.9,69.8 467.8,69.8 467.8,69.9 467,69.9 467,70 466.5,70 466.5,70.1 466.3,70.1 466.3,70.3 466.1,70.3 466.1,70.4 
	466,70.4 466,70.3 465.7,70.3 465.7,70.2 465.4,70.2 465.4,70.3 464.6,70.3 464.6,70.2 464.1,70.2 464.1,70.1 463.8,70.1 
	463.8,70.2 463.6,70.2 463.6,70.1 463.4,70.1 463.4,70.2 463.3,70.2 463.3,70.1 462.9,70.1 462.9,70 462.7,70 462.7,70.1 
	462.4,70.1 462.4,70 461.6,70 461.6,69.9 460.9,69.9 460.9,70 460.3,70 460.3,70.1 459.7,70.1 459.7,70.2 459.5,70.2 459.5,70.1 
	457.9,70.1 457.9,70 457.7,70 457.7,69.9 457.3,69.9 457.3,70 457.2,70 457.2,70.1 457,70.1 457,70.2 456.7,70.2 456.7,70.3 
	456,70.3 456,70.2 455.8,70.2 455.8,70.3 455.6,70.3 455.6,70.4 455.5,70.4 455.5,70.5 455.1,70.5 455.1,70.4 454.9,70.4 
	454.9,70.3 454.8,70.3 454.8,70.2 453.8,70.2 453.8,70.1 453.5,70.1 453.5,70.2 453.4,70.2 453.4,70.3 453.2,70.3 453.2,70.4 
	453.1,70.4 453.1,70.5 452.8,70.5 452.8,70.6 451.7,70.6 451.7,70.5 451.5,70.5 451.5,70.4 451.2,70.4 451.2,70.3 451.1,70.3 
	451.1,70.5 450.7,70.5 450.7,70.4 450.6,70.4 450.6,70.3 449.4,70.3 449.4,70.2 449,70.2 449,70.1 448.8,70.1 448.8,70 448.3,70 
	448.3,69.9 447.9,69.9 447.9,69.8 447.5,69.8 447.5,69.6 447.4,69.6 447.4,69.4 447.3,69.4 447.3,69.3 447.4,69.3 447.4,69.2 
	447.2,69.2 447.2,69.3 446.9,69.3 446.9,69.4 446.8,69.4 446.8,69.5 445.9,69.5 445.9,69.6 445.6,69.6 445.6,69.6 445.6,69.7 
	445.3,69.7 445.3,69.8 445,69.8 445,69.7 445,69.7 445,69.6 444.9,69.6 444.9,69.4 444.5,69.4 444.5,69.5 444.3,69.5 444.3,69.6 
	443.8,69.6 443.8,69.5 443.7,69.5 443.7,69.4 443.5,69.4 443.5,69.3 443.4,69.3 443.4,69.2 443.1,69.2 443.1,69.1 443.1,69.1 
	443.1,69.2 442.8,69.2 442.8,69.3 442.8,69.3 442.8,69.6 442.6,69.6 442.6,69.7 442.3,69.7 442.3,69.8 442.1,69.8 442.1,69.9 
	442.1,69.9 442.1,70 441.9,70 441.9,70.1 441.8,70.1 441.8,70.2 441.7,70.2 441.7,70.3 441.6,70.3 441.6,70.4 441.5,70.4 
	441.5,70.3 441.3,70.3 441.3,70.4 441,70.4 441,70.5 439.7,70.5 439.7,70.4 439.6,70.4 439.6,70.3 439.4,70.3 439.4,70.4 
	439.3,70.4 439.3,70.5 439.3,70.5 439.3,70.6 439.2,70.6 439.2,70.5 438.4,70.5 438.4,70.4 438.3,70.4 438.3,70.2 438.2,70.2 
	438.2,70.1 438,70.1 438,70 438,70 438,69.9 437.6,69.9 437.6,69.8 437.1,69.8 437.1,69.9 436.9,69.9 436.9,69.8 436.8,69.8 
	436.8,69.7 436.7,69.7 436.7,69.6 436.4,69.6 436.4,69.5 436.1,69.5 436.1,69.4 436.1,69.4 436.1,69.3 435.9,69.3 435.9,69.2 
	435.8,69.2 435.8,69.1 435.8,69.1 435.8,69 435.7,69 435.7,68.9 435.6,68.9 435.6,68.4 435.5,68.4 435.5,68.3 435.3,68.3 
	435.3,68.2 435.2,68.2 435.2,68.3 435.2,68.3 435.2,68.5 435.1,68.5 435.1,68.6 434.7,68.6 434.7,68.5 434.5,68.5 434.5,68.4 
	434.5,68.4 434.5,68.3 434.4,68.3 434.4,68.2 434.3,68.2 434.3,68.1 434.2,68.1 434.2,68 434.3,68 434.3,67.9 434.4,67.9 
	434.4,67.8 434.7,67.8 434.7,67.9 435.3,67.9 435.3,67.8 435.5,67.8 435.5,67.9 435.7,67.9 435.7,68 436.3,68 436.3,67.9 
	436.4,67.9 436.4,67.8 436.6,67.8 436.6,67.7 436.7,67.7 436.7,67.6 436.6,67.6 436.6,67.5 436.2,67.5 436.2,67.6 436.1,67.6 
	436.1,67.7 436,67.7 436,67.6 435.8,67.6 435.8,67.5 435.5,67.5 435.5,67.4 435.2,67.4 435.2,67.3 434.2,67.3 434.2,67.4 
	433.9,67.4 433.9,67.5 433.9,67.5 433.9,67.6 433.8,67.6 433.8,67.7 433.7,67.7 433.7,67.9 433.6,67.9 433.6,68.1 432.9,68.1 
	432.9,68 432.7,68 432.7,68.1 432.5,68.1 432.5,68.2 432.3,68.2 432.3,68.3 432.2,68.3 432.2,68.4 431.9,68.4 431.9,68.5 
	431.6,68.5 431.6,68.6 431.2,68.6 431.2,68.7 431,68.7 431,68.8 430.4,68.8 430.4,68.9 429.6,68.9 429.6,68.8 428.8,68.8 
	428.8,68.9 427.9,68.9 427.9,69 427.6,69 427.6,68.9 427.6,68.9 427.6,68.8 427.3,68.8 427.3,68.9 426.9,68.9 426.9,68.8 
	426.6,68.8 426.6,68.7 426.3,68.7 426.3,68.8 426,68.8 426,68.7 425.8,68.7 425.8,68.8 424.9,68.8 424.9,68.7 424.4,68.7 
	424.4,68.6 424.2,68.6 424.2,68.5 424.1,68.5 424.1,68.4 423.8,68.4 423.8,68.5 423.5,68.5 423.5,68.6 423.3,68.6 423.3,68.5 
	423.1,68.5 423.1,68.4 422.8,68.4 422.8,68.3 422.2,68.3 422.2,68.2 422.2,68.2 422.2,68.1 422,68.1 422,68 421.8,68 421.8,67.9 
	421.6,67.9 421.6,68 421.3,68 421.3,67.9 419.7,67.9 419.7,68 419.4,68 419.4,68.1 419.3,68.1 419.3,68.2 418.7,68.2 418.7,68.1 
	418.7,68.1 418.7,68.2 418.1,68.2 418.1,68.1 417,68.1 417,68 416.5,68 416.5,67.9 415.8,67.9 415.8,67.8 415.6,67.8 415.6,67.9 
	415.2,67.9 415.2,68 415.1,68 415.1,67.9 415,67.9 415,67.8 414.6,67.8 414.6,67.9 414.6,67.9 414.6,68 414.3,68 414.3,67.9 
	414.2,67.9 414.2,67.8 414.1,67.8 414.1,67.9 414,67.9 414,68 413.5,68 413.5,67.9 412.1,67.9 412.1,67.8 411.9,67.8 411.3,67.8 
	411.3,67.9 411,67.9 411,67.8 410.8,67.8 410.8,67.9 410.5,67.9 410.5,67.8 410.3,67.8 410.3,67.7 409.8,67.7 409.8,67.6 409,67.6 
	409,67.5 408.6,67.5 408.6,67.4 408.4,67.4 408.4,67.3 408.3,67.3 408.3,67.2 407.8,67.2 407.8,67.1 407.6,67.1 407.6,67 407.4,67 
	407.4,66.9 407.1,66.9 407.1,66.8 407.1,66.8 406.6,66.8 406.6,66.7 406.5,66.7 406.5,66.6 406.4,66.6 406.4,66.5 405.8,66.5 
	405.8,66.4 405.5,66.4 405.5,66.3 405.3,66.3 405.3,66.4 405.2,66.4 405.2,66.5 404.9,66.5 404.9,66.6 404.8,66.6 404.8,66.5 
	404.5,66.5 404.5,66.4 404,66.4 404,66.5 403.8,66.5 403.8,66.4 403.6,66.4 403.6,66.3 403.2,66.3 403.2,66.4 402.9,66.4 
	402.9,66.3 402.8,66.3 402.8,66.4 402.6,66.4 402.6,66.5 402.5,66.5 402.5,66.6 401.7,66.6 401.7,66.7 401.5,66.7 401.5,66.6 
	401.4,66.6 401.4,66.5 401.3,66.5 401.3,66.4 400.9,66.4 400.9,66.5 400.3,66.5 400.3,66.5 400.3,66.6 399.5,66.6 399.5,66.5 
	399.5,66.5 399.4,66.5 399.4,66.4 399.1,66.4 399.1,66.3 398.8,66.3 398.8,66.2 398.8,66.2 398.8,66.3 398.7,66.3 398.7,66.4 
	398.2,66.4 398.2,66.3 398.2,66.3 398.2,66.2 398,66.2 398,66.1 397.9,66.1 397.9,66 397.7,66 397.7,65.8 397.5,65.8 397.5,65.9 
	397.4,65.9 397.4,66 397.3,66 397.3,66.1 395,66.1 395,66.2 394.9,66.2 394.7,66.2 394.7,66.1 394.7,66.1 394.4,66.1 394.4,66 
	394.1,66 394.1,65.9 393.8,65.9 393.8,65.8 393.7,65.8 393.7,65.7 393.6,65.7 393.6,65.4 393.7,65.4 393.7,65.3 393.8,65.3 
	393.8,64.9 393.8,64.9 393.8,65 393.6,65 393.6,65.2 393.5,65.2 393.5,65.3 393.4,65.3 393.4,65.5 393.3,65.5 393.3,65.6 
	393.1,65.6 393.1,65.5 391.7,65.5 391.7,65.4 391.5,65.4 391.4,65.4 391.4,65.3 391.4,65.3 391.3,65.3 390.8,65.3 390.8,65.2 
	390,65.2 390,65 389.7,65 389.7,65.2 389.4,65.2 389.4,65 389,65 389,65.2 388.9,65.2 388.9,65 388.5,65 388.5,65.2 388.4,65.2 
	388.4,65 387.8,65 387.8,64.9 386.5,64.9 386.5,65 386.4,65 386.4,64.9 384.9,64.9 384.9,64.8 384.6,64.8 384.6,64.7 384.1,64.7 
	384.1,64.8 384,64.8 384,64.7 384,64.7 384,64.6 383.9,64.6 383.9,64.5 383.8,64.5 383.8,64.4 383.7,64.4 383.7,64.3 383.6,64.3 
	383.6,64.2 383.4,64.2 383.4,64.1 383.3,64.1 383.3,64 383.1,64 383.1,63.9 383,63.9 383,64 382.9,64 382.9,64.1 382.4,64.1 
	382.4,64.2 381.8,64.2 381.8,64.1 381.6,64.1 381.6,64.2 381.4,64.2 381.4,64.1 381.2,64.1 381.2,63.9 381.1,63.9 381.1,63.8 
	380.8,63.8 380.8,63.7 380.7,63.7 380.7,63.6 380.6,63.6 380.6,63.8 380.5,63.8 380.5,63.9 380.2,63.9 380.2,63.8 380.1,63.8 
	380.1,63.7 380,63.7 380,63.6 379.9,63.6 379.9,63.4 379.9,63.4 379.9,63.2 379.6,63.2 379.6,63.3 379,63.3 379,63.1 378.9,63.1 
	378.9,63 378.9,63 378.9,62.9 377.9,62.9 377.9,62.4 377.8,62.4 377.8,62.3 377.7,62.3 377.7,62.2 377.3,62.2 377.3,62.1 377,62.1 
	377,62 376.7,62 376.7,62.1 376.4,62.1 376.4,61.8 376.3,61.8 376.3,61.7 376.1,61.7 376.1,61.8 376,61.8 376,61.7 375.8,61.7 
	375.8,61.6 375.6,61.6 375.6,61.7 375.4,61.7 375.4,61.6 375.1,61.6 375.1,61.7 375.1,61.7 375.1,61.9 375,61.9 375,61.7 
	374.9,61.7 374.9,61.6 374.8,61.6 374.8,61.5 374.6,61.5 374.6,61.6 373.8,61.6 373.8,61.5 373,61.5 373,61.4 372.8,61.4 
	372.8,61.3 372.4,61.3 372.4,61.2 372.3,61.2 372.3,61.1 372.2,61.1 372.2,61 372,61 372,60.9 371.5,60.9 371.5,60.8 371.4,60.8 
	371.4,60.7 371.4,60.6 371.3,60.6 371.3,60.5 370.9,60.5 370.9,60.4 370.7,60.4 370.7,60.6 369.8,60.6 369.8,60.5 369.7,60.5 
	369.7,60.4 369.6,60.4 369.6,60.3 369.5,60.3 369.5,60.2 369.4,60.2 369.4,60.1 369.3,60.1 369.3,60.2 369,60.2 369,60.3 
	368.8,60.3 368.8,60.5 368.1,60.5 368.1,60.3 367.4,60.3 367.4,60.2 367.1,60.2 367.1,60.1 366.9,60.1 366.9,60 366.8,60 
	366.8,59.9 366.7,59.9 366.7,59.8 366.6,59.8 366.6,59.7 366.5,59.7 366.5,59.6 366.3,59.6 366.3,59.5 366.2,59.5 366.2,59.4 
	366,59.4 366,59.3 365.8,59.3 365.8,59.4 365.6,59.4 365.6,59.5 365.1,59.5 365.1,59.4 365,59.4 365,59.3 365,59.3 365,59.2 
	364.5,59.2 364.5,59.3 364.4,59.3 364.4,59.4 364,59.4 364,59.3 363.7,59.3 363.7,59.4 363.4,59.4 363.4,59.5 363.3,59.5 
	363.3,59.6 363.1,59.6 363.1,59.5 363,59.5 363,59.4 362.9,59.4 362.9,59.3 362.9,59.3 362.8,59.3 362.7,59.3 362.7,59.3 
	362.7,59.2 362.5,59.2 362.5,59.1 362.2,59.1 361.8,59.1 361.8,59.3 361.7,59.3 361.7,59.4 361.5,59.4 361.5,59.3 361.2,59.3 
	361.2,59.2 360.9,59.2 360.9,59.3 360.6,59.3 360.6,59.2 360.5,59.2 360.5,59.3 360.4,59.3 360.4,59.4 360.2,59.4 360.2,59.5 
	360,59.5 360,59.4 359.9,59.4 359.9,59.2 359.8,59.2 359.8,59.1 359.7,59.1 359.7,59 359.6,59 359.6,59.1 359.4,59.1 359.4,59.2 
	359.3,59.2 359.3,59.1 358.7,59.1 358.7,59 358.4,59 358.4,59.1 358,59.1 358,59 357.7,59 357.7,58.9 356.9,58.9 356.9,58.8 
	356.8,58.8 356.8,58.7 356.2,58.7 356.2,58.6 355.8,58.6 355.8,58.7 355.7,58.7 355.7,58.8 355.5,58.8 355.5,58.7 355.5,58.7 
	355.5,58.6 355.1,58.6 355.1,58.4 354.9,58.4 354.9,58.3 354.9,58.3 354.9,58.4 354.6,58.4 354.6,58.3 354.2,58.3 354.2,58.4 
	354.1,58.4 354.1,58.5 353.6,58.5 353.6,58.4 353.4,58.4 353.4,58.3 353,58.3 353,58.2 352.9,58.2 352.9,58.3 352.7,58.3 
	352.7,58.4 352.6,58.4 352.6,58.5 352,58.5 352,58.4 351.7,58.4 351.7,58.3 351.6,58.3 351.6,58.2 351.7,58.2 351.7,58.1 
	351.1,58.1 351.1,58 351.1,58 351.1,57.5 351.5,57.5 351.5,57.4 351.6,57.4 351.6,57.2 351.6,57 351.5,57 351.5,56.9 351.3,56.9 
	351.3,57 351.1,57 351.1,57 351.1,57 351.1,56.9 350.9,56.9 350.9,56.8 350.8,56.8 350.8,56.7 350.3,56.7 350.3,56.8 350,56.8 
	350,56.7 349.8,56.7 349.8,56.6 349.6,56.6 349.6,56.5 349.5,56.5 349.5,56.4 349.5,56.4 349.5,56.4 349.5,56.3 349.4,56.3 
	349.2,56.3 349.2,56.4 349.1,56.4 349.1,56.5 348.9,56.5 348.9,56.6 348.8,56.6 348.8,56.7 348.6,56.7 348.6,56.8 348.5,56.8 
	348.5,56.9 348.3,56.9 348.3,57 348,57 348,57.1 347.6,57.1 347.6,57 347.5,57 347.5,56.9 347.3,56.9 347.3,56.8 347.2,56.8 
	347.2,56.7 347,56.7 347,56.6 346.7,56.6 346.7,56.5 346.5,56.5 346.5,56.4 346.4,56.4 346.4,56.3 346.2,56.3 346.2,56.2 
	346.1,56.2 346.1,56.1 345.8,56.1 345.8,56.2 345.7,56.2 345.7,56.3 345.4,56.3 345.4,56.4 345.2,56.4 345.2,56.5 344.3,56.5 
	344.3,56.6 344.2,56.6 344.2,56.7 343.9,56.7 343.9,56.8 343.7,56.8 343.7,56.9 343.5,56.9 343.5,57 343.2,57 343.2,57.1 
	343.2,57.1 343.2,57.4 343.1,57.4 343.1,57.5 342.6,57.5 342.6,57.6 342,57.6 342,57.5 341.8,57.5 341.8,57.4 341.7,57.4 
	341.7,57.3 341.6,57.3 341.6,57.1 341.2,57.1 341.2,57.3 341.1,57.3 341.1,57.5 340.7,57.5 340.7,57.4 340.2,57.4 340.2,57.5 
	340,57.5 340,57.6 339.7,57.6 339.7,57.7 339.4,57.7 339.4,57.8 339.3,57.8 339.3,57.7 339.4,57.7 339.4,57.5 339.4,57.5 
	339.4,57.3 339.2,57.3 339.2,57.4 339.1,57.4 339.1,57.6 338.6,57.6 338.6,57.5 338.4,57.5 338.4,57.6 337.9,57.6 337.9,57.5 
	337.8,57.5 337.8,57.4 337.6,57.4 337.6,57.3 337.5,57.3 337.5,57.1 337.4,57.1 337.4,57 337.3,57 337.3,56.9 337.2,56.9 
	337.2,56.8 337.2,56.8 337.2,56.7 336.7,56.7 336.7,56.6 336.6,56.6 336.6,56.4 336.5,56.4 336.5,56.2 336.4,56.2 336.4,56.1 
	336.3,56.1 336.3,55.9 336.3,55.9 336.3,55.6 335.9,55.6 335.9,55.5 335.6,55.5 335.6,55.4 335.3,55.4 335.3,55.3 335.3,55.3 
	335.3,55.4 335.2,55.4 335.2,55.7 334.8,55.7 334.8,55.8 334.4,55.8 334.4,55.7 334.4,55.7 334.4,55.8 334.3,55.8 334.3,55.9 
	334.1,55.9 334.1,56.1 334.1,56.1 334.1,56.3 333.7,56.3 333.7,56 333.7,56 333.7,55.8 333.6,55.8 333.6,55.6 333.5,55.6 
	333.5,55.2 333.3,55.2 333.3,55.1 333.1,55.1 333.1,55 332.9,55 332.9,55.1 332.6,55.1 332.6,55 332.5,55 332.5,54.9 332.3,54.9 
	332.3,54.8 332.2,54.8 332.2,54.7 331.9,54.7 331.9,54.6 331.5,54.6 331.5,54.8 331.5,54.8 331.5,54.9 331.1,54.9 331.1,54.8 
	330.9,54.8 330.9,54.7 330.2,54.7 330.2,54.8 330.1,54.8 330.1,54.9 329.6,54.9 329.6,54.7 329.6,54.7 329.6,54.6 329.4,54.6 
	329.4,54.5 329.3,54.5 329.3,54.4 329.3,54.4 329.3,54.3 329.2,54.3 329.2,54.1 328.4,54.1 328.4,54.2 328.3,54.2 328.3,54.3 
	328.2,54.3 328.2,54.4 327.9,54.4 327.9,54.2 327.7,54.2 327.7,54.1 327.6,54.1 327.6,54.3 327.5,54.3 327.5,54.5 327.4,54.5 
	327.4,54.6 327.4,54.6 327.4,54.7 327.2,54.7 327.2,54.8 326.9,54.8 326.9,54.7 326.7,54.7 326.7,54.8 326.6,54.8 326.6,54.9 
	326.3,54.9 326.3,54.8 326.2,54.8 326.2,54.7 325.6,54.7 325.6,54.6 325.5,54.6 325.5,54.7 325.2,54.7 325.2,54.8 324.9,54.8 
	324.9,54.9 324.2,54.9 324.2,54.8 323.8,54.8 323.8,54.7 323.6,54.7 323.6,54.5 323.6,54.5 323.6,54.3 323.7,54.3 323.7,54.1 
	323.8,54.1 323.8,53.9 323.6,53.9 323.6,53.8 323.5,53.8 323.5,53.8 323.5,53.7 323.1,53.7 323.1,53.6 323,53.6 323,53.5 
	322.7,53.5 322.7,53.7 322.6,53.7 322.6,53.8 322.6,54 323.3,54 323.3,54.1 323.4,54.1 323.4,54.2 323.3,54.2 323.3,54.4 
	323.3,54.4 323.3,54.5 323,54.5 323,54.4 323,54.4 323,54.3 322.7,54.3 322.7,54.2 322.6,54.2 322.6,54.1 322.4,54.1 322.4,54.2 
	322,54.2 322,54.1 321.8,54.1 321.8,54 321.7,54 321.7,53.9 321.5,53.9 321.3,53.9 321.3,53.8 321.2,53.8 321.2,53.7 321.1,53.7 
	321.1,53.6 320.9,53.6 320.9,53.7 320.8,53.7 320.8,53.8 320.1,53.8 320.1,53.9 319.8,53.9 319.8,53.8 319.8,53.8 319.8,53.7 
	319.5,53.7 319.5,53.6 318.9,53.6 318.9,53.5 318.9,53.5 318.9,53.4 318.5,53.4 318.5,53.5 318.3,53.5 318.3,53.6 318.2,53.6 
	318.2,53.8 318.1,53.8 318.1,53.9 317.9,53.9 317.9,53.8 317.9,53.8 317.9,53.6 317.8,53.6 317.8,53.5 317.7,53.5 317.7,53.4 
	317.6,53.4 317.6,53.3 317.4,53.3 317.4,53.4 317.3,53.4 317.3,53.5 317.2,53.5 317.2,53.6 317.1,53.6 317.1,53.8 316.9,53.8 
	316.9,53.9 316.7,53.9 316.7,54 316.4,54 316.4,54.1 316.1,54.1 316.1,53.9 315.1,53.9 315.1,54 315,54 315,54.1 314.8,54.1 
	314.8,54.2 314.7,54.2 314.7,54.3 314.5,54.3 314.5,54.2 314.2,54.2 314.2,54.3 314.1,54.3 314.1,54.4 314,54.4 314,54.5 
	313.6,54.5 313.6,54.6 313.5,54.6 313.5,54.7 313.5,54.7 313.5,54.8 313.2,54.8 313.2,54.9 312.9,54.9 312.9,54.8 312.7,54.8 
	312.7,54.9 312.4,54.9 312.4,54.8 312.3,54.8 312.3,54.9 312.2,54.9 312.2,55 312,55 312,55.2 311.9,55.2 311.9,55.4 311.7,55.4 
	311.7,55.5 311.6,55.5 311.6,55.6 311.4,55.6 311.4,55.7 311,55.7 311,55.9 310.9,55.9 310.9,56.1 310.7,56.1 310.7,56.2 
	310.7,56.2 310.7,56.3 310.6,56.3 310.6,56.4 310.5,56.4 310.5,56.5 310.4,56.5 310.4,56.7 310.3,56.7 310.3,56.8 310.2,56.8 
	310.2,56.9 309.9,56.9 309.9,56.8 309.3,56.8 309.3,56.9 309.2,56.9 309.2,57 309.1,57 309.1,57.3 309,57.3 309,57.4 308.3,57.4 
	308.3,57.3 308.2,57.3 308.2,57.1 308.1,57.1 308.1,57.3 308,57.3 308,57.5 307.9,57.5 307.9,57.6 307.4,57.6 307.4,57.7 
	307.1,57.7 307.1,57.8 306.6,57.8 306.6,57.9 306.2,57.9 306.2,58.1 306.1,58.1 306.1,58.4 306.2,58.4 306.2,58.5 305.9,58.5 
	305.9,58.6 305.8,58.6 305.8,58.7 305.6,58.7 305.6,58.8 305.2,58.8 305.2,59.1 305.1,59.1 304.9,59.1 304.9,59.2 304.7,59.2 
	304.7,59.3 304.7,59.3 304.7,59.4 304.5,59.4 304.5,59.5 304.3,59.5 304.3,59.6 303.8,59.6 303.8,59.7 303.4,59.7 303.4,59.8 
	303.3,59.8 303.3,59.9 303.1,59.9 303.1,60 303,60 303,60.1 302.5,60.1 302.5,60.2 302.3,60.2 302.3,60.3 302.1,60.3 302.1,60.4 
	302,60.4 302,60.5 301.8,60.5 301.8,60.6 301.2,60.6 301.2,60.7 301.2,60.8 301.1,60.8 301.1,60.9 301,60.9 301,61.2 300.9,61.2 
	300.9,61.4 300.9,61.4 300.9,61.5 300.8,61.5 300.8,61.6 300.7,61.6 300.7,61.7 300.6,61.7 300.6,61.8 300.5,61.8 300.5,61.9 
	300.4,61.9 300.4,62 300.3,62 300.3,62.2 300.2,62.2 300.2,62.3 299.9,62.3 299.9,62.4 299.8,62.4 299.8,62.5 299.7,62.5 
	299.7,62.6 299.6,62.6 299.6,62.7 299.6,62.7 299.6,62.8 299.5,62.8 299.5,62.9 299.4,62.9 299.4,63 299.3,63 299.3,63.1 299,63.1 
	299,63 298.8,63 298.8,63.1 298.7,63.1 298.7,63.2 298.6,63.2 298.6,63.6 298.4,63.6 298.4,63.7 298.3,63.7 298.3,63.6 298,63.6 
	298,63.7 298,63.7 298,63.9 297.9,63.9 297.9,64 297.8,64 297.8,64.1 297.7,64.1 297.7,64.2 297.6,64.2 297.6,64.1 297.4,64.1 
	297.4,64.2 297.3,64.2 297.3,64.3 297.1,64.3 297.1,64.4 297.1,64.4 297.1,64.5 296.5,64.5 296.5,64.6 296.4,64.6 296.4,64.7 
	296.3,64.7 296.3,64.8 295.9,64.8 295.9,64.9 295.5,64.9 295.5,65 294.9,65 294.9,64.9 294.8,64.9 294.8,65 294.6,65 294.5,65.2 
	294.4,65.2 294.4,65.3 294.3,65.3 294.3,65.2 294.2,65.2 294.2,65.3 294,65.3 294,65.4 293.9,65.4 293.9,65.5 293.7,65.5 
	293.7,65.6 293.5,65.6 293.5,65.7 293.3,65.7 293.3,65.8 293,65.8 293,65.9 292.9,65.9 292.9,66 292.2,66 292.2,66.1 291.8,66.1 
	291.8,66.2 291.7,66.2 291.7,66.3 291.6,66.3 291.6,66.2 291.4,66.2 291.4,66.1 290.5,66.1 290.5,66.2 290.4,66.2 290.4,66.3 
	290.4,66.3 290.4,66.4 290.2,66.4 290.2,66.5 290.1,66.5 290.1,66.7 290,66.7 290,66.8 289.8,66.8 289.8,66.9 289.8,66.9 289.8,67 
	289.6,67 289.6,67.1 289.5,67.1 289.5,67.2 289.3,67.2 289.3,67.3 289.1,67.3 289.1,67.4 288.9,67.4 288.9,67.5 288.6,67.5 
	288.6,67.6 288.4,67.6 288.4,67.7 288.3,67.7 288.3,67.6 288.1,67.6 288.1,67.7 287.9,67.7 287.9,67.8 287.9,67.8 287.9,67.9 
	287.8,67.9 287.8,68 287.2,68 287.2,67.9 285.7,67.9 285.7,68 285.4,68 285.4,68.1 285.4,68.1 285.4,68.3 285.3,68.3 285.3,68.5 
	285,68.5 285,68.4 284.8,68.4 284.8,68.3 284.3,68.3 284.3,68.4 283.5,68.4 283.5,68.2 283.5,68.2 283.5,68.1 283.4,68.1 283.4,68 
	283.2,68 283.2,68.1 283.1,68.1 283.1,68.2 282.9,68.2 282.9,68.6 282.6,68.6 282.6,68.7 282.4,68.7 282.4,68.8 282.3,68.8 
	282.3,68.9 282.2,68.9 282.2,69.1 281.9,69.1 281.9,69.2 281.9,69.2 281.9,69.3 281.8,69.3 281.8,69.8 281.7,69.8 281.7,69.9 
	281.3,69.9 281.3,70 281.2,70 281.2,70.1 281,70.1 281,70.2 280.8,70.2 280.8,70.3 280.6,70.3 280.6,70.2 280.4,70.2 280.4,70.1 
	280.3,70.1 280.3,70 280.3,70 280.3,69.9 280,69.9 280,70 279.9,70 279.9,70.1 279.8,70.1 279.8,70.2 279.7,70.2 279.7,70.4 
	279.7,70.4 279.7,70.5 279.4,70.5 279.4,70.6 279.3,70.6 279.3,70.7 279.2,70.7 279.2,70.8 279.1,70.8 279.1,70.9 279,70.9 279,71 
	278.7,71 278.7,71.1 278.7,71.1 278.7,71.2 278,71.2 278,71.1 277.9,71.1 277.9,71.2 277.8,71.2 277.8,71.1 277.7,71.1 277.7,71.2 
	277.6,71.2 277.6,71.3 277.5,71.3 277.5,71.4 277.5,71.4 277.5,71.6 277.4,71.6 277.4,71.5 277.3,71.5 277.3,71.6 277.2,71.6 
	277.2,71.7 277.2,71.7 277.2,71.9 277.1,71.9 277.1,72.2 276.9,72.2 276.9,72.4 277,72.4 277,72.5 276.8,72.5 276.8,72.4 
	276.5,72.4 276.5,72.5 276.2,72.5 276.2,72.7 276.1,72.7 276.1,72.8 275.9,72.8 275.9,72.7 275.5,72.7 275.5,72.8 275.4,72.8 
	275.4,72.9 275.3,72.9 275.3,73 274.9,73 274.9,73.2 274.8,73.2 274.8,73.3 274.5,73.3 274.5,73.2 274.4,73.2 274.4,73 274.3,73 
	274.3,72.9 274.2,72.9 274.2,72.8 274.1,72.8 274,72.8 274,72.9 273.9,72.9 273.9,73 273.8,73 273.8,73.2 273.8,73.2 273.7,73.2 
	273.7,73.2 273.7,73.3 273.7,73.3 273.7,73.3 273.7,73.3 273.7,73.4 273.6,73.4 273.6,73.6 273.5,73.6 273.5,73.7 273.4,73.7 
	273.4,73.8 273.3,73.8 273.3,73.9 273.2,73.9 273.2,74 273,74 272.8,74 272.8,74.1 272.7,74.1 272.7,74.2 272.6,74.2 272.6,74.4 
	272.6,74.5 272.5,74.5 272.5,74.5 272.5,74.5 272.5,74.6 272.5,74.6 272.4,74.6 272.4,74.7 272.3,74.7 272.2,74.7 272.2,74.8 
	272.1,74.8 272.1,75.2 272.1,75.5 272,75.5 272,75.7 271.8,75.7 271.8,75.8 271.6,75.8 271.6,75.9 271.2,75.9 271.2,76 271.1,76 
	271.1,76.3 271.2,76.3 271.2,76.4 271.3,76.4 271.3,76.8 271.2,76.8 271.2,76.9 271.2,76.9 271.2,77 270.7,77 270.7,77.1 
	270.4,77.1 270.4,77.2 270,77.2 270,77.3 269.8,77.3 269.8,77.4 269.1,77.4 269.1,77.5 269,77.5 269,77.6 268.8,77.6 268.8,77.7 
	268.6,77.7 268.6,77.6 268.5,77.6 268.5,77.5 268.3,77.5 268.3,77.4 268.2,77.4 268.2,77.3 268,77.3 268,77.4 267.9,77.4 
	267.9,77.7 267.8,77.7 267.8,77.8 267.7,77.8 267.7,77.9 267.5,77.9 267.5,77.8 267.4,77.8 267.4,77.7 267.3,77.7 267.3,77.8 
	267.1,77.8 267.1,77.9 267.1,77.9 267.1,78 266.9,78 266.9,78.1 266.8,78.1 266.8,78 266.7,78 266.7,77.9 266.7,77.9 266.7,77.8 
	266.6,77.8 266.6,77.7 266.1,77.7 266.1,77.8 266,77.8 266,77.6 265.8,77.6 265.8,77.7 265.6,77.7 265.6,77.8 265.2,77.8 265.2,78 
	265.1,78 265.1,78.1 264.8,78.1 264.8,78.3 264.8,78.3 264.8,78.4 264.7,78.4 264.7,78.5 264.6,78.5 264.6,78.6 264.5,78.6 
	264.5,78.7 264.4,78.7 264.4,78.8 264.3,78.8 264.3,78.9 264.2,78.9 264.2,79 264.1,79 264.1,79.1 264,79.1 264,79.5 263.9,79.5 
	263.9,79.6 263.6,79.6 263.6,79.5 263.5,79.5 263.5,79.2 263.4,79.2 263.4,79.1 263.2,79.1 263.2,79.2 263.1,79.2 263.1,79.4 
	262.9,79.4 262.9,79.3 262.8,79.3 262.8,79.2 262.7,79.2 262.7,79.1 262.4,79.1 262.4,79.2 262.3,79.2 262.3,79.3 262.3,79.3 
	262.3,79.4 262.2,79.4 262.2,79.3 262.1,79.3 262.1,79.2 262,79.2 262,79.1 261.8,79.1 261.8,79 261.6,79 261.6,79.1 261.3,79.1 
	261.3,79 261.2,79 261.2,78.9 261.1,78.9 260.9,78.9 260.9,79 260.9,79 260.6,79 260.4,79 260.4,78.9 260.1,78.9 260.1,79 259.8,79 
	259.8,79.1 259.4,79.1 259.4,79.2 259.3,79.2 259.3,79.1 259.2,79.1 259.2,79.2 258.9,79.2 258.9,79.3 258.4,79.3 258.4,79.4 
	258.2,79.4 258.2,79.5 257.8,79.5 257.8,79.6 257.4,79.6 257.4,79.7 256.9,79.7 256.9,79.8 256.5,79.8 256.5,79.9 256.2,79.9 
	256.2,80 256,80 256,80.1 255.7,80.1 255.7,80.2 255.4,80.2 255.4,80.3 254.9,80.3 254.9,80.4 254.8,80.4 254.8,80.5 254.6,80.5 
	254.6,80.6 254.3,80.6 254.3,80.7 254.1,80.7 254.1,80.8 254.1,80.8 254.1,81.1 254,81.1 254,81.2 253.9,81.2 253.9,81.2 
	253.9,81.3 253.8,81.3 253.8,81.4 253.8,81.4 253.8,81.5 253.4,81.5 252.8,81.5 252.8,81.4 252.5,81.4 252.5,81.5 252.2,81.5 
	252.2,81.7 251.7,81.7 251.7,81.8 251.5,81.8 251.5,81.6 251.4,81.6 251.4,81.5 251.3,81.5 251.3,81.6 251.2,81.6 251.2,81.7 
	250.9,81.7 250.9,81.8 250.6,81.8 250.6,81.9 250.3,81.9 250.3,82 250.1,82 250.1,82.1 249.8,82.1 249.8,82.2 249.7,82.2 
	249.7,82.3 249.5,82.3 249.5,82.4 249.3,82.4 249.3,82.5 249,82.5 249,82.6 249,82.6 249,82.7 248.8,82.7 248.8,82.8 248.7,82.8 
	248.7,82.7 248.4,82.7 248.4,82.8 248.3,82.8 248.3,82.9 248.2,82.9 248.2,83 248,83 248,82.9 247.8,82.9 247.8,83 247.7,83 
	247.7,83.1 247.1,83.1 247.1,83 247,83 247,82.9 246.9,82.9 246.9,83 246.8,83 246.8,83.1 246.4,83.1 246.4,83.2 246.1,83.2 
	246.1,83.3 245.8,83.3 245.8,83.4 245.5,83.4 245.5,83.5 245.2,83.5 245.2,83.6 244.9,83.6 244.9,83.7 244.4,83.7 244.4,83.6 
	244.3,83.6 244.3,83.7 244.2,83.7 244.2,83.8 244.1,83.8 244.1,83.9 244,83.9 244,84 244,84 244,84.1 243.7,84.1 243.7,84.2 
	243.7,84.2 243.7,84.1 243.6,84.1 243.6,84.2 243.4,84.2 243.4,84.3 243.3,84.3 243.3,84.5 243.2,84.5 243.2,84.6 242.7,84.6 
	242.7,84.7 242.4,84.7 242.4,84.8 240.3,84.8 240.3,84.9 239.9,84.9 239.9,85 239.6,85 239.6,85.1 239.2,85.1 239.2,85.2 
	238.8,85.2 238.8,85.3 238.5,85.3 238.5,85.1 238.2,85.1 238.2,85.3 238.1,85.3 238.1,85.6 238,85.6 238,85.7 237.9,85.7 
	237.9,85.8 237.7,85.8 237.7,85.9 237.5,85.9 237.5,85.8 237.4,85.8 237.4,85.6 237.3,85.6 237.3,85.5 236.8,85.5 236.8,85.6 
	236.7,85.6 236.7,85.7 236.6,85.7 236.6,86 236.5,86 236.5,86.1 236.1,86.1 236.1,86.2 235.8,86.2 235.8,86.3 235.7,86.3 
	235.7,86.4 235.6,86.4 235.6,86.5 235.5,86.5 235.5,86.6 235.3,86.6 235.3,86.7 234.9,86.7 234.9,86.6 234.7,86.6 234.7,86.7 
	234.2,86.7 234.2,86.8 234,86.8 234,86.9 233.9,86.9 233.9,87 233.6,87 233.6,87.1 233.5,87.1 233.5,87.2 233.3,87.2 233.3,87.3 
	233.2,87.3 233.2,87.2 232.9,87.2 232.9,87.1 232.8,87.1 232.8,87.2 232.5,87.2 232.4,87.2 232.4,87.3 232.3,87.3 232.3,87.5 
	232.3,87.6 232.3,87.6 232.3,87.8 232.3,87.8 232.3,88.1 232.3,88.1 232.3,88.3 232.3,88.3 232.3,89 232.4,89 232.4,89.1 
	232.5,89.1 232.5,89.2 232.4,89.2 232.4,89.3 232.3,89.3 232.3,89.4 232.2,89.4 232.2,89.5 231.9,89.5 231.9,89.6 231.8,89.6 
	231.8,89.7 231.7,89.7 231.7,89.8 231.6,89.8 231.6,89.9 231.4,89.9 231.4,90 231.3,90 231.3,90.1 231.2,90.1 231.2,90.2 
	231.1,90.2 231.1,90.3 231,90.3 231,90.4 231,90.4 231,90.5 230.8,90.5 230.8,90.7 230.7,90.7 230.7,90.8 230.6,90.8 230.6,90.9 
	230.5,90.9 230.5,91 230.4,91 230.4,91.1 230.4,91.1 230.4,91 230.1,91 230.1,91.1 229.9,91.1 229.9,91.2 229.8,91.2 229.8,91.3 
	229.7,91.3 229.7,91.5 229.6,91.5 229.6,91.6 229.5,91.6 229.5,91.4 229.3,91.4 229.3,91.3 229.1,91.3 229.1,91.2 228.8,91.2 
	228.8,91.1 228.3,91.1 228.3,91.2 228.2,91.2 228.2,91.3 228.2,91.3 228.2,91.4 228.1,91.4 228.1,91.5 227.9,91.5 227.9,91.7 
	227.9,91.7 227.9,91.9 227.8,91.9 227.8,92.2 227.6,92.2 227.6,92.3 227.6,92.3 227.6,92.4 227.4,92.4 227.4,92.5 227.3,92.5 
	227.3,92.6 227,92.6 227,92.7 226.9,92.7 226.9,92.8 226.8,92.8 226.8,92.9 226.7,92.9 226.7,93 226.3,93 226.3,93.1 225.9,93.1 
	225.9,93.2 225.4,93.2 225.4,93.3 225,93.3 224.9,93.3 224.9,93.4 224.4,93.4 224.4,93.5 224.2,93.5 224.2,93.6 224,93.6 224,93.5 
	223.8,93.5 223.8,93.6 223.5,93.6 223.5,93.5 223.2,93.5 223.2,93.6 223.1,93.6 223.1,93.5 223,93.5 223,93.6 222.8,93.6 
	222.8,93.7 222.7,93.7 222.7,93.8 222.6,93.8 222.6,93.7 222.5,93.7 222.5,93.6 222.3,93.6 222.3,93.7 222,93.7 222,93.7 222,93.6 
	221.9,93.6 221.9,93.7 221.6,93.7 221.6,93.8 221.5,93.8 221.5,94 221.4,94 221.4,93.9 221.1,93.9 221.1,94 221,94 221,94.1 
	220.9,94.1 220.9,94.3 220.8,94.3 220.8,94.4 220.2,94.4 220.2,94.5 220,94.5 220,94.6 220,94.6 220,94.7 219.9,94.7 219.9,95 
	220,95 220,95.1 219.9,95.1 219.9,95.2 220,95.2 220,95.5 219.9,95.5 219.9,95.7 219.7,95.7 219.7,95.8 219.7,95.8 219.7,95.9 
	219.5,95.9 219.5,96 219.4,96 219.4,96.1 219.3,96.1 219.3,96.2 219.2,96.2 219.2,96.3 219.1,96.3 219.1,96.4 219,96.4 219,96.5 
	218.9,96.5 218.9,96.6 218.8,96.6 218.8,96.9 218.7,96.9 218.7,97.1 218.7,97.1 218.7,97.2 219,97.2 219,97.1 219.1,97.1 219.1,97 
	219.2,97 219.2,96.9 219.3,96.9 219.3,96.6 219.3,96.6 219.3,96.5 219.4,96.5 219.4,96.4 219.6,96.4 219.6,96.3 219.7,96.3 
	219.7,96.2 219.8,96.2 219.8,96.1 219.9,96.1 219.9,96.2 220,96.2 220,96.3 220.2,96.3 220.2,96.4 220.5,96.4 220.5,96.3 
	220.8,96.3 220.8,96.4 220.9,96.4 220.9,96.5 220.9,96.5 221,96.5 221,97.2 220.9,97.2 220.9,97.4 220.8,97.4 220.8,97.5 
	220.7,97.5 220.7,97.6 220.6,97.6 220.6,97.5 220.5,97.5 220.5,97.6 220.2,97.6 220.2,97.5 220,97.5 220,97.4 220,97.4 220,97.3 
	219.8,97.3 219.8,97.2 219.7,97.2 219.7,97.1 219.4,97.1 219.4,97.2 219.3,97.2 219.3,97.5 219.4,97.5 219.4,97.5 219.4,97.6 
	219.5,97.6 219.5,97.7 219.6,97.7 219.6,97.8 219.7,97.8 219.7,97.9 220,97.9 220,98.6 220,98.6 220,98.7 219.9,98.7 219.9,98.8 
	219.7,98.8 219.7,98.9 219.7,98.9 219.7,99 219.4,99 219.4,99.1 219.2,99.1 219.2,99.2 219.1,99.2 219.1,99.3 219,99.3 219,99.2 
	218.9,99.2 218.9,99.4 218.7,99.4 218.7,99.6 218.4,99.6 218.4,99.7 218.3,99.7 218.3,99.8 218.2,99.8 218.2,99.9 218.1,99.9 
	218.1,100 217.9,100 217.9,100.1 217.8,100.1 217.8,100.2 217.6,100.2 217.6,100.3 217.4,100.3 217.4,100.4 217.3,100.4 
	217.3,100.5 217.1,100.5 217.1,100.6 217,100.6 217,100.7 216.8,100.7 216.8,100.8 216.5,100.8 216.5,100.9 216.2,100.9 216.2,101 
	215.9,101 215.9,101.1 215.7,101.1 215.7,101.2 215.4,101.2 215.4,101.3 215.2,101.3 215.2,101.4 214.9,101.4 214.9,101.5 
	214.7,101.5 214.7,101.6 214.5,101.6 214.5,101.7 214.3,101.7 214.3,101.8 214,101.8 214,101.9 213.8,101.9 213.8,102 213.6,102 
	213.6,102.1 213.2,102.1 213.2,102.2 212.7,102.2 212.7,102.3 212.7,102.3 212.7,102.4 212.5,102.4 212.5,102.3 212.4,102.3 
	212.4,102.4 212.4,102.4 212.4,102.5 212,102.5 212,102.6 211.7,102.6 211.7,102.7 211.4,102.7 211.4,102.8 211.2,102.8 
	211.2,102.9 210.8,102.9 210.8,103 210.7,103 210.7,103.1 210.3,103.1 210.3,103.2 210.1,103.2 210.1,103.3 209.6,103.3 
	209.6,103.4 209.2,103.4 209.2,103.5 208.8,103.5 208.8,103.6 208.5,103.6 208.5,103.7 208.4,103.7 208.4,103.6 208.2,103.6 
	208.2,103.7 208,103.7 208,103.8 207.6,103.8 207.6,103.9 207.5,103.9 207.5,104 207.3,104 207.3,104.1 207.1,104.1 207.1,104.2 
	207,104.2 207,104.3 206.9,104.3 206.9,104.4 206.6,104.4 206.6,104.5 206.5,104.5 206.5,104.7 206.1,104.7 206.1,104.8 206,104.8 
	206,104.9 205.8,104.9 205.8,105 205.5,105 205.5,105.1 205.4,105.1 205.4,105.2 205.1,105.2 205.1,105.3 204.9,105.3 204.9,105.4 
	204.7,105.4 204.7,105.5 204.5,105.5 204.5,105.6 204.3,105.6 204.3,105.7 204.1,105.7 204.1,105.8 203.9,105.8 203.9,105.9 
	203.5,105.9 203.5,106 203.2,106 203.2,106.1 203,106.1 203,106.2 202.8,106.2 202.8,106.3 202.6,106.3 202.6,106.4 202.5,106.4 
	202.5,106.5 202.2,106.5 202.2,106.6 202,106.6 202,106.7 201.6,106.7 201.6,106.8 201.4,106.8 201.4,106.9 201.1,106.9 201.1,107 
	200.8,107 200.8,107.1 200.6,107.1 200.6,107.2 200.3,107.2 200.3,107.3 200,107.3 200,107.4 199.6,107.4 199.6,107.5 199.2,107.5 
	199.2,107.6 198.9,107.6 198.9,107.7 198.6,107.7 198.6,107.8 198.2,107.8 198.2,107.9 197.9,107.9 197.9,108 197.6,108 
	197.6,108.1 197.3,108.1 197.3,108.2 197.1,108.2 197.1,108.3 196.8,108.3 196.8,108.4 196.5,108.4 196.5,108.5 196.1,108.5 
	196.1,108.6 195.7,108.6 195.7,108.7 195.3,108.7 195.3,108.8 195,108.8 195,108.9 194.4,108.9 194.4,109 194.1,109 194.1,109.1 
	194,109.1 194,109.2 193,109.2 193,109.1 192.7,109.1 192.7,109 192.5,109 192.5,108.9 192.4,108.9 192.4,108.8 191.1,108.8 
	191.1,108.9 190.3,108.9 190.3,109 190.2,109 190.2,109.1 190,109.1 190,109.2 189.9,109.2 189.9,109.3 189.7,109.3 189.7,109.4 
	189.6,109.4 189.6,109.5 189.5,109.5 189.5,109.6 189.4,109.6 189.4,109.7 189.2,109.7 189.2,109.8 188.5,109.8 188.5,109.9 
	188.3,109.9 188.3,110 188,110 188,110.1 187.8,110.1 187.8,110.2 187.6,110.2 187.6,110.3 187.4,110.3 187.4,110.4 187.4,110.4 
	187.4,110.5 187.2,110.5 187.2,110.6 187.1,110.6 187.1,110.7 187.1,110.7 187.1,110.9 187,110.9 187,111 186.9,111 186.9,111.2 
	186.8,111.2 186.8,111.4 187.4,111.4 187.4,111.5 187.4,111.5 187.4,111.6 187.5,111.6 187.5,111.7 187.4,111.7 187.4,111.9 
	187.3,111.9 187.3,111.8 187.2,111.8 187.2,112 187.1,112 187.1,112.1 186.6,112.1 186.6,112.2 186,112.2 186,112.1 185.9,112.1 
	185.9,111.9 185.8,111.9 185.8,111.8 186.1,111.8 186.1,111.6 186.2,111.6 186.2,111.5 186.1,111.5 186.1,111.4 185.8,111.4 
	185.8,111.5 185.3,111.5 185.3,111.6 184.9,111.6 184.9,111.7 184.6,111.7 184.6,111.6 184.4,111.6 184.4,111.5 184.3,111.5 
	184.3,111.4 184.3,111.4 184.3,111.3 183.9,111.3 183.9,111.4 183.8,111.4 183.8,111.5 183.6,111.5 183.6,111.6 183.3,111.6 
	183.3,111.5 183,111.5 183,111.6 182.6,111.6 182.6,111.5 182.4,111.5 182.4,111.4 182.2,111.4 182.2,111.5 182.1,111.5 
	182.1,111.4 182,111.4 182,111.3 182,111.3 182,111.4 181.9,111.4 181.9,111.3 181.5,111.3 181.5,111.4 181,111.4 181,111.5 
	180.9,111.5 180.9,111.4 180.8,111.4 180.8,111.5 180.8,111.5 180.8,111.6 180.7,111.6 180.7,111.7 180.6,111.7 180.6,111.8 
	180.5,111.8 180.5,111.7 180.4,111.7 180.4,111.6 180.3,111.6 180.3,111.5 180.2,111.5 180.2,111.4 180.1,111.4 180.1,111.6 
	179.9,111.6 179.9,111.4 179.8,111.4 179.8,111.3 179.8,111.3 179.8,111.2 179.5,111.2 179.5,111.1 179.4,111.1 179.4,111 
	179.2,111 179.2,110.9 178.6,110.9 178.6,111 178.3,111 178.3,111.1 177.9,111.1 177.9,111.2 177.6,111.2 177.6,111.3 177.3,111.3 
	177.3,111.4 177,111.4 177,111.5 176.8,111.5 176.8,111.6 176.7,111.6 176.7,111.7 176.4,111.7 176.4,112.1 176.4,112.1 
	176.4,112.3 176.3,112.3 176.3,112.4 176.2,112.4 176.2,112.5 176,112.5 176,112.7 175.9,112.7 175.9,112.8 175.7,112.8 
	175.7,112.9 175.6,112.9 175.6,113 175.5,113 175.5,113.1 175.4,113.1 175.4,113.2 175,113.2 175,113.3 174.8,113.3 174.8,113.2 
	174.8,113.2 174.8,113.1 174.6,113.1 174.6,113 174.5,113 174.5,112.9 174.3,112.9 174.3,112.8 174.2,112.8 174.2,112.7 
	171.9,112.7 171.9,112.5 171.5,112.5 171.5,112.4 171.3,112.4 171.3,112.3 171,112.3 171,112.2 170.1,112.2 170.1,112.1 169,112.1 
	169,112 168.1,112 168.1,111.9 167.5,111.9 167.5,112 167.2,112 167.2,112.1 167,112.1 167,112 166.6,112 166.6,111.9 166.5,111.9 
	166.5,111.8 166.2,111.8 166.2,111.7 165.7,111.7 165.7,111.8 165.4,111.8 165.4,111.9 165.3,111.9 165.3,112 165.1,112 
	165.1,112.1 165,112.1 165,112.2 164.8,112.2 164.8,112.3 164.6,112.3 164.6,112.2 164.3,112.2 164.3,112.1 164,112.1 164,112 
	163.7,112 163.7,112.1 163.5,112.1 163.5,112.2 163.4,112.2 163.4,112.3 163.4,112.3 163.4,112.7 163.7,112.7 163.7,112.8 
	163.8,112.8 163.8,112.9 163.9,112.9 163.9,113 164,113 164,113 164,113.1 163.9,113.1 163.9,113.2 163.7,113.2 163.7,113.3 
	163.5,113.3 163.5,113.4 163.4,113.4 163.4,113.5 163.1,113.5 163.1,113.6 163,113.6 163,113.7 162.9,113.7 162.9,113.8 
	162.8,113.8 162.8,113.9 162.6,113.9 162.6,114 162.5,114 162.5,114.1 162.3,114.1 162.3,114.2 162.2,114.2 162.2,114.3 
	162.1,114.3 162.1,114.4 162,114.4 162,114.6 161.9,114.6 161.9,114.8 161.7,114.8 161.7,114.9 161.6,114.9 161.6,115 161.5,115 
	161.5,115.1 161.5,115.1 161.5,115.2 161.3,115.2 161.3,115.3 161.2,115.3 161.2,115.4 161.1,115.4 161.1,115.5 161,115.5 
	161,115.6 161.2,115.6 161.2,115.7 161.1,115.7 161.1,115.9 160.8,115.9 160.8,115.8 160.7,115.8 160.7,115.7 160.6,115.7 
	160.6,115.6 160.2,115.6 160.2,115.5 159.9,115.5 159.9,115.4 159.5,115.4 159.5,115.5 159.2,115.5 159.2,115.6 159,115.6 
	159,115.4 158.6,115.4 158.6,115.6 158.7,115.6 158.7,115.8 158.7,115.8 158.7,116 158.7,116 158.7,116.1 158.5,116.1 158.5,116.2 
	158.2,116.2 158.2,116.3 157.8,116.3 157.8,116.4 157.1,116.4 157.1,116.3 156.8,116.3 156.8,116.2 156.9,116.2 156.9,116.1 
	156.8,116.1 156.8,116 156.7,116 156.7,115.9 156.5,115.9 156.5,115.8 156.1,115.8 156.1,115.9 155.3,115.9 155.3,116 155,116 
	155,115.9 154.9,115.9 154.9,116 154.5,116 154.5,115.9 154.2,115.9 154.2,115.8 153.9,115.8 153.9,115.7 153.6,115.7 153.6,115.6 
	153,115.6 153,115.7 152.8,115.7 152.8,115.8 152,115.8 152,115.9 151.9,115.9 151.9,116 151.7,116 151.7,116.1 151.6,116.1 
	151.6,116.2 151.5,116.2 151.5,116.3 151.4,116.3 151.4,116.4 151.4,116.4 151.4,116.5 151.3,116.5 151.3,116.6 151.1,116.6 
	151.1,116.7 150.9,116.7 150.9,116.8 150.9,116.8 150.8,116.8 150.8,116.9 150.5,116.9 150.5,117 150.4,117 150.4,117.1 
	149.4,117.1 149.4,117.1 149.4,117 149.2,117 149.2,117.1 149.1,117.1 149.1,117.2 149.1,117.2 149,117.2 148.8,117.2 148.8,117 
	148.9,117 148.9,116.9 148.9,116.9 148.9,116.4 148.5,116.4 148.5,116.3 148.1,116.3 148.1,116.4 147.9,116.4 147.9,116.3 
	147.9,116.3 147.9,116.2 147.6,116.2 147.6,116.1 147.5,116.1 147.5,116 147.3,116 147.3,116.1 147.3,116.1 147.3,116.2 147,116.2 
	147,116.3 146.8,116.3 146.8,116.5 146.7,116.5 146.7,116.6 146.6,116.6 146.6,117 146.1,117 146.1,117.5 146.2,117.5 146.2,117.9 
	146.2,118 146,118 146,118.1 145.9,118.1 145.9,118.5 145.8,118.5 145.8,118.8 145.6,118.8 145.6,118.9 145.4,118.9 145.4,119.1 
	145.3,119.1 145.3,119.4 145.2,119.4 145.2,119.6 145.1,119.6 145.1,119.7 145.1,119.7 145.1,119.8 144.6,119.8 144.6,119.9 
	144.1,119.9 143.9,119.9 143.9,119.8 143.5,119.8 143.5,119.7 143.4,119.7 143.4,119.6 143.3,119.6 143.3,119.5 142.9,119.5 
	142.9,119.6 142.8,119.6 142.8,119.7 141.9,119.7 141.9,119.6 141.8,119.6 141.1,119.6 141.1,119.7 140.9,119.7 140.9,119.8 
	140.8,119.8 140.8,119.9 140.7,119.9 140.7,119.8 140.7,119.8 140.7,119.9 140,119.9 140,120 139.2,120 139.2,120.1 138.7,120.1 
	138.7,120.2 138.5,120.2 138.5,120.3 138.4,120.3 138.4,120.4 138.3,120.4 138.3,120.6 138.2,120.6 138.2,120.7 138.1,120.7 
	138.1,120.8 137.9,120.8 137.9,120.9 137.8,120.9 137.8,121 137.8,121 137.8,121 137.8,121.1 137.7,121.1 137.7,121.2 138.6,121.1 
	143.8,129.5 145.7,133.9 148.3,138.8 149.4,141.5 150.2,143.2 153.4,148 155.4,150.8 156.8,152.8 159.6,158.4 160.3,160 160.5,161 
	160.6,162.9 160.5,164.8 160.2,166.1 161.5,171.2 163.2,175.8 165.9,180.7 167.8,183.9 168.6,185.6 169.1,187.5 169.8,191.4 
	170.4,193.3 172.8,198.3 174.2,201.9 177.7,208.2 178.7,209.6 180.1,210.6 185.3,213.8 189.6,215.7 194.4,218.4 197.9,219.9 
	204.6,223.4 208.1,224 209.9,224.6 210.6,225 212,226.1 214.1,228.7 215.3,231.6 217.5,235.7 219.4,240.1 222,245 223.5,248.6 
	226.1,253.5 227.6,257.1 230.2,262 231.7,265.6 233.1,268 237.2,273.5 234.6,278.4 232.2,282.4 230.2,286.8 229.2,288.5 
	227.9,290.1 225.2,293.2 221.4,296.7 219,298.5 215.7,300.2 214.1,301.1 212.7,302.3 211.5,303.7 210.6,305.3 209.1,308.8 
	206.9,312.8 205,317.3 202.8,321.4 201.4,324.9 201.9,330.9 202,342.6 202.3,347.1 203.1,350.4 203.8,352 205.1,354.2 208.3,355.1 
	209.9,355.7 214.7,358.4 218.2,360 220.5,361.6 222.6,363.5 228.1,369.1 232,373.5 233.7,375.8 234.4,377.3 235.6,380.2 
	236.6,381.8 238.3,384 244.1,390.5 246,393 251.5,393.1 262.4,393.3 265.5,393.6 267.4,394.2 268.2,394.5 272.2,396.7 275.7,398.2 
	280.3,401 283.8,402.6 286.3,404.4 290.2,407.7 291.8,408.9 293.5,409.9 296.9,411.5 300.8,413.7 304.3,415.3 306,416.4 309,419 
	313.2,423.6 314.5,425.2 315.6,426.8 317.7,431.2 318.7,432.7 320.6,434.6 322.2,435.6 324.7,436.8 328.6,438.9 330.4,439.6 
	332.4,439.9 336.4,440.2 340.5,440.1 343.6,439.8 347.8,439.1 347.7,437.6 348.3,436.6 348.9,436.1 352.6,434.5 354.9,432.7 
	355.7,432.3 360.8,430.3 363.2,428.6 364.1,428.2 366.1,427.7 368.4,427.4 374.4,427.4 375.3,425.1 376.3,423.8 381.3,420.4 
	382.8,419.5 386.4,418 391.2,415.5 393.1,415 397.8,414 399.5,413.3 403.6,411.4 407.3,410.4 410.1,409.8 411.9,409.1 415.8,407 
	419.3,405.5 424,402.7 427.5,401.1 430.3,399.3 433.9,397.9 435.7,397 437.3,395.9 440.2,393.5 443.8,392.4 447.7,390.4 
	449.4,389.9 451.3,389.9 452.3,390.1 453.2,390.5 454.9,391.5 456.5,392.9 458.5,395.2 459.6,397 460.3,399 460.6,401 460.6,404.1 
	460.3,406.1 459.5,408.9 455.2,412.1 450.8,416.3 444.3,422.9 442.4,425.2 441.3,426.8 440.9,427.8 440.3,429.7 440,431.8 
	439.9,433.8 439.9,439 440.1,441.1 440.5,443.1 440.8,444.1 441.8,445.9 443.6,448.3 447.9,452.7 450.2,454.8 451.8,455.9 
	453.6,456.9 456.2,458 460.9,460.7 464.4,462.2 469.1,464.9 475.1,467.2 478.1,468.1 483.2,471.8 485.6,473.2 487.4,473.8 
	493,475.2 497.1,477.1 498.8,477.8 505.5,479 508.2,479.7 516.8,477.8 518.5,477.2 522.6,475.2 524.4,474.6 528.2,473.8 530,473.3 
	534.8,470.7 538.3,469.2 543.1,466.7 544.9,466.2 548.7,465.3 550.5,464.8 552.2,463.9 557,460.8 568,456.2 573.1,453.1 
	574.4,451.9 574.9,451.1 575.5,449.2 575.7,447.2 575.8,445.1 575.8,441.8 575.5,438.5 575.2,436.3 574.7,434 570.8,430.8 
	565.4,425.9 563.9,424.7 560.9,422.8 560.2,422.2 559.2,420.8 556.6,416.3 555.9,414.6 555.7,412.7 556,410.8 556.6,409.1 
	558.3,405.9 559.9,402.3 562.6,397.5 564.5,393.1 566.7,389 568.2,385.4 570.9,380.6 572.4,376.9 574.9,372 576.5,367.3 578,364.3 
	579.5,363.3 580.9,362.1 582.7,360 583.6,358.4 585.3,355 586.3,353.4 589.9,348.9 590.9,347.4 593,343 594,341.3 595.9,339 
	600.1,334.4 602.1,332.1 603.7,329.6 605.3,326 606.3,324.3 608.8,321.1 612.4,317.3 614.6,315.3 616.3,314.2 617.2,313.7 
	619.1,313.2 621.1,313 624,313.2 626,313.6 628.5,314.6 629,309.8 629.2,304.8 629.3,282.3 629,278.7 628.6,276.3 627.9,274.2 
	626.6,271.2 625.9,269 625.5,266.7 625.2,264.4 625.1,258.3 625.2,238.6 625.6,228.1 628.1,227.5 629.8,226.9 633.8,224.7 
	636.4,223.5 638.1,222.6 639.7,221.4 641.2,220.1 647.9,213.7 649.4,212.5 652.3,210.6 653.5,209.3 657.1,203.2 659,198.8 
	660.7,195.6 661.4,193.9 661.9,191.9 662.2,189.9 662.3,186.7 "/>
</svg>
