<?xml version="1.0" encoding="utf-8"?>
<!-- Generator: Adobe Illustrator 24.2.3, SVG Export Plug-In . SVG Version: 6.00 Build 0)  -->
<svg version="1.1" id="Layer_1" xmlns="http://www.w3.org/2000/svg" xmlns:xlink="http://www.w3.org/1999/xlink" x="0px" y="0px"
	 viewBox="0 0 800 533" style="enable-background:new 0 0 800 533;" xml:space="preserve">
<style type="text/css">
	.st0{fill:#F2933D;stroke:#000000;stroke-width:0.4;stroke-miterlimit:9;}
</style>
<polygon class="st0" points="659.7,112.8 659.3,111.4 658.3,109.2 657,105.9 654.5,101.4 653.4,98.7 652.7,97.2 651.1,95.1 
	648.7,92.3 645.5,89.1 643.5,87.4 642.7,86.9 641.3,86.2 638.6,85.2 635.7,83.9 632.7,82.9 628.4,79.7 626.7,78.6 623.5,77.1 
	619.9,75.2 619,74.8 617,74.3 613.9,73.9 610.8,73.8 586.5,74 580.7,73.8 575.6,73.8 572.7,74.1 570.8,74.4 569,75 565.4,77.1 
	562.1,78.5 557.7,81.1 554.5,82.5 550,84.9 548.3,85.5 543.9,86.5 542.4,87.1 538.6,88.9 537.7,89.2 536,89.5 533.2,89.3 
	531.5,88.9 530,88.2 527.1,86.5 523.9,85.1 520.9,83.4 519.4,82.7 517.7,82.2 514.2,81.6 508.8,84.7 504.8,86.5 501.2,88.4 
	499.3,89.1 497.2,89.5 491.9,89.7 458.2,89.6 452.7,89.5 448,89.2 444.1,89.5 439.7,89.7 436.2,89.6 433.6,89.3 432,88.9 
	431.2,88.5 427.5,86.5 424.3,85 422.1,83.4 419.4,80.9 412.8,74.1 408.9,69.9 407.1,67.8 405.6,65.5 404.2,62.2 403.2,60.6 
	401.4,58.4 396.3,52.7 394.6,50.5 393.9,49 392.4,45.5 389.6,39.8 384.7,38.6 380.2,37.8 378.5,37.3 376.3,36 371.1,32 368.3,36.1 
	365.1,39.7 348.4,57 346.4,59 344.2,60.7 342.8,61.5 340.2,62.6 336.5,64.7 334.9,65.3 333.3,65.6 330.7,65.8 322.9,65.8 
	311.5,65.6 308.3,65.4 304.4,64.8 301.8,66.2 298.2,68.7 296,70.1 290.1,69.5 286.6,69.5 284.9,69.9 284.2,70.3 283.5,70.8 
	283,71.5 282.6,72.3 282.2,74 282,76.7 282.2,80.5 282.6,83.4 283.1,85.2 283.9,86.8 285.6,89.7 288,95 288.4,96.4 288.4,97.2 
	288.3,98 288,98.7 287,99.9 285.8,100.9 285.1,101.3 282,102.6 278.3,104.6 275,106 270.6,108.5 266.6,110.3 262.9,112.5 
	259.7,113.9 255.3,116.4 252,117.8 247.6,120.3 238.2,124.2 233,127.9 229.1,129.8 225.4,131.8 224.6,132.2 222.9,132.6 
	220.1,132.6 217.5,132.1 213.8,130.3 212.1,129.7 210.1,129.3 205.2,128.7 202.3,128 200.7,127.3 197.8,125.7 194.6,124.2 
	190.9,122.2 189.2,121.6 187.3,121.2 184.3,121 173.4,120.8 169.5,123.3 167.2,125.3 165.4,127.6 164.5,129.3 164.1,130.3 
	163.7,132.3 163.2,137.4 162.9,139.4 162.3,141.2 160.7,145.1 160.2,147 159.9,150.1 159.6,156.2 159.1,159.2 158.5,161 
	156.8,164.9 156.4,166.8 156,169.8 155.7,176 155.2,179 154.7,180.7 152.9,184.6 152.4,186.6 152.2,188.6 152,191.8 152,202.3 
	153.8,204.9 155.6,206.7 157,207.7 163.1,210.8 165.8,211.6 172.7,212.3 174.6,212.8 175.5,213.2 177.1,214.3 179.2,216.2 
	180.5,217.7 181.5,219.3 181.9,220.2 182.5,222.3 182.7,224.4 182.8,227.6 182.5,256.1 182.3,260.5 181.8,265.1 179.3,267.2 
	177.3,269.4 175.7,271.7 174.2,275 173.2,276.7 172,278.2 170.7,279.6 168.5,281.5 166.9,282.4 166,282.8 159.9,284.2 155.3,286.2 
	153.6,286.7 150.1,287.4 148.5,288 147.7,288.4 146.4,289.4 145.2,290.7 144.8,291.4 141.1,299.3 140.5,302.1 140.2,307 
	140.3,312.8 140.7,316.7 141.1,318.5 141.4,319.3 143.3,323.2 144.2,326.7 153.3,326.6 155.3,326.7 157.2,326.9 159.1,327.5 
	159.8,328 161.2,329 162.3,330.3 163.2,331.9 166.4,338.9 166.8,340.7 167.7,345.3 168.3,347 170.1,350.9 171.8,358.1 173.8,362.8 
	174.3,364.6 175,368.2 175.5,370 176.2,371.6 178.6,375.9 179.5,377.2 180.1,377.7 186.4,381.6 189.6,383 193.3,385 195.1,385.6 
	197.1,386 200.2,386.2 217.1,386 220.2,386.2 222.2,386.5 224.1,387.1 225.8,388.1 227.3,389.3 230.2,392.1 233.5,395.9 
	235.2,398.4 236.7,401.7 239.1,406.2 240.5,409.6 242.4,413.4 243.2,416.2 243.5,418.3 243.6,421.6 243.6,456.6 243.5,459.8 
	243.2,463 242.3,465.8 240.4,469.7 239,473 236.5,477.5 235.1,480.9 232.6,485.4 231.7,487.5 235.5,489.6 238.4,491.4 240.9,492.4 
	242.9,492.8 247.8,493.4 249.8,493.7 251.5,494.3 254.5,495.8 256.2,496.4 258.2,496.7 263.1,497.3 265.1,497.7 266.8,498.3 
	270.5,500.2 272.4,500.7 275.4,501 280.4,501 282.3,500.8 284.3,500.5 286,499.8 289,498.4 290.7,497.8 292.6,497.4 297.6,496.8 
	299.5,496.4 301.2,495.8 304.2,494.3 305.9,493.7 314.2,492.1 316,491.9 318.1,491 322.2,488.7 322.8,488.2 323.8,486.9 
	326.2,482.5 326.9,481 327.4,479.2 328.3,474.6 328.9,472.9 330.6,469 331.1,467.2 331.8,463.6 332.4,461.8 333.6,459.5 
	337.5,453.4 339.7,452.4 343.3,450.3 346.6,448.9 351,446.5 352.8,446 356.3,445.3 358,444.8 362.5,442.4 365.7,441 369.4,439 
	371.1,438.4 373.7,437.8 375.1,437.3 376.5,436.7 378.1,435.4 379.2,434.6 382.8,433.4 384.1,432.7 386,430.7 388.2,429 
	390.1,427.1 391.4,426.4 394.2,425.4 395.5,424.8 398.3,422.5 404.6,418.7 407.9,417.3 412.4,415.1 417.5,413.8 419.2,413.2 
	420.1,412.6 420.9,412 422.3,410.6 423.3,409 424.4,406.8 425.8,404.6 426.6,402.9 427.8,399.4 428.4,397.8 430.5,394 431.9,390.6 
	434.3,386.1 435.7,382.7 438.2,378.2 439.6,374.8 441.6,371 442.2,369.4 443.8,363.7 446,358.5 447.2,355 449.7,350.5 451,347.1 
	453.5,342.5 454.9,339.2 456.3,337 458.1,334.9 460,333.1 462.2,331.6 465.4,330.2 468.4,328.6 469.9,327.9 471.6,327.4 
	476.1,326.5 477.7,325.9 481.3,323.8 483.5,322.7 485.5,321.3 488,319.9 492.2,318.3 496.7,316 498.6,315.5 500.6,315.3 508.9,315 
	515.1,315.2 517.1,315.4 519.1,316 519.9,316.4 521.5,317.5 522.9,318.8 524.3,320.2 525.5,321.7 526.4,323.4 527.8,326.7 
	529.4,329.8 530,331.4 530.6,334.2 531.2,340.8 532,343.4 533.9,347.2 535.2,350.6 537.7,355.1 539.5,359.3 544.1,366.2 
	545.4,365.8 546.6,365.4 548.6,363.9 550.6,362.1 552.5,360.2 554.3,358.2 555.5,356.8 556.9,354.6 558.3,351.2 559.2,349.7 
	560.9,347.6 566.4,341.6 568,339.5 568.7,338.1 570.2,334.6 572.3,330.8 573.6,327.5 575,325.4 576.8,323.2 578.4,321.1 
	579.4,319.7 581.3,315.6 582.3,314.1 584.1,311.9 589.3,306.2 591,304 591.9,302.3 592.9,299.8 594.9,296 595.4,294.3 595.7,292.4 
	596.1,282.8 596.4,280.9 597.1,279.2 598.6,277 599.8,275.7 601,274.6 603.1,273.3 604.6,272.8 605.5,272.8 606.8,269.6 
	608.3,264.3 610.2,260.4 610.7,258.6 611.2,255.6 611.6,247.4 612.2,244.4 612.9,242.8 614.4,239.8 615.9,236.5 618.4,231.9 
	619.7,228.6 621.7,224.8 622.3,223.1 622.9,220.4 623.7,216.8 625.6,212.9 626.1,211.2 627.1,206.7 627.6,204.9 629.7,200.2 
	630.2,198.4 630.9,194.8 631.4,193 633.7,188.4 635.1,185.1 637.4,180.5 637.9,178.7 638.7,175 639.2,173.3 640.9,169.4 
	641.5,167.7 642.5,163.2 643,161.4 644.8,157.5 645.4,155.8 646.3,151.3 646.8,149.5 649.1,144.9 650.5,141.5 652.8,136.9 
	653.3,135.2 654.3,130.6 654.9,129 656.6,125.1 657.5,121.5 658.1,118.6 659.5,115.1 659.7,114.3 659.8,113.6 "/>
</svg>
