<?xml version="1.0" encoding="utf-8"?>
<!-- Generator: Adobe Illustrator 24.2.3, SVG Export Plug-In . SVG Version: 6.00 Build 0)  -->
<svg version="1.1" id="Layer_1" xmlns="http://www.w3.org/2000/svg" xmlns:xlink="http://www.w3.org/1999/xlink" x="0px" y="0px"
	 viewBox="0 0 800 533" style="enable-background:new 0 0 800 533;" xml:space="preserve">
<style type="text/css">
	.st0{fill:#F2933D;stroke:#000000;stroke-width:0.4;stroke-miterlimit:9;}
</style>
<polygon class="st0" points="550.9,133 550.5,132 550,131.1 547.9,128.7 546.1,127.2 544.3,125.9 540.3,124.1 538.5,123.1 
	536.9,121.7 535.6,120.1 534.5,118.2 532.8,114.3 530.2,109.7 529,106.6 527.9,104.6 526.6,102.6 522.9,98 521.7,96 521.2,94.9 
	520.5,92.7 520.2,90.4 519.7,84.7 519.3,82.4 518.6,80.3 516.9,76.5 516.2,74.4 515.8,71 515.4,61.8 515,59.7 514.6,58.7 
	514.1,57.8 513.4,57.1 511.9,56 507.7,53.4 505.8,52.5 503.6,52 496.9,51.1 493.7,50.4 486.9,47.9 482.9,46.8 481.1,46.1 
	479.5,45.1 479,44.4 477.9,42 467.9,42 463,41.6 459.6,40.8 454,38.3 451.7,37.7 448.1,37.3 440.8,36.8 437.3,36.2 435,35.4 
	430.6,33.4 428.1,32.7 424.3,32.3 416.5,32 412.3,32.3 409,32.9 406.9,33.5 404,34.6 397.3,42.8 395.4,45.4 394.3,47.2 392.5,51.2 
	390.6,54 388.3,56.7 382.8,62.8 381.3,64.6 380.1,66.5 378.4,70.6 375.4,76.2 373.7,80.3 370.7,85.9 369,90 366.5,94.7 365.8,96.8 
	364.6,102.3 364,104.5 361.8,109.3 361.1,111.3 360.7,113.6 360,120.6 359.6,122.8 358.8,124.9 357,128.6 356.3,130.7 356,132.9 
	356,136.4 356.6,138.6 356.9,139.6 359.4,144.2 361.1,148.3 364.2,153.8 365.9,158 368.3,162.7 369,164.7 369.7,168.1 369.7,181 
	369.4,184.7 368.8,187.2 368,189.1 364.7,195.8 363.6,197.5 362.2,199 360.7,200.2 358.1,201.4 351.4,205.6 346.5,207.7 342,210.3 
	337.2,212.6 335.6,213.8 334.2,215.4 333.1,217.1 332.3,219 328.4,220.7 323,222.3 317.6,225.3 313.6,227.1 311.8,228.2 
	310.1,229.7 307.6,232 293.2,247 289.5,251.3 288.2,253.1 287.4,254.5 285.7,259.1 284,264.6 281.9,269.2 281.1,271.5 280.5,275.2 
	280.1,282.8 279.7,286.5 279.1,288.8 276.7,294.6 276.1,297.1 275.6,301.1 275.5,307.9 275.7,313.4 276.2,319.6 275.4,328 
	274.8,331.5 274.1,333.5 272.4,337.4 271.6,339.5 270,350.7 269.3,352.9 267.2,357.7 266.7,360.1 266.3,363.8 265.9,371.4 
	265.3,375.1 264.6,377.2 262.5,382 261.4,386.4 260.6,389.9 259.8,391.7 258.7,393.6 254.5,398.6 252.7,401.3 249.3,408.7 
	249.1,409.6 249,410.6 249.2,411.5 249.5,412.4 249.9,413.3 251.1,414.9 253.3,417.2 261.1,425.1 265.7,429.9 273.4,430.1 
	277.2,430.5 279.7,431.2 284.1,433.3 286.3,434.1 291.5,435.4 293.4,438.9 295.2,444.2 297.5,448.7 298,450.8 298.1,451.9 298,453 
	297.4,455.1 295,459.6 293.2,463.6 291.2,467.2 290.4,469.1 290.1,471.3 290.4,473.5 291.1,475.5 293,479.1 294.3,482.1 
	295.4,484.1 301.3,491.9 302.3,493.8 303.4,496.7 304.4,498.5 305.6,499.9 306.4,500.4 307.3,500.8 308.2,501 309.2,500.9 
	310.1,500.6 311.7,499.6 313.8,497.4 315.1,495.7 316.3,493.9 318.5,488.9 319.7,486.9 321.8,484.1 327.4,478 329.5,475.3 
	330.7,473.4 332.5,469.4 333.7,467.6 335.1,466 336.7,464.6 341.1,461.4 341.6,457 342.2,454.8 344.7,449.1 346.7,442 347.6,440.5 
	349.2,438.5 349.9,436.8 351.6,430.6 353.7,425.9 354.5,423.8 356.2,416 358.9,408.7 362,407.3 363.9,406.1 365.7,404.6 
	370.8,399.7 383,386.7 385.6,384.4 387.5,383.1 388.5,382.6 389.6,382.2 391.8,381.7 396.4,381.5 406.9,381.7 410.4,381.8 
	413.7,382.2 419.6,372.5 420.3,370.4 421.4,364.8 422,362.7 426.6,353 427.8,351.3 430.1,349.2 431.9,348.2 434.7,346.8 
	436.3,345.6 438.5,343.3 439.6,341.5 443.6,332.8 444.3,329.4 445,322.4 445.4,320.1 446.1,318 448.2,313.3 449.3,308.9 
	449.7,306.7 450.3,304.5 452.6,299.7 453.3,297.7 454.4,292.1 455,289.9 457.6,284.2 458.2,282 459.4,276.5 459.7,275.4 
	460.8,273.3 463,270.6 465.4,267.9 477.3,255.9 479.9,253.5 481.7,252.1 486.1,249.5 487.6,248.1 489.6,246 492.3,244.6 
	496.7,241.9 500.7,240.2 502.5,239 504.1,237.7 506.4,235.4 507.8,233.7 510.3,230.6 510.6,215.6 510.5,210.3 510.2,206.3 
	509.5,202.6 507.5,198 506.7,195.7 505.7,190.3 505.7,180.4 505.9,178 506.2,175.7 506.8,173.5 507.3,172.4 509.3,169.4 
	514.3,164.1 521.3,157.3 524.1,155.2 529,152.7 530.9,151.5 533.5,149.2 539.5,143.6 542.2,141.4 544.1,140.3 546.9,139.1 
	548.6,138.1 549.9,136.8 550.4,136 550.8,135.1 551,134.1 "/>
</svg>
