<?xml version="1.0" encoding="utf-8"?>
<!-- Generator: Adobe Illustrator 24.2.3, SVG Export Plug-In . SVG Version: 6.00 Build 0)  -->
<svg version="1.1" id="Layer_1" xmlns="http://www.w3.org/2000/svg" xmlns:xlink="http://www.w3.org/1999/xlink" x="0px" y="0px"
	 viewBox="0 0 800 533" style="enable-background:new 0 0 800 533;" xml:space="preserve">
<style type="text/css">
	.st0{fill:#F2933D;stroke:#000000;stroke-width:0.4;stroke-miterlimit:9;}
</style>
<polygon class="st0" points="606,302.2 606,302.1 605.9,302.1 605.9,301.8 605.8,301.8 605.8,301.6 605.8,301.6 605.8,301.5 
	605.6,301.5 605.6,301.3 605.5,301.3 605.5,301.2 605.3,301.2 605.3,301.1 605.1,301.1 605.1,301 605,301 605,300.7 604.6,300.7 
	604.6,300.9 604.2,300.9 604.2,300.7 604.1,300.7 604.1,300.6 604,300.6 604,300.5 604,300.5 604,299.3 603.9,299.3 603.9,299.1 
	603.8,299.1 603.8,298.8 603.7,298.8 603.7,298.3 603.6,298.3 603.6,298 603.7,298 603.7,297.9 603.8,297.9 603.8,297.7 604,297.7 
	604,297.6 604.9,297.6 604.9,297.5 605,297.5 605,297.4 605.1,297.4 605.1,297 605,297 605,296.9 604.9,296.9 604.9,296.8 
	604.8,296.8 604.8,296.6 604.4,296.6 604.4,296.4 604.3,296.4 604.3,296.3 604.2,296.3 604.2,296.2 604.1,296.2 604.1,295.9 
	604,295.9 604,295.6 604,295.6 604,295.4 604,295.4 604,295.2 604.1,295.2 604.1,295 604.2,295 604.2,294.8 604.1,294.8 
	604.1,294.7 603.8,294.7 603.8,294.8 603.7,294.8 603.7,294.7 603.6,294.7 603.6,294.4 603.5,294.4 603.5,294.2 603.3,294.2 
	603.3,294.1 602.9,294.1 602.9,294.4 602.7,294.4 602.7,294.2 602.5,294.2 602.5,294 602.4,294 602.4,293.4 602.3,293.4 
	602.3,293.2 602.1,293.2 602.1,293 601.8,293 601.8,293.2 601.7,293.2 601.7,292.9 601.6,292.9 601.6,292.7 601.5,292.7 
	601.5,292.6 601.3,292.6 601.3,292.4 600.9,292.4 600.9,292.3 599.8,292.3 599.8,292.2 599.4,292.2 599.4,290.9 599.3,290.9 
	599.3,290.8 598.7,290.8 598.7,290.4 598.8,290.4 598.8,290.2 598.7,290.2 598.7,289.8 598.6,289.8 598.6,289.7 598.5,289.7 
	598.5,289.6 598.5,289.6 598.5,289.3 598.3,289.3 598.3,289.2 597.8,289.2 597.8,289.1 597.5,289.1 597.5,289.2 597.1,289.2 
	597.1,289.1 596.9,289.1 596.9,289 596.8,289 596.8,288.8 596.7,288.8 596.7,287.8 596.7,287.8 596.7,287.6 596.1,287.6 
	596.1,287.5 596,287.5 596,286.8 595.2,286.8 595.2,286.7 594.9,286.7 594.9,286.6 594.7,286.6 594.7,286.3 594.6,286.3 
	594.6,286.2 594.5,286.2 594.5,286.1 594.2,286.1 594.2,286 594,286 594,285.8 594,285.8 594,285.7 593.9,285.7 593.9,285.6 
	593.8,285.6 593.8,285 593.7,285 593.7,284.8 593.6,284.8 593.6,284.6 593.5,284.6 593.5,284.5 593.4,284.5 593.4,284.4 
	593.3,284.4 593.3,284.3 593.2,284.3 593.2,284 593.1,284 593.1,283.9 592.8,283.9 592.8,283.8 592.6,283.8 592.6,283.5 
	592.5,283.5 592.5,283.3 592.4,283.3 592.4,283.2 592.1,283.2 592.1,283.1 591.9,283.1 591.9,282.9 591.7,282.9 591.7,283.1 
	591.5,283.1 591.5,282.9 591.4,282.9 591.4,282.8 591.3,282.8 591.3,282.7 591.2,282.7 591.2,282.5 591.2,282.5 591.2,282.3 
	591.1,282.3 591.1,282.2 590.9,282.2 590.9,282.1 590.8,282.1 590.8,282 590.6,282 590.6,281.9 590.5,281.9 590.5,282 590.4,282 
	590.4,282.1 590.1,282.1 590.1,281.9 590,281.9 590,281.5 589.9,281.5 589.9,281.4 589.8,281.4 589.8,281.1 589.7,281.1 589.7,281 
	589.6,281 589.6,280.4 589.2,280.4 589.2,280.5 589,280.5 589,280.4 588.9,280.4 588.9,280.1 589,280.1 589,279.8 589.2,279.8 
	589.2,279.7 589.5,279.7 589.5,279.6 590,279.6 590,279.3 589.9,279.3 589.9,279.2 589.8,279.2 589.8,279 589.7,279 589.7,278.9 
	589.6,278.9 589.6,278.4 589.5,278.4 589.5,278.1 589.6,278.1 589.6,277.8 589.5,277.8 589.5,277.7 589.3,277.7 589.3,277.5 
	589.1,277.5 589.1,277.7 588.2,277.7 588.2,277.5 588,277.5 588,277.4 587.9,277.4 587.9,277.5 587.5,277.5 587.5,277.4 
	587.4,277.4 587.4,277.3 587.3,277.3 587.3,277.2 587.2,277.2 587.2,276.7 587.3,276.7 587.3,276.5 587.4,276.5 587.4,276.3 
	587.5,276.3 587.5,276.2 587.6,276.2 587.6,276.1 587.7,276.1 587.7,275.7 587.8,275.7 587.8,275.6 587.7,275.6 587.7,275.5 
	587.6,275.5 587.6,275.4 587.6,275.4 587.6,275.3 587.4,275.3 587.4,275.1 587.3,275.1 587.3,275 587.2,275 587.2,274.9 
	587.1,274.9 587.1,274.5 587,274.5 587,274.4 586.9,274.4 586.9,274.3 586.8,274.3 586.8,274.1 586.7,274.1 586.7,273.3 
	586.7,273.3 586.7,273 586.6,273 586.6,272.5 586.5,272.5 586.5,272.3 586.4,272.3 586.4,272.1 586.3,272.1 586.3,271.8 
	586.2,271.8 586.2,271.4 586.1,271.4 586.1,271.3 586.2,271.3 586.2,270.6 586.1,270.6 586.1,270.1 586,270.1 586,269.8 
	585.9,269.8 585.9,269.4 586,269.4 586,269.2 586.1,269.2 586.1,269.1 586.2,269.1 586.2,268.9 586.3,268.9 586.3,268.8 
	586.4,268.8 586.4,268.6 586.5,268.6 586.5,268.5 586.6,268.5 586.6,267.4 586.7,267.4 586.7,267.2 586.7,267.2 586.7,267 
	586.8,267 586.8,266.6 586.9,266.6 586.9,266.5 587.2,266.5 587.2,266.4 587.5,266.4 587.5,266.5 587.8,266.5 587.8,266.4 
	587.9,266.4 587.9,266.5 588.1,266.5 588.3,266.5 588.3,266.4 588.8,266.4 588.8,266.5 589,266.5 589,266.4 589.2,266.4 
	589.2,266.2 589.3,266.2 589.3,266 589.4,266 589.4,265.8 589.4,265.8 589.4,265.6 589.6,265.6 589.6,265.5 590,265.5 590,265.4 
	590.3,265.4 590.3,265.3 590.4,265.3 590.4,265.2 591.2,265.2 591.2,265 591.3,265 591.3,264.9 591.4,264.9 591.4,264.8 
	591.5,264.8 591.5,264.7 591.6,264.7 591.6,264.6 591.7,264.6 591.7,264.3 591.8,264.3 591.8,264.1 591.9,264.1 591.9,263.8 
	591.8,263.8 591.8,263.7 591.7,263.7 591.7,263.6 591.5,263.6 591.5,263.5 591.2,263.5 591.2,263.4 590.7,263.4 590.7,263.2 
	590.6,263.2 590.6,262.7 590.6,262.3 590.3,262.3 590.3,262.2 590.1,262.2 590.1,261.3 590.2,261.3 590.2,260.7 590,260.7 
	590,260.6 589.9,260.6 589.9,260.2 590,260.2 590,260.1 590.1,260.1 590.1,259.9 590,259.9 590,259.6 589.9,259.6 589.9,259.3 
	589.8,259.3 589.8,259.2 589.7,259.2 589.7,259 589.6,259 589.6,258.9 589.4,258.9 589.4,258.8 588.9,258.8 588.9,258.7 
	588.8,258.7 588.8,258.6 588.7,258.6 588.7,258.4 588.5,258.4 588.5,258.3 588,258.3 588,258.4 587.9,258.4 587.9,258.3 
	587.8,258.3 587.8,258.1 587.7,258.1 587.7,257.2 587.6,257.2 587.6,257.1 587.4,257.1 587.4,256.4 587.4,256.3 587.3,256.3 
	587.3,256 586.7,256 586.7,255.8 586.6,255.8 586.6,255.5 586.5,255.5 586.5,255.3 586.4,255.3 586.4,255.2 586.3,255.2 
	586.3,255.1 586,255.1 586,254.9 585.7,254.9 585.7,254.8 585.1,254.8 585.1,254.7 584.9,254.7 584.9,254.6 584.7,254.6 
	584.7,254.7 583.9,254.7 583.9,254.6 583.7,254.6 583.7,254.5 583.5,254.5 583.5,254.3 583.3,254.3 583.3,254.2 583.2,254.2 
	583.2,254.1 583.1,254.1 583.1,254 583,254 583,253.9 582.9,253.9 582.9,253.7 582.6,253.7 582.6,253.6 582.4,253.6 582.4,253.4 
	582.3,253.4 582.3,253.3 582.2,253.3 582.2,253.1 582.1,253.1 582.1,253 582.1,253 582.1,252.9 581.7,252.9 581.7,252.8 
	581.2,252.8 581.2,252.7 581.2,252.7 581.2,252.4 581.1,252.4 581.1,252.3 581,252.3 581,252.2 580.7,252.2 580.7,251.9 
	580.6,251.9 580.6,251.8 580.7,251.8 580.7,251.7 580.8,251.7 580.8,251.2 580.7,251.2 580.7,251.1 580.5,251.1 580.5,251 
	580.3,251 580.3,250.9 580.3,250.9 580.3,250.7 579.6,250.7 579.6,250.6 579.5,250.6 579.5,250.4 579.4,250.4 579.4,250.3 
	579.3,250.3 579.3,250.1 579.2,250.1 579.2,250 579.1,250 579.1,249.9 579,249.9 579,249.8 578.9,249.8 578.9,249.7 578.8,249.7 
	578.8,249.5 578.7,249.5 578.7,249.4 578.6,249.4 578.6,249.3 578.5,249.3 578.5,249.2 578.4,249.2 578.4,248.9 578.4,248.9 
	578.4,248.3 578.3,248.3 578.3,248.1 578.2,248.1 578.2,248 578.1,248 578.1,247.9 578,247.9 578,247.7 577.9,247.7 577.9,247.3 
	578,247.3 578,247 578.1,247 578.1,246.3 578,246.3 578,245.8 577.9,245.8 577.9,245.3 578,245.3 578,245.2 577.8,245.2 
	577.8,245.1 577.5,245.1 577.5,245 577.5,245 577.5,244.7 577.4,244.7 577.4,244.4 577.3,244.4 577.3,244.3 576.8,244.3 
	576.8,244.1 576.6,244.1 576.6,244 576.6,244 576.6,243.9 576.5,243.9 576.5,243.5 576.4,243.5 576.4,243.4 576.3,243.4 
	576.3,243.3 576.2,243.3 576.2,243.2 576,243.2 576,243 575.9,243 575.9,242.9 575.7,242.9 575.7,242.8 575.7,242.8 575.7,242.7 
	575.5,242.7 575.5,242.6 575.4,242.6 575.4,242.4 574.8,242.4 574.8,242.3 574.7,242.3 574.7,242.2 574.6,242.2 574.6,242.1 
	574.5,242.1 574.5,242 574.3,242 574.3,241.8 574.2,241.8 574.2,241.7 574,241.7 574,241.6 573.9,241.6 573.9,241.5 573.7,241.5 
	573.7,241.4 573.5,241.4 573.5,241.1 573.3,241.1 573.3,240.9 573.2,240.9 573.2,240.6 573.1,240.6 573.1,240.4 573,240.4 
	573,240.2 572.9,240.2 572.9,240 572.9,240 572.9,239.8 572.8,239.8 572.8,239.6 572.6,239.6 572.6,239.4 572.5,239.4 572.5,239.3 
	572.3,239.3 572.3,239 572.2,239 572.2,238.7 572.3,238.7 572.3,238.4 572.4,238.4 572.4,238.2 572.3,238.2 572.3,237.4 
	572.2,237.4 572.2,237.3 572.1,237.3 572.1,237.4 571.7,237.4 571.7,237.3 571.6,237.3 571.6,237.2 571.5,237.2 571.5,237 
	571.2,237 571.2,237.2 571,237.2 571,237 570.9,237 570.9,236.4 571.1,236.4 571.1,236 571,236 571,235.8 570.9,235.8 570.9,235.7 
	570.4,235.7 570.4,235.5 570.5,235.5 570.5,235.4 570.6,235.4 570.6,234.5 570.4,234.5 570.4,234.4 570.5,234.4 570.5,234 
	570.7,234 570.7,233.8 570.9,233.8 570.9,233.7 571.3,233.7 571.3,233.6 571.4,233.6 571.4,233.7 572,233.7 572,233.4 571.9,233.4 
	571.9,233.3 572,233.3 572,233.2 572.1,233.2 572.1,233.1 572,233.1 572,233 571.9,233 571.9,232.8 571.8,232.8 571.8,232.7 
	571.6,232.7 571.6,232.6 571.7,232.6 571.7,232.1 571.6,232.1 571.6,231.9 571.4,231.9 571.4,231.6 571.6,231.6 571.6,231.4 
	571.7,231.4 571.7,230.8 571.5,230.8 571.5,230.7 571.3,230.7 571.3,230.5 571.2,230.5 571.2,230.4 571.1,230.4 571.1,230.3 
	571,230.3 571,230.2 571.1,230.2 571.1,230.1 571.1,230.1 571.1,229.9 570.9,229.9 570.9,229.8 570.7,229.8 570.7,229.6 571,229.6 
	571,229.5 571.3,229.5 571.3,229.3 571.2,229.3 571.2,228.7 571.3,228.7 571.3,228.5 571.4,228.5 571.4,228.3 571.3,228.3 
	571.3,228 571.2,228 571.2,227.8 571.1,227.8 571.1,227.7 571.1,227.7 571.1,227.4 571,227.4 571,227.3 570.9,227.3 570.9,227.2 
	570.6,227.2 570.6,227.1 570.4,227.1 570.4,227.2 570,227.2 570,226.9 570.1,226.9 570.1,226.3 570,226.3 570,226.2 569.9,226.2 
	569.9,226.1 569.8,226.1 569.8,226 569.7,226 569.7,225.9 569.6,225.9 569.6,225.7 569.4,225.7 569.4,225.5 569.3,225.5 
	569.3,225.4 569.3,225.4 569.3,225.3 569.2,225.3 569.2,225.1 569.1,225.1 569.1,224.9 569,224.9 569,224.3 568.9,224.3 
	568.9,224.2 568.8,224.2 568.8,224.1 568.7,224.1 568.7,223.9 568.6,223.9 568.6,223.8 568.5,223.8 568.5,223.7 568.3,223.7 
	568.3,223.8 568.2,223.8 568.2,224.1 568,224.1 568,224.2 567.4,224.2 567.4,223.8 567.5,223.8 567.5,223.7 567.5,223.7 
	567.5,223.6 567.6,223.6 567.6,223.5 567.7,223.5 567.7,223.3 567.3,223.3 567.3,223.2 567.2,223.2 567.2,223.1 567.1,223.1 
	567.1,222.9 567,222.9 567,222.6 566.9,222.6 566.9,222.5 566.8,222.5 566.8,222.4 566.7,222.4 566.7,222.3 566.6,222.3 
	566.6,222.4 566.3,222.4 566.3,222.3 565.9,222.3 565.9,222.4 565.7,222.4 565.7,222.1 565.6,222.1 565.6,221.9 565.6,221.9 
	565.6,221.8 565.5,221.8 565.5,221.7 565.2,221.7 565.2,221.5 565,221.5 565,221.4 564.9,221.4 564.9,221.3 564.8,221.3 
	564.8,221.2 564.7,221.2 564.7,221.1 564.6,221.1 564.6,220.9 564.3,220.9 564.3,220.8 564.2,220.8 564.2,220.7 564.1,220.7 
	564.1,220.6 563.9,220.6 563.9,220.5 563.8,220.5 563.8,220.2 563.8,220.2 563.8,220.1 563.7,220.1 563.7,220 563.6,220 
	563.6,219.9 563.3,219.9 563.3,219.7 563.2,219.7 563.2,219.4 563.1,219.4 563.1,219.3 563,219.3 563,219.1 562.9,219.1 562.9,219 
	562.9,219 562.9,218.7 562.8,218.7 562.8,218.5 562.7,218.5 562.7,218.3 562.6,218.3 562.6,218.1 562.4,218.1 562.4,217.8 
	562.3,217.8 562.3,217.7 562.2,217.7 562.2,217.6 562.1,217.6 562.1,217.5 562,217.5 562,217.3 561.9,217.3 561.9,217.2 
	561.8,217.2 561.8,217 561.7,217 561.7,216.7 561.5,216.7 561.5,216.6 561.4,216.6 561.4,216.5 561.3,216.5 561.3,216.2 
	561.2,216.2 561.2,216.1 561.1,216.1 561.1,216 561.1,216 561.1,215.6 560.9,215.6 560.9,215.5 560.7,215.5 560.7,215.4 
	560.6,215.4 560.6,215.3 560.5,215.3 560.5,215 560.4,215 560.4,214.9 560.3,214.9 560.3,214.8 560.2,214.8 560.2,214.7 
	560.1,214.7 560.1,214.6 560,214.6 560,214.4 559.9,214.4 559.9,214.1 559.6,214.1 559.6,214 559.5,214 559.5,213.8 559.4,213.8 
	559.4,213.6 559.3,213.6 559.3,213.5 559.2,213.5 559.2,213.4 559.2,213.4 559.2,213.2 559,213.2 559,213 558.9,213 558.9,212.4 
	559,212.4 559,212.2 558.9,212.2 558.9,212 558.7,212 558.7,212.2 558.6,212.2 558.6,212 558.4,212 558.4,211.9 558.3,211.9 
	558.3,211.6 558.3,211.6 558.3,211.2 558.2,211.2 558.2,211 558.1,211 558.1,210.8 557.6,210.8 557.5,210.8 557.5,210.7 
	557.4,210.7 557.4,210.5 557.4,210.5 557.4,210.4 557.3,210.4 557.3,210.1 557.2,210.1 557.2,210 557.1,210 557.1,209.9 557,209.9 
	557,209.8 556.9,209.8 556.9,209.5 556.8,209.5 556.8,209.4 556.7,209.4 556.7,209.3 556.6,209.3 556.6,209.2 556.5,209.2 
	556.5,208.9 556.5,208.9 556.5,208.8 556.4,208.8 556.4,208.6 556.3,208.6 556.3,208.4 556.2,208.4 556.2,208.2 556.1,208.2 
	556.1,208 556,208 556,207.7 555.9,207.7 555.9,207.5 555.8,207.5 555.8,207.4 555.7,207.4 555.7,207.1 555.6,207.1 555.6,207 
	555.6,207 555.6,206.9 555.5,206.9 555.5,206.6 555.4,206.6 555.4,206.4 555.3,206.4 555.3,206 555.2,206 555.2,205.8 555.1,205.8 
	555.1,205.6 555,205.6 555,205.4 554.9,205.4 554.9,205.2 554.8,205.2 554.8,205 554.7,205 554.7,204.8 554.7,204.8 554.7,204.6 
	554.6,204.6 554.6,204.5 554.5,204.5 554.5,204.2 554.4,204.2 554.4,204 554.3,204 554.3,203.9 554.2,203.9 554.2,203.8 
	554.1,203.8 554.1,203.6 554,203.6 554,203.5 553.9,203.5 553.9,202.8 553.8,202.8 553.8,202.5 553.8,202.5 553.8,202.3 
	553.7,202.3 553.7,202.1 553.6,202.1 553.6,201.8 553.5,201.8 553.5,201.6 553.4,201.6 553.4,201.3 553.3,201.3 553.3,201.1 
	553.2,201.1 553.2,200.9 553.1,200.9 553.1,200.6 553,200.6 553,200.4 552.9,200.4 552.9,200.1 552.8,200.1 552.8,199.9 
	552.8,199.9 552.8,199.8 552.7,199.8 552.7,199.7 552.6,199.7 552.6,199.3 552.5,199.3 552.5,199.1 552.4,199.1 552.4,198.7 
	552.3,198.7 552.3,198.3 552.2,198.3 552.2,197.9 552.1,197.9 552.1,197.4 552,197.4 552,197 551.9,197 551.9,196.8 551.8,196.8 
	551.8,196.7 551.7,196.7 551.7,196.3 551.6,196.3 551.6,195.9 551.5,195.9 551.5,195.5 551.4,195.5 551.4,195.1 551.3,195.1 
	551.3,194.7 551.2,194.7 551.2,194.3 551.1,194.3 551.1,193.9 551,193.9 551,193.5 551,193.5 551,193.1 550.9,193.1 550.9,192.6 
	550.8,192.6 550.8,192.1 550.7,192.1 550.7,191.5 550.6,191.5 550.6,191 550.5,191 550.5,190.5 550.4,190.5 550.4,189.8 
	550.3,189.8 550.3,189 550.2,189 550.2,188.2 550.1,188.2 550.1,187.4 550.1,187.4 550.1,183.3 550.1,183.3 550.1,182.5 
	550.2,182.5 550.2,182.4 550.1,182.4 550.1,182 550.2,182 550.2,181.9 550.3,181.9 550.3,180.4 550.4,180.4 550.4,180.2 
	550.6,180.2 550.6,180.1 550.7,180.1 550.7,178.9 550.4,178.9 550.4,179 550.3,179 550.3,179.1 550.2,179.1 550.2,179.2 
	550.1,179.2 550.1,179.4 549.8,179.4 549.8,179.2 549.7,179.2 549.7,179.1 549.6,179.1 549.6,179 549.1,179 549.1,179.1 
	548.9,179.1 548.9,179.2 548.8,179.2 548.8,179.4 548.7,179.4 548.7,179.7 548.8,179.7 548.8,180 548.9,180 548.9,180.1 549,180.1 
	549,180.6 548.9,180.6 548.9,180.7 548.7,180.7 548.7,180.6 548.3,180.6 548.3,180.4 548.3,180.4 548.3,180.3 548,180.3 548,180 
	548.1,180 548.1,179.2 548.2,179.2 548.2,179 548.3,179 548.3,178.9 548.4,178.9 548.4,178.8 548.5,178.8 548.5,178.6 548.7,178.6 
	548.7,178.5 548.8,178.5 548.8,178.4 548.9,178.4 548.9,178.3 549,178.3 549,178.2 549.1,178.2 549.1,178 549.3,178 549.3,177.8 
	549.6,177.8 549.6,177.7 549.7,177.7 549.7,177.5 550.2,177.5 550.2,177.8 551,177.8 551,177.7 551,177.7 551,177.5 551.1,177.5 
	551.1,177.4 551.2,177.4 551.2,177.2 551.3,177.2 551.3,177.1 551.4,177.1 551.4,176.8 551.5,176.8 551.5,176.7 551.9,176.7 
	551.9,176.8 552.7,176.8 552.7,176.6 552.8,176.6 552.8,176.2 552.8,176.2 552.8,176 552.9,176 552.9,175.7 553,175.7 553,175.5 
	553.1,175.5 553.1,175.4 553.2,175.4 553.2,175.1 553.3,175.1 553.3,175 553.4,175 553.4,174.8 553.5,174.8 553.5,174.5 
	553.6,174.5 553.6,174.4 553.7,174.4 553.7,174.3 553.8,174.3 553.8,174.3 553.8,174.1 553.8,174.1 553.8,173.9 553.9,173.9 
	553.9,173.8 554,173.8 554,173.6 554.1,173.6 554.1,173.2 554.2,173.2 554.2,172.6 554.1,172.6 554.1,172.4 554.2,172.4 
	554.2,172.3 554.4,172.3 554.4,172.1 554.5,172.1 554.5,172 554.6,172 554.6,171.9 554.7,171.9 554.7,171.7 554.7,171.7 
	554.7,171.4 554.8,171.4 554.8,171.2 554.9,171.2 554.9,170.9 555,170.9 555,170.8 555.1,170.8 555.1,170.7 555.3,170.7 
	555.3,170.6 555.4,170.6 555.4,170.5 555.6,170.5 555.6,170.3 555.6,170.3 555.6,170.2 555.7,170.2 555.7,170.1 555.8,170.1 
	555.8,170 555.9,170 555.9,169.7 556,169.7 556,169.6 556.1,169.6 556.1,169.5 556.2,169.5 556.2,169.4 556.4,169.4 556.4,169.3 
	556.5,169.3 556.5,169.1 556.6,169.1 556.6,169 556.8,169 556.8,168.9 557.1,168.9 557.1,168.9 557.1,168.9 557.1,168.8 
	557.2,168.8 557.3,168.8 557.3,168.7 557.4,168.7 557.4,168.5 557.5,168.5 557.5,168.4 557.6,168.4 557.7,168.4 557.7,168.3 
	557.8,168.3 557.8,168.4 557.9,168.4 557.9,168.2 558,168.2 558,168.1 558.1,168.1 558.1,167.9 558.2,167.9 558.2,167.8 
	558.4,167.8 558.4,167.7 558.7,167.7 558.7,167.6 559.2,167.6 559.2,167.5 559.5,167.5 559.5,167.6 559.7,167.6 559.7,167.5 
	559.8,167.5 559.8,167.3 559.9,167.3 559.9,167.2 560,167.2 560,167.1 560.3,167.1 560.3,167 560.8,167 560.8,166.9 560.9,166.9 
	560.9,166.7 561,166.7 561,166.6 561.7,166.6 561.7,166.5 562,166.5 562,166.4 562.1,166.4 562.1,166.5 562.9,166.5 562.9,166.6 
	563.2,166.6 563.2,166.7 563.4,166.7 563.4,166.9 563.7,166.9 563.7,167 563.8,167 563.8,167.1 564.1,167.1 564.1,167.2 
	564.4,167.2 564.4,167.3 564.6,167.3 564.6,167.5 564.7,167.5 564.7,167.6 564.8,167.6 564.8,167.7 564.9,167.7 564.9,167.8 
	565,167.8 565,167.9 565.1,167.9 565.1,168.1 565.2,168.1 565.2,168.3 565.3,168.3 565.3,168.4 565.4,168.4 565.4,168.5 
	565.6,168.5 565.6,168.7 565.6,168.7 565.6,168.8 566,168.8 566,168.9 566.1,168.9 566.1,169 566.4,169 566.4,169.1 566.7,169.1 
	566.7,169 566.9,169 566.9,169.1 567,169.1 567,169.3 567.1,169.3 567.1,169.5 567.2,169.5 567.2,169.6 567.3,169.6 567.3,169.7 
	567.8,169.7 567.8,169.9 568,169.9 568,170 568.2,170 568.2,170.1 568.4,170.1 568.4,170.2 568.4,170.2 568.4,170.3 568.6,170.3 
	568.6,170.5 568.7,170.5 568.7,170.6 568.8,170.6 568.8,170.7 569.3,170.7 569.3,170.8 569.5,170.8 569.5,170.9 569.6,170.9 
	569.6,171.1 569.7,171.1 569.7,171.3 569.9,171.3 569.9,171.4 570.1,171.4 570.1,171.5 570.4,171.5 570.4,171.7 570.5,171.7 
	570.5,171.8 570.6,171.8 570.6,171.9 570.7,171.9 570.7,172 570.8,172 570.8,172.3 570.9,172.3 570.9,172.4 571.1,172.4 
	571.1,172.5 571.6,172.5 571.6,172.4 572.1,172.4 572.1,172.5 572.4,172.5 572.4,172.4 572.8,172.4 572.8,172.5 573,172.5 
	573,172.4 573.9,172.4 573.9,172.3 574.2,172.3 574.2,172.1 574.3,172.1 574.3,172 574.5,172 574.5,171.9 574.7,171.9 574.7,172 
	574.9,172 574.9,172.1 575.1,172.1 575.1,172.3 575.4,172.3 575.4,172.1 575.5,172.1 575.5,171.9 575.6,171.9 575.6,171.8 
	575.7,171.8 575.7,171.7 575.9,171.7 575.9,171.5 576.1,171.5 576.1,171.4 576.3,171.4 576.3,171.3 576.4,171.3 576.4,170.2 
	576.3,170.2 576.3,170 576.2,170 576.2,169.9 576.1,169.9 576.1,169.7 576,169.7 576,169 575.9,169 575.9,168.8 575.9,168.8 
	575.7,168.8 575.7,168.5 575.7,168.5 575.7,168.4 575.6,168.4 575.6,168.3 575.7,168.3 575.7,168.1 575.6,168.1 575.6,167.9 
	575.5,167.9 575.5,167.8 575.4,167.8 575.4,167.3 575.3,167.3 575.3,167.1 575.2,167.1 575.2,166.7 575.1,166.7 575.1,166.3 
	575,166.3 575,165.9 575.2,165.9 575.2,165.8 575.1,165.8 575.1,164.8 575,164.8 575,164.6 574.8,164.6 574.8,164.5 574.8,164.5 
	574.8,164.3 574.7,164.3 574.7,164.2 574.6,164.2 574.6,164 574.5,164 574.5,163.7 574.4,163.7 574.4,163.6 574.3,163.6 
	574.3,163.5 574.2,163.5 574.2,163.4 574,163.4 574,163.2 573.9,163.2 573.9,162.4 573.9,162.4 573.9,162.3 573.8,162.3 573.8,162 
	573.7,162 573.7,161.9 573.4,161.9 573.4,161.8 573.3,161.8 573.3,161.7 573.4,161.7 573.4,161.4 573.5,161.4 573.5,161.3 
	573.4,161.3 573.4,161.2 573.3,161.2 573.3,161.1 573.2,161.1 573.2,161.3 573,161.3 573,161.1 572.9,161.1 572.9,161 572.7,161 
	572.7,160.8 572.6,160.8 572.6,160.7 572.5,160.7 572.5,160.5 572.7,160.5 572.7,160.6 572.9,160.6 572.9,160.2 572.9,160.2 
	572.9,159.8 572.9,159.8 572.9,159.5 572.8,159.5 572.8,159.3 572.7,159.3 572.7,159 572.3,159 572.3,158.9 572.2,158.9 
	572.2,158.8 572.1,158.8 572.1,158.7 572,158.7 572,158.4 572,158.4 572,158.1 571.9,158.1 571.9,157.7 572,157.7 572,157.6 
	572.1,157.6 572.1,157.5 572.3,157.5 572.3,157.1 572.4,157.1 572.4,157 572.5,157 572.5,156.9 572.6,156.9 572.6,156.3 
	572.7,156.3 572.7,156.2 572.8,156.2 572.8,154.7 572.7,154.7 572.7,154.4 572.8,154.4 572.8,154 572.9,154 572.9,153.9 573,153.9 
	573,153.8 573.1,153.8 573.1,153.6 573,153.6 573,153 572.9,153 572.9,152.9 572.9,152.9 572.9,152.6 572.8,152.6 572.8,152.3 
	572.7,152.3 572.7,151.8 572.6,151.8 572.6,151.7 572.5,151.7 572.5,151.6 572.4,151.6 572.4,151.4 572.3,151.4 572.3,151.1 
	572.2,151.1 572.2,150.8 572.1,150.8 572.1,150.6 572,150.6 572,150.5 571.9,150.5 571.9,150.4 571.8,150.4 571.8,150.3 
	571.9,150.3 571.9,150 571.8,150 571.8,149.8 571.7,149.8 571.7,149.7 571.6,149.7 571.6,149.4 571.5,149.4 571.5,149.3 
	571.6,149.3 571.6,149.2 571.8,149.2 571.8,149.1 571.9,149.1 571.9,148.9 572,148.9 572,148.2 572,148.2 572,148 572.1,148 
	572.1,147.5 572.3,147.5 572.3,147.4 572.4,147.4 572.4,147.5 572.9,147.5 572.9,147.4 572.9,147.4 572.9,147 573,147 573,146.9 
	573.1,146.9 573.2,146.9 573.2,146.8 573.3,146.8 573.3,146.7 573.5,146.7 573.5,146.3 573.6,146.3 573.6,145.8 573.7,145.8 
	573.7,145.6 573.6,145.6 573.6,145.5 573.7,145.5 573.7,145.1 573.9,145.1 573.9,144.5 573.8,144.5 573.8,144.4 573.8,144.3 
	573.7,144.3 573.7,144.1 573.5,144.1 573.5,144 573.3,144 573.3,143.8 573.2,143.8 573.2,143.4 573.1,143.4 573.1,143.3 573,143.3 
	573,143.2 573.1,143.2 573.1,143.1 573.2,143.1 573.2,142.6 573.1,142.6 573.1,142.5 572.9,142.5 572.9,142.3 572.9,142.3 
	572.9,142.2 572.8,142.2 572.8,142.1 572.7,142.1 572.7,142 572.6,142 572.6,141.5 572.5,141.5 572.5,140.8 572.4,140.8 
	572.4,140.7 572,140.7 572,140.5 571.6,140.5 571.6,140.4 571.4,140.4 571.4,140.3 571.3,140.3 571.3,140.2 571.1,140.2 
	571.1,140.1 571.1,140.1 571.1,139.9 570.9,139.9 570.9,139.8 570.8,139.8 570.8,139.1 570.7,139.1 570.7,139 570.8,139 
	570.8,138.6 570.9,138.6 570.9,138.5 571,138.5 571,138.4 571.1,138.4 571.1,138.3 571.6,138.3 571.6,138.1 571.7,138.1 
	571.7,137.3 571.6,137.3 571.6,136.9 571.4,136.9 571.4,136.8 571.3,136.8 571.3,136.7 571.2,136.7 571.2,136.6 571.1,136.6 
	571.1,136.4 571.1,136.4 571.1,136.3 571,136.3 571,136.1 570.9,136.1 570.9,136 570.8,136 570.8,135.8 570.6,135.8 570.6,135.7 
	570.2,135.7 570.2,135.6 570.2,135.6 570.2,135.5 570.1,135.5 570.1,135.4 569.9,135.4 569.9,135.2 569.6,135.2 569.6,135.1 
	569.4,135.1 569.4,135 569.2,135 569.2,135.1 569,135.1 569,135.2 568.9,135.2 568.9,135.4 568.8,135.4 568.8,135.5 568.7,135.5 
	568.7,135.6 568.6,135.6 568.6,135.7 568.4,135.7 568.4,135.6 568.2,135.6 568.2,135.5 568.1,135.5 568.1,135.2 568.2,135.2 
	568.2,135.1 568.3,135.1 568.3,134.9 568.2,134.9 568.2,134.5 568.1,134.5 568.1,134.3 568,134.3 568,134.2 567.6,134.2 567.6,134 
	567.5,134 567.5,133.9 567.4,133.9 567.4,133.6 567.3,133.6 567.3,133.2 567.2,133.2 567.2,133.1 567.1,133.1 567.1,133 567,133 
	567,132.8 566.9,132.8 566.9,132.7 566.8,132.7 566.8,132.6 566.7,132.6 566.7,132.4 566.6,132.4 566.6,132.1 566.6,132.1 
	566.6,132 566.5,132 566.5,131.8 566.4,131.8 566.4,131.6 566.2,131.6 566.2,131.5 566.1,131.5 566.1,131.3 566.2,131.3 566.2,131 
	566.3,131 566.3,130.9 566.4,130.9 566.4,130.4 566.3,130.4 566.3,129.1 566.4,129.1 566.4,129 566.5,129 566.5,128.9 566.6,128.9 
	566.6,128.6 566.6,128.6 566.6,128.5 567.1,128.5 567.1,128.4 567.3,128.4 567.3,128.3 567.5,128.3 567.5,128.4 567.7,128.4 
	567.7,128.5 568,128.5 568,128.6 568.6,128.6 568.6,128.5 568.7,128.5 568.7,128.4 568.8,128.4 567.8,126.4 563.2,126.8 
	563.1,126.8 563.3,127.7 563.9,129 562.6,130 560,130.4 556.4,130.9 556,131 555.7,131 550.4,130.8 550.1,130.8 549.8,130.8 
	546.5,127.6 546.3,127.5 544.8,127.9 543.8,129.9 538.1,132.7 537.4,130.4 535.3,131.7 531.4,130.5 530.7,132.6 530.3,133.8 
	529,133.6 528.9,133.4 528.2,132.7 526,134.4 524.1,134.2 521.7,132.1 521.4,131.1 522.1,128.6 521.5,127.6 521.1,127.6 
	517.8,127.3 517.4,127.2 516.8,126.8 511.9,123.1 511,122.4 509.5,122.2 508.7,123 508.7,123.4 508.9,126.8 507.7,127.8 
	506.7,127.9 506.4,124.4 505.9,124.4 505,124.5 504.9,125 504.5,127.9 502.1,127.8 500.1,126.8 499.5,126.5 499.1,127 496.9,129.5 
	496.2,133.5 496.9,135.5 497.7,136.1 497.9,138.5 497.7,139.3 497.6,139.7 497.4,140.7 498.1,141.9 498.9,142.2 499.1,142 
	499.7,141.6 500.2,141.3 500.6,141 501.4,141.8 501.6,144.4 500.6,145.7 499.2,146.3 498,146.1 497.7,145.4 497.4,144.7 
	494.8,145.1 494.7,145.6 494.4,147.9 493.5,148.6 492.5,148.2 492.5,147.9 492.2,146 491,145 489.2,145.6 487.2,146.2 485.8,144.6 
	485.4,144.1 484.5,144.4 484.1,144.5 484,144.3 483.7,144 485.8,140.6 485.1,139.9 483,138.8 481.4,140 480.9,140.4 479.9,139.7 
	477.8,138.1 474.7,138 472.4,138 471.6,137 471.8,136.7 472.4,135.9 473.4,134.7 472.8,134 469.7,132.6 468.7,134 468.5,134.4 
	468.4,134.7 467.5,135 465.3,133.5 465.2,133.4 464.7,133.4 457.8,132.5 457.7,132.9 457.6,133.4 459,135.3 458.7,135.5 
	458.2,135.9 454.7,135.2 454.2,135.1 452.5,136 451.7,138.8 451.5,138.9 450.6,139.2 450,141.3 449,141.4 448.7,140.4 448.3,139.1 
	445.2,141.7 444.4,141.5 443.9,139.5 442.5,139.9 441.7,140.1 441.2,140.5 440.4,141 438.8,142.2 438.6,141.6 438.3,140.5 
	437.7,140.8 435.9,141.6 433.2,140.5 432.4,141 432.5,142 433.6,143 434.6,143.9 435.1,144.5 430.4,147.8 428.6,148.4 428.6,147.1 
	428.5,145.7 426.8,144.9 421.5,150.6 420.5,150.4 418.6,148.2 417.6,148.2 417.6,150.4 417.5,150.5 415.1,154.5 417.6,155.2 
	417.7,156.3 415.5,157.4 414,158.2 414,158.8 416.6,159.6 416.9,160.4 417.2,161.3 416.1,163.4 412,164.2 409,161 408.8,160.8 
	406.8,158.4 405.2,155.2 403.8,151.3 402.4,148.1 400.4,145 398.3,142.1 397.1,141 395.3,141.5 395,141.5 392,141.9 389.1,141.3 
	387.1,139.5 385.9,138.4 384.5,136 383.5,134.5 382.5,133.9 380,134.4 376.3,133.8 374.6,131.7 373.7,128.3 373.2,126.5 372,125.1 
	371.3,125.4 369.3,125.6 368,125 367.1,122.2 366.4,120.8 365.2,119.5 363.7,118.2 361.1,115 359.6,111.6 358.7,110 358.2,107.7 
	357.8,105.9 356.8,103.8 356.1,101.9 355.4,99.3 353.7,97.2 351.4,95.6 348.2,94.5 346,94.5 343.3,93.9 342.8,93.1 343.3,92.3 
	343,89.8 342.4,88.1 342,87 340,84.4 338,83.8 335.5,82.2 333.5,81.7 331.3,79.8 330,79 327.5,78.5 325.8,77.9 324.3,76.9 
	322.6,75.3 321.3,74.8 319.4,75.2 319.3,75.2 319,75.5 318.4,76 315.6,75.2 313.6,74.6 310.9,76.1 307.7,77 305.7,80.2 305,82 
	303.2,83.4 303.1,83.5 300.6,84.4 300.4,85.7 301,88.6 302.1,90.7 301.1,92.7 299.1,92.6 297.3,91.4 296,90.7 294.9,89.2 
	293.6,88.7 292.3,88.7 288.9,90.4 288.8,90.4 286.2,90.2 281.3,89.5 278.4,88.3 276,86.3 274.4,84.4 273.3,83.2 270.1,81.7 
	266.5,81.8 263.3,81.3 260.8,80.5 259.3,80.2 258.3,80 257.7,80.2 257.2,80.4 255.7,80.8 254.5,81.8 252.7,83.1 249.6,84.5 
	247.3,84.5 245.6,84.5 243.9,85.1 242.2,85.6 242,86.6 242.6,89.8 243,92.6 241.5,95.9 239.4,98.9 237.8,100.8 233.9,103.2 
	232.1,103.8 231.6,104 229.1,104.6 227.6,106.4 227.9,110.2 227.6,113.3 225.3,117.2 224.3,118.3 226,118.9 224.4,124.4 224,126.8 
	224,130.4 224.3,132.7 225.1,134.8 226.1,136.4 227.8,138 229.5,156.3 228.3,166.5 227.8,169.1 227,171.4 224.8,176.4 224,180.2 
	223.7,185.5 223.6,197.8 223.3,201.8 222.5,205.7 219.9,211.6 219.3,214.2 218.9,218.2 218.6,230.6 218.1,234.6 217.3,237 
	214.9,241.9 213.1,246.1 208.3,254.6 207,256.3 203.8,259.3 204.4,263.7 205.1,265.9 206.2,267.8 207.7,269.5 209.4,270.8 
	210.4,271.3 213.4,272.7 219.1,275.8 224.2,278 230.3,281.9 231.7,283.2 232.2,284 233.3,286.7 233.4,309 233.1,312.9 232.6,315.3 
	232.2,316.5 231.6,317.6 230.3,319.7 225.2,326.5 222.6,331.6 220.6,334.6 218.2,337.4 210.8,345.5 206.9,350.1 206,353.5 
	204.6,357.5 201.7,366.9 196.7,374.8 195.1,377.8 194.2,381.5 193.9,385.4 194,392 194.7,395.9 195.1,397.1 196.1,399.1 200.1,405 
	205.4,409.3 208.1,411.1 210.3,412 214.1,412.6 217.9,412.6 221.7,412 223.9,411.2 228.7,408.8 231,408.2 233.5,407.8 237.3,407.6 
	242.4,407.5 255.3,408.1 259.6,407.1 261.8,406.4 267.6,403.7 269.8,403.1 272.2,402.8 280.1,402.5 306.2,402.7 312.2,402.6 
	315.8,402.8 318.2,403.1 320.4,403.7 326.2,406.5 328.3,407.2 332.8,408.1 335,408.8 340.7,411.8 344.8,413.6 349.5,416.3 
	353.5,418.1 355.6,419.3 357.5,420.7 359.3,422.4 361,424.2 362.5,426.2 363.8,428.2 366.2,433.5 367.6,435.5 372.2,441.4 
	373.6,443.4 374.6,445.2 379.8,449.3 386.5,455.4 388.3,456.7 389.3,457.2 390.4,457.6 392.7,458.1 396.3,458.4 399.8,458.2 
	402.1,457.7 403.2,457.4 405.2,456.4 410.5,453.1 412.1,451.9 412.7,451.1 415.5,446.6 421,439.5 422.1,437.6 424.5,432.5 
	430.4,424.2 433.4,418.2 436.8,412.5 438.6,408.2 441.8,402.4 443.5,398.1 446.4,392.3 447.1,390 448,385.4 448.7,383.1 
	450.9,378.2 451.7,376.1 453,368 454.4,362.5 452,355.4 457,351.9 459,350.3 467.4,342.1 470.2,339.5 472.3,338.1 481,333.8 
	483.1,333.3 485.2,333.3 487.3,333.9 491,335.7 493,336.5 495.4,337 497.9,337.3 503,337.5 508.1,337.5 511.8,337.2 514.3,336.7 
	516.4,335.9 521.1,333.4 525.3,331.5 530.8,328.2 535,326.4 540.5,323.2 544.7,321.3 550.4,318.3 552.6,317.7 557,316.7 
	559.2,316.1 564,313.8 566.1,313 568.4,312.6 575.4,311.9 578.8,311.1 584.6,308.4 593.4,306.1 598.2,303.8 600.3,303.1 
	602.6,302.7 606.1,302.3 606.1,302.2 "/>
</svg>
