<?xml version="1.0" encoding="utf-8"?>
<!-- Generator: Adobe Illustrator 24.2.3, SVG Export Plug-In . SVG Version: 6.00 Build 0)  -->
<svg version="1.1" id="Layer_1" xmlns="http://www.w3.org/2000/svg" xmlns:xlink="http://www.w3.org/1999/xlink" x="0px" y="0px"
	 viewBox="0 0 800 533" style="enable-background:new 0 0 800 533;" xml:space="preserve">
<style type="text/css">
	.st0{fill:#F2933D;stroke:#000000;stroke-width:0.4;stroke-miterlimit:9;}
</style>
<polygon class="st0" points="593.1,244.2 592.7,243.3 592.2,242.5 591.5,241.8 590.7,241.2 589.8,240.7 588.9,240.5 587.2,240.4 
	585.4,240.9 584.5,241.3 582.7,242.6 581,244.2 573.1,252.9 569.8,256.2 567,258.3 566,258.8 564,259.5 562,259.8 559.9,259.9 
	556.8,259.8 554.7,259.4 553.2,259 551.6,258.3 549.9,257.2 547.5,255.5 547.4,239.4 547.6,235.6 547.9,233.1 548.9,229.7 
	551.3,225 553,220.9 555.9,215.2 557,210.7 558.1,206.3 560.3,201.5 561,199.4 561.7,196 562.4,188.5 559.6,187.9 554.7,186.2 
	552.6,185.4 550.8,184.2 544.1,178.7 542.4,177.6 538.6,175.6 537,174.4 535.7,172.9 535.2,172.1 534.6,170.3 534.4,169.2 
	528.9,166.2 527.1,164.9 524.6,162.8 522.3,160.4 521.1,158.6 520.2,156.6 519.9,155.5 519.9,153.3 520.5,151.2 523.1,146.7 
	524.9,142.7 526.9,139.1 527.7,137.2 528,135 527.9,133.8 527.7,132.7 527.2,131.6 526,129.5 524.4,127.6 521.9,124.9 519.1,122.3 
	517.2,120.7 515.2,119.3 510.2,116.8 508.2,115.6 505.5,113.2 503.1,110.6 501.2,107.6 499.4,103.4 496.5,97.7 494.5,92.6 
	490.9,86.5 489.6,84.9 487.9,83.9 482,82.2 476.4,79.5 473,78.8 468.1,78.4 458.2,78.4 452.2,78.8 448.8,79.6 444.1,81.9 441,82.9 
	436.5,83.4 429.4,83.4 426.9,81.3 425.2,80 423.3,79 420.3,77.6 418.6,76.4 412.8,71.5 411,70.2 409.1,69.2 406.1,67.9 400.7,64.7 
	397.7,63.3 395.8,62.3 394.1,61 389.2,56.8 387.4,55.6 386.4,55.1 384.3,54.4 377.2,53.3 374.7,56.5 373.3,58.1 371,60.4 
	369.3,61.8 367.6,63 363.6,64.8 359.1,67.4 356.4,68.8 354.3,71 352.8,72.3 348.3,75 346.5,76.4 343.9,78.8 331.9,90.9 329.5,93.6 
	327.4,96.4 326.3,98.5 325.9,99.5 324.7,105.1 324.1,107.3 321.5,113.1 320.9,115.3 319.8,120.9 319.1,123 316.8,127.8 316.2,130 
	315.7,132.2 314.7,136.6 312.5,141.5 311.8,143.6 311.4,145.9 310.7,152.9 310,156.3 305.9,165 304.8,166.9 302.7,169.2 301,170.4 
	298.2,171.8 296.4,172.9 294.1,175 292.9,176.7 288.2,186.4 287.7,188.6 286.5,194.2 285.7,196.3 279.9,206.2 276.5,205.8 
	273,205.6 262.4,205.4 257.8,205.7 255.6,206.1 254.5,206.5 253.5,207 251.6,208.3 249,210.7 236.6,223.7 231.5,228.7 229.7,230.2 
	227.7,231.5 224.6,232.9 221.9,240.1 220.2,248.1 219.4,250.1 217.2,254.9 215.6,261.1 214.8,262.8 213.2,264.9 212.3,266.4 
	210.3,273.5 207.7,279.3 207.2,281.5 206.7,285.9 210.6,293.9 212.2,298.1 215.2,303.7 216.5,307.1 217.4,308.9 218.6,310.7 
	220.7,313.2 223.8,316.5 227.1,319.6 228.8,321 230.6,322.1 234.6,323.9 240,327 243.2,328.4 244.9,329.3 246.7,330.6 251.6,334.9 
	254.2,336.7 258.2,338.6 263.7,341.7 267.8,343.3 271.5,344.9 274.3,346 281.9,348.5 287.4,351.5 291.4,353.2 295.8,355.6 
	298.6,356.5 305.3,360.8 310.3,363.1 314.8,365.7 319.8,367.9 325.3,371 330.3,373.1 336.1,376.6 336.8,377.1 337.5,377.9 
	337.9,378.8 338.1,379.8 338.1,380.8 337.9,381.9 337.6,382.8 336.6,384.5 332.4,389.6 349.7,407.7 353.8,411.7 355.5,413.2 
	357.3,414.5 359.2,415.6 362.2,417 365,418.9 368.3,422 376.5,430.5 378.2,432.1 379.9,433.5 381.9,434.6 383,435 385.2,435.4 
	387.5,435.6 395.6,435.8 399,436.2 401.1,437 405.6,439.4 408.6,440.8 409.5,441.3 411.2,442.5 412.7,444.1 413.9,445.8 
	415.6,449.9 418.5,455.5 420.1,459.7 423.1,465.4 424.4,468.5 425.4,470.5 427.4,473.1 431.1,477.2 434,478.5 438.2,479.7 
	442.5,476.5 446.3,474.6 448.1,473.5 449.7,472.1 451,470.4 451.8,468.3 452.3,466.1 452.5,463.7 452.6,455.4 452.8,453.1 
	453.5,450.8 454.6,448.7 456.9,445.8 459.6,443.3 462.5,441.1 466.8,440.7 470.6,440.6 474.4,440.7 476.9,441 480.4,441.8 
	486,444.4 488.1,444.9 490.4,445.1 492.6,445 494.7,444.5 500.3,441.9 504.5,440.6 504.6,432.1 504.8,429.8 505.3,427.5 
	505.7,426.4 506.8,424.3 511.1,418.7 512.8,415.6 513.6,413.5 514.5,409 515.1,406.8 517.8,401.1 519.6,396.9 520.9,394.9 
	522.4,393.1 525.9,389.8 527.8,388.5 532.6,386 534.3,384.8 535.7,383.3 536.3,382.4 537.3,380.3 537.6,379.2 537.8,376.9 
	537.9,374.5 537.7,372.2 537.3,369.9 536.6,367.7 534.8,364.3 534.2,362.7 534.1,360.7 534.4,359.8 534.9,358.9 535.7,358.2 
	536.6,357.8 537.6,357.5 539.7,357.3 548,357.4 550.3,357.1 551.5,356.7 552.4,356.2 554.1,354.9 555.5,353.2 556,352.2 
	556.4,351.1 556.7,348.8 556.5,345.4 556.3,344.3 555.5,342.2 553.2,337.5 552.5,335.1 552.1,332.6 551.9,330.1 551.8,326.2 
	551.9,323.7 552.2,321.2 552.5,320 553.5,317.9 554.7,316.3 555.5,315.5 557.2,314.2 562,311.9 565.4,309.7 570.5,304.6 
	572.6,302.2 573.8,300.4 574.3,299.5 574.9,297.6 575,295.9 574.7,294.1 573.9,292.3 572.1,288.6 571.8,287.7 571.4,285.7 
	571.3,283.7 571.5,281.6 571.9,279.6 572.3,278.6 574.8,273.9 576.6,269.8 577.8,268 579.9,265.4 586.8,258 588.9,255.4 
	589.8,253.7 591.2,250.5 592.9,247.2 593.2,246.3 593.3,245.3 "/>
</svg>
