<?xml version="1.0" encoding="utf-8"?>
<!-- Generator: Adobe Illustrator 24.2.3, SVG Export Plug-In . SVG Version: 6.00 Build 0)  -->
<svg version="1.1" id="Layer_1" xmlns="http://www.w3.org/2000/svg" xmlns:xlink="http://www.w3.org/1999/xlink" x="0px" y="0px"
	 viewBox="0 0 800 533" style="enable-background:new 0 0 800 533;" xml:space="preserve">
<style type="text/css">
	.st0{fill:#F2933D;stroke:#000000;stroke-width:0.4;stroke-miterlimit:9;}
</style>
<g>
	<polygon class="st0" points="612.2,55.3 612.3,55.3 612.3,55.1 612.4,55.1 612.4,54.9 612.8,54.9 612.8,55.1 613.2,55.1 
		613.2,55.3 613.5,55.3 613.5,55.4 614,55.4 614,55.3 614.3,55.3 614.3,55.1 614.7,55.1 614.7,54.9 615,54.9 615,54.7 615.5,54.7 
		615.5,54.6 615.8,54.6 615.8,54.4 615.9,54.4 615.9,53.8 616.1,53.8 616.1,53.3 614.2,53.3 614.2,53.5 613.6,53.5 613.6,53.7 
		613.5,53.7 613.5,53.5 613.4,53.5 613.4,53.3 612.8,53.3 612.8,53.5 612.7,53.5 612.7,53.7 612.6,53.7 612.6,54.2 612.4,54.2 
		612.4,54.6 612,54.6 612,54.9 612.2,54.9 	"/>
	<polygon class="st0" points="628.9,173.3 632.4,166.1 633.5,162.9 634.4,157.7 635.3,148.7 636.4,143.5 637.7,140.5 640.6,134.7 
		643.3,128.4 646.4,123.9 648.9,121.1 651.6,118.6 655.9,115.4 661.8,112.5 664.6,110.9 667,108.8 668.1,107.6 669.8,104.7 
		670.4,103.1 671.2,99.6 671.3,94.2 670.8,88.7 668.5,79.9 666.9,78.2 666.7,78 666.5,78 666.5,77.8 666.1,77.8 666.1,77.6 
		665.7,77.6 665.7,77.4 665.4,77.4 665.4,77.3 665,77.3 665,77.1 664.6,77.1 664.6,76.9 664.2,76.9 664.2,76.7 663.8,76.7 
		663.8,76.5 663.5,76.5 663.5,76.4 663.1,76.4 663.1,76.2 662.7,76.2 662.7,76 662.3,76 662.3,75.8 662,75.8 662,75.6 661.6,75.6 
		661.6,75.5 661.2,75.5 661.2,75.3 660.8,75.3 660.8,75.1 660.4,75.1 660.4,74.9 660,74.9 660,74.7 659.6,74.7 659.6,74.6 
		659.4,74.6 659.4,74.4 659,74.4 659,74.2 658.5,74.2 658.5,74 658.1,74 658.1,73.9 657.9,73.9 657.9,73.7 658.1,73.7 658.1,73.1 
		658.3,73.1 658.3,73 658.4,73 658.4,72.8 658.3,72.8 658.3,72.6 657.7,72.6 657.7,72.4 657.5,72.4 657.5,71.9 657.3,71.9 
		657.3,71.4 657.5,71.4 657.5,71 657.6,71 657.6,70.8 657.7,70.8 657.7,70.6 657.9,70.6 657.9,70.1 657.7,70.1 657.7,69.7 
		657.6,69.7 657.6,69.6 657.5,69.6 657.5,69.4 657.2,69.4 657.2,69.2 656.8,69.2 656.8,69.4 656.5,69.4 656.5,69.6 656.3,69.6 
		656.3,69.7 656.1,69.7 656.1,69.6 656,69.6 656,69.4 655.9,69.4 655.9,69.2 655.7,69.2 655.7,69 655.3,69 655.3,68.8 654.7,68.8 
		654.7,69 654.5,69 654.5,69.2 654.4,69.2 654.4,69.4 654.3,69.4 654.3,69.6 654.1,69.6 654.1,69.4 653.9,69.4 653.9,69.2 
		653.6,69.2 653.6,69 653.3,69 653.3,68.8 652.9,68.8 652.9,68.7 652.7,68.7 652.7,68.5 652.4,68.5 652.4,68.3 652.1,68.3 
		652.1,68.1 651.6,68.1 651.6,68 651,68 651,67.8 650.6,67.8 650.6,67.6 650.1,67.6 650.1,67.4 649.8,67.4 649.8,67.2 649.7,67.2 
		649.7,67.1 649.4,67.1 649.4,66.9 649.3,66.9 649.3,66.7 649,66.7 649,66.5 648.9,66.5 648.9,66.3 648.8,66.3 648.8,66.2 
		648.6,66.2 648.6,66 648.5,66 648.5,65.8 648.4,65.8 648.4,65.6 648.2,65.6 648.2,65.5 648.1,65.5 648.1,65.3 648,65.3 648,65.1 
		647.7,65.1 647.7,64.9 648,64.9 648,64.7 648.1,64.7 648.1,64.9 648.8,64.9 648.8,64.6 648.9,64.6 648.9,64.4 648.8,64.4 
		648.8,64.2 648.5,64.2 648.5,64 647.2,64 647.2,63.8 647,63.8 647,63.7 646.2,63.7 646.2,63.5 645.7,63.5 645.7,63.7 645,63.7 
		645,63.8 644.9,63.8 644.9,64 644.7,64 644.7,64.2 644.5,64.2 644.5,64.4 644.3,64.4 644.3,64.7 644.2,64.7 644.2,64.9 644.1,64.9 
		644.1,65.1 643.9,65.1 643.9,65.3 643.7,65.3 643.7,65.5 643.5,65.5 643.5,65.6 643.4,65.6 643.4,65.8 643.3,65.8 643.3,66 643,66 
		643,66.2 642.7,66.2 642.7,66.3 642.6,66.3 642.6,66.5 642.3,66.5 642.3,66.7 642.1,66.7 642.1,65.6 641.1,65.6 641.1,65.5 
		641,65.5 641,65.3 639.1,65.3 639.1,65.1 639,65.1 639,64.9 638.8,64.9 638.8,64.7 638.7,64.7 638.7,64.6 638.4,64.6 638.4,64.4 
		638.3,64.4 638.3,64.2 638,64.2 638,64 636.6,64 636.6,63.8 636.3,63.8 636.3,64 636.2,64 636.2,64.2 636,64.2 636,64.4 
		635.9,64.4 635.9,64.6 635.4,64.6 635.4,64.4 635.1,64.4 635.1,64.2 634.7,64.2 634.7,64.4 634,64.4 634,64.2 633.7,64.2 
		633.7,63.8 633.6,63.8 633.6,63.5 632.1,63.5 632.1,63.3 630.7,63.3 630.7,63.1 630.1,63.1 630.1,63 629.5,63 629.5,62.8 
		628.9,62.8 628.9,62.6 628.4,62.6 628.4,62.4 627.7,62.4 627.7,62.2 627.6,62.2 627.2,62.2 627.2,62.1 626.4,62.1 626.4,61.9 
		625.7,61.9 625.7,61.7 624.9,61.7 624.9,61.5 624.4,61.5 624.4,61.3 623.7,61.3 623.7,61.2 623.2,61.2 623.2,61 622.9,61 
		622.9,60.8 622.6,60.8 622.6,60.6 622.5,60.6 622.5,60.3 622.4,60.3 622.4,59.9 622.2,59.9 622.2,59.4 622.1,59.4 622.1,59 622,59 
		622,58.7 621.8,58.7 621.8,58.3 621.7,58.3 621.7,58.1 621.4,58.1 621.4,57.9 621.3,57.9 621.3,57.8 621,57.8 621,57.6 620.7,57.6 
		620.7,57.4 620.6,57.4 620.6,57.2 620.3,57.2 620.3,56.9 620.5,56.9 620.5,56.3 619.4,56.3 619.4,56.5 619.3,56.5 619.3,56.7 
		619.2,56.7 619.1,56.7 619.1,56.8 619.1,57.1 619,57.1 619,57.6 618.9,57.6 618.9,58.1 618.7,58.1 618.7,58.5 618.6,58.5 
		618.6,58.7 618.3,58.7 618.3,58.8 618.2,58.8 618.2,58.7 618.1,58.7 618.1,58.7 618.1,58.8 618.1,58.8 618,58.8 617.7,58.8 
		617.7,59 617.5,59 617.5,59.4 616.9,59.4 616.9,59.6 616.7,59.6 616.7,59.7 616.6,59.7 616.6,59.9 616.2,59.9 616.2,59.7 
		615.8,59.7 615.8,59.6 615.7,59.6 615.7,59.7 615.5,59.7 615.5,60.1 615.7,60.1 615.7,60.6 615.8,60.6 615.8,60.8 615.7,60.8 
		615.7,61.5 615.5,61.5 615.5,61.7 615.4,61.7 615.4,62.6 615.3,62.6 615.3,63 615.1,63 615.1,64.2 615.1,64.2 615.3,64.2 
		615.3,64.9 615.1,64.9 615.1,65.1 615,65.1 615,65.3 614.8,65.3 614.8,65.5 614.7,65.5 614.7,65.6 614.6,65.6 614.6,65.8 
		614.4,65.8 614.4,66 614.3,66 614.3,66.5 614.2,66.5 614.2,66.7 614,66.7 614,66.9 613.9,66.9 613.9,67.1 613.5,67.1 613.5,67.2 
		613.1,67.2 613.1,67.4 612.8,67.4 612.8,67.6 612.7,67.6 612.7,68.7 612.8,68.7 612.8,68.8 612.7,68.8 612.7,69.2 612.4,69.2 
		612.4,69.4 612.6,69.4 612.6,69.7 612.4,69.7 612.4,70.1 612.3,70.1 612.3,70.3 612.2,70.3 612.2,70.5 611.9,70.5 611.9,70.6 
		611.8,70.6 611.8,70.8 611.6,70.8 611.6,71.2 611.5,71.2 611.5,71.4 611.4,71.4 611.4,71.7 611.2,71.7 611.2,71.9 611.1,71.9 
		611.1,72.1 610.8,72.1 610.8,72.2 610.6,72.2 610.6,72.4 610.3,72.4 610.3,72.6 609.9,72.6 609.9,72.4 609.8,72.4 609.8,73.3 
		609.5,73.3 609.5,73.5 609,73.5 609,73.7 608.4,73.7 608.4,73.9 608.3,73.9 608.3,74 608.1,74 608.1,74.2 607.9,74.2 607.9,74 
		607.3,74 607.3,74.2 607.2,74.2 607.2,74.4 606.8,74.4 606.8,74.2 606.7,74.2 606.7,74 606.4,74 606.4,73.9 605.6,73.9 605.6,73.7 
		605.5,73.7 605.5,73.5 605.3,73.5 605.3,73.3 605.1,73.3 605.1,73.5 604.8,73.5 604.8,73.3 604.7,73.3 604.7,73.1 604.1,73.1 
		604.1,73 603.7,73 603.7,72.8 603.1,72.8 603.1,72.6 602.9,72.6 602.9,72.4 602.8,72.4 602.8,72.2 602.5,72.2 602.5,72.1 
		602.2,72.1 602.2,71.9 602,71.9 602,71.9 602,71.7 602,71.7 601.7,71.7 601.7,71.9 601.6,71.9 601.6,72.1 600.9,72.1 600.9,72.2 
		600.4,72.2 600.4,72.1 599.7,72.1 599.7,72.2 599.4,72.2 599.4,72.6 599.3,72.6 599.3,72.8 598.4,72.8 598.4,73 598.2,73 
		598.2,72.8 597.3,72.8 597.3,73 597.2,73 597.2,73.1 597,73.1 597,73.3 596.8,73.3 596.8,73.5 596.6,73.5 596.6,73.9 596.8,73.9 
		596.8,74.2 596.9,74.2 596.9,74.4 597.8,74.4 597.8,74.2 598,74.2 598,74.4 598.2,74.4 598.2,74.6 598.5,74.6 598.5,74.7 
		598.6,74.7 598.6,74.9 599.7,74.9 599.7,75.8 599.7,76 599.8,76 599.8,76.2 600,76.2 600,76.4 600.1,76.4 600.1,76.9 600,76.9 
		600,77.6 600.1,77.6 600.1,78 600.5,78 600.5,78.1 600.9,78.1 600.9,78.3 601,78.3 601,79.6 600.9,79.6 600.9,79.8 600.6,79.8 
		600.6,79.9 600.4,79.9 600.4,80.1 600,80.1 600,80.3 599.7,80.3 599.7,80.5 598.8,80.5 598.8,80.3 598,80.3 598,80.2 598,80.1 
		597.9,80.1 597.8,80.1 597.8,80 597.8,79.9 597.8,79.9 597.7,79.9 597.7,79.8 597.8,79.8 597.8,79.4 598,79.4 598,78.9 598.1,78.9 
		598.1,78.7 598.2,78.7 598.2,78.3 598.4,78.3 598.4,78.1 598,78.1 598,78.3 597.8,78.3 597.8,78.5 597.6,78.5 597.6,78.7 
		597.3,78.7 597.3,78.5 597,78.5 596.2,78.5 596.2,78.7 595.9,78.7 595.9,78.9 595.8,78.9 595.8,79 595.7,79 595.7,79.2 595.4,79.2 
		595.4,79.4 595.3,79.4 595.3,79.6 595.1,79.6 595.1,79.9 595,79.9 595,80.1 594.9,80.1 594.9,81 595,81 595,81.7 594.9,81.7 
		594.9,82.1 594.7,82.1 594.7,82.4 594.9,82.4 594.9,82.6 595.3,82.6 595.3,82.8 595.9,82.8 595.9,83 596.2,83 596.2,83.7 
		596.4,83.7 596.4,83.9 596.6,83.9 596.6,83.7 597.2,83.7 597.2,83.5 597.4,83.5 597.4,83.7 597.6,83.7 597.6,83.9 597.7,83.9 
		597.7,84 597.7,84.6 597.6,84.6 597.6,84.8 597.3,84.8 597.3,85.6 597.2,85.6 597.2,86.2 598,86.2 598,86.4 598.1,86.4 598.1,86.7 
		598.2,86.7 598.2,86.9 598.4,86.9 598.4,87.1 598.6,87.1 598.6,87.3 598.9,87.3 598.9,88 598.6,88 598.6,88.2 598.4,88.2 
		598.4,88.3 598.2,88.3 598.2,88.5 598.1,88.5 598.1,88.9 597.8,88.9 597.8,89 597.7,89 597.7,89.2 597.2,89.2 597.2,89 597,89 
		597,89.2 596.8,89.2 596.8,89.6 596.6,89.6 596.6,89.8 596.5,89.8 596.5,90.1 595.9,90.1 595.9,90.5 595.8,90.5 595.8,90.7 
		595.5,90.7 595.5,90.8 595.4,90.8 595.4,91 595.1,91 595.1,91.2 595,91.2 595,91.4 594.3,91.4 594.3,91.5 593.7,91.5 593.7,91.4 
		593.5,91.4 593.5,90.3 593.4,90.3 593.4,89.9 593.3,89.9 593.3,89.8 592.6,89.8 592.6,89.9 592.5,89.9 592.5,90.1 592.1,90.1 
		592.1,90.1 592.1,89.9 591.3,89.9 591.3,89.8 591.1,89.8 591.1,89.6 591,89.6 591,89.4 590.9,89.4 590.9,88.2 590.3,88.2 
		590.3,88.3 590.2,88.3 590.2,88.5 589.8,88.5 589.8,88.3 589.6,88.3 589.6,88.2 589.5,88.2 589.5,88 589.4,88 589.4,87.8 589,87.8 
		589,88 588.7,88 588.7,87.8 588.2,87.8 588.2,87.6 587.9,87.6 587.9,87.8 587.6,87.8 587.6,88.3 587.8,88.3 587.8,88.5 587.9,88.5 
		587.9,88.7 588,88.7 588,88.9 588.2,88.9 588.2,89 588.3,89 588.3,89.2 588.4,89.2 588.4,89.8 588.3,89.8 588.3,89.9 588.2,89.9 
		588.2,89.8 587.8,89.8 587.8,89.6 587.5,89.6 587.5,89.4 587.4,89.4 587.4,89.2 587.2,89.2 587.2,89 587.4,89 587.4,88.3 
		587.2,88.3 587.2,88.2 587,88.2 587,88.3 586.8,88.3 586.8,88.5 586.7,88.5 586.7,88.7 586.4,88.7 586.4,88.9 585.9,88.9 585.9,89 
		585.8,89 585.8,89.2 585.6,89.2 585.6,89.4 585.5,89.4 585.5,89.6 585.4,89.6 585.4,89.4 585.2,89.4 585.2,89 585.2,89 585.1,89 
		585.1,88.9 585,88.9 585,88.7 584.8,88.7 584.8,88.9 584.6,88.9 584.6,89 584.4,89 584.4,89.2 584.2,89.2 584.2,89 584,89 
		584,88.9 583.6,88.9 583.6,89 583.2,89 583.2,89.2 582.8,89.2 582.8,89.4 582.4,89.4 582.4,89.2 582.1,89.2 582.1,89 581.5,89 
		581.5,89.2 581.3,89.2 581.3,89.4 581.2,89.4 581.2,89.6 581.1,89.6 581.1,89.8 580.9,89.8 580.9,89.9 580.8,89.9 580.8,90.1 
		580.7,90.1 580.7,90.7 580.5,90.7 580.5,91 580.7,91 580.7,91.5 580.8,91.5 580.8,91.7 581.2,91.7 581.2,91.9 582.4,91.9 
		582.4,91.7 582.8,91.7 582.8,91.9 582.9,91.9 582.9,92.1 583.1,92.1 583.1,92.3 583.2,92.3 583.2,92.4 583.3,92.4 583.3,93.2 
		583.2,93.2 583.2,93.3 583.1,93.3 583.1,93.9 583.2,93.9 583.2,94.2 583.3,94.2 583.3,94.4 583.5,94.4 583.5,95.1 583.3,95.1 
		583.3,95.3 583.2,95.3 583.2,95.5 583.1,95.5 583.1,95.7 582.9,95.7 582.9,95.8 582.7,95.8 582.7,96 582.1,96 582.1,96.2 
		581.9,96.2 581.9,96.4 581.7,96.4 581.7,96.6 581.9,96.6 581.9,97.5 581.9,98.5 581.5,98.5 581.5,98.7 581.2,98.7 581.2,98.9 
		580.9,98.9 580.9,99.1 580.8,99.1 580.8,99.2 580.7,99.2 580.7,99.4 580.5,99.4 580.5,99.6 579.2,99.6 579.2,99.4 579.1,99.4 
		579.1,98.9 579.2,98.9 579.2,98.7 579.2,98.3 579.3,98.3 579.3,97.6 579.2,97.6 579.2,97.4 579.1,97.4 579.1,97.3 578.4,97.3 
		578.4,97.4 578.3,97.4 578.3,97.6 578.1,97.6 578.1,97.8 578,97.8 578,98 577,98 577,97.8 576.5,97.8 576.5,97.6 576.4,97.6 
		576.4,97.4 576.2,97.4 576.2,97.3 576.1,97.3 576.1,96.4 576,96.4 576,96.2 575.8,96.2 575.8,95.8 575.7,95.8 575.7,95.7 
		575.6,95.7 575.6,95.1 575.4,95.1 575.4,94.8 575.4,94.6 575,94.6 575,94.8 574.2,94.8 574.2,94.9 574.1,94.9 574.1,95.3 
		574.2,95.3 574.2,95.8 574.2,95.8 574.4,95.8 574.4,96.2 574.5,96.2 574.5,96.6 574.6,96.6 574.6,96.7 574.8,96.7 574.8,96.9 
		574.9,96.9 574.9,97.1 575,97.1 575,98.3 574.9,98.3 574.9,98.5 574.5,98.5 574.5,98.7 573.8,98.7 573.8,98.9 573.6,98.9 
		573.6,99.1 573.4,99.1 573.4,99.4 573.3,99.4 573.3,99.8 573.2,99.8 573.2,99.9 573,99.9 573,99.8 572.5,99.8 572.5,99.6 
		571.8,99.6 571.8,99.8 571.7,99.8 571.7,100.1 571.6,100.1 571.6,100.3 571.1,100.3 571.1,100.5 570.9,100.5 570.9,100.7 
		570.7,100.7 570.7,100.8 570.5,100.8 570.5,100.7 570.3,100.7 570.3,100.5 570.2,100.5 570.2,100.3 570.1,100.3 570.1,100.1 
		569.8,100.1 569.8,99.9 569.7,99.9 569.7,100.1 569.3,100.1 569.3,100.3 568.9,100.3 568.9,100.5 568.6,100.5 568.6,100.7 
		568.5,100.7 568.5,100.8 568.3,100.8 568.3,101 568.1,101 568.1,101.2 567.8,101.2 567.8,101.4 567.4,101.4 567.4,101.6 
		567.1,101.6 567.1,101.7 567,101.7 567,102.1 566.9,102.1 566.9,102.3 566.7,102.3 566.7,102.5 566.5,102.5 566.5,102.6 
		566.2,102.6 566.2,102.5 566.1,102.5 566.1,102.1 565.7,102.1 565.7,101.9 565.5,101.9 565.5,102.1 565.3,102.1 565.3,102.8 
		565.1,102.8 565.1,103 564.7,103 564.7,103.2 564.4,103.2 564.4,103.3 564.3,103.3 564.3,103.5 564.2,103.5 564.2,103.7 564,103.7 
		564,103.9 563.8,103.9 563.8,104.1 563.5,104.1 563.5,104.2 563.2,104.2 563.2,104.4 562.8,104.4 562.8,104.6 562.3,104.6 
		562.3,104.8 562,104.8 562,104.6 561.9,104.6 561.9,104.4 561.6,104.4 561.6,104.2 561.5,104.2 561.5,104.1 561.2,104.1 
		561.2,104.2 559.4,104.2 559.4,104.1 559.2,104.1 559.2,103.9 559.1,103.9 559.1,103.5 559,103.5 559,103.3 558.7,103.3 
		558.7,103.2 558.4,103.2 558.4,103 558,103 558,102.8 557.7,102.8 557.7,102.6 557.6,102.6 557.6,102.3 557.5,102.3 557.5,102.1 
		557.3,102.1 557.3,101.9 557.2,101.9 557.2,101.7 556.9,101.7 556.9,101.6 556.8,101.6 556.8,101.7 556.3,101.7 556.3,101.6 
		556,101.6 556,101.7 555.3,101.7 555.3,101.9 554.9,101.9 554.9,102.1 554.4,102.1 554.4,101.9 553.7,101.9 553.7,101.7 
		553.2,101.7 553.2,101.6 552.7,101.6 552.7,101.7 552.2,101.7 552.2,101.9 552.1,101.9 552.1,102.1 551.7,102.1 551.7,101.9 
		550.6,101.9 550.6,101.7 550.2,101.7 550.2,101.6 549.7,101.6 549.7,101.4 549.4,101.4 549.4,101 548.9,101 548.9,101.2 
		548.8,101.2 548.8,101.4 548.6,101.4 548.6,101.6 548,101.6 548,101.7 547.3,101.7 547.3,101.6 547.2,101.6 547.2,101.4 
		546.8,101.4 546.8,101.6 546.1,101.6 546.1,101.4 545.7,101.4 545.7,101.2 545.4,101.2 545.4,101 545.1,101 545.1,101.2 
		544.3,101.2 544.3,101.4 544.2,101.4 544.2,101.6 544.1,101.6 544.1,101.7 543.3,101.7 543.3,101.9 543.1,101.9 543.1,102.1 
		543,102.1 543,102.3 542.6,102.3 542.6,102.1 541.7,102.1 541.7,102.3 541.5,102.3 541.5,102.5 541.4,102.5 541.4,102.6 
		541.3,102.6 541.3,103 541.1,103 541.1,103.3 541,103.3 541,103.5 540.9,103.5 540.9,103.7 540.2,103.7 540.2,103.5 540,103.5 
		540,103.7 539.8,103.7 539.8,103.9 539.6,103.9 539.6,104.1 539.5,104.1 539.5,105 539.1,105 539.1,104.8 539,104.8 539,105 
		538.7,105 538.7,104.8 538.3,104.8 538.3,104.6 537.9,104.6 537.9,104.8 537.8,104.8 537.8,105.1 537.9,105.1 537.9,105.3 
		538,105.3 538,105.5 538,105.8 538.2,105.8 538.2,106 538,106 538,106.6 537.5,106.6 537.5,106.7 537.1,106.7 537.1,106.6 
		536.8,106.6 536.8,106.2 536.7,106.2 536.7,106 536.6,106 536.6,105.7 536.4,105.7 536.4,105.5 536.3,105.5 536.3,105.5 
		536.3,105.1 536.4,105.1 536.4,105 536.6,105 536.6,104.1 536.4,104.1 536.4,103.7 536.6,103.7 536.6,103.5 536.7,103.5 536.7,103 
		536,103 536,103.2 535.9,103.2 535.9,103.3 535.8,103.3 535.8,103.7 535.6,103.7 535.6,103.9 535.5,103.9 535.5,104.1 535.4,104.1 
		535.4,104.2 535.1,104.2 535.1,104.1 535,104.1 535,104.2 534.8,104.2 534.8,104.4 534.6,104.4 534.6,104.6 534.3,104.6 
		534.3,104.8 534,104.8 534,104.6 533.7,104.6 533.7,104.4 533.3,104.4 533.3,104.2 533.2,104.2 533.2,103.9 533.1,103.9 
		533.1,103.7 532.4,103.7 532.4,103.5 532,103.5 532,103.7 531.7,103.7 531.7,104.1 531.6,104.1 531.6,104.2 531.2,104.2 
		531.2,103.9 531.1,103.9 531.1,103.5 530.9,103.5 530.9,103.3 530.3,103.3 530.3,103.5 530,103.5 530,103.7 529.9,103.7 
		529.9,103.5 529.7,103.5 529.7,103.3 529.5,103.3 529.5,103.2 527.9,103.2 527.9,103.3 527.6,103.3 527.6,103.5 527.4,103.5 
		527.4,103.7 527.2,103.7 527.2,103.9 526.9,103.9 526.9,104.4 526.5,104.4 526.5,104.2 526.4,104.2 526.4,104.1 526.2,104.1 
		526.2,103.9 526.1,103.9 526.1,103.7 525.6,103.7 525.6,104.6 525.7,104.6 525.7,105.1 525.6,105.1 525.6,105.5 525.7,105.5 
		525.7,106 525.8,106 525.8,106.6 525.6,106.6 525.6,106.7 525.4,106.7 525.4,106.6 525.2,106.6 525.2,106.4 525,106.4 525,106.2 
		524.6,106.2 524.6,106.4 524.5,106.4 524.5,106.6 524.4,106.6 524.4,106.7 524.5,106.7 524.5,106.9 524.4,106.9 524.4,107.1 
		524.1,107.1 524.1,107.3 523.7,107.3 523.7,107.1 523.3,107.1 523.3,106.9 522.9,106.9 522.9,106.6 522.8,106.6 522.8,106.4 
		521.8,106.4 521.8,106.6 521.6,106.6 521.6,106.7 521.4,106.7 521.4,106.6 520.5,106.6 520.5,106.4 520.3,106.4 520.3,106 
		520.2,106 520.2,105.5 520.3,105.5 520.3,105.4 520.3,105.1 520.2,105.1 520.2,105 520.1,105 520.1,104.8 519.8,104.8 519.8,105 
		519.4,105 519.4,105.1 518.1,105.1 518.1,105.3 517.9,105.3 517.9,105.4 517.9,105.5 517.8,105.5 517.8,105.7 517.1,105.7 
		517.1,105.4 517.1,105 517,105 517,104.8 516.9,104.8 516.9,104.6 516.2,104.6 516.2,104.8 515.7,104.8 515.7,104.6 515.1,104.6 
		515.1,104.4 514.7,104.4 514.7,104.2 514.4,104.2 514.4,104.4 514.3,104.4 514.3,104.6 514.2,104.6 514.2,105.3 514,105.3 
		514,105.5 513.9,105.5 513.9,105.7 513.6,105.7 513.6,105.5 513.5,105.5 513.5,105.3 513,105.3 513,105.1 512.4,105.1 512.4,105 
		512.3,105 512.3,104.8 511.9,104.8 511.9,105 511.8,105 511.8,105.3 511.9,105.3 511.9,105.7 512,105.7 512,105.8 511.9,105.8 
		511.9,106.2 511.8,106.2 511.8,106.6 511.6,106.6 511.6,106.7 511.5,106.7 511.5,107.1 511.4,107.1 511.4,107.3 511,107.3 
		511,107.1 510.8,107.1 510.8,106.9 510.7,106.9 510.7,105.8 510.6,105.8 510.6,105.7 510.4,105.7 510.4,105.5 510.2,105.5 
		510.2,105.3 509.9,105.3 509.9,105 509.8,105 509.8,104.8 509.6,104.8 509.6,104.6 509.1,104.6 509.1,105 509,105 509,105.1 
		508.8,105.1 508.8,105.3 508.7,105.3 508.7,105.4 508.7,105.5 508.3,105.5 508.3,105.4 508.3,105 508.1,105 508.1,104.8 508,104.8 
		508,104.6 507.6,104.6 507.6,104.4 507.3,104.4 507.3,104.2 507.2,104.2 507.2,104.1 506.7,104.1 506.7,104.2 506.5,104.2 
		506.5,104.1 506.3,104.1 506.3,104.2 506,104.2 506,104.4 505.6,104.4 505.6,104.6 505.3,104.6 505.3,104.4 505.1,104.4 
		505.1,104.2 504.9,104.2 504.9,104.1 504.7,104.1 504.7,103.9 504.3,103.9 504.3,103.7 504,103.7 504,103.5 503.2,103.5 
		503.2,103.7 503.1,103.7 503.1,103.5 502.8,103.5 502.8,103.7 502.5,103.7 502.5,103.5 502.2,103.5 502.2,103.2 501.8,103.2 
		501.8,103.3 501.6,103.3 501.6,103.7 501.3,103.7 501.3,103.5 500.9,103.5 500.9,103.3 500.5,103.3 500.5,103.5 500.2,103.5 
		500.2,103.7 500.1,103.7 500.1,103.9 499.8,103.9 499.8,104.1 499.6,104.1 499.6,104.4 499.4,104.4 499.4,104.8 499.6,104.8 
		499.6,105.1 499.7,105.1 499.7,106.2 499.6,106.2 499.6,106.6 499.4,106.6 499.4,106.7 499.2,106.7 499.2,107.1 499,107.1 
		499,107.5 498.9,107.5 498.9,107.6 498.6,107.6 498.6,107.8 498.5,107.8 498.5,107.6 498.1,107.6 498.1,107.5 497.7,107.5 
		497.7,107.1 497.6,107.1 497.6,106.9 497.4,106.9 497.4,106.7 497.3,106.7 497.3,106.4 497.2,106.4 497.2,106 497,106 497,105.3 
		497,105 497.2,105 497.2,104.4 497,104.4 497,104.2 496.9,104.2 496.9,104.1 496.5,104.1 496.5,104.2 496.2,104.2 496.2,104.1 
		496.1,104.1 496.1,103.9 495.8,103.9 495.8,104.1 495.1,104.1 495.1,103.9 494.7,103.9 494.7,104.1 494.6,104.1 494.6,104.2 
		494.5,104.2 494.5,104.4 494.3,104.4 494.3,104.6 493.8,104.6 493.8,104.4 493,104.4 493,104.2 492.6,104.2 492.6,104.4 
		492.3,104.4 492.3,104.6 492.1,104.6 492.1,104.8 491.8,104.8 491.8,105 491.7,105 491.7,105.1 491.4,105.1 491.4,105.5 
		491.3,105.5 491.3,105.8 490.7,105.8 490.7,105.7 490.6,105.7 490.6,105.5 489.9,105.5 489.9,105.7 489.8,105.7 489.8,105.8 
		489.2,105.8 489.2,106 488.8,106 488.8,105.8 488.7,105.8 488.7,105.3 488.8,105.3 488.8,104.8 488.7,104.8 488.6,104.8 
		488.4,104.8 488.4,104.6 488.3,104.6 488.3,104.4 488.2,104.4 488.2,104.2 487.9,104.2 487.9,104.4 487.6,104.4 487.6,104.2 
		487.5,104.2 487.5,104.1 487.2,104.1 487.2,103.9 486.7,103.9 486.7,104.2 486.6,104.2 486.6,104.4 486.2,104.4 486.2,104.2 
		486,104.2 486,104.1 485.8,104.1 485.8,103.9 485.6,103.9 485.6,104.1 485.5,104.1 485.5,104.2 485.4,104.2 485.4,104.4 
		485.5,104.4 485.5,104.8 485.4,104.8 485.4,105.3 485.4,105.3 485.2,105.3 485.2,105.5 484.8,105.5 484.8,105.7 484.6,105.7 
		484.6,106 484.4,106 484.4,106.2 484.3,106.2 484.3,106.7 483.3,106.7 483.3,106.6 483.2,106.6 483.2,106.4 483.1,106.4 
		483.1,106.6 482.9,106.6 482.9,106.4 482.4,106.4 482.4,106.2 482.1,106.2 482.1,106 481.3,106 481.3,106.2 481.2,106.2 481.2,106 
		480.9,106 480.9,105.8 480,105.8 480,106.2 479.9,106.2 479.9,106.4 479.7,106.4 479.7,106.6 479.6,106.6 479.6,106.7 479.5,106.7 
		479.5,106.6 479.3,106.6 479.3,106.7 478.9,106.7 478.9,106.6 478.7,106.6 478.7,106.4 478.5,106.4 478.5,106.2 478.3,106.2 
		478.3,106 477,106 477,106.2 476.9,106.2 476.9,105.7 476.8,105.7 476.8,105.5 476.9,105.5 476.9,105.3 476.9,105.1 476.8,105.1 
		476.8,104.8 476.6,104.8 476.6,105 476.4,105 476.4,104.6 476.2,104.6 476.2,104.4 476.1,104.4 476.1,103.7 475.6,103.7 
		475.6,103.9 475.3,103.9 475.3,103.7 475.2,103.7 475.2,103.5 474.9,103.5 474.9,103.3 474.5,103.3 474.5,103.2 474.4,103.2 
		474.4,103 473.4,103 473.4,103.2 472.8,103.2 472.8,103 472.6,103 472.6,102.8 472.2,102.8 472.2,102.6 471.4,102.6 471.4,103 
		471.3,103 471.3,103.5 471.1,103.5 471.1,103.7 470.9,103.7 470.9,103.5 470.7,103.5 470.7,103.2 470.6,103.2 470.6,103 470.5,103 
		470.5,102.8 470.1,102.8 470.1,103 469.9,103 469.9,103.3 469.8,103.3 469.8,103.7 469.9,103.7 469.9,104.1 470.1,104.1 
		470.1,104.6 469.9,104.6 469.9,104.8 469.3,104.8 469.3,104.9 469.3,105 469.1,105 469.1,104.9 469.1,104.8 468.9,104.8 
		468.9,104.6 468.7,104.6 468.7,104.4 468.5,104.4 468.5,104.2 468.2,104.2 468.2,104.1 468.1,104.1 468.1,103.9 467.7,103.9 
		467.7,104.1 467.4,104.1 467.4,104.2 467.3,104.2 467.3,104.1 466.7,104.1 466.7,104.2 466.6,104.2 466.6,104.4 466.3,104.4 
		466.3,104.5 466.3,104.6 466.2,104.6 466.2,104.5 466.2,104.1 466.1,104.1 466.1,103.9 465.9,103.9 465.9,103.7 465.8,103.7 
		465.8,103.3 464.8,103.3 464.8,103.5 464.7,103.5 464.7,103.3 464.2,103.3 464.2,103.2 463.9,103.2 463.9,103.3 463.8,103.3 
		463.8,103.5 463.6,103.5 463.6,103.7 462.8,103.7 462.7,103.7 462.7,103.9 462.4,103.9 462.4,103.7 462,103.7 462,103.9 
		461.9,103.9 461.9,104.2 461.6,104.2 461.6,104.1 461.5,104.1 461.5,103.9 461.1,103.9 461.1,103.7 461,103.7 461,103.3 
		460.7,103.3 460.7,103.2 460.6,103.2 460.6,103 460.4,103 460.4,102.8 460.3,102.8 460.3,102.6 459.8,102.6 459.5,102.6 
		459.5,102.5 459.4,102.5 458.8,102.5 458.8,102.6 458.4,102.6 458.4,102.5 457.9,102.5 457.9,102.3 457.3,102.3 457.3,102.5 
		456.1,102.5 456.1,102.1 456,102.1 456,101.9 455.9,101.9 455.9,101.7 455.5,101.7 455.5,101.9 455.3,101.9 455.3,102.1 
		455.2,102.1 455.2,102.6 455.1,102.6 455.1,102.5 454.8,102.5 454.8,102.3 454.4,102.3 454.4,102.1 453.3,102.1 453.3,101.9 
		449.4,101.9 449.4,101.7 448.9,101.7 448.9,101.6 448.6,101.6 448.6,101.4 447.8,101.4 447.8,101.2 446.2,101.2 446.2,101 
		445.9,101 445.9,100.8 445.3,100.8 445.3,101 444.7,101 444.7,101.2 443.8,101.2 443.8,101.4 443.4,101.4 443.4,101.6 441.4,101.6 
		441.4,101.4 441,101.4 441,101.2 439.5,101.2 439.5,100.8 439.2,100.8 439.2,101 439,101 439,101.2 438.8,101.2 438.8,101.4 
		438.4,101.4 438.4,101.2 438.3,101.2 438.3,101 437.9,101 437.9,101.2 437.6,101.2 437.6,101.4 437.5,101.4 437.5,101.2 
		437.4,101.2 437.4,101.4 436.4,101.4 436.4,101.6 433.6,101.6 433.6,101.7 432.4,101.7 432.4,101.9 432.1,101.9 432.1,102.1 
		431.9,102.1 431.9,102.3 431.5,102.3 431.5,102.5 431.1,102.5 431.1,102.6 430.7,102.6 430.7,102.8 430.4,102.8 430.4,103 430,103 
		430,103.2 429.5,103.2 429.5,103.3 429.3,103.3 429.3,103.5 429.1,103.5 429.1,103.7 428,103.7 428,103.5 427.7,103.5 427.7,103.3 
		427.6,103.3 427.6,103.2 427.4,103.2 427.4,102.8 427.6,102.8 427.6,102.5 427.7,102.5 427.7,102.3 428,102.3 428,102.1 
		428.1,102.1 428.1,101.9 428.3,101.9 428.3,101.7 428.4,101.7 428.4,101.6 428.5,101.6 428.5,101.4 427.7,101.4 427.7,101.2 
		427.6,101.2 427.6,101 427.3,101 427.3,101.2 426.9,101.2 426.9,101.4 426.5,101.4 426.5,101.6 426.4,101.6 426.4,101.4 
		426.2,101.4 426.2,101.2 426,101.2 426,101 425.7,101 425.7,101.2 425.4,101.2 425.4,101.4 425.3,101.4 425.3,101.6 425,101.6 
		425,101.7 424.9,101.7 424.9,101.9 424.8,101.9 424.8,102.1 424.6,102.1 424.6,102.3 424.2,102.3 424.2,102.5 424,102.5 424,102.6 
		423.8,102.6 423.8,102.8 423.6,102.8 423.6,103 423.4,103 423.4,102.8 423.3,102.8 423.3,102.5 423.2,102.5 423.2,102.1 423,102.1 
		423,101.9 422.7,101.9 423.6,103.7 426.5,112 430.8,120.8 432.1,126.4 432.3,130.3 432.2,134 431.4,137.6 430.8,139.2 429.8,140.7 
		428.7,141.8 422.3,145.6 415.7,148.8 410.1,149.6 397.6,150.2 392.4,150.9 389.1,151.7 382,155.2 378.9,156.3 370.6,158.1 
		367.4,159.1 351.3,167.4 346.9,170.8 340.4,176.8 331.2,181.3 324.1,185.3 320.9,186.6 317.2,187.4 313.5,187.7 304,187.7 
		298.4,186.9 294.9,185.7 290.4,182.9 282.1,176.1 279,174.4 277.3,173.7 273.7,172.9 270,172.5 253,171.8 249.3,171.2 245.5,170.3 
		243.5,181.6 242.7,185.1 241.3,188.4 238.3,192.9 232.2,199.6 228.3,203.3 225.5,205.6 222.6,207.5 221.1,208.2 217.8,209.2 
		215.4,209.7 214.5,209.9 213.8,213.3 212.8,216.7 209.6,223.9 208.9,227 208.8,228.7 209.2,231.8 211,236.8 211.3,239.5 211,240.8 
		210.5,242.2 208.7,244.5 206.4,246.4 205,247.1 199.2,249.7 192.2,253.5 187.4,255.3 184.5,256.7 174.2,263.4 173.2,264.5 
		171.8,267.1 170.4,273.2 169.3,276.4 167.7,279.1 165.6,281.5 164.3,282.5 161.5,284.2 154,287 151.1,287.9 146.5,289 144.6,290 
		144.6,290.3 144.7,290.3 144.7,290.7 144.9,290.7 144.9,291 145,291 145,291.4 145.3,291.4 145.3,291.5 145.7,291.5 145.7,291.7 
		146.1,291.7 146.1,292.1 145.9,292.1 145.9,292.6 145.8,292.6 145.8,293.2 145.7,293.2 145.7,293.3 145,293.3 145,293.2 
		144.6,293.2 144.6,293 143.7,293 143.7,293.2 143.3,293.2 143.3,293.3 143.1,293.3 143.1,293.5 143,293.5 143,293.7 142.9,293.7 
		142.9,294.1 142.7,294.1 142.7,294.2 142.6,294.2 142.6,294.4 142.3,294.4 142.3,294.8 142.2,294.8 142.2,295.3 142.5,295.3 
		142.5,295.5 142.6,295.5 142.6,295.8 142.3,295.8 142.3,296 142.3,296.2 142.2,296.2 142.2,296.4 141.9,296.4 141.9,296.6 
		141.8,296.6 141.8,296.7 141.5,296.7 141.5,296.9 141.4,296.9 141.4,297.1 141.5,297.1 141.5,297.4 141.4,297.4 141.4,297.8 
		141.1,297.8 141.1,298.2 141,298.2 141,298.3 140.8,298.3 140.8,298.5 139.5,298.5 139.5,298.2 138.8,298.2 138.8,297.4 
		138.7,297.4 138.7,297.3 138.6,297.3 138.6,297.1 138.4,297.1 138.4,296.7 138.3,296.7 138.3,296.6 138,296.6 138,296.2 
		137.8,296.2 137.8,296 137.6,296 137.6,295.7 137.8,295.7 137.8,294.1 137.6,294.1 137.6,293.5 137.5,293.5 137.5,293.3 
		137.2,293.3 136.4,293.3 136.4,293.5 135.5,293.5 135.5,293.7 135.4,293.7 135.4,294.1 135.2,294.1 135.2,294.2 135.2,294.2 
		135.1,294.2 135.1,294.4 134.8,294.4 134.8,294.6 134.5,294.6 134.1,294.6 134.1,294.8 134.1,294.9 134,294.9 134,295.1 
		133.9,295.1 133.9,295.5 133.6,295.5 133.6,295.8 133.5,295.8 133.5,296.4 133.6,296.4 133.6,296.6 133.7,296.6 133.7,297.3 
		134.1,297.3 134.1,297.4 134.3,297.4 134.3,297.6 134.7,297.6 134.7,297.8 134.8,297.8 134.8,297.6 135,297.6 135,297.8 
		135.1,297.8 135.1,298.5 134.8,298.5 134.8,298.3 134.7,298.3 134.7,298 134.5,298 134.5,298.2 134.4,298.2 134.4,298 134,298 
		134,298.7 134.1,298.7 134.1,299.1 134.3,299.1 134.3,299.2 134.4,299.2 134.4,299.6 134.5,299.6 134.5,299.8 134.7,299.8 
		134.7,300 134.8,300 134.8,300.1 135.1,300.1 135.1,300.3 135.4,300.3 135.4,300.7 135.5,300.7 135.5,300.8 135.6,300.8 
		135.6,300.7 135.9,300.7 135.9,301 136.3,301 136.3,301.2 136.4,301.2 136.4,301.4 136.7,301.4 136.7,301.6 137.8,301.6 
		137.8,301.7 137.9,301.7 137.9,301.6 138,301.6 138,301.7 138.2,301.7 138.2,301.6 138.6,301.6 138.6,301.7 139.9,301.7 
		139.9,301.9 140.2,301.9 140.2,302.1 140.3,302.1 140.3,302.3 140.4,302.3 140.4,302.5 140.4,302.6 140.6,302.6 140.6,302.5 
		141,302.5 141,302.3 141.3,302.3 141.3,302.1 141.5,302.1 141.5,301.9 141.7,301.9 141.7,301.7 141.9,301.7 141.9,301.6 
		142.2,301.6 142.2,301.4 142.3,301.4 142.3,301.2 142.5,301.2 142.5,301 142.6,301 142.6,300.8 142.7,300.8 142.7,300.7 
		142.9,300.7 142.9,300.5 143,300.5 143,300.3 143.1,300.3 143.1,300.1 143.3,300.1 143.3,300 143.4,300 143.4,299.8 143.5,299.8 
		143.5,299.4 143.7,299.4 143.7,299.2 143.8,299.2 143.8,298.9 143.9,298.9 143.9,298.5 144.1,298.5 144.1,298.3 145.1,298.3 
		145.1,298.5 145.3,298.5 145.3,298.7 145.5,298.7 145.5,298.9 145.7,298.9 145.7,299.1 145.9,299.1 145.9,299.2 146.2,299.2 
		146.2,299.4 146.5,299.4 146.5,299.6 146.7,299.6 146.7,299.8 147,299.8 147,300 147.3,300 147.3,300 147.3,300.7 147.1,300.7 
		147.1,300.8 146.9,300.8 146.9,301.2 146.7,301.2 146.7,301.6 146.6,301.6 146.6,303.7 146.5,303.7 146.5,303.9 146.3,303.9 
		146.3,304.2 146.2,304.2 146.2,304.4 146.1,304.4 146.1,304.6 145.9,304.6 145.9,304.8 145.8,304.8 145.8,305.1 145.7,305.1 
		145.7,305.3 145.5,305.3 145.5,305.5 145.1,305.5 145.1,305.7 143.1,305.7 143.1,305.5 143,305.5 143,305.3 142.9,305.3 
		142.9,305.1 142.5,305.1 142.5,304.8 142.1,304.8 142.1,304.6 141.9,304.6 141.9,304.4 141.8,304.4 141.8,304.2 141.7,304.2 
		141.7,304.1 141.5,304.1 141.5,303.9 141.3,303.9 141.3,303.3 141.1,303.3 141.1,303.5 140.7,303.5 140.7,304.1 140.8,304.1 
		140.8,305.3 140.7,305.3 140.7,305.5 140.6,305.5 140.6,305.7 140.4,305.7 140.4,305.8 140.3,305.8 140.3,306 140.2,306 
		140.2,306.2 139.8,306.2 139.8,306.4 139.5,306.4 139.5,306.6 139.4,306.6 139.4,307.1 139.2,307.1 139.2,307.5 139.1,307.5 
		139.1,307.8 139,307.8 139,308 139.1,308 139.1,308.4 139,308.4 139,308.5 138.8,308.5 138.8,308.6 138.8,308.7 138.7,308.7 
		138.2,308.7 138.2,308.9 138,308.9 138,308.7 137.8,308.7 137.8,308.9 136.7,308.9 136.7,309.1 135.9,309.1 135.9,309.6 
		135.8,309.6 135.8,310.3 135.9,310.3 135.9,310.5 136,310.5 136,311 135.9,311 135.9,311.4 135.8,311.4 135.8,311.6 135.6,311.6 
		135.6,311.7 135.4,311.7 135.4,311.9 135.2,311.9 135.2,312.1 135.1,312.1 135.1,312.3 134.7,312.3 134.7,312.1 134.5,312.1 
		134.5,312.3 134.3,312.3 134.3,312.1 134.1,312.1 134.1,311.9 134,311.9 134,312.1 133.6,312.1 133.6,311.9 133.3,311.9 
		133.3,311.7 133.2,311.7 133.2,311.4 133.3,311.4 133.3,311 133.6,311 133.6,310.9 133.7,310.9 133.7,310.7 133.9,310.7 
		133.9,310.3 134,310.3 134,310 134.1,310 134.1,309.8 134.4,309.8 134.4,309.4 133.9,309.4 133.9,309.6 133.7,309.6 133.7,309.4 
		133.6,309.4 133.6,309.6 133.1,309.6 133.1,309.8 132.9,309.8 132.9,310 132.9,310 132.7,310 132.7,310.1 132.5,310.1 132.5,310.3 
		132.3,310.3 132.3,310.5 132.1,310.5 132.1,310.7 131.9,310.7 131.9,310.9 131.7,310.9 131.7,311 131.6,311 131.6,311.2 
		131.5,311.2 131.5,311.4 131.3,311.4 131.3,311.6 131.2,311.6 131.2,311.9 131.1,311.9 131.1,312.1 130.5,312.1 130.5,312.3 
		130.4,312.3 130.4,312.5 128.8,312.5 128.8,312.6 128.7,312.6 128.7,313 128.8,313 128.8,313.2 128.9,313.2 128.9,313.4 
		129.1,313.4 129.1,313.7 129.2,313.7 129.2,313.9 129.3,313.9 129.3,314.1 129.6,314.1 129.6,314.2 129.7,314.2 129.7,314.4 
		129.9,314.4 129.9,314.8 130,314.8 130,315 130.1,315 130.1,315.1 130.3,315.1 130.3,315.5 130.4,315.5 130.4,316.2 130.5,316.2 
		130.5,316.4 130.7,316.4 130.7,316.6 130.9,316.6 130.9,317.5 130.8,317.5 130.8,317.6 130.7,317.6 130.7,317.8 130.5,317.8 
		130.5,318 130.4,318 130.4,318.2 130.3,318.2 130.3,318.4 130.1,318.4 130.1,318.7 130,318.7 130,319.1 130.1,319.1 130.1,320.3 
		130.5,320.3 130.5,320.1 130.8,320.1 130.8,320 131.1,320 131.1,319.8 131.6,319.8 131.6,319.6 132.1,319.6 132.1,319.4 
		132.4,319.4 132.4,319.3 132.7,319.3 132.7,319.1 132.9,319.1 132.9,318.9 133.2,318.9 133.2,318.5 133.3,318.5 133.3,318.4 
		133.5,318.4 133.5,318 133.6,318 133.6,317.1 133.7,317.1 133.7,316.8 133.9,316.8 133.9,316.6 134,316.6 134,316.4 134.1,316.4 
		134.1,316 133.9,316 133.9,315.9 133.7,315.9 133.7,315 134,315 134,314.8 134.4,314.8 134.4,314.6 134.7,314.6 134.7,314.4 
		135.1,314.4 135.1,314.2 135.5,314.2 135.5,314.4 136,314.4 136,314.6 137.1,314.6 137.1,314.4 137.4,314.4 137.4,314.2 
		137.6,314.2 137.6,314.1 138.2,314.1 138.2,313.9 138.8,313.9 138.8,313.5 139.1,313.5 139.1,313.4 139.2,313.4 139.2,313.2 
		139.9,313.2 139.9,313.4 141.5,313.4 141.5,313.5 141.9,313.5 141.9,313.7 142.3,313.7 142.3,313.9 142.7,313.9 142.7,314.1 
		142.9,314.1 142.9,314.2 143.5,314.2 143.5,314.4 143.7,314.4 143.7,314.2 143.8,314.2 143.8,314.1 143.9,314.1 143.9,313.9 
		144.2,313.9 144.2,313.7 144.3,313.7 144.3,313.5 146.2,313.5 146.2,313.7 146.9,313.7 146.9,313.9 148,313.9 148,313.7 
		148.1,313.7 148.1,312.1 148.4,312.1 148.4,311.9 148.5,311.9 148.5,311.7 148.8,311.7 148.8,311.6 149,311.6 149,311.4 
		149.4,311.4 149.4,311.6 149.6,311.6 149.6,311.4 150,311.4 150,311.6 151,311.6 151,311.7 151.3,311.7 151.3,311.9 151.6,311.9 
		151.6,312.8 151.7,312.8 151.7,313 152.1,313 152.1,313.2 152.8,313.2 152.8,313.4 152.9,313.4 152.9,313.5 153.2,313.5 
		153.2,313.7 153.3,313.7 153.3,313.9 153.6,313.9 153.6,314.1 153.7,314.1 153.7,314.2 154.1,314.2 154.1,314.4 154.3,314.4 
		154.3,314.6 154.4,314.6 154.4,314.8 155.1,314.8 155.1,315 155.9,315 155.9,314.8 156.3,314.8 156.3,314.6 156.5,314.6 
		156.5,314.4 156.7,314.4 156.7,314.2 156.9,314.2 156.9,314.1 157.1,314.1 157.1,313.9 157.2,313.9 157.2,313.5 157.3,313.5 
		157.3,313.2 157.5,313.2 157.5,313 157.6,313 157.6,312.8 158.4,312.8 158.4,312.5 158.5,312.5 158.5,312.3 158.4,312.3 
		158.4,312.1 158.3,312.1 158.3,311.9 158.1,311.9 158.1,311.6 158,311.6 158,311.2 158.1,311.2 158.1,311 158.4,311 158.4,310.9 
		158.7,310.9 158.7,310.5 158.8,310.5 158.8,310.3 158.9,310.3 158.9,310.1 159.1,310.1 159.1,310 159.3,310 159.3,309.8 
		161.2,309.8 161.2,310 161.6,310 161.6,310.1 161.8,310.1 161.8,310.3 162.2,310.3 162.2,310.5 162.6,310.5 162.6,310.7 163,310.7 
		163,310.9 163.5,310.9 163.5,311 163.9,311 163.9,311.2 164.7,311.2 164.7,311.4 165.4,311.4 165.4,311.6 166.2,311.6 166.2,311.7 
		166.3,311.7 166.3,311.9 166.6,311.9 166.6,312.1 166.7,312.1 166.7,312.3 166.9,312.3 166.9,312.5 167.1,312.5 167.1,312.6 
		167.3,312.6 167.3,312.8 167.4,312.8 167.4,313 167.7,313 167.7,313.2 167.8,313.2 167.8,313.4 167.9,313.4 167.9,313.7 
		168.1,313.7 168.1,313.9 168.2,313.9 168.2,314.1 168.3,314.1 168.3,314.2 168.5,314.2 168.5,314.4 168.6,314.4 168.6,314.6 
		168.9,314.6 168.9,314.8 169,314.8 169,315 169.7,315 169.7,315.1 169.8,315.1 169.8,315.5 170.1,315.5 170.1,315.7 170.3,315.7 
		170.3,315.9 170.6,315.9 170.6,316.2 170.9,316.2 170.9,316.6 171.1,316.6 171.1,316.9 171.7,316.9 171.7,317.3 172.1,317.3 
		172.1,317.5 172.2,317.5 172.2,317.8 172.4,317.8 172.4,318 172.6,318 172.6,318.5 172.8,318.5 172.8,318.7 173,318.7 173,318.9 
		173.2,318.9 173.2,319.1 173.3,319.1 173.3,319.3 173.2,319.3 173.2,319.4 173.3,319.4 173.3,320 173.4,320 173.4,321 173.4,321.6 
		173.6,321.6 173.6,321.9 173.7,321.9 173.7,322.1 173.8,322.1 173.8,322.5 173.6,322.5 173.6,322.7 173.4,322.7 173.4,322.8 
		173.3,322.8 173.3,323.2 173.2,323.2 173.2,323.4 172.9,323.4 172.9,323.5 172.8,323.5 172.8,323.7 172.6,323.7 172.6,324.3 
		173.2,324.3 173.2,324.4 173.7,324.4 173.7,324.3 174.1,324.3 174.1,324.4 174.2,324.4 174.2,324.6 174.5,324.6 174.5,324.8 
		174.6,324.8 174.6,325.5 174.8,325.5 174.8,325.7 174.9,325.7 174.9,325.9 174.8,325.9 174.8,326.1 174.8,326.9 174.5,326.9 
		174.5,327.3 174.4,327.3 174.4,327.5 174.1,327.5 174.1,327.8 173.8,327.8 173.8,328.2 173.7,328.2 173.7,328.4 172.2,328.4 
		172.2,328.2 171.9,328.2 171.9,328 171.7,328 171.7,327.8 171.5,327.8 171.5,327.7 171.4,327.7 171.4,327.5 171.3,327.5 
		171.3,327.3 171.1,327.3 171.1,327.1 170.9,327.1 170.9,326.9 170.5,326.9 170.5,326.8 169.8,326.8 169.8,326.6 169.1,326.6 
		169.1,326.8 168.9,326.8 168.9,327.1 168.7,327.1 168.7,327.3 168.9,327.3 168.9,328.4 168.6,328.4 168.6,328.5 168.2,328.5 
		168.2,328.4 167.9,328.4 167.9,328.2 167,328.2 167,328.7 167.1,328.7 167.1,329.1 167.4,329.1 167.4,329.3 167.9,329.3 
		167.9,329.4 168.1,329.4 168.1,330 167.9,330 167.9,330.2 167.8,330.2 167.8,330.3 167.4,330.3 167.4,330.5 167.3,330.5 
		167.3,330.7 167.1,330.7 167.1,331.2 168.2,331.2 168.2,331.4 168.7,331.4 168.7,331.6 169,331.6 169,331.8 169.3,331.8 
		169.3,331.9 169.5,331.9 169.5,331.8 169.9,331.8 169.9,331.9 170.7,331.9 170.7,331.6 170.9,331.6 170.9,331.4 171,331.4 
		171,331.2 171.1,331.2 171.1,331.1 171.3,331.1 171.3,330.7 171.4,330.7 171.4,330.5 171.5,330.5 171.5,330.3 172.4,330.3 
		172.4,330.5 172.5,330.5 172.5,330.7 173,330.7 173,330.9 173.2,330.9 173.2,331.1 173.3,331.1 173.3,331.2 173.7,331.2 
		173.7,331.4 173.8,331.4 173.8,331.6 174,331.6 174,331.8 174.2,331.8 174.2,332.1 174.4,332.1 174.4,332.5 174.5,332.5 
		174.5,332.8 174.8,332.8 174.8,333.2 174.9,333.2 174.9,333.6 175,333.6 175,333.7 174.9,333.7 174.9,334.1 175.2,334.1 
		175.2,334.3 175.3,334.3 175.3,334.4 175.4,334.4 175.4,334.8 175.6,334.8 175.6,336.2 175.7,336.2 175.7,336.8 175.8,336.8 
		175.8,336.9 176,336.9 176,337.7 176.1,337.7 176.1,338 176.2,338 176.2,338.6 176.4,338.6 176.4,338.9 176.2,338.9 176.2,339.3 
		176.1,339.3 176.1,341.2 176,341.2 176,341.4 175.8,341.4 175.8,341.6 175.7,341.6 175.7,342 175.4,342 175.4,342.1 175.2,342.1 
		175.2,342.3 174.9,342.3 174.9,342.5 174.8,342.5 174.8,342.7 174.6,342.7 174.6,342.8 174.8,342.8 174.8,343.2 174.9,343.2 
		174.9,343.4 175,343.4 175,343.6 175.4,343.6 175.4,343.7 175.6,343.7 175.6,343.9 175.7,343.9 175.7,344.1 175.8,344.1 
		175.8,344.5 176,344.5 176,345.4 176.1,345.4 176.1,346.1 176,346.1 176,346.2 175.8,346.2 175.8,346.4 175.7,346.4 175.7,347.1 
		175.8,347.1 175.8,347.3 176,347.3 176,348.4 176.1,348.4 176.1,348.7 176.2,348.7 176.2,348.9 176.4,348.9 176.4,349.6 
		176.5,349.6 176.5,350.2 176.6,350.2 176.6,350.5 176.8,350.5 176.8,350.7 177.2,350.7 177.2,350.9 177.4,350.9 177.4,350.7 
		178,350.7 178,350.5 178.4,350.5 178.4,350.4 178.5,350.4 178.5,350.2 178.8,350.2 178.8,350 178.9,350 178.9,349.8 179.1,349.8 
		179.1,349.6 179.3,349.6 179.3,349.5 179.6,349.5 179.6,349.6 180,349.6 180,349.8 180.7,349.8 180.7,349.6 180.8,349.6 
		180.8,349.5 180.9,349.5 180.9,349.3 181.9,349.3 181.9,349.5 182.7,349.5 182.7,349.6 182.8,349.6 182.8,350 183.3,350 
		183.3,350.2 184,350.2 184,350 185,350 185,350.2 185.1,350.2 185.1,350.4 185.5,350.4 185.5,350.2 185.6,350.2 185.6,350 
		185.8,350 185.8,349.8 186.3,349.8 186.3,350 186.6,350 186.6,350.2 186.7,350.2 186.7,350.4 187.6,350.4 187.6,350.5 188.2,350.5 
		188.2,350.4 188.3,350.4 188.3,350.5 188.8,350.5 188.8,350.4 190,350.4 190,350.5 190.6,350.5 190.6,350.7 191,350.7 191,350.9 
		191.3,350.9 191.3,351.1 191.5,351.1 191.5,351.2 192.5,351.2 192.5,351.4 192.7,351.4 192.7,351.6 193,351.6 193,351.8 
		193.1,351.8 193.1,352 193.4,352 193.4,352.1 194.1,352.1 194.1,352 194.2,352 194.2,352.1 194.5,352.1 194.5,352.3 195.1,352.3 
		195.1,351.8 195.3,351.8 195.3,351.6 195.4,351.6 195.4,351.4 195.5,351.4 195.5,351.1 195.7,351.1 195.7,350.9 195.8,350.9 
		195.8,350.7 196.2,350.7 196.2,350.5 196.7,350.5 196.7,350.7 197.4,350.7 197.4,350.5 197.6,350.5 197.6,350.4 197.7,350.4 
		197.7,350.2 197.8,350.2 197.8,350 198,350 198,349.8 198.2,349.8 198.2,349.6 198.5,349.6 198.5,349.5 198.6,349.5 198.6,349.3 
		198.9,349.3 198.9,349.1 199.2,349.1 199.2,348.9 199.4,348.9 199.4,349.1 200,349.1 200,348.9 200.1,348.9 200.1,348.7 
		200.2,348.7 200.2,348.6 200.5,348.6 200.5,348.4 200.6,348.4 200.6,348.2 200.8,348.2 200.8,348 200.9,348 200.9,347.9 
		201.2,347.9 201.2,347.7 201.3,347.7 201.3,347.5 201.6,347.5 201.6,347.3 202,347.3 202,347.1 202.2,347.1 202.2,347 202.4,347 
		202.4,346.8 202.6,346.8 202.6,346.6 203,346.6 203,346.4 203.2,346.4 203.2,346.2 203.3,346.2 203.3,346.1 203.6,346.1 
		203.6,345.9 204.1,345.9 204.1,345.7 204.7,345.7 204.7,345.5 205.1,345.5 205.1,345.4 205.2,345.4 205.2,345.2 205.5,345.2 
		205.5,345 206,345 206,344.8 206.1,344.8 206.1,344.6 206.5,344.6 206.5,344.5 207.3,344.5 207.3,344.3 207.9,344.3 207.9,344.1 
		208.4,344.1 208.4,343.9 208.9,343.9 208.9,343.7 209.5,343.7 209.5,343.6 210.7,343.6 210.7,343.4 211,343.4 211,343 211.1,343 
		211.1,342.8 212,342.8 212,342.7 212.2,342.7 212.2,342.5 212.3,342.5 212.3,342.3 212.6,342.3 212.6,342.1 212.8,342.1 212.8,342 
		213.1,342 213.1,341.8 214.3,341.8 214.3,341.6 214.6,341.6 214.6,341.4 215.1,341.4 215.1,341.2 216.5,341.2 216.5,341.1 
		216.6,341.1 216.6,340.9 216.9,340.9 216.9,340.7 217.3,340.7 217.3,340.5 217.7,340.5 217.7,340.7 217.8,340.7 217.8,340.5 
		217.9,340.5 217.9,340.7 218.2,340.7 218.2,340.9 218.5,340.9 218.5,341.1 219,341.1 219,341.2 219.1,341.2 219.1,341.4 
		219.5,341.4 219.5,341.6 220.2,341.6 220.2,341.8 220.3,341.8 220.3,342 220.7,342 220.7,342.1 221,342.1 221,342.3 221.9,342.3 
		221.9,342.5 223.8,342.5 223.8,342.3 224.1,342.3 224.1,342.1 224.4,342.1 224.4,342 224.6,342 224.6,342.1 224.8,342.1 224.8,342 
		224.9,342 224.9,341.8 225.2,341.8 225.2,341.6 225.4,341.6 225.4,341.4 225.6,341.4 225.6,341.2 225.8,341.2 225.8,341.1 
		226,341.1 226,341.2 228.1,341.2 228.1,341.1 228.3,341.1 228.3,340.9 228.8,340.9 228.8,340.7 228.9,340.7 228.9,340.5 
		229.1,340.5 229.1,340.2 229.6,340.2 229.6,340 230.1,340 230.1,340.2 230.3,340.2 230.3,340.3 230.9,340.3 230.9,340.5 
		231.7,340.5 231.7,340.3 232.3,340.3 232.3,340.2 232.4,340.2 232.4,340 232.5,340 232.5,339.8 232.8,339.8 232.8,339.5 
		232.9,339.5 232.9,339.1 233.1,339.1 233.1,338.9 233.3,338.9 233.3,338.7 233.5,338.7 233.5,338.4 234,338.4 234,338.2 
		234.1,338.2 234.1,338 234.6,338 234.6,337.8 235.5,337.8 235.5,338 235.8,338 235.8,337.8 236,337.8 236,337.7 236.2,337.7 
		236.2,337.5 236.4,337.5 236.4,337.1 236.8,337.1 236.8,336.9 237.1,336.9 237.1,336.8 238.3,336.8 238.3,336.6 239.5,336.6 
		239.5,336.4 240,336.4 240,336.2 240.2,336.2 240.2,336.1 240.7,336.1 240.7,335.9 240.9,335.9 240.9,335.7 241.1,335.7 
		241.1,335.5 241.3,335.5 241.3,335.3 241.5,335.3 241.5,335.2 241.9,335.2 241.9,335 242.2,335 242.2,334.8 243.9,334.8 243.9,335 
		244.5,335 244.5,335.2 244.9,335.2 244.9,335.3 245.5,335.3 245.5,335.5 245.9,335.5 245.9,335.7 246.3,335.7 246.3,335.5 
		246.7,335.5 246.7,335.3 248.4,335.3 248.4,335.2 248.6,335.2 248.6,335.3 248.8,335.3 248.8,335.5 248.9,335.5 248.9,335.7 
		249,335.7 249,335.9 249.2,335.9 249.2,336.1 249.6,336.1 249.6,336.2 250,336.2 250,336.4 250.1,336.4 250.1,336.6 250.2,336.6 
		250.2,336.8 250.4,336.8 250.4,336.9 250.5,336.9 250.5,337.1 250.6,337.1 250.6,337.5 250.9,337.5 250.9,337.7 251,337.7 
		251,337.8 251.2,337.8 251.2,338 251.3,338 251.3,338.2 251.4,338.2 251.4,338.4 251.6,338.4 251.6,338.6 251.7,338.6 251.7,338.7 
		251.8,338.7 251.8,338.9 252,338.9 252,339.1 252.1,339.1 252.1,339.3 252.4,339.3 252.4,339.5 252.5,339.5 252.5,339.8 
		252.8,339.8 252.8,340.2 252.9,340.2 252.9,340.3 253.2,340.3 253.2,340.5 253.3,340.5 253.3,340.7 253.4,340.7 253.4,341.1 
		253.6,341.1 253.6,341.2 253.7,341.2 253.7,341.4 253.9,341.4 253.9,341.6 254.1,341.6 254.1,341.8 254.3,341.8 254.3,342 
		254.4,342 254.4,342.1 254.5,342.1 254.5,342.3 254.7,342.3 254.7,342.5 254.8,342.5 254.8,342.7 254.9,342.7 254.9,342.8 
		255.2,342.8 255.2,343 255.5,343 255.5,343.2 255.7,343.2 255.7,343.4 256,343.4 256,343.6 256.7,343.6 256.7,343.2 256.8,343.2 
		256.8,343 256.9,343 256.9,342.8 257.2,342.8 257.2,342.5 258.7,342.5 258.7,342.7 258.9,342.7 258.9,343 258.8,343 258.8,343.2 
		258.9,343.2 258.9,343.6 261.6,343.6 261.6,343.7 263,343.7 263,343.6 264.6,343.6 264.6,343.4 264.8,343.4 264.8,343.2 
		265.2,343.2 265.2,343 265.5,343 265.5,342.8 265.9,342.8 265.9,342.7 266.2,342.7 266.2,342.5 266.6,342.5 266.6,342.3 
		266.9,342.3 266.9,342.1 268.2,342.1 268.2,342.3 268.6,342.3 268.6,342.1 269,342.1 269,342 269.3,342 269.3,341.8 269.5,341.8 
		269.5,341.6 269.9,341.6 269.9,341.4 270.2,341.4 270.2,341.2 270.5,341.2 270.5,341.1 270.7,341.1 270.7,340.9 271.1,340.9 
		271.1,340.7 271.4,340.7 271.4,340.5 271.9,340.5 271.9,340.2 272.6,340.2 272.6,340 273.8,340 273.8,340.2 274.5,340.2 
		274.5,340.3 274.8,340.3 274.8,340.5 274.9,340.5 274.9,340.7 275.7,340.7 275.7,340.9 276.1,340.9 276.1,341.1 276.8,341.1 
		276.8,341.2 277,341.2 277,341.4 277.2,341.4 277.2,341.6 277.6,341.6 277.6,341.8 278.1,341.8 278.1,342 278.5,342 278.5,342.1 
		278.7,342.1 278.7,342.3 279.1,342.3 279.1,342.5 279.5,342.5 279.5,342.7 279.6,342.7 279.6,342.8 279.7,342.8 279.7,343 
		279.9,343 279.9,343.2 280.3,343.2 280.3,343.4 280.4,343.4 280.4,343.6 280.8,343.6 280.8,343.7 281.2,343.7 281.2,343.9 
		281.5,343.9 281.5,343.7 282,343.7 282,343.6 282.5,343.6 282.5,343.4 282.7,343.4 282.7,343.2 282.8,343.2 282.8,343 283.1,343 
		283.1,342.8 284.7,342.8 284.7,342.7 285.1,342.7 285.1,342.5 285.4,342.5 285.4,342.3 285.8,342.3 285.8,342.1 286,342.1 286,342 
		286.2,342 286.2,341.8 286.7,341.8 286.7,341.4 287.1,341.4 287.1,341.2 287.2,341.2 287.2,341.1 287.5,341.1 287.5,340.9 
		287.6,340.9 287.6,340.7 288.4,340.7 288.4,340.5 288.7,340.5 288.7,340.3 289.1,340.3 289.1,340 289.2,340 289.2,339.8 
		289.6,339.8 289.6,339.6 290.2,339.6 290.2,339.5 290.6,339.5 290.6,339.3 290.7,339.3 290.7,339.1 291.1,339.1 291.1,339.3 
		291.5,339.3 291.5,339.1 291.7,339.1 291.7,338.9 291.8,338.9 291.8,338.7 291.9,338.7 291.9,338.6 292.2,338.6 292.2,338.4 
		292.3,338.4 292.3,338.2 292.6,338.2 292.6,338 292.7,338 292.7,337.8 292.9,337.8 292.9,337.7 293.1,337.7 293.1,337.5 
		293.5,337.5 293.5,337.3 293.8,337.3 293.8,337.5 294.6,337.5 294.6,337.3 294.7,337.3 294.7,337.1 294.9,337.1 294.9,336.8 
		295.1,336.8 295.1,336.6 295.4,336.6 295.4,336.4 295.7,336.4 295.7,336.2 296.3,336.2 296.3,336.1 297,336.1 297,335.9 298,335.9 
		298,335.7 298.2,335.7 298.2,335.5 298.6,335.5 298.6,335.3 299,335.3 299,335.2 299.3,335.2 299.3,335 299.6,335 299.6,334.6 
		299.3,334.6 299.3,334.3 299.6,334.3 299.6,333.9 299.7,333.9 299.7,333.7 300.1,333.7 300.1,333.6 302,333.6 302,333.4 
		302.1,333.4 302.1,333.6 302.5,333.6 302.5,333.4 302.9,333.4 302.9,333.2 303.5,333.2 303.5,333.4 303.6,333.4 303.6,333.2 
		303.7,333.2 303.7,333.4 304.5,333.4 304.5,333.6 306.1,333.6 306.1,333.7 306.7,333.7 306.7,333.9 307.6,333.9 307.6,334.1 
		308,334.1 308,334.3 308.3,334.3 308.3,334.4 308.4,334.4 308.4,334.6 308.7,334.6 308.7,334.8 308.8,334.8 308.8,335 308.9,335 
		308.9,335.2 309.1,335.2 309.1,335.3 309.2,335.3 309.2,335.5 309.3,335.5 309.3,335.7 309.5,335.7 309.5,336.1 309.8,336.1 
		309.8,336.2 309.9,336.2 309.9,336.4 310.2,336.4 310.2,336.6 310.3,336.6 310.3,336.8 310.4,336.8 310.4,336.9 310.6,336.9 
		310.6,337.1 310.8,337.1 310.8,337.3 311.4,337.3 311.4,337.5 311.8,337.5 311.8,337.7 312.3,337.7 312.3,337.8 312.6,337.8 
		312.6,338 314.6,338 314.6,337.8 315.2,337.8 315.2,337.7 315.8,337.7 315.8,337.8 316.2,337.8 316.2,338 316.3,338 316.3,337.8 
		316.6,337.8 316.6,337.7 316.7,337.7 316.7,337.5 316.9,337.5 316.9,337.3 317,337.3 317,337.1 317.4,337.1 317.4,336.9 
		317.8,336.9 317.8,336.8 319.1,336.8 319.1,336.6 319.7,336.6 319.7,336.8 319.9,336.8 319.9,336.6 320.3,336.6 320.3,336.4 
		321.1,336.4 321.1,336.6 322.4,336.6 322.4,336.4 322.5,336.4 322.5,336.6 323,336.6 323,336.4 325.8,336.4 325.8,336.6 326,336.6 
		326,336.4 327,336.4 327,336.2 328.5,336.2 328.5,336.1 328.7,336.1 328.7,336.2 329.6,336.2 329.6,336.4 330,336.4 330,336.6 
		330.1,336.6 330.1,336.8 333.6,336.8 333.6,336.9 335,336.9 335,336.6 335.4,336.6 335.4,336.4 335.5,336.4 335.5,336.2 
		335.8,336.2 335.8,336.4 336,336.4 336,336.2 337.4,336.2 337.4,336.1 337.6,336.1 337.6,336.2 337.9,336.2 337.9,336.4 338,336.4 
		338,336.6 338.2,336.6 338.2,336.8 340.7,336.8 340.7,336.9 341.5,336.9 341.5,337.1 342.2,337.1 342.2,337.2 342.2,337.3 
		342.5,337.3 342.5,337.5 342.7,337.5 342.7,337.7 343,337.7 343,337.8 343.7,337.8 343.7,338 344.2,338 344.2,338.2 344.6,338.2 
		344.6,338 345,338 345,337.8 345.9,337.8 345.9,337.7 346.6,337.7 346.6,337.5 346.9,337.5 346.9,337.3 347.6,337.3 347.6,337.1 
		348.4,337.1 348.4,337.3 349.2,337.3 349.2,337.5 349.6,337.5 349.6,337.7 350.1,337.7 350.1,337.8 350.2,337.8 350.2,338 
		350.4,338 350.4,338.2 350.6,338.2 350.6,338.4 350.8,338.4 350.8,339.3 350.9,339.3 350.9,339.5 351,339.5 351,339.6 351.2,339.6 
		351.2,339.8 351.4,339.8 351.4,340 351.8,340 351.8,340.2 352,340.2 352,340.3 352.1,340.3 352.1,340.5 352.2,340.5 352.2,340.9 
		352.4,340.9 352.4,341.1 352.5,341.1 352.5,341.2 353.1,341.2 353.1,341.4 354.1,341.4 354.1,341.6 355.1,341.6 355.1,341.8 
		355.6,341.8 355.6,341.6 355.9,341.6 355.9,341.4 356,341.4 356,341.2 356.3,341.2 356.3,341.1 356.5,341.1 356.5,340.9 
		356.7,340.9 356.7,340.7 356.9,340.7 356.9,340.5 357.3,340.5 357.3,340.3 358,340.3 358,340.2 358.9,340.2 358.9,340.3 
		359.1,340.3 359.1,340.5 359.2,340.5 359.2,340.7 359.5,340.7 359.5,341.1 359.9,341.1 359.9,341.2 361.1,341.2 361.1,341.4 
		361.2,341.4 361.2,341.6 361.8,341.6 361.8,341.8 362.2,341.8 362.2,342 362.7,342 362.7,342.1 363.1,342.1 363.1,342.3 
		363.4,342.3 363.4,342.1 363.6,342.1 363.6,342.3 363.8,342.3 363.8,342.5 364.6,342.5 364.6,342.7 364.7,342.7 364.7,342.8 
		365,342.8 365,343 365.4,343 365.4,343.2 365.7,343.2 365.7,343.6 365.8,343.6 365.8,343.7 365.9,343.7 365.9,343.9 366.2,343.9 
		366.2,344.1 366.3,344.1 366.3,344.3 366.6,344.3 366.6,344.5 366.7,344.5 366.7,344.6 366.9,344.6 366.9,345 367,345 367,345.4 
		367.3,345.4 367.3,345.5 367.4,345.5 367.4,345.7 367.9,345.7 367.9,345.9 368.1,345.9 368.1,346.1 368.3,346.1 368.3,346.4 
		368.5,346.4 368.5,346.6 368.6,346.6 368.6,347.1 368.7,347.1 368.7,347.3 368.9,347.3 368.9,347.7 369,347.7 369,348 369.1,348 
		369.1,348.2 369.4,348.2 369.4,348.6 369.5,348.6 369.5,348.9 369.7,348.9 369.7,349.3 369.8,349.3 369.8,350 370.1,350 
		370.1,350.2 370.2,350.2 370.2,350.4 370.7,350.4 370.7,350.5 371.5,350.5 371.5,350.7 371.7,350.7 371.7,350.9 371.8,350.9 
		371.8,351.2 372,351.2 372,351.6 372.1,351.6 372.1,352 372.2,352 372.2,352.3 372.1,352.3 372.1,352.7 372.2,352.7 372.2,353 
		372.4,353 372.4,353.4 372.5,353.4 372.5,353.8 372.6,353.8 372.6,354.1 372.8,354.1 372.8,354.5 372.9,354.5 372.9,354.8 
		373,354.8 373,355 373.3,355 373.3,355.2 373.4,355.2 373.4,355.4 373.7,355.4 373.7,355.5 373.8,355.5 373.8,355.7 374,355.7 
		374,355.9 374.2,355.9 374.2,356.1 374.4,356.1 374.4,356.3 374.6,356.3 374.6,356.4 374.8,356.4 374.8,356.6 375,356.6 375,356.8 
		375.2,356.8 375.2,357 375.4,357 375.4,357.1 375.7,357.1 375.7,357.3 375.8,357.3 375.8,357.5 376.1,357.5 376.1,357.7 
		376.4,357.7 376.4,357.9 376.6,357.9 376.6,358 376.9,358 376.9,358.2 377.2,358.2 377.2,358.4 377.3,358.4 377.3,358.6 
		377.6,358.6 377.6,358.8 378.7,358.8 378.7,358.6 379.9,358.6 379.9,358.8 380.1,358.8 380.1,358.9 380.4,358.9 380.4,359.1 
		380.7,359.1 380.7,359.3 381.1,359.3 381.1,359.5 382.8,359.5 382.8,359.3 382.9,359.3 382.9,359.1 383.1,359.1 383.1,358.9 
		383.2,358.9 383.2,358.8 383.3,358.8 383.3,358.6 383.5,358.6 383.5,358.4 383.6,358.4 383.6,358.2 383.9,358.2 383.9,358 384,358 
		384,357.9 384.1,357.9 384.1,357.7 384.4,357.7 384.4,357.5 384.8,357.5 384.8,358.6 385,358.6 385,359.1 384.7,359.1 384.7,359.3 
		383.2,359.3 383.2,359.5 383.1,359.5 383.1,359.6 383.5,359.6 383.5,359.8 383.7,359.8 383.7,360 384.3,360 384.3,359.8 
		384.7,359.8 384.7,360 385,360 385,359.6 385.4,359.6 385.4,359.5 385.5,359.5 385.5,359.3 385.6,359.3 385.6,359.1 385.8,359.1 
		385.8,358.8 385.9,358.8 385.9,358.2 386,358.2 386,358 386.3,358 386.3,357.9 386.4,357.9 386.4,357.7 387,357.7 387,357.5 
		387.4,357.5 387.4,357.3 387.8,357.3 387.8,357.1 388.4,357.1 388.4,357.3 388.6,357.3 388.6,357.7 388.7,357.7 388.7,357.9 
		389,357.9 389,358 389.1,358 389.1,358.2 389.5,358.2 389.5,358.4 389.8,358.4 389.8,358.2 390.7,358.2 390.7,358 391,358 
		391,357.9 391.1,357.9 391.1,357.5 391.4,357.5 391.4,357.3 391.5,357.3 391.5,357 391.9,357 391.9,356.8 392.1,356.8 392.1,356.6 
		392.3,356.6 392.3,356.4 392.5,356.4 392.5,356.1 392.6,356.1 392.6,355.9 392.9,355.9 392.9,355.5 393,355.5 393,355.4 
		393.5,355.4 393.5,355.2 395.7,355.2 395.7,355.4 395.8,355.4 395.8,355.2 396.2,355.2 396.2,355 396.6,355 396.6,354.8 397,354.8 
		397,354.6 400.1,354.6 400.1,354.5 400.5,354.5 400.5,354.6 400.8,354.6 400.8,354.5 401.8,354.5 401.8,354.6 402,354.6 402,354.5 
		402.5,354.5 402.5,354.3 402.9,354.3 402.9,354.5 403.5,354.5 403.5,354.6 403.7,354.6 403.7,354.8 403.9,354.8 403.9,355 404,355 
		404,355.2 404.1,355.2 404.1,355.5 404.3,355.5 404.3,356.3 404.4,356.3 404.4,356.6 406.3,356.6 406.3,356.4 406.7,356.4 
		406.7,356.6 406.9,356.6 406.9,356.4 407.1,356.4 407.1,356.6 407.2,356.6 407.2,356.4 407.3,356.4 407.3,356.3 407.5,356.3 
		407.5,356.1 407.6,356.1 407.6,355.9 407.9,355.9 407.9,355.7 408,355.7 408,355.5 408.1,355.5 408.1,355.4 408.3,355.4 
		408.3,355.2 408.5,355.2 408.5,355 408.7,355 408.7,354.8 408.8,354.8 408.8,354.6 408.9,354.6 408.9,354.5 409.2,354.5 
		409.2,354.3 409.4,354.3 409.4,354.1 409.5,354.1 409.5,353.9 409.6,353.9 409.6,353.8 409.9,353.8 409.9,353.4 410.2,353.4 
		410.2,353 410.8,353 410.8,352.9 412,352.9 412,352.7 412.6,352.7 412.6,352.9 413,352.9 413,353 413.5,353 413.5,353.2 
		413.9,353.2 413.9,353.4 414.3,353.4 414.3,353.8 414.6,353.8 414.6,353.9 415,353.9 415,354.1 415.4,354.1 415.4,354.3 
		416.2,354.3 416.2,354.1 416.7,354.1 416.7,354.3 418.2,354.3 418.2,354.1 418.3,354.1 418.3,353.8 418.5,353.8 418.5,353.6 
		418.6,353.6 418.6,353.4 418.7,353.4 418.7,353.2 418.9,353.2 418.9,353 419,353 419,352.9 419.4,352.9 419.4,352.7 419.7,352.7 
		419.7,352.5 420.1,352.5 420.1,352.3 420.3,352.3 420.3,352.1 420.6,352.1 420.6,352 421.8,352 421.8,351.8 422.5,351.8 
		422.5,351.6 423.2,351.6 423.2,351.4 423.7,351.4 423.7,350.5 423.6,350.5 423.6,349.8 423.7,349.8 423.7,349.5 424,349.5 
		424,349.3 425.7,349.3 425.7,349.5 426.1,349.5 426.1,349.6 427.3,349.6 427.3,349.8 427.4,349.8 427.4,349.6 427.7,349.6 
		427.7,349.5 428,349.5 428,349.3 428.3,349.3 428.3,349.1 429.3,349.1 429.3,348.9 429.7,348.9 429.7,348.7 430.3,348.7 
		430.3,348.6 430.4,348.6 430.4,348.4 430.5,348.4 430.5,348.2 430.9,348.2 430.9,348 432.5,348 432.5,348.2 433.9,348.2 433.9,348 
		434.2,348 434.2,348.2 434.4,348.2 434.4,348 434.6,348 434.6,347.9 434.7,347.9 434.7,347.7 434.8,347.7 434.8,347.5 436.2,347.5 
		436.2,347.7 436.3,347.7 436.3,347.9 436.6,347.9 436.6,348 436.8,348 436.8,348.2 437.1,348.2 437.1,348.4 437.2,348.4 
		437.2,348.6 437.8,348.6 437.8,348.7 437.9,348.7 437.9,348.9 439.6,348.9 439.6,349.1 440.7,349.1 440.7,348.9 441.4,348.9 
		441.4,348.7 441.9,348.7 441.9,348.6 442.7,348.6 442.7,348.7 443.1,348.7 443.1,348.9 443.3,348.9 443.3,348.7 443.4,348.7 
		443.4,348.6 444.5,348.6 444.5,348.4 444.9,348.4 444.9,348.2 446.2,348.2 446.2,348.4 447,348.4 447,347.9 447.2,347.9 
		447.2,347.7 448,347.7 448,347.9 448.1,347.9 448.1,348 448.6,348 448.6,348.2 448.9,348.2 448.9,347.5 449.3,347.5 449.3,347.7 
		449.4,347.7 449.4,347.9 449.7,347.9 449.7,348 449.8,348 449.8,348.2 450,348.2 450,348.4 450.2,348.4 450.2,348.6 450.6,348.6 
		450.6,348.2 450.9,348.2 450.9,348 451,348 451,347.9 451.7,347.9 451.7,348 452.6,348 452.6,347.9 453.7,347.9 453.7,347.7 
		455,347.7 455.2,347.7 455.2,347.8 455.2,347.9 455.5,347.9 455.5,348 455.6,348 455.6,348.2 455.6,348.2 455.9,348.2 455.9,348.4 
		456,348.4 456,348.5 456.1,348.6 456.1,348.6 456.1,348.6 456.1,348.9 456.3,348.9 456.3,349.1 456.4,349.1 456.4,349.3 
		456.5,349.3 456.5,349.6 456.7,349.6 456.7,349.8 456.8,349.8 456.8,350 457.1,350 457.1,350.2 457.7,350.2 457.9,350.2 
		457.9,350.4 458.3,350.4 458.3,350.5 458.8,350.5 458.8,350.7 458.9,350.7 458.9,350.5 459.1,350.5 459.1,350.4 459.5,350.4 
		459.5,350.5 459.8,350.5 459.8,351 459.8,352.1 459.6,352.1 459.6,352.3 459.8,352.3 459.8,352.5 460,352.5 460,353 460.2,353 
		460.2,353.2 460.6,353.2 460.6,353.4 460.4,353.4 460.4,353.6 460.6,353.6 460.6,353.8 460.7,353.8 460.7,354.5 460.8,354.5 
		460.8,354.8 460.7,354.8 460.7,355.7 460.8,355.7 460.8,355.9 460.7,355.9 460.7,356.3 460.6,356.3 460.6,356.4 460.4,356.4 
		460.4,356.6 460.2,356.6 460.2,356.8 460,356.8 460,357.3 459.9,357.3 459.9,357.5 459.8,357.5 459.8,358 459.6,358 459.6,358.8 
		459.8,358.8 459.8,358.9 459.6,358.9 459.6,359.5 459.8,359.5 459.8,359.6 459.9,359.6 459.9,359.8 460,359.8 460,360.2 
		460.2,360.2 460.2,361.8 460,361.8 460,362.3 459.8,362.3 459.8,362.5 459.6,362.5 459.6,362.7 459.2,362.7 459.2,362.9 
		458.9,362.9 458.9,363 459.1,363 459.1,363.6 458.9,363.6 458.9,363.9 458.8,363.9 458.8,364.3 459.1,364.3 459.1,364.5 
		459.5,364.5 459.5,364.7 460,364.7 460,364.7 460,365.2 459.9,365.2 459.9,365.4 460,365.4 460,365.5 460.2,365.5 460.2,367.9 
		460,367.9 460,368.4 459.9,368.4 459.9,368.8 459.8,368.8 459.8,368.9 459.6,368.9 459.6,370 459.5,370 459.5,370.2 459.2,370.2 
		459.2,370.7 459.1,370.7 459.1,371.3 458.9,371.3 458.9,371.6 458.8,371.6 458.8,371.8 458.7,371.8 458.7,372.2 458.5,372.2 
		458.5,372.3 458.4,372.3 458.4,372.5 458.4,372.7 458.3,372.7 458.3,373.2 458.1,373.2 458.1,373.6 458,373.6 458,373.8 
		457.9,373.8 457.9,373.9 457.7,373.9 457.7,374.1 457.2,374.1 457.2,374.3 455.3,374.3 454.5,374.3 454.5,374.5 454.7,374.5 
		454.7,374.6 454.7,374.7 454.5,374.7 454.5,374.8 454,374.8 454,375 453.3,375 453.3,375.2 452.8,375.2 452.8,375.4 452.1,375.4 
		452.1,375.6 450.9,375.6 450.9,375.4 450.8,375.4 450.8,375.6 450.4,375.6 450.4,375.7 450,375.7 450,375.9 449.6,375.9 
		449.6,376.1 449.4,376.1 449.4,376.3 449,376.3 449,376.4 448.9,376.4 448.9,376.6 448.8,376.6 448.8,377 448.6,377 448.6,377.2 
		448.5,377.2 448.5,377.3 448.2,377.3 448.2,377.2 448.1,377.2 448.1,377 447.8,377 447.8,376.8 447.6,376.8 447.6,376.6 
		446.9,376.6 446.9,376.4 446.2,376.4 446.2,376.3 445.7,376.3 445.7,376.4 445.1,376.4 445.1,376.6 444.9,376.6 444.9,376.8 
		444.5,376.8 444.5,377 443.8,377 443.8,377.2 442.9,377.2 442.9,377 442.1,377 442.1,376.8 441.8,376.8 441.8,376.6 441.5,376.6 
		441.5,376.5 441.5,376.4 441.1,376.4 441.1,376.3 440.9,376.3 440.9,376.1 440.6,376.1 440.6,375.9 440.2,375.9 440.2,375.7 
		439.9,375.7 439.9,375.6 439.5,375.6 439.5,375.4 439.2,375.4 439.2,375.2 439,375.2 439,375 438.3,375 438.3,375.2 438,375.2 
		438,375.4 437.9,375.4 437.9,375.6 437.6,375.6 437.6,375.7 437.4,375.7 437.4,375.9 437.1,375.9 437.1,376.1 436.6,376.1 
		436.6,376.3 436.4,376.3 436.4,376.4 436.3,376.4 436.3,376.6 436.2,376.6 436.2,376.8 435.9,376.8 435.9,377 434.3,377 
		434.3,376.8 433.5,376.8 433.5,376.6 433.3,376.6 433.3,376.4 433.2,376.4 433.2,376.3 433.1,376.3 433.1,376.1 432.9,376.1 
		432.9,375.9 432.1,375.9 432.1,375.7 430.8,375.7 430.8,375.9 428.5,375.9 428.5,375.7 428.4,375.7 428.4,375.4 428.3,375.4 
		428.3,375 428.1,375 428.1,374.7 428,374.7 428,374.3 427.8,374.3 427.8,373.9 427.7,373.9 427.7,373.6 428,373.6 428,373.4 
		427.7,373.4 427.7,373.2 427.4,373.2 427.4,373.1 426.9,373.1 426.9,372.9 426.8,372.9 426.8,372.5 426.6,372.5 426.6,372 
		426.5,372 426.5,371.8 426.4,371.8 426.4,371.6 426.1,371.6 426.1,371.4 425.8,371.4 425.8,371.3 425.7,371.3 425.7,371.1 
		425.6,371.1 425.6,370.7 425.3,370.7 425.3,370.6 425.2,370.6 425.2,370.4 425,370.4 425,370 424.9,370 424.9,369.8 424.8,369.8 
		424.8,369.7 424.6,369.7 424.6,369.5 424.5,369.5 424.5,369.3 424.4,369.3 424.4,368.9 424.2,368.9 424.2,368.8 423.2,368.8 
		423.2,368.9 420.3,368.9 420.3,368.8 419,368.8 419,368.6 417.5,368.6 417.5,368.4 416.2,368.4 416.2,368.2 414.6,368.2 
		414.6,368.4 414.3,368.4 414.3,368.6 414,368.6 414,368.8 413.8,368.8 413.8,368.9 413.5,368.9 413.5,369.1 413.2,369.1 
		413.2,369.3 412.8,369.3 412.8,369.7 412.3,369.7 412.3,369.5 412,369.5 412,369.7 411.6,369.7 411.6,369.8 410.6,369.8 410.6,370 
		410,370 410,370.2 409.8,370.2 409.8,370.7 409.6,370.7 409.6,370.9 409.4,370.9 409.4,371.1 409.2,371.1 409.2,371.3 408.9,371.3 
		408.9,371.4 408.8,371.4 408.8,371.6 408.7,371.6 408.7,371.8 408.4,371.8 408.4,372 408.3,372 408.3,372.2 408,372.2 408,372.3 
		407.5,372.3 407.5,372.2 407.3,372.2 407.3,372 406.5,372 406.5,371.8 406,371.8 406,371.6 405.9,371.6 405.9,371.4 405.6,371.4 
		405.6,371.3 404.8,371.3 404.8,371.1 404.7,371.1 404.7,370.9 404.4,370.9 404.4,370.7 404.3,370.7 404.3,370.6 404.1,370.6 
		404.1,370.4 404,370.4 404,370.2 403.9,370.2 403.9,370 403.7,370 403.7,369.8 403.5,369.8 403.5,369.7 403.3,369.7 403.3,369.5 
		403.2,369.5 403.2,369.3 402.9,369.3 402.9,369.1 402.6,369.1 402.6,368.9 402.4,368.9 402.4,368.8 402.1,368.8 402.1,368.6 
		401.6,368.6 401.6,368.4 401.3,368.4 401.3,368.2 401,368.2 401,368 399.7,368 399.7,368.2 399.6,368.2 399.6,368.6 399.7,368.6 
		399.7,368.9 399.6,368.9 399.6,369.1 399,369.1 399,369.3 398.8,369.3 398.8,369.5 398.6,369.5 398.6,370.6 398.2,370.6 
		398.2,370.4 398.1,370.4 398.1,370.2 397.8,370.2 397.8,370 397.7,370 397.7,369.8 396.8,369.8 396.8,370 395.9,370 395.9,369.7 
		396.1,369.7 396.1,369.3 396.5,369.3 396.5,369.1 396.9,369.1 396.9,368.9 397.3,368.9 397.3,368.8 397.4,368.8 397.4,368.6 
		397.7,368.6 397.7,368.4 397.8,368.4 397.8,368.2 398,368.2 398,368 398.1,368 398.1,367.7 398.2,367.7 398.2,367.5 398.4,367.5 
		398.4,367.3 398.5,367.3 398.5,367 397.7,367 397.7,367.2 396.3,367.2 396.3,367.3 395.9,367.3 395.9,367.5 395.1,367.5 
		395.1,367.7 394.6,367.7 394.6,367.9 393.9,367.9 393.9,368 393.8,368 393.8,368.2 393.5,368.2 393.5,368.4 393.3,368.4 
		393.3,368.2 392.3,368.2 392.3,368.4 391.7,368.4 391.7,368.6 391.5,368.6 391.5,368.8 391.1,368.8 391.1,368.9 390.7,368.9 
		390.7,369.1 390.5,369.1 390.5,369.3 389.8,369.3 389.8,369.5 389.5,369.5 389.5,369.7 389.4,369.7 389.4,370 389.1,370 
		389.1,370.6 388.8,370.6 388.8,370.7 388.7,370.7 388.7,371.1 388.6,371.1 388.6,371.3 388.3,371.3 388.3,371.4 388.2,371.4 
		388.2,371.8 387.9,371.8 387.9,372 387.5,372 387.5,372.2 385.4,372.2 385.4,372 385.2,372 385.2,372.2 385.1,372.2 385.1,372 
		383.3,372 383.3,372.2 382.8,372.2 382.8,372 382.7,372 382.7,372.2 382.3,372.2 382.3,372.3 381.6,372.3 381.6,372.5 381.3,372.5 
		381.3,372.7 381.5,372.7 381.5,373.1 381.3,373.1 381.3,373.2 381.1,373.2 381.1,373.4 380.9,373.4 380.9,373.6 380.7,373.6 
		380.7,373.8 380.5,373.8 380.5,373.9 380,373.9 380,374.1 378.8,374.1 378.8,374.3 378.1,374.3 378.1,374.5 377.6,374.5 
		377.6,374.7 377.3,374.7 377.3,374.5 376.9,374.5 376.9,374.3 376.4,374.3 376.4,374.1 376.2,374.1 376.2,373.9 376,373.9 
		376,374.1 375.6,374.1 375.6,374.3 375.4,374.3 375.4,374.5 374.5,374.5 374.5,374.3 374,374.3 374,374.5 373.6,374.5 373.6,374.7 
		373.3,374.7 373.3,374.8 373.2,374.8 373.2,375 372.8,375 372.8,375.2 371.7,375.2 371.7,375 371,375 371,374.8 370.2,374.8 
		370.2,375 369.8,375 369.8,374.8 369.3,374.8 369.3,374.7 368.9,374.7 368.9,374.5 368.2,374.5 368.2,374.1 368.1,374.1 
		368.1,374.3 367.8,374.3 367.8,374.7 367.7,374.7 367.7,374.8 367.5,374.8 367.5,375 367.3,375 367.3,375.2 366.9,375.2 
		366.9,375.4 366.5,375.4 366.5,375.6 366.2,375.6 366.2,375.7 365.9,375.7 365.9,376.1 365.8,376.1 365.8,376.3 365.7,376.3 
		365.7,376.6 365.4,376.6 365.4,376.8 365,376.8 365,377.2 364.4,377.2 364.4,377.3 363,377.3 363,377.2 362.4,377.2 362.4,377.3 
		362,377.3 362,377.5 361.2,377.5 361.2,377.7 359.9,377.7 359.9,377.9 359.1,377.9 359.1,378.1 358.9,378.1 358.9,378.2 
		358.5,378.2 358.5,378.4 357.3,378.4 357.3,378.2 356.9,378.2 356.9,378.1 356.7,378.1 356.7,378.6 356.5,378.6 356.5,378.8 
		356.3,378.8 356.3,379 356.1,379 356.1,379.3 356,379.3 356,379.5 355.6,379.5 355.6,379.3 355.2,379.3 355.2,379.1 355.1,379.1 
		355.1,379.3 354.9,379.3 354.9,379.5 354.8,379.5 354.8,379.7 354.4,379.7 354.4,379.5 354,379.5 354,379.3 353.9,379.3 
		353.9,379.5 353.5,379.5 353.5,379.3 353.3,379.3 353.3,379.1 353.2,379.1 353.2,379 351.4,379 351.4,378.8 350,378.8 350,379 
		349.8,379 349.8,379.1 349.7,379.1 349.7,379.3 349.6,379.3 349.6,379.5 348.9,379.5 348.9,379.7 348.6,379.7 348.6,379.8 
		348.5,379.8 348.5,380 348.2,380 348.2,380.2 348,380.2 348,380.4 347.7,380.4 347.7,380.6 347.4,380.6 347.4,380.7 347.2,380.7 
		347.2,380.9 346.9,380.9 346.9,381.1 346.1,381.1 346.1,381.3 345.7,381.3 345.7,381.5 344.5,381.5 344.5,381.3 343.7,381.3 
		343.7,381.1 343.5,381.1 343.5,381.3 343.3,381.3 343.3,381.1 343,381.1 343,381.3 342.7,381.3 341.3,381.3 341.3,381.5 
		341.1,381.5 341.1,381.6 340.7,381.6 340.7,381.8 340.4,381.8 340.4,382 340,382 340,382.2 338.7,382.2 338.7,382.3 338.4,382.3 
		338.4,382.5 338.2,382.5 338.2,382.7 338,382.7 338,382.9 337.7,382.9 337.6,382.9 337.6,383.1 337.4,383.1 337.4,383.2 
		337.1,383.2 337.1,383.1 336.7,383.1 336.7,382.9 335.9,382.9 335.9,383.1 335.8,383.1 335.8,383.2 335.5,383.2 335.5,383.4 
		335.4,383.4 335.4,383.6 335.2,383.6 335.2,383.8 335.1,383.8 335.1,384 335,384 335,384.1 334.7,384.1 334.7,384.3 334.4,384.3 
		334.4,384.5 334,384.5 334,384.7 333.3,384.7 333.3,384.5 331.2,384.5 331.2,384.3 329.5,384.3 329.5,384.1 329.1,384.1 329.1,384 
		328.8,384 328.8,383.8 328.5,383.8 328.5,383.6 328.3,383.6 328.3,383.4 327.8,383.4 327.8,383.2 327.6,383.2 327.6,383.1 
		326.9,383.1 326.9,383.2 326.8,383.2 326.8,383.4 326.2,383.4 326.2,383.6 326.1,383.6 326.1,383.8 326,383.8 326,384 325.8,384 
		325.8,384.1 325.6,384.1 325.6,384.3 325.4,384.3 325.4,384.5 325.3,384.5 325.3,384.7 325,384.7 325,384.8 324.2,384.8 
		324.2,384.7 323.8,384.7 323.8,384.8 323.7,384.8 323.7,385 322.6,385 322.6,385.2 322.4,385.2 322.4,385.4 321.9,385.4 
		321.9,385.6 321.4,385.6 321.4,385.7 321.1,385.7 321.1,385.9 320.9,385.9 320.9,386.1 320.7,386.1 320.7,386.3 320.6,386.3 
		320.6,386.5 320.3,386.5 320.3,386.6 320.2,386.6 320.2,386.8 320.1,386.8 320.1,387 319.8,387 319.8,387.2 319.7,387.2 
		319.7,387.4 319.5,387.4 319.5,387.5 319.4,387.5 319.4,387.7 319.1,387.7 319.1,387.9 319,387.9 319,388.1 318.7,388.1 
		318.7,388.2 318.6,388.2 318.6,388.4 318.1,388.4 318.1,388.6 317.8,388.6 317.8,388.8 317.4,388.8 317.4,389 317,389 317,389.1 
		316.7,389.1 316.7,389 316.5,389 316.5,389.1 316.1,389.1 316.1,389.3 315.9,389.3 315.9,389.5 315.8,389.5 315.8,389.7 
		315.5,389.7 315.5,389.5 315.4,389.5 315.4,389.3 314.4,389.3 314.4,389.1 313.5,389.1 313.5,389 313.1,389 313.1,388.8 313,388.8 
		313,389 312.7,389 312.7,389.1 312.6,389.1 312.6,389.3 312,389.3 312,389.1 311.8,389.1 311.8,389 311.1,389 311.1,389.1 
		310.1,389.1 310,389.1 310,389 309.8,389 309.8,388.8 309.3,388.8 309.3,388.6 309.1,388.6 309.1,388.8 308.8,388.8 308.8,388.6 
		308.5,388.6 308.5,388.8 308,388.8 308,389 307.7,389 307.7,388.8 306.1,388.8 306.1,388.6 305.7,388.6 305.7,388.8 305.2,388.8 
		305.2,388.6 304.3,388.6 304.3,388.8 304.1,388.8 304.1,389 304,389 304,389.1 303.9,389.1 303.9,389.3 303.5,389.3 303.5,389.7 
		302.9,389.7 302.9,389.9 302.5,389.9 302.5,390 302.2,390 302.2,390.2 302.2,390.2 301.8,390.2 301.8,390.4 301.3,390.4 
		301.3,390.3 301.3,390.2 300.8,390.2 300.8,390.3 300.8,390.4 300.5,390.4 300.5,390.6 300.4,390.6 300.4,390.7 299,390.7 
		299,390.9 297.7,390.9 297.6,390.9 297.6,391.1 297.4,391.1 297.4,391.3 297,391.3 297,391.5 296.1,391.5 296.1,391.6 295.4,391.6 
		295.4,391.6 295.4,391.5 293.4,391.5 293.4,391.6 293.1,391.6 293.1,391.8 292.9,391.8 292.9,392 292.6,392 292.6,392.2 
		292.2,392.2 292.2,392.4 291.9,392.4 291.9,392.5 291.8,392.5 291.8,392.7 291.7,392.7 291.7,392.9 291.4,392.9 291.4,393.1 
		290.6,393.1 290.6,393.3 290.3,393.3 290.3,393.4 290.2,393.4 290.2,393.6 289.6,393.6 289.6,393.8 288.7,393.8 288.7,394 
		288.3,394 288.3,394.1 288,394.1 288,394 287.9,394 287.9,393.6 287.6,393.6 287.6,393.4 287.2,393.4 287.2,393.3 285.9,393.3 
		285.9,393.1 285.1,393.1 285.1,392.9 284.8,392.9 284.8,393.1 284.6,393.1 284.6,393.3 283.9,393.3 283.9,393.1 283.5,393.1 
		283.5,393.3 283.1,393.3 283.1,393.4 282.1,393.4 282.1,393.6 281.1,393.6 281.1,393.8 280.7,393.8 280.7,394 280.3,394 
		280.3,394.1 279.6,394.1 279.6,394.3 279.3,394.3 279.3,394.5 279.2,394.5 279.2,394.7 279.1,394.7 279.1,394.9 277.6,394.9 
		277.6,395 277.3,395 277.3,394.9 276,394.9 276,394.7 275.8,394.7 275.8,394.9 275.3,394.9 275.3,395 274.6,395 274.6,394.9 
		274.4,394.9 274.4,394.7 274.2,394.7 274.2,394.5 274.1,394.5 274.1,394.3 274,394.3 274,394.1 273.8,394.1 273.8,394 273.7,394 
		273.7,393.8 273.6,393.8 273.6,393.6 273.3,393.6 273.3,393.4 273.2,393.4 273.2,393.3 273,393.3 273,393.1 272.9,393.1 
		272.9,392.9 272.8,392.9 272.8,392.7 272.6,392.7 272.6,392.5 272.4,392.5 272.4,392.4 272.2,392.4 272.2,392.2 272.1,392.2 
		272.1,392 271.9,392 271.9,391.8 271.8,391.8 271.8,391.6 271.7,391.6 271.7,391.5 271.4,391.5 271.4,391.3 271.3,391.3 
		271.3,391.1 271.1,391.1 271.1,390.9 271.3,390.9 271.3,390.7 271.1,390.7 271.1,390.6 271,390.6 271,390.2 270.7,390.2 
		270.7,389.9 270.6,389.9 270.6,389.7 270.5,389.7 270.5,389.3 270.3,389.3 270.3,389.1 270.2,389.1 270.2,389 269.9,389 
		269.9,388.8 269.8,388.8 269.8,388.6 269.5,388.6 269.5,388.4 269.4,388.4 269.4,388.1 269.3,388.1 269.3,387.5 269.1,387.5 
		269.1,387.4 269,387.4 269,387 268.9,387 268.9,386.8 268.7,386.8 268.7,386.3 268.6,386.3 268.6,385.9 268.5,385.9 268.5,385.7 
		268.3,385.7 268.3,385.6 268.1,385.6 268.1,385.4 267.9,385.4 267.9,385.2 267.8,385.2 267.8,385 267.7,385 267.7,384.8 
		267.5,384.8 267.5,384.7 267.4,384.7 267.4,384.5 267,384.5 267,384.3 266.9,384.3 266.9,384.1 266.7,384.1 266.7,384 266.6,384 
		266.6,383.8 266.5,383.8 266.5,383.6 266.3,383.6 266.3,383.4 266.2,383.4 266.2,383.2 266.1,383.2 266.1,382.9 265.9,382.9 
		265.9,382.5 265.8,382.5 265.8,382.3 265.6,382.3 265.6,382.2 265.5,382.2 265.5,382 265.4,382 265.4,381.6 265.2,381.6 
		265.2,381.5 265.1,381.5 265.1,381.3 264.8,381.3 264.8,380.9 264.7,380.9 264.7,380.7 264.6,380.7 264.6,380.4 264.4,380.4 
		264.4,380 264.3,380 264.3,379.7 264.2,379.7 264.2,379.5 263.9,379.5 263.9,379.1 263.8,379.1 263.8,378.4 263.6,378.4 
		263.6,378.2 263.5,378.2 263.5,378.1 263.4,378.1 263.4,377.9 263.2,377.9 263.2,377.7 263.1,377.7 263.1,377.5 263,377.5 
		263,377.3 262.8,377.3 262.8,377.2 262.7,377.2 262.7,377.3 262.6,377.3 262.6,377.5 262.4,377.5 262.4,377.7 262.3,377.7 
		262.3,377.9 261.5,377.9 261.5,377.7 261.1,377.7 261.1,377.5 260.8,377.5 260.8,377.3 260.7,377.3 260.7,377.2 260.6,377.2 
		260.6,377 260.2,377 259.9,377 259.9,377.2 259.1,377.2 259.1,377.3 258.8,377.3 258.8,377.5 258.7,377.5 258.7,377.9 258.5,377.9 
		258.5,378.1 257.6,378.1 257.6,378.2 257.5,378.2 257.5,378.4 256.9,378.4 256.9,378.6 256,378.6 256,378.4 255.2,378.4 
		255.2,378.2 254.9,378.2 254.9,378.1 254.8,378.1 254.8,377.9 254.7,377.9 254.7,377.7 254.5,377.7 254.5,377.5 254.4,377.5 
		254.4,377.3 254,377.3 254,377.2 253.6,377.2 253.6,377 253.2,377 253.2,376.8 252.9,376.8 252.9,376.6 252.6,376.6 252.6,376.4 
		252.5,376.4 252.5,376.3 252.4,376.3 252.4,376.1 252.1,376.1 252.1,375.9 251.6,375.9 251.6,375.7 251.3,375.7 251.3,375.6 
		251.2,375.6 251.2,375.4 251,375.4 251,375.2 250.9,375.2 250.9,374.5 251,374.5 251,374.3 251.2,374.3 251.2,374.1 251.3,374.1 
		251.3,373.6 251.4,373.6 251.4,373.4 251.6,373.4 251.6,373.2 252.4,373.2 252.4,373.1 253.2,373.1 253.2,372.9 253.3,372.9 
		253.3,372.7 253.6,372.7 253.6,372.5 254.1,372.5 254.1,372.3 254.3,372.3 254.3,372.2 254.5,372.2 254.5,372 254.7,372 
		254.7,371.8 254.8,371.8 254.8,370.6 254.9,370.6 254.9,370.4 255.5,370.4 255.5,370.6 256.1,370.6 256.1,370.9 256.3,370.9 
		256.3,371.3 256.4,371.3 256.4,372 256.5,372 256.5,372.5 256.7,372.5 256.7,372.7 256.9,372.7 256.9,372.9 257.1,372.9 
		257.1,373.1 257.7,373.1 257.7,372.9 257.6,372.9 257.6,372.5 257.5,372.5 257.5,372.3 257.3,372.3 257.3,372 257.2,372 
		257.2,371.6 257.1,371.6 257.1,371.3 256.9,371.3 256.9,370.9 256.8,370.9 256.8,370.6 256.7,370.6 256.7,370.2 256.5,370.2 
		256.5,369.8 256.4,369.8 256.4,369.7 256.3,369.7 256.3,369.5 256.1,369.5 256.1,369.1 256,369.1 256,368.5 256,368.2 255.9,368.2 
		255.9,367.7 255.7,367.7 255.7,366.8 255.6,366.8 255.6,365.5 255.5,365.5 255.5,365.2 255.3,365.2 255.3,363.4 255.2,363.4 
		255.2,363 255.1,363 255.1,361.1 254.9,361.1 254.9,360.2 254.8,360.2 254.8,360 254.7,360 254.7,359.8 254.4,359.8 254.4,360.5 
		254.3,360.5 254.3,360.9 254.4,360.9 254.4,361.1 254.1,361.1 254.1,361.3 254,361.3 254,361.4 253.9,361.4 253.9,361.6 
		253.7,361.6 253.7,361.8 253.6,361.8 253.6,362 253.4,362 253.4,362.3 253.3,362.3 253.3,362.5 253.2,362.5 253.2,362.7 253,362.7 
		253,363 252.9,363 252.9,363.6 252.8,363.6 252.8,363.8 252.6,363.8 252.6,363.9 252.5,363.9 252.5,364.1 252.4,364.1 252.4,364.3 
		252.2,364.3 252.2,364.7 252.1,364.7 252.1,364.8 252,364.8 252,365 251.8,365 251.8,365.2 251.7,365.2 251.7,365.4 251.6,365.4 
		251.6,365.5 251.4,365.5 251.4,365.7 251.3,365.7 251.3,365.9 251.2,365.9 251.2,366.1 251,366.1 251,366.3 250.9,366.3 
		250.9,366.4 250.8,366.4 250.8,366.6 250.6,366.6 250.6,366.8 250.5,366.8 250.5,367 250.4,367 250.4,367.2 250.1,367.2 
		250.1,367.3 250,367.3 250,367.5 249.7,367.5 249.7,367.7 249.6,367.7 249.6,367.9 249.3,367.9 249.3,368 249.2,368 249.2,368.2 
		249,368.2 249,368.4 248.8,368.4 248.8,368.6 248.6,368.6 248.6,368.8 248.5,368.8 248.5,368.9 248.4,368.9 248.4,369.1 248,369.1 
		248,369.3 247.8,369.3 247.8,369.5 247.7,369.5 247.7,369.8 247.6,369.8 247.6,370 247.3,370 247.3,370.2 247,370.2 247,370.4 
		246.5,370.4 246.5,370.6 246.2,370.6 246.2,370.7 245.5,370.7 245.5,370.6 245.4,370.6 245.4,370.7 245.1,370.7 245.1,370.9 
		245,370.9 245,371.3 244.9,371.3 244.9,371.4 244.6,371.4 244.6,371.6 244.5,371.6 244.5,371.8 244.3,371.8 244.3,372 243.7,372 
		243.7,372.2 243,372.2 243,372.3 242.7,372.3 242.7,372.5 242.5,372.5 242.5,372.7 242.1,372.7 242.1,372.9 241.8,372.9 
		241.8,373.1 241.5,373.1 241.5,372.9 241.1,372.9 241.1,373.1 240.7,373.1 240.7,373.2 240.4,373.2 240.4,373.6 240.3,373.6 
		240.3,373.8 240.2,373.8 240.2,373.9 240,373.9 240,374.1 239.8,374.1 239.8,374.3 239.6,374.3 239.6,374.1 239.2,374.1 
		239.2,374.3 239.1,374.3 239.1,374.5 239,374.5 239,374.7 238.7,374.7 238.7,374.8 238.3,374.8 238.3,375 238.2,375 238.2,375.4 
		238,375.4 238,375.7 237.9,375.7 237.9,376.1 237.8,376.1 237.8,376.3 237.5,376.3 237.5,376.4 237.4,376.4 237.4,376.6 
		237.2,376.6 237.2,376.8 237.1,376.8 237.1,377 237,377 237,377.2 236.8,377.2 236.8,377.3 236.7,377.3 236.7,377.5 236.6,377.5 
		236.6,377.7 236.4,377.7 236.4,377.9 236.2,377.9 236.2,378.1 235.9,378.1 235.9,378.2 235.8,378.2 235.8,378.4 235.6,378.4 
		235.6,378.6 235.2,378.6 235.2,378.8 235,378.8 235,379 234.8,379 234.8,379.1 234.7,379.1 234.7,379.3 234.6,379.3 234.6,379.5 
		234.4,379.5 234.4,379.7 234.3,379.7 234.3,379.8 234.1,379.8 234.1,380.2 234,380.2 234,380.4 233.9,380.4 233.9,380.6 
		233.6,380.6 233.6,380.7 233.5,380.7 233.5,380.9 233.3,380.9 233.3,381.1 233.2,381.1 233.2,381.5 233.2,383.2 233.1,383.2 
		233.1,383.8 232.9,383.8 232.9,384.3 232.8,384.3 232.8,384.7 232.7,384.7 232.7,384.8 232.5,384.8 232.5,385 232.4,385 
		232.4,385.4 232.3,385.4 232.3,385.6 232.1,385.6 232.1,385.7 231.9,385.7 231.9,385.9 231.6,385.9 231.6,386.1 231.5,386.1 
		231.5,386.3 231.3,386.3 231.3,386.5 231.1,386.5 231.1,386.6 230.9,386.6 230.9,386.8 230.8,386.8 230.8,387 230.7,387 
		230.7,387.2 230.5,387.2 230.5,387.4 230.4,387.4 230.4,387.5 230.3,387.5 230.3,387.7 230.1,387.7 230.1,387.9 230,387.9 
		230,388.1 229.7,388.1 229.7,388.2 229.6,388.2 229.6,388.4 229.3,388.4 229.3,388.6 229.1,388.6 229.1,388.8 228.9,388.8 
		228.9,389 228.5,389 228.5,389.1 228.1,389.1 228.1,389.3 227.7,389.3 227.7,389.5 226.6,389.5 226.6,389.3 226,389.3 226,389.5 
		225.4,389.5 225.4,389.7 224.8,389.7 224.8,389.5 224.6,389.5 224.6,389.3 224,389.3 224,389.5 223.7,389.5 223.7,389.7 
		223.3,389.7 223.3,389.9 222.4,389.9 222.4,390 221.9,390 221.9,390.2 221.7,390.2 221.7,390.4 221.3,390.4 221.3,390.6 221,390.6 
		221,390.7 220.9,390.7 220.9,390.9 220.6,390.9 220.6,391.1 220.2,391.1 220.2,391.3 219.9,391.3 219.9,391.5 219.7,391.5 
		219.6,391.6 217.3,394.5 215.6,397.8 215,399.6 214.3,403.5 213.9,409.4 214.1,476.3 217.5,477.2 224.5,479.6 272.9,479.7 
		278.6,479.4 284.2,478.5 287.4,477.4 294.5,474 307.6,470.5 316.1,466 322.2,463.3 330.6,458.6 341.1,454.5 347.4,452.6 350.5,451 
		358.3,448.1 365.4,444.4 368.6,443.2 372.3,442.4 376,442.1 385.5,442.1 391.1,442.8 394.7,443.8 403.1,448.3 409.3,451 
		416.2,454.9 419.3,456.1 424.2,457.3 430.8,459 437.9,462.5 441,463.6 446.1,464.5 452.4,465.2 464.6,464.9 492.1,464.9 
		497.8,464.5 501.6,463.8 504.8,462.6 511.8,458.8 518,456.1 526.4,451.6 529.6,450.6 537.9,448.7 541,447.5 547.9,443.7 554.1,441 
		559.7,437.9 562.6,436.6 566.1,435.7 569.8,435.2 586.7,435 590.4,434.7 594,434.2 595.8,433.8 599,432.4 601.7,430.6 605.5,427.5 
		606.1,424 607.1,420.7 610.5,413.3 611.6,410.2 613.5,401.6 614.4,398.2 617.8,390.9 619,387.7 620.8,377.3 623.2,367.7 
		630.8,356.6 632.3,353.7 633.1,350.5 633.3,348.8 632.8,345.5 631.7,342.5 629,336.9 628,333.3 627.4,329.5 626.9,321.7 
		627.1,315.8 627.6,312 628.7,308.4 629.5,306.9 631.5,304.3 633.9,302.2 635.3,301.3 647,296.2 653.1,293.8 661.2,292 662.8,291.4 
		665.5,289.6 667.8,287.3 668.7,286 669.5,284.5 670.5,281.1 670.8,277.6 670.1,272.4 669,269.3 665.6,262.1 664.3,256.3 
		663.7,246.1 663.8,225.3 659,224.2 656.1,222.8 653.6,220.8 651.5,218.4 649.8,215.6 647.7,211.1 644.8,206.7 641.3,202.6 
		633.9,194.6 630.7,190.4 629,187.3 628.5,185.6 628.1,183.8 627.9,180.3 628.1,176.7 	"/>
</g>
</svg>
