<?xml version="1.0" encoding="utf-8"?>
<!-- Generator: Adobe Illustrator 24.2.3, SVG Export Plug-In . SVG Version: 6.00 Build 0)  -->
<svg version="1.1" id="Layer_1" xmlns="http://www.w3.org/2000/svg" xmlns:xlink="http://www.w3.org/1999/xlink" x="0px" y="0px"
	 viewBox="0 0 850 567" style="enable-background:new 0 0 850 567;" xml:space="preserve">
<style type="text/css">
	.st0{fill:#F2933D;stroke:#000000;stroke-width:0.4;stroke-miterlimit:9;}
</style>
<polygon class="st0" points="667.1,416.5 666.7,414.8 665.6,412.3 664.8,410.3 663.4,407.6 662.6,405.7 661.8,404.3 660.7,403.1 
	654.6,396.7 653.5,395.6 652.6,395 651.7,394.5 650.9,394.2 649.5,394.1 648.1,394.1 647.7,392.2 647.5,390.4 647.4,387.4 
	647.5,385 647.7,383.8 648,382.7 649,380.4 649.3,379.4 649.5,378.2 649.8,375.2 650,374.1 650.4,373 651.5,370.8 652.3,368.8 
	653.5,366.6 654.6,364.3 656,361.6 656.8,359.7 657.9,357.5 658.3,355.9 658.6,352.1 658.7,350 658.6,347.9 658.4,346.3 658,345.4 
	656.9,343.2 656.1,341.2 654.6,338.6 654,337.1 653.6,336.2 653,335.4 651,333 650.5,332.1 649.1,329.3 648.5,328.5 646.6,326.1 
	646,325.2 644.7,322.4 644.1,321.6 641.9,318.7 641.4,317.9 640.5,316 639.6,314.6 638.2,313 634.4,309 633.3,307.7 632.4,306.4 
	631.8,304.9 631.3,304 630.7,303.1 629.7,301.8 628.1,300.2 626.5,298.7 625.7,298.2 625.2,298 624.3,297.7 622.9,295.2 621.5,293 
	620.8,291.7 618,289.6 614.3,285.9 613.1,284.8 612.3,284.3 611.8,284.1 611,283.8 609.8,283.5 605.1,283.5 603.3,283.6 
	602.2,283.7 601.1,284 600.5,284.3 598.5,285.4 596.6,286.2 594.6,287.3 593.5,287.8 592.3,288 589.5,288.3 588.3,288.5 
	587.2,288.9 585.1,289.9 584,290.2 582.2,290.4 577.3,290.5 575.5,290.7 574.4,291 571.7,292.1 570.7,292.4 569,292.6 565.5,292.8 
	563.8,293.1 562.8,293.5 560.6,294.5 559.5,294.8 558.3,294.9 556.5,295 547.9,295 544.9,295.1 543.2,295.5 541.1,296.5 540,296.9 
	538.9,297.1 537.7,297.2 533.3,297.3 529.1,297 525.5,297.3 523.8,297.7 522.7,298 520.6,299 519.4,299.3 518.2,299.5 516.4,299.6 
	513.9,299.5 512,299.3 510.3,298.9 505.9,297.1 505,296.6 504.3,295.9 503.6,295.1 503.4,294.7 502.5,292.9 502,291.9 500.9,290.7 
	498,287.3 497.3,286.5 496.7,285.5 495.9,283.6 494.5,281 493.7,279 492.3,276.4 491.5,274.4 490.1,271.8 489.3,269.8 487.8,267.2 
	487.1,265.2 485.9,263 485.4,261.5 484.9,258.8 484.6,257.9 483.4,255.6 482.6,253.7 481.2,251.1 480.4,249.1 479.4,247.4 
	479,246.4 478.8,245.4 478.6,243.7 478.6,241.4 478.6,237.4 479,235.9 479.4,234.9 480,233.9 481.7,231.7 482.4,230.8 482.9,229.9 
	483.5,228.4 484.6,226.2 485,225.2 485.5,222.6 485.8,221.5 486.2,220.6 487.2,218.8 487.7,217.7 487.6,214.4 487.7,211.6 
	488.1,210 489,207.7 489.4,206.7 489.6,205.6 489.9,202.6 490.2,201.4 490.5,200.4 491.5,198.1 492.5,193.9 493.8,191.2 494.8,187 
	496,184.3 496.3,183.3 496.7,181.2 497,180.1 498.7,176.3 499.4,175.2 500.4,174.1 501.2,173.5 502.5,172.8 503.4,172.3 
	504.4,171.3 505,170.5 505.9,168.7 506.4,167.7 507.5,166.5 509.7,164 510.8,162.7 511.3,161.8 511.6,161.4 511.9,160.5 
	510.2,156.8 509.5,154.8 508.1,152.2 507.3,150.2 505.9,147.6 505.1,145.6 503.9,143.4 502.9,141 501.4,138.4 500.6,136.4 
	499.6,135.1 497.9,132.9 497.3,132 497.1,131.4 496.9,130.9 496.7,129.8 496.5,128.2 496.6,119.5 496.7,116.1 496.9,114.5 
	497.1,113.4 498.2,111.2 498.5,110.2 498.7,109.1 498.9,107.3 498.9,85.2 498.8,82.9 498.4,81.2 498,80.3 497.1,78.5 496.3,76.6 
	494.9,74 494.1,72 492.9,69.8 492.1,67.9 491.6,66.9 490.9,66 489.8,64.7 485.4,60.1 484.7,59.2 484,58.3 483.5,57.4 482.7,55.5 
	481.5,53.3 480.5,50.8 479.6,49.1 478.7,47.2 478.2,46.2 477.2,44.8 474,41.3 473.3,40.4 472.7,39.4 471.4,36.1 470.8,34 
	468.5,36.6 462.3,43.2 461.2,44.2 460.1,45.1 459.3,45.4 458.9,45.5 458.4,45.5 458,45.3 456.5,44.6 456,44.5 455.5,44.4 
	454.5,44.3 453.5,44.3 452.9,44.4 452.4,44.6 451.6,45.1 451.2,45.5 450.6,46.2 450.1,47.1 449.5,48.6 448.6,50.3 448.2,51.3 
	447.9,52.3 447.8,53.4 447.4,55.1 447.1,56 446.2,57.2 445.2,58.4 444.4,59.1 443.6,59.7 442.8,60.1 441.7,60.6 440.9,61.1 
	440.1,61.7 438.2,63.2 437.5,63.7 437.1,63.9 436.6,63.9 436.2,63.9 435.4,63.5 434.6,62.9 432.8,61.3 432,60.7 430.2,59.8 
	428,58.6 427.1,58.2 426.1,58 425.1,57.9 423.5,57.8 422,57.9 421,57.9 420,58.1 419,58.4 418.5,58.6 417.3,59.6 416.1,60.7 
	411.6,65.4 406.6,70.5 404.8,72.5 404.2,73.3 403.6,74.2 403,75.8 402.5,76.6 400.2,79.9 399.7,80.8 399,82.2 397,82.4 396.2,82.3 
	392.3,80.5 390.2,79.3 389.2,78.9 388.6,78.8 387,78.6 384.6,78.5 380.6,78.5 378.3,78.6 377.2,78.9 376.2,79.3 375.3,80 
	374.5,80.7 373.4,82 372.7,82.9 371.9,84.8 371.4,85.7 370.8,86.5 370.1,87.2 369.2,87.7 365.8,89.5 364.8,89.8 364.3,89.8 
	363.8,89.7 362.8,89.4 361.6,88.6 358.9,86.5 357.7,86.2 355.4,85.5 354.5,85 354.1,84.8 353.3,84.1 352.7,83.4 351.4,81.5 
	350.7,81 348.3,79.5 346.9,78.9 344.4,78.4 343.4,78.1 342.5,77.6 340.8,76.6 338.5,75.3 336.4,76 332.7,76.7 331.8,77 330,77.8 
	329,78.2 327.9,78.4 325,78.7 323.9,78.9 322.9,79.3 320.7,80.3 318.7,80.9 317.6,81.1 316.7,81.4 315,82.3 314.1,82.7 313.1,82.8 
	312.6,82.8 311.6,82.5 309.6,81.4 307.7,80.5 307.3,80.2 306.4,79.6 305.6,78.8 301,74.1 299.4,72.6 298.5,72.1 296.6,71.2 
	294,69.8 292.1,69 290.9,68.1 289.8,67 288.8,65.9 287.9,64.6 287.1,62.6 286.6,61.7 285.6,60.4 284.1,58.7 282.5,57.2 281.2,56.2 
	280.2,55.7 278.8,55.1 277.6,54.4 276.2,55 274.2,55.5 274.1,57.8 273.9,59.4 273.6,60.4 272.6,62.7 271.7,66.3 271.5,66.8 
	271,67.6 270.3,68.4 269.5,68.9 267.3,70.1 265.2,71.3 263.3,72.1 261.1,73.3 260.2,73.6 259.1,73.8 257.6,73.7 256.5,73.5 
	255.6,73.1 253.9,72.1 251.5,71.2 249.9,70.3 249.7,75.2 249.7,80 249.8,81.2 250.1,82.3 250.4,83.3 251.4,85.6 251.8,87.3 
	251.9,89.2 252,91.7 252,94.8 251.8,96.6 251.7,97.8 251.4,99 250.2,101.7 249.1,105.9 247.6,109.1 246.6,111.7 245.6,113.2 
	244.8,115.1 243.6,117.3 242.8,119.2 242.3,120.1 241.4,121.4 239.6,123.3 239,124.7 238.5,126.8 238.3,129.6 238,131.2 
	236.8,133.9 236.5,134.9 235.9,137.5 235.5,138.5 234.6,140.3 234.4,140.8 234.2,141.8 234,142.9 234,144.6 234.1,145.7 
	234.2,146.8 234.6,147.8 235.7,150 236.6,151.9 237.2,152.9 237.9,153.8 239.1,155 240.4,156 241.2,156.5 242.7,157.1 244,158 
	245.5,159.4 247.3,161.3 246.2,162.3 245.4,162.9 244.6,163.3 243.1,164 242.2,164.6 239.5,166.9 238.7,167.5 237.9,167.9 
	236.4,168.6 233.8,170.1 232.3,170.7 231.5,171.2 230.7,171.8 228.3,173.8 227.5,174.4 226.7,174.8 225.2,175.5 224.4,176.1 
	221.7,178.4 220.9,179 220.1,179.4 218.6,180.1 216,181.6 214.1,182.3 212.2,183.1 209.9,184.4 208.8,185.2 207.6,186.2 
	204.6,189.2 203.9,189.9 203,190.5 202.2,190.9 200.3,191.8 198.2,193 196.3,193.8 195.4,194.4 194.3,195.4 191.3,198.4 
	190.5,199.1 189.7,199.7 188.8,200.2 187.4,200.8 185.3,201.8 184.5,202 183.8,202 183.1,203.9 182.9,204.9 182.7,206.5 
	182.6,208.6 182.8,210.2 183,211.2 183.3,212.1 183.9,213 184.6,213.8 185.6,214.9 192.7,222.2 194.2,223.7 195,224.4 195.8,225 
	196.6,225.4 198.1,226.1 198.5,226.3 199.4,226.9 200.6,228 202.5,229.9 214.6,242.6 216.5,244.4 217.6,245.4 218.4,245.9 
	220.3,246.8 220.7,247 221.5,247.6 223,249 225,251.2 228.4,254.3 229.6,255.1 231.4,256 232.3,256.6 233.6,257.6 235.6,259.5 
	236.7,260.8 237.7,262.1 237.9,262.6 238.2,263.7 238.4,265.4 238.4,266.5 238.3,267.6 238.1,268.7 237.9,269.2 237.5,270.2 
	236,272.7 235.5,273.4 234.7,274 231.9,275.7 229.1,276.9 225.9,278.8 224.6,279.3 222.5,280.3 221.5,280.6 218.9,281.2 
	217.9,281.6 217,282.2 215.8,283.3 214.2,284.8 212.8,286.5 211.9,287.9 211,289.8 209.9,292 209.6,293 209.4,294.1 209.3,295.8 
	209.4,297.5 209.6,299.9 209.4,302.1 209.4,304.4 209.7,305.9 210.7,308.5 210.7,309.7 211.4,311.8 211.9,312.8 212.4,313.7 
	213.7,315.3 213.7,326.5 213.7,328.3 213.5,330.1 213.2,331.3 212.2,333.5 211.8,334.5 210.9,338.1 209.7,340.9 209.4,342.6 
	209.1,345.6 208.8,346.8 208.5,347.8 207.5,350.1 206.6,353.7 206.3,354.7 205.2,357 204.7,359 204.6,361.3 204.4,362.9 204,363.9 
	203.2,365.7 202.9,366.7 202.7,367.9 202.4,370.9 202.1,372.1 201.8,373.1 200.9,375.2 200.5,376.9 200.4,378.2 200.3,380.1 
	200.2,385.1 200,387.6 199.7,388.7 198.5,391.5 198,393.5 197.7,395.1 197.3,396.1 196.5,397.4 194.6,400 196.1,401.1 197.3,402.1 
	198.4,403.2 199.3,404.3 199.8,405.2 200.6,407.2 201.8,409.3 202.2,410.7 204.2,411.6 206.7,412.4 209.2,413.9 211.1,414.7 
	213.3,415.9 214.8,416.3 217.2,416.6 222.6,416.6 225,416.7 226.7,417.1 228.9,418.1 229.9,418.5 231,418.7 232.3,418.8 236,418.9 
	248,418.8 252.2,418.9 254.5,419.1 255.6,419.4 257.8,420.4 258.8,420.8 259.8,421 262.4,421.2 263.5,421.4 264.5,421.7 265,422 
	265.9,422.6 268.9,425 271.2,426.2 272.1,426.9 273,427.6 275,429.5 283.4,438.2 292.2,447.4 294.4,449.6 295.2,450.2 296,450.7 
	297.9,451.6 298.6,452.1 299.7,453 301.8,455 302.9,455.9 303.7,456.4 304.9,457 306.6,460.5 307.1,462.1 307.5,462.9 308.6,465.1 
	309.8,466 311,466.9 312.4,468.4 315.6,471.6 317,472.9 317.8,473.5 318.2,473.7 319.7,474.4 320.5,474.8 321.3,475.4 322,476 
	324.2,478.2 328,482.2 329.4,483.8 330.3,485 331,486.9 331.8,490 332.9,492.3 333.2,493.3 333.5,495.1 333.6,498.7 333.8,500.4 
	334.1,501.5 335,503.8 335.4,504.9 335.6,506 335.9,509 336.1,510.2 336.3,510.7 336.8,511.6 338,513.3 340,513.8 342.2,514.9 
	343.6,515.3 345.8,515.5 347.4,515.4 348.7,515.2 351.8,515.6 353.4,516 354.3,516.4 356.7,517.9 357.4,518.5 358,519.2 
	359.6,522.2 360.6,524.6 362,527.2 362.8,529.2 364.6,533 368.2,530.5 369.3,529.9 369.8,529.7 371,529.5 372.1,529.4 376.8,529.3 
	380.4,527.6 381.4,527.3 383.5,526.9 384.5,526.6 384.9,526.4 386.2,525.4 389.4,522.3 390.7,521.3 391.6,520.7 392.1,520.6 
	393.6,520.2 394,519 394.3,518.6 395,518 397.3,516.5 398.2,516 403.1,514 405.7,513.3 407.2,511.1 407.8,510.3 408.8,509.1 
	411.8,506 412.8,504.8 413.5,503.7 414.8,501.4 411.3,500 410.2,499.7 408.2,499.3 407.2,499 404.6,497.7 403,497.4 400.4,497.1 
	398.8,496.8 397.8,496.5 396.1,495.6 395.2,495.3 393.6,495 389.8,494.9 388.7,494.8 387.7,494.6 387.2,494.4 386.2,493.9 
	384.9,492.8 381.6,489.6 379.7,487.5 378.7,486.1 378.4,485.6 378.2,484.5 378.1,484 378.1,482.9 378.3,481.8 378.5,481.2 
	379,480.3 379.7,479.4 380.9,478.1 384.5,474.4 386.1,472.7 387,471.3 388.1,468.9 388.5,468.8 389,468.4 390.9,465.4 391.9,462.9 
	393.2,460.2 393.7,458.1 395,456.5 395.5,455.6 395.9,454.6 396.5,452.7 396,450.5 395.8,448.1 395.9,445.2 396.1,443.6 
	396.6,442.6 397.3,442 399.3,440.8 400.6,440.1 401.6,439.8 404.1,439.3 405,438.9 406.8,438.1 407.7,437.7 408.8,437.6 
	409.8,437.6 410.9,437.8 411.8,438.1 413.9,439.3 415.8,440.2 417.9,441.4 419.5,441.9 421.2,442.1 423.6,442.1 425.4,442 
	428.2,441.6 426,438.6 425.2,437.3 424.4,435.4 423.3,433.2 423.1,432.7 422.8,431.6 422.7,430.5 422.6,429.4 422.7,428.3 
	422.8,427.2 423.3,425.7 424.2,423.9 424.5,422.9 425.1,420.3 426.7,416.6 427.3,415.1 427.8,414.1 428.4,413.2 429.6,411.9 
	430.8,410.8 431.7,410.2 433.6,409.3 435.8,408.2 436.2,408 437.3,407.7 438.4,407.6 440.1,407.5 447,407.7 449.3,407.6 
	450.9,407.3 451.4,407.1 452.2,406.6 453,405.9 453.5,405.1 454.6,402.7 457.5,398.6 458.4,396.8 458.9,395.9 459.6,395.1 
	459.9,394.8 460.8,394.2 461.3,394 462.4,393.8 464.9,393.7 469.3,393.8 472.8,394.3 473.8,395.8 475.2,397.4 483.7,406.3 
	484.8,407.5 486,408.6 486.9,409.3 487.4,409.5 487.9,409.7 489,409.9 491.1,410.1 492.8,410.1 493.9,410 494.9,409.8 495.4,409.7 
	496.4,409.2 497.1,408.6 497.8,407.9 498.7,406.4 499,406.1 499.8,405.6 500.6,405.3 500.7,402.5 501.1,400.9 502.3,398.2 
	502.6,397.2 503,395.1 503.3,394 504.6,391.3 505.5,389.4 506.4,388 508.1,385.8 508.8,384.9 509.9,382.5 510.8,381.1 511.9,379.9 
	513,378.6 515,376.8 516.4,375.8 518.3,375 520.8,373.5 522.7,372.7 525.3,371.3 527.2,370.4 529.7,369 532.1,367.9 534.2,366.6 
	536,365.8 537.8,364.9 538.6,364.4 539.7,364.1 541.4,364 547.8,363.9 549.5,363.8 550.6,363.7 553.1,367.9 553.6,368.8 
	553.9,369.8 554.3,371.9 554.5,373 555.6,375.2 555.9,376.2 556.4,378.8 556.7,379.9 558.1,382.6 558.9,384.5 560.2,387.2 
	560.5,388.2 560.9,390.3 561.2,391.4 562.4,394.1 562.7,395.1 563.1,397.2 563.4,398.3 564.4,400.5 564.8,401.5 564.9,402.6 
	565.2,405.9 565.6,407.5 565.9,408.4 566.8,410.2 567.4,411.7 567.9,412.6 569,414 570.6,415.5 571.9,416.5 573.8,417.3 
	574.7,417.9 576,419 577.1,420.3 577.7,421.2 578.1,422.2 578.7,425.4 579,426.4 580.4,428.9 581,429.7 581.3,430 581.7,430.3 
	582.7,430.6 586,431.1 587,431.3 589.2,432.3 590.2,432.6 591.8,432.9 594,433 595,433.2 596,433.5 598.2,434.6 599.1,435 
	600.2,435.2 603.4,435.4 604.4,435.6 604.9,435.8 605.8,436.2 607.5,437.2 609.4,438 610.3,438.6 611.5,439.6 618,446.3 
	619.2,447.5 620.5,448.6 623,447.2 625,446.4 627.5,445 629.4,444.1 630.6,443.2 632.9,441.2 633.8,440.7 634.2,440.5 634.7,440.3 
	635.8,440.1 638.5,440 638.8,438.4 639.2,437.5 639.8,436.7 640.5,436 641.4,435.5 643.2,434.7 645.3,433.5 646.7,432.9 
	647.6,432.4 648.4,431.8 650.8,429.8 652,428.9 653.9,428.1 656.5,426.6 658.8,425.6 660.5,424.6 662.3,423.7 663.2,423.2 
	663.9,422.6 664.6,421.8 665.8,419.7 666.4,419 667.4,418 "/>
</svg>
