<?xml version="1.0" encoding="utf-8"?>
<!-- Generator: Adobe Illustrator 24.2.3, SVG Export Plug-In . SVG Version: 6.00 Build 0)  -->
<svg version="1.1" id="Layer_1" xmlns="http://www.w3.org/2000/svg" xmlns:xlink="http://www.w3.org/1999/xlink" x="0px" y="0px"
	 viewBox="0 0 850 567" style="enable-background:new 0 0 850 567;" xml:space="preserve">
<style type="text/css">
	.st0{fill:#F2933D;stroke:#000000;stroke-width:0.4;stroke-miterlimit:9;}
</style>
<polygon class="st0" points="698.7,320.8 696.6,316.1 695.9,314.1 694.7,308.6 694.2,306.5 689.1,295.8 687,293 684.6,290.2 
	673.4,278.8 668.9,274.8 664.7,271.9 664,271.3 662.8,269.7 660.4,265.5 659,262.7 658.7,261.5 658.3,259.1 658.1,255.4 
	658.3,215.2 642.8,199.2 639.1,195.2 637.7,193.5 636.6,191.7 635.7,190 634.4,186.9 632.8,184.7 630.9,183 629.4,182.1 
	627.1,181.1 625.5,180.3 623.9,179.1 622.3,177.8 619.3,174.9 608,163.5 605.9,161.2 604.7,159.5 604.2,158.5 603.9,157.6 
	603.6,156.5 603.5,155.3 603.6,154.2 603.9,153.1 604.3,152.1 604.9,151.1 606.2,149.2 610.6,144.1 613.2,139.9 615.5,137.3 
	616.4,135.6 617.6,131.7 618.9,127.6 610.8,124.8 606.3,124.2 601.7,124.2 598.4,124.4 595.1,125 593.1,125.7 588.6,127.9 
	586.3,128.5 581.4,129 575.1,129 570.6,129.3 567.4,129.9 565.4,130.6 560.8,132.8 557.4,133.6 552.6,133.9 549,133.8 546.6,133.6 
	543.1,132.8 538.6,130.6 536.5,129.8 534.2,129.4 527,128.5 524.7,127.9 519.2,125.3 517.1,124.7 511.8,123.4 509.9,122.7 
	505.3,120.4 499,118.7 491.7,115.3 487.6,113.7 482.2,110.8 480.1,110.2 476,109.4 474.2,105.9 472.4,100.7 469.8,95 469.1,91.4 
	468.4,85.2 468,82.8 467.3,80.6 465.6,76.9 464.9,74.7 464.4,72.3 464.2,69.9 464.2,66.1 464.4,62.4 465,58.8 466.5,54.2 
	466.8,52.4 466.7,51.5 466.1,49.8 461.9,41.8 455.5,43.9 450,46.6 446.5,47.4 442.9,47.7 435.4,47.8 426.7,47.7 421.8,47.4 
	419.5,47 417.4,46.2 413,43.7 409.1,42 403.8,38.8 400,37 396.5,35 394.7,34.3 392.6,34 390.5,34.3 388.6,35 381.5,38.9 380,40 
	378.6,41.4 376.3,46.2 373.7,50.9 372.8,52.8 372.1,54.9 371,60.4 370.3,62.4 368.2,67.1 367.6,69.3 366.7,73.6 366.1,75.8 
	364.6,78.6 359.8,85.5 359,89 357.6,93.3 356.9,95 356.4,95.9 355.2,97.7 351.2,102.7 349.9,104.4 349,106.1 347.6,109.3 
	346.6,110.9 345.4,112.7 342.4,116.2 340.6,118.7 335.6,129.2 335,131.6 334.2,139.1 333.8,141.5 333.1,143.6 331,148.3 
	330.2,151.9 329.9,156.9 330,169.9 329.8,172.5 329.5,175.1 329.1,176.3 328.3,178.2 325.8,182.5 324.7,184 324,184.7 323.1,185.3 
	322.1,185.7 320,186.1 311.9,186.5 308.4,187 306.3,187.7 301.7,189.9 298.1,190.7 294.4,191 289.3,191.1 285.5,190.9 281.8,190.5 
	279.4,189.9 274.8,187.7 272.8,187 270.4,186.5 263.2,185.7 259.9,184.7 252.6,180.9 250.8,179.8 248.6,177.8 245.2,173.4 
	243.7,172.4 242,171.7 239.3,175.1 238.2,176.9 236.4,180.8 234,185.4 233.3,187.5 232.9,190.9 233.1,194.4 233.5,196.6 235,200.3 
	229.9,208.4 229,210.4 228.7,211.5 228.3,213.7 228.1,216 228,226.7 227.6,231.3 227,233.5 224.9,238.2 224.2,240.2 223.8,242.4 
	223,250.4 222.4,252.6 222,253.6 219.7,258.2 218.4,261.2 217.4,263.2 215.3,265.9 209.1,272.7 206.9,275.4 205.8,277.3 
	203.9,281.3 202.7,283.2 199.8,286.9 194,293.1 189.7,297.2 186.9,299.3 185,300.4 182,301.7 176.7,304.8 172.8,306.4 167.4,309.3 
	165.3,309.9 160,311 158,311.8 156.2,312.9 149,317.8 149.2,325.8 149.3,346.5 150.4,349.2 152.9,353.7 154.6,357.8 155.8,359.8 
	157.2,361.6 159.7,364.2 161.4,365.7 163.4,366.9 167.3,368.7 172.7,371.5 174.8,372.2 179,373 181.1,373.6 185.6,375.9 
	187.6,376.6 189.8,377 192,377.2 204.6,377.4 206.8,377.7 208.9,378.2 210.8,379.1 214.3,381.1 218.2,382.9 221,384.8 223.5,387.1 
	227.5,391.3 230.4,394.9 231.6,396.8 232.9,399.8 233.9,401.8 240.2,410.2 241.2,412.2 242.5,415.2 245.5,420.7 247.1,424.7 
	249.5,429.4 250.1,431.4 250.5,433.7 251.1,440.5 251.8,443.9 253,446.7 255.6,451.8 255.7,458.4 256.6,465.8 257.6,465.5 
	258.2,465.5 258.9,465.8 259.5,466.2 260,466.8 262,470.8 263.4,474.8 264.1,478.1 264.6,483.5 264.6,507.9 264.6,525.6 
	268.7,524.5 273.2,522.2 275.3,521.5 277.7,521.1 281.3,520.8 305.1,520.8 312.6,521 316.2,521.3 318.5,521.7 322,523 323.6,523.5 
	324.5,523.5 325.3,523.3 326.9,522.4 328.1,521 329.1,519.4 330.9,515.6 332.2,513.7 333.6,511.9 336.1,509.4 338.9,507.3 
	342.8,505.5 347.3,503.1 349.3,502.5 351.5,502.1 358.1,501.4 361.3,500.7 363.2,499.8 366.8,497.9 370.7,496.2 376,493.1 
	379.9,491.4 384.4,488.9 386.3,488 390.4,486.7 393.8,485.2 400.2,483.3 406.6,482 408.6,481.3 413,478.8 417,477.1 422.3,474 
	426.1,472.2 428,470.9 434.3,465.8 436.3,464.7 437.3,464.4 439.5,463.9 446,463.1 448.2,462.7 450.1,462 454.7,459.9 457,459.3 
	459.3,458.9 465.4,458.7 471.5,458.9 475.1,459.4 479.6,460.3 479.5,461.2 479.8,462.3 480.9,463.2 486.2,464.8 490.6,467 
	492.6,467.7 498,469 500,469.6 505.6,472.2 507.9,472.8 510.3,473.1 519.1,473.2 519.4,479 520.1,482.4 522.8,488 524.5,492 
	526.8,496.4 527.2,497.6 527.9,499.9 528.3,505 528.3,524.4 528.8,533 532,531.5 536,530 538,529 539.9,527.7 544.3,524 
	547.2,522.1 553.8,519.6 557,515.7 558.5,514.2 560.1,512.9 562,511.9 565.8,510.1 570.2,507.6 574.2,505.9 579.5,502.9 
	582.5,501.7 584.4,500.6 586.2,499.3 587.9,497.8 592.8,492.8 595,490.2 596.9,487.3 598.6,483.2 601.5,477.7 603.1,473.7 
	606.1,468.2 607.8,464.1 614.1,453.8 615.5,449.1 616.2,444.6 616.7,442.4 617.3,440.3 620,434.7 621.6,430.6 625,422.9 
	629.4,415.6 631.1,411.6 633.4,407 634.3,403.8 635.1,395.8 635.9,392.5 636.8,390.6 638.8,386.9 641.7,381.1 644.6,377.5 
	646.3,375.9 648.1,374.4 650.1,373.3 653.9,371.5 658.3,368.9 662.3,367.3 665.9,365.3 667.7,364.5 669.8,364 677.2,363 679,362.4 
	679.8,361.9 681.1,360.4 683.4,357.1 686.4,353.7 689.8,350.7 693.1,348.5 693.8,347.8 694.9,346.3 697.9,341.1 698.8,339.2 
	699.5,337 701,329.1 "/>
</svg>
