<?xml version="1.0" encoding="utf-8"?>
<!-- Generator: Adobe Illustrator 24.2.3, SVG Export Plug-In . SVG Version: 6.00 Build 0)  -->
<svg version="1.1" id="Layer_1" xmlns="http://www.w3.org/2000/svg" xmlns:xlink="http://www.w3.org/1999/xlink" x="0px" y="0px"
	 viewBox="0 0 800 533" style="enable-background:new 0 0 800 533;" xml:space="preserve">
<style type="text/css">
	.st0{fill:#F2933D;stroke:#000000;stroke-width:0.4;stroke-miterlimit:9;}
</style>
<polygon class="st0" points="657.9,333.1 657.7,331 657.4,328.9 656.8,327.1 654.8,323 653.4,318.4 651.8,314.5 648.7,314.9 
	639.4,315.3 636.4,315.7 634.5,316.2 630.5,318 628.7,318.5 626.7,318.9 621.6,319.5 619.6,320 618.6,320.3 617,321.1 612.1,324.8 
	606.3,319.2 603.5,316.9 602,316 599.4,314.7 598,313.9 595.8,312.3 591,308 585.9,304.8 585.4,303.1 584.7,301.6 582.2,297.9 
	580.6,295.7 577,293.1 575.2,292 573.3,291.2 571.2,290.7 566.8,290.5 556.8,290.5 551.3,290.3 548.2,289.8 546.3,289.2 543.5,288 
	541.7,287.5 540,287.5 539.2,287.7 536.9,288.5 533.2,284.9 531.5,283.8 530.6,283.3 529.6,283 527.6,282.5 518.4,282 515.5,281.4 
	513.9,280.7 510.8,279 507.5,277.5 503,274.8 499.6,273.3 496.6,271.6 495,270.9 492,270.2 484.8,269.8 481.7,269.5 479.8,269 
	475.9,267.2 474.2,266.6 472.4,266.4 469.7,266.3 467,262.1 465.3,260.1 463.2,258.5 460.8,257.3 459.3,256.4 457.4,254.6 
	456.4,253.1 452.5,245 452,243.1 451.3,239.4 450.8,237.5 449,233.5 448.4,231.7 448.1,229.8 447.9,227.1 451.1,220.5 452.4,216.9 
	455,212.2 456.1,209.6 456.9,208 458,206.5 461.4,202.1 462.4,200.7 464.4,196.5 465.5,194.8 467.3,192.5 472,187.4 473.8,185.1 
	474.8,183.5 475.9,180.9 476.7,179.2 478.3,177 479.5,175.6 480.9,174.3 482.3,173.2 483.9,172.3 485.5,171.8 487.1,171.5 
	493.6,171 497.9,171.1 500.9,171 509.2,171.7 513.8,171.9 517.1,171.8 519.2,171.6 520.2,171.3 521.1,170.8 521.9,170.2 
	522.5,169.3 523.2,167.4 523.6,164.2 523.3,148.6 523.3,134.7 523.2,127 523,124.8 522.5,122.7 520.4,117.8 518.5,110.4 
	516.1,105.7 514.6,102.2 512.6,98.3 511.9,96.4 511.5,94.3 511.3,91 511.4,88.8 511.8,86.7 512.1,85.7 512.8,84 515.3,79.7 
	516.5,78.4 518.2,77.5 520,77.1 522,77 525.2,77 528.4,77.2 530.5,77.6 532.5,78.1 536.3,79.7 534.2,73.8 531,66.1 530.7,65.2 
	529.6,63.5 527.7,61 524,57.2 521.7,55.1 519.2,53.3 515.8,51.8 511.3,49.2 507.9,47.7 503.4,45.1 500,43.6 496.2,41.5 494.4,40.8 
	492.5,40.5 489.5,40.2 472.1,40.4 469.1,40.3 466.2,39.9 464.3,39.4 463.5,39.1 459.6,37 455.5,35.2 449.8,32.1 444.1,32 
	440.2,32.1 437.4,32.6 435.7,33.2 431.8,35.2 428.5,36.8 426.1,38.5 424.6,39.9 422.6,42.2 421.4,43.8 420,46.1 413.9,50.7 
	412.1,51.8 408.7,53.4 405.1,55.4 404.1,55.8 402,56.3 398.8,56.6 395.6,56.7 370.4,56.6 363.3,56.6 359.1,57 357.2,57.6 
	352.4,59.7 349.3,60.4 346.1,60.6 340.2,60.5 337.3,61.5 332.7,64 329.3,65.5 324.7,68.1 321.4,69.6 316.8,72.2 312.7,74.1 
	308.9,76.4 305.5,77.8 302.5,79.5 300.9,80.3 298.1,80.9 294.3,81.2 289.3,81.1 283.5,80.6 280,80.9 274.3,81.1 267.5,81.2 263,81 
	260.8,80.7 258.8,80.3 257.1,79.7 254.1,78.1 252.4,77.5 250.7,77.2 248.9,77.3 247.3,77.8 246,78.9 241.2,86.9 240.3,87.7 
	239.6,88 238.2,92.5 237.8,95.7 237.5,102.1 237.7,105.3 238,107.4 238.8,110.3 240.9,114.2 242.3,117.7 244.7,122.5 246.6,129.8 
	248.8,134.7 249.3,136.8 249.5,138.9 249.5,142.2 249,145.3 248.4,147.2 246.5,151.2 244.8,156.7 243.6,160.1 242.5,160.1 
	241.7,160.3 240.3,160.9 238.2,162.5 234.9,165.7 233,167.8 231.3,170 230.4,171.6 228.9,175.1 227.4,177.4 226.3,178.8 
	224.4,180.9 222.4,182.9 220.3,184.8 218.2,186.5 216.7,187.3 214.1,188.5 212.6,189.4 210.5,191.2 205.1,196.4 203,198.2 
	201.5,199.2 198.2,200.7 195.9,202.2 193.9,204.1 191.9,206.1 182.7,215.7 179.9,218.2 178.4,219.2 176.8,219.9 172.1,220.9 
	170.6,221.5 169.4,222.4 168.1,223.7 168.6,227.8 168.4,229.3 167.9,230.8 165.8,235.7 165.4,236.6 164.4,238.3 161.6,241.5 
	159.4,243.8 157.1,245.9 154.6,247.8 150.5,249.9 148.5,251.5 146.8,253.6 145.2,256.9 143.4,260 142.7,261.7 142.4,262.6 
	142.1,264.5 142,266.4 142.3,268.3 142.7,269.2 143.1,269.9 144.2,271.2 145.6,272 146.4,272.1 147.8,271.9 151.4,270.5 
	153.3,270.1 156.3,269.8 162.5,269.6 187.5,269.7 190.5,269.9 192.5,270.3 194.2,270.9 198.1,272.8 200,273.3 203.1,273.6 
	209.3,273.9 212.3,274.4 214.1,275 217.9,277.1 221.2,278.6 225,280.8 229.2,282.7 233.7,285.4 237.1,286.9 241.6,289.5 245,291 
	249.6,293.6 252.9,295 257.5,297.7 260.9,299.2 263.1,300.7 267.2,303.7 271,305 276.7,307.5 279.1,309.1 282.9,312.3 284.5,313.5 
	288.7,315.5 290.3,316.6 292.5,318.6 294.5,320.8 295.6,322.5 296.4,324.4 296.9,327.4 297,330.5 296.9,348.5 296.7,351.6 
	296.5,353.6 296,355.6 295.6,356.4 293.6,360.4 292.1,363.8 289.7,368.6 289.2,370.4 288.8,372.3 287.9,376 286.1,380 285.5,381.9 
	285.1,384 284.4,390.4 283.9,392.4 282.1,396.5 281.5,398.3 281.1,400.4 280.6,405.7 280.2,407.8 279.6,409.7 277.8,413.7 
	276.8,417.4 276.2,420.2 275.6,422 273.6,425.9 272.1,429.4 269.8,434.2 269.2,436 268.5,439.8 268,441.6 265.6,446.4 264.2,449.9 
	261.8,454.7 261.3,456.5 260.3,461.2 259.7,462.9 257.6,466.9 256.2,470.4 253.7,475.1 252.3,478.6 249.7,483.3 248.2,486.8 
	247.2,488.3 245,491.2 242.7,494.1 241.7,495.7 240.8,497.4 239.4,501 242.9,499.6 244.6,498.7 246.1,497.7 248.9,495.3 
	254.4,495.2 258.6,494.8 260.4,494.3 265.2,492.2 267.2,491.6 269.4,491.3 273.8,491.1 278.3,491.2 281.7,491.4 286.7,492.1 
	287.6,489.4 289.1,486.9 290.3,485.4 292.3,483.2 293.7,481.9 295.2,480.7 296.9,479.8 297.8,479.4 302.3,478.4 304.1,477.9 
	308,476 309.7,475.4 312.7,474.9 316.8,474.7 322,474.8 326.1,475.2 328,475.7 331.9,477.7 333.6,478.3 338.1,479.4 339.8,480 
	344.5,482.3 346.3,482.8 349.1,482.9 350.9,482.6 352.7,482 356.4,479.9 359.8,478.3 364.3,475.6 367.7,474.2 371.5,472.1 
	373.2,471.4 375.9,470.8 379.5,469.9 383.4,468 385.2,467.4 387.2,467 392.4,466.5 395.4,465.8 400.1,463.5 404,462.2 403.7,455.5 
	403.3,452.6 402.8,450.7 401.1,446.6 400.5,444.8 400.1,442.7 399.3,436.4 398.9,434.3 397.1,430.3 396.5,428.4 396.1,426.3 
	395.6,421 395.2,418.9 394.6,417.1 393.1,413.9 392.6,412.1 392,408.2 391.8,402.1 397.7,400.9 399.5,400.3 404.2,397.8 
	407.5,396.4 412.1,393.7 415.4,392.2 417.6,390.6 422.5,386.5 424,385.5 427.4,384 431.9,381.3 435.3,379.9 439.9,377.3 
	443.3,375.9 447.8,373.2 450.3,372.1 451.9,371.3 454.1,369.7 458.1,366.1 461.5,363.3 462.5,363.2 464,362.7 467,361.4 
	468.6,360.8 473.1,359.8 474.9,359.2 478.8,357.4 480.6,356.7 482.7,356.3 487.9,355.7 489.9,355.3 491.7,354.7 494.7,353.1 
	496.4,352.6 498.1,352.4 500.3,352.6 501.5,353.1 502.1,354 505.4,355.3 510.7,356.9 515.3,359.5 518.7,360.9 523.8,363.5 
	522.7,370.3 522.1,372.2 521.1,374 519.9,375.7 518.5,377.3 516.2,379.5 513.8,381.6 511.4,383.4 507.4,385.2 506.2,386.1 
	505.6,386.7 504.9,388.1 504.8,388.9 504.9,389.8 505.2,390.5 506.1,391.8 507.4,392.7 508.1,393.1 511.3,394.4 515.1,396.6 
	518.5,398 522.4,400.1 524.1,400.7 526.2,401.1 529.3,401.3 532.5,401.4 559.3,401.3 566.5,401 575.8,401.4 580,401.3 583.1,401.1 
	586,400.4 589.9,398.5 591.7,397.9 594.7,397.4 600.8,397.1 603.9,396.8 605.8,396.3 609.8,394.4 611.5,393.9 613.3,393.5 
	619,392.9 621.7,392.2 626.4,389.9 629.8,388.4 634.3,385.8 637.7,384.3 640.1,382.6 642.2,380.5 644.2,378.1 645.2,376.5 
	647.2,372.3 649.9,368.6 652,365.7 652.9,364 653.2,363.1 653.7,360 654.1,353.6 654.4,350.5 654.9,348.5 656.7,344.4 657.3,342.6 
	657.7,340.6 658,337.4 "/>
</svg>
