<?xml version="1.0" encoding="utf-8"?>
<!-- Generator: Adobe Illustrator 24.2.3, SVG Export Plug-In . SVG Version: 6.00 Build 0)  -->
<svg version="1.1" id="Layer_1" xmlns="http://www.w3.org/2000/svg" xmlns:xlink="http://www.w3.org/1999/xlink" x="0px" y="0px"
	 viewBox="0 0 850 567" style="enable-background:new 0 0 850 567;" xml:space="preserve">
<style type="text/css">
	.st0{fill:#F2933D;stroke:#000000;stroke-width:0.4;stroke-miterlimit:9;}
</style>
<polygon class="st0" points="696.9,255.8 696.5,250.8 695.9,247.7 694.5,244 692.7,240.3 692.3,239.8 691.7,239.4 691.1,239.2 
	690.6,239.2 689.6,239.4 688.8,232.5 688.7,226.4 686.3,221.7 685.2,219.2 684.5,216.1 684,209.7 683.6,207.7 683,205.8 
	680.8,201.5 679.3,197.7 676.6,192.7 675.4,189.9 674.4,188 668.7,180.3 667.7,178.5 666.5,175.7 665.4,173.9 662.7,170.6 
	659,166.7 656.7,164.6 654.2,162.8 650.6,161.1 647.3,159.3 645.6,158.5 643.6,158 641.6,157.8 629.9,157.6 627.9,157.4 625.9,157 
	624,156.4 619.8,154.3 617.9,153.7 614,152.9 612.1,152.3 607.1,149.7 603.5,148.1 601.7,146.9 600.1,145.5 597.8,143.2 
	596.5,141.5 595.4,139.6 593.8,135.9 591.5,131.7 590.5,129.2 584.1,124.5 581.6,123.1 580.6,122.8 578.6,122.4 575.6,122.5 
	573.6,123 572.7,123.4 568.7,125.7 565.1,127.4 560.2,130.3 556.5,131.9 551.6,134.7 548,136.3 545.2,138.2 541.4,139.7 
	539.5,140.6 537.9,141.7 534.9,144.3 530.7,144.5 527.7,145 525.8,145.6 521.6,147.6 519.7,148.2 515.8,149.1 513.9,149.7 
	508.9,152.3 505.3,153.9 500.3,156.5 498.4,157.1 493.5,158.2 491.6,158.9 487.4,160.9 485.5,161.5 480.6,162.6 478.8,163.3 
	474.6,165.3 472.7,165.9 467.8,167 466,167.6 461.8,169.7 455,171.4 454.1,171.8 452.4,172.7 449.4,175.1 447.4,174.8 445.4,174.3 
	443.7,173.5 440.4,171.7 437.8,170.5 436.1,169.5 434.7,168.2 434.1,167.5 433.1,165.8 432.8,164.9 431.6,158.9 430.9,157 
	428.8,152.7 427.3,148.9 425.5,145.6 424.7,143.8 424.2,141.8 423.4,137.7 422.9,135.7 422.1,134 420.4,130.6 419.3,127.8 
	418.3,125.9 416.4,123.4 414.3,121 405.2,111.4 401.3,107.7 399.6,106.4 397.8,105.3 395.9,104.7 392,103.7 386.4,104.4 
	381.8,104.6 378.5,104.6 375.5,104.1 373.7,103.1 372.4,101.8 370.1,97.9 368.9,95.3 368.5,93.3 368.4,91.2 368.6,89.1 369.1,87 
	369.9,85.3 371.7,81.9 373.3,78.2 376,73.1 377.7,68.3 378.5,66.5 377.1,62.6 376.2,60.6 375.1,59 372.7,55.8 368.4,60.2 
	362.6,60.2 358.1,59.7 356,59.2 351.9,57.3 349.9,56.6 346.9,56.1 342.8,55.8 338.5,55.8 334.2,60.2 329.9,55.8 325.8,56 
	322.7,56.6 320.9,57.2 316.8,59.3 314.8,59.7 312.8,59.9 310.8,59.7 308.9,59.3 304.7,57.3 302.9,56.6 301,56.2 294.9,55.5 
	292.9,55.1 291.9,54.7 290.1,53.7 283.4,48.4 279,46.1 277.4,44.9 275,42.8 269.7,37.6 268.1,36.2 266.4,35.1 264.5,34.3 262.5,34 
	260.5,34 258,34.3 253.6,36.9 249.1,38.8 244.2,41.7 240.5,43.2 233.6,46.6 239,55.2 241.1,59.8 243.2,64 243.9,65.9 245.5,72.9 
	247.5,77.2 248.1,79.2 248.5,81.5 248.7,83.9 248.7,95.8 249,100.5 249.7,103.9 252,109.1 252.5,111.3 252.8,113.6 252.9,117.1 
	252.7,120.6 252.4,122.9 251.6,126.1 253.6,130.4 256.5,135.5 258,139.2 260.1,143.3 260.5,144.4 261.1,146.7 261.4,150.3 
	261.5,154 261.4,183.8 257.1,188.2 255.1,188.6 253.2,189.2 251.5,190.1 249.3,192 247.2,194.1 246.1,195.7 245.1,197.4 243.5,201 
	242.4,202.5 241,203.8 239.5,204.8 238.5,205.2 233.8,206.2 231.8,206.8 230.1,207.7 227.8,209.5 225.8,211.7 224.2,214.2 
	223.4,216 222.9,219.1 219,220.1 216.5,221.3 212.8,222.8 206.2,224.6 202.2,226.5 200,227.2 196.6,227.7 186.1,228 182.7,228.4 
	180.5,228.9 176.5,230.8 174.3,231.5 170.9,232.1 165.4,232.4 163.8,235.8 162.1,240.7 159.7,245.9 159,249.3 158.4,255 158,257.2 
	157.3,259.2 155.8,262.7 155.1,264.6 153.9,271.8 153,274.9 160.7,276.7 163.5,277.7 167.6,280 171.3,281.5 175.4,283.8 
	179.6,285.9 181.8,287.8 182.9,289.3 183.4,290.2 184,292.3 184.7,299.1 185.1,301.4 185.7,303.4 187.2,306.9 187.8,308.9 
	188.2,311.1 188.8,316.8 189.2,319.1 189.9,321.1 191.4,324.5 192.1,326.5 192.5,328.8 193.1,334.5 193.5,336.7 194.1,338.7 
	195.7,342.2 196.3,344.1 196.9,347.2 197.3,353.6 200.4,352.1 205.2,350.4 209.1,348.3 210.1,347.9 212,347.5 213.8,347.5 
	214.7,347.6 216.4,348.3 217,348.8 217.5,349.4 218.4,351.5 228,351.5 231.1,351.7 233.2,351.9 235.1,352.4 236,352.8 240.2,354.9 
	242.1,355.4 246,356.3 247.9,356.9 248.8,357.4 251.3,359.3 253.7,361.5 272,380.6 274.3,382.9 276.7,385 278.4,386.2 282,387.8 
	287,390.5 293,392.3 298.9,394.7 300.8,395.2 304.1,395.6 310.8,395.9 314.1,396.2 316.3,396.6 322,398.4 324.4,399.4 327.1,400.3 
	328.9,401.1 329.7,401.6 331.1,402.7 332.4,404.2 333.4,405.9 334.6,408.6 335.6,410.3 339.8,415.8 340.9,417.4 341.8,419.2 
	342.9,422 345.7,427.1 347.2,430.8 351.3,437.6 353.2,439.3 357,442.2 358.6,443.3 359.4,443.7 360.4,444 362.4,444.4 364.5,444.4 
	365.5,444.2 367.5,443.7 368.4,443.2 370.1,442 371.6,440.6 377.7,434.5 381.8,431.2 384.5,430.3 389.5,427.6 393.1,426 
	394.7,424.9 397.7,422.4 400.4,420.2 402.4,419.1 404.6,418.4 406.9,418 411.6,417.8 432,417.7 435.5,417.8 437.8,418.2 
	439.9,418.9 440.9,419.5 441.8,420.2 443.3,421.9 443.9,422.9 444.6,424.9 446.6,432.7 447.9,433.8 449.4,434.8 452.9,436.5 
	457.8,439.4 461.4,440.9 465.5,443.2 467.3,444 472.1,445.4 475.6,446.8 476.4,447.8 477.6,448.4 479.2,448.8 483.9,449.3 
	485.9,449.7 487.7,450.4 491.9,452.4 494,452.9 498.4,453.3 507.3,453.5 509.5,453.7 511.6,454 513.5,454.7 517.7,456.7 
	519.6,457.2 523.5,458.1 525.4,458.7 527.3,459.8 529.7,461.8 531.9,464.2 533.7,466.9 535.3,470.7 537,474.1 537.7,475.9 
	538.2,477.9 538.9,485.3 539.5,488.3 541.8,493.6 542.4,495.6 543.2,499.6 543.7,501.6 546.3,506.8 547.7,510.5 550.5,515.6 
	552.1,519.3 553.2,521.1 554.5,522.8 556.7,525.2 561.4,529.4 567,528.7 583.6,528.1 587.4,528 592.2,527.6 594.2,527.5 
	596.4,527.1 600.3,528.5 602.2,529.4 603.8,530.4 606.8,533 610.7,530 616,527.4 622.2,523.6 622.8,523 623.9,521.6 626.7,516.8 
	627.4,515 627.8,514 628.2,510.7 628.3,506.1 628.1,495.8 628.3,492.5 628.7,490.3 629.1,489.3 630.1,487.6 631.4,486.2 
	632.9,485.1 637.2,483 641.4,480.7 645,479.2 650,476.3 652.7,475.1 658.5,471.9 660.4,471.1 664.1,469.9 662.1,467 660.9,465.4 
	658.9,463.1 654,457.9 652.1,455.6 650.5,453.2 649.3,450.2 648.4,448.6 646.7,446.2 643.3,442.5 636.9,435.9 636.9,431.4 
	638.8,431.1 640.6,430.4 642.4,429.2 643.9,427.5 644.5,426.5 645,425.5 645.5,423.2 645.7,420.9 645.8,417.3 645.6,406.4 
	645.4,401.8 645.2,399.6 644.8,397.5 644.2,395.6 642.2,391.3 641.5,388.1 641.2,384.8 641.1,381.3 641.2,375.6 641.4,371 
	641.6,368.8 642,366.6 642.6,364.7 644.1,361.3 644.5,359.5 644.6,358.6 644.4,356.7 643.3,352.8 643.3,352 643.6,350.4 
	646.3,343.5 648.9,338.3 650.7,332.4 652.1,328.9 653.6,328.7 654.8,328.2 655.5,327.8 657,326.7 659.9,324 667,316.7 668.4,315.3 
	670,314.1 670.8,313.5 672.3,312.7 675.3,311.5 680.3,309.2 681.8,306.5 683.6,304.1 686.3,301 689.1,298.2 691.4,296.4 
	693.1,295.5 694.6,295 696.9,294.6 697,278.3 "/>
</svg>
