<?xml version="1.0" encoding="utf-8"?>
<!-- Generator: Adobe Illustrator 24.2.3, SVG Export Plug-In . SVG Version: 6.00 Build 0)  -->
<svg version="1.1" id="Layer_1" xmlns="http://www.w3.org/2000/svg" xmlns:xlink="http://www.w3.org/1999/xlink" x="0px" y="0px"
	 viewBox="0 0 800 533" style="enable-background:new 0 0 800 533;" xml:space="preserve">
<style type="text/css">
	.st0{fill:#F2933D;stroke:#000000;stroke-width:0.4;stroke-miterlimit:9;}
</style>
<polygon class="st0" points="687.9,160.9 687.5,159.3 684.9,153.4 683.8,151.7 679.9,146.7 678.7,145 677.9,143.1 677.3,140.2 
	673.1,135.9 671.4,133.6 670.4,132 669.6,130.2 669,127.3 664.8,123 661.9,123.6 660.2,124.3 656.2,126.5 652.6,128 649.4,129.8 
	647.8,130.6 645.9,131.2 641.1,132.2 639.3,132.8 635.3,135 631.8,136.6 627,139.3 623.4,140.9 618.7,143.6 615.1,145.2 
	612.8,146.8 610.7,148.7 608.1,151.4 605,154.9 601.6,158.1 594.2,165.6 590.9,169 588.4,171.8 587.3,173.3 586.3,174.9 
	585.1,177.8 584.4,179.2 583.5,180.5 581.4,183.1 576.8,183.5 574.6,183.9 572.5,184.6 569.5,185.9 567.5,186.6 557.9,188.2 
	555.9,188.9 551.9,190.7 549.7,191.3 546.2,191.6 540.2,191.8 486,191.7 480,191.5 474.9,190.8 470.7,184.3 469.8,182.7 468.3,179 
	465.6,174.1 464.2,170.4 461.6,165.5 460.4,162.7 459.5,161 458.4,159.3 457.1,157.7 449.2,149.5 446.5,146.4 444.9,143.9 
	443.7,141.2 442.8,139.5 441.7,138 438.7,134.3 437.6,132.7 436.8,131 436.3,129 436.3,128 436.4,126 436.9,123.2 429.3,122.7 
	426,122.7 422.7,123 419.6,123.7 414.6,126 412.5,126.5 408.2,127 398,127 393.6,127.3 390.4,128 385.5,130.3 383.4,130.8 
	381.2,131.2 377.9,131.4 372.2,131.5 367.7,131.4 364.4,131.2 362.2,130.8 360.2,130 353.8,126.6 352.1,125.5 349.9,123.1 
	347.1,117.9 345.6,116.3 343.8,115.1 341.7,114.4 339.5,114.1 329.3,114 327.1,113.8 324.9,113.3 322.9,112.6 321.2,111.6 
	312.2,105.4 305.3,111.3 303,113.6 300.9,116 299.1,118.6 297.5,122.2 295.9,125.5 294.8,128.3 294.5,130.4 294.3,133.7 
	294.2,142.7 294.1,144.9 293.7,147 293.3,148 292.5,149.8 288.4,156.2 285.8,156.6 281.5,156.9 266.4,157 263.3,157.3 261.3,157.8 
	252,162.6 244.8,168.4 240.4,170.7 238.7,171.8 235.6,174.6 227.3,183.1 224.9,185.1 223.1,186.2 221,186.8 217.9,187.2 
	213.6,187.2 202.6,187.1 199.7,184.6 198,183.6 196.3,182.9 193,182 189.1,182.4 185.1,182.3 182.2,181.6 178.2,179.7 176.4,179.1 
	174.5,178.8 171.5,178.8 169.6,179.3 168.7,179.6 161.3,183.5 159.7,184.7 154.1,189.3 152.3,190.3 150.1,190.9 146.8,191.4 
	143.3,191.4 120,191.3 112.4,190.9 112.1,193.3 112,195.5 112.2,197.7 113.1,201 113.8,201.3 114.7,202.1 117.7,207.1 118.5,208.8 
	119,210.7 119.7,214.7 120.3,216.6 122.5,221.8 123.1,223.7 124.1,228.7 124.7,230.5 126.7,234.7 127.2,236.6 128.2,241.6 
	128.8,243.4 131,247.6 132.4,251.2 135.1,256.2 136.6,259.8 139.3,264.8 140.8,268.4 143.4,273.4 144.9,277 147.6,282 149.1,285.6 
	151.7,290.6 153.2,294.3 155.9,299.2 157.4,302.9 160.1,307.8 161.5,311.5 163.7,315.6 164.6,318.4 165.5,323.4 166.2,325.2 
	168.3,329.3 169.8,333 172.5,337.9 174,341.6 176.5,346.3 177.2,348.2 178,351 178.7,354.7 180.6,359.5 181.3,362.6 181.5,368.1 
	181.4,382.6 181.6,385.8 182,387.9 182.7,389.8 184.8,394 186.3,397.6 189,402.5 190.4,406.2 193,411.2 194.2,413.8 194.6,414.7 
	195.7,416.2 197,417.6 198.4,418.7 202.7,420.7 206.6,423 211.1,424.9 216.1,427.6 217.5,426.1 217.9,426 222.5,423.9 225,422.1 
	226.9,420.7 235.7,414.3 237.5,413.4 246.6,409.2 247.8,408.6 252.3,405.9 255.5,403.5 261.5,396.8 262.6,396.1 265.4,394.3 
	266.8,393.3 273.4,391.1 284.7,389.2 293,387.8 296.8,386.7 306.8,381.3 312.3,376.6 321.4,373.3 324.4,371.6 332.4,367.6 
	333.4,366.7 336.1,364.3 336.2,364.2 341.6,360.5 345.1,359.2 346.2,359.1 350.6,358.7 354,357.4 357.4,355.1 362,352 373.3,352.3 
	374.4,353.3 374.9,353.7 376.5,356.1 381.1,357.2 381.9,356.9 382.2,356.8 383.2,356.5 386.6,352.9 390.9,350.6 392.2,350.5 
	392.2,350.5 400.7,349.6 408.7,350.6 412.8,352.3 414.9,353.2 422.7,355.2 431.5,356.9 439,357.6 454.3,361.4 455.5,361.6 
	459.2,362.2 469.6,362.5 479.2,367.3 480.1,368.3 481.3,371.8 481.9,372.2 483.1,373.1 488.2,372.6 488.5,372.4 491.5,371 
	493.9,368.9 497,367.6 497.7,367.3 501.8,366.9 529.9,367 561.4,367.2 573.4,365.6 577.3,365.1 586,362.4 596.2,357.7 600,356.5 
	602.9,355.6 604.8,355 613,354.3 615.4,354.3 624.5,354.6 632.9,353.2 658.2,346.6 663.5,345.2 663.9,343.3 664.7,337.6 
	665.2,335.3 665.8,333.4 667.7,329.1 668.3,327 668.6,323.7 668.7,319.2 668.5,315.9 668.1,313.7 667.4,311.8 665.9,308.4 
	665.3,306.5 664.8,304.2 664.3,298.6 663.9,296.4 663.3,294.5 661.5,290.3 660.2,285.1 659.9,284.4 659.3,283.7 658.5,283.3 
	657.7,283 656,283.1 654.5,283.7 652.4,284.9 650.7,285.6 646,286.9 644.2,287.6 640.3,289.6 638.5,290.1 636.6,290.1 635.7,289.8 
	634.1,288.9 633.4,288.3 632.2,286.9 631.3,285.2 628.4,277 627.8,274.4 627.4,272 627.1,264.5 627.2,232.7 627.4,227.7 
	627.9,223.5 634.2,219.4 635.9,218.6 639,217.8 644.4,217.2 646.6,216.8 648.4,216.2 651.7,214.6 653.5,214 655.6,213.6 
	657.7,213.5 668.5,213.3 670.6,213 672.6,212.4 673.5,211.9 675.2,210.8 680.8,205.9 685.7,202.3 685.4,197.3 685,194.2 
	684.5,192.2 682.5,188 681.9,186.2 681.4,183.1 681.3,180 681.7,176.9 682.2,174.9 683,173.2 684.8,170 687.4,164.1 687.9,162.6 
	688,161.7 "/>
</svg>
