<?xml version="1.0" encoding="utf-8"?>
<!-- Generator: Adobe Illustrator 24.2.3, SVG Export Plug-In . SVG Version: 6.00 Build 0)  -->
<svg version="1.1" id="Layer_1" xmlns="http://www.w3.org/2000/svg" xmlns:xlink="http://www.w3.org/1999/xlink" x="0px" y="0px"
	 viewBox="0 0 800 533" style="enable-background:new 0 0 800 533;" xml:space="preserve">
<style type="text/css">
	.st0{fill:#F2933D;stroke:#000000;stroke-width:0.4;stroke-miterlimit:9;}
</style>
<g>
	<polygon class="st0" points="104.3,242.1 103.3,242.8 103.9,243.8 104.7,243.6 104.9,242.8 	"/>
	<polygon class="st0" points="64.8,242.5 65,243.9 63.7,244.8 63.3,245.9 61.9,246.5 61.8,247.4 63,247.4 63.7,246.4 64.7,246.6 
		65.5,243.6 66.6,243.5 66.7,241.9 65.9,241.1 	"/>
	<polygon class="st0" points="63.1,216.3 64.2,215.3 64.4,213.6 64.1,213.3 62.8,213.3 61.7,215.1 61.9,216.5 	"/>
	<polygon class="st0" points="111.5,247 111.1,245.4 110.5,246 110.4,247 109.7,248.6 110.9,249.6 	"/>
	<polygon class="st0" points="60,227.9 60.6,229 61.6,228.9 61.4,227.5 	"/>
	<polygon class="st0" points="105.9,186.1 106.8,187.2 107.6,187.2 109.4,186.5 109.5,185.3 107.3,184.3 106.5,182.7 105,182.2 
		104.9,183.4 105.9,185.2 	"/>
	<polygon class="st0" points="103.1,181.5 102.9,183 104.3,182.3 	"/>
	<polygon class="st0" points="134.9,260.4 136.5,261.3 137.4,259.7 137.8,260.4 139.1,260 140.5,258 140.3,256.4 139.3,255.1 
		138.1,254.2 137,254.1 136.6,253.6 133.9,252.8 132.8,252.7 131.9,252.1 130.8,251.9 130.1,251.3 128.7,250.9 126.6,248.9 
		123.3,247 121.8,247.2 121.7,248.6 122.2,249.7 123.4,250.6 124.9,250.7 125.1,251.3 126.5,252.9 126.9,252.9 127.7,254.6 
		127.5,256.4 130.2,257.8 130.9,259.1 131.9,258.5 133.7,258.6 	"/>
	<polygon class="st0" points="71.7,214.2 70.5,213 69.5,214.1 70.1,214.5 	"/>
	<polygon class="st0" points="68.4,251.8 69.5,252.2 69.2,250.8 	"/>
	<polygon class="st0" points="135.8,201.6 135.6,200.8 134,202.4 135,202.9 	"/>
	<polygon class="st0" points="137.5,198.4 136.5,199 136.2,200.4 137.2,200.5 137.6,199.4 	"/>
	<polygon class="st0" points="111.2,196 112.2,196.4 112.9,195.9 113.5,194.8 111.2,195.1 	"/>
	<polygon class="st0" points="169.5,256.4 169.9,255 168.8,253.9 167,253.3 166.6,253.7 166.7,255.8 167.7,256.6 167.6,257.5 	"/>
	<polygon class="st0" points="538.2,343.9 536.4,341.9 535.5,343 535.8,343.8 535.1,344.3 535.5,346.1 535,347.4 535.4,348.7 
		536.4,348.8 538,346.2 539.3,345.8 537.9,344.9 	"/>
	<polygon class="st0" points="526.2,367.4 525.4,367.3 525.2,366.5 524.4,366.3 523.3,367.5 522.4,367.9 524.2,369.7 524.9,369.8 
		525.6,370.9 526.2,373.1 527.7,373.3 528,371.9 528,370.3 527.5,368.3 	"/>
	<polygon class="st0" points="533.1,363.6 532.5,363.8 530.1,362.1 529,362.3 528.2,364.9 528,366.3 528.5,367 528.6,368.9 
		529,369.5 528.9,371.6 530.1,372 531.9,369.3 532.8,368.5 532.8,366.3 533.6,366 534.4,366.9 535.4,366.1 536.3,364.6 534.1,364.3 
			"/>
	<polygon class="st0" points="533.8,356.6 533.2,355.4 532.2,355.4 531.9,356 532.3,357.6 532.9,358.1 	"/>
	<polygon class="st0" points="144.7,370.7 145.7,371.1 145.4,369 	"/>
	<polygon class="st0" points="131.2,328.8 132.3,329.7 132.8,329.1 131.8,328.1 	"/>
	<polygon class="st0" points="556.6,356.9 554.5,355.8 554,356.3 554.2,357.2 555.3,358 556.3,358.1 	"/>
	<polygon class="st0" points="581.8,372.5 579.9,373.2 580,374.2 581.6,373.3 	"/>
	<polygon class="st0" points="570.8,408.2 570.6,408.6 571.6,409.7 572.8,409.2 572.6,408.2 	"/>
	<polygon class="st0" points="738,270.6 735.5,266.2 733,260.9 731.9,259.2 728.1,254.3 727,252.6 725.4,249.1 723.7,247 
		721.6,245.2 717.5,243.2 713.6,240.9 710.1,239.3 705.3,236.7 702.4,236 699.4,235.8 696.5,235.9 694.6,236.4 692.9,237.2 
		691.4,238.4 690.3,239.8 689.4,241.4 687.7,244.9 685.3,248.3 679.5,254.6 674.9,259 672.4,260.9 669,262.6 665.5,264.7 
		663.9,265.1 662.2,264.8 660.8,263.5 660.2,261.9 660,260.1 660.2,257.2 660.5,255.2 661.1,253.3 663.2,249.2 664.1,246.4 
		664.6,242.3 664.6,237.1 664,233 663.3,231.2 661.7,227.9 661,226.1 659.8,221.2 658.9,218.3 655.8,220.1 651.9,223.4 647.6,227.8 
		645.2,231.1 644.5,233 644,236.2 643.8,240.5 644,254.8 643.8,258 643.4,260 642.6,262 641.5,263.7 637.1,269.4 634.9,273.8 
		633.8,275.5 629.5,281.3 628.5,283.1 626.9,286.5 625.8,288 624.5,289.3 623,290.3 621.1,290.9 619.2,291 617.3,290.8 615.4,290.4 
		611.4,288.3 609.7,287.7 607.8,287.4 605.1,287.2 602.4,282.8 599.9,279.6 596.3,275.8 582.5,261.6 580.5,259.3 578.9,256.8 
		577.3,253.2 575.2,249.1 574.4,246.3 574.1,242.2 574.1,232.7 574,230.7 573.3,227.7 572.5,226 568.3,218.8 569.5,214.5 570.2,208 
		569,205.6 566.7,201.6 564.7,197.2 561.9,193.4 559.1,192.7 557.4,191.9 555.8,190.9 553.7,189.1 545.5,180.6 543.2,180.2 
		540.9,179.3 538,177.1 536.1,175 535,173.5 533.2,170.6 528.8,168.5 525.3,167.1 520.5,164.5 518.6,164 513.9,163 512.2,162.3 
		508.2,160.3 504.4,159.4 499.5,159.2 497.6,158.8 495.8,158.1 494.4,156.9 493.2,155.5 492.2,153.9 491.1,151.3 489.1,147.2 
		488.3,144.3 488.1,141 488,129.9 487.7,127.8 487.3,125.7 483.8,118.1 482.8,116.5 481.6,115.1 480.2,113.9 478.5,113.1 
		472.1,111.5 468,109.6 466.2,109 463,108.6 455.6,108.4 452.6,107.9 450.8,107.1 448.7,105.2 447.4,102.5 446.8,99.1 446.8,94.4 
		447.2,80.9 447,75.4 446.3,72.8 445.4,72 444.6,71.8 436.1,69.5 434.2,68.7 431.3,67.2 429.2,66.5 427,66.1 420.6,65.4 416.1,65.8 
		413.2,65.9 410.2,65.8 408.2,65.5 405.4,64.7 401.5,62.5 398.1,60.9 396.4,59.8 394.1,57.8 383.2,46.4 379.4,42.8 377,41.1 
		372.8,38.9 371.3,37.8 367.1,34.1 365.5,33.1 363.7,32.3 361.8,32 359.9,32 357.9,32.3 356.2,32.9 352.2,35 350.4,35.6 345.7,36.6 
		344,37.4 341.7,39 339.6,41 337.3,44 334.9,49.2 330.4,55.8 329.5,59.3 327.7,64.6 326.2,67.3 324.3,69.7 322,71.8 320.3,73 
		318.3,73.8 316.2,74.2 314,74.3 302.9,74.3 298.5,74.5 295.4,75.2 290.6,77.5 288.5,78 286.4,78.3 280.9,78.5 261.5,78.4 
		254.2,78.6 247.8,79.3 242,77.5 238,75.5 236.2,74.8 233.1,74.3 225.6,74 222.5,73.5 220.6,72.8 216.6,70.9 214.8,70.3 210.1,69.2 
		208.3,68.6 204.3,66.6 196.8,64.7 192.1,62.1 188.6,60.6 183.9,57.9 177.9,55.6 174.7,54.6 168.2,49.8 163.9,47.8 160,45.5 
		156.6,43.9 155,42.9 153.6,41.8 149.4,38.1 147.9,37.1 146.1,36.5 144.2,36.5 141.6,37.5 139.5,39.3 137,42.1 135.5,44.6 134,48.2 
		131.4,53.1 129.9,56.7 127.5,61.6 127,63.6 126.7,65.6 126.2,72.2 126.2,75 125.6,77.9 124.9,79.6 123.3,82.9 121.8,86.5 120,90.4 
		119.2,94.4 120,94.4 121.3,95.4 121.4,96.5 122.5,98.4 123.2,98.8 123.9,100.6 123.6,101.3 123.8,105 124.1,107 121.4,106.7 
		120.9,107.3 120.1,106.1 118.5,106.5 118.7,108.5 116.5,111.3 116.2,112.1 112.8,112.8 111.6,115.2 110.9,115.4 110.4,116.2 
		111.1,117.5 111.1,120 110.7,120.6 110.6,122.1 110.9,123.3 112.1,125.2 111.2,126.6 112.5,126.6 112.2,128.5 113.1,128.5 
		113.6,129.4 114.9,129.4 115.7,130.4 114.9,131.5 116.6,131.6 117,133 118.1,133.3 118.4,134.9 120.1,134.8 120.4,134.1 121.6,134 
		122.3,134.6 123.3,134.5 124,136 126.6,135.6 127,135.8 128,133.9 129,133.1 130.3,133.2 131.5,132.3 132.6,131 133.1,129.5 
		134.2,129.5 135.6,126.5 136.4,126.1 136.2,123.9 135.3,123.3 134.9,122.4 134.7,120.5 136.5,120.5 136.6,121.6 137.5,123.2 
		138.2,126.1 138.8,126.3 139.7,124.6 140.7,125.1 141.2,126.5 141.3,128.2 141.9,128.9 141.8,130.8 140.5,131.5 140.6,132.8 
		139.2,134.9 139.7,135.8 138.9,139.2 138.4,139.9 137.4,139.7 136.7,140.6 135.9,140.8 135.2,142.2 135.2,143.7 134.7,144.8 
		134.7,146.7 133.9,147.7 132.4,148.2 131.5,149.7 131.5,150.6 130.7,151.1 130,152.4 130.5,154.4 131.8,154.1 133.2,152.4 
		134.7,152.5 135.8,153.1 137,149.2 137.5,148.6 139.7,148.5 141.3,147.9 142,147.2 142,145.1 143.6,144.8 144.5,143.9 145.1,144 
		145.4,145.4 146,145.7 147.6,145.2 148.6,145.9 148.3,147.4 147.3,148.3 147.1,150.4 148,150.5 147.7,151.8 149.3,151.9 149,152.8 
		146.7,153.3 147,154.7 148.3,154.1 148.6,154.8 146.3,157.9 145.4,159.2 143.6,159 142.3,159.7 142.6,160.7 143.2,160.6 
		144.2,161.4 144.2,162.3 145.4,162.2 147.6,163.1 149.6,162.9 150,162.2 149,159.7 148.3,159.2 148.6,158.4 149.4,158.4 
		150.5,157.2 151.5,158.1 151.8,156.6 152.7,156.6 152.1,154.3 153.6,154.8 154,156 155,155.7 155.1,156.6 155.9,157.1 156.8,156.6 
		156,155.3 154.9,154.3 153.8,154.3 154.1,152.4 154,151.4 154.6,150 156.2,149.6 156.6,148.3 156.5,147.3 157.6,147 158.1,144.8 
		158.8,145.3 161,145.4 161.6,146.1 163.8,146.6 164.7,147.1 165.4,145.1 165.9,146.4 166.8,145.3 166.9,143.8 166,143.3 
		166.9,141.7 168.9,141.1 170.2,141.6 170.5,142.9 169.8,143.7 169.8,145.5 170.9,144.9 171.7,143.5 173.4,144 172.6,145 
		172.8,145.9 174.4,146.4 172.3,147.4 172,148.1 172.8,148.9 172.6,151.1 172.8,152.3 171.9,153 171.5,154.7 169.7,156.2 
		170.1,156.7 169.7,158.1 168.5,158.6 168.1,159.4 166.9,159.4 167,162.6 166.4,163.8 166.4,164.7 165.7,164.9 165.1,166.4 
		164,166.3 163.1,167.4 163.4,168.2 164.4,168.3 165.9,169.5 166.5,171.1 168.5,172.8 169.8,172.9 171.1,172.6 171.2,175.2 
		172.5,176.2 174,177 172.9,177.6 170.8,175.9 169.6,176.9 169.8,177.9 169.2,179.4 168.5,179.3 167.4,180.6 166,180.7 165.2,179.8 
		163.5,180.5 162.8,180.1 162.8,178.9 163.5,178.6 165.5,176.7 165.7,176 167.6,176.2 168,174.8 166.8,174.1 166.7,173.4 
		164.1,170.1 163.1,169.9 162.2,169 161.2,169 161.2,169.9 160.3,170.3 160,171.4 158.7,172.7 158.7,175 157.5,175.6 156.2,175.6 
		154.7,174.9 154.3,177.1 151.9,175.6 151.3,176.2 152.7,177.9 154.6,178.3 154.6,180.5 153.7,181 154,181.8 153.6,183.6 
		153.7,184.7 156.1,185.1 156.2,185.7 154.6,186 153.5,188 154.2,189 153.9,189.9 154.5,190.8 155.9,191.2 156.8,190.6 158.1,188.7 
		158.6,189.6 157.1,191.7 157.4,192.4 157.1,194.4 157.8,196.3 157.4,197 158.2,197.1 159.7,196.3 160.7,196.3 162.2,195.3 
		164.7,195.5 164.7,196.4 163.5,196.7 163.7,197.3 162.2,199.5 161.6,199.7 158,199.5 155.6,200.1 154.4,199.2 152.7,199.2 
		152.5,200.7 151.5,201.6 151.1,202.8 149.7,203.6 148.3,204 147.8,204.9 145.5,206.2 143.5,206.4 142.8,207.2 142.9,208.3 
		142,209.3 141.5,208.8 139.4,209.2 140,210.3 140,211.6 135.9,213.6 135.3,216.3 134.3,216.6 133.7,215.7 132.8,216.2 131,216.1 
		130.3,214.7 130.3,213.5 131.5,212.2 131.4,210.6 128.8,210.6 127.5,209.6 127.1,207.7 126.4,206.6 125.8,204.9 126.4,204.3 
		126,203.2 125.3,202.9 123.5,203.1 123.4,202.4 124.8,201.1 124.5,200.4 123.3,199.2 121.4,201.8 121.1,203.1 119.8,202.9 
		119.7,201.2 120.5,200.2 119.8,199.3 118.8,199.9 118,199.1 118.5,198.2 117.9,197 117,198.3 115.8,198 115.1,198.3 115,199.6 
		114.2,200.5 114.1,202.5 112.9,202.5 111.4,202 111.3,200.7 109.8,199.1 108.8,199.1 108.7,197.2 109.9,196.9 110.6,196 
		110.9,194.4 111.9,194.2 112.5,193.5 112.2,192.7 111.3,192.7 109.7,193.6 108.7,193.2 109.1,191 106.5,190.8 106,189.1 
		104.6,189.2 104.6,190.6 105.1,191.3 105.1,192.9 104.4,193.4 103.9,194.7 103.2,194.7 103.2,192.6 101.4,193.9 101.8,195.2 
		101.8,196.9 101.1,198.5 100.2,198.5 98.9,197.8 98.9,195.5 99.9,194.2 99.6,191.3 98,191.1 98,190.4 96.9,188.9 95.3,188.2 
		94.7,190.7 95.7,191.3 95.6,193.1 95.1,194 94.2,193.8 93.2,194.9 92,194.7 91.6,195.8 91,195.7 91,198.5 91.9,199 92.7,199.9 
		92.4,201.1 92.9,202.5 91.7,203.6 91,203.7 90,202.2 89.7,201.1 88.6,201.4 89.7,203 89.1,203.8 87.5,203.4 87.1,202.2 87.2,201 
		86.3,200.7 85.9,201.6 85.1,201.6 84.7,200.6 83.4,200.1 83.1,198.5 82.6,198.5 81.5,195.6 80.5,194.9 79.9,197.2 78,197.1 
		77.8,199 78.3,200.4 77.2,200.6 77.9,201.6 77.1,202 76.2,200.5 76,198.7 74.9,199 75.7,201.4 75.3,203.7 74.9,204.3 75.4,205.4 
		76.8,205.4 77.2,204 78.5,204.8 79.4,204.6 80.2,202.6 81.5,203.3 82.1,202 83.7,202.5 84.7,202.1 85.8,204.3 85.9,206.7 
		84.3,208.5 82.6,208.9 80.3,210.2 79.6,210 78.7,211.8 77.2,212.6 75.7,211.6 75.2,212 75.4,213.9 74.6,216.2 73,216.9 71.2,215.6 
		70.5,216.6 70.4,219 71.1,220.4 71.1,221.7 69.1,222.9 68.8,224 67.4,224.7 67.9,226 68.9,226.6 69.6,225.1 70.6,226.7 70.4,227.9 
		69.4,228.5 68.9,229.4 68.6,231.6 69.4,232.4 71.4,233.6 73.2,233.7 73.9,234.1 74.1,235.9 74,237.4 74.5,237.8 75,239.5 
		74.9,240.5 75.6,241.6 75.7,243.7 76.5,244.7 76.7,246.1 76.1,247.4 76.2,248.8 75.8,250.6 76,252.5 75.5,253.2 75.5,254.7 
		77.1,256 77.2,258 77.8,259.2 79,259.3 80.5,260.1 82,258.4 83.4,259.9 84.5,258.8 86.1,257.7 86.6,258.3 86.9,260.6 88.9,261.6 
		89.7,260.3 89.2,259.4 89.1,257.3 88,257.3 87.7,256.5 89.1,254.8 90.4,254.8 91.3,253.7 91.9,254.4 92.7,254.5 93.6,253.3 
		93.8,252.4 94.9,251.5 95.7,250.2 96.7,250.1 96.6,248.5 95.8,246.8 97,245.9 98,246.9 98.9,246.6 98,245.4 96,244.5 96,243.2 
		95.4,242 96.7,240.5 99.8,238.6 102.1,238.7 103.1,237.9 104.6,238.1 105.2,239.2 106.8,238.2 108.1,237 107.8,236.4 109.1,236 
		110.4,236.4 110.9,237.4 109.5,238.6 109.7,240.2 109.3,242.2 109.4,243.7 108.1,244.2 108.2,245.6 108.7,246.5 109.5,246 
		110.1,244.2 110.9,243.5 112.3,243.7 112.1,242.6 112.5,240.5 112.2,239.6 113.5,236.5 114.1,235.4 115,235.3 115.9,234.4 
		116.7,235 117.9,235 115.7,237.9 115.6,238.9 117.3,237.6 118.5,238.4 119.4,237.9 120.4,238.1 120.1,235.8 120.7,235.6 
		121.3,234.4 122.4,234.3 123.4,234.9 123.9,234.1 125.5,234.4 126.2,235.8 125.8,236.7 126.5,237.7 126.5,238.5 128,239.4 
		129.1,240.7 128.8,241.9 129.9,243.4 130.6,243.4 132.8,245.6 132.8,246.8 133.3,247.1 135.1,247.2 135.9,248 137.2,248.4 
		137.8,249.6 137.5,250.8 138.7,251.1 139.4,249.8 140.4,250.1 141.9,251 143.4,250.9 144.8,251.4 145.3,251.1 144.8,249.8 
		145.5,249.4 146.9,247.8 147.7,247.9 148.3,248.8 151.1,249 152.1,250.4 155.5,250.5 155.5,251.6 156.6,252.6 157.8,252.3 
		158.7,251.4 158.9,252.9 160.4,254.3 160.3,252.6 161.2,253.4 161.9,252.6 163.3,252.1 162,251.1 160.8,251.3 159.6,250.8 
		160,249.6 161.8,249.3 162.3,248.5 166.1,248.1 168.5,248.2 169.9,249.2 171.2,249.1 171.7,249.6 172.1,251.1 173.3,251.9 
		174.3,253 176,253.4 178,253.3 179.2,254.1 181.1,253.7 182.6,253.7 182.9,252.8 181.5,252 181.8,251.2 181.6,249.3 182.5,248.8 
		182.8,246.8 184,246.7 185.6,248.1 187.2,247.9 188.8,247.4 189.4,246.6 190.5,246.6 190.9,245.6 192.9,245.8 193,244.9 
		195.6,245.2 195.8,246.5 197.1,247 199.3,247.4 200.2,246.6 202.6,245.3 204.3,245.1 205.3,245.9 206.7,245.8 206.5,247.2 
		207.2,248.3 208.3,248.3 209.2,246.8 211.2,247.1 212.1,245.7 212.6,245.7 213.5,246.8 212.8,247.9 212.8,249.3 213.8,249.1 
		214.6,248.1 215.2,249.1 216.3,248.4 217.3,248.4 217.8,246.7 218.5,247.6 219.6,248.2 220.3,248 220.8,247 221.7,246.6 
		221.2,244.8 221.6,244.2 222.6,244.2 224.7,245.1 224.7,245.7 223.9,247.6 224.5,247.8 225.8,246.6 226.1,245.7 227.4,245.4 
		229.5,242.4 231.4,241.4 232.1,241.7 234.3,241.7 234.9,240.7 236,239.6 237.1,239.1 238.6,239.3 241.8,238.9 243.6,237.8 
		246.7,237 247.3,236.4 249.4,235.8 250.4,235.8 252.3,237.1 253.7,237.5 254.9,237.4 257.1,236 257.6,235.3 258.7,234.9 259.7,235 
		261.4,236.3 262.2,237.6 264.5,240.2 266.1,240 268.7,238.9 269.8,238.9 270.7,238.4 271.7,237 272,235.3 272.7,234.5 274,234.4 
		275.5,235.4 277.1,235.8 278.2,236 279.3,237 280.4,237.5 284,237.6 285,238 288.1,238.1 289.4,237.7 291,237.8 293.5,237.4 
		295.5,237.4 297.4,237.1 298.3,237.9 300.8,238.2 302.2,237.1 303.3,235.7 304.2,236.1 304,238.4 305.1,238.3 305.3,237.7 
		306.5,238.1 307,239 306.3,239.4 305.8,240.5 306.2,241.7 308.7,241 310.4,240.9 310.8,240 309.9,239.1 310.6,237.9 309,237.2 
		308.3,236.5 306,235.4 306.4,233.9 306.9,233.4 310.9,233.7 312.2,233.4 315.3,234.7 321.7,234.9 321.9,235.3 323.5,235.6 
		325.9,235.2 327.3,233.9 329.9,233.8 331.7,232 333.8,231.5 335.5,231.6 338.9,231.2 340.4,231.6 341.3,231 342.2,231 344.4,231.5 
		344.8,232 345.9,231.9 346.8,231 348.7,231.2 349.5,230.6 352.4,229.5 354.3,228.1 356.5,228.8 358.6,228.9 359.1,228.5 
		360.2,228.7 362.7,228.2 365.7,228.2 367.5,227.3 368.6,228.1 369.7,234.2 369.5,235.2 368.2,236.7 367.2,236.7 366.7,237.7 
		364.1,236.9 363.1,238.3 361.9,237.7 360.7,238.1 359.3,238.2 358.8,239.2 355.3,239.2 352.6,240.2 352.1,241.5 348,244 
		347.7,244.7 346.4,244.9 346.5,245.7 348.7,247.1 349.6,248.2 348.6,249.3 347,249.8 345.5,248.6 344.5,249 342.9,249 341.6,248.4 
		339.9,246.3 338.1,247 337.6,248.2 337.6,249.7 338.2,250.3 338.2,251.5 336.8,252.1 335,252.4 334.3,252.1 333.7,252.9 
		335.5,252.9 336.4,253.8 337.2,253.7 338.4,254.3 337.3,255.5 336.5,255.6 335.1,257.2 334.3,257.5 335.4,259.4 335.8,261 
		335.6,263.5 334.7,264.6 332.1,265.1 332.2,266.8 331.6,267.6 330.2,267.2 330.7,265 328.8,264.9 327.9,265.1 327.5,264 
		325.6,264.4 323.7,264.5 323.2,265.7 322.5,266.2 323.4,267.3 325.5,267.3 325.9,268.8 324.5,268.3 323.9,268.8 323.9,270 
		325,269.4 325.5,271 326.5,273.2 324.9,275.6 325.8,275.9 325.2,277.7 325.5,279.8 323.6,280.2 323,279.6 323.3,278.8 323,277.5 
		323.5,276.2 322.4,275.4 322.8,272.8 321.5,272.2 319.8,272.2 320.3,274.5 319,275.6 318.8,274.1 317.7,273.3 317.2,271.6 
		316.1,271.9 314.8,270.2 313.9,270.3 313.2,269 312.7,270.3 309.4,270.5 309.4,269 308.5,269.1 307.1,268 305.8,267.8 305.9,269.8 
		305.1,269.9 304.7,269 303.9,268.3 302.1,268.4 301.7,267.6 300.5,268.2 299,267.8 297.1,268.4 297,269.1 295.4,269.7 294.2,269.4 
		293.1,269.6 292.4,269.2 291.2,269.4 291.6,270.2 293.1,270.6 293.3,271 297.3,270.9 298.1,271.7 295.7,271.9 295,273.2 
		294.2,272.9 292.9,274.3 291.7,274.4 290.7,274.9 290.1,273.9 288.3,274.7 286.5,274.1 286.5,275.8 288.4,276 290.1,275.9 
		289.7,276.7 290.4,277.2 290.4,279.5 289.7,280 288.2,280.2 287.8,279.6 286.9,280 283.6,280 284,280.9 286.3,281.4 287.9,283.4 
		288.8,283.6 292.6,283.3 293.5,284.1 292.8,285.4 291.7,285.4 290.7,286.7 290.4,288.3 291,289.1 294.2,289.9 294.9,288.7 
		295.4,290 294.2,291.2 294.8,292.5 294,293 292.6,292.7 292,293.6 293.2,294.2 292.2,294.8 291.4,295.8 290.3,295.2 289.4,295.2 
		289,296.5 289.3,297.1 288.6,297.9 286.9,297.7 286,298.3 284.9,297.8 284.9,296.7 283.7,295.7 283.7,298.1 280.9,299.4 
		281.2,300.1 283.2,299.5 282.8,302.7 284.2,303.2 285.8,304.7 284.9,305.1 283.3,305.1 282.6,305.6 280.2,305.6 280.8,306.8 
		282,306.5 282.4,307.1 284.4,307.9 284,308.9 287.2,308.7 287.6,307.6 290.4,307.3 291.4,308.5 292.6,308.3 293.2,307.4 
		293.7,308.7 297,310.2 297.1,311.8 295.5,313.1 294.7,313.3 294.5,314.6 295.3,314.8 296,317.4 295.8,318.6 294.1,319.2 291,319.2 
		291.2,320.1 288,321.3 288.8,322.9 288,323.5 286.9,322.1 284.9,321.7 282.7,322.7 282.9,321.1 282.3,320.6 281.6,321.3 281,320.1 
		278.4,319.9 277.8,320.1 277.1,319 274.5,319.3 272.5,320.7 270.7,320.8 269.4,319.5 267.9,319.6 267.5,320 266,320.1 264.1,319.9 
		262.6,318.7 262.4,319.7 261.3,319.8 260.9,319.3 259.6,319.8 257.3,320.1 256.8,319.5 255.2,316.7 253.5,315.9 251.4,316.2 
		249.7,315.9 248.7,316.6 247.4,316.7 245.1,317.5 244.3,317.3 242.7,317.5 239.8,317.3 236.2,316 235.6,315.2 234.7,315.4 
		233.9,314.7 232.8,314.7 232.1,314.2 231.3,314.4 228.8,314.3 226.2,315.5 223.1,317.7 222.3,318.4 221.2,318.4 220.2,317.7 
		219.4,320.6 218.4,321.9 216.9,323.1 215.1,323.1 213.1,322.8 211.5,323.2 211.3,323.6 209.4,324 209.2,324.4 206.4,324.2 
		205.9,324.6 204.1,324.1 203,324.8 201.1,323.8 196.2,324.3 195.2,324.1 193.4,323 192.2,321.1 192.3,319.5 190.8,318.3 
		189.4,318.5 187.4,318.3 185.4,316.9 182.8,316.5 182,315.1 181.4,316 181.7,317.6 181.2,318.7 179.6,318.3 177.4,318.6 
		176.3,319.9 176.2,321.2 177.2,321.9 177.3,323 176.6,323.6 176.8,324.4 177.8,324.9 177.7,325.5 176.4,328.1 173.8,331.2 
		172.6,332.1 169.9,332.4 169.1,331.7 167.6,331.2 166.3,331.2 164.2,330.6 163.9,331.4 162.9,331.9 160.7,332.3 159,332.3 
		158.4,333.1 157.4,333.1 156.6,334 155.6,333.9 154.8,334.5 153.6,334.3 150.3,336.2 148.7,336.2 147.8,336.6 145.9,336.9 
		144.1,336.9 142.8,337.2 141.4,336.1 140.5,336.3 139.6,335.7 138.8,336.4 136.9,337.3 135.5,336.5 135.9,334.1 134.8,333.3 
		134.1,333.4 133.1,332.7 132,334 130.9,333.9 129.5,335.8 130,337.9 128.9,338.4 128.3,339.1 127.2,339 126.5,337.8 125.5,337.4 
		124.8,338 124.2,337.6 122.7,337.9 122.4,339.3 121.8,339.4 121.7,341.2 120.3,341.4 120.2,343.5 119.7,344.3 120.5,345.3 
		121.5,345.5 121.8,346.7 121.1,349.2 121.1,350.5 120.4,351.1 118.8,351.7 118,352.3 116.9,354.1 114.7,355.3 114.1,355.3 
		113.2,353.7 110.6,353.5 107.4,353.6 106.2,352.7 105.6,351.8 104.8,352.1 105.5,354.6 106.1,355.7 107.4,356.5 107.7,357.9 
		107.1,360.4 104.9,360 105.3,361.3 106.8,361.6 107.2,362.3 108.7,362.3 107.8,361.1 110.6,361 111.5,361.3 112,362.3 113.2,362.9 
		115.8,362.7 116.6,363.7 115.8,365.8 115.7,367.1 116.5,369.2 117.8,368.9 118.3,368.2 119.1,368.6 120.1,366.8 121.8,366.3 
		124,367.9 123.9,368.7 125.1,368.6 126.1,369.4 127.4,369.5 128.2,369.1 129.6,370 130.5,369.8 131.3,370.4 131.8,369.7 
		134.1,369.8 134.2,372.3 136.1,372.1 136.2,374.6 137,374.4 136.9,373.1 138.2,372.1 138.7,370.7 140.4,370.4 140,369.5 142.3,369 
		142.3,368.3 143.4,367.1 143.5,366.4 144.6,365.1 146.4,363.7 148.4,363.5 149.3,363.8 150.2,365.6 151.6,366 152,364.3 
		152.7,364.9 154.3,364.9 156.8,362 158.6,362.3 159.3,363 158.8,364.2 159.7,364.4 161,363.9 162.2,362 162.5,361.1 163.8,361.3 
		165,363.1 167.1,362.1 169,362.1 169.6,362.7 171.7,361.8 172,362.4 173.6,362.5 174.3,363.4 174,364.1 174.8,365 175.9,364.7 
		177.2,366 177.7,365.6 179.1,365.9 179.7,364.4 180.6,364.5 181.2,366 182.1,366.8 183,366.9 183.1,368 184,368.8 186.2,369.1 
		189.6,370.5 190.1,368 190.1,366.4 189.8,365.5 189.9,362.1 190.4,360.9 190.8,358.7 190.6,358.1 191.7,356.5 190.7,356.2 
		190.7,355.3 191.6,354 192.6,354.7 194.7,354.7 195.4,352.1 196.2,351.5 196.1,349 195.3,349.1 193.9,347.6 194.8,346.9 194,346.1 
		194.5,344.7 195.4,344 196.4,344 197.3,343.1 197.6,340.8 198.3,340.1 199.8,337.2 202,334.7 203,333.7 204.6,333.1 205.6,332.4 
		209.3,331.7 210.2,332.1 210.7,331.6 212.2,331.9 214.7,333 216.9,333.2 217.7,333.9 219.1,334.2 219.1,335.2 220.1,335.1 
		221.1,334.3 221.8,333.4 222.6,333.7 222.6,334.7 223.6,335.1 224.7,334.2 225.9,332 227.4,332.5 229.2,332.5 230.5,332.8 
		231.9,333.8 233.7,334.8 234.6,335.7 234,336.7 234.7,338.1 234.8,339.2 236.1,338.9 236.5,338.3 237.9,338 238.3,338.4 
		239.7,338.6 240,340.1 241.3,340.1 241,339.2 242.6,339 242.9,339.7 244.1,339.3 243.5,338.3 244.2,337.5 244.2,336.1 244.8,335 
		245.8,334.3 247.6,334.3 248.7,335 249.2,336.1 248.8,336.9 247.9,337 248.3,338.2 250,340.2 250.9,340.3 251.4,339.6 251.2,337.9 
		249.7,336.8 249.5,335.8 250.5,334.8 252.7,335.4 254.9,335.3 255.8,335.8 257,335.7 257.3,337.5 258.2,338.2 258.7,339.5 
		260.7,339.8 261.2,339.1 262.1,339 262.2,337.7 263.5,336.7 265,336 265.7,334.9 266,333.6 267.6,333.2 268.2,333.7 270.2,333.6 
		269.7,335.7 270.8,336.5 271.1,335.6 272.3,334.1 272.4,333.1 273.3,333 273.8,334.6 275.2,334.9 275.5,334.1 277.4,334.1 
		278.3,333.5 279.1,333.6 279.6,332.8 280.5,332.5 281,331.7 282.4,332.2 282.3,333.8 283.2,334.1 283.8,332.9 285.2,332.4 
		285.5,331 287.8,331.4 288.3,329.8 289,329.6 289.9,328.2 289.9,327.4 290.5,326 291.4,325.5 291.7,326.5 290.4,327.4 290.7,328.3 
		290.4,329.3 290.7,330.4 291.5,330.7 292.3,332.7 293,333.7 293.6,333.1 293,332.2 293.5,331.5 295.3,332.1 296.4,332.1 297,331.4 
		296.4,330.5 297,329.3 297,328.4 298.9,328.2 299.2,329 300.8,328.1 300.7,327.1 301.4,326.2 301.6,324.3 300.1,323.9 299.5,323.3 
		300.4,322.3 301.1,322.4 301.8,320.4 303.3,320.6 303.9,321.2 304.9,320.8 305.2,319.7 306.5,318.4 308,317.9 309.4,317.5 
		312.2,317.8 314.4,319.7 315.2,321.6 314.3,322.5 314.6,323.5 313.4,324.4 313.5,328 312.7,328.8 314,329.6 314.6,330.4 
		314.9,333.6 315.8,334.7 315.1,335.7 314.4,335.7 314.1,334.7 312.3,332.8 312.5,331.1 311.2,330.1 310.3,328.9 310,329.8 
		310.6,330.7 310.4,331.8 309.7,332.5 307.2,330.6 306.4,331.1 304.5,332.8 305,333.5 305,334.7 304.3,334.8 304.2,336.4 
		303.4,336.5 302.4,337.6 302.5,339.7 303.3,339.7 303.7,340.6 304.7,340.2 305.2,340.9 306.5,341.1 309.4,342.5 312.2,342.7 
		312.7,344 313.8,343.9 314.4,344.7 314.7,346.1 312.8,346 312.1,345.5 310.1,345.2 310.1,346.9 310.9,348 310.2,349.5 309,350.1 
		307.9,351.3 307.2,353.3 305.4,353.5 304.9,352.8 303.7,352.4 303.3,350.4 302.7,348.7 303.3,347.9 304,348 305.3,347.1 306.2,346 
		305,345.8 304,346.3 303.5,345.3 301.8,345.3 299.9,346.1 298.5,346.3 296.1,347 295.4,347.7 293,348.1 291.4,349.5 291,351.7 
		291,354 289.6,353.4 289.3,352.6 286.4,353.7 285.9,352.9 283.6,352.7 282.9,354.1 282.5,355.7 281.4,356.2 281.4,353.9 
		278.7,354.9 278.3,356.6 275.6,356.3 274.6,357.3 274.4,358.6 275.5,359.7 275.5,360.4 274.1,361.7 273.6,360.8 274,359 
		272.3,358.5 272.3,360.1 271.7,360.8 270.2,360.4 269.4,361.1 269.5,363 269.4,364.2 271.7,363.8 272.6,365 275.8,364.6 
		276.9,366.3 278.1,365.7 278.7,364.7 280.2,364.7 281.2,366.5 282.3,365.7 283.4,365.6 284.1,366.6 286.2,367 286.9,365.9 
		287.9,365.3 288.8,365.5 289.8,364.4 289.7,363.4 290.4,361.9 289.8,361.6 289.6,360 290.6,358.1 291.4,358.9 291.8,360.3 
		293.2,360.9 293.6,361.5 292.7,363.8 292.6,364.7 293.9,365.5 294.9,364.7 295.8,365 298,365.3 297.7,366.6 296.8,367.7 296.2,369 
		296,370.5 294.8,370.5 293.7,370.9 294.2,372 295.3,372.1 296,370.9 298,371.6 296.7,373.1 296.1,376.6 295.8,377 294.5,376.6 
		293.9,376.8 294.9,378.2 295.8,378.8 297.3,377.1 297.6,375.5 298.3,374.5 298.3,373.1 298.9,371.4 298.9,370 300.6,370.1 
		302.1,369.9 302.2,370.8 303.4,372.3 303.3,373.6 304.3,373.6 305.4,375.3 305.5,376.9 304,379.1 303.1,379.6 302.4,380.8 
		301.6,381.2 300.8,382.3 300.5,384.5 297.6,387.4 296.1,387.7 295.6,389.2 296.4,390.2 294.8,390.2 294.5,389.4 292.9,388.9 
		292.6,389.9 291.4,390.4 289.3,390.7 288,391.1 285.5,390.8 285.2,390.3 283.9,390.2 282.8,389.7 280.7,390 279.6,389.2 
		277.4,389.2 275.7,388.5 275.1,387.7 272.9,388.5 271.7,388.4 271.7,389.4 270.4,389.3 268.5,390.5 268.3,391.3 267.6,392.1 
		269.1,392.6 269.7,393.6 271,394.1 271.1,394.9 272.2,395.7 273,397.2 272.1,398.3 270.4,398.2 269.8,398.8 269.8,400 270.7,400.1 
		271.4,401.7 273,402.5 273.9,403.7 273.7,406.9 274.1,408.3 274.8,408.6 275.8,406.7 276.9,406.6 276.8,405.8 278.1,404.3 
		279,403.8 279.9,405.4 280.5,404.4 281.7,404.3 283.5,405.4 284.4,404.3 282.9,404 282.2,402.7 282.3,400.6 283.1,401.1 
		285.3,403.4 286.5,403.5 286.3,406.2 287.4,405.4 289,405.5 289.3,404.5 291,403.2 291.6,402.2 293.1,402.1 293.1,400.2 
		293.8,398.7 294.4,398.7 295.7,397.5 297.1,395.3 297.3,393.9 298.8,394.1 300.8,393.6 301.1,395 301.1,396.6 302.6,396.9 
		302.6,397.8 303.7,398.5 303.9,397.6 304.7,396.9 305.6,397.2 305.9,395.7 307.1,395.8 308.4,394.8 309,393 309.7,392.3 
		310.6,392.1 311.6,390.2 311.6,389.1 312.5,388.4 312.3,387.4 313.1,386.8 313.3,385.6 313.9,385.2 314.1,383.9 314.8,383.6 
		316.9,380.6 317.9,378.3 319.3,376 319.2,374.3 319.7,373.7 319.7,371.9 320.4,371.7 321.2,369.6 322.3,369 322.9,367.9 323.9,368 
		324.1,366.6 323.4,366.1 322,365.9 321.9,364.5 322.8,363.3 323.6,362.8 326.3,362.4 327.7,363 329.2,362.4 329.3,361.4 
		330.9,361.4 331.7,360.2 333.3,360.6 333.8,359 335,359 336.6,359.7 338,358.7 339.1,359 339.5,360 340.7,359.8 341.3,358.6 
		340.1,357.4 340.4,356 343.2,355.5 343.5,354.7 341.6,355 341.9,353.9 342.5,353.8 343.1,352.5 344.9,351.2 345,348.9 345.8,349 
		347,349.7 347.3,348.4 347,347 347.9,346.8 348.6,344.8 349.5,344.1 351.4,343.5 351.5,344.6 352.4,344.6 353.3,343.4 354.5,342.7 
		355.9,343.1 356.3,343.8 356.6,346 356.5,347.2 357.5,348.1 358.7,348.2 359.1,346.6 360,346.5 361.3,345.5 362.2,344.2 
		361.6,343.9 359.9,344.1 359.4,343.1 360.3,342.9 361.5,341.9 360.5,341.1 360.2,339.5 359.1,337.6 357.5,337.1 357.1,337.9 
		355.8,338.1 355.7,338.9 354.5,339.3 353.1,338.5 352.6,337 352.7,334.1 352.2,333.4 352.5,331.3 350.5,330.9 347.4,329 
		347.6,327.1 348.9,327 348.4,325.3 348.5,324.2 349.2,323.7 349.5,322 348.6,322 347.1,320.6 346.5,318.7 344.3,318.9 343.5,318.3 
		343,316.7 345.3,314.6 346.2,312.4 346,311.1 346.1,307.8 347,306.1 349.2,303.4 349.6,302.7 352.7,299.8 353.3,299.8 354.1,300.9 
		354.7,300.8 357,301.4 357.2,302.5 358.5,304.1 359.7,304.8 360,306.8 361.9,308.4 363.4,308.7 364.4,308.4 365.6,309.2 
		365.6,310.3 364.7,310.9 364.7,312.4 363.1,311.7 362.3,312.8 361.8,311.9 360.9,313 359.4,312.1 358.8,312.8 357.7,313.2 
		357.2,314.1 355.9,314.6 354.9,313.7 354.4,314.4 352.1,314.4 354,316.7 354.2,318 353.1,319.2 353.2,319.9 354.8,320.7 
		356.6,320.9 356.8,321.8 357.8,322.5 358.2,321.6 359.3,321.5 359.4,320.6 361.6,321 361.7,320.4 364.9,321.2 364.7,319.7 
		363.5,319.6 363,318.7 361.9,318 361.8,317 362.5,316.5 363,314.8 363.1,313.3 363.9,312.8 364.8,312.9 366.5,313.6 368,314.9 
		369.2,315 369.8,315.5 370.8,315.5 372.5,316.6 374.8,316.7 376.1,316.5 377.1,318.9 378.9,320.5 381,320.7 381.5,319.7 
		382.8,319.8 383.9,321.4 383.9,323.5 386.4,323 387.4,324.4 388.8,324.2 390.8,323.3 390.8,321.4 392.2,320.3 391.9,318.7 
		392.9,317.5 393.1,316.5 392.6,315.4 393.6,313.9 395.3,312.7 395.7,311.3 395,310.8 395.1,309.2 396.2,308.2 395.5,305.2 
		393,305.5 392.6,304.9 390.9,304.5 389.5,304.5 388.8,305.2 387.9,305.2 387.8,306.1 386.4,306.2 385.5,305.8 385.1,304.7 
		384.2,305.2 383.1,303.4 382.9,302.4 383.4,301.5 385.1,300.7 385.5,299.8 387.4,299.8 387.8,297.3 389.5,294.7 390.7,294.9 
		390.7,296.2 390.2,296.9 390.7,299.3 391.6,298.8 394.3,298.7 394.9,297.9 395.8,298 396.1,297.2 397,297.1 397.5,298 399.6,294.7 
		400.8,294.7 401.1,293.2 400.8,292.5 401.1,291.5 401.1,289.9 404.3,290.3 404.9,291.2 404.9,292.3 403.5,293.4 403.9,294.4 
		405.8,294.3 407.3,294.8 406.9,297.3 407.3,298.6 407,299.5 406.2,300 403.6,299.9 403.1,301.4 402.7,301.7 402.9,303.2 404.1,304 
		404,305.4 402.6,305.4 402.4,307.4 403.7,308.8 402.8,309.7 403.2,310.5 404.2,310.6 404.2,312.3 404.9,313 405.6,314.8 
		407.8,313.9 408,313.4 409.5,313.7 411.4,313.3 412.2,312.8 413.3,313.1 415,312.4 416.1,312.9 416.7,313.9 415.8,314.7 
		415.9,316.1 415.1,316.1 414.8,317.6 413.4,317.9 413.3,319.3 414.5,319.2 415.9,320 415.6,321.1 416.9,322.4 418.1,321.5 
		419.2,319.2 421.1,319 421.8,320.6 421.2,321.2 421.7,323.1 423.6,322.7 425.1,324.1 426.4,324.1 427.4,323.3 427.5,320.7 
		427.1,320.2 425.9,320.4 425.2,319.2 424.1,318.9 424.6,317.1 424.4,315.8 425.2,315.2 427.9,314.9 429.3,313.9 428.7,311.9 
		429.6,311.1 429.9,308.9 429.6,307.9 431.2,307.2 432.1,307.3 432.8,309.1 433.6,309.1 434.1,310.8 433.4,311.9 434.5,312.2 
		435.3,313 436.7,312.6 437.3,313 439.1,312.9 441.5,315.1 442.1,316.5 441.8,319.6 442.8,319.4 443.1,318.3 444.1,318.4 
		444.8,317.8 446.5,318.6 446.9,319.9 448.3,320.6 450.5,323.6 451.6,325.4 451.9,327 451.4,328.7 449.9,329.2 448.1,329.4 
		447.3,330.5 447,332.1 447.6,332.7 447,333.7 448,334.7 449.8,334.9 450.3,334.5 452.4,334.5 452.4,335.5 450.4,336.3 449.8,337.3 
		449.6,339.2 448.7,339.7 448.9,340.4 446.7,340.8 446.3,341.4 446.5,342.5 445.8,342.8 445.8,344 447.1,343.5 448.1,342.7 
		448.6,344.6 449.9,345.3 449.3,347.1 449.8,347.7 449.2,349.7 448,349.7 447.6,350.5 448,352.1 448.3,354.1 449.1,354.4 
		450.8,356.1 452.4,355.5 453.6,354 454.1,351.5 456.2,348.8 455.9,347.5 457.2,347.9 457.9,348.8 458.3,350.2 461.2,350.6 
		461.6,352.8 463.2,352.8 463.6,353.3 463.1,355.7 463.4,356.7 462.4,357.1 462.5,358.4 463.7,358 464.7,358.1 465.2,357.2 
		468.1,356.5 468.6,355.2 470.3,354.6 473.3,354.3 473.6,353.4 478.5,353.3 480,354.1 481.2,354.2 482.9,355 484.8,355.4 488,356.8 
		489.8,357.9 490,358.5 491.2,358.4 492.3,359.3 493.9,359.8 495.4,360.6 497.6,363.3 498.1,364.5 498,365.5 499.1,366.6 
		498.4,367.8 497,368.5 497,369.6 496.5,370.2 497,371.5 496.4,373.3 498.7,372.7 499.1,371.6 501.3,371.7 502,371.4 502.8,370.3 
		503.7,370.6 504,371.7 504.9,371.8 505.1,372.7 506.5,374.8 506.3,377.3 507.5,377.7 508.8,376.7 510.1,376.7 512.2,378.2 
		511.7,378.7 510.1,379 508.7,380.3 507.8,381.7 505.3,382.1 504.9,383.1 505.6,383.5 505,387.4 506.2,387.6 506.1,390 506.5,390.5 
		508.3,391.4 508.4,391.8 510.1,393.1 510.6,394.8 510.6,396.3 513.1,394 514.1,393.6 515.1,391.7 515.7,391.4 518.5,391.6 
		518.3,391 517,390.2 516.7,388 517.1,387.6 516.4,385.8 517.3,384.5 518.9,384.2 518.4,383.2 519.5,382.5 520.2,382.9 520.9,382.2 
		520.6,381.5 522.1,380.4 521.7,379.6 522.8,378.5 523.5,377.4 524.2,377.6 525.3,377 525.9,377.5 526.9,377.5 527,375.8 527.7,374 
		526.8,373.5 524.4,374.2 524.1,375.5 522.2,375.8 521.4,374.6 520.5,374.2 519.5,374.5 519.3,378.2 519.9,378.4 519.8,379.5 
		517.4,379.7 515.8,377.3 516.7,376.7 516,375.7 514.8,375.7 514.2,376.5 512.8,376.8 512,376 512.9,374.7 514.1,374.2 514.4,373.5 
		515.4,373.4 516.3,372.2 514.8,371.9 513.9,370.3 512.2,370.2 512.1,368.8 512.9,368.7 513.7,367.9 515.7,367.7 516.8,366.6 
		516,364.6 515,364.7 514.1,364.3 514.4,363.4 516,362.8 516.8,360.5 516.5,359 516.9,358.5 516.6,356.7 517.6,356.5 518.2,357.6 
		519.2,357.9 519.9,357.3 519.4,355.5 521.1,355.3 521.8,355.7 523.5,355.4 525,355.9 524.9,354.9 525.4,354.2 526.6,354.1 
		528,353.5 528,352.6 526,352.5 525.2,351.6 523.9,351.9 523.9,351.1 525.2,350.6 528.3,350.5 528.4,348.9 528.9,348.3 529.3,346.8 
		528.4,346.5 529.4,344.9 530.9,345.4 531.8,344.2 531.1,343.7 532.6,343 533.7,343 533.1,341.2 532.3,340.1 532.6,338.9 534,338.5 
		534,336.8 532.9,337.4 532,336.7 532.6,336.6 533.4,335.4 535.6,335.1 536.8,335.9 537.2,337.4 537,338.5 538,339.4 538.9,340.8 
		538.8,341.9 540.7,343 542.1,344.8 543.2,345.9 543.6,344.3 544.9,344.2 545.8,345 545.8,345.8 547.1,346.3 547.1,347.5 
		547.7,348.1 549.4,348.1 549.5,349.3 550.2,350.1 550.5,351.5 552.9,352.3 552.4,351 553.6,350.7 554,351.4 555.7,351.7 
		556.2,350.8 556.9,350.8 558,349.9 558.7,350.3 558.7,351.5 557.5,352.7 556.8,352.7 556.5,353.9 557.9,355 559.3,353.2 
		560.3,354.1 561.3,353.5 561.8,352.5 561.9,356.5 562.9,356.8 564.4,358.8 565.4,359.6 566.4,361 568,362.4 570.2,363 572.4,362.2 
		573.8,362.4 574.5,363.1 577.8,363.1 580.7,366 582.2,368.5 583,370.7 583.1,372.4 584.7,372.3 586.3,375.2 586,376 586,379.1 
		585,380.7 584.4,382.7 583.4,383.5 582,383.9 580.5,383.5 579.6,384.2 578,384.2 577.4,384.7 576.9,383.6 578.4,380.3 579.4,381.1 
		580.3,380.6 580.6,379.1 580.1,377.8 579.1,377.6 578.7,376.1 577.5,375.7 576.1,376.5 575.4,375.6 573.9,375.5 573.3,375.9 
		573,377.3 573.8,377.7 574.2,381.8 573.7,382.6 574.5,384.4 572.6,384.3 572.8,385.3 573.6,386.6 571.3,386.4 571.3,385.8 
		568.8,386 567.9,386.9 566.4,385.7 565.4,384.3 563.8,384.7 563.2,386.3 562.5,386.9 562.7,388.5 561.3,389 561.1,390.6 
		560.4,391.2 561,392.3 560.6,393.8 561,395 560,396.2 559,396.7 559.6,399 562.3,399.8 561.9,400.9 562.1,401.9 561.6,403.5 
		562.7,404.2 564.3,403.8 565.4,407.2 564.4,407.7 562.6,409.1 560.4,410.4 559.9,411.2 557.7,411.2 557.4,410.6 555.9,410.9 
		555.5,412.1 556.2,413 557.1,412.9 557.9,413.6 559.3,413.6 559.8,414.3 561.3,414.5 562,412.9 563.2,413.5 563.9,414.4 
		566.2,413.7 567.7,412.6 567,411.4 566.8,408.1 566.3,407.1 568.1,407.3 569.5,407.9 569.7,407.2 571.5,407.7 573.4,407.3 
		575.2,407.2 575.9,405.3 577.1,404.7 577.6,406.6 577.5,408.1 578.4,408.5 578.9,410.1 578.4,411 580,412 581.8,411.5 582.8,412.6 
		583.3,410.8 582.1,409.2 581.6,408.2 583.3,408.4 584.1,409.3 583.5,410.3 584.7,410.4 586.3,411.7 587.2,413 587.2,416 
		587.7,418.1 587,419.7 587.4,420.9 586.5,421.5 586.3,423.5 585.3,426.9 586,428.3 587.3,429 587,429.9 585.9,430 585.7,429.4 
		584.1,429.5 583.6,431.9 583.7,432.5 583.1,433.9 581.5,436.6 580.4,437.4 580.9,437.9 581,439.5 583.6,440.3 584.1,441.3 
		584.1,442.3 587.1,442.7 586.4,444.2 585.4,445.3 585.6,446.4 586.6,446.9 586,448.4 588.1,448.4 588,449.5 588.7,449.9 588,451.1 
		588.5,452.7 589.4,454.2 588.6,455.2 587.7,454.9 586.9,455.5 585.2,455.5 587.3,457.3 588.4,457.6 588.1,459.8 586.2,460.2 
		584.3,460.2 583.8,461.7 583.1,462.6 582.4,462.5 581.2,463 580.8,464.1 581,465.1 580.1,468.3 580.9,469.8 583.1,469.6 
		583.1,468.5 584.3,467.7 585.7,468.3 585.7,469.9 586.2,471.3 586.8,471.3 585.2,473.8 586.5,473.5 589.9,473.3 590.5,473.5 
		592,472.8 592.9,473.7 591.5,475.5 591.2,477.3 590.5,477.9 590.7,479.5 591.8,480.6 593.1,480.3 594.2,481.6 594.9,480.7 
		596.3,481.3 596.5,482.1 597.7,482.8 596.9,483.4 596.7,484.2 597.7,485.3 598,486.4 599.6,486.1 600.6,485 602.1,486 602.9,485.9 
		602.7,487.8 603.2,488.7 604.9,489.2 605.9,488.3 608.4,489.9 610.1,491.6 610.3,492.7 611.3,491.8 612.1,492.2 613.2,491.4 
		614.9,491 615.8,491.9 618.6,493.4 619.8,494.9 621.1,494.9 623.1,498.6 623.9,499.3 624.6,501 629.5,499.2 631.7,498.1 633,496.8 
		634.1,495.4 635.1,492.9 635.9,488.6 636.3,486.9 638.3,482.7 638.9,481 639.3,478.2 639.8,472.5 640.2,470.7 640.8,469 
		642.3,465.8 642.7,464.2 642.5,461.2 640.7,457.4 640.2,455.1 640.3,453.5 640.8,451.9 642.3,449.5 645,446.5 658.5,432.8 
		661.4,430.1 663.7,428.3 668,426.2 670.3,424.6 674,421.2 685.9,408.8 690.2,404.6 693.3,402.4 697.6,400.3 699.1,399.3 
		701.2,397.4 703.9,394.7 706.5,391.7 708,389.5 709.9,386.5 710.4,384.9 712.7,380 713.4,376.8 713.7,371.1 713.5,353.7 
		713.8,346.9 714,344.6 714.6,342.5 716.4,338.3 717,336.4 717.4,334.3 718,328.8 718.4,326.6 719,324.7 721.1,320.6 722.7,317 
		724.4,314.4 728.2,309.6 729.3,307.8 730.9,304.3 733.6,299.4 735.1,295.8 737.1,291.7 738,288.8 739,281.3 740,275.6 	"/>
	<polygon class="st0" points="565.1,373.1 567.3,371.4 567.2,369.8 566.6,369.9 565.6,368.4 565.1,369.2 564.1,369.5 564.7,370.4 
		564.5,371.9 	"/>
	<polygon class="st0" points="312.6,392.8 314.4,393.6 314.8,392.3 314.1,391.7 	"/>
	<polygon class="st0" points="334,261.1 333.6,259.3 332.3,259.9 331.4,260.7 331.2,261.5 332.8,261.7 	"/>
	<polygon class="st0" points="334.5,248.4 334.2,249.4 336.7,249.4 336.6,248.4 335.5,248.5 335.7,247.6 	"/>
	<polygon class="st0" points="345.8,350.9 347,351 347.3,350.2 345.8,350.3 	"/>
	<polygon class="st0" points="292.3,346 292.3,346.6 294.2,346.6 295.9,345.8 296.9,344.5 297.4,343 296.8,342.8 295.2,343.3 
		293.5,342.6 292.1,342.9 292.2,343.6 293.6,344.1 293.6,344.6 	"/>
	<polygon class="st0" points="398.8,327.2 398.8,328.4 397.8,329.7 400,329.7 399.9,327.4 	"/>
	<polygon class="st0" points="279.8,348.1 279.3,348.9 280.7,350.6 280.5,348.9 	"/>
	<polygon class="st0" points="290.7,368.9 289.5,368.1 289.2,366 288.6,367.7 287.9,368 286.9,369.9 287.2,370.9 288.5,370.7 
		288.9,371.4 289.4,373.4 290.7,373.9 291.9,372.4 291.9,371.4 291,371.3 291.2,370 	"/>
	<polygon class="st0" points="283.4,351.2 285.3,349.7 286.5,349.7 287.7,349.1 288.5,345.8 287.2,346 286.9,346.5 284.2,346.6 
		283.6,347.7 282.7,348.4 282.6,349.4 283.4,350.1 	"/>
	<polygon class="st0" points="295.1,374.9 294.2,373.7 293.1,373.7 293.9,374.9 	"/>
	<polygon class="st0" points="286.9,294.9 286.5,293.9 284.7,294.2 285.2,294.9 	"/>
	<polygon class="st0" points="358.1,311.2 355.5,311.5 355.5,312.1 358.1,312.1 	"/>
	<polygon class="st0" points="345.9,315.9 346.1,317 347.2,317.4 348.4,317.2 349.3,317.7 349.6,319 350.7,316.4 350.1,315.4 
		348,316.3 	"/>
	<polygon class="st0" points="139.7,194 140.6,194.7 141.5,194.4 142.3,194.7 143.9,193.3 144.7,192.2 145.8,192.2 146.1,191.6 
		147.4,191.2 147.3,192.9 148.1,194.4 149.9,194.8 151.1,193.1 151.4,191.7 152.3,190.6 151.8,189.4 151.7,187.2 152.4,186.9 
		151.4,185.8 150.4,186.7 148.9,187.1 147.8,186.7 147,188.2 146.6,187.9 143.9,190.2 143.7,189.2 142.8,188.3 141.7,188.3 
		141,189.7 141.7,191 140.4,193.4 	"/>
	<polygon class="st0" points="160,156.8 157.4,154.2 156.2,153.5 155.8,154.5 157.4,155.3 158.4,156.5 	"/>
	<polygon class="st0" points="106.8,142.9 106,142.1 105.1,143.5 105.7,144 	"/>
	<polygon class="st0" points="469.2,358.3 470.3,358.2 470.3,357.3 468.7,357.6 	"/>
</g>
</svg>
