<?xml version="1.0" encoding="utf-8"?>
<!-- Generator: Adobe Illustrator 24.2.3, SVG Export Plug-In . SVG Version: 6.00 Build 0)  -->
<svg version="1.1" id="Layer_1" xmlns="http://www.w3.org/2000/svg" xmlns:xlink="http://www.w3.org/1999/xlink" x="0px" y="0px"
	 viewBox="0 0 800 533" style="enable-background:new 0 0 800 533;" xml:space="preserve">
<style type="text/css">
	.st0{fill:#F2933D;stroke:#000000;stroke-width:0.4;stroke-miterlimit:9;}
</style>
<polygon class="st0" points="641.6,287.6 641,286 639.9,283.6 639.2,281.7 638.7,279.4 637.9,273.4 637.4,271 636.7,269 
	635.1,265.3 634.4,263.2 634.1,260.7 634,258.2 634.4,253.4 633.7,242.8 633.3,239.5 632.4,236.4 630.3,231.9 629.6,228.5 
	629.3,223.8 629.3,210.6 629,207.1 628.4,204.9 627.6,203 625.7,199.4 624.1,195.5 621.7,191.1 619.6,186.3 616.8,180.9 614.8,176 
	612.8,172.5 611.2,168.8 610.2,167 608.2,164.7 606.5,163.6 597.9,159.6 596,156.8 593.9,154.1 585.6,145.2 582.7,141.9 581,139.2 
	579.6,136.1 578.7,134.4 576.8,131.7 573.9,128.5 566.9,121.2 564.8,118.7 563.6,116.9 562.8,115 562.4,113.1 561.7,109.3 
	561.2,107.5 560.8,106.6 558.6,102.1 557,98.1 554,92.9 552.4,88.9 550.5,85.4 549.7,83.5 549.2,81.6 549,79.7 548.8,74.6 
	546.8,75.1 544.8,75.7 540.4,77.8 538.4,78.5 536.3,78.9 529.9,79.6 527.8,80 525.9,80.7 521.5,82.8 519.4,83.3 512,84.1 
	509.9,84.5 507.9,85.2 503.6,87.6 499.8,89.2 494.6,92.2 490.8,93.9 485.7,96.8 481.8,98.5 480,99.7 478.3,101.1 474.3,104.9 
	472,107.5 470.7,109.2 469.5,111.1 469.1,112.1 468.4,114.1 468,116.3 470.3,117.3 471,117.8 471.9,119.3 473.8,125 476.2,130.4 
	476.8,133.6 476.6,137 476.1,139.1 475.7,140.1 474.1,142.7 470,148.9 467.5,150.2 465.9,151.3 463.5,153.4 458.2,158.6 
	455.8,160.6 454.1,161.7 450.4,163.5 447.7,165.4 444.3,168.5 436.2,176.9 434.5,178.3 432.6,179.6 431.6,180.1 429.6,180.8 
	425.5,181.7 423.5,182.2 419.1,184.4 417.2,185 415.1,185.4 408.7,186.1 406.6,186.5 404.7,187.2 400.3,189.3 398.2,189.8 
	396.1,190.1 391.7,190.3 388.6,191 386.7,191.7 382.4,194.1 378.5,195.8 373.4,198.7 369.5,200.3 362.3,203.6 359.1,204 
	354.6,204.3 349.1,204.2 345.8,204 342.7,203.2 338.3,201.1 336.4,200.4 334.3,200 329,199.5 326.9,199.1 324.8,198.5 323,197.5 
	315.9,191.8 311.3,189.5 309.6,188.4 308,187 305.8,184.8 304.5,183.2 303.3,181.5 302.4,179.7 301.1,176.8 300,174.9 298.7,173.1 
	295,169 283,156.7 279.2,152.6 277.8,150.8 276.6,149 275.6,147.1 274.4,144.2 273.3,142.5 271.4,140 268.4,137.1 265.9,135.4 
	262.1,133.7 256.9,130.7 254.1,129.5 252.3,128.5 250.7,127.3 246,123.3 244.3,122.2 242.4,121.4 237.3,120.2 235.3,119.6 
	233.5,118.7 230,116.7 227.2,115.4 215.3,116 211.7,116.3 208.4,117.1 203.9,119.1 200.8,120 197.4,120.4 190.4,120.8 188.1,121.1 
	185,122.1 177.1,126.7 174.5,128.2 172.7,129.6 170.3,132.1 168.9,133.9 167.8,135.8 166.5,138.7 164.2,143.1 163.5,145.2 
	163.1,148.5 163.1,153 163.6,156.2 164.3,158.2 166.4,162.8 167,165 167.4,168.6 167.7,175.8 168.2,179.3 168.9,181.4 170.9,185.9 
	171.5,188.2 171.9,191.8 172.3,199.2 172.9,203 179.4,204.6 181.2,205.6 182.8,206.8 184.6,209.1 187.1,213.7 191.7,220 193.3,223 
	193.7,224.1 194.2,226.5 194.4,231.4 194.3,247.8 193.8,256.4 190.6,259.2 187.8,262.2 186.1,264.7 184.4,268.5 183.2,270.4 
	181.2,273 175.9,278.8 173.8,281.4 172.7,283.2 170.9,287.1 169.8,288.9 167.7,291.5 162.2,297.2 160.2,299.7 159.1,301.7 
	158.8,302.7 158.6,303.8 158.4,306 158.6,308.2 159.1,310.4 161.7,315.7 162.3,317.8 163.1,322.1 163.7,324.1 164.5,326 
	166.4,329.5 167.9,333.5 170.8,338.8 172.5,342.7 173.7,344.6 175.7,347.2 181.8,353.8 183.2,355.5 184.4,357.3 186,361.3 
	187.9,364.8 188.8,366.7 189.4,368.8 190.2,373.1 191.4,377.4 193.2,380.6 194.4,383.5 195.3,385.4 196.5,387.1 197.8,388.7 
	200,390.9 201.6,392.2 203.3,393.3 206.2,394.6 208,395.6 209.7,396.8 211.4,398.2 215.4,402.1 220.8,407.8 222.9,410.3 224.7,413 
	226.4,416.9 228.7,421.3 229.4,423.3 229.7,425.5 229.6,427.7 229.3,429.8 228.6,431.8 226.3,436.2 225.9,437.3 225.5,439.4 
	225.2,441.7 225.2,443.9 225.3,446.2 225.7,448.4 226.1,449.5 227.1,451.3 228.3,453 229.7,454.5 231.3,455.8 232.9,457 
	234.5,457.9 236.3,458.4 238.7,456.1 240.3,454.9 247,451.2 249.3,450.4 252.9,449.8 257.9,449.7 262.9,449.9 267.8,450.6 
	271.3,444.5 274.4,440.7 277.6,437.2 280.2,434.8 282.1,433.4 284.1,432.3 286.1,431.6 291.2,430.4 293,429.7 297.5,427.6 
	300.8,426.9 306.5,426.6 326.5,426.7 341,426.6 347.1,427 350.5,427.8 354.7,429.9 356.9,430.7 360.3,431.3 365,431.5 369.6,431.2 
	373,430.4 375.1,429.3 379.8,426.3 387.1,422.9 391,421.3 392.7,420.2 394.3,418.9 395.8,417.5 404,409 407.1,406.2 408.8,404.9 
	409.6,404.4 412.6,403.1 414.3,402.2 416.7,400.4 420.4,396.8 427.2,389.7 427.9,385.3 428.8,382.3 426.6,376.2 424.1,371.7 
	422.4,367.8 421.3,365.9 419.2,363.1 411.9,355.3 410.6,353.4 410.1,352.3 409.5,350.2 409.2,348 409.4,345.8 410,343.7 
	411.1,341.9 412.5,340.5 413.4,339.9 415.3,339 417.6,338.6 423.4,338.4 445.9,339.1 449.2,338.9 451.2,338.3 452.1,337.8 
	452.8,337.2 453.5,336.2 454,335.2 454.3,334.1 454.5,331.6 454.4,327.8 454,325.2 453.4,322.9 452.2,319.8 459,316.3 462.9,314.7 
	468.1,311.8 471.9,310.1 477,307.2 480.8,305.5 486,302.5 489.8,300.8 494.9,297.8 498.7,296.1 503.1,293.8 505.1,293.1 
	508.5,292.5 512.1,292.3 522.9,292.3 528.9,292.5 531.3,292.7 533.5,293.2 535.5,293.9 539.9,296 542.1,296.7 546.9,297.2 
	556.6,297.4 561.3,297.1 563.4,296.6 564.3,296.2 565.8,295.2 568.4,292.3 574,291.9 576,291.4 578,290.7 582.9,292.8 589.2,296.1 
	592.7,296.9 597.5,297.3 614.8,297.3 620.9,296.9 624.4,296.2 628.9,294.2 630.9,293.6 637.3,292.8 639.2,292.3 640.1,291.9 
	640.8,291.2 641.3,290.4 641.6,289.5 "/>
</svg>
