<?xml version="1.0" encoding="utf-8"?>
<!-- Generator: Adobe Illustrator 24.2.3, SVG Export Plug-In . SVG Version: 6.00 Build 0)  -->
<svg version="1.1" id="Layer_1" xmlns="http://www.w3.org/2000/svg" xmlns:xlink="http://www.w3.org/1999/xlink" x="0px" y="0px"
	 viewBox="0 0 800 533" style="enable-background:new 0 0 800 533;" xml:space="preserve">
<style type="text/css">
	.st0{fill:#F2933D;stroke:#000000;stroke-width:0.4;stroke-miterlimit:9;}
</style>
<polygon class="st0" points="534.5,343 534.2,340.4 533.6,337.9 533.1,336.9 531.8,334.9 530.3,333.1 527.7,330.7 525.8,329.4 
	524.7,328.9 522.4,328.3 513.9,327.4 510.7,326.5 503.3,322.7 501.6,321.6 499.4,319.3 497.2,316.2 497.2,303.4 497.4,299.6 
	497.8,297.1 498.4,294.7 500.5,290 501.2,287.9 501.7,284.2 502.1,276.7 502.5,273.1 503.1,270.7 505.2,266 505.9,263.8 
	506.4,260.2 506.8,252.7 507.2,249 507.8,246.7 509.8,241.9 510.5,239.7 510.9,237.3 511.5,231.1 512,228.7 512.4,227.5 
	513.5,225.4 515.8,222.6 518.5,220.2 523.3,217.2 518.6,210.1 517.1,207.3 516.4,205.2 515.4,200.8 514.8,198.7 512.4,193 
	511.9,190.7 511.6,187.3 511.7,183.7 512.3,179.5 511,175.7 510.5,174.8 509.3,173 507.1,171 504.8,169.6 501.7,164.8 498.8,161.1 
	494.7,156.7 484.6,146.6 482.3,144 480.3,141.1 479.5,139 479.1,136.7 479.3,133.3 479.8,131.1 482.1,126.5 482.5,125.6 483,123.4 
	483.5,119.9 483.8,112.9 484.3,109.4 484.8,107.2 485.3,106.3 487.5,101.7 488,99.6 488.2,97.4 488.1,96.4 487.5,94.4 487,93.5 
	485.6,92.2 480.6,89.2 478.8,88.3 473.9,86.2 467.1,82.5 464.5,81.4 460,78.9 455.1,76.8 449.4,73.2 448.7,72.7 448.1,71.9 
	447.8,71 447.6,70.1 447.8,68.2 450,63.3 450.4,61.3 450.3,60.2 450.1,59.1 449.1,57.3 448.5,56.5 447,55.1 445.3,54 441.5,52.3 
	437,49.8 433,48.2 427.6,45.1 423.6,43.4 418.3,40.3 414.4,38.6 411.7,36.9 405.4,32 404.6,39.3 404,42.7 403.3,44.8 401.1,49.5 
	400,53.8 398.9,58.2 396.1,63.8 394.5,67.8 392.1,72.5 391.1,75.8 390.8,78.2 390.6,82 390.7,97.8 393,99.5 394.7,100.6 
	396.3,101.3 397.8,101.7 399.8,102 402.9,102.1 404.9,102 407,101.7 408.9,101.1 409.9,100.6 412.6,98.5 415.8,95.3 423.7,86.7 
	425.3,85.2 427,83.9 428,83.4 429.7,83 431.4,83.1 432.2,83.3 433.1,83.7 433.9,84.3 434.6,85 435.1,85.8 435.5,86.7 435.7,87.7 
	435.6,88.7 435.4,89.6 433.7,92.9 432.3,96 431.3,97.7 429.3,100.3 422.5,107.5 420.4,110.1 419.3,111.9 417.5,115.9 415.1,120.5 
	414.7,121.5 414.2,123.4 414.1,125.5 414.2,127.5 414.6,129.4 414.9,130.4 416.7,133.9 417.4,135.8 417.7,137.5 417.6,139.2 
	417.1,141.1 416.6,142 415.4,143.7 413.3,146 408.3,151.1 405,153.2 400.2,155.5 398.5,156.8 397.8,157.5 396.6,159.2 395.7,161.2 
	395.4,162.4 395,164.8 394.9,167.3 395,171.1 395.2,173.6 395.6,176 396.3,178.3 398.6,183 399.3,185 399.6,186.1 399.8,189.5 
	399.4,191.7 399,192.8 398.5,193.8 397.2,195.4 395.5,196.7 394.6,197.2 393.5,197.6 391.1,198 383,197.9 381,198 380,198.3 
	379.1,198.7 378.3,199.4 377.8,200.3 377.5,201.2 377.6,203.1 378.3,204.8 380,208.1 380.7,210.2 381.1,212.4 381.2,214.8 
	381.2,217.1 380.9,219.4 380.7,220.5 379.7,222.5 379.1,223.4 377.7,224.9 376.1,226.1 371.3,228.4 369.5,229.8 366,233 
	364.6,234.8 363.3,236.8 361.6,240.9 358.9,246.5 358.3,248.7 357.4,253 356.7,255.2 354.9,258.1 350.7,263.7 349.6,265.7 
	349.2,266.8 348.8,269.1 348.5,271.4 348.5,279.7 344.3,280.9 338.9,283.5 336.7,284 334.5,284.1 332.4,284 330.3,283.4 
	324.8,280.9 321.3,280 318.9,279.8 315.2,279.7 311.4,279.8 307.1,280.2 304.3,282.4 301.7,284.8 299.4,287.6 298.3,289.7 
	297.7,291.9 297.4,294.2 297.3,302.4 297.1,304.7 296.7,306.9 295.8,308.9 294.6,310.6 293.1,312 291.3,313.1 287.6,314.9 
	283.3,318.1 282.9,320.3 282.3,322.5 280.1,327.2 279.4,329.2 278.3,334.8 277.7,336.9 276.8,338.8 274.8,342.5 273.1,346.6 
	270,352.1 268.3,356.1 266,360.6 265.4,362.7 265.4,364.9 265.6,366 266.3,367.9 268.2,371.5 270,375.4 271.2,377.1 273.5,379.2 
	275.3,380.2 278.2,381.5 280.8,383.3 283.9,386.2 285.3,387.9 286.6,389.6 287.6,391.6 288.8,394.6 291.7,400.2 294.6,408.1 
	295.4,411 296.4,413.3 298.1,418.6 300.8,424.3 303.7,435.2 304.6,435.5 305.1,435.8 305.9,437.1 307.4,442.6 309.3,447.1 
	309.7,449 309.8,450.3 315.4,453.3 317.1,454.6 319.5,456.8 321.7,459.2 322.8,460.9 323.7,462.6 324.2,464.6 329.3,467.8 
	331.1,469.2 333.7,471.5 340.3,478.1 342,479.5 343.9,480.8 347.8,482.6 353.2,485.5 355.3,486.2 359.6,487.2 363.7,488.6 
	363.9,489.4 364.2,489.8 365.5,490.5 367.1,490.8 369,490.7 371,490.3 375.3,488.2 377.5,487.4 380.8,486.8 385.4,486.5 
	388.6,485.7 390.5,485 395,482.4 398.9,480.7 402.4,478.6 404.3,477.8 405.3,477.4 407.5,477.1 409.7,477.1 411.9,477.4 
	413.9,478.1 423.2,483.1 425.8,485.2 434.1,493.3 435.9,494.7 437.8,495.8 440.7,497.2 445.2,499.7 447.2,500.4 449.4,500.9 
	451.6,501 456.1,500.8 459.4,500.1 464,497.8 465.9,497 471.3,495.9 473.4,495.3 475.2,494.4 480.3,491.4 481.9,490.2 483.1,488.6 
	486,483.3 486.8,481.4 487.5,478 487.7,472.1 487.7,467.3 486.6,463.1 484.4,458.3 484,457.3 483.5,455.1 483,450.5 482.9,443.3 
	483.2,437.4 483.9,434 488.5,424.4 489,423.6 490.4,422 492,420.7 492.9,420.2 495,419.5 499.2,418.7 501.3,418.1 506.8,415.6 
	514.2,413.9 515.3,413.5 517.3,412.4 519.9,410.1 521.5,408.3 523,406.5 524.2,404.5 526,400.5 527.9,397.6 530.4,395 533.4,392.5 
	534.1,386.8 534.3,381.5 534.6,346.9 "/>
</svg>
