<?xml version="1.0" encoding="utf-8"?>
<!-- Generator: Adobe Illustrator 24.2.3, SVG Export Plug-In . SVG Version: 6.00 Build 0)  -->
<svg version="1.1" id="Layer_1" xmlns="http://www.w3.org/2000/svg" xmlns:xlink="http://www.w3.org/1999/xlink" x="0px" y="0px"
	 viewBox="0 0 800 533" style="enable-background:new 0 0 800 533;" xml:space="preserve">
<style type="text/css">
	.st0{fill:#F2933D;stroke:#000000;stroke-width:0.4;stroke-miterlimit:9;}
</style>
<polygon class="st0" points="591.4,150.8 591.1,148.2 590.1,144.6 587.7,139.7 585.9,135.5 582.8,129.8 580.9,125.6 578.8,122.5 
	574.6,117.6 571,114.1 569,112.5 566.9,111.2 564.4,110.5 561.9,110.1 558,109.9 536.6,110.2 532.7,109.9 530.1,109.4 527.9,108.6 
	523.2,106.1 519.1,104.3 511.2,99.4 510.4,98.7 509.2,97.1 506.2,91.6 505.3,89.6 504.7,87.4 503.8,82.7 503.2,80.5 500.6,74.5 
	498.4,65.4 496.2,60.4 495.5,58.3 494.4,52.6 493.8,50.3 489.7,41.3 488.6,39.4 487.2,37.7 485.5,36.4 484.5,35.9 482.2,35.1 
	479.8,34.7 477.3,34.6 465.6,34.8 465.6,39.8 465.4,46 464.7,49.5 463.8,51.5 460.8,57 459.6,58.7 457.9,59.9 452.6,63 450.7,63.9 
	448.5,64.6 442.9,65.8 440.9,66.6 436.1,68.9 432.8,69.7 428.1,70 425.7,69.8 423.4,69.4 421.3,68.6 416.7,66 413.6,64.5 
	411.6,63.4 409.8,61.9 401.1,53.5 398.4,51.3 388.7,46.1 386.6,45.3 384.4,45 382.1,45 379.8,45.4 378.7,45.7 376.7,46.6 
	373.1,48.7 369,50.6 364.3,53.2 362.3,54 359,54.8 354.2,55.1 350.7,55.8 348.5,56.6 344,58.8 341.9,59.2 339.9,59.3 338.2,59 
	336.9,58.3 336.6,57.8 336.4,57 332.1,55.6 327.6,54.5 325.4,53.8 319.8,50.7 315.7,48.8 313.8,47.6 311.9,46 305,39.2 302.4,36.7 
	300.5,35.3 295.1,32 292.4,39.1 291.8,41.3 290.7,50.4 290.2,53 289.4,55.4 287.3,60.2 286.7,62.7 286.4,65.3 286.2,69.3 286,88.3 
	285.6,92.2 285.1,95.7 286.9,99.4 290.2,105.2 292,109.4 294.4,114.2 295.2,116.5 295.7,120.3 295.9,124.2 295.8,130.8 295.4,137.1 
	295.7,142.3 295.7,144.8 295.4,147.1 294.7,149.4 293.6,151.2 292.8,152 291.2,153.4 289.2,154.3 286.1,154.9 283.5,157.1 
	281.7,158.3 277.8,160.3 275.9,161.4 274.3,162.8 272.9,164.5 271.8,166.4 270.1,170.5 267.5,175.3 266.2,178.5 265.2,180.5 
	263.9,182.4 259.2,188.7 258.1,190.6 256.4,194.5 255.2,196.1 254.5,196.8 252.8,197.8 251.9,198 250.9,197.9 250,197.7 
	242.7,194.2 238.2,191.4 236.1,190.6 233.8,190.2 231.5,190.1 229.2,190.4 228.1,190.8 226.1,191.7 222.5,193.8 218.5,195.7 
	216.7,197 215.2,198.6 214,200.4 212.2,204.5 209.8,209.4 209,211.5 208.4,215 211,215.5 212.8,216.1 213.7,216.6 215.6,217.8 
	218.1,220 226.3,228.1 232.3,232.9 233.9,235.7 236.9,240.4 240,245.9 242,246.5 243,246.9 244.8,248.1 248.3,251.2 251.7,254.7 
	254,257.5 255.3,259.5 256.4,261.6 257.7,264.7 259.6,267.7 261.9,270.4 270.2,279.1 273.4,282.7 275.3,285.6 277.1,289.8 
	278.3,291.7 283.1,297.9 284.3,299.7 287.3,305.8 288.6,307.7 292.7,312.9 294,314.8 297,320.9 298.2,322.7 302.5,328 303.7,329.8 
	304.7,331.8 306.1,335 309.2,340.7 311,345 313.5,349.8 314.2,351.8 314.7,355.1 314.9,359.7 314.7,364.4 314.1,372.6 313.1,376.1 
	310.8,380.9 309.1,385.1 306,390.9 303.7,396.1 301,400.9 299.3,405.1 296.8,410 296.1,412.2 295.6,414.8 294.9,421.3 294.4,423.8 
	293.7,426.1 291.5,431 290.9,433.4 290.6,436 290.3,441.2 290.5,447.8 290.9,451.8 291.9,456 294.9,455.9 297.8,456.2 299.7,456.7 
	301.7,457.8 303.5,459.2 306.1,461.6 319.3,475.5 321.6,478.2 323.5,481.1 325.2,485.3 328.3,491.1 329.9,495.5 332.4,501 
	355,500.9 358.9,500.6 361.5,500.1 363.9,499.3 372.4,494.9 375.3,492.8 379.9,488.8 381.8,487.4 383.9,486.2 392.6,481.8 
	396.1,481 399.8,480.7 420.7,480.9 421.2,473.1 421.2,457.4 421.6,453.6 422.3,451.2 423.5,448.9 425,446.9 427.6,444 430.4,441.3 
	434.3,438.1 436.3,436.8 440.3,434.9 442.7,432.9 444.1,431.2 444.6,430.2 445.4,427.8 445.7,425.4 445.9,420.3 445.8,409.8 
	445.5,406 445,402.2 444.2,400 442,395.1 441.4,392.9 440.4,388.3 439.7,386.1 436.8,380.3 435,376 432.9,372.3 432,370.3 
	431.4,368 431.3,365.6 431.4,363.2 432,360.9 433.2,358.6 434.7,356.6 437.3,353.7 440.9,350.1 442.9,348.4 445,347 446.1,346.5 
	448.5,345.7 451,345.4 454.8,345.3 458.6,345.4 462.4,345.9 465.7,347 470.5,349.4 474.8,350.6 495.4,350.7 499,350.5 501.3,350.2 
	503.6,349.7 504.6,349.2 509.2,346.7 512.3,345.3 514.3,344.2 517,342 519.6,339.6 524.7,334.4 528.7,329.9 530.2,328.1 
	531.6,326.2 532.6,324.1 534,321 535.2,319 537.4,316.2 539.8,313.5 545.7,307.4 549.1,304.2 551.9,302.2 554.6,301 559.6,293.2 
	560.6,291.3 561.2,289.1 561.2,288 561,285.8 558.2,278.8 557.7,276.4 557.4,273.9 557.2,268.6 557.3,262.1 557.7,258.2 
	558.3,255.8 563,245.8 565,243.3 566.7,241.9 568.7,240.9 576.5,238.5 577.6,235.8 580.8,230 582.6,225.8 585.8,220.1 587.5,215.8 
	590,211 591,207.4 591.4,203.4 591.6,199.3 591.6,154.9 "/>
</svg>
