<?xml version="1.0" encoding="utf-8"?>
<!-- Generator: Adobe Illustrator 24.2.3, SVG Export Plug-In . SVG Version: 6.00 Build 0)  -->
<svg version="1.1" id="Layer_1" xmlns="http://www.w3.org/2000/svg" xmlns:xlink="http://www.w3.org/1999/xlink" x="0px" y="0px"
	 viewBox="0 0 800 533" style="enable-background:new 0 0 800 533;" xml:space="preserve">
<style type="text/css">
	.st0{fill:#F2933D;stroke:#000000;stroke-width:0.4;stroke-miterlimit:9;}
</style>
<polygon class="st0" points="715.3,386.6 712.2,383 710.8,380.7 709.8,377.8 709.1,374.9 708.5,371.8 707.7,368.8 704.6,362.3 
	703.6,359.5 701.9,350.2 698.7,338.8 694.2,332.6 691.8,329 688.6,322.1 687.1,319.6 680.7,311.4 679,309 675,300.9 673.3,298.4 
	667.8,291.4 665.4,287.7 662.9,282.1 658.6,274.4 656.2,268.7 653.5,264.1 652.6,261.9 652.4,260.7 652.5,259.6 652.8,258.6 
	653.5,257.8 654.5,257.4 655.4,257.6 656.5,258.5 658,246.8 659.1,242.2 660.3,239.5 663,234.4 665.4,228.8 669.6,221.2 
	671.9,215.5 675.2,209.1 676.2,206.3 677.2,201.7 678.2,197.2 679.3,194.3 681.5,190.5 687.3,181.7 688.1,178.6 690.9,170.1 
	691.9,167.6 695.4,161.3 699.6,150.2 700.8,146.3 701.5,142.6 701.4,142.6 701.4,142.7 701.1,142.7 701.1,142.6 700.8,142.6 
	700.8,142.4 700.7,142.4 700.7,142.2 700.5,142.2 700.5,142.1 700.3,142.1 700.3,141.9 700.2,141.9 700.2,141.8 700.1,141.8 
	700.1,141.6 701.1,141.6 701.1,141.4 701.2,141.4 701.2,141.3 701.1,141.3 701.1,141.1 699.3,141.1 699.3,141 699,141 699,140.8 
	697.1,140.8 697,140.8 697,140.7 696.4,140.7 696.4,140.5 696.1,140.5 696.1,140.3 695.3,140.3 695.3,140.2 695.2,140.2 695.2,140 
	694.9,140 694.9,139.9 694.7,139.9 694.7,139.7 694.4,139.7 694.4,139.5 694.1,139.5 694.1,139.4 694,139.4 694,139.2 693.8,139.2 
	693.8,139.1 693.7,139.1 693.7,138.9 693.4,138.9 693.4,138.7 693.1,138.7 693.1,138.6 691.9,138.6 691.9,138.4 691.4,138.4 
	691.4,138.3 690.9,138.3 690.9,138.1 690.8,138.1 690.8,138 690.6,138 690.6,137.8 689.3,137.8 689.3,138 687.9,138 687.9,137.8 
	686.4,137.8 686.4,137.6 685,137.6 685,137.8 684.6,137.8 684.6,138 683.1,138 683.1,137.8 682.7,137.8 682.7,138 682.2,138 
	682.2,137.8 682.1,137.8 682.1,137.6 682,137.6 682,137.5 681.8,137.5 681.8,137.3 681.4,137.3 681.4,137.2 681.3,137.2 
	681.3,136.8 680.4,136.8 680.4,136.7 680.2,136.7 680.2,136.5 679.1,136.5 679.1,136.4 677.6,136.4 677.6,136.2 677.3,136.2 
	677.3,135.7 677.2,135.7 677.2,136 677.1,136 677.1,136.2 676.7,136.2 676.7,135.9 676.4,135.9 676.4,135.6 676.5,135.6 
	676.5,134.8 676.6,134.8 676.6,134.1 676.7,134.1 676.7,134 676.6,134 676.6,133.8 676.4,133.8 676.4,134.3 676.3,134.3 
	676.3,134.8 676.2,134.8 676.2,135.1 676,135.1 676,135.6 675.9,135.6 675.9,135.7 675.7,135.7 675.7,135.6 675.6,135.6 
	675.6,135.4 675.3,135.4 675.3,135.3 675.2,135.3 675.2,135.1 675,135.1 675,134.9 674.1,134.9 674.1,134.8 673.1,134.8 
	673.1,134.9 672.6,134.9 672.6,134.8 672.5,134.8 672.5,134.6 672.2,134.6 672.2,135.1 672.1,135.1 672.1,135.3 671.5,135.3 
	671.4,135.3 671.4,135.2 671.4,134.9 670.7,134.9 670.7,134.8 669.7,134.8 669.6,134.8 669.6,134.6 669,134.6 668.9,134.6 
	668.9,134.6 668.9,134.5 668.8,134.5 668.8,134.3 668.6,134.3 668.6,134.1 668.4,134.1 668.4,134.3 668.3,134.3 668.3,134.4 
	668.3,134.6 668.1,134.6 668.1,134.4 668.1,134.3 667.8,134.3 667.6,134.3 667.6,134.2 667.6,134.1 667.3,134.1 667.3,133.7 
	667.6,133.7 667.6,133.5 668.4,133.5 668.4,133.7 669.1,133.7 669.1,133.5 669,133.5 669,133.3 668.8,133.3 668.8,133.2 
	668.5,133.2 668.5,133 667.3,133 667.3,133.2 667.2,133.2 667.2,133.3 667.1,133.3 667.1,133.5 666.5,133.5 666.5,133.3 
	666.4,133.3 666.4,133.2 666.3,133.2 666.3,133 666.1,133 666.1,132.9 666,132.9 666,132.7 665.9,132.7 665.9,132.6 663.4,132.6 
	663.4,132.4 663.3,132.4 663.3,132.1 663.2,132.1 663.2,131.9 662.9,131.9 662.9,132.1 662.7,132.1 662.7,132.2 662.3,132.2 
	662.1,132.2 662.1,132.1 662,132.1 660.9,132.1 660.9,131.9 659,131.9 659,131.8 658.9,131.8 658.9,131.6 658.8,131.6 658.8,131.4 
	658.6,131.4 658.6,131.3 658.5,131.3 658.5,131.1 658.4,131.1 658.4,131 658.3,131 658.3,130.8 658,130.8 658,130.6 657.9,130.6 
	657.9,130.3 657.8,130.3 657.8,130.1 657.8,130 657.7,130 657.6,130 657.6,130 657.6,129.8 657.3,129.8 655.3,129.8 655.3,129.7 
	653,129.7 653,129.5 652.4,129.5 652.4,129.4 652.3,129.4 652.3,129.2 652,129.2 652,129.1 651.5,129.1 651.5,128.9 651.1,128.9 
	651.1,128.7 651,128.7 651,128.6 650.7,128.6 650.7,128.4 650.3,128.4 650.3,128.3 650.1,128.3 650.1,128.1 649,128.1 649,127.8 
	648.7,127.8 648.7,127.8 648.6,127.8 648.5,127.8 648.5,127.9 646,127.9 645.8,127.9 645.8,127.8 645.3,127.8 645.3,127.6 
	644.9,127.6 644.9,127.5 644.7,127.5 644.7,127.6 644.5,127.6 644.5,127.8 643.6,127.8 643.6,127.6 643,127.6 643,127.8 
	642.5,127.8 642.5,127.6 641.4,127.6 641.4,127.6 641.4,127.5 637.7,127.5 637.7,127.3 636.9,127.3 636.9,127.1 634.3,127.1 
	634.3,127 631.2,127 631.2,126.8 630,126.8 630,126.7 629,126.7 629,126.5 626.6,126.5 626.6,126.4 626.5,126.4 626.5,126.2 
	626.3,126.2 626.3,126.4 625,126.4 625,126.5 624.1,126.5 624.1,126.4 623.6,126.4 623.6,126.2 623.2,126.2 623.2,126 623,126 
	623,125.9 621.6,125.9 621.6,125.7 621.1,125.7 621.1,125.6 621,125.6 621,125.4 620.9,125.4 620.9,125.2 620.6,125.2 620.6,125.6 
	620.5,125.6 620.5,125.7 620.4,125.7 620.4,126 620.5,126 620.5,126.2 620.4,126.2 620.4,126.6 620.4,126.7 620.5,126.7 
	620.5,127.1 620.6,127.1 620.6,127.5 620.7,127.5 620.7,127.8 620.9,127.8 620.9,128.1 621,128.1 621,128.4 621.1,128.4 
	621.1,128.5 621.1,129.1 621,129.1 621,129.2 620.7,129.2 620.7,129.1 620.6,129.1 620.6,128.5 620.6,128.3 620.5,128.3 
	620.5,128.1 620.4,128.1 620.4,127.5 620.3,127.5 620.3,127.1 620.1,127.1 620.1,126.8 620,126.8 620,126.5 620,126.2 620.1,126.2 
	620.1,126 620,126 620,125.7 619.8,125.7 619.8,125.6 619.4,125.6 619.4,125.4 619.3,125.4 619.3,125.2 619.1,125.2 619.1,125.1 
	619,125.1 619,124.9 618.8,124.9 618.8,124.8 618.7,124.8 618.7,124.6 617.5,124.6 617.5,124.8 616.6,124.8 616.6,124.9 
	616.3,124.9 616.3,125.1 616.2,125.1 616.2,125.2 615.6,125.2 615.6,125.4 614.7,125.4 614.7,125.2 614.3,125.2 614.3,125.4 
	613.8,125.4 613.8,125.6 611.4,125.6 611.4,125.7 611,125.7 611,125.6 609.9,125.6 609.9,125.7 609.8,125.7 609.8,126 609.2,126 
	609.2,125.9 608.8,125.9 608.8,125.7 608.5,125.7 608.5,125.6 608.4,125.6 608.4,125.7 608.2,125.7 608.2,125.9 607.4,125.9 
	607.4,125.7 604.4,125.7 602.9,125.7 602.9,125.6 602,125.6 602,125.4 601.1,125.4 601.1,125.2 600.2,125.2 600.2,125.1 
	599.1,125.1 599.1,124.9 598.9,124.9 598.9,125.1 598.7,125.1 598.6,125.1 598.6,125 598.6,124.9 598.5,124.9 598.5,124.9 
	598.5,124.9 598.5,124.8 598.3,124.8 598.1,124.8 598.1,124.6 598,124.6 598,124.4 597.9,124.4 597.9,124.4 597.9,124.4 
	597.9,124.3 597.7,124.3 597.6,124.3 597.6,124.2 597.6,124.1 597.6,124.1 596.9,124.1 596.9,124 596.4,124 596.4,123.8 
	596.2,123.8 596.2,123.7 596,123.7 596,123.5 595.7,123.5 595.7,123.3 595.6,123.3 595.6,122.8 595.6,122.2 595.5,122.2 
	595.5,120.8 595.6,120.8 595.6,120.2 595.7,120.2 595.7,119.8 595.8,119.8 595.8,119.5 595.8,119.4 596,119.4 596,118.7 
	595.7,118.7 595.7,118.6 595.7,118.6 595.4,118.6 595.4,118.4 595.1,118.4 595.1,118.3 595,118.3 595,118.1 594.9,118.1 
	594.9,117.9 594.8,117.9 594.8,117.8 594.6,117.8 594.6,117.6 594.4,117.6 594.4,117.5 594.3,117.5 594.3,117.1 594.2,117.1 
	594.2,117 594.1,117 594.1,116.8 594.1,116.7 594.1,116.3 594.2,116.3 594.2,116.2 594.4,116.2 594.4,115.9 594.5,115.9 
	594.5,115.4 594.4,115.4 594.4,115.2 594.3,115.2 594.3,115.1 594.2,115.1 594.2,114.9 593.9,114.9 593.9,114.6 593.8,114.6 
	593.8,114.4 593.7,114.4 593.7,114.3 593.6,114.3 593.6,114 593.5,114 593.5,112.7 593.6,112.7 593.6,112.5 593.5,112.5 
	593.5,112.2 593.5,110.9 593.3,110.9 593.3,110.8 593.2,110.8 593.2,110.5 593.1,110.5 593.1,110.3 593,110.3 593,110.1 
	592.9,110.1 592.9,109.8 592.7,109.8 592.7,109.7 592.6,109.7 592.6,109.5 591.9,109.5 591.9,109.4 591.8,109.4 591.8,109.2 
	591.7,109.2 591.7,109 591.5,109 591.5,108.7 591.4,108.7 591.4,108.4 591.3,108.4 591.3,108.1 591.2,108.1 591.2,107.9 
	591.1,107.9 591.1,107.8 590.8,107.8 590.8,107.9 590.7,107.9 590.7,108.1 590.6,108.1 590.6,108.2 590.4,108.2 590.4,108.1 
	589.9,108.1 589.9,107.9 589.8,107.9 589.8,107.8 589.6,107.8 589.6,107.6 589.4,107.6 589.4,107.4 588.8,107.4 588.8,107.6 
	588.5,107.6 588.5,107.4 588.3,107.4 588.3,107.3 587.7,107.3 587.7,107.1 587.5,107.1 587.5,107 587.4,107 587.4,107.1 
	586.8,107.1 586.8,107 585.6,107 585.6,106.8 585.4,106.8 585.4,106.7 585.2,106.7 585.2,106.5 584.8,106.5 584.8,106.7 
	584.6,106.7 584.6,106.8 584.2,106.8 584.2,106.7 584,106.7 584,106.2 584.3,106.2 584.3,106 584.5,106 584.5,105.9 584.6,105.9 
	584.6,105.7 584.8,105.7 584.8,105.5 587.3,105.5 587.3,105.7 587.5,105.7 587.5,105.5 587.6,105.5 587.6,105.1 586.5,105.1 
	586.5,104.9 585.8,104.9 585.8,105.1 584.5,105.1 584.5,105.2 584.3,105.2 584.3,105.4 584.2,105.4 584.2,105.5 584,105.5 
	584,105.7 583.9,105.7 583.9,106 583.8,106 583.8,106.2 583.7,106.2 583.7,106.3 583.6,106.3 583.6,106.5 583.4,106.5 583.4,106.7 
	582.8,106.7 582.8,106.5 581.7,106.5 581.7,106.3 581.3,106.3 581.3,106.2 580.5,106.2 580.5,106 579.5,106 579.5,105.9 
	579.4,105.9 579.4,105.7 578.2,105.7 578.2,105.7 578.2,105.7 578.2,105.5 578.1,105.5 577.7,105.5 577.7,105.4 577.5,105.4 
	577.5,105.2 577.1,105.2 577.1,105.1 576.7,105.1 576.7,104.9 576.3,104.9 576.3,104.7 575.9,104.7 575.9,104.6 575.6,104.6 
	575.6,104.4 573.3,104.4 573.3,104.3 572.7,104.3 572.7,104.1 572.1,104.1 572.1,104 571.8,104 571.8,103.8 571.3,103.8 
	571.3,103.6 570.7,103.6 570.7,103.5 570.6,103.5 570.6,103.3 570.3,103.3 570.3,103.2 569.6,103.2 569.6,103 568.6,103 
	568.6,102.8 568.4,102.8 568.4,102.7 568.2,102.7 568.2,102.5 567.1,102.5 567.1,102.4 566.9,102.4 566.9,102.2 566.6,102.2 
	566.6,102 566.4,102 566.4,101.9 566.3,101.9 566.3,101.7 566.2,101.7 566.2,101.6 566,101.6 566,101.4 565.7,101.4 565.7,101.3 
	565.5,101.3 565.5,101.3 565.5,101.1 565.4,101.1 565.3,101.1 565.3,100.9 565.3,100.8 565.3,100.8 565.2,100.8 565.2,100.6 
	564.7,100.6 564.7,100.5 564.5,100.5 564.5,100.3 564.4,100.3 564.4,100.1 564.3,100.1 564.3,100 564,100 564,98.5 564.1,98.5 
	564.1,97.9 564.3,97.9 564.3,97.3 564.4,97.3 564.4,97.2 564.4,96.3 564.3,96.3 564.3,96 564.1,96 564.1,95.8 564,95.8 564,95.5 
	563.9,95.5 563.9,95.4 563.8,95.4 563.8,95.2 563.7,95.2 563.7,95.1 563.5,95.1 563.5,94.9 563.3,94.9 563.3,94.7 563.2,94.7 
	563.2,94.7 563.2,94.7 563.2,94.6 563,94.6 562.9,94.1 562.8,94.1 562.8,94 562.8,93.8 563,93.8 563,93.6 563.1,93.6 563.1,93.3 
	562.8,93.3 562.8,93.1 562.7,93.1 562.7,93 562.5,93 562.5,92.8 562.2,92.8 562.2,92.7 562,92.7 562,92.5 561.6,92.5 561.6,92.4 
	561.5,92.4 561.5,92.2 561.4,92.2 561.4,92 561.3,92 561.3,91.7 561,91.7 561,91.6 560.9,91.6 560.9,91.4 560.7,91.4 560.7,91.2 
	560.6,91.2 560.6,91.1 560.3,91.1 560.3,90.8 560.2,90.8 560.2,90.6 560.1,90.6 560.1,90.4 559.9,90.4 559.9,90.3 559.6,90.3 
	559.6,90.1 559.4,90.1 559.4,89.8 559.3,89.8 559.3,89.7 559,89.7 559,89.5 558.8,89.5 558.8,89.3 558.7,89.3 558.7,89 558.5,89 
	558.5,88.9 558.2,88.9 558.2,88.7 557.8,88.7 557.8,88.5 557.7,88.5 557.7,88.4 557.6,88.4 557.6,88.2 557.5,88.2 557.5,88.1 
	557.3,88.1 557.3,87.9 557.2,87.9 557.2,87.7 556.9,87.7 556.9,87.6 556.5,87.6 556.5,87.3 556.4,87.3 556.4,87 556.2,87 
	556.2,86.8 556,86.8 556,86.6 555.9,86.6 555.9,86.5 555.8,86.5 555.8,86.4 555.8,86.3 555.8,86.3 555.7,86.3 555.7,86 555.6,86 
	555.6,85.5 555.6,85.2 555.7,85.2 555.7,84.9 555.4,84.9 555.4,84.7 555.3,84.7 555.2,84.7 555.2,84.4 555.1,84.4 555.1,83.8 
	555.2,83.8 555.2,83.5 555.1,83.5 555.1,83.3 555,83.3 555,83.1 554.7,83.1 554.7,83 554.6,83 554.6,82.8 554.5,82.8 554.5,82.7 
	554,82.7 554,82.5 553.9,82.5 553.9,82.3 553.8,82.3 553.8,82 553.7,82 553.7,81.9 553.5,81.9 553.5,81.7 553.4,81.7 553.4,81.6 
	553.3,81.6 553.3,81.4 553.2,81.4 553.2,81.2 552.9,81.2 552.9,80.9 552.8,80.9 552.8,80.6 552.7,80.6 552.7,80.4 552.6,80.4 
	552.6,80.1 552.5,80.1 552.5,79.6 552.3,79.6 552.3,78.4 552.1,78.4 552.1,78.1 552.2,78.1 552.2,77.9 552.1,77.9 552.1,77.6 
	552,77.6 552,77.3 551.9,77.3 551.9,77.1 551.6,77.1 551.6,76.9 551.5,76.9 551.5,76.8 551.3,76.8 551.3,76.6 551.2,76.6 
	551.2,76.5 551,76.5 551,75.8 551.2,75.8 551.2,75.7 551.3,75.7 551.3,74.9 551.4,74.9 551.4,74.7 551.5,74.7 551.5,74.6 
	551.6,74.6 551.6,73.6 551.5,73.6 551.5,73.1 551.6,73.1 551.6,72.7 551.9,72.7 551.9,72.5 552,72.5 552,72.3 551.9,72.3 
	551.9,71.7 552,71.7 552,71.5 552.1,71.5 552.1,71.4 552.2,71.4 552.2,71.2 552.3,71.2 552.3,70.7 552.6,70.7 552.6,70.4 
	552.7,70.4 552.7,70.1 552.8,70.1 552.8,70 552.9,70 552.9,70.3 553.1,70.3 553.1,70.4 553.7,70.4 553.7,69 553.8,69 553.8,68.4 
	553.9,68.4 553.9,68.2 554,68.2 554,67.9 554.1,67.9 554.1,67.7 554.3,67.7 554.3,67.6 554.4,67.6 554.4,67.4 554.5,67.4 
	554.5,67.1 554.6,67.1 554.6,66.9 554.7,66.9 554.7,66.8 554.8,66.8 554.8,66.6 555,66.6 555,65.2 555.1,65.2 555.1,64.7 
	555.2,64.7 555.2,64.2 555.1,64.2 555.1,63.6 554.8,63.6 554.8,63.4 554.7,63.4 554.7,63.1 554.8,63.1 554.8,62.6 554.7,62.6 
	554.7,62.5 554.6,62.5 554.6,62.3 554.8,62.3 554.8,62.2 554.7,62.2 554.7,61.5 554.8,61.5 554.8,61.4 555.1,61.4 555.1,61.2 
	555.2,61.2 555.2,61.1 555.4,61.1 555.4,60.9 555.8,60.9 555.8,60.7 555.9,60.7 555.9,60.6 556,60.6 556,59.9 556.2,59.9 
	556.2,59.6 556.3,59.6 556.3,59.3 556.2,59.3 556.2,59 556.3,59 556.3,58.5 556.4,58.5 556.4,58 556.5,58 556.5,57.9 556.6,57.9 
	556.6,57.6 556.6,57.6 556.8,57.6 556.8,57.1 556.9,57.1 556.9,56.8 557,56.8 557,56.6 557.3,56.6 557.3,56.4 557.5,56.4 557.5,56 
	557.6,56 557.6,55.3 557.5,55.3 557.5,55 557.6,55 557.6,54.5 557.7,54.5 557.7,54.4 557.8,54.4 557.8,54.1 557.9,54.1 557.9,53.6 
	558.1,53.6 558.1,53.3 558.2,53.3 558.2,53.1 557.9,53.1 557.9,52.6 558.1,52.6 558.1,52.4 558.1,52.3 558,52.3 557.9,52.3 
	557.9,52.2 557.9,52.2 557.9,52.2 557.8,52.2 557.8,52 557.8,51.4 557.9,51.4 557.9,51 557.8,51 557.8,50.9 557.7,50.9 557.7,50.7 
	557.6,50.7 557.6,50.3 557.5,50.3 557.5,50.1 557.3,50.1 557.3,49.9 557,49.9 557,49.8 556.9,49.8 556.9,49.9 556.6,49.9 
	556.6,50.1 556.4,50.1 556.4,50.3 556,50.3 556,50.4 555.8,50.4 555.8,50.6 555.7,50.6 555.7,50.7 555,50.7 555,50.9 553.5,50.9 
	553.5,51 553.3,51 553.3,51.2 553.2,51.2 553.2,51.5 553.1,51.5 553.1,51.7 552.9,51.7 552.9,51.8 552.8,51.8 552.8,52 552.5,52 
	552.5,51.8 552.2,51.8 552.2,51.7 551.5,51.7 551.5,51.8 550.8,51.8 550.8,51.7 549.7,51.7 549.7,51.5 549.6,51.5 549.6,51.4 
	549.5,51.4 549.5,51 548.6,51 548.6,51 548.6,50.9 548.5,50.9 548.4,50.9 548.4,50.7 548.4,50.7 548.3,50.7 548.3,50.7 548.3,50.6 
	548.2,50.6 548.2,50.5 548.2,50.4 548,50.4 547.9,50.4 547.9,50.3 547.9,50.3 547.9,50.3 547.7,50.3 547.7,50.1 548.5,50.1 
	548.5,49.9 548.3,49.9 548.3,49.8 548.2,49.8 548.2,49.6 548.1,49.6 548.1,49.5 546.7,49.5 546.7,49.3 546.5,49.3 546.5,49.1 
	546.3,49.1 546.3,49 546,49 546,48.8 545.2,48.8 545.2,48.7 545.1,48.7 545.1,48.5 545,48.5 545,48.3 544.5,48.3 544.5,48.5 
	543,48.5 543,48.3 542.7,48.3 542.7,48.2 542,48.2 542,48.3 541.6,48.3 541.6,48.5 541.4,48.5 541.4,48.7 541.1,48.7 541.1,48.8 
	541,48.8 541,49 540.8,49 540.8,49.1 540.3,49.1 540.3,49 539.8,49 539.8,49.1 539.5,49.1 539.5,49.3 539.4,49.3 539.4,49.5 
	539.2,49.5 539.2,49.6 538,49.6 538,49.5 537.8,49.5 537.8,49.3 537.2,49.3 537.2,49.5 536.9,49.5 536.9,49.6 536.7,49.6 
	536.7,49.8 536.6,49.8 536.6,49.9 536.3,49.9 536.1,49.9 536.1,50.1 535.9,50.1 535.9,50.3 535.7,50.3 535.7,50.4 535.4,50.4 
	535.4,50.6 535.1,50.6 535.1,50.7 534.6,50.7 534.6,50.9 534.4,50.9 534.4,51 534.1,51 534.1,51.2 533.9,51.2 533.9,51.4 
	533.3,51.4 533.3,51.2 533.2,51.2 533.2,51.1 533.2,50.9 532.8,50.9 532.8,50.7 532.7,50.7 532.7,50.6 532.6,50.6 532.6,49.8 
	532.7,49.8 532.7,49.5 532.6,49.5 532.6,49.3 532.2,49.3 532.2,49.5 532.1,49.5 532.1,49.8 532,49.8 532,49.9 531.7,49.9 
	531.7,50.1 531.5,50.1 531.5,50.3 531.4,50.3 531.4,50.4 531.3,50.4 531.3,50.6 531,50.6 531,50.7 530.3,50.7 530.3,50.6 
	530.2,50.6 530.2,50.7 528.9,50.7 528.9,50.9 528.6,50.9 528.6,51 528.5,51 528.5,51.2 528.3,51.2 528.3,51.4 528,51.4 528,51.5 
	527.9,51.5 527.9,51.7 527.8,51.7 527.8,51.8 527.6,51.8 527.6,52 527.2,52 527.2,52.2 526.8,52.2 526.8,52 526.7,52 526.7,51.8 
	526.5,51.8 526.5,51.7 526,51.7 526,51.8 525.8,51.8 525.8,51.7 523.9,51.7 523.6,51.7 523.6,51.5 523.6,51.5 522,51.5 522,51.4 
	521.6,51.4 521.6,51.2 521.2,51.2 521.2,50.9 521,50.9 521,50.7 520.8,50.7 520.8,50.6 520.6,50.6 520.6,50.4 520.5,50.4 
	520.5,50.3 520.6,50.3 520.6,50.1 520.5,50.1 520.5,49.8 520.5,49.8 520.2,49.8 520.2,49.5 519.8,49.5 519.8,49.3 519.2,49.3 
	519.2,49.1 519.1,49.1 519.1,49 518.6,49 518.6,48.8 518.5,48.8 518.5,48.5 518.4,48.5 518.4,47.4 518.3,47.4 518.3,47.1 
	518.1,47.1 518.1,46.6 518.1,45.6 518,45.6 518,45.3 517.9,45.3 517.9,45.2 517.2,45.2 517.2,44.8 517.1,44.8 517.1,44.7 517,44.7 
	517,44.4 516.6,44.4 516.6,44.5 516.4,44.5 516.4,44.7 516.1,44.7 516.1,44.5 515.9,44.5 515.9,44.4 515.6,44.4 515.6,44.2 
	515.4,44.2 515.4,44.1 515.3,44.1 515.3,43.9 515,43.9 515,43.9 515,43.7 514.9,43.7 514.9,43.6 514.6,43.6 514.6,43.4 514.5,43.4 
	514.5,43.4 514.5,43.3 514.3,43.3 514.3,43.1 514.2,43.1 514.2,42.9 514,42.9 514,42.8 513.9,42.8 513.9,42.9 513.5,42.9 
	513.5,42.8 513.3,42.8 513.3,42.6 513.1,42.6 513.1,42.3 512.9,42.3 512.9,42 512.8,42 512.8,41.8 512.8,41 512.7,41 512.7,40.4 
	512.8,40.4 512.8,39.4 512.9,39.4 512.9,38.8 512.8,38.8 512.8,38.7 512.7,38.7 512.7,38.5 512.5,38.5 512.5,38.7 512.3,38.7 
	512.3,38.8 512.2,38.8 512.2,39.1 512.1,39.1 512.1,40.1 511.9,40.1 511.9,40.4 511.8,40.4 511.8,40.6 511.7,40.6 511.7,40.7 
	511.6,40.7 511.6,40.9 511.5,40.9 511.5,41 511.1,41 511.1,41.2 510.8,41.2 510.8,41.4 510.6,41.4 510.6,41.5 510.5,41.5 
	510.5,41.8 510.4,41.8 510.4,42.1 510.3,42.1 510.3,42.3 510.2,42.3 510.2,42.5 510,42.5 510,42.6 509.9,42.6 509.9,42.8 
	509.8,42.8 509.8,42.9 509.7,42.9 509.7,43.1 509.4,43.1 509.4,43.3 509.3,43.3 509.3,43.4 508.9,43.4 508.9,43.3 508.6,43.3 
	508.6,43.1 508.5,43.1 508.5,42.9 508.1,42.9 508.1,43.1 508,43.1 508,44.2 507.9,44.2 507.9,44.4 507.7,44.4 507.7,44.5 
	507.4,44.5 507.4,44.7 507.2,44.7 507.2,44.8 506.9,44.8 506.9,45 506.7,45 506.7,45.3 506.6,45.3 506.6,45.5 506.5,45.5 
	506.5,45.6 506.2,45.6 506.2,45.8 506,45.8 506,46 505,46 505,46.1 504.7,46.1 504.7,46.3 504.6,46.3 504.6,46.4 504.4,46.4 
	504.4,46.6 504.3,46.6 504.3,46.8 504,46.8 504,46.9 503.8,46.9 503.8,46.8 503.4,46.8 503.4,46.9 503.3,46.9 503.3,47.1 
	503.1,47.1 503.1,47.2 503,47.2 503,47.5 502.7,47.5 502.7,47.7 502.5,47.7 502.5,48 502.4,48 502.4,48.5 502.3,48.5 502.3,48.7 
	501.6,48.7 501.6,48.8 501.3,48.8 501.3,49 501.2,49 501.2,49.1 500.9,49.1 500.9,49.3 500.7,49.3 500.7,49.5 500.6,49.5 
	500.6,49.6 500.5,49.6 500.5,49.8 500.4,49.8 500.4,49.9 500.3,49.9 500.3,50.1 500.2,50.1 500.2,50.3 500,50.3 500,50.4 
	499.9,50.4 499.9,53.1 500,53.1 500,53.3 500.2,53.3 500.2,53.4 500.3,53.4 500.3,53.6 500.4,53.6 500.4,53.9 500.3,53.9 
	500.3,54.1 500.1,54.1 499.9,54.1 499.9,54.2 499.8,54.2 499.8,54.4 499.7,54.4 499.7,54.5 499.4,54.5 499.4,54.7 499,54.7 
	499,54.9 498.8,54.9 498.8,55 498.7,55 498.7,55.3 498.6,55.3 498.6,55.7 498.5,55.7 498.5,56.1 498.4,56.1 498.4,56.3 498.2,56.3 
	498.2,56.4 498.1,56.4 498.1,56.6 498,56.6 498,56.9 497.9,56.9 497.9,57.1 497.8,57.1 497.8,57.2 497.6,57.2 497.6,57.4 
	497.5,57.4 497.5,58 497.4,58 497.4,58.2 497.1,58.2 497.1,58.4 496.8,58.4 496.8,58.7 496.6,58.7 496.6,58.8 496.2,58.8 496.2,59 
	496.1,59 496.1,59.1 496,59.1 496,59.3 495.9,59.3 495.9,59.5 495.7,59.5 495.7,59.6 495.6,59.6 495.6,59.8 495.5,59.8 495.5,59.9 
	495.4,59.9 495.4,60.1 495.3,60.1 495.3,60.4 495.1,60.4 495.1,60.9 495,60.9 495,61.7 494.8,61.7 494.8,61.8 494.4,61.8 494.4,62 
	494.3,62 494.3,62.2 494.1,62.2 494.1,62.3 494,62.3 494,62.5 493.8,62.5 493.8,62.6 493.7,62.6 493.7,62.8 493.6,62.8 493.6,63.4 
	493.5,63.4 493.5,63.6 493.6,63.6 493.6,63.9 493.5,63.9 493.5,64.2 493.4,64.2 493.4,64.5 493.2,64.5 493.2,64.7 493.1,64.7 
	493.1,64.9 492.9,64.9 492.9,65 492.6,65 492.6,65.3 492.5,65.3 492.5,65.7 492.4,65.7 492.4,66 492.3,66 492.3,66.1 492.2,66.1 
	492.2,66.3 492,66.3 492,66.6 491.9,66.6 491.9,67.1 491.8,67.1 491.8,67.3 491.6,67.3 491.6,67.4 491.5,67.4 491.5,67.6 
	491.2,67.6 491.2,68 490.9,68 490.9,68.2 490.6,68.2 490.6,68.5 490.4,68.5 490.4,68.7 490.3,68.7 490.3,68.8 490.1,68.8 490.1,69 
	490,69 490,69.2 489.8,69.2 489.8,69.3 489.5,69.3 489.5,69.5 489.4,69.5 489.4,69.6 489.3,69.6 489.3,69.8 489.2,69.8 489.2,70.6 
	489.1,70.6 489.1,70.7 488.8,70.7 488.8,70.9 488.6,70.9 488.6,71.1 488.4,71.1 488.4,71.2 488.1,71.2 488.1,71.4 488,71.4 
	488,71.5 487.6,71.5 487.6,71.9 487.5,71.9 487.5,72.2 487.4,72.2 487.4,72.3 487.3,72.3 487.3,72.5 487.2,72.5 487.2,72.7 
	487,72.7 487,72.8 486.9,72.8 486.9,73 486.8,73 486.8,73.1 486.7,73.1 486.7,73.3 486.6,73.3 486.6,73.6 486.4,73.6 486.4,73.8 
	486.3,73.8 486.3,73.9 486.1,73.9 486.1,74.4 486,74.4 486,74.9 485.9,74.9 485.9,75.2 485.7,75.2 485.7,75.4 485.6,75.4 
	485.6,75.5 485.4,75.5 485.4,75.7 485.3,75.7 485.3,75.8 485.1,75.8 485.1,76 485,76 485,76.1 484.8,76.1 484.8,76.3 484.5,76.3 
	484.5,76.5 484.4,76.5 484.4,76.6 484.3,76.6 484.3,76.8 484.2,76.8 484.2,76.9 484.1,76.9 484.1,77.1 484.2,77.1 484.2,77.3 
	484.3,77.3 484.3,77.7 484.2,77.7 484.2,77.9 483.9,77.9 483.9,78.1 483.8,78.1 483.8,78.2 483.7,78.2 483.7,78.4 483.6,78.4 
	483.6,78.5 483.5,78.5 483.5,79.3 483.3,79.3 483.3,80 483.1,80 483.1,80.3 483,80.3 483,80.6 483.1,80.6 483.1,81.1 483.2,81.1 
	483.2,82.8 483.1,82.8 483.1,83 482.9,83 482.9,83.1 482.8,83.1 482.8,83.3 482.5,83.3 482.5,83.5 482.4,83.5 482.4,83.8 
	482.3,83.8 482.3,83.9 482.4,83.9 482.4,84.3 482.5,84.3 482.5,85 482.4,85 482.4,85.2 482.5,85.2 482.5,85.7 482.4,85.7 
	482.4,85.8 482.3,85.8 482.3,86 482.2,86 482.2,86.1 482.2,86.2 481.8,86.2 481.8,86.3 481.6,86.3 481.6,86.5 481.3,86.5 
	481.3,86.6 481.2,86.6 481.2,86.8 481,86.8 481,87 480.8,87 480.8,87.1 480.7,87.1 480.7,87.4 480.8,87.4 480.8,87.6 481,87.6 
	481,87.7 481.2,87.7 481.2,88.1 481.3,88.1 481.3,88.2 481.2,88.2 481.2,88.9 481.1,88.9 481.1,89 481,89 481,89 481,89.2 
	480.5,89.2 480.5,89.3 480.4,89.3 480.4,89.2 479.7,89.2 479.7,89.3 479.5,89.3 479.5,89.5 479.2,89.5 479.2,89.8 479.1,89.8 
	479.1,90 478.9,90 478.9,90.3 478.7,90.3 478.7,90.6 478.3,90.6 478.3,90.8 478.1,90.8 478.1,90.9 477.6,90.9 477.6,91.2 
	477.4,91.2 477.4,91.6 477.3,91.6 477.3,91.7 477.2,91.7 477.2,92 477,92 477,92.4 476.9,92.4 476.9,92.5 476.8,92.5 476.8,92.5 
	476.8,92.7 476.7,92.7 476.7,92.8 476.6,92.8 476.6,93.3 476.4,93.3 476.4,93.5 476,93.5 475.6,93.5 475.6,93.6 475.5,93.6 
	475.5,93.8 475.2,93.8 475.2,93.9 475.1,93.9 475.1,94.1 474.3,94.1 474.3,94.3 474.4,94.3 474.4,95.2 474.3,95.2 474.3,95.4 
	473.9,95.4 473.9,95.2 473.8,95.2 473.8,94.9 473.5,94.9 473.5,94.7 473.3,94.7 473.3,94.6 472.5,94.6 472.5,94.7 472.3,94.7 
	472.3,94.9 472,94.9 472,95.1 471.8,95.1 471.8,95.2 471.7,95.2 471.7,95.8 471.9,95.8 471.9,96.3 471.8,96.3 471.8,96.5 
	471.7,96.5 471.7,96.6 471.3,96.6 471.3,96.8 471.1,96.8 471.1,97 470.8,97 470.8,97.1 470.5,97.1 470.5,97.3 470,97.3 470,97.4 
	469.8,97.4 469.8,97.6 469.4,97.6 469.4,97.8 469.3,97.8 469.3,97.9 468.7,97.9 468.7,98.1 468.3,98.1 468.3,98.2 468.2,98.2 
	468.2,98.4 468,98.4 468,98.5 467.7,98.5 467.7,98.7 467.5,98.7 467.5,98.9 467.4,98.9 467.4,99 466.9,99 466.9,99.2 466.5,99.2 
	466.5,99.3 466.1,99.3 466.1,99.5 465.7,99.5 465.7,99.7 465.4,99.7 465.4,99.8 465.1,99.8 465.1,100 464.3,100 464.3,100.1 
	464.2,100.1 464.2,100.3 463.8,100.3 463.8,100.5 463.5,100.5 463.5,100.3 463.3,100.3 463.3,100.5 463,100.5 463,100.6 
	461.9,100.6 461.9,100.8 461.5,100.8 461.5,100.9 461.3,100.9 461.3,101.1 461.1,101.1 461.1,101.3 460.7,101.3 460.7,101.4 
	460,101.4 460,101.6 459.9,101.6 459.9,101.7 459.5,101.7 459.3,101.7 459.3,101.9 458.8,101.9 458.8,102 457.8,102 457.8,102.2 
	457.5,102.2 457.5,102.4 456.2,102.4 456.2,102.5 455.7,102.5 455.7,102.7 455.5,102.7 455.5,103 455.3,103 455.3,103.2 
	454.8,103.2 454.8,103.3 454.2,103.3 454.2,103.5 453.2,103.5 453.2,103.6 453,103.6 453,103.8 452.4,103.8 452.4,104 451.9,104 
	451.9,104.1 451.4,104.1 451.4,104.3 450.6,104.3 450.6,104.4 450.3,104.4 450.3,104.7 449.9,104.7 449.9,104.4 449.6,104.4 
	449.6,104.1 449.4,104.1 449.4,104 448.8,104 448.8,103.8 448.2,103.8 448.2,103.6 447.6,103.6 447.6,103.5 447,103.5 447,103.3 
	446.5,103.3 446.5,103.2 446.1,103.2 446.1,103 445.7,103 445.7,102.8 445.2,102.8 445.2,102.7 444.9,102.7 444.9,102.5 
	444.4,102.5 444.4,102.4 443.9,102.4 443.9,102.2 443.6,102.2 443.6,102 443.1,102 443.1,101.9 442.7,101.9 442.7,101.7 
	442.2,101.7 442.2,101.6 441.9,101.6 441.9,101.4 441,101.4 441,101.3 440.1,101.3 440.1,101.1 439.5,101.1 439.3,101.1 
	439.3,100.9 438.9,100.9 438.9,100.8 438.3,100.8 438.3,100.6 437.4,100.6 437.4,100.5 437,100.5 437,100.3 436.6,100.3 
	436.6,100.1 436.3,100.1 436.3,100 435.9,100 435.9,99.8 435.8,99.8 435.8,99.7 435.6,99.7 435.6,99.3 435.4,99.3 435.4,99.2 
	435.3,99.2 435.3,99 435.2,99 435.2,98.9 435.1,98.9 435.1,98.7 434.9,98.7 434.9,98.5 434.5,98.5 434.5,98.1 434.4,98.1 
	434.4,97.3 434.5,97.3 434.5,96.8 434,96.8 434,96.6 433.5,96.6 433.5,96.5 433.3,96.5 433.3,96.2 433.2,96.2 433.2,96 432.7,96 
	432.7,95.8 432.3,95.8 432.3,95.7 432,95.7 432,95.5 431.5,95.5 431.5,95.4 431.2,95.4 431.2,95.2 431,95.2 431,95.1 430.8,95.1 
	430.8,94.7 430.4,94.7 430.4,94.6 430.2,94.6 430.2,94.4 430.1,94.4 430.1,94.3 430,94.3 430,94.1 429.8,94.1 429.8,93.6 
	429.7,93.6 429.7,93.1 429.6,93.1 429.6,92.7 429.5,92.7 429.5,92.4 429.4,92.4 429.4,92.2 429.1,92.2 429.1,92 429,92 429,91.9 
	428.9,91.9 428.9,91.7 428.8,91.7 428.8,91.1 428.7,91.1 428.7,90.9 428.8,90.9 428.8,90.8 428.8,90.6 428.9,90.6 428.9,90.4 
	429,90.4 429,90.1 429.3,90.1 429.3,90 429.1,90 429.1,89.8 429,89.8 429,89.7 428.8,89.7 428.8,89.5 428.7,89.5 428.7,89.3 
	428.3,89.3 428.3,89.2 427.7,89.2 427.7,89 427.6,89 427.6,88.9 427.1,88.9 427.1,88.7 426.9,88.7 426.9,88.5 426.7,88.5 
	426.7,88.4 426.5,88.4 426.5,88.1 426.4,88.1 426.4,87.7 426.3,87.7 426.3,87.6 426.2,87.6 426.2,87.4 426,87.4 426,87.3 
	425.9,87.3 425.9,87.1 425.8,87.1 425.8,87 425.7,87 425.7,86.6 425.6,86.6 425.6,86.3 425.4,86.3 425.4,86.2 425.3,86.2 
	425.3,85.8 425.2,85.8 425.2,85.7 425.1,85.7 425.1,85.5 425,85.5 425,85.2 424.8,85.2 424.8,84.9 424.7,84.9 424.7,84.4 
	424.8,84.4 424.8,84.2 424.8,83.8 425,83.8 425,83.6 425.1,83.6 425.1,83.5 425.2,83.5 425.2,83 425.3,83 425.3,82.8 425.3,82.7 
	425.4,82.7 425.4,82.3 425.6,82.3 425.6,81.2 425.4,81.2 425.4,81.1 425.1,81.1 425.1,80.9 423.9,80.9 423.9,80.8 423.5,80.8 
	423.5,80.6 423.1,80.6 423.1,80.4 422.9,80.4 422.9,80.3 422.3,80.3 422.3,80.1 421.7,80.1 421.7,80 421.5,80 421.5,79.8 
	421.4,79.8 421.4,79.5 421.3,79.5 421.3,79.3 421,79.3 421,79 420.9,79 420.9,78.8 420.8,78.8 420.8,78.7 420.7,78.7 420.7,78.4 
	420.6,78.4 420.6,78.1 420.4,78.1 420.4,77.9 420.3,77.9 420.3,77.6 420.1,77.6 420.1,77.4 419.8,77.4 419.8,77.3 419.5,77.3 
	419.5,77.1 418.6,77.1 418.6,76.9 418.3,76.9 418.3,77.1 417.7,77.1 417.7,76.9 417.5,76.9 417.5,76.8 416.7,76.8 416.7,76.6 
	416.3,76.6 416.3,76.5 415.5,76.5 415.5,76.3 414.5,76.3 414.5,76.1 414.1,76.1 414.1,76 413.9,76 413.9,75.8 413.5,75.8 
	413.5,75.7 412.9,75.7 412.9,75.5 412.7,75.5 412.7,75.4 412.6,75.4 412.6,75.2 412.4,75.2 412.4,74.9 412.2,74.9 412.2,74.7 
	412.1,74.7 412.1,74.6 411.9,74.6 411.9,74.4 411.7,74.4 411.7,74.1 411.6,74.1 411.6,73.8 411.5,73.8 411.5,73.6 411.4,73.6 
	411.4,73.4 411.1,73.4 411.1,73.3 410.8,73.3 410.8,73.1 410.4,73.1 410.4,73 409.8,73 409.8,72.8 409.7,72.8 409.7,72.7 
	407.6,72.7 407.6,72.8 407.4,72.8 407.4,72.7 407.2,72.7 407.2,72.5 407.1,72.5 407.1,72.7 406.1,72.7 406.1,72.5 405.5,72.5 
	405.5,72.7 404.9,72.7 404.9,72.5 404.8,72.5 404.8,72.3 404.2,72.3 404.2,72.2 403.3,72.2 403.3,72 403,72 402.8,72 402.8,71.9 
	402,71.9 402,71.7 401.5,71.7 401.5,71.5 401.2,71.5 401.2,71.4 401,71.4 401,71.2 400.7,71.2 400.7,71.1 400.5,71.1 400.5,70.9 
	400.3,70.9 400.3,70.7 400.2,70.7 400.2,70.6 399.8,70.6 399.8,70.3 399.7,70.3 399.7,69.6 399.8,69.6 399.8,69.2 399.9,69.2 
	399.9,69 399.8,69 399.8,68.7 399.7,68.7 399.7,68.4 399.6,68.4 399.6,68.2 399.5,68.2 399.5,67.9 399.3,67.9 399.3,67.7 
	399.2,67.7 399.2,67.6 399.1,67.6 399.1,67.4 399,67.4 399,67.3 398.6,67.3 398.6,67.1 398.3,67.1 397.9,67.1 397.9,66.9 
	397.4,66.9 397.4,66.8 397.1,66.8 397.1,66.6 397,66.6 397,66.5 396.8,66.5 396.8,66.3 396.6,66.3 396.6,66 396.4,66 396.4,65.8 
	396.2,65.8 396.2,65.7 396.1,65.7 396.1,65.5 396,65.5 396,65.3 395.9,65.3 395.9,65.2 395.8,65.2 395.8,65 395.6,65 395.6,64.9 
	395.5,64.9 395.5,64.7 395.4,64.7 395.4,64.4 395.3,64.4 395.3,64.1 395.2,64.1 395.2,63.9 395.1,63.9 395.1,63.6 394.8,63.6 
	394.8,63.3 394.7,63.3 394.7,63 394.6,63 394.6,62.2 394.7,62.2 394.7,62.1 394.7,62 394.6,62 394.6,62 394.6,61.9 394.6,61.8 
	394.5,61.8 394,61.8 394,61.7 393.6,61.7 393.6,61.5 393.5,61.5 393.5,61.4 393.3,61.4 393.3,61.2 392.9,61.2 392.9,61.1 
	392.8,61.1 392.8,60.7 392.3,60.7 392.3,60.1 392.1,60.1 392.1,59.8 392,59.8 392,59.6 391.8,59.6 391.8,59.5 391.7,59.5 
	391.7,59.3 391.5,59.3 391.5,59.1 391.2,59.1 391.2,59 391,59 391,58.8 390.9,58.8 390.9,58.7 390.8,58.7 390.8,58.4 390.6,58.4 
	390.6,58.2 390.5,58.2 390.5,58 390.4,58 390.4,57.9 390.3,57.9 390.3,57.7 390,57.7 390,57.6 389.1,57.6 389.1,57.4 387.9,57.4 
	387.9,57.2 387.4,57.2 387.4,57.1 387.3,57.1 387.3,56.8 387.2,56.8 387.2,56.4 387.1,56.4 387.1,56.3 386.9,56.3 386.9,56.1 
	386.8,56.1 386.8,56 386.7,56 386.7,55.9 386.7,55.8 386.6,55.8 386.6,55.7 386.4,55.7 386.4,55.5 386.1,55.5 386.1,55.3 
	385.5,55.3 385.5,55.2 384.1,55.2 384.1,55.3 384,55.3 384,55.2 383.5,55.2 383.5,55.3 383.4,55.3 383.4,55.2 383.1,55.2 
	383.1,55.3 382.9,55.3 382.9,55.5 381.1,55.5 381.1,55.7 380.6,55.7 380.6,55.5 380.4,55.5 380.4,55.3 379,55.3 379,55.2 
	378.5,55.2 378.5,55.3 377.1,55.3 377.1,55.2 376.1,55.2 376.1,55 376,55 376,55.2 374.8,55.2 374.8,55 374.2,55 374.2,55.2 
	373.7,55.2 373.7,55 373.7,55 373.4,55 373.4,54.9 373.4,54.9 373.2,54.9 373.2,54.7 372.8,54.7 372.8,54.5 372.5,54.5 372.5,54.2 
	372.4,54.2 372.4,54.1 372.1,54.1 372.1,53.9 371.8,53.9 371.8,53.7 371.7,53.7 371.7,53.9 371.6,53.9 371.6,53.7 371,53.7 
	371,53.6 370.9,53.6 370.9,53.7 369.7,53.7 369.7,53.6 368.7,53.6 368.7,53.4 368.4,53.4 368.4,53.4 368.4,53.4 368.4,53.3 
	368.2,53.3 368.2,52.5 368.4,52.5 368.4,52.3 368.2,52.3 368.2,51.2 367.8,51.2 367.8,51.4 367.5,51.4 367.5,51.7 367.4,51.7 
	367.4,52 367.3,52 367.3,52.2 367.4,52.2 367.4,52.5 367.5,52.5 367.5,52.9 367.5,53 367.2,53 367.2,52.7 367.2,52.6 367,52.6 
	366.1,52.6 366.1,52.5 365.9,52.5 365.9,52.3 365.1,52.3 365.1,52.2 364.8,52.2 364.8,52 364.7,52 364.7,51.8 363.8,51.8 
	363.8,51.7 364,51.7 364,51.5 364.1,51.5 364.1,51.4 364.2,51.4 364.2,50.9 364.2,50.7 364.3,50.7 364.3,50.6 364.4,50.6 
	364.4,50.3 364.5,50.3 364.5,50.1 364.7,50.1 364.7,49.8 366.1,49.8 366.1,49.9 366.7,49.9 366.7,50.1 367.4,50.1 367.4,50.3 
	368.1,50.3 368.1,50.4 369.1,50.4 369.1,50.6 369.2,50.6 369.2,50.4 369.4,50.4 369.4,50.1 369.6,50.1 369.6,49.9 369.1,49.9 
	369.1,49.8 368.6,49.8 368.6,49.6 368.4,49.6 368.4,49.8 368,49.8 368,49.6 367,49.6 367,49.5 366,49.5 366,49.3 365.3,49.3 
	365.3,49.1 364.8,49.1 364.8,49.3 364.5,49.3 364.5,49.5 364.3,49.5 364.3,49.6 364.1,49.6 364.1,50.1 363.8,50.1 363.8,50.4 
	363.7,50.4 363.7,50.6 363.6,50.6 363.6,50.7 363.5,50.7 363.5,50.9 363.4,50.9 363.4,51 363,51 363,51.2 362.6,51.2 362.6,51 
	361.9,51 361.9,51.2 361.8,51.2 361.8,51.4 361.7,51.4 361.7,51.5 361.3,51.5 361.3,51.2 361,51.2 361,51 360.7,51 360.7,50.9 
	358.1,50.9 358.1,51 357.5,51 357.5,50.9 357.4,50.9 357.4,50.7 356.8,50.7 356.8,50.9 356.7,50.9 356.7,50.7 356.3,50.7 
	356.3,50.6 356,50.6 356,50.4 355.4,50.4 355.4,50.3 355.1,50.3 355.1,50.1 354.3,50.1 354.3,49.9 353.8,49.9 353.6,49.9 
	353.6,49.8 353.2,49.8 353.2,49.6 353,49.6 353,49.5 352.5,49.5 352.5,49.3 352,49.3 352,49.1 351.8,49.1 351.8,49 351.2,49 
	351.2,48.8 350.8,48.8 350.8,48.7 350.5,48.7 350.5,48.5 350.2,48.5 350.2,48.3 349.9,48.3 349.9,48.2 349.7,48.2 349.7,48 
	349.3,48 349.3,47.9 348.9,47.9 348.9,47.7 348.7,47.7 348.7,47.5 348.3,47.5 348.3,47.4 348,47.4 348,47.2 347.7,47.2 347.7,47.1 
	347.6,47.1 347.6,46.9 347.5,46.9 347.5,46.8 347.3,46.8 347.3,46.6 346.8,46.6 346.8,46.4 346.7,46.4 346.7,46.3 346.4,46.3 
	346.4,46.1 346.2,46.1 346.2,46 345.8,46 345.8,45.8 345.6,45.8 345.6,45.6 345.5,45.6 345.5,45.5 345.4,45.5 345.4,45.3 
	345.2,45.3 345.2,45.2 345,45.2 345,45 344.9,45 344.9,44.8 344.8,44.8 344.8,44.7 344.5,44.7 344.5,44.5 344.4,44.5 344.4,44.4 
	344.5,44.4 344.5,44.2 344.4,44.2 344.4,43.9 344.3,43.9 344.3,43.6 344.1,43.6 344.1,43.4 343.8,43.4 343.8,43.3 343.7,43.3 
	343.7,43.1 343.5,43.1 343.5,42.8 343.3,42.8 343.3,42.5 343.2,42.5 343.2,41.9 343.2,41.8 343.1,41.8 343.1,41.7 342.9,41.7 
	342.9,41.4 343.1,41.4 343.1,41.2 343,41.2 343,40.7 342.9,40.7 342.9,40.4 343,40.4 343,39.9 343.2,39.9 343.2,39.8 343.3,39.8 
	343.3,39.6 343.8,39.6 343.8,39.4 344.3,39.4 344.3,39.3 344.4,39.3 344.4,39 344.6,39 344.6,38.7 344.8,38.7 344.8,38.5 
	344.9,38.5 344.9,38.3 345,38.3 345,38 345.1,38 345.1,37.9 345.5,37.9 345.5,37.7 345.6,37.7 345.6,37.2 345.7,37.2 345.7,36.9 
	345.8,36.9 345.8,36.7 346,36.7 346,36.6 346.1,36.6 346.1,36.3 346.2,36.3 346.2,36.1 346.3,36.1 346.3,35.6 346,35.6 346,35.5 
	346.2,35.5 346.2,35.3 346.1,35.3 346.1,35 346,35 346,34.8 346,34.7 345.8,34.7 345.8,34.5 345.7,34.5 345.7,34.2 345.6,34.2 
	345.6,33.9 345.5,33.9 345.5,33.6 345.4,33.6 345.4,33.4 345.1,33.4 345.1,33.6 345,33.6 345,33.7 344.8,33.7 344.8,33.9 
	343.9,33.9 343.9,33.7 343.6,33.7 343.6,33.6 343.1,33.6 343.1,33.7 343,33.7 343,33.9 342.4,33.9 342.4,33.7 342.1,33.7 
	342.1,33.6 341.9,33.6 341.9,33.4 341.5,33.4 341.5,33.6 341.1,33.6 341.1,33.4 341,33.4 341,33.2 340.8,33.2 340.8,33.1 
	340.4,33.1 340.4,32.9 340.1,32.9 340.1,32.8 340,32.8 340,33.2 339.9,33.2 339.9,33.6 339.5,33.6 339.5,33.4 339.3,33.4 
	339.3,33.2 339.2,33.2 339.2,33.4 338.9,33.4 338.9,33.6 338.8,33.6 338.8,33.7 338,33.7 338,33.9 337.9,33.9 337.9,33.7 
	337.3,33.7 337.3,33.9 335.9,33.9 335.9,34 334.4,34 334.4,34.2 333.7,34.2 333.7,34 333,34 333,33.9 332.5,33.9 332.5,33.7 
	332.1,33.7 332.1,33.6 331.9,33.6 331.9,33.2 331.8,33.2 331.8,33.1 331.3,33.1 331.3,33.2 330.9,33.2 330.6,33.2 330.6,33.1 
	330.5,33.1 329.3,33.1 329.3,32.9 328.9,32.9 328.9,33.1 327.6,33.1 327.6,33.2 326.9,33.2 326.9,33.4 326.3,33.4 326.3,33.6 
	325.7,33.6 325.7,33.4 325.1,33.4 325.1,33.6 324.9,33.6 324.9,33.7 323.3,33.7 323.3,33.6 323.1,33.6 323.1,33.4 322.7,33.4 
	322.7,33.6 322.4,33.6 322.4,33.7 322.1,33.7 322.1,33.9 322,33.9 322,33.7 321.4,33.7 321.4,33.9 320.5,33.9 320.5,34 319.7,34 
	319.7,33.9 319.3,33.9 319.3,34 318.9,34 318.9,34.2 318.7,34.2 318.7,34 318.3,34 318.3,33.9 317.7,33.9 317.7,33.7 317.5,33.7 
	317.5,33.6 317.4,33.6 317.4,33.4 317.2,33.4 317.2,33.7 317.1,33.7 317.1,33.9 316.5,33.9 316.5,33.7 316.3,33.7 316.3,33.9 
	315.8,33.9 315.8,34 315.7,34 315.7,33.9 315.6,33.9 315.6,34 314.7,34 314.7,34.2 311.3,34.2 311.3,34.4 310.1,34.4 310.1,34.5 
	309.7,34.5 309.7,34.7 309.5,34.7 309.5,34.5 309.4,34.5 309.4,34.4 308.1,34.4 308.1,34.5 307.5,34.5 307.5,34.4 307.3,34.4 
	307.3,34.2 306.8,34.2 306.8,34.4 305.9,34.4 305.9,34.2 305.4,34.2 305.4,34.4 304.1,34.4 304.1,34.2 302.8,34.2 302.8,34 
	302.2,34 302.2,34.2 302.1,34.2 302.1,34 301.9,34 301.9,33.9 301.6,33.9 301.6,34 301.4,34 301.4,33.9 301.2,33.9 301.2,34 
	300.9,34 300.9,33.9 300.7,33.9 300.7,34 300.6,34 300.6,33.9 299.7,33.9 299.7,34 299,34 299,33.9 298.9,33.9 298.9,34 298.3,34 
	298.3,33.9 297.8,33.9 297.8,33.7 297.5,33.7 297.5,33.9 297.2,33.9 297,33.9 297,33.8 297,33.7 296.7,33.7 296.7,33.6 296,33.6 
	295.6,33.6 295.6,33.4 295.3,33.4 294.7,33.4 294.7,33.2 294.5,33.2 294.5,33.2 294.5,33.1 294.2,33.1 294.2,32.9 294.1,32.9 
	294.1,32.6 294,32.6 294,32.5 293.8,32.5 293.8,32.3 293.5,32.3 293.5,32.1 293.3,32.1 293.3,32 292.9,32 292.9,32.1 292.8,32.1 
	292.8,32.3 292.7,32.3 292.7,32.5 292.6,32.5 292.6,32.6 292.5,32.6 292.5,32.9 292.3,32.9 292.3,33 292.3,33.1 292.1,33.1 
	292.1,33 292.1,32.9 292,32.9 292,32.6 291.9,32.6 291.9,32.5 291.7,32.5 291.7,32.3 291.4,32.3 291.4,32.5 289.6,32.5 289.6,32.3 
	288.4,32.3 288.4,32.1 287.1,32.1 286.3,32.1 285.8,32.1 285.8,32.3 285.5,32.3 285.5,32.1 284.9,32.1 284.3,32.1 284.4,34.8 
	284.5,34.8 284.7,43.8 285.1,51.1 273.6,58.8 271.1,60.3 265.6,62.7 258.2,66.9 252.7,69.3 246.6,72.9 239.8,75.9 232.4,80.1 
	226.9,82.5 224.4,84.1 222.2,86 220,88.1 218,90.3 216.2,92.6 214.6,95.2 211.5,102 209.8,104.5 207.1,108 203.2,112.7 201.5,115.2 
	197.4,123.1 195.1,128.3 193.5,132.6 192.1,135.3 190.5,137.8 184.9,144.8 182.6,148.5 181.6,151.4 180.3,155.9 178.7,160.1 
	173.9,163.1 164,171.5 161.3,173.3 154.7,176.8 146,183.9 143.3,185.6 141.9,186.3 139,187.2 135.9,187.7 128.2,188.4 125.2,188.9 
	122.5,189.9 116.1,192.9 113.3,193.8 105.9,195.4 104.4,195.9 101.9,197.2 97,200.3 89.6,204.6 87.5,206.5 86,208.6 84.9,211.4 
	84.7,212.9 84.5,216 85,219.1 86.2,221.9 88,224.2 90.1,226.1 91.3,226.9 98,229.9 104.2,233.4 109.7,235.7 117.1,239.9 123.9,243 
	130,246.6 135.5,249 142.8,253.3 148.3,255.8 153.2,258.5 155.8,259.7 159,260.5 162.3,260.9 174.1,261.4 179,262 181.9,262.8 
	190.5,265.8 194.5,269.5 197.3,272.9 198.8,275.2 201.4,280.5 203.1,282.8 205.1,284.7 207.5,286.3 209.1,286.9 212.2,287.6 
	225.5,288.3 230.3,289 233.2,290 239.6,293 242.8,293.9 248,294.5 253.3,294.7 260.4,294.6 265.6,294.2 270.6,293 277,290 
	281.2,288.7 293.7,287.1 300.1,286 309.3,289.3 316.9,293.1 325.5,295.8 330.9,297.9 331.9,299.8 333.5,301.2 341.2,305.7 
	343.8,306.6 345.8,307 349.1,309.8 351.1,311.8 352.7,314 353.8,316.8 354.2,318.3 354.5,321.5 354.3,324.7 353.7,329.6 
	358.1,328.7 362.7,328.5 365.7,328.9 368.6,330.1 372.4,332.8 382.7,342.8 386.3,345.8 394.3,350.1 405.5,359.2 419.7,366.6 
	422.7,367.4 427.3,367.9 451.2,368.2 463.2,367.8 468.4,368 471.7,368.4 475,369.1 476.5,369.7 478.9,371 482.1,373.5 484.6,385.8 
	485.6,388.7 488,393.9 489,396.9 489.6,400.3 490.5,408.9 491.1,412.3 492,415.3 495,421.9 497.6,431 499.7,436.5 501.9,441.6 
	504,447.4 508.1,455.1 511,462.1 514.5,468.4 516.7,474.1 520.8,481.8 523.1,487.3 524.7,489.7 526.7,491.8 529,493.6 534.3,496.1 
	540.4,499.6 541.8,500.1 544.8,500.8 547.8,501 550.9,500.8 553.9,500 555.2,499.5 561.4,496.3 564.2,495.4 571.6,493.8 573,493.2 
	575.7,491.7 578.1,489.8 581.5,486.6 599.1,468.1 602.6,465.1 605.1,463.4 606.5,462.7 607.9,462.2 611,461.6 620.2,460.8 
	623.2,460.2 625.9,459.2 632.2,456.2 635.2,455.4 639.8,454.9 649.3,454.7 652.4,454.5 655.4,453.9 656.9,453.4 659.6,451.9 
	662.1,449.9 665.6,446.6 681.5,429.9 703.3,407.4 708.1,403.1 715.5,397.8 "/>
</svg>
