<?xml version="1.0" encoding="utf-8"?>
<!-- Generator: Adobe Illustrator 24.2.3, SVG Export Plug-In . SVG Version: 6.00 Build 0)  -->
<svg version="1.1" id="Layer_1" xmlns="http://www.w3.org/2000/svg" xmlns:xlink="http://www.w3.org/1999/xlink" x="0px" y="0px"
	 viewBox="0 0 800 533" style="enable-background:new 0 0 800 533;" xml:space="preserve">
<style type="text/css">
	.st0{fill:#F2933D;stroke:#000000;stroke-width:0.4;stroke-miterlimit:9;}
</style>
<polygon class="st0" points="647.6,155.3 642.8,145.5 635.6,145.7 630.5,145.4 627.3,144.8 624.3,143.8 617.7,140.1 611.9,137.5 
	609.1,135.6 606.5,133.5 602.8,129.9 595.9,122.3 592.9,118.1 589.4,110.7 587.7,107.9 584.5,104 575.3,93.8 572.4,89.7 571.2,86.5 
	570.5,83.2 570.3,79.7 570,67.6 569.6,64.2 568.9,60.9 567.6,58 564.8,52.6 561.6,45.2 556,36.8 553.4,33.4 552.2,32 552.1,32 
	552.1,32.1 552.1,32.2 551.9,32.2 551.9,32.3 551.7,32.3 551.7,32.5 551.4,32.5 551.4,32.7 551.3,32.7 551.3,32.8 551.2,32.8 
	551.2,33 551.1,33 551.1,33.2 550.9,33.2 550.9,33.3 550.8,33.3 550.8,33.5 550.5,33.5 550.5,33.7 550.4,33.7 550.4,33.8 
	550.3,33.8 550.3,34 549.9,34 549.9,34.2 549.8,34.2 549.8,34.4 549.7,34.4 549.7,34.7 549.3,34.7 549.3,34.9 549,34.9 549,35 
	548.6,35 548.6,35.2 548.3,35.2 548.3,35.4 548.1,35.4 548.1,35.5 547.7,35.5 547.7,35.7 547.6,35.7 547.6,35.9 547.2,35.9 
	547.2,36.1 546.7,36.1 546.7,36.2 546.6,36.2 546.6,36.4 546.3,36.4 546.1,36.4 546.1,36.6 545.7,36.6 545.7,36.7 545.6,36.7 
	545.6,36.9 544.9,36.9 544.9,37.1 544.4,37.1 544.4,37.2 544.1,37.2 544.1,37.4 543.9,37.4 543.9,37.6 543.5,37.6 543.5,37.8 
	543.4,37.8 543.4,37.9 543,37.9 543,38.1 542.7,38.1 542.7,38.3 542.5,38.3 542.5,38.4 542.1,38.4 542.1,38.6 541.8,38.6 
	541.8,38.8 541.4,38.8 541.4,38.9 541,38.9 541,39.1 540.9,39.1 540.9,39.3 540.5,39.3 540.5,39.5 540.1,39.5 540.1,39.6 540,39.6 
	540,39.8 539.9,39.8 539.9,40 539.5,40 539.5,40.1 539.1,40.1 539.1,40.3 539,40.3 539,40.5 538.6,40.5 538.6,40.6 538.2,40.6 
	538.2,40.8 538.1,40.8 538.1,41.1 537.6,41.1 537.6,41.3 537.3,41.3 537.3,41.5 537.1,41.5 537.1,41.7 536.7,41.7 536.7,41.5 
	536.3,41.5 536.3,41.3 535.9,41.3 535.9,41.5 535.8,41.5 535.8,41.7 535.5,41.7 535.5,41.8 535.4,41.8 535.4,42 534.4,42 
	534.4,42.2 534.1,42.2 534.1,42.3 533.9,42.3 533.9,42.5 531.8,42.5 531.8,42.7 531.2,42.7 531.2,42.8 530.4,42.8 530.4,43 
	529.9,43 529.9,43.2 529.3,43.2 529.3,43.4 527.8,43.4 527.8,43.5 527.6,43.5 527.6,43.7 527.5,43.7 527.5,43.9 527.3,43.9 
	527.3,44 527.1,44 527.1,44.2 525.7,44.2 525.7,44.4 525.3,44.4 525.3,44.5 525.2,44.5 525.2,44.7 525.1,44.7 525.1,44.9 
	524.7,44.9 524.7,45.1 524.5,45.1 524.5,45.2 524.3,45.2 524.3,45.4 524.2,45.4 524.2,45.6 524.1,45.6 524.1,45.7 523.9,45.7 
	523.9,45.9 523.8,45.9 523.8,46.1 523.6,46.1 523.6,46.2 523.4,46.2 523.4,46.4 523.3,46.4 523.3,46.6 523.2,46.6 523.2,46.7 
	523,46.7 523,46.9 522.9,46.9 522.9,47.1 522.8,47.1 522.8,47.4 522.7,47.4 522.7,47.6 522.5,47.6 522.5,47.8 522.4,47.8 
	522.4,47.9 522.4,47.9 522.3,47.9 522.2,47.9 522.2,48 522.2,48.1 522,48.1 522,48.3 521.9,48.3 521.9,48.4 521.8,48.4 521.8,48.6 
	521.6,48.6 521.6,49 521.4,49 521.4,49.1 521.1,49.1 521.1,49.3 521,49.3 521,49.5 520.9,49.5 520.9,49.6 520.6,49.6 520.6,49.8 
	520.5,49.8 520.5,50 520.4,50 520.4,50.1 520.2,50.1 520.2,50.3 520.1,50.3 520.1,50.5 520,50.5 520,50.7 519.7,50.7 519.7,50.8 
	519.6,50.8 519.6,51 519.4,51 519.4,51.2 519.2,51.2 519.2,51.3 519.1,51.3 519.1,51.5 518.8,51.5 518.8,51.7 518.7,51.7 518.7,52 
	518.5,52 518.5,52.2 518.2,52.2 518.2,52.4 518.1,52.4 518.1,53 518,53 518,53.2 517.8,53.2 517.8,53.7 517.6,53.7 517.6,53.9 
	517.4,53.9 517.4,54.2 517.1,54.2 517.1,54.6 516.9,54.6 516.9,54.9 516.8,54.9 516.8,55.1 516.7,55.1 516.7,55.2 516.6,55.2 
	516.6,55.4 516.3,55.4 516.3,55.6 516.2,55.6 516.2,55.9 516,55.9 516,56.1 515.9,56.1 515.9,56.3 515.8,56.3 515.8,56.4 
	515.4,56.4 515.4,56.6 515.3,56.6 515.3,56.8 515.2,56.8 515.2,56.9 515,56.9 515,57.1 514.8,57.1 514.8,57.3 514.6,57.3 
	514.6,57.4 514.5,57.4 514.5,57.6 514.4,57.6 514.4,58 514.3,58 514.3,58.1 514.1,58.1 514.1,58.6 513.9,58.6 513.9,58.8 
	513.8,58.8 513.8,59.3 513.5,59.3 513.5,59.5 513.4,59.5 513.4,59.8 512.9,59.8 512.9,60.2 512.4,60.2 512.4,60.5 511.8,60.5 
	511.8,60.7 511.7,60.7 511.7,60.8 511.6,60.8 511.6,61.2 511.5,61.2 511.5,61.3 510.8,61.3 510.8,61.7 510.6,61.7 510.6,61.9 
	510.3,61.9 509.4,61.9 509.4,62 508.8,62 508.8,62.2 508.7,62.2 508.7,62.4 508.5,62.4 508.5,62.5 508.3,62.5 508.3,62.7 
	508.2,62.7 508.2,62.9 508,62.9 508,63 507.9,63 507.9,63.2 507.5,63.2 507.5,63.4 507.4,63.4 507.4,63.6 507,63.6 507,63.7 
	506.9,63.7 506.9,63.9 506.8,63.9 506.8,64.1 506.1,64.1 506.1,64.2 505.7,64.2 505.7,64.4 505.4,64.4 505.4,64.6 505.2,64.6 
	505.2,64.7 505.1,64.7 505.1,64.9 504.8,64.9 504.8,65.1 504.6,65.1 504.6,65.3 504,65.3 504,65.4 503.8,65.4 503.8,65.6 
	503.7,65.6 503.7,65.8 503.3,65.8 503.3,65.9 503.2,65.9 503.2,66.1 502.8,66.1 502.8,66.3 502.7,66.3 502.7,66.4 502.3,66.4 
	502.3,66.6 502.2,66.6 502.2,66.8 502,66.8 502,66.9 501.8,66.9 501.8,67.1 501.7,67.1 501.7,67.3 501.3,67.3 501.3,67.5 
	501.2,67.5 501.2,67.6 501,67.6 501,67.8 500.9,67.8 500.9,68 500.8,68 500.8,68.1 500.6,68.1 500.6,68.3 500.4,68.3 500.4,68.5 
	500.3,68.5 500.3,68.6 499.9,68.6 499.9,68.8 499.8,68.8 499.8,69 499.6,69 499.6,69.2 499.5,69.2 499.5,69.3 499.5,69.3 
	499.4,69.3 499.4,69.7 499.2,69.7 499.2,69.8 499.1,69.8 499.1,70 499,70 499,70.2 498.9,70.2 498.9,70.3 498.6,70.3 498.6,70.5 
	498.5,70.5 498.5,70.7 498.4,70.7 498.4,70.9 498.2,70.9 498.2,71 498.1,71 498.1,71.2 498,71.2 498,71.4 497.7,71.4 497.7,71.5 
	497.6,71.5 497.6,71.7 497.2,71.7 497.2,71.9 497.1,71.9 497.1,72 497,72 497,72.2 496.6,72.2 496.6,72.4 496.4,72.4 496.4,72.6 
	496.3,72.6 496.3,72.7 496.2,72.7 496.2,72.9 495.8,72.9 495.8,73.1 495.6,73.1 495.4,73.1 495.4,73.2 495,73.2 495,73.4 
	494.9,73.4 494.9,73.6 494.5,73.6 494.5,73.7 494.4,73.7 494.4,73.9 494.3,73.9 494.3,74.1 494.2,74.1 494.2,74.2 493.9,74.2 
	493.9,74.4 493.8,74.4 493.8,74.6 493.6,74.6 493.6,74.8 493.5,74.8 493.5,74.9 493.4,74.9 493.4,75.1 493.3,75.1 493.3,75.3 
	493,75.3 493,75.4 492.6,75.4 492.6,75.6 492.4,75.6 492.4,75.8 492,75.8 492,75.9 491.9,75.9 491.9,76.1 491.6,76.1 491.6,76.3 
	491.5,76.3 491.5,76.5 491.4,76.5 491.4,76.8 491.2,76.8 491.2,77 491.1,77 491.1,77.1 491,77.1 491,77.3 490.8,77.3 490.8,77.5 
	490.7,77.5 490.7,77.6 490.6,77.6 490.6,77.8 490.3,77.8 490.3,78.3 490,78.3 490,78.5 489.8,78.5 489.8,78.7 489.7,78.7 
	489.7,78.8 489.4,78.8 489.4,79.3 489.3,79.3 489.3,79.5 489.2,79.5 489.2,79.7 488.9,79.7 488.9,79.8 488.8,79.8 488.8,80 
	488.7,80 488.7,80.2 488.6,80.2 488.6,80.4 488.2,80.4 488.2,80.5 488,80.5 488,80.7 487.9,80.7 487.9,80.9 487.8,80.9 487.8,81 
	487.5,81 487.5,81.2 487.4,81.2 487.4,81.4 487.3,81.4 487.3,81.5 487.2,81.5 487.2,81.5 487.2,81.7 487,81.7 487,81.9 486.7,81.9 
	486.6,81.9 486.6,81.9 486.6,82.1 486.5,82.1 486.5,82.2 486.3,82.2 486.3,82.4 486.1,82.4 486.1,82.6 485.8,82.6 485.8,82.7 
	485.5,82.7 485.5,82.9 485.2,82.9 485.2,83.1 485,83.1 484.9,83.1 484.9,83.2 484.9,83.2 484.7,83.2 484.7,83.4 484.6,83.4 
	484.6,83.6 484.2,83.6 484.2,83.8 484,83.8 483.8,83.8 483.8,83.9 483.8,83.9 483.7,83.9 483.6,83.9 483.6,84 483.6,84.1 
	483.5,84.1 482.9,84.1 482.9,84.3 482.8,84.3 482.8,84.4 482.4,84.4 482.4,84.6 482.1,84.6 482.1,84.8 481.9,84.8 481.9,84.9 
	481.5,84.9 481.5,85.1 481.4,85.1 481.4,85.3 481,85.3 481,85.5 480.7,85.5 480.7,85.6 480.5,85.6 480.5,85.8 480.1,85.8 480.1,86 
	479.6,86 479.6,86.1 478.6,86.1 478.6,86.3 478.2,86.3 478.2,86.5 477.9,86.5 477.9,86.6 477.5,86.6 477.5,86.8 477.3,86.8 
	477.3,87 477.1,87 477.1,87.1 477,87.1 477,87.3 476.8,87.3 476.8,87.5 476.7,87.5 476.7,87.7 476.3,87.7 476.3,87.8 476.1,87.8 
	476.1,88 475.8,88 475.8,88.2 475.4,88.2 475.4,88.3 474.7,88.3 474.7,88.5 474.4,88.5 474.4,88.3 474,88.3 474,88.5 473.7,88.5 
	473.7,88.7 473.6,88.7 473.3,88.7 473.3,88.5 472.8,88.5 472.8,88.3 471.9,88.3 471.9,88.5 471.5,88.5 471.5,88.7 471.4,88.7 
	471.4,88.8 471.1,88.8 471.1,88.9 471.1,89 470.7,89 470.7,89.2 470.5,89.2 470,89.2 470,89.4 469.7,89.4 469.7,89.5 469.2,89.5 
	469.2,89.7 468.8,89.7 468.8,89.9 468.4,89.9 468.4,90 468.3,90 468.3,90.2 468.2,90.2 468.2,90.4 467.8,90.4 467.8,90.5 
	467.7,90.5 467.7,90.4 467.3,90.4 467.3,90.5 467.2,90.5 467.2,90.7 467,90.7 467,90.9 466.7,90.9 466.7,91.2 466.4,91.2 
	466.4,91.4 466,91.4 466,91.6 465.9,91.6 465.9,91.7 465.8,91.7 465.8,91.9 465.3,91.9 465.3,92.1 465,92.1 465,92.2 464.9,92.2 
	464.9,92.4 464.6,92.4 464.6,92.6 464.4,92.6 464.4,92.7 464.2,92.7 464.2,92.9 464,92.9 464,93.1 463.3,93.1 463.3,93.3 
	463.1,93.3 463.1,93.4 462.8,93.4 462.8,93.6 462.6,93.6 462.6,93.8 462.1,93.8 462.1,93.9 461.9,93.9 461.9,94.1 461.8,94.1 
	461.8,94.3 461.3,94.3 461.3,94.4 461.1,94.4 461.1,94.6 460.7,94.6 460.7,94.8 460.5,94.8 460.5,94.6 460.4,94.6 460.4,94.8 
	460.3,94.8 460.3,95 459.9,95 459.9,95.1 459.8,95.1 459.8,95.3 459.3,95.3 459.3,95.5 458.8,95.5 458.8,95.6 458.6,95.6 
	458.6,95.8 457.9,95.8 457.9,96 457.7,96 457.7,96.1 457.2,96.1 457.2,96.3 457,96.3 457,96.5 456.7,96.5 456.7,96.7 456.3,96.7 
	456.3,96.8 456.1,96.8 456.1,97 455.8,97 455.8,97.2 455.6,97.2 455.6,97.3 455.5,97.3 455.5,97.5 455.3,97.5 455.3,97.7 
	455.2,97.7 454.9,97.7 454.9,97.8 454.6,97.8 454.6,98 454.2,98 454.2,98.2 453.7,98.2 453.7,98.3 453.7,98.4 453.3,98.4 
	453.3,98.5 453,98.5 453,98.4 452.9,98.4 451.5,98.4 451.5,98.5 451.5,98.9 451.3,98.9 451.3,99 451.1,99 451.1,99.2 450.2,99.2 
	450.2,99 449.6,99 449.6,98.9 449.5,98.9 449.5,98.6 449.5,98.4 449.3,98.4 449.3,97.8 449.2,97.8 449.2,97.5 449.3,97.5 
	449.3,97.3 449.2,97.3 449.2,97.2 449.1,97.2 449.1,97.3 449,97.3 449,97.5 448.8,97.5 448.8,97.7 448.6,97.7 448.6,97.8 
	448.4,97.8 448.4,98 448.1,98 448.1,98.2 447.9,98.2 447.9,98.4 447.4,98.4 447.4,98.5 447,98.5 447,98.4 446.9,98.4 446.9,98.5 
	446.2,98.5 446.2,98.7 445.4,98.7 445.4,98.9 445,98.9 445,99 445,99 444.6,99 444.6,99.2 444,99.2 444,99.4 443.9,99.4 443.9,99.5 
	443.2,99.5 443.2,99.7 443.1,99.7 443.1,99.9 442.7,99.9 442.7,100 442.5,100 442.5,100.4 442,100.4 442,100.6 441.8,100.6 
	441.8,100.4 441.7,100.4 441.7,100.6 441.1,100.6 441.1,100.7 440.3,100.7 440.3,100.9 439.6,100.9 439.3,100.9 439.3,101.1 
	438.5,101.1 438.5,101.2 437.9,101.2 437.9,101.4 437.5,101.4 437.5,101.6 437.1,101.6 437.1,101.7 437,101.7 437,101.8 437,101.9 
	436.7,101.9 436.6,101.9 436.6,102.1 436.2,102.1 436.2,102.3 435.7,102.3 435.7,102.4 435.3,102.4 435.3,102.3 435.2,102.3 
	435.2,102.3 435.2,102.4 434.8,102.4 434.8,102.6 434.7,102.6 434.7,102.8 434.3,102.8 434.3,102.9 434.2,102.9 434.2,103.1 
	434.1,103.1 434.1,103.3 433.9,103.3 433.9,103.4 433.6,103.4 433.6,103.6 433.2,103.6 433.2,103.8 433,103.8 433,104 432.7,104 
	432.7,104.1 432.5,104.1 432.3,104.1 432.3,104.3 432.2,104.3 432.2,104.5 431.8,104.5 431.8,104.6 431.6,104.6 431.6,104.8 
	431.5,104.8 431.5,105 431.1,105 431.1,105.1 431,105.1 431,105.3 430.9,105.3 430.9,105.5 430.5,105.5 430.5,105.6 430.1,105.6 
	430.1,105.8 429.9,105.8 429.7,105.8 429.7,106 429.7,106 429.6,106 429.6,106.2 429.6,106.2 429.5,106.2 429.5,106.2 429.5,106.3 
	429.4,106.3 429.4,106.5 429.2,106.5 429,106.5 429,106.7 428.8,106.7 428.8,106.8 428.5,106.8 428.5,107 428.3,107 428.3,107.2 
	428,107.2 428,107.3 427.6,107.3 427.6,107.5 427.4,107.5 427.4,107.7 427.1,107.7 427.1,107.9 426.7,107.9 426.7,108.2 
	426.4,108.2 426.4,108.4 426.2,108.4 426.2,108.5 426,108.5 426,108.7 425.7,108.7 425.7,108.9 425.2,108.9 425.2,109 425.2,109 
	424.8,109 424.8,109.2 424.4,109.2 424.4,109.4 424,109.4 424,109.6 423.6,109.6 423.6,109.7 422.7,109.7 422.7,109.6 422,109.6 
	422,109.4 421.8,109.4 421.8,109.2 421.6,109.2 421.6,109.4 421.3,109.4 421.3,109.2 419.8,109.2 419.8,109.4 419.3,109.4 
	419.3,109.2 419.2,109.2 418,109.2 418,109.4 417.8,109.4 417.8,109.2 417.4,109.2 417.4,109 417.3,109 416.5,109 416.5,108.9 
	416.2,108.9 416.2,108.8 416.2,108.7 416.1,108.7 416.1,108.5 415.4,108.5 415.4,108.4 415.2,108.4 415.2,108.2 415,108.2 415,108 
	414.8,108 414.8,107.9 414.6,107.9 414.6,107.7 414.5,107.7 414.5,107.5 414.2,107.5 414.2,107.3 414.1,107.3 414.1,107.2 
	413.8,107.2 413.8,107 413.7,107 413.7,106.8 413.3,106.8 413.3,106.5 413.2,106.5 413.2,105.8 413.3,105.8 413.3,105.6 
	411.8,105.6 411.7,105.6 411.7,105.5 411.6,105.5 410.9,105.5 410.9,105.3 410.5,105.3 410.5,105.1 410,105.1 410,105 409.9,105 
	409.9,104.8 409.1,104.8 409.1,104.6 409,104.6 409,104.5 407.5,104.5 407.5,104.6 406.8,104.6 406.8,104.8 406.2,104.8 406.2,105 
	405.9,105 405.9,105.1 405.5,105.1 405.5,105.3 404.7,105.3 404.7,105.5 404.4,105.5 404.4,105.6 404,105.6 404,105.8 403.6,105.8 
	403.6,106 403.3,106 403.3,105.8 403.1,105.8 403.1,106 402.7,106 402.7,106.2 402.5,106.2 402.5,106 402.4,106 402.4,106.1 
	402.4,106.2 401.3,106.2 401.1,106.2 401.1,106.3 400.2,106.3 400.2,106.3 400.2,106.2 399.9,106.2 399.9,106 399.8,106 
	399.8,105.8 399.7,105.8 399.7,105.6 399.2,105.6 399.2,105.5 398.3,105.5 398.3,105.3 397.8,105.3 397.8,105.1 397.7,105.1 
	397.7,105.3 397.5,105.3 397.5,106 397.4,106 397.4,106.2 397.3,106.2 397.3,106.3 396.9,106.3 396.9,106.5 396.5,106.5 
	396.5,106.7 396.4,106.7 396.4,106.8 396.3,106.8 396.3,107 396,107 396,107.2 395.9,107.2 395.9,107.3 395.7,107.3 395.7,107.4 
	395.7,107.5 395.6,107.5 395.4,107.5 395.4,107.7 395.2,107.7 395.2,107.8 395.2,107.9 395.1,107.9 395.1,108 395,108 395,108.2 
	394.9,108.2 394.9,108.4 394.5,108.4 394.5,108.5 394.1,108.5 393.2,108.5 393.2,108.7 392.4,108.7 392.4,108.9 391.9,108.9 
	391.9,108.7 389.8,108.7 389.8,108.9 389.6,108.9 389.6,109 389.5,109 389.5,109.2 389.1,109.2 389.1,109.4 388.7,109.4 
	388.7,109.6 388.2,109.6 388.2,109.7 387.9,109.7 387.9,109.9 387.6,109.9 387.6,110.1 387.5,110.1 387.5,110.2 387,110.2 
	387,110.4 386.6,110.4 386.6,110.6 386.5,110.6 385.9,110.6 385.9,110.7 385.8,110.7 385.6,110.7 385.6,110.8 385.6,110.9 
	385.4,110.9 385.4,111.1 385.3,111.1 385.3,111.3 385.1,111.3 385.1,111.4 384.8,111.4 384.8,111.6 384.7,111.6 384.7,111.8 
	384.4,111.8 384.4,111.9 384,111.9 384,111.8 383.8,111.8 383.8,111.9 383.5,111.9 383.5,112.1 383.4,112.1 383.4,112.3 
	383.3,112.3 383.3,112.4 382.9,112.4 382.9,112.3 382.8,112.3 382.8,112.1 382.6,112.1 382.6,111.9 382.4,111.9 382.4,111.9 
	382.4,111.8 382.3,111.8 382.3,111.6 382,111.6 382,111.4 381.9,111.4 381.9,111.1 382,111.1 382,110.9 382.1,110.9 382.1,110.7 
	382,110.7 382,110.4 381.9,110.4 381.9,110.1 381.6,110.1 381.6,109.9 381.2,109.9 381.2,110.1 381.1,110.1 381.1,110.2 381,110.2 
	381,110.4 380.7,110.4 380.7,110.6 380.6,110.6 380.6,110.7 380.5,110.7 380.5,110.9 380.3,110.9 380.3,111.1 380.2,111.1 
	380.2,111.4 380.1,111.4 380.1,111.6 380,111.6 380,111.8 379.8,111.8 379.8,112.1 379.7,112.1 379.7,112.3 378.6,112.3 
	378.6,111.9 378.4,111.9 378.4,112.3 378.3,112.3 378.3,112.4 378.1,112.4 378.1,112.6 377.9,112.6 377.9,112.8 377.8,112.8 
	377.8,112.9 377.7,112.9 377.7,113.3 377.5,113.3 377.5,113.5 377.3,113.5 377.3,113.6 377.2,113.6 377.2,113.8 377,113.8 
	377,114.1 376.5,114.1 376.5,114 376.1,114 376.1,113.8 375.3,113.8 375.3,114 374.9,114 374.9,114.1 374.5,114.1 374.5,114.3 
	374.4,114.3 374.4,114.5 374.2,114.5 374.2,114.6 374.2,114.6 374.1,114.6 374,114.6 374,114.7 374,114.8 373.9,114.8 373.9,115.2 
	373.7,115.2 373.7,115.3 373.6,115.3 373.6,115.7 373.3,115.7 373.3,115.8 373.2,115.8 373.2,116 373.1,116 373.1,116.3 373,116.3 
	373,116.5 372.7,116.5 372.7,116.9 372.6,116.9 372.6,117 372.3,117 372.3,117.2 372.1,117.2 372.1,117.4 371.8,117.4 371.8,117.5 
	371.4,117.5 371.4,117.7 371,117.7 371,117.9 370.8,117.9 370.8,118 370.5,118 370.5,117.9 370.4,117.9 370.4,117.7 370.2,117.7 
	370.2,117.9 370,117.9 370,118.2 369.9,118.2 369.9,118.4 369.6,118.4 369.6,118.2 368.9,118.2 368.9,118 368.6,118 368.6,117.9 
	368.1,117.9 368.1,117.7 365.1,117.7 365.1,117.9 364.8,117.9 364.8,118 364.6,118 364.6,118.2 364.3,118.2 364.3,118.4 
	364.2,118.4 364.2,118.5 363.9,118.5 363.9,119.1 363.8,119.1 363.8,119.2 363.4,119.2 363.4,119.4 362.6,119.4 362.6,119.7 
	362.5,119.7 362.5,119.9 362.4,119.9 362.4,120.1 362.3,120.1 362.3,120.2 362.1,120.2 362.1,120.4 362,120.4 362,120.6 
	361.9,120.6 361.9,120.8 361.8,120.8 361.8,120.9 361.6,120.9 361.6,121.1 361.5,121.1 361.5,121.3 361.4,121.3 361.4,121.4 
	361.1,121.4 361.1,121.6 361,121.6 361,121.8 360.7,121.8 360.7,121.9 360.6,121.9 360.6,122.1 360.1,122.1 360.1,122.3 360,122.3 
	360,122.5 359.7,122.5 359.7,122.6 359.6,122.6 359.6,122.8 359.5,122.8 359.5,123 359.3,123 359.3,123.3 359.2,123.3 359.2,123.5 
	359,123.5 359,123.6 358.8,123.6 358.8,123.8 358.7,123.8 358.7,124 358.6,124 358.6,124.3 358.4,124.3 358.4,124.5 358.1,124.5 
	358.1,124.7 357.8,124.7 357.8,124.8 356.9,124.8 356.9,125 356.5,125 356.5,125.3 356.4,125.3 356.4,125.7 356.3,125.7 
	356.3,125.8 356.2,125.8 356.2,126 355.9,126 355.9,126.4 355.8,126.4 355.8,126.5 355.6,126.5 355.6,126.7 355.5,126.7 
	355.5,126.9 355.3,126.9 355.3,127 355.1,127 355.1,127.2 354.9,127.2 354.9,127.4 354.8,127.4 354.8,127.5 354.5,127.5 
	354.5,127.7 354.4,127.7 354.4,127.9 354.2,127.9 354.2,128.2 354.1,128.2 354.1,128.4 354,128.4 354,128.6 353.9,128.6 
	353.9,128.9 353.7,128.9 353.7,129.1 353.5,129.1 353.5,129.2 353.4,129.2 353.4,129.4 353.2,129.4 353.2,129.6 353.1,129.6 
	353.1,129.8 353,129.8 353,130.1 352.8,130.1 352.8,130.4 352.7,130.4 352.7,130.6 352.5,130.6 352.5,130.8 352.3,130.8 
	352.3,130.9 352.1,130.9 352.1,131.1 351.8,131.1 351.8,131.3 351.7,131.3 351.7,131.4 351.4,131.4 351.4,131.6 351.3,131.6 
	351.3,131.8 351.2,131.8 351.2,132.1 350.7,132.1 350.7,132.3 350.6,132.3 350.6,132.5 350.3,132.5 350.3,132.6 349.7,132.6 
	349.7,133.1 349.4,133.1 349.4,133.3 349,133.3 349,133.5 348.9,133.5 348.9,133.7 348.5,133.7 348.5,133.8 348,133.8 348,134 
	347.9,134 347.9,134.2 347.8,134.2 347.8,134.3 347.6,134.3 347.6,134.8 347.4,134.8 347.4,135 347.2,135 347.2,135.2 347.1,135.2 
	347.1,135.4 347,135.4 347,135.5 346.9,135.5 346.9,135.9 346.7,135.9 346.7,136.2 346.6,136.2 346.6,136.7 346.5,136.7 346.5,137 
	346.4,137 346.4,137.2 346.2,137.2 346.2,137.6 346.1,137.6 346.1,137.7 346,137.7 346,137.9 345.8,137.9 345.8,138.1 345.7,138.1 
	345.7,138.2 345.7,138.2 345.5,138.2 345.5,138.4 345.3,138.4 345.3,138.6 345.3,138.7 345.2,138.7 345.2,138.9 345.1,138.9 
	345.1,139.1 345,139.1 345,139.4 344.8,139.4 344.8,139.6 344.7,139.6 344.7,139.9 344.6,139.9 344.6,140.3 344.4,140.3 
	344.4,140.4 344.3,140.4 344.3,140.6 344.2,140.6 344.2,140.8 344.1,140.8 344.1,141.1 343.9,141.1 343.9,141.5 343.8,141.5 
	343.8,141.6 343.7,141.6 343.7,141.8 343.6,141.8 343.6,142 343.4,142 343.4,142.1 343.3,142.1 343.3,142.5 343.2,142.5 
	343.2,142.7 343,142.7 343,142.8 342.3,142.8 342.3,143.2 342.2,143.2 342.2,143.3 342,143.3 342,143.5 341.9,143.5 341.9,143.8 
	341.8,143.8 341.8,144 341.5,144 341.5,144.2 341.4,144.2 341.4,144.4 341.3,144.4 341.3,144.7 341.1,144.7 341.1,144.9 341,144.9 
	341,145 340.9,145 340.9,145.4 340.6,145.4 340.6,145.7 340.5,145.7 340.5,146 340.4,146 340.4,146.2 340.2,146.2 340.2,146.6 
	340.1,146.6 340.1,146.7 340,146.7 340,146.9 339.9,146.9 339.9,147.1 339.7,147.1 339.7,147.2 339.5,147.2 339.5,147.7 
	339.1,147.7 339.1,147.9 338.8,147.9 338.8,148.1 338.7,148.1 338.7,148.8 338.6,148.8 338.6,149.1 338.5,149.1 338.5,149.4 
	338.2,149.4 338.2,149.8 338.1,149.8 338.1,150.1 337.9,150.1 337.9,150.6 337.7,150.6 337.7,150.8 337.6,150.8 337.6,151 
	337.4,151 337.4,151.1 337.3,151.1 337.3,151.3 337.2,151.3 337.2,151.5 336.9,151.5 336.9,151.6 336.7,151.6 336.7,152.2 
	336.5,152.2 336.5,152.7 336.4,152.7 336.4,153 336.3,153 336.3,153.3 336.2,153.3 336.2,153.5 336,153.5 336,153.9 335.9,153.9 
	335.9,154.2 335.7,154.2 335.7,154.5 335.4,154.5 335.4,154.7 335.1,154.7 335.1,155 335,155 335,155.2 334.6,155.2 334.6,155.4 
	334.5,155.4 334.5,155.6 334.4,155.6 334.4,155.7 334.3,155.7 334.3,155.9 334,155.9 334,156.1 333.9,156.1 333.9,156.2 
	333.6,156.2 333.6,156.4 333.5,156.4 333.5,156.6 333.2,156.6 333.2,156.7 333.1,156.7 333.1,156.9 332.9,156.9 332.9,157.1 
	332.7,157.1 332.7,157.3 332.5,157.3 332.5,157.4 332.2,157.4 332.2,157.8 332.1,157.8 332.1,157.9 331.8,157.9 331.8,158.1 
	331.7,158.1 331.7,158.3 331.6,158.3 331.6,158.4 331.5,158.4 331.5,158.8 331.3,158.8 331.3,158.9 331.1,158.9 331.1,159.3 
	330.8,159.3 330.8,159.5 330.4,159.5 330.4,159.6 330.3,159.6 330.3,159.8 330.2,159.8 330.2,160 330.1,160 330.1,160.1 
	329.9,160.1 329.9,160.3 329.8,160.3 329.8,160.5 329.7,160.5 329.7,160.8 329.5,160.8 329.5,161.2 329.4,161.2 329.4,161.5 
	329.3,161.5 329.3,161.8 328.9,161.8 328.9,162 328.7,162 328.7,162.2 328.4,162.2 328.4,162.3 328.1,162.3 328.1,162.5 328,162.5 
	328,162.7 327.9,162.7 327.9,163 327.8,163 327.8,163.2 327.5,163.2 327.5,163.4 327.4,163.4 327.4,163.5 327,163.5 327,163.2 
	326.5,163.2 326.5,163.4 326.4,163.4 326.4,163.5 326.1,163.5 326.1,163.7 326,163.7 326,163.9 325.7,163.9 325.7,164 325.6,164 
	325.6,164.2 324.2,164.2 324.2,164.4 324.3,164.4 324.3,164.5 323.8,164.5 323.8,164.7 323.6,164.7 323.6,164.9 323.2,164.9 
	323.2,165.1 323.1,165.1 323.1,164.9 322.9,164.9 322.9,165.2 322.4,165.2 322.4,165.4 322,165.4 322,165.6 321.5,165.6 
	321.5,165.7 321.4,165.7 321.4,165.9 321.1,165.9 321.1,166.1 320.6,166.1 320.5,166.1 320.5,166.2 320.5,166.2 320.4,166.2 
	320.4,166.4 320.3,166.4 320.3,166.6 319.9,166.6 319.9,166.8 319.6,166.8 319.5,166.8 319.5,166.6 319,166.6 319,166.8 
	318.7,166.8 318.7,166.9 318.2,166.9 318.2,167.1 318.1,167.1 318.1,167.3 318,167.3 318,167.4 317.6,167.4 317.6,167.6 
	317.2,167.6 317.2,167.8 316.8,167.8 316.8,167.9 316.7,167.9 316.7,168.1 316.4,168.1 316.4,168.3 316.3,168.3 316.3,168.5 
	315.7,168.5 315.7,168.6 315.5,168.6 315.5,168.8 315.4,168.8 315.4,169 315,169 315,169.1 314.8,169.1 314.8,169.3 314.7,169.3 
	314.7,169.5 314.4,169.5 314.4,169.6 314,169.6 314,169.8 313.6,169.8 313.6,170 313.4,170 313.4,169.8 312.9,169.8 312.9,170 
	312.4,170 312.4,170.1 310.5,170.1 310.5,170 310.3,170 310.3,169.8 310.2,169.8 310.2,169.6 310.2,169.3 310.1,169.3 310.1,168.8 
	310.2,168.8 310.2,168.6 310.5,168.6 310.5,168.8 310.7,168.8 310.7,168.6 311.1,168.6 311.1,168.5 311,168.5 311,168.3 
	310.8,168.3 310.8,168.1 310.5,168.1 310.5,167.9 310.2,167.9 310.2,167.8 309.6,167.8 309.6,167.9 309.4,167.9 309.4,168.1 
	309.3,168.1 309.3,168.3 309.1,168.3 309.1,168.5 308.9,168.5 308.9,168.6 308.5,168.6 308.5,168.8 308.4,168.8 308.4,169 
	308.3,169 308.3,169.1 308.2,169.1 308.2,169.3 307.9,169.3 307.9,169.5 307.8,169.5 307.8,169.6 307,169.6 307,169.8 306.9,169.8 
	306.9,170 306.6,170 306.6,170.1 306.5,170.1 306.5,170.3 306.4,170.3 306.4,170.1 305.9,170.1 305.9,170.3 305.6,170.3 
	305.6,170.5 305.4,170.5 305.4,170.7 305.1,170.7 305.1,171 305,171 305,171.2 304.9,171.2 304.9,171.3 304.2,171.3 304.2,171.5 
	304.1,171.5 304.1,171.7 304,171.7 304,171.8 303.3,171.8 303.3,172 302.9,172 302.9,172.2 302.3,172.2 302.3,172 302.2,172 
	302.2,171.8 302.1,171.8 302.1,172 301.5,172 301.5,172.2 301.4,172.2 301.4,172.4 301.3,172.4 301.3,172.5 301.2,172.5 
	301.2,172.9 300.7,172.9 300.7,173 300.3,173 300.3,173.2 299.8,173.2 299.8,173.4 299.3,173.4 299.3,173.5 299,173.5 299,173.7 
	298.4,173.7 298.4,173.9 298,173.9 298,174.1 297.6,174.1 297.6,174.2 297.2,174.2 297.2,174.4 297,174.4 297,174.6 296.7,174.6 
	296.7,174.7 296.3,174.7 296.3,174.9 295.9,174.9 295.9,175.1 295.3,175.1 295.3,175.2 294.7,175.2 294.7,175.4 294,175.4 
	294,175.2 293.4,175.2 293.4,175.4 292.8,175.4 292.8,175.6 292.4,175.6 292.4,175.8 292,175.8 292,175.9 291.9,175.9 291.9,176.1 
	291.5,176.1 291.5,176.3 291.1,176.3 291.1,176.4 291,176.4 291,176.6 290.8,176.6 290.8,176.8 290.6,176.8 290.6,176.9 
	290.2,176.9 290.2,177.1 290.1,177.1 290.1,177.3 290,177.3 290,177.4 289.6,177.4 289.6,177.6 289.4,177.6 289.4,177.8 
	289.3,177.8 289.3,178 289.1,178 289.1,178.1 288.9,178.1 288.9,178.3 288.6,178.3 288.6,178.5 288.4,178.5 288.4,178.6 
	288.4,178.6 288.4,178.6 288,178.6 288,178.8 287.9,178.8 287.9,178.9 287.9,179 287.8,179 287.8,179.1 287.4,179.1 287.4,179.3 
	287.3,179.3 287.3,179.5 287,179.5 287,179.7 286.6,179.7 286.6,179.8 286.5,179.8 286.5,180 285.8,180 285.6,180 285.6,180.1 
	285.6,180.2 285.5,180.2 285.4,180.2 285.4,180.2 285.4,180.3 285.1,180.3 284.9,180.3 284.9,180.2 284.7,180.2 284.7,180.3 
	284.5,180.3 284.5,180.5 284.4,180.5 284.4,180.7 284,180.7 284,180.8 283,180.8 283,181 282.7,181 282.7,181.2 282.4,181.2 
	282.4,181.4 282.3,181.4 282.3,181.5 282.1,181.5 282.1,181.7 281.9,181.7 281.9,181.9 281.6,181.9 281.6,182 281.2,182 
	281.2,182.2 280.5,182.2 280.5,182.4 280.3,182.4 280.3,182.5 280.2,182.5 280.2,183 280.2,183 280,183 280,183.2 279.8,183.2 
	279.5,183.2 279.5,183.4 279.4,183.4 279.4,183.6 279.3,183.6 279.3,183.7 279.2,183.7 279.1,183.7 279.1,183.8 279.1,183.9 
	279,183.9 278.9,183.9 278.9,184 278.9,184.1 278.8,184.1 278.6,184.1 278.6,184.2 278.6,184.2 278.4,184.2 278.4,184.4 
	277.9,184.4 277.9,184.6 277.7,184.6 277.7,184.7 277.6,184.7 277.6,184.9 277.4,184.9 277.4,185.3 277.4,185.4 277.2,185.4 
	277,185.4 277,185.6 276.8,185.6 276.8,185.7 276.8,185.8 276.8,185.8 276.6,185.8 276.6,185.9 276.6,185.9 276.2,185.9 
	276.2,186.1 276.1,186.1 276.1,186.3 275.8,186.3 275.8,186.4 275.2,186.4 275.2,186.6 275.1,186.6 275.1,186.8 274.8,186.8 
	274.8,187 274.7,187 274.7,187.1 274.4,187.1 274.4,187.3 274,187.3 274,187.5 273.7,187.5 273.7,187.6 273.4,187.6 273.4,187.8 
	272.9,187.8 272.9,188 272.1,188 272.1,188.1 271.9,188.1 271.9,188 271.6,188 271.6,188.1 271.4,188.1 271.4,188 269.8,188 
	269.8,187.8 268.2,187.8 268.2,188 267.8,188 267.8,188.1 267.4,188.1 267.4,188.3 266.8,188.3 266.8,188.5 265.3,188.5 
	265.3,188.3 265,188.3 265,188.1 263.2,188.1 263.2,188.3 262.8,188.3 262.8,188.5 262.7,188.5 262.7,188.7 262.3,188.7 
	262.3,188.8 262.1,188.8 262.1,189 261.4,189 261.4,189.2 260.5,189.2 260.5,189 260.2,189 260.2,189.2 259.9,189.2 259.9,189.3 
	259.7,189.3 259.7,189.5 259.5,189.5 259.5,189.8 259.4,189.8 259.4,190.3 259.1,190.3 259.1,190.5 259,190.5 259,190.9 
	258.9,190.9 258.9,191 258.8,191 258.8,191.2 258.6,191.2 258.6,191.4 258.5,191.4 258.5,191.5 258.3,191.5 258.3,191.7 
	258.1,191.7 258.1,191.9 257.9,191.9 257.9,192 257.7,192 257.7,192.2 257.5,192.2 257.5,192.4 257.5,192.6 257.2,192.6 
	257.2,192.7 257,192.7 256.7,192.7 256.7,192.9 256.1,192.9 256.1,193.1 255.8,193.1 255.8,193.2 255.6,193.2 255.6,193.4 
	255.3,193.4 255.3,193.6 255.2,193.6 255.2,193.7 255.1,193.7 255.1,193.9 254.7,193.9 254.7,194.1 254.6,194.1 254.6,194.3 
	254.3,194.3 254.3,194.4 254.2,194.4 254.2,194.6 253.8,194.6 253.8,194.8 253.4,194.8 253.4,194.9 253.3,194.9 253.3,195.2 
	253.3,195.4 253.2,195.4 253.2,195.8 253,195.8 253,195.9 252.9,195.9 252.9,196.1 252.8,196.1 252.8,196.3 252.3,196.3 
	252.3,196.5 252.1,196.5 252.1,196.6 252,196.6 252,196.8 251.6,196.8 251.6,197 251.5,197 251.5,197.1 251.4,197.1 251.4,197.3 
	251.1,197.3 251.1,197.5 250.7,197.5 250.7,197.6 250.5,197.6 250.5,197.8 250.2,197.8 250.2,198 250,198 250,198.2 249.9,198.2 
	249.9,198.3 249.6,198.3 249.6,198.5 249.3,198.5 249.3,198.7 249.2,198.7 249.2,198.8 249.1,198.8 249.1,199 249,199 249,199.2 
	248.6,199.2 248.6,199.3 248.5,199.3 248.5,199.5 248.3,199.5 248.3,199.7 247.7,199.7 247.7,199.9 247.2,199.9 247.2,200.2 
	246,200.2 246,200.4 245,200.4 244.9,200.4 244.9,200.5 244.8,200.5 244.8,200.7 243.7,200.7 241.8,200.7 241.8,200.5 240.6,200.5 
	240.6,200.4 237.8,200.4 237.8,200.2 237.3,200.2 237.3,200 237,200 237,200.2 236.5,200.2 236.5,200 236.1,200 236.1,199.9 
	235.6,199.9 235.6,199.7 235.3,199.7 235.3,199.5 235.1,199.5 235.1,199.3 235,199.3 235,199.2 234.1,199.2 234.1,199 233.1,199 
	233.1,198.8 232.9,198.8 232.9,198.7 232.8,198.7 232.8,198.5 232.7,198.5 232.7,198.2 232.5,198.2 232.5,198 232.4,198 
	232.4,197.8 232.3,197.8 232.3,197.6 232.2,197.6 232.2,197.5 232,197.5 232,197.3 231.9,197.3 231.9,197 231.8,197 231.8,196.8 
	231.7,196.8 231.7,195.1 231.8,195.1 231.8,194.8 232,194.8 232,194.4 232.2,194.4 232.2,194.3 232.3,194.3 232.3,193.7 
	232.2,193.7 232.2,193.4 231.9,193.4 231.9,193.2 231.8,193.2 231.8,193.4 231.3,193.4 231.3,193.7 231,193.7 231,193.9 
	230.9,193.9 230.9,194.1 230,194.1 230,193.7 229.9,193.7 229.9,193.6 230,193.6 230,193.4 230.3,193.4 230.3,193.2 230.1,193.2 
	230.1,192.6 230.3,192.6 230.3,192.2 231,192.2 231,192.4 231.5,192.4 231.5,192.6 231.9,192.6 231.9,192.7 232.3,192.7 
	232.3,192.9 232.8,192.9 232.8,193.1 234.1,193.1 234.1,193.2 234.5,193.2 234.5,193.6 234.8,193.6 234.8,193.2 235.1,193.2 
	235.1,193.1 234.7,193.1 234.7,192.9 234.6,192.9 234.6,192.7 234.3,192.7 234.3,192.6 233.6,192.6 233.6,192.4 232.8,192.4 
	232.8,192.2 232.2,192.2 232.2,192 231,192 231,191.9 230.8,191.9 230.8,192 230.6,192 230.6,191.9 229.5,191.9 229.5,192 
	228.9,192 228.9,192.2 228.7,192.2 228.7,192.4 228.3,192.4 228.3,192.2 228.2,192.2 228.2,192 227.7,192 227.7,191.9 227.1,191.9 
	227.1,192 226.2,192 226.2,191.9 226.1,191.9 226.1,192 225.7,192 225.7,191.9 225.2,191.9 225.2,192 224.4,192 224.4,192.2 
	224,192.2 224,192.4 223.6,192.4 223.6,192.6 223.5,192.6 223.5,192.7 223.1,192.7 223.1,192.9 222.6,192.9 222.6,193.1 
	222.5,193.1 222.5,193.2 222,193.2 222,193.4 221.9,193.4 221.9,193.7 221.1,193.7 221.1,193.9 221,193.9 221,194.1 220.7,194.1 
	220.7,194.3 220.4,194.3 220.4,194.4 218.4,194.4 218.4,194.3 218.3,194.3 218.3,194.1 218,194.1 218,193.9 217.9,193.9 
	217.9,194.1 217.5,194.1 217.5,194.3 217.4,194.3 217.4,194.4 217.3,194.4 217.3,194.6 217.1,194.6 217.1,194.8 217,194.8 
	217,194.9 216.9,194.9 216.9,195.1 216.6,195.1 216.6,195.3 216.4,195.3 216.4,195.4 216.1,195.4 216.1,195.6 216,195.6 216,195.4 
	215.7,195.4 215.7,195.3 215.5,195.3 215.5,195.4 215.2,195.4 215.2,195.6 215.2,195.6 215.1,195.6 215.1,195.8 214.3,195.8 
	214.3,195.9 214.1,195.9 214.1,196.1 213.3,196.1 213.3,196.3 213.1,196.3 213.1,196.4 213.1,196.5 212.7,196.5 212.7,196.6 
	212.6,196.6 212.6,196.8 212,196.8 212,197 211.4,197 211.4,197.1 211.2,197.1 211.2,197.3 210.8,197.3 210.8,197.5 210.5,197.5 
	210.5,197.6 210,197.6 210,197.8 209.5,197.8 209.5,197.6 207.8,197.6 207.8,197.8 207.7,197.8 207.7,197.6 207.5,197.6 
	207.5,197.8 206.8,197.8 206.8,197.6 206.8,197.6 206.3,197.6 206.3,197.5 206.2,197.5 206.2,197.3 205.6,197.3 205.6,197.5 
	205.4,197.5 205.4,197.6 205.3,197.6 205.3,197.9 205.3,198 205.1,198 205,198 205,197.8 204.9,197.8 204.9,198 204.5,198 
	204.5,197.8 204.4,197.8 204.4,197.6 204,197.6 204,197.8 203.8,197.8 203.8,198 203.6,198 203.6,198.2 203.4,198.2 203.4,198.3 
	203.4,198.5 203,198.5 203,198.4 203,198.2 199.7,198.2 199.7,198.3 198.8,198.3 198.8,198.5 198.7,198.5 198.7,198.7 198.3,198.7 
	198.3,198.8 197.9,198.8 197.9,199 197.8,199 197.8,199.2 197,199.2 197,199.3 197,199.3 196.4,199.3 196.4,199.4 196.4,199.5 
	195.5,199.5 195.5,199.7 194.7,199.7 194.7,199.9 194.1,199.9 194.1,200 194,200 194,200.2 193.8,200.2 193.8,200.4 193.5,200.4 
	193.5,200.5 193.3,200.5 193.3,200.4 192.7,200.4 192.7,200.5 192.6,200.5 192.6,200.9 192.4,200.9 192.4,201 192.3,201 
	192.3,201.2 191.9,201.2 191.9,201.4 190.7,201.4 190.7,201.6 190.5,201.6 190.5,201.4 189.4,201.4 189.4,201.2 189.1,201.2 
	189.1,201.4 188.8,201.4 188.8,201.6 188.2,201.6 188.2,201.7 186.8,201.7 186.8,201.6 186.2,201.6 186.2,201.4 183,201.4 
	183,201.6 181.7,201.6 181.7,201.4 181.2,201.4 181.2,201.2 181,201.2 181,201 180.7,201 180.7,201.2 180.2,201.2 180.2,201 
	180.1,201 180.1,201.2 180,201.2 178.9,201.2 178.9,201 178.1,201 178.1,200.9 176.2,200.9 175,200.9 175,201 174.2,201 
	174.2,201.2 173.7,201.2 173.7,201.4 172.8,201.4 172.8,201.6 172.3,201.6 172.3,201.7 171.9,201.7 171.9,201.9 171.7,201.9 
	171.7,202.2 171.4,202.2 171.4,202.4 171.2,202.4 171.2,202.6 170.9,202.6 170.9,202.7 170.8,202.7 170.8,202.9 170.7,202.9 
	170.7,203.1 170.4,203.1 170.4,203.2 169.8,203.2 169.8,203.4 169.3,203.4 169.3,203.6 169,203.6 169,203.8 168.9,203.8 
	168.9,203.9 168.6,203.9 168.6,204.3 168.4,204.3 168.4,204.4 168.1,204.4 168.1,204.9 168,204.9 168,205.1 167.7,205.1 
	167.7,205.3 167,205.3 167,205.5 165.8,205.5 165.8,205.6 166,205.6 166,206.3 165.8,206.3 165.8,206.6 165.5,206.6 165.5,206.8 
	165.1,206.8 165.1,207.2 164.6,207.2 164.6,207.3 164.4,207.3 164.4,207.5 164.2,207.5 164.2,207.7 163.9,207.7 163.9,207.8 
	163.7,207.8 163.7,208 163.4,208 163.4,208.2 163,208.2 163,208.3 162,208.3 162,208.2 161.5,208.2 161.5,208.5 161.4,208.5 
	161.4,208.7 161.3,208.7 161.3,208.8 161.1,208.8 161.1,209 161,209 161,209.2 160.9,209.2 160.9,209.5 160.7,209.5 160.7,209.9 
	160.6,209.9 160.6,210 160.4,210 160.4,210.2 159.6,210.2 159.6,210.4 159.2,210.4 159.2,210.5 159,210.5 159,210.7 158.8,210.7 
	158.8,211.1 158.6,211.1 158.6,211.2 158.2,211.2 158.2,211.4 158.1,211.4 158.1,211.6 157.9,211.6 157.9,211.7 157.8,211.7 
	157.8,211.9 157.7,211.9 157.7,212.1 157.6,212.1 157.6,212.2 157.4,212.2 157.4,212.4 157.3,212.4 157.3,212.6 157.1,212.6 
	157.1,212.8 156.9,212.8 156.9,212.9 156.8,212.9 156.8,213 156.8,213.1 156.7,213.1 156.7,213.3 156.4,213.3 156.4,213.4 
	156.3,213.4 156.3,213.6 156,213.6 156,213.8 155.8,213.8 155.8,213.9 155.7,213.9 155.7,214.1 155.5,214.1 155.5,214.3 
	155.4,214.3 155.4,214.6 155.3,214.6 155.3,215 155.1,215 155.1,215.3 155,215.3 155,215.5 154.9,215.5 154.9,215.6 154.6,215.6 
	154.6,215.8 154.5,215.8 154.5,216 154.4,216 154.4,216.1 154.1,216.1 154.1,216.3 153.9,216.3 153.9,216.5 153.7,216.5 
	153.7,216.7 153.6,216.7 153.6,216.8 153.2,216.8 153.2,217 153.1,217 153.1,217.2 153.1,217.3 152.9,217.3 152.9,217.7 
	152.6,217.7 152.6,217.8 152.5,217.8 152.5,218.2 152.3,218.2 152.3,218.4 152.2,218.4 152.2,218.5 151.8,218.5 151.8,218.7 
	151.7,218.7 151.7,218.9 151.4,218.9 151.4,219 151.2,219 151.2,219.2 151.1,219.2 151.1,219.4 150.9,219.4 150.9,219.5 
	150.8,219.5 150.8,219.7 150.6,219.7 150.6,219.9 150.4,219.9 150.4,220 157.4,222.7 162.1,224.7 164.8,226.1 164.8,226.1 
	168.4,228.8 170.8,230.9 172.9,233.2 174.8,235.7 175.5,237 176.6,239.7 177.7,244.9 184.6,244.9 188.5,249.9 190.1,252.6 
	192.7,258.6 197.1,266.7 199.5,272.8 204,281 206.4,287 209.3,292.5 210.5,295.3 211.4,298.5 212,301.8 212.4,308.7 212.8,312.1 
	213.6,315.4 216.6,322.4 217.6,325.6 218.3,329.2 219.3,338.5 219.9,342.1 220.9,345.3 224.1,352.3 227.3,365.1 230.5,372.1 
	231.6,375.3 232.4,380.6 232.7,386.1 232.5,399.1 232.2,402.7 231.5,406.3 230.5,409.4 227.3,416.4 226.4,419.5 225,426 224,429.2 
	222.7,432.1 219.6,437.5 216.4,444 218,451.6 218.5,459.8 218.5,501 225.4,501 230.2,500 233.1,498.9 239.7,495.2 245.6,492.7 
	253.5,488.1 259.3,485.5 267.4,481.3 270.5,480.4 278.4,478.7 281.3,477.6 287.9,473.9 293.8,471.4 301.7,466.8 307.6,464.3 
	314.1,460.4 318,458.7 327.9,453.1 335.1,450 343,445.5 348.9,443 356.8,438.4 362.7,435.9 370.6,431.3 376.4,428.7 380.3,426.1 
	388.7,418.9 391.3,417.2 395.6,415.2 398.4,413.6 400.9,411.8 404.5,408.7 408.1,405.6 410.7,403.8 413.1,402.4 417.7,400.2 
	420.3,398.5 428.8,391.4 431.3,389.5 433.8,388.2 438.5,386.1 446.4,381.6 451,379.5 453.5,378.2 456,376.3 463.3,370.2 
	465.8,368.3 474.2,364 476.7,362.1 479.1,360 487.2,352 490.8,348.8 494.7,346.2 500.4,343.4 503,341.7 506.6,338.6 511.3,334.1 
	511.3,327 515.7,322.2 518.7,318.4 520.3,315.8 522.4,311 523.7,308.4 526.5,304.6 530.9,299.7 541.2,289.1 545.4,284.2 548,280.2 
	550,275.5 551.3,272.9 554.1,269 559.6,263 574.6,247.7 579.9,241.6 582.5,237.6 585.1,231.6 586.7,229 589.7,225.2 598.6,215.6 
	601.7,211.9 604,208.5 607.8,200.7 609.7,198 612.8,194.4 615.1,192.3 617.5,190.4 619.9,189.1 626,186.4 632.6,182.7 638.3,180.2 
	639.6,179.3 641.9,177.3 643.9,174.9 645.2,172.4 649.6,160 "/>
</svg>
