<?xml version="1.0" encoding="utf-8"?>
<!-- Generator: Adobe Illustrator 24.2.3, SVG Export Plug-In . SVG Version: 6.00 Build 0)  -->
<svg version="1.1" id="Layer_1" xmlns="http://www.w3.org/2000/svg" xmlns:xlink="http://www.w3.org/1999/xlink" x="0px" y="0px"
	 viewBox="0 0 800 533" style="enable-background:new 0 0 800 533;" xml:space="preserve">
<style type="text/css">
	.st0{fill:#F2933D;stroke:#000000;stroke-width:0.4;stroke-miterlimit:9;}
</style>
<g>
	<polygon class="st0" points="355.5,42.6 355.7,42.8 355.7,42.6 	"/>
	<polygon class="st0" points="621,129.1 620.6,127.7 620.1,126.5 619.4,125.4 617.6,123.5 615.6,122 612,120.4 609.8,119.1 
		607.8,117.4 606,115.4 604.7,113.1 602.3,108.1 598.7,102.3 597,99.2 596.4,99.2 596.4,99.1 595.8,99.1 595.8,99.2 594.2,99.2 
		594.2,99.4 593.6,99.4 593.6,99.5 593.3,99.5 593.3,99.4 590.7,99.4 590.7,99.2 588.5,99.2 588.2,99.2 588.2,99.1 584,99.1 
		584,99.2 583.3,99.2 583.3,99.4 583.2,99.4 583.2,99.2 573.7,99.2 573.7,99.1 572.6,99.1 572.6,99.2 572.4,99.2 572.4,99.4 
		572.1,99.4 572.1,99.2 571.4,99.2 571.4,99.1 569.2,99.1 569.2,98.9 567.1,98.9 567.1,98.8 564.5,98.8 564.5,98.6 562.8,98.6 
		562.8,98.5 561.2,98.5 561.2,98.3 559.6,98.3 559.6,98.2 559.1,98.2 559.1,98 555.4,98 555.4,97.9 553.5,97.9 553.5,97.7 
		551.8,97.7 551.8,97.6 551.6,97.6 551.6,97.4 551.4,97.4 551.4,97.3 550.5,97.3 550.5,97.2 550,97.2 550,97 549.3,97 549.3,96.9 
		548.7,96.9 548.7,96.8 548.7,96.7 548.2,96.7 548.2,96.6 546.3,96.6 546.3,96.4 546.1,96.4 546.1,96.6 545.8,96.6 545.8,96.7 
		545.5,96.7 545.5,96.6 544.5,96.6 544.5,96.4 544.1,96.4 544.1,96.3 543.1,96.3 543.1,96.1 542.6,96.1 541.9,96.1 541.9,96 
		541.3,96 541.3,95.8 540.9,95.8 540.9,95.7 540.4,95.7 540.4,95.5 539.9,95.5 539.9,95.4 539.2,95.4 539.2,95.2 538,95.2 538,95.1 
		537.5,95.1 537.5,94.9 536.3,94.9 536.3,94.8 535.7,94.8 535.7,94.6 535,94.6 535,94.5 533.6,94.5 533.6,94.4 532.7,94.4 
		532.7,94.2 532.2,94.2 532.2,94.1 531.7,94.1 531.7,93.9 531.2,93.9 531.2,93.8 530.7,93.8 530.7,93.6 530.4,93.6 530.4,93.5 
		529.8,93.5 529.8,93.3 529.6,93.3 529.6,93.2 529.3,93.2 523.5,93.2 523.5,93 523.2,93 523.2,92.9 522.2,92.9 522.2,92.7 
		521.6,92.7 521.6,92.6 521,92.6 521,92.7 520.9,92.7 520.9,92.6 520.6,92.6 520.6,92.4 519.7,92.4 519.7,92.3 518.9,92.3 
		518.9,92.4 518.6,92.4 518.6,92.6 518.2,92.6 518.2,92.7 517.9,92.7 517.9,92.6 517.8,92.6 517.8,92.4 516.5,92.4 516.5,92.3 
		515.8,92.3 515.8,92.1 515.7,92.1 515.7,92 515.3,92 515.3,91.8 513.9,91.8 513.9,91.7 513.3,91.7 513.3,91.6 512.3,91.6 
		512.3,91.7 511.9,91.7 511.9,91.8 511.3,91.8 511.3,92 509.4,92 509.4,91.8 509.2,91.8 509.2,91.7 509,91.7 509,91.6 508.7,91.6 
		508.7,91.4 508.5,91.4 508.5,91.3 508.1,91.3 508.1,91.1 507.7,91.1 507.7,91 507.5,91 507.5,90.8 507.4,90.8 507.4,90.7 
		507.2,90.7 507.2,90.5 507,90.5 507,90.4 506.9,90.4 506.9,90.2 506.5,90.2 506.5,90.1 506.3,90.1 506.3,89.9 505.8,89.9 
		505.8,89.8 505.5,89.8 505.5,89.6 505,89.6 505,89.5 504.9,89.5 504.9,89.3 504.5,89.3 504.5,89.2 504.4,89.2 504.4,89.1 
		504.2,89.1 504.2,88.9 503.9,88.9 503.9,88.8 503.7,88.8 503.7,88.6 503.4,88.6 503.4,88.5 502.9,88.5 502.9,88.3 502.7,88.3 
		502.7,88.2 502.5,88.2 502.5,88 502.3,88 502.3,87.9 502.2,87.9 502.2,87.7 502.1,87.7 502.1,87.6 501.9,87.6 501.9,87.4 
		501.7,87.4 501.7,87.3 501.3,87.3 501.3,87.1 501,87.1 501,87 500.8,87 500.8,86.8 500.7,86.8 500.7,86.7 500.2,86.7 500.2,86.5 
		500,86.5 500,86.4 499.7,86.4 499.7,86.3 499.3,86.3 499.3,86.1 499,86.1 499,86 498.8,86 498.8,85.8 498.5,85.8 498.5,85.7 
		498.1,85.7 498.1,85.5 497.8,85.5 497.8,85.4 497.6,85.4 497.6,85.2 497.2,85.2 497.2,85.1 496.9,85.1 496.9,84.9 496.6,84.9 
		496.6,84.8 496.4,84.8 496.4,84.6 496.1,84.6 496.1,84.5 496,84.5 496,84.3 495.4,84.3 495.4,84 494.8,84 494.8,83.9 494.5,83.9 
		494.5,83.7 494.3,83.7 494.3,83.6 493.9,83.6 493.9,83.5 493.7,83.5 493.7,83.3 493.5,83.3 493.5,83.2 493.3,83.2 493.3,83 
		492.8,83 492.8,82.9 492.6,82.9 492.6,82.7 492.3,82.7 492.3,82.6 492.1,82.6 492.1,82.4 491.8,82.4 491.8,82.3 491.6,82.3 
		491.6,82.1 491.4,82.1 491.4,82 491.2,82 491.2,81.8 490.9,81.8 490.9,81.7 490.7,81.7 490.7,81.5 490.5,81.5 490.5,81.4 
		490.3,81.4 490.3,81.2 490.1,81.2 490.1,81.1 489.8,81.1 489.8,80.9 489.6,80.9 489.6,80.8 489.4,80.8 489.4,80.7 489.2,80.7 
		489.2,80.5 489,80.5 489,80.4 488.7,80.4 488.7,80.2 488.5,80.2 488.5,80.1 488.3,80.1 488.3,79.9 487.9,79.9 487.9,79.8 
		487.6,79.8 487.6,79.6 487.3,79.6 487.3,79.5 487.1,79.5 487.1,79.3 486.7,79.3 486.7,79.2 486.5,79.2 486.5,79 485.8,79 
		485.8,78.9 485.3,78.9 485.3,78.7 484.9,78.7 484.9,78.6 484.3,78.6 484.3,78.4 484,78.4 484,78.3 483.8,78.3 483.8,78.1 
		483.5,78.1 483.5,78 483.4,78 483.4,77.9 483.2,77.9 483.2,77.7 483.1,77.7 483.1,77.6 482.9,77.6 482.9,77.4 482.4,77.4 
		482.4,77.3 482.4,77.3 482.3,77.3 482.3,77.1 482.2,77.1 482.2,77 482.1,77 482.1,76.7 481.8,76.7 481.8,76.5 481.7,76.5 
		481.7,76.4 481.6,76.4 481.6,76.2 481.2,76.2 481.2,76.1 481,76.1 481,75.9 480.8,75.9 480.8,75.8 480.6,75.8 480.6,75.6 
		480.4,75.6 480.4,75.5 479.6,75.5 479.6,75.8 478.9,75.8 478.9,75.6 478.7,75.6 478.7,75.5 478.6,75.5 478.6,75.3 478.5,75.3 
		478.5,75.2 478.2,75.2 478.2,75.1 478.1,75.1 478.1,74.8 477.8,74.8 477.8,74.6 477.1,74.6 477.1,74.5 476.8,74.5 476.8,74.3 
		476.6,74.3 476.6,74.2 476.5,74.2 476.5,74 476.4,74 476.4,73.9 476.3,73.9 476.3,73.6 476,73.6 476,73.4 475.9,73.4 475.9,73.1 
		475.8,73.1 475.8,73 475.6,73 475.6,72.8 475.3,72.8 475.3,73.1 474.8,73.1 474.8,73 474.7,73 474.7,72.8 474.4,72.8 474.4,72.7 
		473.4,72.7 473.4,72.5 473,72.5 473,72.4 472.6,72.4 472.6,72.3 472.4,72.3 472.4,72.1 472.1,72.1 472.1,72 471.8,72 471.8,71.8 
		471.5,71.8 471.5,71.7 471.3,71.7 471.3,71.5 471.1,71.5 471.1,71.4 470.7,71.4 470.7,71.2 470.5,71.2 470.5,71.1 470.2,71.1 
		470.2,70.9 470,70.9 470,70.8 469.7,70.8 469.7,70.6 469.5,70.6 469.5,70.5 469.4,70.5 469.4,70.3 469,70.3 469,70.2 468.7,70.2 
		468.7,70 468.6,70 468.6,69.8 468.5,69.8 468.5,69.5 468.4,69.5 468.4,69.3 467.7,69.3 467.7,69.5 467.1,69.5 467.1,69.6 
		466.5,69.6 466.5,69.8 466,69.8 465.9,69.8 465.9,69.9 464.1,69.9 464.1,69.8 462.9,69.8 462.9,69.6 461.6,69.6 461.6,69.5 
		460.7,69.5 460.7,69.3 459.8,69.3 459.8,69.2 458.8,69.2 458.8,69 457.9,69 457.9,68.9 457,68.9 457,68.7 456.1,68.7 456.1,68.6 
		455.3,68.6 455.3,68.4 454.3,68.4 454.3,68.3 453.4,68.3 453.4,68.1 452.5,68.1 452.5,68 451.5,68 451.5,67.8 450.6,67.8 
		450.6,67.7 449.6,67.7 449.6,67.5 448.7,67.5 448.7,67.4 447.7,67.4 447.7,67.2 446.9,67.2 446.9,67.1 445.9,67.1 445.9,67 445,67 
		445,66.8 444,66.8 444,66.7 442.9,66.7 442.9,66.5 441.8,66.5 441.8,66.4 440.7,66.4 440.7,66.2 439.6,66.2 439.6,66.1 438.5,66.1 
		438.5,65.9 437.4,65.9 437.4,65.8 436.2,65.8 436.2,65.6 435.4,65.6 435.4,65.5 434.6,65.5 434.6,65.3 433.7,65.3 433.7,65.2 
		432.8,65.2 432.8,65 432.1,65 432.1,64.9 431.2,64.9 431.2,64.7 430.3,64.7 430.3,64.6 429.5,64.6 429.5,64.4 428.6,64.4 
		428.6,64.3 427.7,64.3 427.7,64.2 427,64.2 427,64 426.1,64 426.1,63.9 425.2,63.9 425.2,63.7 424.3,63.7 424.3,63.6 423.4,63.6 
		423.4,63.4 422.4,63.4 422.4,63.3 421.6,63.3 421.6,63.1 420.7,63.1 420.7,63 419.8,63 419.8,62.8 419.1,62.8 419.1,62.7 
		418.6,62.7 418.6,62.5 417.9,62.5 417.9,62.4 417.2,62.4 417.2,62.2 416.6,62.2 416.6,62.1 416,62.1 416,61.9 415.4,61.9 
		415.4,61.8 414.7,61.8 414.7,61.6 414,61.6 414,61.5 413.5,61.5 413.5,61.4 412.8,61.4 412.8,61.2 412.2,61.2 412.2,61.1 
		411.5,61.1 411.5,60.9 410.8,60.9 410.8,60.8 410.2,60.8 410.2,60.6 409.5,60.6 409.5,60.5 408.8,60.5 408.8,60.3 408.1,60.3 
		408.1,60.2 407.4,60.2 407.4,60 406.7,60 406.7,59.9 406.1,59.9 406.1,59.7 405.4,59.7 405.4,59.6 404.8,59.6 404.8,59.4 
		404.1,59.4 404.1,59.3 403.5,59.3 403.5,59.1 402.9,59.1 402.9,59 402.3,59 402.3,58.8 401.8,58.8 401.8,58.7 401.1,58.7 
		401.1,58.6 400.6,58.6 400.6,58.4 400,58.4 400,58.3 399.5,58.3 399.5,58.1 398.8,58.1 398.8,58 398.2,58 398.2,57.8 397.7,57.8 
		397.7,57.7 397.1,57.7 397.1,57.5 396.7,57.5 396.7,57.4 396.1,57.4 396.1,57.2 395.6,57.2 395.6,57.1 395,57.1 395,56.9 
		394.5,56.9 394.5,56.8 394,56.8 394,56.6 393.5,56.6 393.5,56.5 392.9,56.5 392.9,56.3 392.4,56.3 392.4,56.2 391.8,56.2 391.8,56 
		391.4,56 391.4,55.9 390.8,55.9 390.8,55.8 390.6,55.8 390.3,55.8 390.3,55.6 389.8,55.6 389.8,55.5 389.4,55.5 389.4,55.3 
		389,55.3 389,55.2 388.5,55.2 388.5,55 388.1,55 388.1,54.9 387.6,54.9 387.6,54.7 387.2,54.7 387.2,54.6 386.7,54.6 386.7,54.4 
		386.3,54.4 386.3,54.3 385.9,54.3 385.9,54.1 385.4,54.1 385.4,54 385,54 385,53.8 384.5,53.8 384.5,53.7 384.1,53.7 384.1,53.5 
		383.7,53.5 383.7,53.4 383.2,53.4 383.2,53.2 382.7,53.2 382.7,53.1 382.2,53.1 382.2,53 381.8,53 381.8,52.8 381.3,52.8 
		381.3,52.7 380.8,52.7 380.8,52.5 380.3,52.5 380.3,52.4 379.9,52.4 379.9,52.2 379.5,52.2 379.5,52.1 379.4,52.1 379,52.1 379,52 
		379,51.9 378.9,51.9 378.5,51.9 378.5,51.8 378,51.8 378,51.6 377.7,51.6 377.6,51.6 377.6,51.5 377.1,51.5 377.1,51.3 376.6,51.3 
		376.6,51.2 376.1,51.2 376.1,51 375.6,51 375.6,50.9 375.1,50.9 375.1,50.7 374.6,50.7 374.6,50.6 374.1,50.6 374.1,50.4 
		373.6,50.4 373.6,50.3 373.3,50.3 373.2,50.3 373.2,50.2 372.6,50.2 372.6,50 372.2,50 372.2,49.9 371.8,49.9 371.8,49.7 
		371.4,49.7 371.4,49.6 371.1,49.6 371.1,49.4 370.7,49.4 370.7,49.3 370.4,49.3 370.4,49.1 369.9,49.1 369.9,49 369.6,49 
		369.6,48.8 369.3,48.8 369.3,48.7 369,48.7 369,48.5 368.5,48.5 368.5,48.4 368.2,48.4 368.2,48.2 367.9,48.2 367.8,48.1 
		367.5,48.1 367.5,47.9 367.1,47.9 367.1,47.8 366.7,47.8 366.7,47.7 366.4,47.7 366.4,47.5 366,47.5 366,47.4 365.6,47.4 
		365.6,47.2 365.2,47.2 365.2,47.1 364.9,47.1 364.9,46.9 364.4,46.9 364.4,46.8 364.1,46.8 364.1,46.6 363.8,46.6 363.8,46.5 
		363.3,46.5 363.3,46.3 363,46.3 363,46.2 362.5,46.2 362.5,46 362.2,46 362.2,45.9 361.9,45.9 361.9,45.7 361.6,45.7 361.6,45.6 
		361.3,45.6 361.3,45.4 361,45.4 361,45.3 361,45.3 360.9,45.3 360.7,45.3 360.7,45.2 360.7,45.1 360.3,45.1 360.3,45 360.1,45 
		360.1,44.8 359.8,44.8 359.8,44.7 359.5,44.7 359.5,44.6 359.2,44.6 359.2,44.4 358.9,44.4 358.9,44.3 358.6,44.3 358.6,44.1 
		358.3,44.1 358.3,44 358,44 358,43.8 357.8,43.8 357.8,43.7 357.5,43.7 357.5,43.5 357.1,43.5 357.1,43.4 356.9,43.4 356.9,43.2 
		356.6,43.2 356.6,43.1 356.2,43.1 356.2,42.9 355.9,42.9 355.9,42.8 355.7,42.8 357.1,44.2 358.9,51.5 359.4,56 359.2,60.5 
		358.7,63.3 358.1,64.7 356.7,67 355.8,68 353.8,69.8 351.5,71.1 346.6,73.5 343.1,76.2 340.9,78.2 338.9,80.5 336.3,84.2 
		334.1,89.4 331.6,94.2 330.6,96.7 329.7,101 329,108.4 328.2,112.7 327.3,115.3 324.4,121.2 323.8,124.1 323.5,127 323.8,129.9 
		324,131.3 324.5,132.7 325.9,135.3 328.6,138.8 334.6,145.4 337.5,148.8 339.9,152.3 341.6,156.1 343,158.4 344.7,160.4 346.8,162 
		349.2,163.2 353.1,164.1 353.1,181.3 353.6,189.7 354.7,194.4 357.5,200.3 358.4,202.9 358.9,207.2 358.7,210.1 357.9,212.9 
		357.2,214.1 356.5,215.2 354.6,217.1 352.3,218.5 351.1,219.1 344.4,220.5 339.3,222.5 329.7,226.7 328.6,227.4 326.6,229.2 
		324.9,231.4 324.3,232.6 323.3,235.6 322.9,238.7 322.8,243.5 323.2,250 323.7,253.1 324.5,256.1 326.7,260.7 327.6,263.1 
		328,265.9 327.9,267.3 327.2,270 326,272.3 319.7,281.4 317.8,289.4 316.2,298 315.3,300.6 312.5,306.7 311.7,309.4 310.2,316.5 
		309.2,319.1 306.4,325.2 305.6,327.9 305.1,330.8 302,333.3 299.7,334.8 297.1,335.9 295.6,336.3 292.7,336.7 289.6,336.9 
		275.7,337.1 272.6,337.5 269.7,338.3 267.3,339.4 262.7,341.9 257.7,344.1 251.9,347.3 249.4,348.2 242.6,349.8 239.9,350.7 
		233,354.3 227.9,356.6 222.1,359.7 219.4,360.7 216.4,361.3 211.6,361.6 188.9,361.6 178.9,361.8 179.9,369 180.5,371.9 
		181.4,374.6 184.1,380.6 185.5,386.2 186.1,389.1 186.8,391.8 189.8,397.8 190.9,400.4 193.3,408 194.1,411.3 198.7,417.9 
		201.5,421.2 208.3,428.5 215.3,435.6 218.4,438.4 220.6,440 222.7,441.2 226.8,443 229,444.4 231.2,446.1 237.2,452.1 250.9,466.6 
		254,469.4 256.3,471 257.6,471.6 259.6,472.3 263.6,472.9 271.8,473.1 280,472.7 283.3,472.2 286.4,471.4 292.1,468.7 295.1,467.7 
		298.2,467.1 304.9,466.6 309.1,463 311.4,461.5 313.9,460.2 319.3,458.1 323.4,455.8 326.4,454.9 329.6,454.5 339.5,454.1 
		354.5,454.3 359.4,454.7 362.6,455.3 365.3,456.2 370,458.5 372.5,459.4 381,461 388.4,460.8 391.2,461.1 394,461.8 396.4,462.9 
		401,465.5 406,467.7 412.8,471.8 417.9,474 424.7,478 429.8,480.2 435.6,483.4 438.1,484.4 442.2,485.3 447.6,486.6 453.3,489.3 
		456.9,490.4 459.8,486.8 463.1,482.3 464.5,480 465.6,477.4 466.1,474.7 466.5,470.6 466.3,466.4 465.9,463.7 465.1,461 
		464.5,459.8 463.8,458.6 462.1,456.4 458.2,452.2 449.1,443.4 446.5,440.4 445.2,438.3 444.8,437.1 444.7,435.9 444.8,434.6 
		445.3,433.4 445.8,432.3 447.4,430.3 455,422.4 457.6,419.2 459.1,416.9 460.9,412.7 462,410.5 464.4,407.2 469.1,402 477.8,393.2 
		489.5,392.7 530.3,392.8 538.7,392.4 543.4,391.4 550.6,388.1 553.6,387.1 559.8,385.7 566.6,383 569.1,382.5 571.1,382.5 
		577,377.2 581.2,372.7 583.8,368.9 584.5,367.5 585.4,364.3 585.8,361 586,355.9 585.8,330 585.9,319.7 586.6,312.9 587.3,310 
		588.5,306.3 593.4,299.5 599.2,293 600.5,291.1 601.1,290.1 601.4,289 601.6,287.8 601.4,286.6 601.1,285.5 599.9,283.5 
		597.5,280.7 586,269.4 580.5,264.4 575.8,262.8 573.3,261.6 565.7,256.8 563.9,255.2 562.6,253 560.4,245.3 557.7,239.3 
		556.8,236.4 556.3,233.2 556.1,228.3 556.3,225.1 556.9,221.9 557.8,219.1 560.8,213.1 563.6,205 565.5,201.2 568.4,194.5 
		569.5,192.3 571.2,190.6 574.1,189 577.7,186 579.6,184.6 581.6,183.6 585.6,181.8 587.8,180.4 589.9,178.7 594.8,174 610,158.2 
		610.9,153.9 611.9,151.3 615.1,145.4 617.4,140.2 620.4,134.6 621.1,131.9 	"/>
</g>
</svg>
