<?xml version="1.0" encoding="utf-8"?>
<!-- Generator: Adobe Illustrator 24.2.3, SVG Export Plug-In . SVG Version: 6.00 Build 0)  -->
<svg version="1.1" id="Layer_1" xmlns="http://www.w3.org/2000/svg" xmlns:xlink="http://www.w3.org/1999/xlink" x="0px" y="0px"
	 viewBox="0 0 800 533" style="enable-background:new 0 0 800 533;" xml:space="preserve">
<style type="text/css">
	.st0{fill:#F2933D;stroke:#000000;stroke-width:0.4;stroke-miterlimit:9;}
</style>
<polygon class="st0" points="743.7,261.1 740.6,254.1 737.4,247.6 736.4,244.7 734.9,237 734.1,234 730.4,226.1 728,220.4 
	726.3,217.6 724.3,215 722.1,212.6 719.6,210.4 716.9,208.5 715.5,207.8 712.3,206.9 707.4,206.4 693.8,206.3 688.9,206 
	684.1,204.9 677.7,201.9 675,200.9 670.4,200.1 664.1,199.8 660.6,202.6 658.2,204.4 655.9,205.7 651.6,207.7 649.1,209.3 
	644.6,213.3 635.8,222 632.4,224.8 630,226.2 622.3,229.7 619.9,230.5 618.6,230.6 617.3,230.3 615,229.2 612.8,227.6 608.5,223.9 
	606.2,222.1 598.4,217.8 596,216 589.2,210.1 585.6,207.6 580.1,205.1 575.2,202.3 572.6,201 570,200.3 563.3,199 560.7,198.2 
	559.4,197.6 553.2,194.2 547.6,191.8 540.2,187.3 536.3,185.5 524,178.5 520.3,175.4 518,174.1 515.3,173.3 507.7,172 504.9,171.2 
	503.7,170.7 499.9,168 497.1,167 493.9,166.4 483.6,165.7 479,164.7 477.6,164.1 473.8,161.4 472.6,160.7 463.4,157.7 460.4,155.9 
	450.8,148.2 445,144.2 441.7,140.6 438.2,137.6 435.5,134 432.5,131 431.6,129.2 419.4,121.7 416.8,120.4 413.9,119.5 406.5,117.7 
	403.8,116.7 397.4,113.6 392.6,112.4 389.2,112.1 384.1,112 379,112.3 375.7,112.7 372.5,113.6 366.1,116.7 363.4,117.6 
	359.1,118.4 350.6,119.2 347.9,119.8 346.5,120.3 343.8,121.8 340.2,124.7 330,135 323.6,142.3 321.1,146.2 318.8,152 313.9,162.9 
	306.1,157.1 297.6,149.7 295,148 293.6,147.4 290.6,147 287.7,147.3 285.2,148.3 280.4,150.8 275.9,151.9 271.3,152.3 266.6,152 
	262.1,151 255.7,147.8 252.8,146.8 247.9,146 236.1,145.3 231.2,144.6 228.3,143.6 223.2,141 220.5,140 211.5,138.1 204.9,136.2 
	201,135.3 197.7,133.5 190.7,130.7 184.7,127.6 181.4,126.4 177.9,125.7 174.4,125.4 162,125 159.4,131.3 158.6,134.2 158,137.3 
	157.1,147 156.5,150.1 155.5,153 153.1,158.2 152.2,161.1 151.6,164.2 150.7,173.9 149.6,178.5 148.4,181.2 145.8,186.4 
	143.4,192.1 139.2,199.7 137,205.6 132.6,215.3 119.1,220.7 111.5,224.6 108.3,225.5 103.3,226.1 96.5,226.2 86.1,225.9 78.3,225.3 
	79.4,232.7 79.6,237.6 79.1,242.4 78.1,245.5 76.6,248 73.5,251 71,252.5 65.7,255.1 61.9,258 57.2,262.7 54.4,266.7 49.2,277.2 
	48.3,279.9 48,281.4 48.1,284.5 48.4,286.1 49,287.6 50.7,290.5 54,294.4 57.6,298 61.4,301.5 65.4,304.6 68.2,306.1 72.3,308 
	79.8,312.3 85.3,314.7 91.5,318.1 94.5,319.1 99.5,319.9 106.5,320.2 156.2,320 179,319.6 183.7,320 186.6,321.1 187.9,322.1 
	188.8,323.4 189.9,326.4 190.2,331.3 190,334.7 189.3,338.1 188.2,341.1 184.7,347.6 181.4,354.5 176.3,361.9 173.3,365.7 
	179.9,371.1 189.1,380.3 192.6,383.5 195.1,385.1 196.5,385.7 198,386.1 199.5,386.2 202.4,385.9 205,384.8 208.6,382.9 
	211.2,381.8 218.7,380.1 221.6,379.2 229.2,375 233,373.5 240.8,374.1 243.4,374.9 245.7,376.4 246.6,377.7 247.6,380.7 
	248.1,387.3 254.6,394 259,395.1 261.7,396.3 264.1,397.9 267.6,400.7 274.1,407.5 279.9,409 286.3,412.1 289.1,413.2 296.5,415 
	299.3,415.9 307,419.6 311.5,420.6 317.8,420.9 322.5,420.3 325.4,419.5 331.7,416.3 334.5,415.2 337.5,414.6 342.2,414.3 
	346.9,414.6 349.9,415.2 352.7,416.2 357.8,418.7 360.7,419.8 365.9,420.6 371.4,421 372.8,417.7 373.6,416.7 374.7,415.8 
	377.3,414.7 380.4,414.2 387,414 430.7,414.5 437.5,414.1 440.8,413.4 442.3,412.9 443.8,412.1 446.5,410.4 455.2,403.3 
	461.9,399.7 464.6,397.9 468.3,394.8 472,391.3 480.2,382.7 484.5,377.6 487.2,373.6 490.5,366.7 494.9,360.7 499.3,354.7 
	502.6,347.8 505.4,343.6 508.7,339.6 512.3,335.8 516,332.3 518.7,330.1 521.4,328.3 526.9,325.8 534.4,321.6 540,319.2 
	547.4,314.9 552.9,312.4 559.1,309 560.5,308.4 563.6,307.6 568.5,307 578.6,306.8 588.7,306.9 593.7,307.3 596.8,308 598.4,308.6 
	599.8,309.3 602.5,311.1 611.2,318.3 619.1,322.8 629.1,330.9 631.9,332.5 633.4,333.1 636.6,333.7 641.5,334.1 668.2,333.9 
	673.2,334 678.1,334.4 682.8,335.5 689.1,338.6 691.9,339.6 696.4,340.4 704.2,341.2 708.8,342.1 719.4,346.8 728.8,347.5 
	728.6,336.7 728.8,329.7 729.3,324.5 730.2,321.2 734,313.4 736.4,307.7 740.3,299.9 741.1,296.9 742.8,289.2 743.9,286.4 
	746.2,282.6 752,274 "/>
</svg>
