<?xml version="1.0" encoding="utf-8"?>
<!-- Generator: Adobe Illustrator 24.2.3, SVG Export Plug-In . SVG Version: 6.00 Build 0)  -->
<svg version="1.1" id="Layer_1" xmlns="http://www.w3.org/2000/svg" xmlns:xlink="http://www.w3.org/1999/xlink" x="0px" y="0px"
	 viewBox="0 0 800 533" style="enable-background:new 0 0 800 533;" xml:space="preserve">
<style type="text/css">
	.st0{fill:#F2933D;stroke:#000000;stroke-width:0.4;stroke-miterlimit:9;}
</style>
<polygon class="st0" points="648.6,269.1 648.5,269.1 648.5,269 648.5,269 648.5,269 648.3,269 648.3,268.8 648.1,268.8 
	648.1,268.7 647.8,268.7 647.8,268.6 647.6,268.6 647.6,268.4 647.1,268.4 647.1,268.3 647,268.3 647,268.1 646.9,268.1 
	646.9,268.3 645.2,268.3 645.2,268.1 644.6,268.1 644.6,268 643.5,268 643.5,268 643.3,268 643.3,267.9 643.3,267.8 642.8,267.8 
	642.8,267.8 642.8,267.7 641.7,267.7 641.7,267.5 641.4,267.5 641.4,267.4 641.2,267.4 641.2,267.3 640.8,267.3 640.8,267.1 
	639.8,267.1 639.8,267 639.6,267 639.6,266.8 638.6,266.8 638.6,266.7 638.2,266.7 638.2,266.5 637.9,266.5 637.9,266.4 
	637.4,266.4 637.4,266.2 637,266.2 637,266.1 636.7,266.1 636.7,266 636.5,266 636.5,265.8 636.3,265.8 636.3,265.7 636.1,265.7 
	636.1,265.5 635.9,265.5 635.9,265.4 635.5,265.4 635.5,265.2 635.4,265.2 635.4,264.9 635.2,264.9 635.2,264.8 635.1,264.8 
	635.1,264.9 634.8,264.9 634.8,264.8 634.4,264.8 634.4,264.7 634.1,264.7 634.1,264.5 633.8,264.5 633.8,264.4 633.1,264.4 
	633.1,264.2 632.9,264.2 632.9,264.1 632.5,264.1 632.5,263.9 632.3,263.9 632.3,263.8 632.2,263.8 632.2,263.6 632.1,263.6 
	632.1,263.5 632,263.5 632,263.4 631.8,263.4 631.8,263.2 631.6,263.2 631.6,263.1 631.5,263.1 631.5,262.9 631.4,262.9 
	631.4,262.8 631.3,262.8 631.3,262.6 631.2,262.6 631.2,262.5 631.1,262.5 631.1,262.3 631,262.3 631,262.2 630.9,262.2 
	630.9,262.1 630.7,262.1 630.7,261.9 630.5,261.9 630.5,261.8 630.3,261.8 630.3,261.6 630,261.6 630,261.5 629.7,261.5 
	629.7,261.3 629.5,261.3 629.5,261.2 629.4,261.2 629.4,261 629.2,261 629.2,260.9 629,260.9 629,260.8 628.9,260.8 628.9,260.6 
	628.7,260.6 628.7,260.5 628.5,260.5 628.5,260.3 628.4,260.3 628.4,260.2 628.2,260.2 628.2,260 628.1,260 628.1,259.9 
	627.8,259.9 627.8,259.7 627.6,259.7 627.6,259.6 627.4,259.6 627.4,259.5 627.3,259.5 627.3,259.3 627.1,259.3 627.1,259.2 
	627,259.2 627,259 626.9,259 626.9,258.9 626.8,258.9 626.8,258.7 626.5,258.7 626.5,258.3 626.4,258.3 626.4,258.2 626.3,258.2 
	626.3,257.9 626.2,257.9 626.2,257.4 626.1,257.4 626.1,257.3 625.9,257.3 625.9,257.1 625.5,257.1 625.5,257.1 625.5,257.1 
	625.5,257 625.3,257 625.2,257 625.2,257 625.2,256.9 625,256.8 625,256.7 624.8,256.7 624.8,256.6 624.6,256.6 624.5,256.6 
	624.5,256.5 624.5,256.4 624.3,256.4 624.3,256.4 624.3,256.4 624.3,256.3 624,256.3 624,256.1 623.8,256.1 623.5,256.1 623.5,256 
	623.2,256 623.2,255.8 623.1,255.8 623.1,255.7 623,255.7 623,255.6 623,255.6 622.9,255.6 622.9,255.4 622.6,255.4 622.6,255.3 
	622.4,255.3 622.3,255.3 622.3,255.2 622.3,255.1 622.2,255.1 622.1,255.1 622.1,255.1 622.1,255 622,255 622,254.8 621.9,254.8 
	621.9,254.7 621.7,254.7 621.7,254.5 621.3,254.5 621.3,254.4 621,254.4 620.9,254.4 620.9,254.4 620.9,254.3 620.7,254.3 
	620.6,254.3 620.6,254.2 620.6,254.1 620.5,254.1 620.5,254 620.4,254 620.4,253.8 620.3,253.8 620.1,253.8 620.1,253.7 620,253.7 
	620,253.5 619.8,253.5 619.8,253.4 619.7,253.4 619.7,253.2 619.3,253.2 619.3,253.1 619.2,253.1 619.2,253 619,253 619,252.8 
	618.8,252.8 618.8,252.7 618.7,252.7 618.7,252.5 618.6,252.5 618.6,252.4 618.4,252.4 618.4,252.2 618.2,252.2 618.2,251.9 
	618.1,251.9 618.1,251.8 618,251.8 618,251.5 617.9,251.5 617.9,251.4 617.8,251.4 617.8,251.1 617.7,251.1 617.7,250.8 
	617.5,250.8 617.5,250.5 617.4,250.5 617.4,250.2 617.3,250.2 617.3,250.1 617.2,250.1 617.2,249.6 617.1,249.6 617.1,249.3 
	617.2,249.3 617.2,249.2 617.3,249.2 617.3,248.9 617.4,248.9 617.4,248.5 617.3,248.5 617.3,248.3 617.2,248.3 617.2,248.2 
	616.7,248.2 616.7,248 616.6,248 616.6,247.9 616.4,247.9 616.4,247.8 616,247.8 616,247.7 616,247.6 615.9,247.6 615.9,247.5 
	615.6,247.5 615.6,247.3 614.7,247.3 614.7,247.2 614.3,247.2 614.3,247.3 614,247.3 614,247 613.3,247 613.3,247.2 613.2,247.2 
	613.2,247 611.6,247 611.6,246.9 611,246.9 611,246.7 610.6,246.7 610.6,246.6 609,246.6 609,246.6 609,246.6 609,246.5 
	608.6,246.5 608,246.5 608,246.3 607.5,246.3 607.5,246.5 607.3,246.5 607.3,246.3 607,246.3 607,246.2 606.8,246.2 606.8,246 
	606.7,246 606.7,245.9 606.6,245.9 606.6,246 606.4,246 606.4,245.9 606.5,245.9 606.5,245.7 606.5,245.7 606.3,245.7 606.3,245.7 
	606.3,245.6 606.1,245.6 606.1,245.4 605.8,245.4 605.8,245.3 605.7,245.3 605.7,245.2 605.2,245.2 605.2,245 604.8,245 
	604.8,244.9 604.2,244.9 604.2,244.7 603.7,244.7 603.7,244.6 603,244.6 603,244.4 602.6,244.4 602.4,244.4 602.4,244.4 
	602.4,244.3 602.1,244.3 601.7,244.3 601.7,244.1 601.7,244.1 601,244.1 601,244 600.1,244 600.1,243.9 599.8,243.9 599.8,243.7 
	599.5,243.7 599.5,243.6 599,243.6 599,243.4 598.5,243.4 598.5,243.3 597.9,243.3 597.9,243.1 597.3,243.1 597.3,243 596.7,243 
	596.7,242.8 596.5,242.8 596.5,242.7 596,242.7 596,242.6 595.1,242.6 595.1,242.4 594.6,242.4 594.6,242.4 594.6,242.3 
	593.9,242.3 593.9,242.1 593.4,242.1 593.4,242 592.9,242 592.9,241.8 592.6,241.8 592.5,241.8 592.5,241.8 592.5,241.7 
	592.4,241.7 592.3,241.7 592.3,241.6 592.3,241.5 592.2,241.5 591.4,241.5 591.4,241.4 591,241.4 591,241.3 590.5,241.3 
	590.5,241.1 590.4,241.1 590.4,241 590,241 590,240.8 589.7,240.8 589.7,240.7 589.5,240.7 589.5,240.4 589.4,240.4 589.4,240.2 
	589.2,240.2 589.2,240.1 589.1,240.1 589.1,240 588.2,240 588.2,239.8 588,239.8 588,239.7 587.9,239.7 587.9,239.5 587.8,239.5 
	587.8,239.4 587.2,239.4 587.2,239.2 587,239.2 587,239.1 586.8,239.1 586.8,238.9 586.6,238.9 586.6,238.8 586.1,238.8 
	586.1,238.7 585.5,238.7 585.5,238.8 585.1,238.8 585.1,238.9 584.5,238.9 584.5,238.8 584,238.8 584,238.9 583.6,238.9 
	583.6,238.8 583.2,238.8 583.2,238.7 583,238.7 583,238.5 582.6,238.5 582.6,238.4 582,238.4 582,238.2 581.7,238.2 581.7,238.1 
	581.6,238.1 581.6,238.2 581.4,238.2 581.4,238.1 580.4,238.1 580.3,238.1 580.3,237.9 580,237.9 580,237.8 579.6,237.8 
	579.6,237.6 579.2,237.6 579.2,237.5 579.1,237.5 579.1,237.4 578.9,237.4 578.9,237.2 578.6,237.2 578.6,237.1 578.3,237.1 
	578.3,237.2 578.1,237.2 578.1,237.1 577.9,237.1 577.9,236.9 577.7,236.9 577.7,236.8 577.5,236.8 577.5,236.6 576.7,236.6 
	576.7,236.5 574.4,236.5 574.4,236.3 574.3,236.3 574.3,236.2 574,236.2 574,236.1 573.9,236.1 573.9,235.9 573.8,235.9 
	573.8,235.8 573.4,235.8 573.4,235.6 573.1,235.6 573.1,235.5 573,235.5 573,235.3 572.9,235.3 572.9,235.2 572.3,235.2 572.3,235 
	572.2,235 572.2,234.9 571,234.9 571,234.8 570.6,234.8 570.6,234.6 570.4,234.6 570.4,234.5 570.2,234.5 570.2,234.3 569.7,234.3 
	569.7,234.2 569.4,234.2 569.1,234.2 569.1,234 569.1,234 568.7,234 568.7,233.9 568.5,233.9 568.5,233.7 568.3,233.7 568.3,233.6 
	568,233.6 568,233.5 567.7,233.5 567.7,233.3 567.6,233.3 567.6,233.2 567.4,233.2 567.4,233 567,233 567,232.9 566.6,232.9 
	566.6,232.7 566.3,232.7 566.3,232.6 566,232.6 566,232.4 565.8,232.4 565.8,232.3 565.6,232.3 565.6,232.2 564.8,232.2 564.8,232 
	564.6,232 564.6,231.9 564.5,231.9 564.5,231.7 564.4,231.7 564.4,231.6 564.3,231.6 564.3,231.4 564.1,231.4 564.1,231.6 
	563.8,231.6 563.8,231.4 563.6,231.4 563.6,231.3 563.4,231.3 563.4,231.1 562.9,231.1 562.7,231.1 562.7,231 562.3,231 
	562.3,230.9 562.1,230.9 562.1,230.7 561.9,230.7 561.9,230.6 561.7,230.6 561.7,230.4 561.5,230.4 561.5,230.3 561.4,230.3 
	561.4,230.1 561.3,230.1 561.3,230 561.2,230 561.2,229.8 561.1,229.8 561.1,229.7 561,229.7 561,229.6 560.9,229.6 560.9,229.4 
	560.8,229.4 560.8,229.3 560.7,229.3 560.7,229.1 560.6,229.1 560.6,229 560.5,229 560.5,228.8 560.4,228.8 560.4,228.7 
	560.2,228.7 560.2,228.5 560,228.5 560,228.4 559.9,228.4 559.9,228.3 559.8,228.3 559.8,228.1 559.7,228.1 559.7,228 559.5,228 
	559.5,227.8 559.3,227.8 559.3,227.7 559.1,227.7 559.1,227.5 558.8,227.5 558.8,227.4 558.7,227.4 558.7,227.2 558.3,227.2 
	558.3,227.1 558.2,227.1 558.2,227 558,227 558,226.8 557.9,226.8 557.9,226.5 557.8,226.5 557.8,225.9 557.6,225.9 557.6,225.8 
	557.5,225.8 557.5,225.7 557.4,225.7 557.4,225.5 557.3,225.5 557.3,225.4 557.2,225.4 557.2,225.2 557,225.2 557,225.1 
	556.8,225.1 556.8,224.9 556.7,224.9 556.7,224.2 556.6,224.2 556.6,223.3 556.5,223.3 556.5,223.2 556.6,223.2 556.6,223.1 
	556.5,223.1 556.5,222 556.6,222 556.6,221.8 556.7,221.8 556.7,221.5 556.8,221.5 556.8,221.3 556.9,221.3 556.9,221.2 557,221.2 
	557,221 557.1,221 557.1,221 557.1,220.9 557.2,220.9 557.2,220.7 557.3,220.7 557.3,220.5 557.4,220.5 557.4,220.3 557.5,220.3 
	557.5,220.2 557.6,220.2 557.6,220 557.8,220 557.8,219.6 557.6,219.6 557.6,219.4 557.5,219.4 557.5,219.3 557.4,219.3 
	557.4,219.2 557.3,219.2 557.3,219 557,219 557,218.9 556.7,218.9 556.7,218.7 556.2,218.7 556.2,218.6 556,218.6 556,218.4 
	555.9,218.4 555.9,218.3 555.8,218.3 555.8,218.1 555.4,218.1 555.4,218 554.8,218 554.8,217.9 554.5,217.9 554.5,217.7 
	554.2,217.7 554.2,217.6 553.9,217.6 553.9,217.6 553.9,217.5 553.9,217.4 553.8,217.4 553.6,217.4 553.6,217.3 553.5,217.3 
	553.5,217.1 553.5,217.1 553.3,217.1 553.3,217 552.9,217 552.9,216.8 552.7,216.8 552.7,216.7 552.6,216.7 552.6,216.6 
	552.3,216.6 552.3,216.4 552.2,216.4 552.2,216.3 552,216.3 552,216.1 551.7,216.1 551.7,216 551.4,216 551.4,215.8 551,215.8 
	551,215.7 550.8,215.7 550.8,215.5 550.7,215.5 550.7,215.4 550.4,215.4 550.4,215.3 550.2,215.3 550.2,215.1 550,215.1 550,215 
	549.5,215 549.5,214.8 549.3,214.8 549.3,214.7 549.2,214.7 549.2,214.5 549.1,214.5 549.1,214.4 549,214.4 549,214.2 548.9,214.2 
	548.9,214.1 548.8,214.1 548.8,214 548.4,214 548.4,213.8 548.1,213.8 548.1,213.5 547.9,213.5 547.9,213.4 547.8,213.4 
	547.8,213.3 547.8,213.2 547.7,213.2 547.7,213.1 547.6,213.1 547.6,212.9 547.5,212.9 547.5,212.8 547.2,212.8 547.2,212.7 
	547.1,212.7 547.1,212.5 547,212.5 547,212.4 546.8,212.4 546.8,212.2 546.5,212.2 546.5,212.1 545.9,212.1 545.9,211.9 
	545.6,211.9 545.6,211.8 545.3,211.8 545.3,211.6 545.2,211.6 545.2,211.5 545,211.5 545,211.4 544.2,211.4 544.2,211.2 544,211.2 
	544,211.1 543.9,211.1 543.9,210.9 543.7,210.9 543.7,210.8 543.3,210.8 543.3,210.6 543.2,210.6 543.2,210.5 543.1,210.5 
	543.1,210.3 542.9,210.3 542.9,210.2 542.7,210.2 542.7,210.1 542.6,210.1 542.6,209.9 542.4,209.9 542.4,209.8 542.2,209.8 
	542.2,209.6 542,209.6 542,209.5 541.8,209.5 541.8,209.3 541.7,209.3 541.7,209.2 541.4,209.2 541.4,209 541.2,209 541.2,208.9 
	541,208.9 541,208.8 540.9,208.8 540.9,208.6 540.4,208.6 540.4,208.5 540.3,208.5 540.3,208.3 540.1,208.3 540.1,208.2 540,208.2 
	540,208 539.8,208 539.8,207.9 539.7,207.9 539.7,207.7 539.3,207.7 539.3,207.6 539.1,207.6 539.1,207.5 539,207.5 539,207.3 
	538.9,207.3 538.9,207.2 538.8,207.2 538.8,207 538.6,207 538.6,206.9 538.3,206.9 538.3,206.7 538,206.7 538,206.4 537.8,206.4 
	537.8,206.3 537.6,206.3 537.6,206.2 537.5,206.2 537.4,206.2 537.4,206.1 537.4,206 537.3,206 537.3,206 537.3,206 537.3,205.9 
	537.2,205.9 537.2,205.9 537.2,205.8 537.2,205.7 537.1,205.7 537.1,205.6 537,205.6 537,205.4 536.8,205.4 536.8,205.3 
	536.7,205.3 536.6,205.3 536.6,205.3 536.6,205.1 536.5,205.1 536.5,205 536.4,205 536.3,205 536.3,204.9 536.3,204.9 536.3,204.9 
	536.2,204.9 536.2,204.8 536.2,204.7 536.1,204.7 536,204.7 536,204.6 535.8,204.6 535.8,204.4 535.7,204.4 535.7,204.3 
	535.5,204.3 535.5,204 535.3,204 535.3,203.8 535.2,203.8 535.2,203.6 535.2,203.4 535.1,203.4 535.1,203.1 535.2,203.1 535.2,203 
	535.1,203 535.1,202.8 535.2,202.8 535.2,202.6 535.1,202.6 535.1,202 534.8,202 534.8,201.8 534.7,201.8 534.7,201.7 534.6,201.7 
	534.6,201.5 534.5,201.5 534.5,201.4 534.2,201.4 534.2,201.2 534.1,201.2 534.1,201.1 534,201.1 534,201 533.9,201 533.9,200.8 
	533.8,200.8 533.8,200.7 533.7,200.7 533.7,200.5 533.6,200.5 533.6,200.4 533.5,200.4 533.5,200.2 533.4,200.2 533.4,200.1 
	533.3,200.1 533.3,199.7 533.2,199.7 533.2,198.8 533.3,198.8 533.3,198.2 533.2,198.2 533.2,198.1 533.1,198.1 533.1,197.9 
	532.9,197.9 532.9,197.6 532.8,197.6 532.8,197.3 532.9,197.3 532.9,197.1 532.8,197.1 532.8,196.5 532.7,196.5 532.7,196.2 
	532.6,196.2 532.6,196.1 532.5,196.1 532.5,195.9 532.4,195.9 532.4,195.8 532.1,195.8 532.1,195.6 531.9,195.6 531.9,195.5 
	531.8,195.5 531.8,195.2 531.6,195.2 531.6,195 531.5,195 531.5,194.9 531.4,194.9 531.4,194.7 531.3,194.7 531.3,194.6 
	531.2,194.6 531.2,194.5 531.1,194.5 531.1,194.3 531,194.3 531,193.9 530.9,193.9 530.9,193.6 530.8,193.6 530.8,193.5 
	530.7,193.5 530.7,193.2 530.8,193.2 530.8,192.6 530.7,192.6 530.7,192.4 530.6,192.4 530.6,192.3 530.3,192.3 530.3,192.2 
	530.1,192.2 530.1,192 530,192 530,191.6 529.9,191.6 529.9,191.4 529.8,191.4 529.8,191.3 529.7,191.3 529.7,191.1 529.6,191.1 
	529.6,191 529.5,191 529.5,189.8 529.6,189.8 529.6,189.3 529.5,189.3 529.5,188.8 529.7,188.8 529.7,188.3 529.8,188.3 
	529.8,188.1 529.9,188.1 529.9,187.7 530,187.7 530,187.2 530.1,187.2 530.1,187.1 530.2,187.1 530.2,187 530.8,187 530.8,186.8 
	531,186.8 531,186.7 532,186.7 532,186.8 532.4,186.8 532.4,187 532.6,187 532.6,187.1 532.7,187.1 532.7,187.2 532.8,187.2 
	532.8,187.4 533.1,187.4 533.1,187.2 532.9,187.2 532.9,187 532.8,187 532.8,186.2 534.2,186.2 534.2,186.4 534.4,186.4 
	534.4,186.7 534.2,186.7 534.2,186.8 534.1,186.8 534.1,187 534.4,187 534.4,187.1 534.7,187.1 534.7,187 534.8,187 534.8,186.8 
	534.9,186.8 534.9,186.5 535,186.5 535,185.7 534.9,185.7 534.9,185.5 534.7,185.5 534.7,185.4 534.4,185.4 534.4,185.2 
	534.1,185.2 534.1,185.1 533.9,185.1 533.9,184.9 533.8,184.9 533.8,184.8 533.6,184.8 533.6,184.6 533.5,184.6 533.5,184.4 
	533.4,184.4 533.4,184.2 533.3,184.2 533.3,184.1 533.1,184.1 533.1,183.9 532.9,183.9 532.9,183.8 532.8,183.8 532.8,183.6 
	532.6,183.6 532.6,183.5 532.5,183.5 532.5,183.3 532.3,183.3 532.3,183.2 532.2,183.2 532.2,183.1 532.1,183.1 532.1,182.9 
	532,182.9 532,182.8 531.9,182.8 531.9,182.6 531.8,182.6 531.7,182.3 531.6,182.3 531.6,182.3 531.6,182.2 531.5,182.2 531.5,182 
	531.4,182 531.4,181.9 531.2,181.9 531.2,181.8 531,181.8 530.9,181.8 530.9,181.7 530.9,181.6 530.8,181.6 530.5,181.6 
	530.5,181.5 530.2,181.5 530.2,181.3 530.1,181.3 530.1,181.2 529.7,181.2 529.7,181 529.6,181 529.6,180.9 529.5,180.9 
	529.5,180.7 529.3,180.7 529.3,180.6 529,180.6 529,180.5 528.8,180.5 528.8,180.3 528.7,180.3 528.7,180.2 528.4,180.2 528.4,180 
	528.2,180 528.2,179.9 528.1,179.9 528.1,179.7 528,179.7 528,179.6 527.7,179.6 527.7,179.4 527.6,179.4 527.6,179.3 527.6,179.3 
	527.4,179.3 527.4,179.2 527.4,179.2 527.1,179.2 527.1,179 526.5,179 526.5,178.9 526.2,178.9 526.2,178.7 525.7,178.7 
	525.7,178.6 525.4,178.6 525.4,178.4 524.5,178.4 524.5,178.6 524.2,178.6 524.2,178.4 524.1,178.4 524.1,178.3 524,178.3 
	524,178.1 523.8,178.1 523.8,178 523.6,178 523.6,177.9 523.4,177.9 523.4,177.7 523.2,177.7 523.2,177.6 523,177.6 523,177.4 
	522.9,177.4 522.9,177.3 522.8,177.3 522.8,177.1 522.5,177.1 522.5,177 522.2,177 522.2,176.8 522,176.8 522,176.7 521.8,176.7 
	521.8,176.6 521.7,176.6 521.7,176.4 521.6,176.4 521.6,175.7 521.5,175.7 521.5,175.3 521.2,175.3 521.2,175.1 521,175.1 
	521,175.3 520.9,175.3 520.9,175.1 520.6,175.1 520.6,175 520.5,175 520.5,174.8 520.4,174.8 520.4,174.7 520.3,174.7 520.3,174.5 
	520.1,174.5 520.1,174.4 519.8,174.4 519.8,174.2 519.7,174.2 519.7,174 519.6,174 519.6,173.8 519.5,173.8 519.5,173.7 
	519.3,173.7 519.3,173.5 519.2,173.5 519.2,173.4 519,173.4 519,173.2 518.9,173.2 518.9,173.1 518.8,173.1 518.8,172.9 
	518.7,172.9 518.7,172.8 518.5,172.8 518.5,172.7 518.3,172.7 518.3,172.5 518.2,172.5 518.2,172.4 518.1,172.4 518.1,172.2 
	517.9,172.2 517.9,172.1 517.8,172.1 517.8,171.8 517.6,171.8 517.6,171.6 517.5,171.6 517.5,171.5 517.4,171.5 517.4,171.4 
	517.2,171.4 517.2,171.2 517.1,171.2 517.1,171.1 517,171.1 517,170.9 516.8,170.9 516.8,170.8 516.7,170.8 516.7,170.6 
	516.6,170.6 516.6,170.5 516.5,170.5 516.5,170.2 516.4,170.2 516.4,169.8 516.5,169.8 516.5,169.5 516.6,169.5 516.6,168.8 
	516.5,168.8 516.5,168.6 516.4,168.6 516.4,168.5 516.3,168.5 516.3,168.2 516.2,168.2 516.2,167.5 516.1,167.5 516.1,167.2 
	516.1,166.9 515.9,166.9 515.9,166.6 515.8,166.6 515.8,166.4 515.7,166.4 515.7,166.2 515.6,166.2 515.6,165.9 515.5,165.9 
	515.5,165.7 515.3,165.7 515.3,165.6 515.1,165.6 515.1,165.4 514.8,165.4 513.8,165.4 513.8,165.4 513.8,165.3 513.7,165.3 
	513.7,165.3 513.7,165.4 513.3,165.4 513.3,165.6 512.8,165.6 512.8,165.4 512.7,165.4 512.7,165.3 512.6,165.3 512.6,165.1 
	512.4,165.1 512.4,165 512.2,165 512.2,164.9 512,164.9 512,164.7 511.9,164.7 511.9,164.6 511.8,164.6 511.8,164.4 511.7,164.4 
	511.7,164.3 511.5,164.3 511.5,164.1 511.4,164.1 511.4,164 511.3,164 511.3,163.8 511.1,163.8 511.1,163.7 511,163.7 511,163.6 
	510.9,163.6 510.9,163.4 510.7,163.4 510.7,163.3 510.5,163.3 510.5,163.1 510.3,163.1 510.3,163 510.2,163 510.2,162.8 510,162.8 
	510,162.7 509.9,162.7 509.9,162.5 509.8,162.5 509.8,162.4 509.7,162.4 509.7,162.3 509.6,162.3 509.6,162.1 509.4,162.1 
	509.4,162 509.3,162 509.3,161.8 509.3,161.8 509.1,161.8 509.1,161.7 509.1,161.7 509,161.7 509,161.6 509,161.5 508.9,161.5 
	508.9,161.4 508.8,161.4 508.8,161.2 508.6,161.2 508.6,161.1 508.4,161.1 508.4,161 508.3,161 508.3,160.8 508.1,160.8 
	508.1,160.7 507.9,160.7 507.9,160.5 507.8,160.5 507.8,160.4 507.7,160.4 507.7,160.1 507.5,160.1 507.5,159.9 507.4,159.9 
	507.4,159.8 507.3,159.8 507.3,159.7 507.1,159.7 507.1,159.5 506.9,159.5 506.8,159.5 506.8,159.4 506.8,159.4 506.6,159.4 
	506.6,159.2 506.5,159.2 506.5,159.1 506.4,159.1 506.4,158.9 506.3,158.9 506.3,158.8 506.2,158.8 506.2,158.6 506.1,158.6 
	506.1,158.4 506,158.4 506,158.2 505.9,158.2 505.9,158.1 505.8,158.1 505.8,157.9 505.7,157.9 505.7,157.8 505.5,157.8 
	505.5,157.6 505.4,157.6 505.4,157.5 505.3,157.5 505.3,157.3 505.2,157.3 505.2,157.2 505.1,157.2 505.1,156.9 505,156.9 
	505,156.8 504.9,156.8 504.9,156.6 504.8,156.6 504.8,156.5 504.7,156.5 504.7,156.3 504.6,156.3 504.6,156 504.5,156 504.5,155.8 
	504.4,155.8 504.4,155.6 504.2,155.6 504.2,155.3 504.1,155.3 504.1,155 504,155 504,154.9 503.9,154.9 503.9,154.7 503.8,154.7 
	503.8,154.5 503.7,154.5 503.7,154.3 503.6,154.3 503.6,154 503.5,154 503.5,153.7 503.4,153.7 503.4,152.8 503.4,152.4 
	503.5,152.4 503.5,152.3 503.6,152.3 503.6,152.1 503.8,152.1 503.8,152 504,152 504,151.6 504.1,151.6 504.1,151.4 504,151.4 
	504,151.1 504.1,151.1 504.1,150.7 504,150.7 504,150.4 503.9,150.4 503.9,150.1 503.8,150.1 503.8,149.7 503.7,149.7 503.7,149.5 
	503.6,149.5 503.6,149.3 503.7,149.3 503.7,148.8 503.8,148.8 503.8,148.7 503.7,148.7 503.7,148.4 503.6,148.4 503.6,147.5 
	503.5,147.5 503.5,147.1 503.4,147.1 503.4,146.7 503.3,146.7 503.3,146.1 503.2,146.1 503.2,145.9 503.1,145.9 503.1,145.8 
	503.1,145.6 502.8,145.6 502.8,145.4 502.7,145.4 502.7,145.2 502.5,145.2 502.5,145.1 502.3,145.1 502.3,145.1 502.3,144.9 
	502,144.9 502,144.8 501.6,144.8 501.6,144.6 501.3,144.6 501.3,144.5 501.1,144.5 501.1,144.3 500.8,144.3 500.8,144.2 
	500.5,144.2 500.5,144.2 500.5,144.1 500.5,144.1 500.3,144 500.3,143.9 500.2,143.9 500.1,143.9 500.1,143.9 500.1,143.8 
	500,143.8 500,143.6 499.9,143.6 499.9,143.5 499.8,143.5 499.8,143.3 499.6,143.3 499.6,143.2 499.5,143.2 499.5,143 499.4,143 
	499.4,142.9 499.2,142.9 499.2,142.8 499,142.8 499,142.6 498.9,142.6 498.9,142.5 498.8,142.5 498.8,142.3 498.7,142.3 
	498.7,142.2 498.5,142.2 498.5,142 498.4,142 498.4,141.9 498.3,141.9 498.3,141.7 498.1,141.7 498.1,141.6 498,141.6 498,141.5 
	497.9,141.5 497.9,141.3 497.7,141.3 497.7,141.2 497.5,141.2 497.5,141 497.4,141 497.4,140.9 497.3,140.9 497.3,140.7 
	497.2,140.7 497.2,140.6 497,140.6 497,140.4 496.9,140.4 496.9,140.3 496.8,140.3 496.8,140.2 496.7,140.2 496.7,140 496.4,140 
	496.4,139.9 496.3,139.9 496.3,139.7 496.2,139.7 496.2,139.4 496,139.4 496,139.1 495.8,139.1 495.8,138.7 495.7,138.7 
	495.7,138.6 495.6,138.6 495.6,138.3 495.4,138.3 495.4,138.1 495.3,138.1 495.3,137.8 495.1,137.8 495.1,137.7 495,137.7 
	495,137.3 494.9,137.3 494.9,136.5 494.8,136.5 494.8,136.4 494.6,136.4 494.6,136 494.7,136 494.7,135.2 494.6,135.2 494.6,135 
	494.5,135 494.5,134.8 494.4,134.8 494.4,134.5 494.3,134.5 494.3,134.4 494.2,134.4 494.2,134.2 494.1,134.2 494.1,133.9 
	494,133.9 494,133.7 493.7,133.7 493.7,133.5 493.6,133.5 493.6,133.1 493.5,133.1 493.5,132.9 493.4,132.9 493.4,132.8 
	493.3,132.8 493.3,132.6 493.2,132.6 493.2,132.5 493.1,132.5 493.1,132.2 493,132.2 493,132.1 492.9,132.1 492.9,131.9 
	492.8,131.9 492.8,131.6 492.7,131.6 492.7,131.5 492.5,131.5 492.5,131.3 492.4,131.3 492.4,131.1 492.3,131.1 492.3,130.8 
	492.2,130.8 492.2,130.5 492.1,130.5 492.1,130 492,130 492,129.9 491.9,129.9 491.9,129.8 491.8,129.8 491.8,129.5 491.7,129.5 
	491.7,129.3 491.6,129.3 491.6,129.2 491.5,129.2 491.5,128.9 491.4,128.9 491.4,128.6 491.2,128.6 491.2,128.3 491.1,128.3 
	491.1,128 491,128 491,127.9 490.9,127.9 490.9,127.6 490.8,127.6 490.8,127.3 490.7,127.3 490.7,127 490.6,127 490.6,126.7 
	490.5,126.7 490.5,126.4 490.4,126.4 490.4,126.3 490.3,126.3 490.3,126 490.2,126 490.2,125.7 490.1,125.7 490.1,125.4 
	489.9,125.4 489.9,125.1 489.8,125.1 489.8,125 489.7,125 489.7,124.7 489.6,124.7 489.6,124.4 489.5,124.4 489.5,124.1 
	489.4,124.1 489.4,123.8 489.3,123.8 489.3,123.5 489.2,123.5 489.2,121.5 489.1,121.5 489.1,120.9 489,120.9 489,120.4 
	488.9,120.4 488.9,119.8 488.8,119.8 488.8,119.1 488.9,119.1 488.9,118.5 489,118.5 489,118.1 489.1,118.1 489.1,117.9 
	489.2,117.9 489.2,117.8 489.3,117.8 489.3,117.6 489.6,117.6 489.6,117.9 489.8,117.9 489.8,117.8 490.1,117.8 490.1,117.5 
	490.2,117.5 490.2,117.3 490.3,117.3 490.3,117.2 490.4,117.2 490.4,116.9 490.5,116.9 490.5,116 490.6,116 490.6,115.9 
	490.5,115.9 490.5,115.7 490.4,115.7 490.4,115 490.3,115 490.3,114.7 490.4,114.7 490.4,114.3 490.3,114.3 490.3,113 490.2,113 
	490.2,111.6 490.4,111.6 490.4,111.4 490.9,111.4 490.9,111.3 491,111.3 491,110.4 490.9,110.4 490.9,110 491,110 491,109.8 
	490.9,109.8 490.9,109.4 490.8,109.4 490.8,109.1 490.7,109.1 490.7,107.8 490.8,107.8 490.8,107.7 490.7,107.7 490.7,107.4 
	490.8,107.4 490.8,107.1 490.9,107.1 490.9,106.7 491,106.7 491,106.4 491.1,106.4 491.1,105.9 491.2,105.9 491.2,102.9 
	491.1,102.9 491.1,102.5 491.2,102.5 491.2,102 491.1,102 491.1,101.9 491.2,101.9 491.2,101.4 491.4,101.4 491.4,101.3 
	491.2,101.3 491.2,101.2 491.4,101.2 491.4,100.7 491.5,100.7 491.5,100.4 491.6,100.4 491.6,100 491.7,100 491.7,99.7 491.8,99.7 
	491.8,99.4 491.9,99.4 491.9,99.3 492,99.3 492,99.1 492.1,99.1 492.1,98.8 492.2,98.8 492.2,98.7 492.3,98.7 492.3,97.8 
	492.4,97.8 492.4,97.7 492.5,97.7 492.5,97.6 492.8,97.6 492.8,97.4 493.1,97.4 493.1,97.3 493.2,97.3 493.2,97.1 493.3,97.1 
	493.3,96.8 493.4,96.8 493.4,96.7 494,96.7 494,96.5 494.3,96.5 494.3,96.4 494.4,96.4 494.4,96.3 494.6,96.3 494.6,96.1 
	494.7,96.1 494.7,96 494.8,96 494.8,96.1 494.9,96.1 494.9,96 495.1,96 495.1,95.8 495.3,95.8 495.3,95.7 495.4,95.7 495.4,95.5 
	495.5,95.5 495.5,94.7 495.6,94.7 495.6,94.4 495.7,94.4 495.7,94.2 495.8,94.2 495.8,94.1 495.7,94.1 495.7,93.8 495.9,93.8 
	495.9,93.5 496,93.5 496,92.8 496.1,92.8 496.1,92.2 496.2,92.2 496.2,91.6 496.1,91.6 496.1,91.5 496.2,91.5 496.2,91.3 
	496.1,91.3 496.1,90.2 496.2,90.2 496.2,89.9 496.3,89.9 496.3,89.6 496.4,89.6 496.4,87.9 496.6,87.9 496.6,87.6 496.7,87.6 
	496.7,86.6 496.8,86.6 496.8,86.3 496.9,86.3 496.9,86.1 497,86.1 497,86 497.1,86 497.1,85.6 497.2,85.6 497.2,85.1 497.3,85.1 
	497.3,84.8 497.4,84.8 497.4,84.7 497.5,84.7 497.5,84.4 497.6,84.4 497.6,84.1 497.7,84.1 497.7,83.7 497.9,83.7 497.9,83 
	497.9,82.8 498,82.8 498,82.5 498.1,82.5 498.1,82 498.2,82 498.2,81.8 498.3,81.8 498.3,81.7 498.2,81.7 498.2,81.5 498.3,81.5 
	498.3,81.4 498.4,81.4 498.4,81.2 498.6,81.2 498.6,81.1 498.7,81.1 498.7,80.9 498.9,80.9 498.9,80.8 499,80.8 499,80.4 
	499.2,80.4 499.2,80.2 499.3,80.2 499.3,80.1 499.4,80.1 499.4,79.9 499.5,79.9 499.5,79.8 499.6,79.8 499.6,79.5 499.5,79.5 
	499.5,79.2 499.6,79.2 499.6,79.1 499.8,79.1 499.8,78.8 499.9,78.8 499.9,78.6 500,78.6 500,78.2 500.2,78.2 500.2,78.1 
	500.3,78.1 500.3,77.9 500.6,77.9 500.6,77.6 500.7,77.6 500.7,77.5 500.8,77.5 500.8,77.3 500.9,77.3 500.9,77 501,77 501,76.8 
	501.1,76.8 501.1,76.6 501.2,76.6 501.2,76.3 501.3,76.3 501.3,76.2 501.4,76.2 501.4,76 501.5,76 501.5,75.9 502,75.9 502,75.7 
	502.1,75.7 502.1,75.6 502.3,75.6 502.3,75.5 502.5,75.5 502.5,75.3 502.6,75.3 502.6,75.2 502.7,75.2 502.7,75 503.1,75 
	503.1,75.2 503.3,75.2 503.3,75.3 503.4,75.3 503.4,75 503.6,75 503.6,74.9 503.9,74.9 503.9,74.7 504.1,74.7 504.1,74.4 
	504.2,74.4 504.2,74.3 504.4,74.3 504.4,74.2 504.8,74.2 504.8,74 505,74 505,74.2 505.5,74.2 505.5,74.3 505.7,74.3 505.7,74.4 
	506.1,74.4 506.1,74.3 506.2,74.3 506.2,74.2 506.7,74.2 506.7,73.7 506.8,73.7 506.8,73.6 507,73.6 507,73.3 507.1,73.3 
	507.1,73.1 507.2,73.1 507.2,72.9 507.3,72.9 507.3,72.7 507.4,72.7 507.4,72.6 507.5,72.6 507.5,72.4 507.6,72.4 507.6,72.1 
	507.7,72.1 507.7,72 507.9,72 507.9,71.8 508,71.8 508,71.7 508.1,71.7 508.1,71.6 508.3,71.6 508.3,71.4 508.4,71.4 508.4,71.3 
	508.6,71.3 508.6,71.1 508.7,71.1 508.7,71 508.8,71 508.8,70.8 509,70.8 509,70.7 509.7,70.7 509.7,70.8 510.9,70.8 510.9,70.7 
	511.1,70.7 511.1,70.5 512,70.5 512,70.7 512.6,70.7 512.6,70.8 513.3,70.8 513.3,71 513.7,71 513.7,71.1 513.8,71.1 513.8,71.4 
	513.9,71.4 513.9,71.6 514.3,71.6 514.3,71.7 514.4,71.7 514.4,71.8 514.6,71.8 514.6,72 515.1,72 515.1,72.1 515.4,72.1 
	515.4,72.3 515.6,72.3 515.6,72.4 515.7,72.4 515.7,72.3 515.9,72.3 515.9,72.4 516.3,72.4 516.3,72.6 516.7,72.6 516.7,72.7 
	516.8,72.7 516.8,72.9 517,72.9 517,73 517.2,73 517.2,73.1 517.4,73.1 517.4,73.3 518.1,73.3 518.7,73.3 518.7,73.4 518.9,73.4 
	518.9,73.6 519.2,73.6 519.2,73.7 519.5,73.7 519.5,73.9 520.5,73.9 520.5,73.7 520.7,73.7 520.7,73.9 521.4,73.9 521.4,74 522,74 
	522,74.2 522.4,74.2 522.4,74 522.5,74 522.5,74.2 522.8,74.2 522.8,74.3 522.9,74.3 522.9,74.7 524.1,74.7 524.1,75 524.3,75 
	524.3,74.9 525,74.9 525,74.7 525.3,74.7 525.3,74.6 525.8,74.6 525.8,74.7 525.9,74.7 525.9,74.9 526.7,74.9 526.7,75 527,75 
	527,75.2 527.3,75.2 527.3,75.3 528,75.3 528,75.2 528.4,75.2 528.4,75.3 528.5,75.3 528.5,75.2 528.8,75.2 528.8,75 528.9,75 
	528.9,74.9 529.2,74.9 529.2,74.7 529.4,74.7 529.4,74.6 529.5,74.6 529.5,74.4 530.3,74.4 530.3,74.6 530.6,74.6 530.6,74.7 
	531.5,74.7 531.5,74.9 531.9,74.9 531.9,75 532.3,75 532.3,75.2 532.4,75.2 532.4,75.3 532.5,75.3 532.5,75.9 532.7,75.9 532.7,76 
	533.1,76 533.1,76.2 533.3,76.2 533.3,76.3 533.5,76.3 533.5,76.5 534.1,76.5 534.1,76.3 534.6,76.3 534.6,76.2 534.7,76.2 
	534.7,76 534.8,76 534.8,75.9 534.9,75.9 534.9,75.7 535,75.7 535,75.6 535.1,75.6 535.1,75.5 535.3,75.5 535.3,75.3 535.4,75.3 
	535.4,75 535.5,75 535.5,74.9 535.7,74.9 535.7,74.7 535.8,74.7 535.8,74.6 536,74.6 536,74.4 536.1,74.4 536.1,74.3 536.2,74.3 
	536.2,74.2 536.3,74.2 536.3,74 536.4,74 536.4,73.9 536.5,73.9 536.5,73.3 536.4,73.3 536.4,73 536.3,73 536.3,72.7 536.2,72.7 
	536.2,72.6 536.1,72.6 536.1,72.5 536.1,72.4 536,72.4 536,72.3 535.9,72.3 535.9,72.1 535.4,72.1 535.4,72 535.2,72 535.2,71.8 
	535,71.8 535,71.7 534.8,71.7 534.8,71.6 534.6,71.6 534.6,71.3 534.4,71.3 534.4,71.1 534.2,71.1 534.2,71 534.1,71 534.1,70.7 
	534,70.7 534,70.4 533.9,70.4 533.9,70.3 533.7,70.3 533.7,70.1 533.6,70.1 533.6,69.4 533.5,69.4 533.5,69.2 533.4,69.2 
	533.4,69.1 533.1,69.1 533.1,69 532.6,69 532.6,68.8 532.5,68.8 532.5,68.7 532.4,68.7 532.4,68.2 532.2,68.2 532.2,67.9 
	532.1,67.9 532.1,67.5 531.9,67.5 531.9,67.2 531.8,67.2 531.8,67.1 531.6,67.1 531.6,66.9 531.5,66.9 531.5,66.5 531.4,66.5 
	531.4,66.4 531.3,66.4 531.3,66.2 531.2,66.2 531.2,66.1 531.1,66.1 531.1,65.9 531,65.9 531,65.2 530.9,65.2 530.9,65.1 
	530.5,65.1 530.5,65.3 530.2,65.3 530,65.3 530,65.1 530,65.1 529.9,65.1 529.6,65.1 529.6,64.8 529.6,64.8 529.5,64.8 529.3,64.8 
	529.3,64.6 529.3,64.5 529.2,64.5 529.2,63.9 529.3,63.9 529.3,63.8 529.4,63.8 529.4,63 529.5,63 529.5,62.9 529.6,62.9 
	529.6,62.3 529.5,62.3 529.5,62.2 529.4,62.2 529.4,62 528.8,62 528.8,61.9 528.4,61.9 528.4,61.7 528.3,61.7 528.3,61.6 
	528.2,61.6 528.2,61.4 528.1,61.4 528.1,61.3 528,61.3 528,61.2 527.4,61.2 527.4,61.3 527.2,61.3 527.2,61.4 527,61.4 527,61.7 
	526.6,61.7 526.6,61.4 526.1,61.4 526.1,61.6 525.5,61.6 525.5,61.4 525.4,61.4 525.4,61.3 524.9,61.3 524.9,61.2 524.4,61.2 
	524.4,61.3 524,61.3 524,61.6 523.7,61.6 523.7,61.3 523.5,61.3 523.5,61.2 523,61.2 523,61.3 522.9,61.3 522.9,61.4 522.8,61.4 
	522.8,61.6 522.4,61.6 522.4,61.9 522.3,61.9 522.3,62 522.1,62 522.1,61.7 521.8,61.7 521.8,61.6 521.6,61.6 521.6,61.4 521,61.4 
	521,61.6 520.9,61.6 520.9,61.4 520.6,61.4 520.6,61.6 520.4,61.6 520.4,61.9 520.3,61.9 520.3,62.3 520,62.3 520,62.5 519.5,62.5 
	519.5,62.3 518.8,62.3 518.8,62.5 518.7,62.5 518.7,62.6 518.5,62.6 518.5,62.7 518.3,62.7 518.3,62.9 518.2,62.9 518.2,63 518,63 
	518,63.2 517.9,63.2 517.9,63.3 517.6,63.3 517.6,63.2 517.5,63.2 517.5,63 517.4,63 517.4,62.9 517.2,62.9 517.2,63 517.1,63 
	517.1,63.3 517,63.3 517,63.8 516.9,63.8 516.9,64 516.8,64 516.8,64.1 516.8,64.3 516.7,64.3 516.7,64.5 516.5,64.5 516.5,64.6 
	516.4,64.6 516.4,64.8 516.3,64.8 516.3,65.1 516.2,65.1 516.2,65.2 516.1,65.2 516.1,65.3 515.9,65.3 515.9,65.9 515.7,65.9 
	515.7,66.1 515.2,66.1 515.2,65.9 515,65.9 515,66.1 514.8,66.1 514.8,66.6 514.3,66.6 514.3,66.8 514.1,66.8 514.1,66.9 
	513.6,66.9 513.6,66.8 512.9,66.8 512.9,66.9 512.7,66.9 512.5,66.9 512.5,67.1 512.4,67.1 512.4,67.2 512.4,67.2 512.3,67.2 
	512.3,67.2 511.8,67.2 511.8,67.4 511.5,67.4 511.5,67.5 511.3,67.5 511.3,67.7 511.2,67.7 511.2,67.8 511.1,67.8 511.1,67.9 
	511,67.9 511,68.1 511,68.2 510.9,68.2 510.9,68.4 510.7,68.4 510.7,68.5 510.5,68.5 510.5,68.7 510.4,68.7 510.4,68.8 510,68.8 
	509.9,68.8 509.9,68.9 509.9,69 509.8,69 509.7,69 509.7,69 509.7,69.1 509.5,69.1 509,69.1 509,69 508.7,69 508.7,69.2 508.6,69.2 
	508.6,69.4 508.5,69.4 508.5,69.5 508.3,69.5 508.3,69.7 507.8,69.7 507.8,69.8 507.4,69.8 507.4,70 507.1,70 507.1,70.1 
	505.8,70.1 505.8,70.3 505,70.3 505,70.4 504.2,70.4 504.2,70.5 502.9,70.5 502.9,70.7 501,70.7 500,70.7 500,70.8 498.6,70.8 
	498.6,70.7 497.4,70.7 497.4,70.8 496.9,70.8 496.9,70.7 496.6,70.7 496.6,70.5 495.8,70.5 495.8,70.7 495.5,70.7 495.5,70.5 
	495.3,70.5 495.3,70.7 494.9,70.7 494.9,70.8 493.8,70.8 493.8,70.7 493.6,70.7 493.6,70.8 493.2,70.8 493.2,70.7 492.2,70.7 
	492.2,70.5 491.6,70.5 491.6,70.4 491.2,70.4 491.2,70.3 490.1,70.3 490.1,70.1 489.9,70.1 489.9,70 489.3,70 489.3,69.8 488,69.8 
	488,69.7 487.6,69.7 487.6,69.5 486.3,69.5 486.3,69.4 485.8,69.4 485.8,69.2 485.3,69.2 485.3,69.1 484.9,69.1 484.9,69 484.3,69 
	484.3,68.8 483.9,68.8 483.9,68.7 483.6,68.7 483.6,68.5 483.1,68.5 483.1,68.4 482.7,68.4 482.7,68.2 482.6,68.2 482.4,68.2 
	482.4,68.2 482.4,68.1 481.9,68.1 481.9,67.9 481.6,67.9 481.6,67.8 481.3,67.8 481.3,67.7 481,67.7 481,67.5 480.6,67.5 
	480.6,67.4 480.3,67.4 480.3,67.2 480,67.2 480,67.1 479.7,67.1 479.7,66.9 479.4,66.9 479.4,66.8 479.1,66.8 479.1,66.6 
	478.8,66.6 478.8,66.5 478.6,66.5 478.6,66.4 478.2,66.4 478.2,66.2 478,66.2 478,66.1 477.7,66.1 477.7,65.9 477.5,65.9 
	477.5,65.8 477.3,65.8 477.3,65.6 476.9,65.6 476.9,65.5 476.7,65.5 476.7,65.3 476.5,65.3 476.5,65.2 476.3,65.2 476.3,65.1 
	476,65.1 476,64.9 475.8,64.9 475.8,64.8 475.5,64.8 475.5,64.7 475.5,64.6 475.4,64.6 475.3,64.6 475.3,64.5 475.3,64.5 
	475.2,64.5 475.1,64.5 475.1,64.3 475.1,64.3 474.9,64.3 474.9,64.2 474.6,64.2 474.6,64 474.5,64 474.5,63.9 474.2,63.9 
	474.2,63.8 474,63.8 474,63.6 473.9,63.6 473.9,63.5 473.7,63.5 473.7,63.3 473.6,63.3 473.6,63.5 473.5,63.5 473.5,63.3 
	473.4,63.3 473.4,63.2 473.2,63.2 473.2,63 473,63 473,62.9 472.9,62.9 472.9,62.7 472.8,62.7 472.8,62.6 472.6,62.6 472.6,62.5 
	472.5,62.5 472.5,62.3 472.3,62.3 472.3,62.2 472.1,62.2 472.1,61.9 472,61.9 472,61.7 471.9,61.7 471.9,61.6 471.7,61.6 
	471.7,61.4 471.4,61.4 471.4,61.3 471.2,61.3 471.2,61.2 471.1,61.2 471.1,60.1 471.2,60.1 471.2,59.6 471.3,59.6 471.3,59.4 
	471.4,59.4 471.4,59.3 471.6,59.3 471.6,59.1 472.2,59.1 472.2,58.9 472.2,58.8 472.3,58.8 472.3,58.7 472.4,58.7 472.4,58.6 
	472.7,58.6 472.7,58.3 472.8,58.3 472.8,58 472.7,58 472.7,57.8 472.5,57.8 472.5,58 472.2,58 472.2,58.1 471.9,58.1 471.9,58 
	471.7,58 471.7,57.6 471.7,57.1 471.6,57.1 471.6,57 471.4,57 471.4,56.8 471.2,56.8 471.2,56.5 471.1,56.5 471.1,56.4 470.8,56.4 
	470.8,56.5 470.4,56.5 470.4,56.7 470.2,56.7 470.2,56.8 470,56.8 470,56 469.9,56 469.9,55.2 470,55.2 470,55.1 470.1,55.1 
	470.1,54.9 471,54.9 471,54.8 471.1,54.8 471.1,54.7 471.2,54.7 471.2,54.5 471.6,54.5 471.6,54.7 471.9,54.7 471.9,54.8 472,54.8 
	472,54.9 472.3,54.9 472.3,55.1 472.5,55.1 472.5,55.2 472.8,55.2 472.8,55.1 472.9,55.1 472.9,54.8 473.2,54.8 473.2,54.7 
	473.3,54.7 473.3,54.2 473.4,54.2 473.4,53.8 473.3,53.8 473.3,53.2 473.4,53.2 473.4,53.1 473.5,53.1 473.5,52.9 473.6,52.9 
	473.6,52.8 473.8,52.8 473.8,52.5 473.9,52.5 473.9,52.3 474,52.3 474,52.2 474.1,52.2 474.1,51.9 474.2,51.9 474.2,51.8 
	474.1,51.8 474.1,51.6 473.8,51.6 473.8,51.8 473.6,51.8 473.6,51.6 473.3,51.6 473.3,51.5 473,51.5 473,51.6 472.9,51.6 
	472.5,51.6 472.5,51.5 472.3,51.5 472.3,51.3 472.1,51.3 472.1,51.2 471.9,51.2 471.9,51 471.7,51 471.7,50.8 471.6,50.8 
	471.6,50.6 471.2,50.6 471.2,50.8 471.1,50.8 471.1,50.9 471,50.9 471,51.6 470.9,51.6 470.9,51.9 470.6,51.9 470.6,51.8 
	470.4,51.8 470.4,51.5 470.6,51.5 470.6,51.3 470.7,51.3 470.7,51.2 470.8,51.2 470.8,50.9 470.9,50.9 470.9,50.5 471,50.5 
	471,50.3 471.1,50.3 471.1,50.2 471.2,50.2 471.2,50 471.3,50 471.3,49.9 471.4,49.9 471.4,49.7 471.5,49.7 471.5,49.5 471.6,49.5 
	471.6,49 471.4,49 471.4,48.9 471.2,48.9 471.2,48.6 471.3,48.6 471.3,48.3 471.4,48.3 471.4,48.2 471.5,48.2 471.5,47.7 
	471.4,47.7 471.4,47.4 471.2,47.4 471.2,47.3 471.1,47.3 471.1,47.1 470.9,47.1 470.9,47 470.7,47 470.7,46.9 470.6,46.9 
	470.6,46.7 470.4,46.7 470.4,46.6 470.2,46.6 470.2,46.4 470.1,46.4 470.1,45.8 469.9,45.8 469.9,45.7 469.9,45.6 469.7,45.6 
	469.7,45.6 469.7,45.5 469.7,45.4 469.5,45.4 469.5,45.3 469.3,45.3 469.1,45.3 468.9,45.3 468.9,45.1 468.7,45.1 468.7,45 
	468.6,45 468.6,44.9 468.6,44.8 468.5,44.8 468.5,44.8 468.5,44.8 468.5,44.7 468.5,44.7 468.3,44.7 468.3,44.5 468.2,44.5 
	468.2,44.4 468.1,44.4 468.1,44.3 468,44.3 467.8,44.3 467.8,44.1 467.6,44.1 467.6,44 467.5,44 467.5,43.8 467.5,43.5 467.4,43.5 
	467.4,43.4 467.3,43.4 467.3,43.2 467.2,43.2 467.2,43.1 467.1,43.1 467.1,42.8 467,42.8 467,42.7 466.8,42.7 466.8,42.5 
	466.7,42.5 466.7,42.4 466.3,42.4 466.3,42.2 465.9,42.2 465.9,42.2 465.9,42.2 465.9,42.1 465.8,42.1 465.5,42.1 465.5,41.9 
	464.9,41.9 464.9,41.8 464.7,41.8 464.7,41.7 464.4,41.7 464.4,41.5 464.1,41.5 464.1,41.4 463.9,41.4 463.9,41.2 463.8,41.2 
	463.8,41.1 463.7,41.1 463.7,40.9 463.6,40.9 463.6,40.8 463.4,40.8 463.4,40.5 463.3,40.5 463.3,40.4 463.2,40.4 463.2,39.9 
	463.3,39.9 463.3,39.8 463.4,39.8 463.4,39.6 463.5,39.6 463.5,39.4 463.5,39.1 463.4,39.1 463.3,39.1 463.3,38.9 463,38.9 
	463,38.8 462.5,38.8 462.5,38.5 462.6,38.5 462.6,37.9 462.5,37.9 462.5,37.5 462.3,37.5 462.3,36.9 462.2,36.9 462.2,36.7 
	461.6,36.7 461.6,36.6 461.5,36.6 461.5,36.2 461.3,36.2 461.3,35.9 461.2,35.9 461.2,35.7 461,35.7 461,35.6 460.9,35.6 
	460.9,35.2 460.8,35.2 460.8,34.9 460.7,34.9 460.7,34.7 460.5,34.7 460.5,34.6 460.4,34.6 460.4,34.4 460.2,34.4 460.2,34.6 
	459.6,34.6 459.6,34.7 459.4,34.7 459.4,35 459.3,35 459.3,35.2 459.1,35.2 459.1,35.6 459,35.6 459,35.7 458.3,35.7 458.3,35.9 
	457.8,35.9 457.8,35.7 457.7,35.7 457.7,35.6 457.2,35.6 457.2,35.4 457.1,35.4 457.1,35.3 456.8,35.3 456.8,35.4 456.1,35.4 
	456.1,35.3 456,35.3 456,35.2 455.7,35.2 455.7,35 455.3,35 455.3,35.6 454.7,35.6 454.7,35.3 454.6,35.3 454.6,35.2 454.5,35.2 
	454.5,35 454.3,35 454.3,34.9 454.1,34.9 454.1,35 454,35 454,34.9 453.9,34.9 453.9,34.7 453.8,34.7 453.8,34.4 453.7,34.4 
	453.7,34.6 453.4,34.6 453.4,34.7 453.3,34.7 453.3,34.9 452.6,34.9 452.6,34.7 452.4,34.7 452.3,34.7 452.2,34.6 451.9,34.6 
	451.9,34.4 451.6,34.4 451.6,34.3 451.3,34.3 451.3,34.1 451.1,34.1 451.1,34 451,34 451,33.9 450.7,33.9 450.7,33.7 449.5,33.7 
	449.5,33.6 449,33.6 449,33.7 448.5,33.7 448.5,33.9 448.2,33.9 448.2,34 448.1,34 448.1,34.1 448,34.1 448,34.3 447.8,34.3 
	447.8,34.4 447.7,34.4 447.7,34.6 447.6,34.6 447.6,34.7 447.4,34.7 447.4,34.6 447.3,34.6 447.3,34.3 447.2,34.3 447.2,34 
	447.1,34 447.1,33.9 446.9,33.9 446.9,33.7 446.7,33.7 446.7,33.9 446.5,33.9 446.5,34.1 446.4,34.1 446.4,34.9 445.3,34.9 
	445.3,34.6 445.2,34.6 445.2,34.4 444.9,34.4 444.9,34.3 444.6,34.3 444.6,34.6 444.5,34.6 444.5,34.4 443.3,34.4 443.3,34.3 
	443.2,34.3 443.2,34.1 443,34.1 443,34 442.5,34 442.5,33.9 442.3,33.9 442.3,33.7 442.2,33.7 442.2,33.6 442,33.6 442,33.4 
	441.9,33.4 441.9,33.1 441.5,33.1 441.5,33 441.3,33 441.3,32.8 440.8,32.8 440.8,32.7 439.6,32.7 439.6,32.8 439.5,32.8 439.5,33 
	439.1,33 439.1,33.1 438.2,33.1 438.2,33.3 437.8,33.3 437.8,33.1 437.5,33.1 437.5,33 437.3,33 437.3,33.1 437.2,33.1 437.2,33 
	436.5,33 436.5,32.8 436.4,32.8 436.4,32.7 436.2,32.7 436.2,32.6 436.1,32.6 436.1,32.4 436,32.4 436,32.3 435.7,32.3 435.7,32.4 
	434.8,32.4 434.8,32.3 434.2,32.3 434.2,32.1 433.9,32.1 433.9,32.3 433.2,32.3 433.2,32.4 433,32.4 433,32.3 432.9,32.3 
	432.9,32.1 432.8,32.1 432.8,32 432.4,32 432.4,32.1 432.2,32.1 432.2,32.3 432.1,32.3 432.1,32.6 432.2,32.6 432.2,33 432.3,33 
	432.3,33.1 432.4,33.1 432.4,33.3 432.3,33.3 432.3,33.4 432.2,33.4 432.2,33.6 432,33.6 432,33.7 431.9,33.7 431.9,33.6 
	431.6,33.6 431.6,34.1 431.7,34.1 431.7,34.4 432.2,34.4 432.2,34.6 432.5,34.6 432.5,34.7 432.6,34.7 432.6,34.9 432.9,34.9 
	432.9,35 433,35 433,35.3 433,35.4 433.2,35.4 433.2,35.9 433.5,35.9 433.5,36 433.6,36 433.6,36.2 433.7,36.2 433.7,36.9 
	433.6,36.9 433.6,37 433.5,37 433.5,37.3 433.4,37.3 433.4,37.5 433.3,37.5 433.3,37.9 433.5,37.9 433.5,39.1 433.4,39.1 
	433.4,39.2 433.3,39.2 433.3,39.3 433.2,39.3 433.2,39.5 433.2,39.6 433.2,39.6 433.3,39.6 433.3,39.8 433.3,40.5 433.2,40.5 
	433.2,40.9 433.1,40.9 433.1,41.4 433,41.4 433,41.5 433.1,41.5 433.1,41.8 433.2,41.8 433.2,41.9 433.3,41.9 433.3,42.2 
	433.4,42.2 433.4,42.4 433.5,42.4 433.5,42.7 433.6,42.7 433.6,42.8 433.7,42.8 433.7,43 433.8,43 433.8,43 433.8,43.1 434.1,43.1 
	434.1,43.2 434.2,43.2 434.2,43.4 434.3,43.4 434.3,44 434.2,44 434.2,44.5 433.9,44.5 433.9,44.7 433.8,44.7 433.8,44.8 
	433.6,44.8 433.6,45 433.5,45 433.5,45.1 433.3,45.1 433.3,45.4 433.2,45.4 433.2,45.6 433.1,45.6 433.1,45.7 432.9,45.7 
	432.9,45.8 432.8,45.8 432.8,46 432.5,46 432.5,46.7 432.4,46.7 432.4,46.9 432.3,46.9 432.3,47.1 432.2,47.1 432.2,47.4 
	432.1,47.4 432.1,47.6 431.9,47.6 431.9,47.7 431.7,47.7 431.7,47.9 431.6,47.9 431.6,48.2 431.5,48.2 431.5,48.6 431.2,48.6 
	431.2,48.7 430.8,48.7 430.8,48.6 430.7,48.6 430.7,48.7 430.4,48.7 430.4,48.9 430.3,48.9 430.3,49.3 430.2,49.3 430.2,49.7 
	430,49.7 430,50 429.9,50 429.9,51.2 429.8,51.2 429.8,51.5 429.7,51.5 429.7,51.8 429.5,51.8 429.5,51.9 429.4,51.9 429.4,52.3 
	429.3,52.3 429.3,52.5 429.2,52.5 429.2,52.9 429.1,52.9 429.1,53.1 429,53.1 429,53.4 428.9,53.4 428.9,53.9 428.6,53.9 
	428.6,54.1 428.2,54.1 428.2,54.2 428.1,54.2 428.1,54.4 428,54.4 428,54.7 427.8,54.7 427.8,54.8 427.7,54.8 427.7,54.9 
	427.6,54.9 427.6,55.2 427.3,55.2 427.3,55.4 427.2,55.4 427.2,55.5 426.8,55.5 426.8,55.7 426.7,55.7 426.7,55.8 426.5,55.8 
	426.5,56.1 426.4,56.1 426.4,56.2 426.3,56.2 426.3,56.5 425.9,56.5 425.9,56.8 425.8,56.8 425.8,57 425.7,57 425.7,57.3 
	425.5,57.3 425.5,57.4 425.4,57.4 425.4,57.5 425.2,57.5 425.2,57.8 425.1,57.8 425.1,58 424.5,58 424.5,57.8 424.3,57.8 
	424.3,58.6 424.4,58.6 424.4,58.8 424.5,58.8 424.5,59.1 424.6,59.1 424.6,59.6 424.5,59.6 424.5,59.9 424.4,59.9 424.4,60 
	424.2,60 424.2,60.1 424.1,60.1 424.1,60.3 424,60.3 424,60.4 423.9,60.4 423.9,60.6 423.8,60.6 423.8,60.7 423.7,60.7 423.7,60.9 
	423.5,60.9 423.5,61 423.4,61 423.4,61.2 423.3,61.2 423.3,61.4 423.2,61.4 423.2,61.6 423.1,61.6 423.1,61.7 422.7,61.7 
	422.7,62.5 422.8,62.5 422.8,63 422.7,63 422.7,63.2 422.5,63.2 422.5,63.5 422.4,63.5 422.4,63.6 422.2,63.6 422.2,63.8 422,63.8 
	422,64 421.9,64 421.9,64.2 421.8,64.2 421.8,64.3 421.6,64.3 421.6,64.6 421.4,64.6 421.4,65.1 421.3,65.1 421.3,65.3 421.2,65.3 
	421.2,65.6 421.1,65.6 421.1,65.9 420.9,65.9 420.9,66.1 420.8,66.1 420.8,66.4 420.6,66.4 420.6,66.5 420.5,66.5 420.5,66.6 
	420.3,66.6 420.3,66.8 420.2,66.8 420.2,66.9 420.1,66.9 420.1,67.2 420,67.2 420,67.4 419.8,67.4 419.8,67.5 419.6,67.5 
	419.6,67.7 419.4,67.7 419.4,67.9 419.3,67.9 419.3,68.2 419.2,68.2 419.2,68.4 419.1,68.4 419.1,68.5 419,68.5 419,68.7 
	418.9,68.7 418.9,68.8 418.8,68.8 418.8,69 418.7,69 418.7,69.1 418.6,69.1 418.6,69.4 418.5,69.4 418.5,69.7 418.3,69.7 418.3,70 
	418.2,70 418.2,70.1 418.1,70.1 418.1,70.3 418,70.3 418,70.4 417.8,70.4 417.8,70.5 417.7,70.5 417.7,70.7 417.5,70.7 417.5,70.8 
	417.3,70.8 417.3,71 417.2,71 417.2,71.1 416.9,71.1 416.9,71.3 416.8,71.3 416.8,71.4 416.7,71.4 416.7,71.6 416.6,71.6 
	416.6,71.7 416.5,71.7 416.5,71.8 416.4,71.8 416.4,72 416.2,72 416.2,72.1 416.1,72.1 416.1,72.3 416,72.3 416,72.4 415.9,72.4 
	415.9,72.6 415.7,72.6 415.7,72.7 415.6,72.7 415.6,72.9 415.5,72.9 415.5,73 415.3,73 415.3,73.1 415.1,73.1 415.1,73.3 415,73.3 
	415,73.4 414.9,73.4 414.9,73.6 414.8,73.6 414.8,73.7 414.7,73.7 414.7,73.9 414.6,73.9 414.6,74 414.4,74 414.4,74.2 414.3,74.2 
	414.3,74.3 414.2,74.3 414.2,74.4 414.2,74.4 414.1,74.4 414.1,74.6 413.9,74.6 413.9,74.7 413.8,74.7 413.8,74.9 413.6,74.9 
	413.6,75.2 413.4,75.2 413.4,75.3 413.1,75.3 413.1,75.5 413,75.5 413,75.6 412.9,75.6 412.9,75.7 412.8,75.7 412.8,75.9 
	412.6,75.9 412.6,76.2 412.4,76.2 412.4,76.3 412.1,76.3 412.1,76.5 412,76.5 412,76.6 411.8,76.6 411.8,76.8 411.5,76.8 
	411.5,76.9 411.2,76.9 411.2,77 411.1,77 411.1,77.2 410.9,77.2 410.9,77.5 410.8,77.5 410.8,77.6 410.7,77.6 410.7,77.8 
	410.5,77.8 410.5,77.9 410.4,77.9 410.4,78.1 410.3,78.1 410.3,78.2 410.2,78.2 410.2,78.3 410,78.3 410,78.5 409.9,78.5 
	409.9,78.8 409.8,78.8 409.8,78.9 409.6,78.9 409.6,79.1 409.5,79.1 409.5,79.2 409.1,79.2 409.1,79.4 408.7,79.4 408.7,79.5 
	408.6,79.5 408.6,79.8 408.4,79.8 408.4,79.9 408.3,79.9 408.3,80.5 408.1,80.5 408.1,80.7 407.9,80.7 407.9,80.8 407.7,80.8 
	407.7,80.9 407.6,80.9 407.6,81.1 407.5,81.1 407.5,81.2 407.3,81.2 407.3,81.4 407.1,81.4 407.1,81.5 407,81.5 407,81.7 
	406.9,81.7 406.9,82 406.6,82 406.6,82.1 406.5,82.1 406.5,82.2 406.3,82.2 406.3,82.4 406.2,82.4 406.2,82.5 406,82.5 406,82.7 
	405.9,82.7 405.9,82.8 405.9,83 405.8,83 405.8,83.1 405.6,83.1 405.6,83.3 405.3,83.3 405.3,83.4 405.1,83.4 405.1,83.7 
	404.9,83.7 404.9,83.8 404.8,83.8 404.8,84 404.5,84 404.5,84.1 404.4,84.1 404.4,84.3 404.3,84.3 404.3,84.4 404,84.4 404,84.6 
	403.8,84.6 403.8,84.7 403.6,84.7 403.6,84.8 403.5,84.8 403.5,85 403.2,85 403.2,85.1 403.1,85.1 403.1,85.3 403,85.3 403,85.4 
	402.9,85.4 402.9,85.6 402.7,85.6 402.7,85.7 402.5,85.7 402.5,85.9 402.3,85.9 402.3,86 402.2,86 402.2,86.1 402.1,86.1 
	402.1,86.3 401.9,86.3 401.9,86.4 401.8,86.4 401.8,86.6 401.6,86.6 401.6,86.7 401.3,86.7 401.3,86.9 401.1,86.9 401.1,87 
	400.9,87 400.9,87.2 400.8,87.2 400.8,87.3 400.7,87.3 400.7,87.4 400.6,87.4 400.6,87.7 400.3,87.7 400.3,87.9 400,87.9 400,88 
	399.9,88 399.9,88.2 399.8,88.2 399.8,88.3 399.7,88.3 399.7,88.5 399.6,88.5 399.6,88.6 399.5,88.6 399.5,88.7 399.4,88.7 
	399.4,88.9 399.3,88.9 399.3,89 399.1,89 399.1,89.2 398.8,89.2 398.8,89.3 398.6,89.3 398.6,89.6 398.4,89.6 398.4,89.8 
	398.2,89.8 398.2,89.9 397.9,89.9 397.9,90 397.7,90 397.7,90.3 397.5,90.3 397.5,90.6 397.4,90.6 397.4,90.8 397.3,90.8 
	397.3,90.9 396.9,90.9 396.9,91.1 396.8,91.1 396.8,91.2 396.6,91.2 396.6,91.3 396.5,91.3 396.5,91.5 396,91.5 396,91.6 
	395.9,91.6 395.9,91.8 395.8,91.8 395.8,91.9 395.7,91.9 395.7,92.1 395.5,92.1 395.5,92.2 395.3,92.2 395.3,92.4 395.2,92.4 
	395.2,92.5 395.1,92.5 395.1,92.8 394.8,92.8 394.8,92.9 394.4,92.9 394.4,93.1 394.3,93.1 394.3,93.2 394.1,93.2 394.1,93.4 
	394,93.4 394,93.5 393.8,93.5 393.8,93.7 393.6,93.7 393.6,93.8 393.4,93.8 393.4,93.9 393.3,93.9 393.3,94.1 393.2,94.1 
	393.2,94.2 393,94.2 393,94.4 392.9,94.4 392.9,94.5 392.7,94.5 392.7,94.7 392.5,94.7 392.5,94.8 392.3,94.8 392.3,95 392.2,95 
	392.2,95.1 392.1,95.1 392.1,95.2 391.9,95.2 391.9,95.4 391.8,95.4 391.8,95.5 391.7,95.5 391.7,95.7 391.5,95.7 391.5,95.8 
	391.3,95.8 391.3,96 391.2,96 391.2,96.1 390.7,96.1 390.7,96.3 390.5,96.3 390.5,96.4 390.4,96.4 390.4,96.5 390.3,96.5 
	390.3,96.8 390.2,96.8 390.2,97 390,97 390,97.1 389.9,97.1 389.9,97.3 389.6,97.3 389.6,97.4 389.3,97.4 389.3,97.6 389.2,97.6 
	389.2,97.7 389.1,97.7 389.1,97.8 388.8,97.8 388.8,98 388.6,98 388.6,98.1 388.4,98.1 388.4,98.3 388.3,98.3 388.3,98.4 
	388.1,98.4 388.1,98.6 388,98.6 388,98.7 387.8,98.7 387.8,98.8 387.6,98.8 387.6,99 387.5,99 387.5,99.1 387.3,99.1 387.3,99.3 
	387.1,99.3 387.1,99.4 386.9,99.4 386.9,99.6 386.7,99.6 386.7,99.7 386.6,99.7 386.6,99.9 386.3,99.9 386.3,100 386.1,100 
	386.1,100.2 386,100.2 386,100.3 385.8,100.3 385.8,100.4 385.5,100.4 385.5,100.3 385.4,100.3 385.4,100.4 385.3,100.4 
	385.3,100.6 385.1,100.6 385.1,100.7 385,100.7 385,100.9 384.5,100.9 384.5,101 384.3,101 384.3,101.2 384.2,101.2 384.2,101 
	384.1,101 384.1,101.2 383.9,101.2 383.9,101.3 383.3,101.3 383.3,101.4 382.9,101.4 382.9,101.6 382.7,101.6 382.7,101.7 
	382.6,101.7 382.6,101.9 382.4,101.9 382.4,102 382.3,102 382.3,102.2 382.1,102.2 382.1,102.3 381.8,102.3 381.8,102.5 
	381.7,102.5 381.7,102.6 381.6,102.6 381.6,102.9 381.4,102.9 381.4,103 381.3,103 381.3,103.2 381,103.2 381,103.3 380.9,103.3 
	380.9,103.5 380.2,103.5 380.2,103.6 380,103.6 380,103.8 379.9,103.8 379.9,103.9 379.8,103.9 379.8,104.1 379.3,104.1 
	379.3,104.2 378.9,104.2 378.9,104.3 378.8,104.3 378.8,104.5 378.7,104.5 378.7,104.6 378.6,104.6 378.6,104.8 378.4,104.8 
	378.4,104.9 377.9,104.9 377.9,105.1 377.8,105.1 377.8,105.2 377.7,105.2 377.7,105.3 377.5,105.3 377.5,105.5 377.4,105.5 
	377.4,105.6 377.1,105.6 377.1,105.8 376.9,105.8 376.9,105.9 376.6,105.9 376.6,106.1 375.9,106.1 375.9,106.2 375.5,106.2 
	375.5,106.4 375.4,106.4 375.3,106.4 375.3,106.5 375,106.5 375,106.4 374.3,106.4 374.3,106.2 373.8,106.2 373.8,106.1 
	373.7,106.1 373.7,105.9 373.5,105.9 373.5,105.8 373.4,105.8 373.4,105.6 372.9,105.6 372.9,105.5 372.4,105.5 372.4,105.6 
	372.2,105.6 372.2,105.8 371.8,105.8 371.8,105.9 371.7,105.9 371.7,106.1 371.6,106.1 371.6,106.4 371.4,106.4 371.4,106.7 
	371.2,106.7 371.2,106.8 371.1,106.8 371.1,106.9 370.7,106.9 370.7,106.8 370.5,106.8 370.5,106.7 370.3,106.7 370.3,106.8 
	370,106.8 370,106.9 369.9,106.9 369.9,107.1 369.7,107.1 369.7,107.2 369.5,107.2 369.5,107.4 369.3,107.4 369.3,107.5 
	369.2,107.5 369.2,107.8 369,107.8 369,107.9 368.5,107.9 368.5,108.1 367.4,108.1 367.4,108.2 366.9,108.2 366.9,108.1 
	366.2,108.1 366.2,107.9 366,107.9 366,107.8 365.9,107.8 365.9,107.7 365.8,107.7 365.8,107.5 365.2,107.5 365.2,107.4 
	364.9,107.4 364.9,107.2 364.4,107.2 364.4,107.1 364.1,107.1 364.1,107.2 363.9,107.2 363.9,107.4 363.6,107.4 363.6,107.5 
	363.5,107.5 363.5,107.4 363.1,107.4 363.1,107.2 363,107.2 363,107.1 362.9,107.1 362.9,106.9 362.2,106.9 362.2,107.1 362,107.1 
	362,107.2 361.8,107.2 361.8,107.4 361.7,107.4 361.7,107.5 361.4,107.5 361.4,107.4 361.2,107.4 361.2,107.2 360.4,107.2 
	360.4,107.4 360.2,107.4 360.2,107.5 359.4,107.5 359.4,107.7 359.2,107.7 359.2,107.8 358.7,107.8 358.7,107.9 358.2,107.9 
	358.2,108.1 358.1,108.1 358.1,108.2 356.5,108.2 356.5,108.4 356.1,108.4 356.1,108.5 355.7,108.5 355.7,108.7 355.1,108.7 
	355.1,108.8 354.8,108.8 354.8,109 354.7,109 354.7,109.1 354.5,109.1 354.5,109.2 354.2,109.2 354.2,109.4 354.1,109.4 
	354.1,109.5 353.9,109.5 353.9,109.7 353.5,109.7 353.5,109.8 352.9,109.8 352.9,110 352.6,110 352.6,110.1 352.1,110.1 
	352.1,110.3 351.8,110.3 351.8,110.4 351.6,110.4 351.6,110.5 351.1,110.5 351.1,110.7 350.2,110.7 350.2,110.8 349.8,110.8 
	349.8,111 349.5,111 349.5,111.1 349.1,111.1 349.1,111.3 349,111.3 349,111.1 348.9,111.1 348.9,111.3 348.4,111.3 348.4,111.4 
	348.3,111.4 348.3,111.6 347.7,111.6 347.7,111.4 347.5,111.4 347.5,111.6 346.9,111.6 346.9,111.7 346.6,111.7 346.6,111.8 
	346.4,111.8 346.4,112 346.1,112 346.1,111.8 345.6,111.8 345.6,112 344.6,112 344.6,112.1 343.9,112.1 343.9,112.3 343.4,112.3 
	343.4,112.1 343.2,112.1 343.2,112 342.8,112 342.8,111.8 342.3,111.8 342.3,112 342.2,112 342.2,112.1 342,112.1 342,112 
	340.5,112 340.5,111.8 340,111.8 340,112 339.8,112 339.8,112.1 339.6,112.1 339.6,112.3 339.3,112.3 339.3,112.1 339.1,112.1 
	339.1,112.3 337.4,112.3 337.4,112.1 337.2,112.1 337.2,112.3 336.8,112.3 336.8,112.1 336.2,112.1 336.2,112 336.1,112 
	336.1,111.8 335.9,111.8 335.9,111.7 335.8,111.7 335.8,111.4 335.7,111.4 335.7,111.3 335.6,111.3 335.6,111 335.5,111 
	335.5,110.8 335.3,110.8 335.3,110.7 335,110.7 335,110.5 334.9,110.5 334.9,110.4 334.4,110.4 334.4,110.5 334,110.5 334,110.7 
	333.6,110.7 333.6,110.8 333,110.8 333,111 332.2,111 332.2,111.1 331.9,111.1 331.9,111.3 331.5,111.3 331.5,111.4 331.1,111.4 
	331.1,111.6 330.7,111.6 330.7,111.7 330.4,111.7 330.4,111.8 329.8,111.8 329.8,112 329.4,112 329.4,112.1 329.3,112.1 
	329.3,112.3 329.2,112.3 329.2,112.4 328.7,112.4 328.7,112.3 327.7,112.3 327.7,112.4 327.5,112.4 327.5,112.3 327.4,112.3 
	327.4,112.4 327.2,112.4 327.2,112.6 326.3,112.6 326.3,112.7 325.5,112.7 325.5,112.9 324.2,112.9 324.2,113 324.1,113 
	324.1,113.1 322.5,113.1 322.5,113.3 321.6,113.3 321.6,113.4 321.3,113.4 321.3,113.6 320.7,113.6 320.7,113.4 320.6,113.4 
	320.6,113.3 320.5,113.3 320.5,113 320.3,113 320.3,112.9 318.8,112.9 318.8,112.7 318.5,112.7 318.5,112.9 317.7,112.9 317.7,113 
	316.8,113 316.8,113.1 316.1,113.1 316.1,113.3 315.8,113.3 315.8,113.4 315.1,113.4 315.1,113.3 315,113.3 315,113.1 314.9,113.1 
	314.9,113 314.6,113 314.6,112.9 314.4,112.9 314.4,112.7 313.8,112.7 313.8,112.6 313.7,112.6 313.7,112.7 313.4,112.7 
	313.4,112.9 312.9,112.9 312.9,112.7 312.8,112.7 312.8,112.9 312.5,112.9 312.5,113 311.3,113 311.3,113.1 310.9,113.1 310.9,113 
	310.1,113 310.1,113.1 309.6,113.1 309.6,113.3 308.7,113.3 308.7,113.1 308.6,113.1 308.6,113 308.1,113 308.1,113.1 307.9,113.1 
	307.9,113 305,113 305,112.9 304.2,112.9 304.2,112.7 304,112.7 304,112.6 303.5,112.6 303.5,112.4 302.5,112.4 302.5,112.3 
	302.2,112.3 302.2,112.1 301.8,112.1 301.8,112 301.5,112 301.5,111.8 301.4,111.8 301.4,111.7 300.8,111.7 300.8,111.6 
	300.5,111.6 300.5,111.4 299.7,111.4 299.7,111.6 299.5,111.6 299.5,111.4 299.2,111.4 299.2,111.3 299.1,111.3 299.1,111 299,111 
	299,110.5 298.9,110.5 298.9,110.4 298.7,110.4 298.7,110.3 298.4,110.3 298.4,110.1 298,110.1 298,110 297.9,110 297.9,109.8 
	297.6,109.8 297.6,109.7 297.4,109.7 297.4,109.5 297.2,109.5 297.2,109.4 297,109.4 297,109.2 296.8,109.2 296.8,109.1 
	295.8,109.1 295.8,109 293.8,109 293.8,109.1 293.2,109.1 293.2,109.2 292.8,109.2 292.8,109.4 292.5,109.4 292.5,109.5 
	292.3,109.5 292.3,109.7 291.9,109.7 291.9,109.8 291.3,109.8 291.3,110 290.6,110 290.6,110.1 290.5,110.1 290.5,110.3 
	289.3,110.3 289.3,110.4 288.4,110.4 288.4,110.4 288.4,110.4 288.4,110.3 288.3,110.3 288.3,110.1 288.1,110.1 288.1,110 
	286.7,110 286.7,109.8 286.6,109.8 286.6,109.7 286.3,109.7 286.3,109.5 285.2,109.5 285.2,109.4 285.1,109.4 285.1,109.7 
	285,109.7 285,109.9 285,110 284.9,110 284.9,110.1 284.7,110.1 284.7,110.3 284.4,110.3 284.4,110.4 284,110.4 284,110.3 
	283.9,110.3 283.9,110.1 283.8,110.1 283.8,109.8 283.4,109.8 283.4,110 283.3,110 283.3,110.3 283.2,110.3 283.2,110.4 
	283.1,110.4 283.1,110.5 282.4,110.5 282.4,110.7 282,110.7 282,110.5 281.9,110.5 281.9,110.4 281.5,110.4 281.5,110.3 
	281.3,110.3 281.3,110.1 281.2,110.1 281.2,109.8 281.1,109.8 281.1,109.7 281,109.7 281,109.5 280.6,109.5 280.6,109.4 279,109.4 
	279,109.5 278.9,109.5 278.9,109.7 278.5,109.7 278.5,109.5 278.4,109.5 278.4,109.4 278.1,109.4 278.1,109.2 277,109.2 277,109.1 
	276.9,109.1 276.9,109 276.7,109 276.7,108.8 276.6,108.8 276.6,108.7 275.8,108.7 275.8,108.5 275.7,108.5 275.7,108.4 
	275.6,108.4 275.6,108.2 274.8,108.2 274.8,108.1 274.6,108.1 274.6,107.9 274.5,107.9 274.5,107.8 274.3,107.8 274.3,107.7 
	274.2,107.7 274.2,107.5 274,107.5 274,107.4 273.6,107.4 273.6,107.2 273.5,107.2 273.5,107.4 273.4,107.4 273.4,107.2 
	272.2,107.2 272.2,107.1 271.1,107.1 271.1,106.9 270.8,106.9 270.8,106.7 270.7,106.7 270.7,106.5 270.5,106.5 270.5,106.4 
	270.1,106.4 270.1,106.2 269.8,106.2 269.8,106.1 269.5,106.1 269.5,105.9 269.1,105.9 269.1,105.8 267.6,105.8 267.6,105.9 
	267,105.9 267,105.8 266.9,105.8 266.9,105.6 266.8,105.6 266.8,105.5 266.7,105.5 266.7,105.3 266.2,105.3 266.2,105.2 
	265.8,105.2 265.8,105.1 264.7,105.1 264.7,104.9 263.6,104.9 263.6,104.8 263.4,104.8 263.4,104.6 262.8,104.6 262.8,104.5 
	262.7,104.5 262.7,104.3 262.5,104.3 262.5,104.5 262.4,104.5 262.4,104.6 262.1,104.6 262.1,104.3 261.9,104.3 261.9,104.2 
	261.6,104.2 261.6,104.1 261.5,104.1 261.5,103.8 261.3,103.8 261.3,103.6 261.1,103.6 261.1,103.5 261,103.5 261,103.3 
	260.5,103.3 260.5,103 260.4,103 260.4,102.9 260.2,102.9 260.2,103.2 259.9,103.2 259.9,103 259.8,103 259.8,102.9 259.5,102.9 
	259.5,102.7 259.4,102.7 259.4,102.6 259.3,102.6 259.3,102.5 259.2,102.5 259.2,102.3 259.1,102.3 259.1,102 259,102 259,101.2 
	258.9,101.2 258.9,100.7 259,100.7 259,100.6 259.1,100.6 259.1,100.4 259.2,100.4 259.2,100.3 259.4,100.3 259.4,100.2 
	259.5,100.2 259.5,100 259.8,100 259.8,99.9 259.9,99.9 259.9,99.6 260,99.6 260,99.3 259.9,99.3 259.9,99 259.8,99 259.8,99 
	259.8,97.8 259.7,97.8 259.7,97.7 259.5,97.7 259.5,97.6 259.4,97.6 259.4,97.4 259.3,97.4 259.3,97.3 259.2,97.3 259.2,97.1 
	259.1,97.1 259.1,97 259,97 259,96.8 259,96.8 258.8,96.8 258.8,96.7 258.7,96.7 258.7,96.5 258.4,96.5 258.4,96.4 258,96.4 
	258,96.3 257.9,96.3 257.9,96.1 257.7,96.1 257.7,96 257.5,96 257.5,95.8 257.3,95.8 257.3,95.7 257.1,95.7 257.1,95.5 256.7,95.5 
	256.7,95.4 256.5,95.4 256.5,95.2 255.8,95.2 255.8,95.1 255.4,95.1 255.4,95 255,95 255,95.1 254.7,95.1 254.7,95.4 254.6,95.4 
	254.6,95.7 254.5,95.7 254.5,95.8 254.3,95.8 254.3,96 254.2,96 254.2,96.3 254.1,96.3 254.1,96.4 254,96.4 254,96.5 253.9,96.5 
	253.9,96.7 253.7,96.7 253.7,97 253.6,97 253.6,97.3 253.5,97.3 253.5,97.7 253.4,97.7 253.4,97.8 253.2,97.8 253.2,98 253,98 
	253,98.1 252.8,98.1 252.8,98.3 252.6,98.3 252.6,98.4 252.3,98.4 252.3,98.3 251.7,98.3 251.7,99.3 251.6,99.3 251.6,99.4 
	251.4,99.4 251.4,99.6 251.3,99.6 251.3,99.7 251,99.7 251,99.9 250.9,99.9 250.9,100 250.7,100 250.7,100.2 250.3,100.2 
	250.3,100.3 250.1,100.3 250.1,100.4 250,100.4 250,100.6 248.8,100.6 248.8,100.4 248.7,100.4 248.7,100.3 248.3,100.3 
	248.3,100.2 247.4,100.2 247.4,100 246.9,100 246.9,100.2 246.5,100.2 246.5,100.3 246.3,100.3 246.3,100.4 246.2,100.4 
	246.2,100.6 245.2,100.6 245.2,100.7 243,100.7 243,100.9 242.6,100.9 242.6,101 242.4,101 242.4,100.9 242,100.9 242,100.7 
	241.2,100.7 241.2,100.9 241,100.9 241,100.7 240.9,100.7 240.9,100.6 240.8,100.6 240.8,100.7 240.5,100.7 240.5,100.9 
	239.4,100.9 239.4,100.7 239.1,100.7 239.1,100.9 238.9,100.9 238.9,101 238.6,101 238.6,101.2 238.5,101.2 238.5,101.4 
	238.4,101.4 238.4,101.6 238.2,101.6 238.2,101.7 238.1,101.7 238.1,101.9 237.6,101.9 237.6,102 237.1,102 237.1,102.2 
	236.5,102.2 236.5,102 235.4,102 235.4,101.9 235.3,101.9 235.3,101.7 235.2,101.7 235.2,101.4 235.1,101.4 235.1,101.3 
	235.2,101.3 235.2,100.9 235.1,100.9 235.1,100.7 235,100.7 235,100.6 234.8,100.6 234.8,100.4 234.4,100.4 234.4,100.3 
	233.4,100.3 233.4,100.4 233.2,100.4 233.2,100.6 232.7,100.6 232.7,100.7 232.5,100.7 232.5,100.9 232.1,100.9 232.1,101 
	231.9,101 231.9,101.2 231.7,101.2 231.7,101.3 231.5,101.3 231.5,101.4 231.4,101.4 231.4,101.6 231.1,101.6 231.1,101.7 
	230.5,101.7 230.5,101.9 230.3,101.9 230.2,101.9 230.2,102 229.3,102 229.3,101.9 229.2,101.9 229.2,102 229,102 229,101.9 
	228.7,101.9 228.7,101.7 228.5,101.7 228.5,101.6 228.2,101.6 228.2,101.7 228,101.7 228,102 227.9,102 227.9,102.2 227.8,102.2 
	227.8,102.3 227.6,102.3 227.6,102.5 227.5,102.5 227.5,102.6 227.4,102.6 227.4,102.9 226.9,102.9 226.9,102.7 226.6,102.7 
	226.6,102.6 226.5,102.6 226.5,102.7 226.4,102.7 226.4,103.2 226.3,103.2 226.3,103.3 226.2,103.3 226.2,103.5 225.8,103.5 
	225.8,103.6 225.3,103.6 225.3,103.8 225.2,103.8 225.2,103.9 225.1,103.9 225.1,104.1 224.7,104.1 224.7,104.2 223.8,104.2 
	223.8,104.1 223.5,104.1 223.5,104.2 222.4,104.2 222.4,104.3 222.1,104.3 222.1,104.5 221.9,104.5 221.9,104.6 221.6,104.6 
	221.6,104.8 221.4,104.8 221.4,104.9 221.2,104.9 221.2,105.1 221.1,105.1 221.1,105.2 220.7,105.2 220.7,105.3 220.6,105.3 
	220.6,105.5 219.9,105.5 219.9,105.6 219.8,105.6 219.8,105.8 219.6,105.8 219.6,105.9 219.5,105.9 219.5,106.1 219.4,106.1 
	219.4,106.2 219.3,106.2 219.3,106.4 219.1,106.4 219.1,106.5 219,106.5 219,107.2 218.8,107.2 218.8,107.4 218.3,107.4 
	218.3,107.5 218,107.5 218,107.7 217.7,107.7 217.7,107.8 217.5,107.8 217.5,107.9 217,107.9 217,107.7 216.4,107.7 216.4,107.5 
	216.1,107.5 216.1,107.7 215.2,107.7 215.2,107.5 214.9,107.5 214.9,107.4 214.7,107.4 214.7,107.2 214.5,107.2 214.5,107.1 
	214.3,107.1 214.3,106.9 214.2,106.9 214.2,107.1 213.9,107.1 213.9,107.2 213.8,107.2 213.8,107.4 213.7,107.4 213.7,107.5 
	213.5,107.5 213.5,107.7 212.5,107.7 212.5,107.8 211.8,107.8 211.8,107.7 211.2,107.7 211.2,107.5 210.8,107.5 210.8,107.7 
	210.7,107.7 210.7,107.8 210.5,107.8 210.5,108.2 210.4,108.2 210.4,108.4 210.3,108.4 210.3,108.5 210.2,108.5 210.2,108.7 
	209.4,108.7 209.4,108.8 209.2,108.8 209.2,109 209.1,109 209.1,109.1 208.9,109.1 208.9,109.2 208.7,109.2 208.7,109.4 
	208.2,109.4 208.2,109.5 208,109.5 208,109.7 207.8,109.7 207.8,109.8 207.3,109.8 207.3,110 206.9,110 206.9,110.1 206.5,110.1 
	206.5,110.3 206,110.3 206,110.4 205.4,110.4 205.4,110.5 204.7,110.5 204.7,110.7 203.9,110.7 203.9,110.8 203.4,110.8 203.4,111 
	203.3,111 203.3,111.1 203,111.1 203,111 202.9,111 202.9,111.1 202.6,111.1 202.6,110.8 202.5,110.8 202.5,111 202.1,111 
	202.1,111.1 200.7,111.1 200.7,111 200.5,111 200.5,110.8 199.6,110.8 199.6,110.7 199.4,110.7 199.4,110.5 199.1,110.5 
	199.1,110.4 198.9,110.4 198.9,110.3 198.3,110.3 198.3,110 198.5,110 198.5,109 198.3,109 198.3,108.8 197.9,108.8 197.9,108.7 
	197.6,108.7 197.6,108.5 197.5,108.5 197.5,108.4 197.2,108.4 197.2,108.2 196.7,108.2 196.7,108.1 196.3,108.1 196.3,108.2 
	195.7,108.2 195.7,108.4 195.5,108.4 195.5,108.5 195.3,108.5 195.3,108.7 195,108.7 195,108.8 194.9,108.8 194.9,109 194.7,109 
	194.7,109.1 194.6,109.1 194.6,109.2 194.4,109.2 194.4,109.4 194.3,109.4 194.3,109.5 194.2,109.5 194.2,109.7 194.1,109.7 
	194.1,109.8 194,109.8 194,110.1 193.9,110.1 193.9,110.7 193.8,110.7 193.8,111.1 193.6,111.1 193.6,111.4 193.5,111.4 
	193.5,111.8 193.1,111.8 193.1,112 192.6,112 192.6,112.1 192.1,112.1 192.1,112.3 191.5,112.3 191.5,112.4 190.8,112.4 
	190.8,112.6 190.1,112.6 190.1,112.7 188.9,112.7 188.9,112.9 188.2,112.9 188.2,113 187.1,113 187.1,112.7 186.8,112.7 
	186.8,112.6 186.6,112.6 186.6,112.7 186.3,112.7 186.3,112.9 186.1,112.9 186.1,113 185.9,113 185.9,113.1 185.8,113.1 
	185.8,113.4 185.4,113.4 184.9,113.4 184.9,113.6 180.9,113.6 180.9,113.4 180.8,113.4 180.8,113.6 180.5,113.6 180.5,113.4 
	179.6,113.4 179.6,113.3 179.5,113.3 179.5,113.1 179.3,113.1 179.3,113 179.2,113 179.2,112.9 179.1,112.9 179.1,112.7 
	178.7,112.7 178.7,112.6 178.4,112.6 178.4,112.7 178.3,112.7 178.3,112.9 178.2,112.9 178.2,113.1 177.3,113.1 177.3,113 
	176.9,113 176.9,112.9 176.6,112.9 176.6,112.7 176.1,112.7 176.1,112.4 175.9,112.4 175.9,112.3 175.8,112.3 175.8,112 175.7,112 
	175.7,111.8 175.2,111.8 175.2,112 175.1,112 175.1,112.1 174.3,112.1 174.3,112 173.9,112 173.9,111.8 173.8,111.8 173.8,111.7 
	173.1,111.7 173.1,111.6 173,111.6 173,111.4 172.7,111.4 172.7,110.8 172.8,110.8 172.8,110.7 172.9,110.7 172.9,110.4 173,110.4 
	173,110.3 173.1,110.3 173.1,110 172.3,110 172.3,110.1 172,110.1 172,110.3 171.7,110.3 171.7,110.4 169.9,110.4 169.9,110.3 
	167.7,110.3 167.7,110.1 166.9,110.1 166.9,110 166.3,110 166.3,109.8 165.8,109.8 165.8,109.7 164.8,109.7 164.8,109.8 
	162.8,109.8 162.8,109.7 162.2,109.7 162.2,109.5 161.5,109.5 161.5,109.4 160.3,109.4 160.3,109.2 159.9,109.2 159.9,109.1 
	158.9,109.1 158.9,109 158,109 158,108.8 157.6,108.8 157.6,108.7 157.3,108.7 157.3,108.5 156.6,108.5 156.6,108.4 156.3,108.4 
	156.3,108.2 156.1,108.2 156.1,108.1 156,108.1 156,108 156,107.9 155.9,107.9 155.8,107.9 155.8,107.8 155.7,107.8 155.7,107.7 
	155.5,107.7 155.5,107.5 155.3,107.5 155.3,107.4 155.1,107.4 155.1,107.2 155,107.2 155,107.1 154.8,107.1 154.8,106.9 
	154.6,106.9 154.6,106.8 154.4,106.8 154.4,106.7 154.2,106.7 154.2,106.5 153.9,106.5 153.9,106.4 153.4,106.4 153.4,106.2 
	153.2,106.2 153.2,106.1 153,106.1 153,106.2 152.4,106.2 151.8,111.7 151.5,122 151.4,140.3 151.7,145.2 152,148.4 153.3,152.7 
	156.2,158.6 158.4,163.7 162.2,170.5 164.4,175.6 167.3,181.5 168.3,184.3 168.8,187.4 169.1,192.3 169,212.5 169,218.6 
	187.2,218.5 192.2,218.1 197,217.5 209.9,218.8 212.6,219.3 216.5,220.5 222.2,223.3 226.7,224.3 232.9,224.7 248.8,224.7 
	253.4,225.2 256.4,226 258.7,227 263.2,229.5 268.2,231.7 273.8,235 278.6,237.3 281,238.7 284.4,241.5 287.5,244.7 289.4,246.9 
	292.3,251.2 293.8,252.9 295.7,254.1 297.8,255 297.8,262.5 297.6,267 297.3,269.9 296.6,272.7 295.5,275.2 293.1,279.8 
	290.4,286.1 285.2,294.8 283.5,296.5 279.4,299.3 277.2,301 267.8,310.1 265.6,312 263.3,313.7 260.9,315 257.2,316.7 251.5,319.8 
	249,320.8 245.5,321.6 244.9,336.6 244.8,364.6 245,373.2 245.3,376.6 245.8,379.9 246.8,383 248.7,387.2 249.7,390.3 250.3,393.7 
	250.7,398.9 250.6,430.9 250.3,438 249.5,444.8 252.2,449.2 253.9,451.2 255.9,452.9 258.2,454.3 267.4,459 271.3,460.2 
	281.1,461.3 283.8,461.9 286.3,462.8 292.1,465.5 294.8,466.2 297.6,466.5 303.3,466.9 307.4,470.3 309.7,471.6 312.4,472.5 
	317.7,473.6 320.3,474.4 326,477.1 328.5,478.1 335.2,479.5 337.9,480.3 344.7,484 349.7,486.1 356.5,489.8 359.1,490.6 
	364.5,491.8 367.1,492.5 372.8,495.4 375.3,496.3 383.5,497.9 393.5,501 394.9,500.9 395.7,500.6 396.4,500 399.5,495.5 
	404.6,489.3 406.9,486 408.1,483.4 410.7,475.9 412,470.9 418,462.8 419.4,460.5 421.1,456.4 422.2,454.2 427.5,446.7 429.5,442.9 
	437.3,438.3 443.4,435.6 450.2,431.8 455.2,429.6 461.9,425.7 466.9,423.6 473.6,419.7 478.6,417.5 485.3,413.4 490.2,411.2 
	494.5,408.7 496.8,407.7 498.1,407.4 500.8,407.5 502.1,407.8 504.3,409.1 505.3,410 506.9,411.9 508.2,414.2 510.4,419.2 
	512,421.7 516.5,427.6 518.1,430 521.8,437.5 524.4,441 531.2,448.7 534,452.1 536.2,455.6 538.5,460.5 540,462.6 541.8,464.4 
	544,465.8 546.6,466.7 549.4,467.1 556.3,467.7 559,468.2 561.5,469.1 567.3,472 570,472.7 575.6,473.3 582.8,473.3 587.1,472.8 
	589.8,472.1 591,471.5 596.7,468.4 602.8,465.7 610.2,461.1 612.2,459.6 613.6,457.6 618,449.8 621.1,442.3 626,433.6 626.2,429.5 
	626.7,426.8 627.5,424.2 629.6,419.5 630.4,416.9 630.8,414.1 630.7,409.9 629.6,405.9 627.5,401.2 626.6,398.5 626,395.5 
	625.1,387.6 624.5,384.5 623.7,381.8 621.5,377 620.6,374.5 618.9,364.5 618.2,362 616.9,358.5 620.4,352.6 623.9,346.9 
	626.7,340.6 629.7,334.7 630.2,333.5 630.9,330.7 632,320.6 632.5,317.8 633.4,315.3 635.1,312.3 637.1,306.9 638.3,304.3 
	639.8,302 643.2,297.7 643.3,287.9 643.5,284.7 644,281.5 644.8,278.7 648.2,270.2 648.1,270.1 "/>
</svg>
