<?xml version="1.0" encoding="utf-8"?>
<!-- Generator: Adobe Illustrator 24.2.3, SVG Export Plug-In . SVG Version: 6.00 Build 0)  -->
<svg version="1.1" id="Layer_1" xmlns="http://www.w3.org/2000/svg" xmlns:xlink="http://www.w3.org/1999/xlink" x="0px" y="0px"
	 viewBox="0 0 800 533" style="enable-background:new 0 0 800 533;" xml:space="preserve">
<style type="text/css">
	.st0{fill:#F2933D;stroke:#000000;stroke-width:0.4;stroke-miterlimit:9;}
</style>
<polygon class="st0" points="684.5,361.1 682.5,358.4 681.5,356.3 680.1,353.2 678.8,351.1 676.6,348.3 670.7,342.1 668.5,339.2 
	667.4,337.1 667,335.9 666.5,333.5 666.4,329.8 666.6,324.6 666.4,315.7 666.4,299.4 666.4,262.6 666.5,258.4 667,254.3 
	667.6,251.7 670.2,245.7 672.3,237.7 675.3,230.6 675.9,228 676.3,222.7 676.4,207.6 676.7,204.9 677.1,202.3 678,199.8 
	680.4,195.1 682.2,190.9 684.6,186.2 685.1,185 685.8,182.5 686.1,179.9 686.3,175.9 686.3,165.1 636.3,165.1 628.1,164.9 
	625.5,164.5 623,163.8 617.1,161.2 614.6,160.5 610.7,160.1 598.6,159.8 594.7,159.2 592.3,158.3 587.8,155.8 583.7,153.9 
	579.2,151.4 578,150.9 575.5,150.2 572.9,149.9 568.9,149.7 547.3,149.9 542.1,149.3 539.6,148.6 537.2,147.3 529.9,141.6 
	525.9,139.3 523.9,137.9 522.1,136 520.8,133.8 520,131.6 519.5,129.4 512.4,128.9 504.5,125.4 501,124.6 495.1,124.1 491.7,123.5 
	489.6,122.7 484.8,120.4 481.3,119.6 477.6,119.3 473.8,119.2 453.6,119.3 449.9,119 447.5,118.5 446.4,118.1 444.3,116.9 
	436.7,110.8 430.7,107.4 424.2,101.9 422.1,100.6 421.1,100 419.9,99.6 417.5,99.1 413.8,98.7 406.1,98.7 398.5,98.8 394.8,99.3 
	392.4,99.9 391.4,100.3 386.7,102.9 382.5,104.8 376.9,108.1 372.7,109.9 367.1,113.1 362.9,115 360.8,116.3 358.9,117.9 356,120.6 
	353.3,123.5 350.8,126.5 348.7,129.7 346.2,134.9 342.9,139.4 339.6,144 337.1,149.1 335.1,152.2 331.8,156.1 325.6,162.5 
	322.8,165.1 320,167.5 318,168.9 312.9,171.6 306.3,176.9 304.3,178.3 303.2,178.8 302,179.2 299.5,179.8 294.4,180.1 261.4,179.7 
	256.4,179.8 254.1,180.2 252.1,181 251.2,181.7 250.7,182.4 249.6,185 245.4,184.7 241.5,184 239.4,183.3 235.5,181.3 233.4,180.6 
	231.1,180.1 227.6,179.9 224,180.1 221.7,180.6 219.6,181.4 214.9,183.8 212.6,184.4 209.1,184.9 204.4,184.7 201,183.9 
	195.2,181.1 193,180.4 187.4,179.1 185.3,178.3 180.5,175.9 176.1,174.7 171.2,169.7 168.6,167.5 166.7,166.3 164.7,165.4 
	161.4,164.6 162.2,168 163,170.1 164.2,172 166.3,174.7 171.2,179.8 172,183.2 172.9,185.5 174.2,187.5 178.8,193.3 180.1,195.4 
	183.2,202.3 183.7,204.2 183.8,205.2 183.7,206.2 183.1,208 180.1,214.9 177.9,218.7 177,220.7 176.3,223.1 176,226.7 176,230.4 
	176.6,234 177.4,236.2 179.7,241.1 180.3,243.4 180.7,247.1 181.1,253 175.3,257.3 168.8,263 166.8,264.3 165.7,264.9 163.3,265.6 
	160.8,265.9 148.1,266.1 145.6,266.3 143.2,266.8 141,267.5 137.2,269.4 135,270.1 132.5,270.6 126.1,271.3 122.4,272.2 
	120.4,273.2 113,277.9 112.4,282.9 112.1,288.9 112,326.2 112.4,335.1 112.8,338 113.6,341.1 117,350.7 118.1,352.7 119.5,354.4 
	120.3,355.1 122.2,356.1 123.3,356.4 125.5,356.5 127.6,355.9 132.2,353.5 134.3,352.7 139.9,351.2 141.8,350.4 144.4,348.9 
	146.1,348.2 148.1,348.1 149.1,348.4 150,349 150.6,349.7 151.1,350.6 152.6,356.6 154.7,361.7 155.4,363.9 155.9,366.4 
	156.5,373.1 157,375.7 157.7,378 159.6,382 160.3,384.3 160.8,386.8 161.1,390.8 161,396.1 160.6,400 159.9,402.5 157.7,407.5 
	156.9,409.8 156.4,412.4 155.4,419.2 154.9,421.4 164.8,418.8 189.5,412.4 197.8,407.7 203,404.6 216.4,399.7 223.6,394.1 
	232.3,389.2 234.5,386.5 237.7,379.4 239,377.9 243.1,373.3 247.9,368.8 252.1,366 257.7,362.1 261,359 265.6,351.2 268.4,344.6 
	269.7,343.4 271.1,342.9 273.5,343.7 274.4,344.4 274,345.2 273.8,347.9 272.3,352 269.1,358.2 268.9,359.7 269.8,361.1 
	271.9,361.4 274.4,359.7 278.5,359.8 281.3,360.5 284.9,363.5 287.7,363.8 294,359.6 295.7,362.3 296.7,366.5 297.8,367.8 
	298.1,368.1 301.5,369.6 302.6,370.1 304.7,375.2 307.1,377.3 311.9,378.9 314.4,382.8 314.9,386.9 313.7,390.2 308.8,395 
	307.2,401 307.8,405.8 311.1,415.3 311.8,417.3 314.1,421.1 315.3,423 316.2,426.7 316.5,434.3 320.2,430.6 323.2,430.7 
	326.7,432.9 327,433.1 329.5,433.1 332.2,431.3 337.1,429.8 339.7,427.8 342.2,427 343.1,426.7 343.9,426.5 344.9,426.2 
	345.9,425.4 347.4,424.3 348.1,423.8 350.7,422.8 351.9,422.5 355.8,422.6 359,423.6 361.2,423.8 363.5,424 365,423.6 366.6,422 
	369.7,418.8 372.9,417.1 377.5,417.2 382,417.4 387.3,418.6 390.9,417.8 391.4,414.5 392.4,407.8 394.4,403.9 398.9,399 400.7,396 
	401.3,392.2 401.4,391.3 402.5,388.7 404.2,387.4 407.4,385 410.8,381.1 412.7,376.9 413.9,371.6 414,371.1 414.5,368.9 
	414.8,367.8 418,364.3 418.2,364.2 418.4,364.2 419.2,364.2 421.6,364.1 422.9,361.9 424.1,359.7 426.6,357.6 427.4,355.2 
	427.3,355 426.3,351.5 426,350.2 426.1,348.9 427,348.4 427.8,348 429,347.8 435.1,347.1 437.6,345.8 437.8,345.7 438,345.6 
	438.4,345.4 438.8,345 439.2,344.7 440.5,343.4 441.3,340.6 441.2,340.2 440.9,339.1 440.5,337.6 439.6,336.3 439.2,335.7 
	436.4,331.6 437.5,330.4 442.8,329.3 450.6,326.7 454,323.8 454.3,323.4 454.6,322.8 456.9,318.8 458.7,317.5 460.1,317.3 
	464.6,318.7 467.8,319.6 469.2,320.1 470.3,321.6 471,323.6 472.1,327.1 472.8,328.9 475.3,330.9 481.1,330.7 482.9,331.3 
	485.8,334.3 487.3,334.9 487.5,334.9 490.9,335.8 495.6,337 498.7,337.7 504.3,340.3 511.4,343.5 513.5,343.8 515.7,344.1 
	517,343.7 520.2,340.7 525.1,339 530.9,336.9 533.2,334.4 533.7,333.1 534.2,332 535.7,328.3 536.8,327.1 539.1,326.8 546.6,325.9 
	554.3,323.4 556.2,323.2 558.9,323 559.8,322.9 560.6,322.5 566.5,320 569.3,320.5 570.3,320.7 570.5,320.8 572,320.5 572.6,320.3 
	573,320.3 579,319 580,319.7 582.8,325.5 583.8,326.3 585.8,326.5 592.3,327.3 599.1,331.8 600.8,332.3 606.5,331.9 607.1,332.1 
	610.4,335.7 615.7,339.6 616.6,340.9 618.6,344 622.4,345 626.2,346 630,349.1 630.7,349.7 631.5,349.6 631.7,348.5 632.8,344.4 
	633.6,343.1 636.3,340.8 637.4,339.7 642,338 645.2,338.8 647.2,340.5 649.7,342.6 653,347.5 688,365 "/>
</svg>
