<?xml version="1.0" encoding="utf-8"?>
<!-- Generator: Adobe Illustrator 24.2.3, SVG Export Plug-In . SVG Version: 6.00 Build 0)  -->
<svg version="1.1" id="Layer_1" xmlns="http://www.w3.org/2000/svg" xmlns:xlink="http://www.w3.org/1999/xlink" x="0px" y="0px"
	 viewBox="0 0 800 533" style="enable-background:new 0 0 800 533;" xml:space="preserve">
<style type="text/css">
	.st0{fill:#F2933D;stroke:#000000;stroke-width:0.4;stroke-miterlimit:9;}
</style>
<polygon class="st0" points="666.8,141.9 664.5,140.9 663.4,140.2 659.7,137.2 658.6,136.5 658,136.2 657.4,135.9 656.1,135.7 
	652.2,135.3 650.9,135 649.7,134.6 647.1,133.3 645.8,133 642.7,132.3 641.5,131.8 638.9,130.3 636.6,129.3 634,127.8 632.8,127.4 
	630.9,127 626.7,126.6 624.2,127.2 622.9,127.6 621.4,128.4 618.5,130.3 617.4,130.6 615.4,131.6 614.4,132 613.1,132.2 
	612.5,132.1 611.3,131.8 608.8,130.4 606.5,129.4 603.3,127.5 601,126.4 599.5,125.4 596.6,122.9 595.6,122.2 594.5,121.6 
	592.8,120.8 589.7,119 587.4,117.9 586.3,117.2 584.4,115.6 581.9,113.1 580.3,111.7 578.7,110.6 576.5,109.5 575.5,108.8 
	574.7,107.9 574.4,107.4 573.8,106.2 573.5,104.8 573.4,103.4 573.4,97.5 573.3,95.3 572.9,93.3 571.6,90.5 571.1,88.5 570.9,86.4 
	570.7,80.5 570.5,77.6 570.2,76.3 568.9,73.5 568.5,72.2 568.3,70.8 567.9,67.1 567.6,65.7 567.2,64.4 566.2,62.2 565.8,60.9 
	565.5,59.5 565.2,55.8 564.9,54.3 564.5,53.1 563.3,50.3 562.6,47.7 562.5,44.3 562.1,42.3 561.6,41.2 560.5,39 559.2,36 557.2,32 
	554,34.3 552,36.1 542.8,45.6 536,52.7 534.5,54.1 533.4,55 532.3,55.6 531.7,55.8 530.4,56.1 529,56.2 525,56.3 523.1,56.5 
	521.8,56.8 519.1,58.1 518,58.5 516.7,58.7 512.8,59.1 511.5,59.4 510.9,59.6 510.3,59.9 509.2,60.6 507.7,61.9 500.3,69.7 
	498.8,71.1 497.8,71.9 496.7,72.5 496.1,72.8 492.9,73.5 491.7,73.8 489.1,75.2 488.5,75.4 487.3,75.7 486,75.8 484.7,75.8 
	483.4,75.5 482.8,75.2 480.2,73.8 478,72.7 477,71.9 476.2,71 475.5,70 474.5,67.7 472.7,64.4 471.8,62 470.3,59.3 469.1,56.3 
	467.3,53.1 466.4,50.6 465.5,48.4 464.6,46.1 461.6,47.9 460.4,48.8 458.7,50.2 456.7,52.3 455.2,53.9 454.4,55.1 453.7,56.3 
	453.3,57.8 453.2,59.3 453.1,61.5 453.2,68.4 453,69.8 452.7,71.1 452.5,71.7 451.8,72.6 450.1,73.9 448.9,75.2 448.3,76.2 
	448,76.9 447.7,78.3 447.6,80.5 447.7,83.5 448,85.7 448.6,88.4 446.3,89 442.8,90.3 441.8,90.9 440.8,91.6 437.5,94.5 436.5,95.1 
	434.2,96.3 433.4,96.9 432.5,97.7 430.8,101.1 429.6,103.3 429.1,104.4 428.6,106.6 428.2,110.2 428,111.7 427.6,113 426.3,115.7 
	425.7,118.3 423,118.1 421.1,117.8 419.9,117.4 417.8,116.4 416.6,116 415.3,115.7 411.4,115.2 410.2,115 409,114.5 406.3,113.3 
	405,112.9 402.9,112.7 397.2,112.6 395.1,112.4 393.1,111.9 390.4,110.7 388.6,110.1 385.8,109.8 380.1,109.7 378.7,109.6 
	377.3,109.4 376.1,108.9 373.5,107.5 371.2,106.4 368.1,104.6 365.8,103.5 363.2,102 362,101.6 360.7,101.4 358.8,101.5 
	357.5,101.8 356.9,102 354.3,103.5 352,104.5 348.9,106.4 346,107.7 340.7,111.3 337.1,108.6 335.1,107.6 333.1,107 329.5,106.6 
	328.2,106.3 326.8,105.9 324.9,105 323.6,104.5 321.4,104.1 319.2,104 308,104 305.3,101.2 303.7,103.2 303,104.3 302.4,105.5 
	301.5,108 297.2,112.3 295.5,114.4 294.8,115.5 293.7,117.9 292.6,120 292.1,121.2 291.9,121.8 291.7,123.2 291.9,125.2 
	292.2,126.4 293.5,129.1 293.9,130.3 294.1,131 294.2,132.3 294.1,133.6 294,134.3 293.6,135.5 292.2,138.2 291.1,140.6 
	289.4,143.9 288.1,146.8 286,150.4 285.4,151.4 284.5,152.1 281,154.2 278.1,155.5 274.9,157.2 273.7,157.5 270.5,158.2 
	269.3,158.6 266.7,159.9 265.4,160.3 262.3,161 261.1,161.4 258.4,162.8 257.2,163.1 254.7,163.6 253.5,164 250.3,165.8 246,167.6 
	245,167.8 244.5,167.8 243.5,167.4 241.1,166.2 224.8,166.2 220.1,166 217.9,165.5 214,163.9 209.4,162.8 208.1,162.3 205.7,161 
	199.5,164.8 198.2,165.5 196.2,166 192.6,166.4 191.2,166.7 190,167.1 187.3,168.3 185.9,168.7 183.6,168.9 179.8,169 167.3,168.9 
	161.8,168.7 161.2,170.3 159.6,174.4 159,175.5 157.4,177.4 157.7,178.7 158.1,179.9 158.7,180.9 159.5,181.8 160.4,182.6 
	162.6,183.7 163.7,184.4 167,187 168.1,187.8 170.3,188.9 171.3,189.6 172.2,190.4 172.9,191.4 173.5,192.5 173.7,193.8 
	174.1,197.8 174.3,199.2 174.6,200.4 175.8,203.2 176.7,207 177.1,208.2 177.8,209.3 179.1,210.5 180.1,211.2 182.3,212.3 
	183.4,213.1 184.5,214 185.9,215.5 186.6,216.6 186.9,217.3 187.2,218 187.4,219.4 187.6,220.9 187.6,223.1 187.5,225.3 
	187.3,227.5 187,228.9 186.7,230.1 188.7,231 189.9,231.6 191,232.4 192.9,234 190.2,236.9 189.5,239.4 188.3,242.2 187.9,243.5 
	187.6,244.9 187.2,249.3 187,250 186.6,251.3 185.2,254.1 184.4,255.9 183.8,257 183,258.2 180.8,260.8 179.7,262.5 178.6,264.9 
	177.5,267 177,268.2 176.6,269.5 176.5,270.8 176.4,272.9 176.4,276.4 173.7,279.3 171,282.1 169.3,284.1 168.7,285.2 167.9,287.1 
	167.4,288.1 166.3,289.6 164.1,292 160.4,295.8 159,297.1 157.5,298.2 156.5,298.8 154.7,299.6 153.2,300.6 150.8,302.8 144.9,309 
	142.6,311.2 141.6,312 140.5,312.6 138.7,313.5 137.7,314 136.2,315.1 134.8,316.5 133.6,318 133,319 132,321.4 130.7,324.1 
	130.4,324.9 130.2,325.8 133.9,328.6 135.5,329.6 136.8,329.9 139.9,330.5 143.5,331.4 145.5,335.5 146.5,337.9 147,339 
	148.2,340.6 151.9,344.7 153.2,346.3 153.9,347.4 154.9,349.7 156,351.4 157.2,352.9 160,355.9 164.7,360.7 166.7,362.6 
	168.2,363.7 170.5,364.7 173.2,366.2 173.7,366.4 174.9,366.8 176.7,367 179.2,367 182.4,366.9 185.2,366.7 188.6,366.9 192.5,367 
	216.6,367.1 220.4,366.9 221.8,366.6 223.2,366.1 225.8,364.8 228.6,363.5 232.5,361.3 235,361.6 236.2,362 237.3,362.5 
	239.4,363.7 241.7,364.8 243.8,366 244.9,366.5 246.1,366.8 248.1,366.9 249.3,366.7 250,366.5 252.6,365.2 253.8,364.7 256.9,364 
	258.1,363.6 261.3,361.9 263.6,360.9 266.8,359 269.1,358 271.7,356.6 272.9,356.1 274.3,355.9 276.4,355.7 280,355.7 284.2,355.8 
	301.5,355.7 303.8,355.8 306,356 307.4,356.4 308.1,356.6 310.6,358 312.9,359.1 314.1,359.9 317.2,362.1 319.4,362.9 321.5,363.8 
	323.4,364.5 324.4,365.1 324.9,365.4 326.4,366.6 328.7,368.9 330.4,370.9 331.5,372.4 332,373.5 332.8,375.4 334.6,378.6 
	335.5,381 336.2,382.5 336.5,383.6 336.6,384.1 336.5,384.6 336.4,385.2 335.4,387.7 334.9,389.7 334.3,392.3 333,395.1 
	332.6,396.3 332,399.5 331.6,400.8 329.9,404.1 329,406.5 327.3,409.8 326.9,411.1 326.3,414.3 325.8,415.5 324.6,418.3 
	324.2,419.6 323.5,422.8 323.1,424 321.8,426.8 321.5,428 321,430.6 320.6,431.9 318.9,435.2 318,437.6 316.3,440.9 315.9,442.2 
	315.4,444.8 315.1,446 313.6,449.4 313.2,450.7 312.5,453.9 312.1,455.1 310.8,457.9 310.2,460.4 309.8,462.4 309.3,463.6 
	308,466.3 307,468.7 305.2,471.9 304.2,474.3 303,476.5 302.6,477.6 302.1,479.8 301.8,485.6 301.5,487.8 301.1,489 299.8,491.8 
	298.7,495.6 297.8,497.9 302.5,497.1 303.8,496.8 305,496.4 307.7,495 312.6,493.7 315.3,492.4 316.5,492 318.6,491.7 322.9,491.5 
	325,491.2 326.3,490.9 329,489.6 330.2,489.1 332.1,488.8 334.1,488.8 335.4,488.9 336.7,489.1 337.9,489.5 340.5,490.9 
	341.7,491.2 344.3,491.8 345.5,492.2 348.7,493.8 351,494.9 352.1,495.7 353.7,497 357.5,501 359.6,500.4 363.9,499.6 365.2,499.1 
	367.8,497.9 369.3,497.5 370.9,497.3 374.8,497.2 392.4,497.3 395.6,497.1 399.1,496.7 400,495.8 400.8,495.2 401.8,494.8 
	405.1,494.1 406.2,493.6 407.2,492.9 409.1,491.2 415.5,484.6 416.9,483.2 418.3,481.9 419.8,480.9 422.1,479.8 423.2,479.1 
	424.6,477.9 428.3,474.3 429.8,473.1 430.8,472.4 432.6,471.6 433.6,471.1 435.1,469.9 436.6,468.6 437.9,467.2 439.2,465.8 
	440,464.8 441,463.2 442,460.8 442.7,459.7 443.9,458.2 445.2,456.7 447.4,454.5 448.9,453.4 449.9,453 450.4,452.9 451.2,452.9 
	452,450.5 453.2,446.7 454.5,444 454.9,442.7 455.2,440.5 455.2,438.2 455.1,436.8 454.7,435.3 453.2,432 451.9,426.9 450.3,423.6 
	449.3,421.2 447.9,418.5 447.3,416.5 447.1,415.1 447,412.9 447.1,408.4 447.5,406.2 448.4,403.1 448.9,402.9 449.5,402.4 
	452.8,396.9 453.7,396.1 454.9,395.8 456.1,395.7 457.3,395.9 458.4,396.3 460.5,397.4 461.7,397.8 463.1,398.1 464.6,398.3 
	467.7,398.4 472.4,398.4 476.3,398.3 478.7,398 482.7,398.4 486.1,398.4 488.8,398.3 490.7,397.8 491.8,397.3 493.9,396.1 
	496.2,395.1 498.8,393.5 501.7,392.2 504.8,390.4 507.1,389.4 510.3,387.6 512.6,386.6 515.8,384.8 517.8,384.2 521.9,384.2 
	524.1,384.1 526.2,383.6 529.5,382.1 530.9,381.8 533.7,381.5 538.6,381.4 556,381.6 558.2,381.5 560.4,381.3 561.9,380.9 
	562.5,380.6 565.1,379.3 567.4,378.2 568.6,377.4 572.9,374.3 573.8,372.6 574.6,371.5 576,370 577,369 578.7,367.8 581,366.7 
	583.6,365.3 584.8,364.9 586.8,364.6 589.5,364.5 593.4,364.6 596.5,360 597.2,358.7 599.9,353 600.3,350.7 600.5,346.7 
	600.5,306.5 600.6,302.4 601,298.6 600.1,294.7 599.7,293.5 598.7,291.3 598.3,290 598,288.6 597.6,284.9 597.2,282.8 595.7,279.4 
	594.4,274.3 592.9,271 592.6,269.6 592.4,268.2 592.3,263.8 592.3,261.6 592.5,259.4 593,257.3 594.2,254.5 594.8,252.6 595,251.2 
	595.3,246.7 595.6,244.5 595.1,240.1 595.1,236.6 595.3,233.8 595.5,232.5 595.8,231.8 596.1,231.2 596.8,230.1 598.9,227.4 
	599.7,226.3 600.3,225.1 601.4,222.7 602.6,220.6 603.6,218.3 604.2,217.2 605,216.3 606,215.6 607.1,215.1 608.9,214.6 
	608.9,211.9 609.2,209.9 609.7,208.8 610,208.2 610.9,207.3 611.9,206.7 613.2,206.3 614.6,206.1 618.9,206.1 621,205.9 
	622.4,205.6 624,204.9 627,203.1 627.8,202.3 629.2,199.9 629.6,198.9 629.8,197.7 629.7,197.1 629.5,196.5 628.8,195.4 628,194.4 
	627,193.5 625.9,192.9 625.2,192.6 624,192.4 622.7,192.6 621.6,193.1 619.6,194.1 618.3,194.5 616.2,194.7 611.9,195 609.8,195.3 
	608.6,195.8 605.9,197.1 604,197.6 602.1,197.8 600.1,197.8 598.8,197.5 598.2,197.3 597.1,196.6 596.3,195.7 595.9,195.2 
	595.4,194 595.3,193.3 595.2,192 595.5,190 595.9,188.8 597.2,186.1 597.6,184.8 598.2,182.2 598.6,181 599.1,179.8 602.2,174.7 
	603.7,170.1 604.2,169 604.6,168.5 605.8,167 607.1,165.6 608.5,164.4 610.3,163 613.8,163.5 618.9,163.8 621,164.1 622.4,164.4 
	625,165.6 626.3,166.1 627.8,166.4 629.3,166.5 632.3,166.6 656.3,166.7 658.6,166.6 660.8,166.1 662.1,165.5 664.7,163.8 
	665.6,163 665.9,162.4 666.1,161.8 666.4,160.5 667,156.3 667.4,155 668.3,152.9 668.8,151.5 669,150 669.8,143.7 "/>
</svg>
