<?xml version="1.0" encoding="utf-8"?>
<!-- Generator: Adobe Illustrator 24.2.3, SVG Export Plug-In . SVG Version: 6.00 Build 0)  -->
<svg version="1.1" id="Layer_1" xmlns="http://www.w3.org/2000/svg" xmlns:xlink="http://www.w3.org/1999/xlink" x="0px" y="0px"
	 viewBox="0 0 800 533" style="enable-background:new 0 0 800 533;" xml:space="preserve">
<style type="text/css">
	.st0{fill:#F2933D;stroke:#000000;stroke-width:0.4;stroke-miterlimit:9;}
</style>
<polygon class="st0" points="626.9,93.3 623.6,90.5 621.9,89.3 621,88.8 618,87.6 616.5,86.8 615.2,85.6 614.6,84.8 614.3,84 
	614.1,83 614.3,82 614.6,81.1 615.8,79.7 617.3,78.7 620.8,77.2 620.1,77.2 620.1,77.1 619.4,77.1 619.4,77 619.2,77 619.2,77.1 
	619.1,77.1 619.1,77.2 618.9,77.2 618.9,77.3 618.8,77.3 618.8,76.6 618.9,76.6 618.9,76.4 619,76.4 619,75.8 618.9,75.8 
	618.9,75.7 619,75.7 619,75.5 618.9,75.5 618.9,75.4 617.4,75.4 617.4,75.1 617.2,75.1 617.2,75 617.2,75 617.2,74.9 617.1,74.9 
	617.1,74.8 617,74.8 617,74.6 616.9,74.6 616.9,74.5 616.8,74.5 616.8,74.3 616.6,74.3 616.6,74.2 616.6,74.2 616.6,74.1 
	616.5,74.1 616.5,74 616.4,74 616.4,73.7 616.6,73.7 616.6,73.6 616.8,73.6 616.8,73.4 617.3,73.4 617.3,73.3 617.4,73.3 
	617.4,72.9 617.2,72.9 617.2,72.8 617.1,72.8 617.1,72.6 617,72.6 617,72.3 616.9,72.3 616.9,72.2 616.6,72.2 616.6,72.1 
	616.4,72.1 616.4,71.8 616.1,71.8 616.1,71.7 615.9,71.7 615.9,71.6 615.8,71.6 615.8,71.5 615.7,71.5 615.7,71.3 615.5,71.3 
	615.5,71.2 615.5,71.2 615.5,71 615.3,71 615.3,70.3 615.4,70.3 615.4,70.1 615.5,70.1 615.5,70 615.7,70 615.7,69.9 616.1,69.9 
	616.1,69.8 616.3,69.8 616.3,69.7 616.6,69.7 616.6,69.6 616.6,69.6 616.6,69.5 616.7,69.5 616.7,69.3 616.6,69.3 616.6,69.2 
	616.6,69.2 616.6,69.1 616.3,69.1 616.3,69 616.1,69 616.1,68.8 616,68.8 616,68.5 615.9,68.5 615.9,68.2 615.8,68.2 615.8,67.8 
	615.7,67.8 615.7,67.5 615.5,67.5 615.5,67.8 615.2,67.8 615.2,67.6 615,67.6 615,67.5 614.6,67.5 614.6,67.4 614,67.4 614,67.3 
	613.8,67.3 613.8,67.1 612.5,67.1 612.5,66.8 612.4,66.8 612.4,66.7 612.1,66.7 612.1,66.8 611.9,66.8 611.9,66.7 611.1,66.7 
	611.1,66.6 611,66.6 611,66.4 610.7,66.4 610.7,66.2 610.8,66.2 610.8,65.9 610.9,65.9 610.9,65.7 610.9,65.7 610.9,65.1 
	610.9,65.1 610.9,65 610.8,65 610.8,64.9 610.7,64.9 610.7,64.8 610.6,64.8 610.6,64.7 610.7,64.7 610.7,64.6 610.4,64.6 
	610.4,64.5 609.4,64.5 609.4,64.3 609.3,64.3 609.3,64.2 609,64.2 609,64.1 608.4,64.1 608.4,64.2 608.3,64.2 608.3,64.3 607,64.3 
	607,64.5 606.9,64.5 606.9,64.6 606.4,64.6 606.4,64.5 606.2,64.5 606.2,64.7 605.9,64.7 605.9,64.6 605.8,64.6 605.8,64.5 
	605.7,64.5 605.7,64.3 605.6,64.3 605.6,64 605.6,64 605.6,64 602.2,64.3 600.1,64.7 598.1,65.4 593.5,67.6 585.2,69.7 579.7,72.3 
	576.5,73.1 569.9,73.8 567.7,74.2 565.8,74.9 561.2,77 559.1,77.6 554.9,78.5 552.8,79.2 547.5,82 543.5,83.7 538.2,86.8 
	534.3,88.5 529.1,91.6 525.2,93.4 520.7,95.8 518.7,96.6 516.4,97 512.8,97.3 508,97.3 503.2,97.1 500.9,96.8 498.6,96.4 
	496.6,95.6 493.2,93.9 491.2,93.4 489.2,93.3 487.2,93.8 479,97.9 477,99.2 474.3,101.6 466.4,109.4 464.5,110.9 459.8,114.2 
	462.1,121 460.8,126.1 459.5,133.8 458.8,135.8 456.6,140.5 456,142.6 455.2,147 454.5,149.1 451.8,154.7 450.1,158.7 447.2,164.2 
	445.4,168.2 442.2,173.7 439.3,179.3 433.8,187.1 431.5,192 430.4,193.8 425.2,200.5 422.6,204.7 422,205.5 420.5,206.7 
	415.5,209.8 413.7,210.7 412.6,211 410.4,211.5 407.1,211.6 403.7,211.4 401.5,210.9 400.5,210.5 399.5,210 397.8,208.8 
	391.5,203.1 386.6,199.2 385.6,197.5 384.3,195.5 379.9,190 378.6,188.1 376.3,183.1 375.1,181.2 373.7,179.3 372.1,177.6 
	370.4,176 368.6,174.6 366.6,173.6 362.8,171.8 358.4,169.2 354.5,167.6 349.1,164.7 347,164.1 342.8,163.2 340.7,162.6 
	335.3,159.9 333.2,159.4 331,159.1 327.6,158.9 321.8,159 297.2,158.8 289.7,159.1 287.5,159.4 285.4,159.9 279.9,162.5 
	277.8,163.2 273.7,164 261.5,163.5 256.7,163.6 253.1,163.8 250.7,164.2 248.5,164.8 244,167 241.9,167.7 238.4,168.3 234.7,168.4 
	231.2,167.8 229.1,166.9 226.5,165.2 221.5,161.1 220.6,167.2 220.3,171.9 220.4,177.8 221,181.2 221.7,183.3 224.1,187.8 
	225.9,191.8 227.1,193.7 231.4,199.1 232.7,201.1 233.2,202.1 233.9,204.4 234.2,206.8 234.4,210.5 234.5,215.5 234.3,219.2 
	234.1,221.6 233.6,224 232.7,226.2 231.4,228.1 226.5,234.5 223.5,240.2 221.6,242.6 219.6,244.8 214.7,244.9 212.5,245.3 
	210.5,246 206.1,248.4 202.2,250.1 196.9,253.2 192.9,254.8 187.6,257.8 184.7,259.1 183,260.2 181.4,261.5 180.1,263.1 179,264.9 
	177.7,267.9 175.4,272.5 174.7,274.5 174.3,276.8 174.2,279.1 174.1,287.4 176.2,287.8 178.2,288.5 180,289.5 181.5,290.9 
	182.7,292.6 183.7,294.5 185.5,299 186.1,300.8 186.1,301.7 185.8,303.5 182.6,310.9 179.6,316.3 177.9,320.4 175.1,325.9 
	174.4,328.1 173.5,332.4 172.9,334.6 170.8,339.2 170.1,341.3 169.5,344.9 169.4,348.6 169.2,372.6 169.4,377.6 170,381.2 
	170.4,382.3 171.5,384.4 177,391.7 179.3,396.6 180.4,398.4 182.4,400.9 186.4,405.4 192.5,406.4 198.6,406.7 204.6,406.7 
	207,406.5 209.3,406 211.4,405 213.3,403.7 215.9,401.5 221.6,395.8 223.3,394.4 225,393.2 228.9,391.3 234.2,388.2 238.1,386.5 
	241.6,384.5 243.4,383.6 245.6,383 248.9,382.5 252.2,382.6 255.5,383.2 257.4,384.1 259,385.4 260.4,387 261.4,388.9 265.5,399.7 
	265.8,404.6 265.5,408.5 265,410.9 263.1,415.4 262.3,417.8 261.8,420.5 261.5,424.5 261.4,459.4 261.8,469 261.9,469 261.9,468.8 
	262,468.8 262,468.7 262.2,468.7 262.2,468.6 262.3,468.6 262.3,468.5 262.5,468.5 262.5,468.4 262.6,468.4 262.6,468.2 
	262.7,468.2 262.7,468.1 262.7,468.1 262.7,468 262.9,468 262.9,467.9 263.2,467.9 263.2,467.8 263.2,467.8 263.2,467.7 
	263.8,467.7 263.8,467.8 264.3,467.8 264.3,467.7 264.4,467.7 264.4,467.6 264.4,467.6 264.4,467.4 264.5,467.4 264.5,467.3 
	264.8,467.3 264.8,467.2 264.9,467.2 264.9,467.1 265,467.1 265,467 265.1,467 265.1,466.9 265.2,466.9 265.2,466.8 265.3,466.8 
	265.3,466.7 265.4,466.7 265.4,466.5 265.5,466.5 265.5,466.4 265.5,466.4 265.5,466.2 265.6,466.2 265.6,466.1 265.7,466.1 
	265.7,466 265.9,466 265.9,466.1 266.5,466.1 266.5,466 267,466 267,465.9 267.6,465.9 267.6,465.7 267.8,465.7 267.8,465.6 
	267.9,465.6 267.9,465.5 267.9,465.5 267.9,465.3 268.4,465.3 268.4,465.2 269,465.2 269,465.1 269.3,465.1 269.3,464.9 
	269.6,464.9 269.6,464.8 269.7,464.8 269.7,464.7 269.9,464.7 269.9,464.6 270,464.6 270,464.5 270.3,464.5 270.3,464.4 
	270.6,464.4 270.6,464.5 270.9,464.5 270.9,464.4 271.2,464.4 271.2,464.3 271.3,464.3 271.3,464.4 271.4,464.4 271.4,464.3 
	271.7,464.3 271.7,464.2 271.8,464.2 271.8,463.9 271.9,463.9 271.9,463.7 271.9,463.7 271.9,463.6 272.1,463.6 272.1,463.5 
	272.3,463.5 272.3,463.4 272.6,463.4 272.6,463.2 272.8,463.2 272.8,463.1 272.9,463.1 272.9,463 273.1,463 273.1,463.1 
	273.6,463.1 273.6,463 273.9,463 273.9,463.1 274.1,463.1 274.1,463 274.2,463 274.2,462.9 274.3,462.9 274.3,462.8 274.5,462.8 
	274.5,462.9 274.7,462.9 274.7,463 275.2,463 275.2,463.1 275.7,463.1 275.7,463 276.1,463 276.1,463.1 277.4,463.1 277.4,463 
	277.9,463 277.9,463.2 278,463.2 278,463.1 278.3,463.1 278.3,463 278.4,463 278.4,462.9 278.9,462.9 278.9,463 279.4,463 
	279.4,462.9 279.5,462.9 279.5,462.8 279.9,462.8 279.9,462.7 280.9,462.7 280.9,462.6 281,462.6 281,462.4 281.2,462.4 
	281.2,462.3 281.7,462.3 281.7,462.2 281.7,462.2 281.7,462.3 281.8,462.3 281.8,462.2 282.1,462.2 282.1,462.1 282.3,462.1 
	282.3,462.2 282.6,462.2 282.6,462.1 282.9,462.1 282.9,462 283.3,462 283.3,462.1 283.5,462.1 283.5,462 284.5,462 284.5,461.9 
	284.6,461.9 284.6,461.8 284.9,461.8 284.9,461.7 285.2,461.7 285.2,461.5 285.4,461.5 285.4,461.4 285.6,461.4 285.6,461.3 
	286.2,461.3 286.2,461.2 286.4,461.2 286.4,461.3 286.5,461.3 286.5,461.4 286.9,461.4 286.9,461.3 287,461.3 287,461.4 287,461.5 
	286.9,461.5 286.9,461.7 286.8,461.7 286.8,462.2 286.9,462.2 286.9,462.1 287.1,462.1 287.1,462.2 287.2,462.2 287.2,462.1 
	287.3,462.1 287.3,462 287.5,462 287.5,461.9 287.4,461.9 287.4,461.7 287.5,461.7 287.5,461.5 287.4,461.5 287.4,461.3 
	287.5,461.3 287.5,461.2 287.5,461.2 287.5,461.1 287.5,461.1 287.7,461.1 288.1,461.1 288.1,461.2 288.3,461.2 288.3,461.3 
	288.4,461.3 288.4,461.4 288.5,461.4 288.5,461.3 288.7,461.3 288.7,461.2 288.9,461.2 288.9,461.1 289.2,461.1 289.2,461 
	289.3,461 289.3,460.9 289.9,460.9 289.9,460.7 290.2,460.7 290.2,460.6 291.2,460.6 291.2,460.7 291.7,460.7 291.7,460.9 
	291.8,460.9 291.8,460.7 292,460.7 292,460.6 292.1,460.6 292.1,460.5 292.2,460.5 292.2,460.3 292.6,460.3 292.6,460.2 
	292.7,460.2 292.7,460.1 292.9,460.1 292.9,459.9 293.9,459.9 293.9,459.8 294.5,459.8 294.5,459.7 294.7,459.7 294.7,459.6 
	295,459.6 295,459.5 295.2,459.5 295.2,459.6 295.3,459.6 295.3,459.5 295.5,459.5 295.5,459.6 295.8,459.6 295.8,459.5 
	296.1,459.5 296.1,459.4 296.8,459.4 296.8,459.3 297.2,459.3 297.2,459.2 297.5,459.2 297.5,459 297.7,459 297.7,458.9 
	297.9,458.9 297.9,458.8 297.9,458.8 297.9,458.7 298.1,458.7 298.1,458.6 298.2,458.6 298.2,458.5 298.4,458.5 298.4,458.4 
	298.5,458.4 298.5,458.2 298.6,458.2 298.6,458.1 298.9,458.1 298.9,458 299,458 299,457.9 299.1,457.9 299.1,457.8 299.5,457.8 
	299.5,457.7 299.6,457.7 299.6,457.6 299.7,457.6 299.7,457.4 299.8,457.4 299.8,457.3 300,457.3 300,457.2 300.1,457.2 
	300.1,457.1 300.3,457.1 300.3,457 300.7,457 300.7,456.9 300.9,456.9 300.9,456.8 301.3,456.8 301.3,456.6 301.4,456.6 
	301.4,456.5 301.4,456.5 301.4,456.4 301.5,456.4 301.5,456.3 301.6,456.3 301.6,456.2 301.8,456.2 301.8,456.1 301.9,456.1 
	301.9,456 302.1,456 302.1,455.9 302.2,455.9 302.2,455.5 302.8,455.5 302.8,455.4 303,455.4 303,455.3 303.2,455.3 303.2,455.2 
	303.7,455.2 303.7,455.1 303.7,455.1 303.7,454.9 303.8,454.9 303.8,454.8 304,454.8 304,454.7 304.1,454.7 304.1,454.6 
	304.4,454.6 304.4,454.5 305.1,454.5 305.1,454.4 305.3,454.4 305.3,454.3 305.6,454.3 305.6,454.1 306.8,454.1 306.8,454 
	307.5,454 307.5,453.9 307.7,453.9 307.7,453.8 307.8,453.8 307.8,453.6 307.8,453.6 307.8,453.5 307.9,453.5 307.9,453.4 
	308,453.4 308,453.2 308.1,453.2 308.1,453.1 308.2,453.1 308.2,452.9 308.3,452.9 308.3,452.7 308.4,452.7 308.4,452.6 
	308.4,452.6 308.4,452.4 308.5,452.4 308.5,452.3 308.6,452.3 308.6,452.2 308.7,452.2 308.7,452 308.8,452 308.8,451.9 
	308.9,451.9 308.9,451.6 308.9,451.6 308.9,451.4 309,451.4 309,451.1 309.1,451.1 309.1,451 309.2,451 309.2,450.9 309.3,450.9 
	309.3,450.6 309.4,450.6 309.4,450.5 309.5,450.5 309.5,450.3 309.5,450.3 309.5,450.2 309.6,450.2 309.6,450.1 309.7,450.1 
	309.7,449.9 309.8,449.9 309.8,449.7 309.9,449.7 309.9,449.6 310,449.6 310,449.5 310.1,449.5 310.1,449.3 310.1,449.3 
	310.1,449.1 310.2,449.1 310.2,449 310.4,449 310.4,448.9 310.5,448.9 310.5,448.8 310.7,448.8 310.7,448.7 310.8,448.7 
	310.8,448.6 311,448.6 311,448.5 311.2,448.5 311.2,448.4 311.4,448.4 311.4,448.2 311.7,448.2 311.7,448.1 311.9,448.1 
	311.9,448.2 312,448.2 312,448.1 312.2,448.1 312.2,448 312.4,448 312.4,447.9 312.6,447.9 312.6,447.8 313,447.8 313,447.7 
	313.6,447.7 313.6,447.6 313.8,447.6 313.8,447.4 313.9,447.4 313.9,447.3 314.1,447.3 314.1,447.2 314.2,447.2 314.2,447.1 
	314.3,447.1 314.3,447 314.5,447 314.5,446.9 314.8,446.9 314.8,446.8 315,446.8 315,446.5 315.1,446.5 315.1,446.4 315.2,446.4 
	315.2,446.3 315.3,446.3 315.3,446.1 315.3,446.1 315.3,446 315.4,446 315.4,445.8 315.6,445.8 315.6,445.7 315.7,445.7 
	315.7,445.6 315.8,445.6 315.8,445.5 315.9,445.5 315.9,445.4 315.9,445.4 315.9,445.3 316,445.3 316,445.2 316.1,445.2 
	316.1,445.1 316.2,445.1 316.2,444.9 316.3,444.9 316.3,444.8 316.5,444.8 316.5,444.7 316.5,444.7 316.5,444.6 316.8,444.6 
	316.8,444.5 317,444.5 317,444.4 317,444.4 317,444.3 317.3,444.3 317.3,444.1 317.5,444.1 317.5,444 317.6,444 317.6,443.9 
	318,443.9 318,443.8 318.3,443.8 318.3,443.9 318.6,443.9 318.6,443.8 318.9,443.8 318.9,443.7 319.1,443.7 319.1,443.6 
	319.2,443.6 319.2,443.5 319.3,443.5 319.3,443.3 319.3,443.3 319.3,443.2 319.4,443.2 319.4,443.1 319.5,443.1 319.5,443 
	319.6,443 319.6,442.9 319.7,442.9 319.7,442.8 319.8,442.8 319.8,442.7 320,442.7 320,442.6 320.1,442.6 320.1,442.7 320.3,442.7 
	320.3,442.6 320.4,442.6 320.4,442.4 320.6,442.4 320.6,442.3 321,442.3 321,442.2 321.3,442.2 321.3,442.1 321.7,442.1 321.7,442 
	321.8,442 321.8,441.9 321.9,441.9 321.9,441.8 322.2,441.8 322.2,441.6 322.2,441.6 322.2,441.5 322.3,441.5 322.3,441.4 
	322.5,441.4 322.5,441.3 322.7,441.3 322.7,441.2 322.8,441.2 322.8,441.1 323,441.1 323,441 323.2,441 323.2,440.8 324.1,440.8 
	324.1,441 324.5,441 324.5,440.8 325,440.8 325,441 325.4,441 325.4,440.8 325.5,440.8 325.5,440.7 325.6,440.7 325.6,440.6 
	325.7,440.6 325.7,440.5 325.7,440.5 325.7,440.6 325.8,440.6 325.8,440.5 326.6,440.5 326.6,440.4 326.8,440.4 326.8,440.3 
	326.9,440.3 326.9,440.2 327,440.2 327,440.1 327.2,440.1 327.2,439.9 327.3,439.9 327.3,439.8 327.4,439.8 327.4,439.7 
	327.5,439.7 327.5,439.6 327.6,439.6 327.6,439.5 327.7,439.5 327.7,439.3 327.8,439.3 327.8,439.1 327.9,439.1 327.9,438.8 
	328,438.8 328,438.3 328.1,438.3 328.1,438.2 328.3,438.2 328.3,438 328.5,438 328.5,437.9 328.6,437.9 328.6,437.8 328.7,437.8 
	328.7,437.7 328.8,437.7 328.8,437.6 328.9,437.6 328.9,437.4 329.1,437.4 329.1,437.1 329.2,437.1 329.2,436.8 329.3,436.8 
	329.3,436.5 329.4,436.5 329.4,436.4 329.6,436.4 329.6,436.2 329.7,436.2 329.7,436.1 329.8,436.1 329.8,436 329.8,436 
	329.8,435.8 329.9,435.8 329.9,435.6 330.4,435.6 330.4,435.5 330.7,435.5 330.7,435.4 331.1,435.4 331.1,435.3 331.3,435.3 
	331.3,435.2 331.4,435.2 331.4,435 331.5,435 331.5,434.9 331.7,434.9 331.7,434.7 332.1,434.7 332.1,434.6 332.2,434.6 
	332.2,434.5 332.4,434.5 332.4,434.4 332.5,434.4 332.5,434.3 332.6,434.3 332.6,434.1 332.9,434.1 332.9,434 333.2,434 
	333.2,433.9 333.5,433.9 333.5,433.8 333.8,433.8 333.8,433.7 334,433.7 334,433.6 334.1,433.6 334.1,433.5 334.2,433.5 
	334.2,433.3 334.3,433.3 334.3,433.2 334.4,433.2 334.4,433.1 334.4,433.1 334.4,433 334.5,433 334.5,432.9 334.6,432.9 
	334.6,432.7 334.8,432.7 334.8,432.5 335.1,432.5 335.1,432.4 335.2,432.4 335.2,432.3 335.5,432.3 335.5,432.2 335.7,432.2 
	335.7,432.1 335.8,432.1 335.8,432 335.9,432 335.9,431.8 336.1,431.8 336.1,431.6 336.3,431.6 336.3,431.5 336.7,431.5 
	336.7,431.4 336.7,431.4 336.7,431.3 337.1,431.3 337.1,431.2 337.2,431.2 337.2,431.1 337.3,431.1 337.3,431 337.5,431 
	337.5,430.8 337.6,430.8 337.6,430.6 337.7,430.6 337.7,430.5 337.7,430.5 337.8,430.5 337.8,430.4 337.9,430.4 337.9,430.2 
	338.1,430.2 338.1,430 338.2,430 338.2,429.9 338.4,429.9 338.4,429.8 338.4,429.8 338.4,429.7 338.7,429.7 338.7,429.6 339,429.6 
	339,429.5 339.2,429.5 339.2,429.4 339.4,429.4 339.4,429.3 339.6,429.3 339.6,429.1 339.8,429.1 339.8,429 340,429 340,428.9 
	340.1,428.9 340.1,428.8 340.2,428.8 340.2,428.7 340.3,428.7 340.3,428.6 340.5,428.6 340.5,428.5 340.7,428.5 340.7,428.3 
	340.9,428.3 340.9,428.2 341,428.2 341,428.1 341.1,428.1 341.1,428 341.2,428 341.2,427.9 341.4,427.9 341.4,427.7 341.7,427.7 
	341.7,427.5 341.8,427.5 341.8,427.4 341.9,427.4 341.9,427.3 342.1,427.3 342.1,427.2 342.2,427.2 342.2,427.1 343,427.1 
	343.1,427.1 343.1,427 343.1,427 343.1,427 343.1,427 343.1,426.9 343.1,426.9 343.2,426.9 343.3,426.9 343.3,426.8 343.3,426.8 
	343.6,426.8 343.6,426.6 343.7,426.6 343.7,426.5 343.9,426.5 343.9,426.4 344.1,426.4 344.1,426.3 344.2,426.3 344.2,426.2 
	344.2,426.2 344.2,426 344.3,426 344.3,425.8 344.3,425.7 344.4,425.7 344.4,425.7 344.4,425.7 344.4,425.6 344.5,425.6 
	344.5,425.5 344.6,425.5 344.6,425.3 344.8,425.3 344.8,425.2 344.8,425.2 344.8,425 344.9,425 344.9,424.9 345.2,424.9 
	345.2,424.8 345.3,424.8 345.4,424.8 345.4,424.6 345.4,424.6 345.5,424.6 345.7,424.6 345.7,424.5 345.8,424.5 345.8,424.4 
	345.9,424.4 345.9,424.3 346,424.3 346,424.1 346.1,424.1 346.1,424 346.5,424 346.5,423.9 346.5,423.9 346.5,423.8 346.7,423.8 
	346.7,423.7 346.8,423.7 346.8,423.6 347.1,423.6 347.1,423.5 347.2,423.5 347.2,423.3 347.7,423.3 347.7,422.9 347.7,422.9 
	347.7,422 347.8,422 347.8,421.9 347.8,421.4 347.9,421.4 347.9,421.3 348,421.3 348,421.1 348,420.8 348.1,420.8 348.1,420.6 
	348.3,420.6 348.3,420.5 348.3,420.5 348.3,420.5 348.3,420.4 348.4,420.4 348.4,420.4 348.4,420.3 348.6,420.3 348.6,420.2 
	348.8,420.2 348.8,420 348.9,420 348.9,419.9 349.1,419.9 349.1,420.2 349.6,420.2 349.6,420 349.7,420 349.7,419.6 349.8,419.6 
	349.8,419.4 349.9,419.4 349.9,419.2 350,419.2 350,419.1 350,419.1 350,419 350.2,419 350.2,418.8 350.3,418.8 350.3,418.7 
	350.4,418.7 350.4,418.6 350.5,418.6 350.5,418.5 350.6,418.5 350.6,418.1 350.6,418.1 350.6,418 350.7,418 350.7,417.1 
	350.6,417.1 350.6,416 350.7,416 350.7,415.7 350.8,415.7 350.8,415.4 350.9,415.4 350.9,415.3 351.1,415.3 351.1,415.2 
	351.2,415.2 351.2,415 351.2,415 351.2,414.9 351.3,414.9 351.3,414.7 351.4,414.7 351.4,414.6 351.5,414.6 351.5,414.3 
	351.5,414.2 351.5,414.2 351.6,414.2 351.6,414.2 351.6,414.1 351.6,414.1 351.7,414.1 351.7,413.9 351.7,413.9 351.8,413.9 
	351.8,413.9 351.8,413.8 351.8,413.7 352,413.7 352,413.7 352,413.6 352,413.3 352.1,413.3 352.1,413 352.2,413 352.2,412.7 
	352.3,412.7 352.3,412.5 352.3,412.5 352.3,412.4 352.4,412.4 352.4,412.3 352.5,412.3 352.5,412.2 352.6,412.2 352.6,412.1 
	352.7,412.1 352.7,412 352.8,412 352.8,411.9 352.9,411.9 352.9,411.7 352.9,411.7 352.9,411.6 353,411.6 353,411.5 353.1,411.5 
	353.1,411.5 353.1,411.4 353.1,411.4 353.2,411.4 353.2,411.3 353.5,411.3 353.5,411.2 353.5,411.2 353.5,411.1 353.6,411.1 
	353.6,411 353.9,411 353.9,410.7 354,410.7 354,410.6 354,410.6 354,410.4 354.1,410.4 354.1,410.3 354.3,410.3 354.3,410.2 
	354.5,410.2 354.5,409.8 354.6,409.8 354.6,409.6 354.6,409.6 354.6,408.9 354.6,408.9 354.6,408.7 354.6,408.7 354.6,408.5 
	354.6,408.2 354.6,408.2 354.6,407.7 354.6,407.7 354.6,407.4 354.6,407.4 354.6,407.3 354.6,407.3 354.6,407.1 354.7,407.1 
	354.7,406.9 354.8,406.9 354.8,406.6 354.9,406.6 354.9,406.5 355,406.5 355,406.3 355.1,406.3 355.1,406.1 355.2,406.1 
	355.2,405.7 355.2,405.7 355.2,405.3 355.3,405.3 355.3,404.9 355.4,404.9 355.4,404.8 355.5,404.8 355.5,404.6 355.6,404.6 
	355.6,404.5 355.7,404.5 355.7,404.2 355.8,404.2 355.8,404 355.7,404 355.7,403.1 355.6,403.1 355.6,402.9 355.7,402.9 
	355.7,401.9 355.6,401.9 355.6,401.7 355.7,401.7 355.7,401.2 355.8,401.2 355.8,401.1 355.8,401.1 355.8,400.7 356,400.7 
	356,400.6 356.2,400.6 356.2,400.5 356.3,400.5 356.3,400.3 356.4,400.3 356.4,400.2 356.6,400.2 356.6,400 356.7,400 356.7,399.9 
	356.8,399.9 356.8,399.7 356.9,399.7 356.9,399.6 357,399.6 357,399.2 357.1,399.2 357.1,399.1 357.2,399.1 357.2,398.9 
	357.3,398.9 357.3,398.8 357.5,398.8 357.5,398.6 357.6,398.6 357.6,398.3 357.7,398.3 357.7,398 357.9,398 358,398 358,397.9 
	358,397.8 358.1,397.8 358.1,397.7 358.1,397.5 358.1,397.5 358.2,397.5 358.2,397.3 358.4,397.3 358.4,397.2 358.5,397.2 
	358.5,397 358.7,397 358.7,396.9 358.9,396.9 358.9,396.6 359,396.6 359,396.5 359.4,396.5 359.4,396.4 359.5,396.4 359.5,396.3 
	359.6,396.3 359.6,396.2 359.8,396.2 359.8,396.1 360.1,396.1 360.1,395.9 360.3,395.9 360.3,395.8 360.4,395.8 360.4,395.7 
	360.5,395.7 360.5,395.6 360.6,395.6 360.6,395.5 360.8,395.5 360.8,395.4 360.9,395.4 360.9,395.3 361,395.3 361,395.1 361,395.1 
	361,395 361.3,395 361.3,394.9 361.4,394.9 361.4,394.8 361.6,394.8 361.6,394.7 361.7,394.7 361.7,394.6 361.8,394.6 361.8,394.5 
	362,394.5 362,394.4 362.1,394.4 362.1,393.9 362.2,393.9 362.2,393.6 362.3,393.6 362.3,393.4 362.4,393.4 362.4,393.2 
	362.5,393.2 362.5,393 362.7,393 362.7,392.9 362.7,392.9 362.7,392.8 362.9,392.8 362.9,392.6 363.4,392.6 363.4,392.5 
	363.7,392.5 363.7,392.4 363.8,392.4 363.8,392.2 363.9,392.2 363.9,392.1 364.1,392.1 364.1,392 364.3,392 364.3,391.9 
	364.4,391.9 364.4,391.6 364.5,391.6 364.5,391.4 364.6,391.4 364.6,391.3 364.7,391.3 364.7,390.9 364.8,390.9 364.8,390.8 
	365,390.8 365,390.5 365,390.5 365,390.3 365.2,390.3 365.2,390.1 365.3,390.1 365.3,390 365.5,390 365.5,389.9 365.6,389.9 
	365.6,389.7 365.7,389.7 365.7,389.5 366,389.5 366,389.4 366.1,389.4 366.1,389.2 366.2,389.2 366.2,389.1 366.2,389.1 
	366.2,388.9 366.4,388.9 366.4,388.8 366.6,388.8 366.6,388.7 366.7,388.7 366.7,388.6 366.8,388.6 366.8,388.4 366.9,388.4 
	366.9,388.3 367.1,388.3 367.1,388.2 367.2,388.2 367.2,388.1 367.3,388.1 367.3,388 367.4,388 367.4,387.8 367.6,387.8 
	367.6,387.6 367.8,387.6 367.8,387.5 367.9,387.5 367.9,387.4 367.9,387.4 367.9,387.3 368,387.3 368,387.2 368.1,387.2 
	368.1,386.7 368.4,386.7 368.4,386.4 368.5,386.4 368.5,386.2 368.5,386.2 368.5,386.1 368.7,386.1 368.7,385.9 368.8,385.9 
	368.8,385.7 368.9,385.7 368.9,385.6 369,385.6 369,385.5 369.1,385.5 369.1,385.3 369.1,385.1 369.2,385.1 369.2,384.9 
	369.3,384.9 369.3,384.7 369.4,384.7 369.4,384.6 369.7,384.6 369.7,384.2 369.7,384.2 369.7,384.1 369.9,384.1 369.9,383.9 
	370,383.9 370,383.7 370.2,383.7 370.2,383.6 370.2,383.6 370.2,383.4 370.4,383.4 370.4,383.3 370.6,383.3 370.6,383.2 
	370.7,383.2 370.7,383.1 370.7,383.1 371.2,383.1 371.2,383 371.4,383 371.4,382.9 371.5,382.9 371.5,383 371.6,383 371.6,382.9 
	371.8,382.9 371.8,382.8 371.9,382.8 371.9,382.6 372.2,382.6 372.2,382.5 372.3,382.5 372.3,382.4 372.4,382.4 372.4,382.3 
	372.6,382.3 372.6,382.1 372.6,382.1 372.6,382 372.7,382 372.7,381.6 372.8,381.6 372.8,381.1 373,381.1 373,380.9 373.1,380.9 
	373.1,380.7 373.1,380.7 373.1,380.6 373.1,380.5 373.3,380.5 373.4,380.5 373.4,380.6 373.5,380.6 373.5,380.5 373.7,380.5 
	373.7,380.4 373.7,380.4 373.7,380.3 374,380.3 374,380.1 374.1,380.1 374.1,380 374.3,380 374.3,379.8 374.4,379.8 374.4,379.7 
	374.6,379.7 374.6,379.5 374.9,379.5 374.9,379.3 375,379.3 375,379.2 375.3,379.2 375.3,379.1 375.4,379.1 375.4,379 375.5,379 
	375.5,378.9 375.8,378.9 375.8,378.8 375.9,378.8 375.9,378.7 376,378.7 376,378.6 376.4,378.6 376.4,378.4 376.5,378.4 
	376.5,378.3 376.6,378.3 376.6,378.2 376.7,378.2 376.7,378.1 377.2,378.1 377.2,378 377.3,378 377.3,377.9 377.8,377.9 
	377.8,377.6 377.9,377.6 377.9,377.5 378,377.5 378,377.4 378.1,377.4 378.1,377.3 378.2,377.3 378.2,377 378.3,377 378.3,376.8 
	378.4,376.8 378.4,376.7 378.7,376.7 378.7,376.6 378.8,376.6 378.9,376.6 378.9,376.5 379.1,376.5 379.1,376.4 379.4,376.4 
	379.4,376.3 379.5,376.3 379.5,376.2 379.7,376.2 379.7,376.1 380.1,376.1 380.1,375.9 380.2,375.9 380.2,375.8 380.3,375.8 
	380.3,375.9 380.5,375.9 380.5,375.8 380.7,375.8 380.7,375.7 380.7,375.7 380.7,375.6 381.1,375.6 381.1,375.5 381.2,375.5 
	381.2,375.4 381.3,375.4 381.3,375.1 381.7,375.1 381.7,375 381.8,375 381.8,374.7 381.9,374.7 381.9,374.6 382,374.6 382,374.5 
	382.1,374.5 382.1,374.3 382.3,374.3 382.3,374.2 382.4,374.2 382.4,374.1 382.6,374.1 382.6,374 382.7,374 382.7,373.8 383,373.8 
	383,373.7 383.1,373.7 383.1,373.5 383.2,373.5 383.2,373.4 383.5,373.4 383.5,373.3 383.5,373.3 383.5,373.2 383.6,373.2 
	383.6,373.1 383.8,373.1 383.8,373 383.9,373 383.9,372.9 384,372.9 384,373 384.1,373 384.1,372.9 384.1,372.9 384.1,372.6 
	384.4,372.6 384.4,372.5 384.5,372.5 384.5,372.4 384.7,372.4 384.7,372.3 384.9,372.3 384.9,372.2 385,372.2 385,372.1 
	385.1,372.1 385.1,372.2 385.3,372.2 385.3,372.1 385.3,372.1 385.3,371.7 385.7,371.7 385.7,371.4 385.9,371.4 385.9,371.3 
	386,371.3 386,371.2 386.3,371.2 386.3,371 386.4,371 386.4,370.9 386.5,370.9 386.5,370.8 386.6,370.8 386.6,370.7 386.7,370.7 
	386.7,370.6 386.6,370.6 386.6,370.5 386.7,370.5 386.7,370.4 386.9,370.4 386.9,370.3 387,370.3 387,370.1 387,370.1 387,370 
	387.1,370 387.1,369.9 387.2,369.9 387.2,369.8 387.3,369.8 387.3,369.7 387.4,369.7 387.4,369.6 387.5,369.6 387.5,369.3 
	387.6,369.3 387.6,369.2 387.7,369.2 387.7,369.1 388,369.1 388.1,369.1 388.1,369 388.5,369 388.5,368.9 388.7,368.9 388.7,368.7 
	388.8,368.7 388.8,368.5 388.8,368.5 388.8,368.4 388.9,368.4 388.9,368.3 389.1,368.3 389.1,368.2 389.3,368.2 389.3,368.1 
	389.3,368.1 389.3,367.9 389.4,367.9 389.4,367.5 389.6,367.5 389.6,367.4 389.7,367.4 389.7,367.3 389.8,367.3 389.8,367.2 
	389.9,367.2 389.9,367.1 390,367.1 390,367 390.1,367 390.1,366.8 390.2,366.8 390.2,366.6 390.3,366.6 390.3,366.5 390.5,366.5 
	390.5,366.4 390.6,366.4 390.6,366 390.7,366 390.7,365.8 390.8,365.8 390.8,365.7 391,365.7 391,365.6 391.2,365.6 391.2,365.5 
	391.8,365.5 391.8,365.4 392,365.4 392,365.3 392.2,365.3 392.2,365.1 392.2,365.1 392.2,365 392.3,365 392.3,364.9 392.4,364.9 
	392.4,364.8 392.5,364.8 392.5,364.7 392.4,364.7 392.4,364.3 392.5,364.3 392.5,363.7 392.6,363.7 392.6,363.8 392.8,363.8 
	392.8,363.9 392.8,363.9 392.8,363.8 392.9,363.8 392.9,362.6 393,362.6 393,362.4 393.1,362.4 393.1,362.2 393.1,362.1 
	393.2,362.1 393.2,362 393.2,361.7 393.3,361.7 393.3,361.5 393.4,361.5 393.4,361 393.4,361 393.4,360.8 393.5,360.8 393.5,360.7 
	393.6,360.7 393.6,360.5 393.7,360.5 393.7,359.7 393.8,359.7 393.8,359.6 393.7,359.6 393.7,359 393.8,359 393.8,358.7 
	393.9,358.7 393.9,358 394,358 394,357.7 394,357.7 394,357.6 394.1,357.6 394.1,357.4 394.2,357.4 394.2,357.1 394.1,357.1 
	394.1,356.8 394.2,356.8 394.2,356.7 394.3,356.7 394.3,355.8 394,355.8 394,355.7 394,355.7 394,355.4 394,355.4 394,354.8 
	394,354.8 394,354.5 394,354.5 394,354.2 394.1,354.2 394.1,353.8 394,353.8 394,353.3 394,353.3 394,352.9 394,352.9 394,352.7 
	394.1,352.7 394.1,352.4 394.2,352.4 394.2,351.3 394.1,351.3 394.1,350.5 394.2,350.5 394.2,350.1 394.3,350.1 394.3,349.7 
	394.4,349.7 394.4,349.5 394.3,349.5 394.3,349.3 394.4,349.3 394.4,348.8 394.5,348.8 394.5,348.3 394.5,348.2 394.4,348.2 
	394.4,347.4 394.5,347.4 394.5,347.2 394.5,347.2 394.5,346.8 394.5,346.8 394.5,346.2 394.5,346.2 394.5,345.9 394.6,345.9 
	394.6,345.8 394.5,345.8 394.5,345.2 394.6,345.2 394.6,345 394.7,345 394.7,344.2 394.8,344.2 394.8,344 395,344 395,343.9 
	395.1,343.9 395.1,343.8 395.1,343.8 395.1,343.6 395.1,343.5 395.4,343.5 395.4,343.4 395.6,343.4 395.6,343.3 395.7,343.3 
	395.7,343.2 395.7,343.2 395.7,343.1 395.8,343.1 395.8,342.9 395.9,342.9 395.9,342.1 396,342.1 396,341.9 396.1,341.9 
	396.1,341.6 396.2,341.6 396.2,341.5 396.3,341.5 396.3,341.2 396.3,341.2 396.3,340.9 396.4,340.9 396.4,340.6 396.5,340.6 
	396.5,340.2 396.6,340.2 396.6,340.1 396.7,340.1 396.7,339.7 396.6,339.7 396.6,339.3 396.7,339.3 396.7,339.1 396.8,339.1 
	396.8,339 396.8,339 396.8,338.2 396.9,338.2 396.9,338 397,338 397,337.6 397.1,337.6 397.1,336.9 397.2,336.9 397.2,336.8 
	397.3,336.8 397.3,336.7 397.4,336.7 397.4,336.5 397.5,336.5 397.5,336.3 397.6,336.3 397.6,335.9 397.7,335.9 397.7,335.7 
	397.8,335.7 397.8,335.5 397.9,335.5 397.9,335.2 398,335.2 398,335 398.1,335 398.1,334.9 398.2,334.9 398.2,334.7 398.3,334.7 
	398.3,334.4 398.4,334.4 398.4,334.3 398.5,334.3 398.5,334.2 398.6,334.2 398.6,334.1 398.6,334.1 398.6,334 399,334 399,333.9 
	399.2,333.9 399.2,333.8 399.2,333.8 399.4,333.8 399.4,333.6 399.6,333.6 399.6,333.5 399.7,333.5 399.7,333.4 399.7,333.4 
	399.7,333.3 399.8,333.3 399.8,333.2 400,333.2 400,333.1 400.1,333.1 400.1,332.7 400.2,332.7 400.2,332.4 400.3,332.4 
	400.3,332.3 400.3,332.3 400.3,332.2 400.4,332.2 400.4,331.6 400.5,331.6 400.5,331.1 400.6,331.1 400.6,331 400.7,331 
	400.7,330.9 400.8,330.9 400.8,330.5 400.9,330.5 400.9,330.4 400.9,330.1 400.9,330.1 400.9,330 401,330 401,329.8 401.1,329.8 
	401.1,329.7 401.2,329.7 401.2,329.4 401.3,329.4 401.3,328.8 401.4,328.8 401.4,328.5 401.5,328.5 401.5,328.4 401.5,328.4 
	401.5,328.2 401.6,328.2 401.6,328 401.7,328 401.7,327.9 401.8,327.9 401.8,327.4 401.9,327.4 401.9,327.3 402,327.3 402,326.9 
	402.1,326.9 402.1,326.7 402.1,326.7 402.1,326.5 402.2,326.5 402.2,326.4 402.3,326.4 402.3,325.8 402.4,325.8 402.4,325.6 
	402.5,325.6 402.5,325.3 402.6,325.3 402.6,325.1 402.6,325.1 402.6,325 402.7,325 402.7,324.7 402.8,324.7 402.8,324.4 
	402.9,324.4 402.9,324.2 403,324.2 403,323.9 403.1,323.9 403.1,323.8 403.2,323.8 403.2,323.6 403.2,323.6 403.2,323.5 
	403.3,323.5 403.3,323.4 403.4,323.4 403.4,322.8 403.5,322.8 403.5,322.6 403.6,322.6 403.6,322.4 403.7,322.4 403.7,322.3 
	403.6,322.3 403.6,321.7 403.7,321.7 403.7,321.5 403.8,321.5 403.8,321.3 403.8,321.3 403.8,321.1 403.9,321.1 403.9,321 404,321 
	404,320.8 404.1,320.8 404.1,320.3 404.2,320.3 404.2,320.1 404.3,320.1 404.3,319.9 404.4,319.9 404.4,319.8 404.4,319.8 
	404.4,319.4 404.5,319.4 404.5,319.3 404.6,319.3 404.6,319.2 404.8,319.2 404.8,319.1 404.9,319.1 404.9,318.9 404.9,318.9 
	404.9,318.8 405,318.8 405,318.6 405.1,318.6 405.1,318.5 405.2,318.5 405.2,318.4 405.3,318.4 405.3,318.3 405.4,318.3 
	405.4,318.2 405.5,318.2 405.5,318.1 405.7,318.1 405.7,317.8 405.8,317.8 405.8,317.6 405.9,317.6 405.9,317.1 406.2,317.1 
	406.2,316.9 406.3,316.9 406.6,316.9 406.6,317.1 406.8,317.1 406.8,316.9 406.9,316.9 406.9,316.8 407.2,316.8 407.2,316.6 
	407.3,316.6 407.3,316.5 407.2,316.5 407.2,315.7 407.3,315.7 407.3,315.6 407.4,315.6 407.4,315.2 407.5,315.2 407.5,315 
	407.6,315 407.6,314.7 407.6,314.4 407.7,314.4 407.7,314.3 407.8,314.3 407.8,314.2 408,314.2 408.1,314.2 408.1,314 408.3,314 
	408.3,313.9 408.4,313.9 408.4,313.8 408.5,313.8 408.5,313.6 408.6,313.6 408.6,313.5 408.7,313.5 408.7,313.2 408.8,313.2 
	408.8,313.1 408.9,313.1 408.9,312.9 408.9,312.8 408.9,312.8 409,312.8 409,312.7 409.2,312.7 409.2,312.6 409.3,312.6 
	409.3,312.4 409.4,312.4 409.4,312.3 409.5,312.3 409.5,312.2 409.6,312.2 409.6,312.1 409.9,312.1 409.9,311.9 410.2,311.9 
	410.2,311.8 410.5,311.8 410.5,311.9 410.6,311.9 410.6,312.2 410.7,312.2 410.7,312.1 411.2,312.1 411.2,311.9 411.3,311.9 
	411.3,311.8 411.6,311.8 411.6,311.7 411.8,311.7 411.8,311.6 411.9,311.6 411.9,311.5 412,311.5 412,311.4 412.1,311.4 
	412.1,311.3 412.2,311.3 412.2,311.1 413,311.1 413,311 413.2,311 413.2,310.9 413.5,310.9 413.5,311 414.2,311 414.2,310.9 
	414.3,310.9 414.3,310.7 414.4,310.7 414.4,310.6 415.1,310.6 415.1,310.7 415.4,310.7 415.4,310.6 416,310.6 416,310.7 
	416.9,310.7 416.9,310.8 418,310.8 418,310.9 418.2,310.9 418.2,311 418.9,311 418.9,311.1 419.6,311.1 419.6,311 420,311 
	420,311.1 420,311.1 420,311 420.4,311 420.4,311.1 420.9,311.1 420.9,311 421.2,311 421.2,310.9 421.3,310.9 421.3,311 421.7,311 
	421.7,310.9 422.3,310.9 422.3,310.8 422.4,310.8 422.4,310.7 422.7,310.7 422.7,310.6 422.9,310.6 422.9,310.5 423,310.5 
	423,310.3 423.4,310.3 423.4,310.2 423.5,310.2 423.5,310.1 423.6,310.1 423.6,310 423.8,310 423.8,309.9 424,309.9 424,309.8 
	424.1,309.8 424.1,309.7 424.2,309.7 424.2,309.5 424.5,309.5 424.5,309.4 424.7,309.4 424.7,309.3 425.1,309.3 425.1,309.2 
	425.6,309.2 425.6,309.3 426.3,309.3 426.3,309.4 427.3,309.4 427.3,309.3 427.5,309.3 427.5,309.2 427.5,309.2 427.5,309.1 
	427.8,309.1 427.8,309 427.9,309 427.9,308.9 428.1,308.9 428.1,308.8 428.4,308.8 428.4,308.6 428.7,308.6 428.7,308.5 
	428.9,308.5 428.9,308.4 429.1,308.4 429.1,308.3 429.2,308.3 429.2,308.2 429.4,308.2 429.4,308.1 429.8,308.1 429.8,308 
	430.7,308 430.7,308.1 431.1,308.1 431.1,308.3 431.2,308.3 431.2,308.4 431.5,308.4 431.5,308.5 431.9,308.5 431.9,308.6 
	432.1,308.6 432.1,308.8 432.7,308.8 432.7,308.6 432.9,308.6 432.9,308.5 433.1,308.5 433.1,308.4 433.3,308.4 433.3,308.3 
	433.6,308.3 433.6,308.2 434,308.2 434,308.1 434.2,308.1 434.2,308 434.3,308 434.3,307.8 434.4,307.8 434.4,307.7 434.7,307.7 
	434.7,307.6 434.9,307.6 434.9,307.5 435.1,307.5 435.1,307.4 435.4,307.4 435.4,307.3 436.1,307.3 436.1,307.2 436.4,307.2 
	436.4,307.3 437.3,307.3 437.3,307.2 437.9,307.2 437.9,307.3 438.5,307.3 438.5,307.2 438.7,307.2 438.7,307 439.1,307 
	439.1,306.9 439.3,306.9 439.3,306.8 439.5,306.8 439.5,306.7 439.7,306.7 439.7,306.6 440.3,306.6 440.3,306.4 440.4,306.4 
	440.4,306.3 440.6,306.3 440.6,306.1 440.7,306.1 440.7,306 440.8,306 440.8,305.9 440.9,305.9 440.9,305.8 441.1,305.8 
	441.1,305.7 441.3,305.7 441.3,305.6 441.8,305.6 441.8,305.5 441.9,305.5 441.9,305.6 442.7,305.6 442.7,305.7 443.5,305.7 
	443.5,305.6 443.7,305.6 443.7,305.5 444.5,305.5 444.5,305.3 444.7,305.3 444.7,305.2 445.1,305.2 445.1,305.1 445.3,305.1 
	445.3,305 445.4,305 445.4,304.9 445.7,304.9 445.7,304.8 446.2,304.8 446.2,304.7 446.3,304.7 446.3,304.5 446.6,304.5 
	446.6,304.4 447.1,304.4 447.1,304.3 447.7,304.3 447.7,304.2 447.9,304.2 447.9,304.1 448.2,304.1 448.2,304 448.4,304 
	448.4,303.9 448.6,303.9 448.6,303.8 448.9,303.8 448.9,303.6 449.8,303.6 449.8,303.5 450,303.5 450,303.4 450.6,303.4 
	450.6,303.3 450.9,303.3 450.9,303.2 451.1,303.2 451.1,303.1 451.2,303.1 451.2,303 451.3,303 451.3,302.8 451.6,302.8 451.6,303 
	452.4,303 452.4,303.1 452.7,303.1 452.7,303 453.2,303 453.2,303.1 453.3,303.1 453.3,303 453.6,303 453.6,302.8 453.8,302.8 
	453.8,302.7 454.4,302.7 454.4,302.6 454.7,302.6 454.7,302.5 455.5,302.5 455.5,302.4 455.8,302.4 455.8,302.3 456.3,302.3 
	456.3,302.2 456.4,302.2 456.4,302 456.5,302 456.5,301.9 457.1,301.9 457.1,302 457.3,302 457.3,301.9 457.5,301.9 457.5,301.8 
	457.7,301.8 457.7,301.9 458,301.9 458,301.8 458.2,301.8 458.2,301.7 458.2,301.7 458.2,301.6 458.3,301.6 458.3,301.5 
	458.4,301.5 458.4,301.4 459.2,301.4 459.2,301.3 459.3,301.3 459.3,301.1 459.5,301.1 459.5,301 459.7,301 459.7,300.9 
	459.8,300.9 459.8,300.8 459.9,300.8 459.9,300.7 459.9,300.7 459.9,300.6 460,300.6 460,300.5 460.2,300.5 460.2,300.3 
	460.3,300.3 460.3,300.2 460.4,300.2 460.4,300.1 460.5,300.1 460.5,300 460.6,300 460.6,299.9 460.7,299.9 460.7,299.8 
	460.8,299.8 460.8,299.7 461.4,299.7 461.4,299.8 461.6,299.8 461.6,299.9 461.8,299.9 461.8,300 462.2,300 462.2,299.9 
	462.8,299.9 462.8,300 463,300 463,300.1 463.2,300.1 463.2,300.2 463.4,300.2 463.4,300.3 463.7,300.3 463.7,300.2 464.7,300.2 
	464.7,300.1 464.8,300.1 464.8,300.2 465,300.2 465,300.3 466.5,300.3 466.5,300.5 467,300.5 467,300.6 467.4,300.6 467.4,300.5 
	468.3,300.5 468.3,300.3 468.6,300.3 468.6,300.2 468.9,300.2 468.9,300.1 469.2,300.1 469.2,300 469.6,300 469.6,299.9 470,299.9 
	470,299.8 470.2,299.8 470.2,299.7 470.3,299.7 470.3,299.5 470.9,299.5 470.9,299.4 471.1,299.4 471.1,299.3 471.2,299.3 
	471.2,299.2 471.5,299.2 471.5,299.1 471.6,299.1 471.6,299 472,299 472,298.9 472.1,298.9 472.1,298.7 472.5,298.7 472.5,298.6 
	472.6,298.6 472.6,298.5 472.7,298.5 472.7,298.4 472.9,298.4 472.9,298.3 473.1,298.3 473.1,298.2 473.2,298.2 473.2,298 
	473.8,298 473.8,297.8 474,297.8 474,297.7 474.3,297.7 474.3,297.6 474.4,297.6 474.4,297.5 474.5,297.5 474.5,297.4 474.7,297.4 
	474.7,297.3 474.8,297.3 474.8,297.2 474.8,297.2 474.9,297.2 474.9,297 475.3,297 475.3,296.9 475.4,296.9 475.4,296.8 
	475.5,296.8 475.5,296.7 476.1,296.7 476.1,296.6 476.1,296.6 476.1,296.7 476.7,296.7 476.7,296.6 476.7,296.6 476.7,296.7 
	476.9,296.7 476.9,296.6 477.4,296.6 477.4,296.5 477.8,296.5 477.8,296.4 478.4,296.4 478.4,296.2 479,296.2 479,296.1 
	479.1,296.1 479.1,296.2 479.9,296.2 479.9,296.1 480.1,296.1 480.1,296.2 481.1,296.2 481.1,296.1 481.2,296.1 481.2,296 
	481.3,296 481.3,295.9 481.5,295.9 481.5,296 481.9,296 481.9,295.9 482.6,295.9 482.6,295.8 483.2,295.8 483.2,295.9 483.9,295.9 
	483.9,296 484,296 484,295.9 484.4,295.9 484.4,295.8 484.5,295.8 484.5,295.9 484.9,295.9 484.9,296 485.1,296 485.1,295.9 
	485.4,295.9 485.4,295.8 485.9,295.8 485.9,295.9 486.3,295.9 486.3,296 486.5,296 486.5,295.9 486.7,295.9 486.7,295.9 
	486.7,295.8 487.1,295.8 487.1,295.9 487.2,295.9 487.2,296 487.5,296 487.5,296.1 487.7,296.1 487.7,296.2 488.8,296.2 
	488.8,296.4 488.9,296.4 488.9,296.5 489.1,296.5 489.1,296.6 489.4,296.6 489.4,296.7 489.7,296.7 489.7,296.8 490.1,296.8 
	490.1,296.9 490.7,296.9 490.7,297 490.9,297 490.9,297.2 491.1,297.2 491.1,297.3 491.3,297.3 491.7,297.3 491.7,297.4 492,297.4 
	492,297.5 492.2,297.5 492.2,297.6 492.6,297.6 492.6,297.7 492.9,297.7 492.9,297.8 493.1,297.8 493.1,298 493.3,298 493.3,298.1 
	493.5,298.1 493.5,298.2 493.7,298.2 493.7,298.3 494.5,298.3 494.5,298.4 494.7,298.4 494.7,298.5 494.9,298.5 494.9,298.6 
	495.2,298.6 495.2,298.7 495.6,298.7 495.6,298.9 495.8,298.9 495.8,299 495.8,299 495.8,299.1 496.1,299.1 496.1,299.2 
	496.3,299.2 496.3,299.3 496.5,299.3 496.5,299.4 496.8,299.4 496.8,299.5 497.1,299.5 497.1,299.7 497.3,299.7 497.3,299.5 
	497.5,299.5 497.5,299.7 497.7,299.7 497.7,299.8 497.9,299.8 497.9,299.9 498,299.9 498,300 498.1,300 498.1,300.1 498.1,300.1 
	498.1,300.2 498.3,300.2 498.3,300.3 498.6,300.3 498.6,300.5 498.7,300.5 498.7,300.6 499,300.6 499,300.7 499.2,300.7 
	499.2,300.8 499.4,300.8 499.4,300.9 499.7,300.9 499.7,301 499.8,301 499.8,301.1 500.1,301.1 500.1,301.3 500.3,301.3 
	500.3,301.4 501.3,301.4 501.3,301.5 501.4,301.5 501.4,301.6 501.5,301.6 501.5,301.7 501.6,301.7 501.6,301.8 501.7,301.8 
	501.7,301.6 502.2,301.6 502.2,301.7 502.3,301.7 502.3,301.8 502.7,301.8 502.7,301.9 503.2,301.9 503.2,302 503.6,302 
	503.6,301.9 503.7,301.9 503.7,302 504,302 504,302.2 504.4,302.2 504.4,302.3 504.8,302.3 504.8,302.4 505,302.4 505,302.5 
	505.4,302.5 505.4,302.6 505.6,302.6 505.6,302.7 506.2,302.7 506.2,302.8 506.4,302.8 506.4,303 506.7,303 506.7,303.1 
	506.9,303.1 506.9,303.2 507.2,303.2 507.2,303.3 507.4,303.3 507.4,303.4 507.6,303.4 507.6,303.5 507.8,303.5 507.8,303.6 
	508,303.6 508,303.8 508.3,303.8 508.3,303.9 508.6,303.9 508.6,304 508.8,304 508.8,304.1 509.2,304.1 509.2,304.2 509.5,304.2 
	509.5,304.3 509.7,304.3 509.7,304.4 510,304.4 510,304.5 510.2,304.5 510.3,304.5 510.3,304.7 510.8,304.7 510.8,304.8 
	510.8,304.8 510.8,305 510.9,305 510.9,305.1 511.1,305.1 511.1,305.2 511.4,305.2 511.4,305.3 511.7,305.3 511.7,305.5 
	511.9,305.5 511.9,305.6 512.1,305.6 512.1,305.7 512.2,305.7 512.2,306.1 512.5,306.1 512.5,306 512.7,306 512.7,306.1 
	512.8,306.1 512.8,306.3 513.1,306.3 513.1,306.4 513.2,306.4 513.2,306.5 513.3,306.5 513.3,306.7 513.4,306.7 513.4,306.8 
	513.7,306.8 513.7,306.9 513.8,306.9 513.8,307 513.9,307 513.9,307.2 514.1,307.2 514.1,307.3 514.2,307.3 514.2,307.5 
	514.3,307.5 514.3,307.6 514.4,307.6 514.4,307.7 514.5,307.7 514.5,307.8 514.6,307.8 514.6,308.1 514.7,308.1 514.7,308.2 
	514.8,308.2 514.8,308.3 514.9,308.3 514.9,308.4 515,308.4 515,308.5 515.2,308.5 515.2,308.6 515.3,308.6 515.3,308.9 
	515.4,308.9 515.4,309.1 515.4,309.1 515.4,309.2 515.5,309.2 515.5,309.3 515.6,309.3 515.6,309.4 515.7,309.4 515.7,309.5 
	515.9,309.5 515.9,309.7 516,309.7 516,309.9 516,309.9 516,310.3 516.1,310.3 516.1,310.5 516.1,311 516.2,311 516.2,311.1 
	516.3,311.1 516.3,311.3 516.5,311.3 516.5,311.4 516.6,311.4 516.6,311.5 516.6,311.5 516.6,311.6 516.7,311.6 516.7,311.7 
	516.9,311.7 516.9,311.8 517.1,311.8 517.1,311.9 517.2,311.9 517.2,312.1 517.2,312.1 517.2,312.2 517.3,312.2 517.3,312.3 
	517.4,312.3 517.4,312.4 517.5,312.4 517.5,312.6 517.6,312.6 517.6,313 517.7,313 517.7,313.1 517.7,313.1 517.7,313.2 
	517.8,313.2 517.8,313.3 517.9,313.3 517.9,313.4 518.1,313.4 518.1,313.9 518.2,313.9 518.2,314 518.7,314 518.7,314.1 
	519.2,314.1 519.2,314.2 519.4,314.2 519.4,314.3 519.9,314.3 519.9,314.4 520,314.4 520,314.6 520.1,314.6 520.1,314.7 521,314.7 
	521,314.8 521.2,314.8 521.2,314.9 521.3,314.9 521.3,315 521.7,315 521.7,315.1 521.8,315.1 521.8,315.2 521.9,315.2 521.9,315.3 
	522,315.3 522,315.6 522.2,315.6 522.2,315.7 522.4,315.7 522.4,315.6 522.6,315.6 522.6,315.5 522.8,315.5 522.8,315.3 
	522.9,315.3 522.9,315.2 523.2,315.2 523.2,315.3 523.5,315.3 523.5,315.2 524.1,315.2 524.1,315.3 524.4,315.3 524.4,315.3 
	524.4,315.5 524.7,315.5 525,315.5 525,315.6 525.2,315.6 525.2,315.7 525.4,315.7 525.4,315.8 526.1,315.8 526.1,315.7 
	526.3,315.7 526.3,315.6 526.5,315.6 526.5,315.7 526.8,315.7 526.8,315.8 527,315.8 527,315.9 527,315.9 527,315.8 527.2,315.8 
	527.2,315.7 527.3,315.7 527.3,315.6 527.4,315.6 527.4,315.5 527.6,315.5 527.6,315.3 527.9,315.3 527.9,315.5 528.1,315.5 
	528.1,315.3 528.2,315.3 528.2,315.2 528.4,315.2 528.4,315.1 528.6,315.1 528.6,315 528.7,315 528.7,314.9 528.8,314.9 
	528.8,314.8 529.2,314.8 529.2,314.7 529.5,314.7 529.6,314.7 529.6,314.6 530,314.6 530,314.4 530.2,314.4 530.2,314.3 
	530.9,314.3 530.9,314.4 531,314.4 531,314.3 531.6,314.3 531.6,314.4 532.7,314.4 532.7,314.3 532.9,314.3 532.9,314.2 
	533.3,314.2 533.3,314.1 533.9,314.1 533.9,314 534.8,314 534.8,313.9 535.1,313.9 535.1,313.8 535.9,313.8 535.9,313.9 
	536.5,313.9 536.6,313.9 536.6,314 536.9,314 536.9,314.1 537,314.1 537,314.2 537.1,314.2 537.1,314.3 537.2,314.3 537.2,314.4 
	537.6,314.4 537.6,314.6 537.8,314.6 537.8,314.7 537.9,314.7 537.9,314.8 538,314.8 538,314.9 538.2,314.9 538.2,315 538.3,315 
	538.3,315.2 538.4,315.2 538.4,315.5 538.5,315.5 538.5,315.6 538.6,315.6 538.6,315.7 538.6,315.7 538.6,315.9 538.8,315.9 
	538.8,316 538.9,316 538.9,316.1 539,316.1 539,316.3 539.1,316.3 539.1,316.4 539.2,316.4 539.2,316.5 539.9,316.5 539.9,316.4 
	540,316.4 540,316.3 540.3,316.3 540.3,316.1 540.6,316.1 540.6,316 540.9,316 540.9,315.9 541.3,315.9 541.3,316 541.9,316 
	541.9,316.1 542,316.1 542,316.3 542.6,316.3 542.6,316.1 542.6,316.1 542.6,315.9 542.7,315.9 542.7,315.8 543,315.8 543,315.9 
	543.2,315.9 543.2,316 543.8,316 543.8,315.9 543.9,315.9 543.9,315.8 544.3,315.8 544.3,316 544.3,316 544.3,316.1 544.9,316.1 
	544.9,316.3 545.6,316.3 545.6,316.4 546.1,316.4 546.1,316.3 546.4,316.3 546.4,316.1 547,316.1 547,316 547.7,316 547.7,315.9 
	548.1,315.9 548.1,315.8 548.3,315.8 548.3,315.7 548.5,315.7 548.5,315.6 548.7,315.6 548.7,315.5 548.8,315.5 548.8,315.3 
	549,315.3 549,315.2 549,315.2 549,315.1 549.2,315.1 549.2,315 549.3,315 549.3,314.9 549.4,314.9 549.4,314.8 549.5,314.8 
	549.5,314.7 549.6,314.7 549.6,314.4 549.7,314.4 549.7,314.2 549.8,314.2 549.8,313.8 549.7,313.8 549.7,313.6 549.5,313.6 
	549.5,313.5 549.3,313.5 549.3,313.6 549.2,313.6 549.2,313.8 549.1,313.8 549.1,313.9 549,313.9 549,314 548.8,314 548.8,314.1 
	548.4,314.1 548.4,314.2 547.7,314.2 547.7,314.1 547.6,314.1 547.6,314 547.2,314 547.2,313.9 546.9,313.9 546.9,313.8 
	546.8,313.8 546.8,313.6 546.8,313.6 546.7,313.6 546.7,313.5 546.6,313.5 546.6,313.3 546.5,313.3 546.5,313.2 546.4,313.2 
	546.4,313.1 546.3,313.1 546.3,312.6 546.2,312.6 546.2,312.2 546.3,312.2 546.3,311.7 546.4,311.7 546.4,311 546.5,311 
	546.5,310.9 546.7,310.9 546.7,310.8 546.9,310.8 546.9,310.7 547,310.7 547,310.5 547.1,310.5 547.1,310 547.2,310 547.2,309.9 
	547.3,309.9 547.3,309.8 547.4,309.8 547.4,309.7 547.6,309.7 547.6,309.8 547.9,309.8 547.9,309.7 548.3,309.7 548.3,309.5 
	548.4,309.5 548.4,309.4 548.4,309.4 548.4,309.3 548.5,309.3 548.5,309.1 548.8,309.1 548.9,309.1 548.9,309 549,309 549,308.8 
	549.1,308.8 549.1,308.6 549.2,308.6 549.2,308.5 549.5,308.5 549.5,308.4 550.1,308.4 550.1,308.5 550.3,308.5 550.3,308.8 
	550.4,308.8 550.4,308.9 550.5,308.9 550.5,309 550.6,309 550.6,309.1 551.2,309.1 551.2,309 551.3,309 551.3,308.9 552.4,308.9 
	552.4,308.8 552.5,308.8 552.5,308.6 552.7,308.6 552.7,308.5 552.8,308.5 552.8,308.4 553,308.4 553,308.3 553,308.3 553,308.2 
	553.1,308.2 553.1,308.1 553.2,308.1 553.2,307.8 553.3,307.8 553.3,307.6 553.4,307.6 553.4,307.5 553.5,307.5 553.5,307.4 
	553.6,307.4 553.6,307.3 553.7,307.3 553.7,307.2 553.8,307.2 553.8,307 553.9,307 553.9,306.8 554,306.8 554,306.5 554,306.3 
	554.1,306.3 554.1,305.8 554.2,305.8 554.2,305.6 554.6,305.6 554.6,305.1 554.8,305.1 554.8,305.2 554.8,305.3 554.9,305.3 
	554.9,305.6 555.3,305.6 555.3,305.5 555.3,305.5 555.3,305.3 555.4,305.3 555.4,305.2 555.6,305.2 555.6,305.1 555.7,305.1 
	555.7,304.9 555.8,304.9 555.8,304.7 555.7,304.7 555.7,304.3 555.6,304.3 555.6,304.2 555.5,304.2 555.5,304.1 555.4,304.1 
	555.3,304.1 555.3,304.2 555.2,304.2 555.2,304.3 554.9,304.3 554.9,304.2 554.8,304.2 554.8,303.8 554.8,303.8 554.8,303.4 
	554.8,303.4 554.8,303.3 554.8,303.3 554.8,303.2 554.8,303 554.7,303 554.7,302.7 554.8,302.7 554.8,302.5 554.8,302.5 554.8,302 
	554.8,302 554.8,301.9 554.7,301.9 554.7,301.8 554.6,301.8 554.6,301.6 554.6,301.4 554.5,301.4 554.5,300.5 554.4,300.5 
	554.4,299.7 554.6,299.7 554.6,299.5 554.7,299.5 554.7,299.4 554.8,299.4 554.8,298.3 554.8,298.3 554.8,297.6 554.9,297.6 
	554.9,297.4 555,297.4 555,297.2 555.1,297.2 555.1,297 555.2,297 555.2,296.7 555.3,296.7 555.3,296.2 555.3,296.2 555.3,296.1 
	555.4,296.1 555.4,296 555.5,296 555.5,295.8 555.6,295.8 555.6,295.7 555.7,295.7 555.7,295.6 555.9,295.6 555.9,295.3 
	555.9,295.3 555.9,295.2 556.2,295.2 556.2,295 556.3,295 556.3,294.9 556.4,294.9 556.4,294.8 556.5,294.8 556.5,294.5 
	556.5,294.5 556.5,294.4 556.6,294.4 556.6,294.3 556.7,294.3 556.7,294.1 556.8,294.1 556.8,294 557,294 557,293.9 557.1,293.9 
	557.1,293.7 557.1,293.7 557.1,293.6 557.2,293.6 557.2,293.5 557.4,293.5 557.4,293.3 557.5,293.3 557.5,293.2 557.6,293.2 
	557.6,293.1 558,293.1 558,293 558.1,293 558.1,293.1 558.3,293.1 558.3,293 558.5,293 558.5,292.8 558.6,292.8 558.6,292.7 
	558.7,292.7 558.7,292.6 558.8,292.6 558.8,292.5 558.8,292.5 558.8,292.4 558.9,292.4 558.9,292.3 559,292.3 559,292.2 
	559.1,292.2 559.1,292 559.2,292 559.2,292 559.2,291.9 559.3,291.9 559.4,291.9 559.4,291.8 559.4,291.7 559.4,291.7 559.4,291.5 
	559.5,291.5 559.5,291.4 559.6,291.4 559.7,291.4 559.7,291.2 559.8,291.2 559.8,291.1 559.9,291.1 559.9,291 560,291 560,290.9 
	560,290.9 560,290.8 560.1,290.8 560.1,290.7 560.2,290.7 560.2,290.6 560.4,290.6 560.4,290.5 560.5,290.5 560.5,290.3 
	560.6,290.3 560.6,290.2 560.7,290.2 560.7,290.1 560.9,290.1 560.9,290 561,290 561,289.9 561.3,289.9 561.3,289.8 561.5,289.8 
	561.5,289.7 561.7,289.7 561.7,289.5 561.8,289.5 561.8,289.4 561.9,289.4 561.9,289.3 562.1,289.3 562.1,289.2 562.3,289.2 
	562.3,289.1 562.3,289.1 562.3,288.9 562.4,288.9 562.4,288.7 562.6,288.7 562.6,288.6 562.8,288.6 562.8,288.5 562.9,288.5 
	562.9,288.4 563,288.4 563,288.3 563.1,288.3 563.1,288.2 563.2,288.2 563.2,288.1 563.4,288.1 563.4,287.9 563.5,287.9 
	563.5,287.8 563.7,287.8 563.7,287.7 563.8,287.7 563.8,287.6 563.9,287.6 563.9,287.5 564.2,287.5 564.6,287.5 564.8,287.5 
	564.8,287.4 564.9,287.4 564.9,287.3 564.9,287.3 565,287.3 565,287.2 565.2,287.2 565.2,287 565.3,287 565.3,286.9 565.5,286.9 
	565.5,286.8 565.7,286.8 565.7,286.7 565.7,286.7 565.7,286.6 566.1,286.6 566.1,286.5 566.3,286.5 566.3,286.4 566.4,286.4 
	566.4,286.2 566.5,286.2 566.5,286.1 566.6,286.1 566.6,285.9 566.7,285.9 566.7,285.8 566.9,285.8 566.9,285.7 567,285.7 
	567,285.6 567.2,285.6 567.2,285.4 567.4,285.4 567.4,285.3 568,285.3 568,285.2 568.2,285.2 568.2,285.1 568.5,285.1 568.6,285.1 
	568.6,285.1 568.6,285 568.7,285 568.7,285 568.7,285 568.7,284.9 568.8,284.9 568.8,284.8 569,284.8 569,284.7 569.1,284.7 
	569.2,284.7 571.2,284.7 571.2,284.8 571.8,284.8 571.8,284.7 572,284.7 572,284.5 573.1,284.5 573.1,284.4 573.5,284.4 
	573.5,284.3 573.6,284.3 573.6,284.2 573.8,284.2 573.8,284.1 573.8,284.1 573.8,283.9 574,283.9 574,283.7 574.1,283.7 
	574.1,283.6 574.2,283.6 574.2,283.5 574.3,283.5 574.3,283.4 574.6,283.4 574.6,283.3 575,283.3 575,283.2 575.1,283.2 
	575.1,283.1 575.3,283.1 575.3,282.9 575.4,282.9 575.4,282.8 575.6,282.8 575.6,282.7 575.9,282.7 575.9,282.6 576.1,282.6 
	576.1,282.5 576.3,282.5 576.3,282.4 576.4,282.4 576.4,282.3 576.6,282.3 576.6,282.2 576.8,282.2 576.8,282 576.9,282 
	576.9,281.9 577,281.9 577,281.8 577.1,281.8 577.1,281.7 577.2,281.7 577.2,281.6 577.3,281.6 577.3,281.5 577.6,281.5 
	577.6,281.4 577.9,281.4 577.9,281.2 577.9,281.2 577.9,281.1 578,281.1 578,281 578.1,281 578.1,280.9 578.3,280.9 578.3,280.8 
	578.5,280.8 578.5,280.7 578.5,280.7 578.5,280.6 578.7,280.6 578.7,280.4 578.8,280.4 578.8,280.2 579,280.2 579,280.1 
	579.2,280.1 579.2,280 579.5,280 579.5,279.9 579.6,279.9 579.6,279.8 579.8,279.8 579.8,279.7 580,279.7 580,279.6 580,279.5 
	580.1,279.5 580.1,279.4 580.2,279.4 580.2,279.3 580.4,279.3 580.4,279.2 580.5,279.2 580.6,279.2 580.6,279.1 580.8,279.1 
	580.8,279 581,279 581,278.9 581.2,278.9 581.2,278.7 581.4,278.7 581.4,278.6 581.5,278.6 581.5,278.5 582.3,278.5 582.3,278.4 
	582.4,278.4 582.4,278.3 583.6,278.3 583.6,278.3 583.6,278.2 583.7,278.2 583.7,278.3 583.7,278.3 583.7,278.2 584.2,278.2 
	584.2,278.1 584.4,278.1 584.4,277.9 584.6,277.9 584.6,277.8 584.7,277.8 584.7,277.9 584.8,277.9 584.8,278.1 585.1,278.1 
	585.1,277.9 585.2,277.9 585.2,277.8 585.4,277.8 585.4,277.7 585.6,277.7 585.6,277.8 586.2,277.8 586.2,277.7 587.2,277.7 
	587.3,277.7 587.3,277.6 587.7,277.6 587.7,277.7 588.3,277.7 588.3,277.6 588.6,277.6 588.6,277.5 588.9,277.5 588.9,277.4 
	589.1,277.4 589.1,277.3 590,277.3 590,277.4 590.5,277.4 590.5,277.3 590.9,277.3 590.9,277.2 591.4,277.2 591.4,277 591.8,277 
	591.8,276.9 592.2,276.9 592.2,276.8 592.9,276.8 592.9,276.7 593.4,276.7 593.4,276.6 593.8,276.6 593.8,276.7 594.3,276.7 
	594.3,276.6 594.7,276.6 594.7,276.7 594.9,276.7 594.9,276.6 595.7,276.6 595.7,276.7 595.8,276.7 595.8,276.8 596.1,276.8 
	596.1,276.9 596.4,276.9 596.4,277 596.6,277 596.6,277.2 596.8,277.2 596.8,277.3 596.9,277.3 596.9,277.2 597.2,277.2 597.2,277 
	597.5,277 596,274.5 593.1,269.1 589.9,263.6 588.2,259.6 585.3,254.1 583.1,249.1 577.3,239.8 579,236.3 580.7,231 583.3,225.4 
	585,217.9 585.4,216.9 586.5,215.1 587.9,213.6 589.6,212.4 594.2,210.2 598.7,207.8 601.5,206.5 603.3,205.4 604.8,204 606,202.4 
	606.2,201.9 606.9,200.5 607.6,197.3 608.6,193 610.7,188.3 611.4,186.2 611.9,183.7 612.5,177.5 613.3,174 615.8,168.3 
	617.6,160.7 618.3,158.8 620.1,155 620.8,152.9 621.2,150.4 621.4,147.9 621.5,135 621.8,129.9 622.6,126.3 624.6,121.6 
	625.6,118.5 626,115.1 627.1,104.3 627.3,103.2 627.9,101.4 628.9,99.7 630.8,97.3 "/>
</svg>
