<?xml version="1.0" encoding="utf-8"?>
<!-- Generator: Adobe Illustrator 24.2.3, SVG Export Plug-In . SVG Version: 6.00 Build 0)  -->
<svg version="1.1" id="Layer_1" xmlns="http://www.w3.org/2000/svg" xmlns:xlink="http://www.w3.org/1999/xlink" x="0px" y="0px"
	 viewBox="0 0 800 533" style="enable-background:new 0 0 800 533;" xml:space="preserve">
<style type="text/css">
	.st0{fill:#F2933D;stroke:#000000;stroke-width:0.4;stroke-miterlimit:9;}
</style>
<polygon class="st0" points="686.4,250.5 684.5,246.4 683.9,244.5 683.5,242.4 682.9,237 682.5,234.8 681.9,232.9 680.4,229.7 
	679.8,227.9 678.2,220.1 676.2,218.5 674.7,217.7 673.8,217.3 671.7,216.9 669.6,216.6 666.4,216.5 658.8,216.8 643.8,216.6 
	640.9,216.3 639,215.8 630.1,211.1 623,205.4 618,202.7 615.7,200.8 609.3,194.5 606.9,192.8 605.1,192.1 603.2,191.8 600.3,192 
	597.5,192.5 597.9,189.4 598,187.4 597.8,185.4 597.6,184.4 596.9,182.7 595.9,181.3 594.6,180 592.5,178.3 591.3,178 589.7,177.5 
	584.8,174.6 583.8,173.8 583.2,172.6 579.8,171.3 574.4,169.6 569.6,167.2 563.8,165.1 559.8,165.8 551.9,166.8 549.3,167.6 
	545.3,169.5 542.1,170.3 538.9,170.5 534.4,170.6 531.1,170.5 527.8,170.1 525.8,169.5 521.8,167.6 520,167 516.9,166.5 
	508.6,166.1 506.6,165.6 505.6,165.3 504.1,164.3 502.8,163.1 501.8,161.6 500.1,158.3 499.2,156.8 497.4,154.8 494.9,152.4 
	489.5,150.5 487.7,150 484.6,149.6 477.2,149.3 475.1,149.1 473.1,148.6 471.5,147.8 468.4,146.1 465,144.6 460.3,141.8 
	456.9,140.3 453,138 448.8,136.1 444.1,133.5 440.7,132 436.7,129.8 432.6,127.9 431.8,127.4 430.5,126.3 429.3,124.8 428.6,123 
	428.3,121.1 428.4,119.1 428.6,118.2 429.2,116.4 430.1,115.1 431.5,113.9 432.1,108.6 432.4,101.5 426.3,97.2 424.8,96.2 423,95.5 
	420.9,95.1 417.8,94.8 410.4,94.9 407.3,95.1 405.3,95.5 403.5,96.2 399.5,98.1 397.7,98.7 394,99.5 392.2,100.1 387.5,102.6 
	384.1,104.2 380.2,106.3 378.4,107 375.2,107.5 371,107.4 367.9,106.9 366,106.3 364.4,105.5 361.4,109.6 360,111.9 358.5,115.4 
	356.5,119.3 356,120.9 356,122.5 356.3,124 357.1,125.6 358.1,127.1 361.7,131.4 362.7,132.9 364.2,136.4 365.9,139.6 366.7,141.3 
	367,142.6 367.3,144.3 367.7,149.2 368.2,152.2 368.8,153.9 370.4,157.2 370.9,159 371.2,160.9 371.1,163.9 370.7,165.8 
	368.8,169.9 368.2,171.6 367.7,174.6 367.2,179.6 366.6,182.5 365.9,184.2 364.2,187.4 362.7,190.9 361.6,192.6 360.4,194.1 
	354.9,200.1 352.9,202.4 350.7,205.6 347.3,208.3 345.1,210.1 343.1,212.1 341.2,214.3 339.7,216.6 338.2,220.1 337.3,221.7 
	333.3,226.9 331.3,230 327.4,232 324,233.4 322.3,234.3 320.8,235.4 316.6,239 315.1,240.1 310.1,242.7 307.1,245.2 301.3,250.9 
	299.8,252.1 298.2,253.2 294.8,254.8 291.7,256.6 290.1,257.3 288.2,257.9 285.2,258.2 278.2,258.2 273.3,257.9 270.5,257.2 
	266.5,255.3 264.7,254.7 262.6,254.3 257.4,253.7 255.3,253.3 254.3,252.9 252.5,251.9 250.9,250.6 244.8,244.6 242.3,242.6 
	240.6,241.6 238.1,240.4 235,238.7 233.4,238 232.4,237.6 229.3,237.2 225,237 207.8,236.9 205.7,237 203.6,237.3 201.7,237.9 
	200.2,238.9 198.9,240.2 197.8,241.7 195.9,245.9 193.8,249.9 192.4,253.5 189.5,258.6 187.8,262.4 186.4,266.3 185.2,269.1 
	181.7,275.1 180.3,278.7 177.7,283.4 176.1,287 174.5,289.5 171.3,293.6 170.2,295.2 168.1,299.5 167,301 165.8,302.3 164.4,303.3 
	161,304.9 156.4,307.6 152.9,309 148.2,311.5 146.3,312 141.7,313 139.9,313.6 136,315.7 132.6,317.3 130.9,318.4 129.3,319.7 
	125.6,323.3 120.5,328.7 118.4,331 116.7,333.6 115.2,337.1 113.5,340.3 112.8,342 112.5,343 112.2,344.9 112,350 116,354.2 
	117.8,356.4 118.8,358 121.3,363.1 122.4,364.7 123.7,366.3 126.5,369.3 139.2,382.7 141.4,384.7 143.8,386.5 144.7,386.9 
	146.5,387.5 149.5,387.8 170.9,387.9 180.3,387.7 185.5,388.1 188.5,388.8 192.5,390.7 194.3,391.4 196.4,391.8 198.5,391.9 
	201.7,391.8 203.7,391.4 205.5,390.7 209.5,388.7 212.5,388 215.6,387.6 218.8,387.5 221.9,387.8 224,388.2 224.9,388.6 
	226.5,389.6 227.8,390.9 228.8,392.4 232.7,400.7 233.3,402.7 234.1,406.8 233.6,410 233.3,414.4 233.4,419.9 233.7,423.1 
	234.6,426 236.6,430.1 238,433.7 239.8,437.7 248,438.1 266.4,438.2 272.1,438 275.4,437.7 277.5,437.1 281.6,435.3 283.4,434.7 
	285.4,434.3 290.7,433.7 293.7,432.9 295.7,432 304.8,426.3 308.4,428.2 310.2,428.9 317,430.6 322.8,433 326.1,433.7 333,434.1 
	357.1,434 360.7,435.8 362.1,436.3 362.9,436.4 364.5,436.1 370.8,433.4 375.5,430.8 377.3,430.2 381,429.4 382.8,428.9 
	386.8,426.9 388.5,426.3 393.2,425.3 395,424.7 399,422.8 400.7,422.1 405.4,421.2 407.2,420.6 411.9,418.1 416.2,416.3 
	421.4,413.1 422.7,412.1 423.7,410.7 426.8,405.3 428.6,401 431.2,396.1 432.7,392.6 434.8,388.6 435.4,386.8 435.6,385.8 
	435.7,383.8 435.5,381.9 435.3,380.9 434.7,379.1 432.8,375.2 432.3,373.3 432.1,370.3 432.4,368.3 432.6,367.4 433.4,365.7 
	435,362.5 436.6,359 437.7,357.4 440.3,354.3 446.5,347.8 448,344.2 448.8,342.4 449.8,340.8 452.2,337.8 456.3,342 472.8,342 
	476.1,342.2 479.2,342.7 481.2,343.4 484.1,344.7 486,345.4 488.1,345.8 493.3,346.4 496.4,347.2 499.2,348.8 504.6,352.8 
	512.5,347.5 516.7,345.4 521.3,342.7 524.7,341.1 528.6,339 529.4,338.7 531.3,338.2 534.2,338.1 536.1,338.4 537.8,339 
	541.7,341.2 545.1,342.8 549.7,345.6 553.1,347.1 557,349.2 558.8,349.9 560.8,350.3 562.9,350.4 571.3,350.6 575.4,351 
	578.2,351.8 582.2,353.7 585.1,354.4 588.2,354.6 596.6,354.8 599.7,355.1 601.7,355.7 605.7,357.5 607.4,358.2 609.3,358.5 
	615,359.3 616.9,359.6 618.6,360.3 621.8,361.8 623.6,362.4 626.4,362.9 630.4,363.1 631.3,359.3 633.2,355.2 633.8,353.3 
	634.1,351.2 634.7,345.7 635.4,342.6 636.1,340.9 638,337.7 640.5,332.6 641.7,331.4 643,330.5 646.3,328.8 647.8,327.8 
	652.8,323.6 654.2,322.5 655.7,321.7 660.9,319.8 664.3,318.9 663.3,314.9 662.9,311.6 662.7,307.1 663,303.9 663.5,301.8 
	663.8,300.8 664.8,299.3 666.5,297.4 669,295.5 670,294.2 670.4,293.3 670.8,291.3 671,289.2 670.9,279.1 671,275.7 671.3,273.5 
	671.9,271.4 672.8,269.5 674.1,267.8 676.2,265.4 679.3,262.4 681.7,260.2 683.4,259 688,256.3 "/>
</svg>
