<?xml version="1.0" encoding="utf-8"?>
<!-- Generator: Adobe Illustrator 24.2.3, SVG Export Plug-In . SVG Version: 6.00 Build 0)  -->
<svg version="1.1" id="Layer_1" xmlns="http://www.w3.org/2000/svg" xmlns:xlink="http://www.w3.org/1999/xlink" x="0px" y="0px"
	 viewBox="0 0 800 533" style="enable-background:new 0 0 800 533;" xml:space="preserve">
<style type="text/css">
	.st0{fill:#F2933D;stroke:#000000;stroke-width:0.4;stroke-miterlimit:9;}
</style>
<polygon class="st0" points="735.7,312.3 734.8,306.7 733.7,303.4 730.3,296.1 726.9,282.7 723.7,275.3 722.6,271.9 721.9,268.2 
	720.9,258.5 720.2,254.7 719.1,251.3 715.9,243.9 715.1,240.5 714.7,237 714.3,229.7 713.6,226.3 712.7,222.9 711.4,219.9 
	708.4,214.2 705.9,207.8 701.2,199.3 698.7,192.9 694,184.3 691.3,178 689.6,175.2 685.5,170 678.3,170 677.2,164.5 676,161.8 
	675.2,160.4 673.3,157.7 671,155.3 668.6,153.1 664.8,150.3 664.8,150.3 661.9,148.9 657,146.7 649.7,143.9 649.6,143.9 
	649.6,144.3 649.4,144.3 649.4,144.5 648.9,144.5 648.9,144.8 648.8,144.8 648.8,145.2 648.6,145.2 648.6,145.5 648.5,145.5 
	648.5,145.7 648.2,145.7 648.2,145.9 648,145.9 648,146.1 647.8,146.1 647.8,146.2 647.6,146.2 647.6,146.4 647.3,146.4 
	647.3,146.8 647.2,146.8 647.2,147 647,147 647,147.1 647,148.2 646.9,148.2 646.9,148.4 646.6,148.4 646.6,148.6 646.5,148.6 
	646.5,148.7 646.4,148.7 646.4,148.9 646.2,148.9 646.2,149.3 646.1,149.3 646.1,149.5 646,149.5 646,149.6 645.8,149.6 
	645.8,149.5 645.7,149.5 645.7,149.6 645.6,149.6 645.6,149.8 645.4,149.8 645.4,150 645.3,150 645.3,150.2 645.2,150.2 
	645.2,150.3 645,150.3 645,150.5 644.9,150.5 644.9,150.7 644.8,150.7 644.8,150.9 644.5,150.9 644.5,151.6 644.4,151.6 
	644.4,151.8 644,151.8 644,151.9 643.7,151.9 643.7,152.1 643.5,152.1 643.5,152.5 643.4,152.5 643.4,152.7 643.3,152.7 
	643.3,152.8 643.1,152.8 643.1,153 643,153 643,153.2 642.9,153.2 642.9,153.5 642.7,153.5 642.7,153.7 642.3,153.7 642.3,154.1 
	642.2,154.1 642.2,154.3 642.1,154.3 642.1,154.4 641.5,154.4 641.5,154.6 641.3,154.6 641.3,154.4 641.1,154.4 641.1,154.6 
	641,154.6 641,154.8 641.1,154.8 641.1,155.1 641,155.1 641,155.3 640.9,155.3 640.9,155.1 640.7,155.1 640.7,155.3 640.6,155.3 
	640.6,155.5 640.5,155.5 640.5,155.9 640.3,155.9 640.3,156.2 640.2,156.2 640.2,156.6 640.1,156.6 640.1,156.7 639.8,156.7 
	639.8,156.9 639.5,156.9 639.5,157.1 639.3,157.1 639.3,157.3 639.1,157.3 639.1,157.6 639,157.6 639,157.8 638.9,157.8 638.9,158 
	638.7,158 638.7,158.2 638.6,158.2 638.6,158.4 638.3,158.4 638.3,158.5 638.1,158.5 638.1,158.7 637.9,158.7 637.9,158.9 
	637.8,158.9 637.8,159.1 637.7,159.1 637.7,159.2 637.5,159.2 637.5,159.4 637.4,159.4 637.4,159.6 637.3,159.6 637.3,159.4 
	637.1,159.4 637.1,159.2 637,159.2 637,159.1 636.9,159.1 636.9,159.1 636.9,159.1 636.9,159.2 636.7,159.2 636.7,159.4 
	636.6,159.4 636.6,159.6 636.5,159.6 636.3,159.6 636.3,159.8 636.2,159.8 636.2,159.9 636.2,160 635.8,160 635.8,159.8 
	635.1,159.8 635.1,160 635.4,160 635.4,160.5 635.3,160.5 635.3,160.7 635,160.7 635,160.8 634.7,160.8 634.7,161 634.6,161 
	634.6,161.2 634.5,161.2 634.5,161.4 634.3,161.4 634.3,161.6 633.8,161.6 633.8,161.7 633.7,161.7 633.7,161.9 633.4,161.9 
	633.4,162.1 633.3,162.1 633.3,162.3 633.1,162.3 633.1,162.4 633,162.4 633,162.6 632.7,162.6 632.7,162.8 632.5,162.8 
	632.5,162.6 632.3,162.6 632.3,162.8 632.2,162.8 632.2,163 632.1,163 632.1,163.2 631.9,163.2 631.9,163.3 631.7,163.3 
	631.7,163.5 631.5,163.5 631.5,163.9 631.1,163.9 631.1,164.1 631,164.1 631,164.2 630.3,164.2 630.3,164.4 629.8,164.4 
	629.8,164.6 629.7,164.6 629.7,164.8 629.5,164.8 629.5,164.9 629.4,164.9 629.4,165.1 629,165.1 629,165.8 628.9,165.8 628.9,166 
	628.7,166 628.7,166.2 628.2,166.2 628.2,166 628.1,166 628.1,166.2 627.9,166.2 627.9,166.4 627.8,166.4 627.8,166.9 627.5,166.9 
	627.5,167.1 627.4,167.1 627.4,167.3 627.3,167.3 627.3,167.4 627,167.4 627,167.6 626.9,167.6 626.9,167.8 626.7,167.8 626.7,168 
	626.5,168 626.5,168.3 626.3,168.3 626.3,168.5 626.1,168.5 626.1,168.6 626.1,168.7 625.9,168.7 625.5,168.7 625.5,168.8 
	625.5,169 625.3,169 625.3,169.2 624.6,169.2 624.6,169.6 624.5,169.6 624.5,169.7 624.3,169.7 624.3,170.1 623.9,170.1 
	623.9,169.9 623.8,169.9 623.8,169.6 623.5,169.6 623.5,169.4 623.3,169.4 623.3,169.2 623,169.2 623,169.4 623,169.6 623.3,169.6 
	623.3,170.1 623.4,170.1 623.4,170.3 623.7,170.3 623.7,170.6 623.3,170.6 623.3,170.8 622.6,170.8 622.6,171.2 622.3,171.2 
	622.3,171 622.2,171 622.2,170.8 621.8,170.8 621.8,170.3 621.9,170.3 621.9,170.1 622.1,170.1 622.1,169.6 622.1,169.6 
	622.2,169.6 622.2,169.4 622.3,169.4 622.3,169.2 622.6,169.2 622.6,169 622.9,169 622.9,168.7 623.4,168.7 623.4,168.5 
	623.5,168.5 623.5,168.1 623.4,168.1 623.4,167.4 623.1,167.4 623.1,167.8 623.3,167.8 623.3,168 623.1,168 623.1,168.1 
	622.9,168.1 622.9,168.3 622.6,168.3 622.6,168.5 622.5,168.5 622.5,168.7 622.3,168.7 622.3,168.9 621.8,168.9 621.8,169.2 
	621.6,169.2 621.6,169.4 621.5,169.4 621.5,169.9 621.4,169.9 621.4,171 621.1,171 621.1,171.2 620.4,171.2 620.4,171.5 
	620.2,171.5 620.2,171.7 619.8,171.7 619.8,171.9 619.5,171.9 619.5,172.1 619.1,172.1 619.1,172.2 618.8,172.2 618.8,172.4 
	618.6,172.4 618.6,172.6 618.3,172.6 618.3,172.8 618,172.8 618,173 617.8,173 617.8,173.1 617.1,173.1 617.1,173.5 617,173.5 
	617,173.7 616.7,173.7 616.7,173.8 616.6,173.8 616.6,174 616.2,174 616.2,174.2 615.9,174.2 615.9,174.6 615.8,174.6 615.8,174.9 
	615.6,174.9 615.6,175.8 615.1,175.8 615.1,176 613.9,176 613.9,176.2 613.6,176.2 613.6,176.3 613.5,176.3 613.5,176.5 
	613.4,176.5 613.4,176.7 613.2,176.7 613.2,177.2 613.1,177.2 613.1,177.4 613,177.4 613,177.8 612.8,177.8 612.8,177.9 
	612.7,177.9 612.7,177.8 612.6,177.8 612.6,177.9 612.4,177.9 612.4,178.1 612.3,178.1 612.3,178.3 612.2,178.3 612.2,178.5 
	612,178.5 612,178.7 611.6,178.7 611.6,178.8 611.2,178.8 611.2,179.2 611.1,179.2 611.1,179.4 611,179.4 611,179.5 610.8,179.5 
	610.8,179.7 610.7,179.7 610.7,179.9 610.6,179.9 610.6,180.1 610.4,180.1 610.4,180.3 610.2,180.3 610.2,180.1 610,180.1 
	610,180.3 609.9,180.3 609.9,180.4 609.6,180.4 609.6,180.6 609.5,180.6 609.5,180.4 609.4,180.4 609.4,180.1 609.2,180.1 
	609.2,179.9 609.1,179.9 609.1,180.3 609,180.3 609,180.8 608.7,180.8 608.7,181 608.4,181 608.4,181.1 608.2,181.1 608.2,181.3 
	607.8,181.3 607.8,181.5 607.4,181.5 607.4,181.7 607,181.7 607,181.9 606.4,181.9 606.4,182 606,182 606,182.2 605.5,182.2 
	605.5,182.4 605.2,182.4 605.2,182.7 605.1,182.7 605.1,182.9 604.8,182.9 604.8,183.1 604.3,183.1 604.3,183.3 604.4,183.3 
	604.4,183.5 604.3,183.5 604.3,183.6 604.2,183.6 604.2,183.8 604,183.8 604,184 603.6,184 603.6,183.8 603.5,183.8 603.5,183.6 
	603.2,183.6 603.2,184 603.1,184 603.1,184.2 602.4,184.2 602.4,184 602.2,184 602.2,184.3 602.3,184.3 602.3,184.5 602.2,184.5 
	602.2,184.7 601.5,184.7 601.5,185.1 601.6,185.1 601.6,185.2 601.5,185.2 601.5,185.4 601.2,185.4 601.2,185.6 601,185.6 
	601,185.8 600.8,185.8 600.8,185.6 600.7,185.6 600.7,185.4 600.4,185.4 600.4,185.6 600.1,185.6 600.1,186.1 600,186.1 600,186.3 
	599.9,186.3 599.9,186.5 599.6,186.5 599.6,186.7 598.8,186.7 598.8,186.5 598.7,186.5 598.7,186.3 598.5,186.3 598.5,186.5 
	598.3,186.5 598.3,186.8 598.1,186.8 598.1,187 598,187 598,187.2 597.5,187.2 597.5,187.4 596.8,187.4 596.8,187.6 596,187.6 
	596,187.4 595.9,187.4 595.9,187.6 595.5,187.6 595.5,187.7 595.3,187.7 595.3,187.9 594.7,187.9 594.7,188.1 594.4,188.1 
	594.4,188.3 593.7,188.3 593.7,188.4 593.5,188.4 593.5,188.3 593.2,188.3 593.2,188.4 593.1,188.4 593.1,188.6 592.9,188.6 
	592.9,188.8 592,188.8 592,189 591.6,189 591.6,188.8 591.5,188.8 591.5,189 591.2,189 591.2,189.2 591,189.2 590.9,189.2 
	590.9,189 590.4,189 590.4,189.2 590.3,189.2 590.3,189.3 590.1,189.3 590.1,189.5 589.7,189.5 589.7,189.7 589.6,189.7 
	589.6,189.9 589.3,189.9 589.3,190 589.1,190 589.1,190.2 588.9,190.2 588.9,190.4 588.7,190.4 588.7,190.6 588.1,190.6 
	588.1,190.8 587.6,190.8 587.6,190.6 587.5,190.6 587.5,190.2 587.3,190.2 587.3,190.4 586.8,190.4 586.8,190.6 586.5,190.6 
	586.5,190.8 586,190.8 586,190.4 586.1,190.4 586.1,190.2 586.9,190.2 586.9,190 587.1,190 587.1,189.7 586.9,189.7 586.9,189.5 
	587.1,189.5 587.1,189.2 587.2,189.2 587.2,188.8 587.1,188.8 587.1,188.6 586.8,188.6 586.8,188.8 586.7,188.8 586.7,189 
	586.5,189 586.5,189.2 586.4,189.2 586.4,189.3 586.3,189.3 586.3,189.5 586.1,189.5 586.1,189.7 586,189.7 586,189.9 585.6,189.9 
	585.6,190 585.5,190 585.5,190.2 585.2,190.2 585.2,190.4 585.1,190.4 585.1,190.6 584.9,190.6 584.9,190.8 584.5,190.8 
	584.5,190.9 584.4,190.9 584.4,191.6 584.3,191.6 584.3,191.8 584,191.8 584,192 583.3,192 583.3,192.2 583.2,192.2 583.2,192.4 
	583.1,192.4 583.1,192.5 582.9,192.5 582.9,192.7 582.7,192.7 582.7,192.9 582.4,192.9 582.4,193.1 582,193.1 582,193.3 
	581.7,193.3 581.7,193.4 581.5,193.4 581.5,193.6 581.2,193.6 581.2,193.8 580.8,193.8 580.8,194 580.5,194 580.5,194.1 
	580.1,194.1 580.1,194 579.9,194 579.9,194.5 579.7,194.5 579.7,194.7 579.1,194.7 579.1,194.5 579.2,194.5 579.2,193.8 
	579.6,193.8 579.6,193.6 579.7,193.6 579.7,193.4 580,193.4 580,193.3 580.1,193.3 580.1,192.9 579.7,192.9 579.7,193.1 
	579.5,193.1 579.5,193.3 579.3,193.3 579.3,193.4 579.1,193.4 579.1,193.6 578.9,193.6 578.9,193.8 578.7,193.8 578.7,194 
	578.4,194 578.4,194.1 578.3,194.1 578.3,194.5 578.1,194.5 578.1,194.7 578,194.7 578,195.2 577.9,195.2 577.9,195.4 574.4,195.4 
	574.4,195.6 572.9,195.6 572.9,195.7 572.5,195.7 572.5,195.9 571.6,195.9 571.6,196.1 571.4,196.1 571.4,195.9 571.3,195.9 
	571.3,195.7 570.2,195.7 570.2,195.6 569.4,195.6 569.4,195.4 568.6,195.4 568.6,195.2 568.2,195.2 568.2,195.4 567.8,195.4 
	567.8,195.6 567.5,195.6 566.5,195.6 566.5,195.7 566.2,195.7 566.2,195.9 565.4,195.9 565.4,196.1 565,196.1 565,196.3 
	564.5,196.3 564.5,196.5 564.1,196.5 564.1,196.6 563.8,196.6 563.8,196.5 563.3,196.5 563.3,196.6 563.2,196.6 563.2,196.8 
	562.6,196.8 562.6,196.6 562.5,196.6 562.5,196.5 562.6,196.5 562.6,196.1 562.9,196.1 562.9,195.9 563.4,195.9 563.4,195.6 
	562.6,195.6 562.6,195.7 562.4,195.7 562.4,195.9 562.2,195.9 562.2,196.1 562.1,196.1 562.1,196.3 561.8,196.3 561.8,196.5 
	561.6,196.5 561.6,196.6 560.2,196.6 560.2,196.8 556,196.8 556,197 553.4,197 553.4,196.8 552.9,196.8 552.9,196.6 552.7,196.6 
	552.7,196.5 551.9,196.5 551.9,196.6 551.1,196.6 551.1,196.8 550.5,196.8 550.5,197 549.4,197 549.4,197.2 546.5,197.2 546.5,197 
	546.2,197 546.2,196.8 546.1,196.8 546.1,196.3 545.9,196.3 545.9,196.1 545.8,196.1 545.8,196.5 545.4,196.5 545.4,196.3 
	545.3,196.3 545.3,196.1 545.1,196.1 545.1,195.9 545,195.9 545,195.7 543.7,195.7 543.7,195.4 543.5,195.4 543.5,195.2 
	543.3,195.2 543.3,195 542.3,195 542.3,195.4 541.7,195.4 541.7,195.2 541.4,195.2 541.4,195 541.1,195 541.1,194.9 540.6,194.9 
	540.6,194.7 540.3,194.7 540.3,194.5 540.2,194.5 540.2,194.3 540.1,194.3 540.1,194.1 539.9,194.1 539.9,194 537,194 537,193.8 
	533.9,193.8 533.9,193.6 533.5,193.6 533.5,193.4 533.3,193.4 533.3,193.3 533,193.3 533,193.1 532.6,193.1 532.6,192.9 
	532.3,192.9 532.3,192.7 532,192.7 532,192.5 531.8,192.5 531.8,192.4 531.1,192.4 531.1,192.2 531,192.2 531,192 530.7,192 
	530.7,191.8 530.4,191.8 530.4,191.6 530,191.6 530,191.5 529.9,191.5 529.9,191.3 529.8,191.3 529.8,191.1 529.5,191.1 
	529.5,190.9 529.1,190.9 529.1,190.8 528.8,190.8 528.8,190.6 528.6,190.6 528.6,190.4 528.4,190.4 528.4,190.2 528.2,190.2 
	528.2,190 528,190 528,189.9 527.2,189.9 527.2,189.7 527.1,189.7 527.1,189.5 527,189.5 527,189.3 526.8,189.3 526.8,189 
	526.4,189 526.4,189.2 526.2,189.2 526.2,189 525.9,189 525.9,188.6 525.6,188.6 525.6,188.4 525.4,188.4 525.4,188.3 525.2,188.3 
	525.2,187.9 525,187.9 525,187.7 524.7,187.7 524.7,187.6 524.6,187.6 524.6,187.4 524.4,187.4 524.4,187.2 524.3,187.2 
	524.3,186.8 524.2,186.8 524.2,186.7 524,186.7 524,186.5 523.9,186.5 523.9,186.3 523.8,186.3 523.8,186.1 523.6,186.1 
	523.6,185.9 523.5,185.9 523.5,185.8 523.4,185.8 523.4,185.6 523.2,185.6 523.2,185.4 523,185.4 523,185.1 522.7,185.1 
	522.7,184.7 522.6,184.7 522.6,184.5 522.3,184.5 522.3,184.3 522.2,184.3 522.2,184.2 521.9,184.2 521.9,184 521.8,184 
	521.8,183.8 521.5,183.8 521.5,182.6 521.4,182.6 521.4,182.4 521.2,182.4 521.2,182 521.1,182 521.1,181.9 521,181.9 521,181.5 
	520.8,181.5 520.8,181.1 520.7,181.1 520.7,181 520.6,181 520.6,180.6 520.4,180.6 520.4,180.4 520.2,180.4 520.2,180.3 
	519.9,180.3 519.9,180.1 519.8,180.1 519.8,179.9 519.4,179.9 519.4,179.7 519.1,179.7 519.1,179.5 519,179.5 519,179.4 
	518.6,179.4 518.6,179.2 517.1,179.2 517.1,179 516.7,179 516.7,178.8 516.2,178.8 516.2,178.7 515.8,178.7 515.8,178.5 
	515.4,178.5 515.4,178.3 515,178.3 515,178.1 514.8,178.1 514.8,177.9 514.7,177.9 514.7,177.8 514.6,177.8 514.6,177.6 
	514.4,177.6 514.4,177.4 514.3,177.4 514.3,177.2 514.2,177.2 514.2,176.9 514.3,176.9 514.3,176.7 514.6,176.7 514.6,176.2 
	514.4,176.2 514.4,175.8 514.2,175.8 514.2,176 514,176 514,176.2 513.6,176.2 513.6,175.3 514.8,175.3 514.8,175.4 515,175.4 
	515,175.6 515.2,175.6 515.2,175.8 515.6,175.8 515.6,175.6 515.5,175.6 515.5,175.4 515.4,175.4 515.4,175.3 515.2,175.3 
	515.2,174.9 515.1,174.9 515.1,174.7 514.8,174.7 514.8,174.6 514.6,174.6 514.6,174.4 514.3,174.4 514.3,174.2 513.8,174.2 
	513.8,173.7 513.6,173.7 513.6,173.3 513.5,173.3 513.5,173 513.4,173 513.4,172.2 513.2,172.2 513.2,171.9 513.1,171.9 
	513.1,171.7 513,171.7 513,171.5 512.8,171.5 512.8,171.2 512.6,171.2 512.6,170.8 512.4,170.8 512.4,170.6 512.3,170.6 
	512.3,170.5 512.2,170.5 512.2,170.1 512,170.1 512,169.9 511.9,169.9 511.9,169.7 511.6,169.7 511.6,169.6 511.5,169.6 
	511.5,169.4 511.2,169.4 511.2,169.2 510.8,169.2 510.8,169 510.6,169 510.4,169 510.4,168.9 510.3,168.9 510.3,168.7 509.5,168.7 
	509.5,168 509.2,168 509.2,167.8 509.1,167.8 509.1,168 508.9,168 508.9,168.1 508.1,168.1 508.1,168 507.6,168 507.6,167.8 
	506.9,167.8 506.9,167.6 506.7,167.6 506.7,167.4 506.3,167.4 506.3,167.3 506.1,167.3 506.1,166.9 505.6,166.9 505.6,166.7 
	505.2,166.7 505.2,166.9 505.1,166.9 505.1,167.1 504.9,167.1 504.9,167.3 503.7,167.3 503.7,166.9 503.6,166.9 503.6,166.7 
	503.2,166.7 503.2,167.3 502.9,167.3 502.9,167.6 502.7,167.6 502.7,167.4 502.5,167.4 502.5,167.3 501.6,167.3 501.6,167.4 
	501.1,167.4 501.1,167.6 500.9,167.6 500.9,167.8 500.7,167.8 500.7,167.6 500.5,167.6 500.5,167.3 500.4,167.3 500.4,167.1 
	499.7,167.1 499.7,167.3 499.3,167.3 499.3,167.4 498.7,167.4 498.7,167.6 497.9,167.6 497.9,167.8 497.5,167.8 497.5,168 
	495.1,168 495.1,168.1 494.5,168.1 494.5,168.3 494,168.3 494,168.1 493.9,168.1 493.9,168.3 493.5,168.3 493.5,168.1 492.5,168.1 
	492.5,168.3 492.3,168.3 492.3,168.1 492,168.1 492,167.8 491.6,167.8 491.6,167.6 491.2,167.6 491.2,167.4 491.1,167.4 
	491.1,167.3 490.9,167.3 490.9,167.1 490.8,167.1 490.8,166.9 490.7,166.9 490.7,166.7 489.7,166.7 489.7,166.5 489.5,166.5 
	489.4,166.7 489.1,166.7 489.1,166.5 488.9,166.5 488.9,166.4 488.8,166.4 488.7,166.4 488.4,166.4 488.4,166.2 488.2,166.2 
	488.2,165.9 488.2,165.8 488.1,165.8 488.1,165.5 487.7,165.5 487.7,165.3 487.4,165.3 487.4,165.1 487.3,165.1 487.3,164.9 
	487,164.9 487,164.8 486.8,164.8 486.8,164.6 486.5,164.6 486.5,164.4 486.4,164.4 486.4,164.2 486.1,164.2 486.1,164.1 
	485.6,164.1 485.6,163.9 485.2,163.9 485.2,163.7 485,163.7 485,163.3 484.6,163.3 484.6,163.7 484.5,163.7 484.5,163.9 
	483.8,163.9 483.8,164.1 483,164.1 483,164.2 482.8,164.2 482.8,164.3 482.8,164.4 482.4,164.4 482.4,164.6 482.1,164.6 
	482.1,164.8 481.7,164.8 481.7,164.9 481.4,164.9 481.4,165.1 481.3,165.1 481.3,165.3 480.8,165.3 480.8,165.5 480.2,165.5 
	479.2,165.5 479.2,165.3 478.4,165.3 478.4,165.1 478.2,165.1 478.2,164.9 478,164.9 478,164.8 477.7,164.8 477.7,164.6 
	477.4,164.6 477.4,164.4 477.3,164.4 477.3,164.2 476.4,164.2 476.4,164.4 476,164.4 476,164.6 475.7,164.6 475.7,164.9 
	475.4,164.9 475.4,165.3 474.8,165.3 474.8,165.5 474.5,165.5 474.5,165.7 473,165.7 473,165.8 470.2,165.8 470.2,166 469.8,166 
	469.8,166.2 467.6,166.2 467.6,166.5 467.3,166.5 467.3,166.7 466.9,166.7 466.9,166.9 466.3,166.9 466.3,166.7 466.2,166.7 
	466.2,166.5 466.1,166.5 466.1,166.4 465.8,166.4 465.8,166.2 465.7,166.2 465.7,166.4 465.5,166.4 465.5,166.5 465.4,166.5 
	465.4,166.9 465.3,166.9 465.3,167.1 464.6,167.1 464.6,167.3 464.3,167.3 464.3,167.4 463.4,167.4 463.4,167.6 463,167.6 
	463,167.8 462.7,167.8 462.7,168 462.2,168 462.2,168.1 461.8,168.1 461.8,168.5 461.5,168.5 461.5,168.7 460.9,168.7 460.9,168.5 
	460.7,168.5 460.7,168.3 460.6,168.3 460.6,168.1 460.3,168.1 460.3,168 460.2,168 460.2,167.8 459.5,167.8 459.5,168 459.4,168 
	459.4,168.3 459.3,168.3 459.3,168.5 459.1,168.5 459.1,168.9 459,168.9 459,169.2 458.5,169.2 458.5,169.4 457.7,169.4 
	457.7,169.6 457.1,169.6 457.1,169.4 456.7,169.4 456.7,169.7 456.1,169.7 456.1,169.9 453.4,169.9 453.4,169.7 448.3,169.7 
	448.3,169.9 447.3,169.9 447.3,169.7 447.1,169.7 447.1,169.9 446.7,169.9 445.3,169.9 445.3,170.1 443.6,170.1 443.6,170.3 
	441.6,170.3 441.6,170.1 440,170.1 440,169.9 439.6,169.9 439.6,169.7 439.1,169.7 439.1,169.6 439,169.6 439,169.4 436.7,169.4 
	436.7,169.6 436,169.6 436,169.7 435.1,169.7 435.1,169.9 434.4,169.9 434.4,170.1 433.5,170.1 433.5,170.3 433.3,170.3 
	432.8,170.3 432.8,170.5 431.5,170.5 431.5,170.3 429.9,170.3 429.9,170.1 429.1,170.1 429.1,170.3 427.9,170.3 427.9,170.1 
	427.8,170.1 427.8,169.9 426.8,169.9 426.8,169.7 426.2,169.7 426.2,169.4 425.9,169.4 425.9,169.2 425.4,169.2 425.4,169 
	425.2,169 425.2,168.9 424.8,168.9 424.8,168.7 424,168.7 424,168.3 423,168.3 423,168.1 422,168.1 422,168 420,168 420,167.8 
	419.6,167.8 419.6,167.3 419.7,167.3 419.7,166.5 419.3,166.5 419.3,166.7 419.2,166.7 419.2,166.9 418.7,166.9 418.7,166.7 
	418.4,166.7 418.4,166.5 418,166.5 418,166.2 417.9,166.2 417.9,166 417.6,166 417.6,165.8 417.5,165.8 417.5,165.5 418.3,165.5 
	418.3,165.3 418.9,165.3 418.9,165.5 419.2,165.5 419.2,165.7 419.3,165.7 419.3,165.8 419.5,165.8 419.5,166 420.3,166 
	420.3,165.7 420.1,165.7 420.1,165.5 419.9,165.5 419.9,165.3 419.5,165.3 419.5,165.1 419.1,165.1 419.1,164.9 418.5,164.9 
	418.5,164.8 418.4,164.8 418.4,164.6 417.1,164.6 417.1,164.8 416.7,164.8 416.7,164.6 416.5,164.6 416.5,164.4 416,164.4 
	416,164.2 415.9,164.2 415.9,164.1 415.7,164.1 415.7,163.9 415.5,163.9 415.5,163.7 415.2,163.7 415.2,163.3 415.1,163.3 
	415.1,163.2 414.9,163.2 414.9,163 414.8,163 414.8,162.8 414.4,162.8 414.4,162.6 414.3,162.6 414.3,162.4 414.1,162.4 
	414.1,162.3 414,162.3 414,161.9 413.9,161.9 413.9,161.7 413.3,161.7 413.3,161.6 413.2,161.6 413.2,161.2 413.1,161.2 
	413.1,160.5 412.3,160.5 412.3,160.3 412,160.3 412,160.1 411.9,160.1 411.9,160 411.7,160 411.7,159.8 411.6,159.8 411.6,159.6 
	411.3,159.6 411.3,159.4 411.2,159.4 411.2,159.2 410.8,159.2 410.8,159.1 410.4,159.1 410.4,158.9 410,158.9 410,158.7 
	409.9,158.7 409.9,158.4 409.7,158.4 409.7,158.2 409.6,158.2 409.6,157.5 409.5,157.5 409.5,157.3 409.3,157.3 409.3,157.1 
	409.2,157.1 409.2,156.9 409.1,156.9 409.1,156.6 408.9,156.6 408.9,156.2 408.8,156.2 408.8,155.9 408.8,153.9 408.9,153.9 
	408.9,152.8 408.8,152.8 408.8,152.5 408.7,152.5 408.7,152.3 408.5,152.3 408.5,152.1 408.4,152.1 408.4,151.9 408.3,151.9 
	408.3,151.8 408.1,151.8 408.1,151.4 408,151.4 408,151.1 407.7,151.1 407.7,150.9 407.6,150.9 407.6,150.7 407.3,150.7 
	407.3,150.5 407.2,150.5 407.2,150.3 407.1,150.3 407.1,150.2 406.5,150.2 406.5,150 406.1,150 406.1,149.8 405.3,149.8 405.3,150 
	403.2,150 402.1,150 402.1,149.8 401.9,149.8 401.9,149.6 401.6,149.6 401.6,149.1 401.1,149.1 401.1,148.9 399.2,148.9 
	399.2,148.7 398.6,148.7 398.6,148.6 398.5,148.6 398.5,148.4 398.2,148.4 398.2,148.2 397.8,148.2 397.8,148 397.4,148 
	397.4,147.8 397.3,147.8 397.3,147.7 397.2,147.7 397.2,147.5 396.9,147.5 396.9,147.3 396.8,147.3 396.8,147.1 396.4,147.1 
	396.4,147 396.2,147 396.2,146.6 396,146.6 396,146.4 395.8,146.4 395.8,146.2 395.4,146.2 395.4,146.1 395.2,146.1 395.2,145.9 
	394.6,145.9 394.6,145.7 394.2,145.7 394.2,145.5 394,145.5 394,145.4 393.7,145.4 393.7,145.2 393.3,145.2 393.3,145 393.2,145 
	393.2,144.8 393,144.8 393,144.6 392.9,144.6 392.9,144.5 392.8,144.5 392.8,144.3 392.5,144.3 392.5,144.1 392,144.1 392,143.9 
	391.6,143.9 391.6,143.8 391.2,143.8 391.2,143.6 390.8,143.6 390.8,143.4 390.5,143.4 390.5,143.2 390.2,143.2 390.2,143 390,143 
	390,142.9 387.8,142.9 387.8,142.7 387.2,142.7 387.2,142.5 386.9,142.5 386.9,142.3 386.5,142.3 386.5,142.2 386.2,142.2 
	386.2,142 386,142 386,141.8 385.8,141.8 385.8,141.4 385.7,141.4 385.7,141.3 385.6,141.3 385.6,141.1 385.3,141.1 385.3,140.9 
	385.3,140.7 385.3,140.4 385,140.4 385,140.2 383.8,140.2 383.8,140 383.7,140 383.7,139.8 383.6,139.8 383.6,139.7 383.4,139.7 
	383.4,139.5 383.3,139.5 383.3,139.3 383,139.3 383,139.1 382.5,139.1 382.5,139.3 381.8,139.3 381.8,139.1 381.3,139.1 
	381.3,138.9 379.7,138.9 379.7,139.1 379.2,139.1 379.2,139.3 378.5,139.3 378.5,139.5 378.4,139.5 377.8,139.5 377.8,139.7 
	377,139.7 377,139.8 376.3,139.8 376.3,140 375.9,140 375.9,140.2 374.2,140.2 374.2,140 373.7,140 373.7,139.8 373.1,139.8 
	373.1,139.7 372.7,139.7 372.7,139.5 372.3,139.5 372.3,139.3 371.8,139.3 371.8,139.5 371.5,139.5 371.5,139.3 371.3,139.3 
	371.3,139.5 370.9,139.5 370.9,139.7 370.2,139.7 370.2,139.8 369.7,139.8 369.4,139.8 369.4,139.9 369.4,140 368.6,140 
	368.6,139.8 367.9,139.8 367.9,139.7 367.9,139.5 367.8,139.5 367.8,139.3 367.7,139.3 367.7,139.1 367.5,139.1 367.5,139.5 
	367.4,139.5 367.4,139.7 367.5,139.7 367.5,139.7 367.5,140.2 367.4,140.2 367.4,140.4 367.3,140.4 367.3,140.5 366.3,140.5 
	366.3,140.2 366.2,140.2 366.2,140 366.1,140 366.1,139.8 365.9,139.8 365.9,139.7 365.8,139.7 365.8,139.5 365.7,139.5 
	365.7,139.2 365.7,138.9 366.1,138.9 366.1,138.8 366.5,138.8 366.5,138.4 366.6,138.4 366.6,138.2 365.5,138.2 365.5,138.4 
	365.3,138.4 365.3,138.8 365.1,138.8 364.1,138.8 364.1,138.6 363.8,138.6 363.8,138.4 363.4,138.4 363.4,138.2 363,138.2 
	363,138.1 362.7,138.1 362.7,137.9 362.5,137.9 362.5,137 362.6,137 362.6,136.8 362.7,136.8 362.7,136.8 362.7,136.5 362.9,136.5 
	362.9,136.3 363,136.3 363,136.1 363.1,136.1 363.1,135.2 363,135.2 363,135.4 361.9,135.4 361.9,135.2 360.1,135.2 360.1,135 
	359.4,135 359.4,134.9 359.3,134.9 359.3,134.7 358.7,134.7 358.7,134.9 358.5,134.9 358.5,135 357.9,135 357.9,134.9 356.5,134.9 
	356.5,134.7 355.9,134.7 355.9,134.5 355.6,134.5 355.6,134.1 355.5,134.1 355.5,133.8 355.4,133.8 355.4,133.4 354.4,133.4 
	354.4,133.1 353.6,133.1 353.6,133.2 353.2,133.2 353.2,133.4 353.1,133.4 353.1,133.6 353,133.6 353,133.8 352.8,133.8 352.8,134 
	352,134 352,134.1 351.6,134.1 351.6,134.3 350.8,134.3 350.8,134.5 350.2,134.5 350.2,134.7 349.6,134.7 349.6,134.9 349.2,134.9 
	349.2,135 349.1,135 349.1,135.2 348.4,135.2 348.4,134.9 347.5,134.9 347.5,135 347.1,135 347.1,135.2 346.8,135.2 346.8,135.4 
	346.4,135.4 346.4,135.6 346,135.6 346,135.7 345.6,135.7 345.6,135.9 345.2,135.9 345.2,136.1 345,136.1 345,136.3 344.4,136.3 
	344.4,136.5 344,136.5 344,136.6 343.6,136.6 343.6,136.8 343.2,136.8 343.2,137.2 342.7,137.2 342.7,137.3 342.6,137.3 
	342.6,137.5 342.2,137.5 342.2,137.7 342,137.7 342,137.9 341.9,137.9 341.9,138.1 341.6,138.1 341.6,138.2 341.5,138.2 
	341.5,138.4 341.2,138.4 341.2,138.6 341.1,138.6 341.1,138.8 340.8,138.8 340.8,138.9 340.2,138.9 340.2,139.1 340,139.1 
	340,139.3 339.8,139.3 339.8,139.5 339.6,139.5 339.6,139.7 338.7,139.7 338.7,139.8 338.2,139.8 338.2,140 337.9,140 337.9,140.2 
	337.6,140.2 337.6,140.4 337.4,140.4 337.4,140.5 337.1,140.5 337.1,140.7 337,140.7 337,140.7 337,140.9 336.7,140.9 336.7,141.1 
	336.4,141.1 336.4,141.3 336.2,141.3 336.2,141.4 335.8,141.4 335.8,141.6 334.4,141.6 334.4,141.4 334,141.4 334,141.6 
	333.5,141.6 333.5,141.4 333.3,141.4 333.3,141.6 332.8,141.6 332.8,141.8 332.1,141.8 332.1,142 331.3,142 331.3,142.2 
	330.9,142.2 330.9,142.3 330.5,142.3 330.5,142.5 330.3,142.5 330.3,142.7 329.9,142.7 329.9,142.9 329.6,142.9 329.6,143 
	329.3,143 329.3,143.2 329.1,143.2 329.1,143.4 328.5,143.4 328.5,143.6 328.3,143.6 328.3,143.8 327.9,143.8 327.9,143.9 
	327.6,143.9 327.6,144.1 326.7,144.1 326.7,143.9 326.3,143.9 326.3,143.8 325.2,143.8 325.2,143.6 321.6,143.6 321.6,143.4 
	320.9,143.4 320.9,143.2 320.3,143.2 320.3,143 319.5,143 319.5,142.9 318.8,142.9 318.8,142.7 318.4,142.7 318.4,142.5 318,142.5 
	318,142.3 317.6,142.3 317.6,142.2 317.2,142.2 317.2,142 316.8,142 316.8,141.8 316.4,141.8 316.4,141.6 316.3,141.6 316.3,141.4 
	316.1,141.4 316.1,141.1 316,141.1 316,140.9 315.9,140.9 315.9,140.7 315.6,140.7 315.6,140.5 315.1,140.5 315.1,140.4 
	314.9,140.4 314.9,140.2 314.8,140.2 314.8,140 314.7,140 314.7,139.8 314.5,139.8 314.5,139.7 314.4,139.7 314.4,139.5 
	314.1,139.5 314.1,139.3 314,139.3 314,139.1 313.9,139.1 313.9,138.8 313.8,138.8 313.7,138.8 313.7,138.7 313.7,138.2 
	313.6,138.2 313.6,138.1 313.1,138.1 313.1,137.9 312.9,137.9 312.9,137.7 312.8,137.7 312.8,137.3 312.7,137.3 312.7,137 
	312.5,137 312.5,136.8 312.4,136.8 312.4,136.6 312.3,136.6 312.3,136.5 312,136.5 312,136.1 311.9,136.1 311.9,135.9 310.4,135.9 
	310.4,135.7 309.3,135.7 309.3,135.6 309,135.6 309,135.4 308.4,135.4 308.4,135.2 308.2,135.2 308.2,135 308.1,135 308.1,134.9 
	307.8,134.9 307.8,134.7 307.6,134.7 307.6,134.5 307.2,134.5 307.2,134.3 306.1,134.3 306.1,134.1 305.6,134.1 305.6,134 305,134 
	305,133.8 304.8,133.8 304.8,133.6 304.4,133.6 304.4,133.4 304.1,133.4 304.1,133.2 304,133.2 304,132.9 303.8,132.9 303.8,132.7 
	303.6,132.7 303.6,132.5 303.4,132.5 303.3,132.5 303.3,132.4 302.2,132.4 302.2,132.2 302.1,132.2 302.1,132 302,132 302,131.8 
	301.7,131.8 301.7,131.6 301.3,131.6 301.3,131.8 300.4,131.8 300.4,131.6 300.2,131.6 300.2,131.5 300,131.5 300,131.6 
	299.4,131.6 299.4,131.5 299.2,131.5 299.2,131.3 298.9,131.3 298.9,131.1 298.5,131.1 298.5,130.9 298.1,130.9 298.1,130.4 
	297.8,130.4 297.8,130.2 297.6,130.2 297.6,130 296.5,130 296.5,129.9 296.2,129.9 296.2,129.7 296,129.7 296,129.5 295.7,129.5 
	295.7,129.3 295.4,129.3 295.4,129.2 295.3,129.2 295.3,129 295,129 295,128.8 294.2,128.8 294.2,128.6 293.3,128.6 293.3,128.8 
	292.8,128.8 292.8,129 292.2,129 292.2,129.2 291,129.2 289.3,129.2 289.3,129 288.9,129 288.9,128.8 288.6,128.8 288.6,128.6 
	288.2,128.6 288.2,128.4 287.8,128.4 287.8,128.3 287.5,128.3 287.5,128.1 287.1,128.1 287.1,127.9 286.9,127.9 286.9,127.7 
	286.6,127.7 286.6,127.6 286.5,127.6 286.5,127.4 286.3,127.4 286.3,127.2 286.1,127.2 286.1,127 285.9,127 285.9,126.8 
	285.8,126.8 285.8,126.7 285.1,126.7 285.1,126.5 284.1,126.5 284.1,126.3 283.7,126.3 283.7,126.1 283.4,126.1 283.4,125.9 
	283,125.9 283,125.8 282.7,125.8 282.7,125.6 282.3,125.6 282.3,125.4 282.1,125.4 282.1,125.2 281.8,125.2 281.8,125.1 
	281.4,125.1 281.4,124.9 281.1,124.9 281.1,124.7 280.9,124.7 280.9,124.5 280.6,124.5 280.6,124.3 280.3,124.3 280.3,124.2 
	280.1,124.2 280.1,124 279.9,124 279.9,123.8 279.8,123.8 279.8,122.9 279.7,122.9 279.7,122.6 279.3,122.6 279.3,122.4 279,122.4 
	279,122 278.9,122 278.9,121.7 278.7,121.7 278.7,121.3 278.6,121.3 278.6,121.1 278.5,121.1 278.5,121 278.3,121 278.3,120.8 
	278.2,120.8 278.2,120.6 278.1,120.6 278.1,119.9 277.9,119.9 277.9,119.7 277.8,119.7 277.8,119.5 277.7,119.5 277.7,119.4 
	277.5,119.4 277.5,119.2 277.4,119.2 277.4,118.8 277.3,118.8 277.3,118.6 277.1,118.6 277.1,118.5 276.9,118.5 276.9,118.3 
	276.6,118.3 276.6,118.1 276.5,118.1 276.5,117.9 276.2,117.9 276.2,117.8 276.1,117.8 276.1,117.6 275.9,117.6 275.9,117.4 
	275.8,117.4 275.8,117.2 275.7,117.2 275.7,115.6 275.5,115.6 275.5,115.4 275.4,115.4 275.4,115.3 275.3,115.3 275.3,115.1 
	275,115.1 275,114.9 274.9,114.9 274.9,114.7 274.6,114.7 274.6,114.6 274.3,114.6 274.3,114.4 274.2,114.4 274.2,114.2 
	273.9,114.2 273.9,114 273.7,114 273.7,113.8 273.5,113.8 273.5,113.7 273.3,113.7 273.3,113.5 273.1,113.5 273.1,113.3 273,113.3 
	273,113.1 272.7,113.1 272.7,113 272.6,113 272.6,112.8 272.5,112.8 272.5,112.6 272.3,112.6 272.3,112.4 272.1,112.4 272.1,112.2 
	271.9,112.2 271.9,112.1 271.9,112.1 271.8,112.1 271.8,112 271.8,111.9 271.7,111.9 271.7,111.5 271.5,111.5 271.5,111.3 
	271.4,111.3 271.4,111.2 271.1,111.2 271.1,111 270.7,111 270.7,110.8 270.6,110.8 270.6,110.5 270.5,110.5 270.5,110.3 
	270.2,110.3 270.2,110.1 269.9,110.1 269.9,109.9 269.7,109.9 269.7,109.7 269.4,109.7 269.4,109.6 269.1,109.6 269.1,109.4 
	268.9,109.4 268.9,109.2 268.6,109.2 268.6,109 268.3,109 268.3,108.9 268.1,108.9 268.1,108.7 267.8,108.7 267.8,108.5 
	267.6,108.5 267.6,108.3 267.5,108.3 267.5,108.1 267.1,108.1 267.1,108 266.7,108 266.7,107.8 266.6,107.8 266.6,107.3 
	266.4,107.3 266.4,107.1 265.9,107.1 265.9,106.9 265.8,106.9 265.8,106.5 265.6,106.5 265.6,106.4 265.4,106.4 265.4,106.2 
	265.2,106.2 265.2,106 265,106 265,105.8 264.8,105.8 264.8,105.7 264.7,105.7 264.7,105.5 264.4,105.5 264.4,105.3 264.3,105.3 
	264.3,105.1 264.2,105.1 264.2,104.9 264,104.9 264,104.8 263.8,104.8 263.8,104.6 263.6,104.6 263.6,104.4 263.4,104.4 
	263.4,104.2 263.2,104.2 263.2,104 262.7,104 262.7,103.9 262.6,103.9 262.6,103.7 262.4,103.7 262.4,103.5 262.3,103.5 
	262.3,103.2 262.2,103.2 262.2,103 262,103 262,102.8 261.9,102.8 261.9,102.6 261.8,102.6 261.8,102.4 261.6,102.4 261.6,102.3 
	261.5,102.3 261.5,102.1 261.4,102.1 261.4,101.9 261.2,101.9 261.2,101.7 261,101.7 261,101.6 260.7,101.6 260.7,101.4 
	260.4,101.4 260.4,101.2 260.2,101.2 260.2,101 259.9,101 259.9,100.8 259.8,100.8 259.8,100.7 259.5,100.7 259.5,100.5 
	259.2,100.5 259.2,100.3 259.1,100.3 259.1,100.1 258.8,100.1 258.8,100 258.7,100 258.7,99.8 258.4,99.8 258.4,99.6 258.3,99.6 
	258.3,99.4 258.2,99.4 258.2,99.2 258,99.2 258,99.1 257.9,99.1 257.9,98.9 257.8,98.9 257.8,98.7 257.6,98.7 257.6,98.5 
	257.5,98.5 257.5,98.4 257.4,98.4 257.4,98.2 257.2,98.2 257.2,98 257.1,98 257.1,97.8 257,97.8 257,97.6 256.8,97.6 256.8,97.5 
	256.7,97.5 256.7,97.3 256.4,97.3 256.4,97.1 256.3,97.1 256.2,97.1 256.2,97 256.2,96.9 256.1,96.9 255.9,96.9 255.9,96.7 
	255.6,96.7 255.6,96.6 255.5,96.6 255.5,96.4 255.2,96.4 255.2,96.2 255.1,96.2 255.1,96 255,96 255,95.9 254.7,95.9 254.7,95.7 
	254.6,95.7 254.6,95.5 254.4,95.5 254.4,95.1 254.3,95.1 254.3,94.8 254.2,94.8 254.2,94.6 253.5,94.6 253.5,94.4 253.4,94.4 
	253.4,94.3 253.1,94.3 253.1,94.1 253,94.1 253,93.9 252.7,93.9 252.7,93.7 252.4,93.7 252.4,93.5 252.3,93.5 252.3,93.4 252,93.4 
	252,93.2 251.9,93.2 251.9,93 251.8,93 251.8,92.7 251.6,92.7 251.6,92.5 251.4,92.5 251.4,92.3 251.2,92.3 251.2,91.9 251.1,91.9 
	251.1,91.6 251,91.6 251,91.4 250.8,91.4 250.8,91.1 250.7,91.1 250.7,90.9 250.6,90.9 250.6,90.5 250.4,90.5 250.4,90.2 
	250.3,90.2 250.3,89.6 250.4,89.6 250.4,89.1 250.4,88.6 250.3,88.6 250.3,88.2 249.8,88.2 249.8,88 249.2,88 249.2,87.8 
	248.7,87.8 248.7,87.7 248.2,87.7 248.2,87.5 248,87.5 247.9,87.5 247.9,87.4 247.9,87.3 247.8,87.3 247.6,87.3 247.6,87.1 
	247,87.1 247,87 246.3,87 246.3,86.8 245.9,86.8 245.9,86.4 245.6,86.4 245.6,86.2 245.4,86.2 245.4,85.9 245.2,85.9 245.2,85.7 
	244.9,85.7 244.9,85.5 244.8,85.5 244.8,85.2 244.7,85.2 244.7,85 244.5,85 244.5,84.6 244.4,84.6 244.4,84.5 244.1,84.5 
	244.1,84.3 243.9,84.3 243.9,84.1 243.7,84.1 243.7,83.9 243.5,83.9 243.5,83.8 243.3,83.8 243.3,83.6 243.2,83.6 243.2,83.2 
	243.1,83.2 243.1,83 242.9,83 242.9,82.9 242.8,82.9 242.8,82.7 242.7,82.7 242.7,82.5 242.5,82.5 242.5,82.3 242.3,82.3 
	242.3,82.2 242,82.2 242,82 241.7,82 241.7,81.8 240.9,81.8 240.9,81.6 240.3,81.6 240.3,81.4 238.4,81.4 238.4,81.3 237.9,81.3 
	237.9,81.1 237.6,81.1 237.6,80.9 237.5,80.9 237.5,80.7 237.1,80.7 237.1,80.5 236.8,80.5 236.8,80.4 236.4,80.4 236.4,80.2 
	235.7,80.2 235.7,80 235.1,80 235.1,79.8 234.5,79.8 234.5,79.8 234.5,79.7 234,79.7 234,79.5 233.6,79.5 233.6,79.3 233.1,79.3 
	233.1,79.1 232.4,79.1 232.4,78.9 231.9,78.9 231.9,78.8 231.3,78.8 231.3,78.6 230.9,78.6 230.9,78.4 230.5,78.4 230.5,78.2 
	230.3,78.2 230.3,78.1 229.9,78.1 229.9,77.9 229.1,77.9 229.1,77.7 228.9,77.7 228.9,77.5 228.8,77.5 228.8,77.3 228.7,77.3 
	228.7,77.2 228.5,77.2 228.5,77 226.7,77 226.7,76.8 224.7,76.8 224.7,76.6 224,76.6 224,76.5 223.3,76.5 223.3,76.3 222.9,76.3 
	222.9,76.1 222.6,76.1 222.6,75.9 222.1,75.9 222.1,75.7 221.4,75.7 221.4,75.6 220.5,75.6 220.5,75.7 220.2,75.7 220.2,75.9 
	219.7,75.9 219.7,76.1 219.2,76.1 219.2,76.3 218.4,76.3 218.4,76.5 217.4,76.5 217.4,76.3 217.2,76.3 217.2,76.1 216.9,76.1 
	216.9,75.9 216,75.9 216,76.1 215.2,76.1 215.2,75.9 215,75.9 215,75.7 214.9,75.7 214.9,75.6 214.6,75.5 214.6,75.4 214.5,75.4 
	214.5,75.2 214.4,75.2 214.2,75.2 214.2,75 214.2,75 214.1,75 214.1,74.9 214.1,74.8 214.1,74.8 214,74.8 214,74.7 214,74.7 
	213.9,74.7 213.8,74.7 213.8,74.6 213.8,74.5 213.8,74.5 213.6,74.5 213.6,74.3 213.4,74.3 213.4,74.1 213.4,73.6 213.7,73.6 
	213.7,73.8 213.8,73.8 213.8,73.2 213.7,73.2 213.7,73.1 213.6,73.1 213.6,72.9 212.2,72.9 212.2,72.7 211.6,72.7 211.6,72.5 
	210.9,72.5 210.9,72.4 210.4,72.4 210.4,72.2 210,72.2 210,72 209.7,72 209.7,71.8 209,71.8 209,72 208.8,72 208.8,72.2 208.4,72.2 
	208.4,72.4 208.1,72.4 208.1,72.5 207.4,72.5 207.4,72.7 207.2,72.7 207.2,72.9 207,72.9 207,73.1 206.8,73.1 206.8,73.2 
	206.5,73.2 206.5,73.4 206.2,73.4 206.2,73.6 206.1,73.6 206.1,73.8 205.8,73.8 205.8,74 205.6,74 205.6,74.1 205,74.1 205,74.3 
	204.6,74.3 204.6,74.1 203.8,74.1 203.8,74.5 203.7,74.5 203.7,74.8 203.4,74.8 203.4,75 203.2,75 203.2,75.2 203,75.2 203,75.4 
	202.9,75.4 202.9,75.6 202.8,75.6 202.8,75.7 202.6,75.7 202.6,75.9 202.4,75.9 202.4,76.1 202.2,76.1 202.2,76.3 202.1,76.3 
	202.1,76.5 202,76.5 202,76.6 201.8,76.6 201.8,76.8 201.5,76.8 201.5,77 201.4,77 201.4,77.2 201.2,77.2 201.2,77.3 201,77.3 
	201,77.5 200.7,77.5 200.7,77.7 200.6,77.7 200.6,77.9 200.3,77.9 200.3,78.1 200.2,78.1 200.2,78.2 199.8,78.2 199.8,78.4 
	199.4,78.4 199.4,78.8 199,78.8 199,78.9 198.9,78.9 198.9,79.1 198.6,79.1 198.6,79.3 198.5,79.3 198.5,79.5 198.3,79.5 
	198.3,79.7 198.2,79.7 198.2,79.8 197.8,79.8 197.8,80 197.7,80 197.7,80.2 197.4,80.2 197.4,80.4 197.3,80.4 197.3,80.5 197,80.5 
	197,80.7 196.9,80.7 196.9,80.9 196.6,80.9 196.6,81.1 196.5,81.1 196.5,81.3 196.2,81.3 196.2,81.4 196.1,81.4 196.1,81.6 
	195.9,81.6 195.9,81.8 195.8,81.8 195.8,82 195.5,82 195.5,82.2 195.4,82.2 195.4,82.3 195.3,82.3 195.3,82.5 195,82.5 195,82.7 
	194.9,82.7 194.9,82.9 194.6,82.9 194.6,83 194.5,83 194.5,83.2 194.2,83.2 194.2,83.4 194.1,83.4 194.1,83.6 193.8,83.6 
	193.8,83.8 193.7,83.8 193.7,83.9 193.5,83.9 193.5,84.1 193.4,84.1 193.4,84.3 193.3,84.3 193.3,84.5 193,84.5 193,84.6 
	192.7,84.6 192.7,84.8 192.6,84.8 192.6,85 192.3,85 192.3,85.2 192.2,85.2 192.2,85.4 191.9,85.4 191.9,85.5 191.5,85.5 
	191.5,85.7 190.6,85.7 190.6,85.9 190.1,85.9 190.1,86.1 189.9,86.1 189.9,86.4 189.8,86.4 189.8,86.6 189.7,86.6 189.7,86.8 
	189.4,86.8 189.4,87 189.1,87 189.1,87.1 189,87.1 189,87.5 188.7,87.5 188.7,87.7 188.6,87.7 188.6,87.8 188.3,87.8 188.3,88 
	187.9,88 187.9,88.2 187.7,88.2 187.7,88.4 187.3,88.4 187.3,88.6 186.6,88.6 186.6,89.1 186.5,89.1 186.5,89.3 186.3,89.3 
	186.3,89.4 186.2,89.4 186.2,89.6 185.8,89.6 185.8,89.8 184.7,89.8 184.7,89.4 184.9,89.4 184.9,89.1 185,89.1 185,88.9 
	185.1,88.9 185.1,88.2 184.9,88.2 184.9,88.4 184.7,88.4 184.7,88.6 184.6,88.6 184.6,88.7 184.5,88.7 184.5,88.9 184.3,88.9 
	184.3,89.1 184.2,89.1 184.2,89.3 184.1,89.3 184.1,89.4 183.9,89.4 183.9,89.6 183.7,89.6 183.7,89.8 183.5,89.8 183.5,90 
	183.4,90 183.4,90.2 183.1,90.2 183.1,90.3 182.3,90.3 182.3,90.5 182.1,90.5 182.1,90.7 181.8,90.7 181.8,90.9 181.7,90.9 
	181.7,91.1 181.4,91.1 181.4,91.2 181.1,91.2 181.1,91.4 181,91.4 181,91.6 180.7,91.6 180.7,91.8 180.6,91.8 180.6,91.9 
	180.3,91.9 180.3,92.1 180.1,92.1 180.1,92.3 179.9,92.3 179.9,92.5 179.7,92.5 179.7,92.7 179.5,92.7 179.5,92.8 179.3,92.8 
	179.3,93 179,93 179,93.2 178.7,93.2 178.7,93.4 178.4,93.4 178.4,93.5 178.2,93.5 178.2,93.7 177.9,93.7 177.9,93.9 177.6,93.9 
	177.6,94.1 177.4,94.1 177.4,94.3 177.1,94.3 177.1,94.4 176.8,94.4 176.8,94.6 176.7,94.6 176.7,94.8 176.2,94.8 176.2,95 
	175.8,95 175.8,95.1 174.8,95.1 174.8,95.3 174.7,95.3 174.7,95.5 174.4,95.5 174.4,95.7 174.2,95.7 174.2,95.9 174,95.9 174,96 
	174,96 174,96 173.8,96 173.8,96.1 173.8,96.2 173.6,96.2 173.5,96.2 173.5,96.3 173.5,96.4 173.3,96.4 173.2,96.4 173.2,96.5 
	173.2,96.6 173.1,96.6 172.8,96.6 172.8,96.7 172.8,96.7 172.8,96.7 172.3,96.7 172.3,96.9 171.8,96.9 171.8,97.1 171.5,97.1 
	171.5,97.3 171.2,97.3 171.2,97.5 171,97.5 171,97.6 170.7,97.6 170.7,97.8 170.6,97.8 170.6,98 170.3,98 170.3,98.2 170,98.2 
	170,98.4 169.9,98.4 169.9,98.5 169.6,98.5 169.6,98.7 169.4,98.7 169.4,98.9 169.1,98.9 169.1,99.1 168.8,99.1 168.8,99.2 
	168.4,99.2 168.4,99.4 168.2,99.4 168.2,99.6 167.9,99.6 167.9,99.8 167.6,99.8 167.6,100 167.2,100 167.2,100.1 167,100.1 
	167,100.3 166.6,100.3 166.6,100.5 166.2,100.5 166.2,100.7 165.9,100.7 165.9,100.8 165.5,100.8 165.5,101 164.6,101 164.6,101.2 
	163.4,101.2 163.4,101 162.3,101 162.3,100.8 162.2,100.8 162.2,101 161,101 161,101.2 160.7,101.2 160.7,101.4 160.4,101.4 
	160.4,101.6 160,101.6 160,101.7 159.8,101.7 159.8,101.9 159.5,101.9 159.5,102.1 159.2,102.1 159.2,102.3 159.1,102.3 
	159.1,102.4 158.8,102.4 158.8,102.6 158.6,102.6 158.6,102.8 158.3,102.8 158.3,103 157.9,103 157.9,103.2 157.6,103.2 
	157.6,103.3 157.4,103.3 157.4,103.5 156.9,103.5 156.9,103.7 156.7,103.7 156.7,103.9 156.1,103.9 156.1,104 155.6,104 
	155.6,104.2 155.3,104.2 155.3,104.6 154.8,104.6 154.8,104.8 154.5,104.8 154.5,104.9 154.1,104.9 154.1,105.1 153.9,105.1 
	153.9,105.3 153.6,105.3 153.6,105.5 153.3,105.5 153.3,105.7 152.8,105.7 152.8,105.8 152.5,105.8 152.5,106 152.3,106 
	152.3,106.2 151.9,106.2 151.9,106.5 151.3,106.5 151.3,106.7 151.3,106.7 151.1,106.7 151.1,106.9 150.5,106.9 150.5,107.1 
	150.3,107.1 150.3,107.3 149.9,107.3 149.9,107.4 149.6,107.4 149.6,107.6 148.9,107.6 148.9,107.8 148.1,107.8 148.1,108 
	147.6,108 147.6,108.1 147.5,108.1 147.5,108.3 145.9,108.3 145.9,108.5 145.5,108.5 145.5,108.7 144.7,108.7 144.7,108.9 
	141.3,108.9 141.3,108.7 140.9,108.7 140.9,108.9 140.1,108.9 140.1,109 140,109 140,109.2 138.7,109.2 138.7,109 138.5,109 
	138.5,108.9 137.9,108.9 137.9,109 137.3,109 137.3,109.2 136.8,109.2 136.8,109.4 136.3,109.4 136.3,109.6 135.7,109.6 
	135.7,109.7 135.2,109.7 135.2,109.9 134.9,109.9 134.9,110.1 134.2,110.1 134.2,110.3 132.6,110.3 132.4,110.3 132.4,110.5 
	130.8,110.5 130.8,110.3 130.6,110.3 130.6,110.5 129,110.5 129,110.3 128.6,110.3 128.6,110.1 128.1,110.1 128.1,109.9 128,109.9 
	128,109.7 127.7,109.7 127.7,109.6 127.6,109.6 127.6,109.4 127.4,109.4 127.4,109.2 127.2,109.2 127.2,109 125.8,109 125.8,108.9 
	124.8,108.9 124.8,108.7 124.4,108.7 124.4,108.5 123.8,108.5 123.8,108.3 123.3,108.3 123.3,108.1 123,108.1 123,108 122.5,108 
	122.5,107.8 122.1,107.8 122.1,107.6 121.7,107.6 121.7,107.4 121.4,107.4 121.4,107.3 121,107.3 121,107.1 121,107.1 120.8,107.1 
	120.8,107 120.8,106.9 120.5,106.9 120.5,106.9 120.5,106.7 120.4,106.7 120.4,106.7 120.4,106.7 120.4,106 120.1,106 120.1,105.8 
	119.8,105.8 118.9,105.8 118.6,105.8 118.6,105.7 118,105.7 118,105.5 117.3,105.5 117.3,105.3 116.8,105.3 116.8,105.1 
	116.2,105.1 116.2,104.9 116.1,104.9 116.1,104.8 116,104.8 116,104.6 115.8,104.6 115.8,104.4 115.7,104.4 115.7,104.2 
	115.4,104.2 115.4,104 115.2,104 115.2,103.9 114.9,103.9 114.9,103.7 114.8,103.7 114.8,103.5 114.6,103.5 114.6,103.3 
	114.5,103.3 114.5,103.2 114.4,103.2 114.4,103 114.2,103 114.2,102.8 114.1,102.8 114.1,102.6 114,102.6 114,102.4 113.8,102.4 
	113.8,102.3 113.7,102.3 113.7,101.9 113.6,101.9 113.6,101.7 113.4,101.7 113.4,101.4 113.3,101.4 113.3,101 113,101 113,100 
	112.9,100 112.9,99.8 112.3,99.8 112.3,99.2 112.1,99.2 112.1,99.1 111.9,99.1 111.9,98.2 112.1,98.2 112.2,98.2 112.2,98 112.3,98 
	112.3,97.8 112.8,97.8 112.8,97.3 112.1,97.3 112.1,97.1 111.9,97.1 111.9,96.7 111.8,96.7 111.8,96.6 111.7,96.6 111.7,96.2 
	111.5,96.2 111.5,96.1 111.5,96 111.4,96 111.3,96 111.3,96 111.3,95.9 111.1,95.9 111.1,95.7 110.7,95.7 110.6,95.7 110.6,95.6 
	110.6,95.5 110.4,95.5 110.2,95.5 110.2,95.4 110.2,95.3 109.9,95.3 109.8,95.3 109.8,95.1 109.7,95.1 109.7,95 109.3,95 
	109.3,94.8 108.7,94.8 108.7,94.6 108.5,94.6 108.5,94.4 107.8,94.4 107.8,94.3 107.7,94.3 107.7,94.1 107.4,94.1 107.4,93.9 
	107.1,93.9 107.1,93.7 107,93.7 107,93.5 106.9,93.5 106.9,93.2 106.7,93.2 106.7,93 106.2,93 106.2,92.8 105.4,92.8 105.4,93 
	105.3,93 105.3,93.2 105.1,93.2 105.1,93.4 105,93.4 105,93.5 104.5,93.5 104.5,93.7 103.8,93.7 103.8,93.5 103.5,93.5 103.5,93.4 
	102.9,93.4 102.9,93.5 102.2,93.5 102.2,93.7 101.7,93.7 101.7,93.9 101.7,93.9 99.9,93.9 99.9,93.8 99.9,93.7 99.7,93.7 99.7,93.5 
	99.4,93.5 99.4,93.4 99.1,93.4 99.1,93.2 98.2,93.2 98.2,93.4 97.7,93.4 97.7,93.5 96.9,93.5 96.5,93.5 96.5,93.7 95.7,93.7 
	95.7,93.5 95.3,93.5 95.3,93.4 93.9,93.4 92.7,94.3 91.4,95.7 90.9,96 90,96.8 89.5,97.6 89.3,99.2 86.7,105.8 85.2,109 83.4,111.9 
	79.2,117.1 78.7,127.4 77.5,135.7 74.8,139.5 73.2,142.6 70.1,153.6 66.2,162.5 65.3,166.3 64.7,172.3 64.5,180.4 65,210.8 
	64,223.5 64.7,234.5 65.3,239.9 66.2,243.3 69.3,250.7 70.4,254.1 71.1,257.8 72.1,267.5 72.8,271.3 74.8,276 79.9,284.7 
	92.4,294.4 101.7,300.3 104.4,302.6 106.1,304.9 108.9,310.7 111.6,314.8 114.9,318.6 118.6,322 122.7,324.7 125.9,325.9 
	132.4,327.9 137,329.8 141,337.1 145.5,342.9 149.2,346.9 153.1,350.7 155.8,352.9 158.7,354.8 164.8,357.5 170.4,360.6 
	173.2,361.9 176.5,362.9 183.2,364.2 186.4,365.1 189.3,366.5 194.8,369.7 200.9,372.3 209.3,376.8 212.6,377.8 219.2,379.2 
	222.5,380.1 229.5,383.6 232.6,384.8 240.9,386.5 244.1,387.5 252.5,392 260.1,395.3 270.4,401.3 276.9,401.8 280.2,402.6 
	281.7,403.2 288.6,406.9 294.8,409.7 303,414.6 309,417.4 315.9,421.3 317.4,421.9 320.8,422.9 324.2,423.4 329.5,423.5 333,423.3 
	336.4,422.6 339.6,421.5 346.5,417.7 351,415.6 353.7,413.9 356.1,411.7 358,409.1 358.8,407.6 359.9,404.4 361.2,397.6 
	362.1,394.3 365.4,386.9 366.4,383.7 368.2,375.2 369.1,371.8 372.5,364.5 373.6,361.3 375.4,352.8 376.4,349.4 382,338 
	384.7,333.5 387.6,329.4 389.8,327.2 395.4,322.5 401.6,326.4 405.4,329.5 408.8,333.4 411.9,337.9 411.3,343.6 410.7,359.3 
	410.1,365.1 408.8,370.4 405.6,376.9 405,379.7 405.1,381.2 405.5,382.7 406.3,384 407.5,385.1 408.9,385.8 412,386.4 415.3,386.5 
	429.7,386.2 433.2,386.5 436.3,387.6 437.7,388.5 439.6,390.8 444.9,400.1 448.2,407.8 451,411.7 453.3,414 456.1,415.8 465.7,421 
	468.6,422.2 472,422.6 473.7,422.4 476.8,421.3 479.4,419.4 481.5,417 482.4,415.6 486.4,405.5 487.1,402.7 487.1,401.2 
	486.7,399.6 485.3,396.7 479.1,388.8 477.3,385.7 476.3,382.3 476.1,380.6 476,377.1 476.5,373.5 477.1,371.8 477.9,370.3 
	479.8,367.7 483.5,364.4 491.1,359.7 503.7,369.6 508.1,372.8 511.3,377.1 517,385.4 520.5,393.1 522.3,396.2 530.2,406.2 
	534.6,412.7 536.8,414.5 540.7,416.1 540.2,423.3 539.8,426.9 538.9,430.3 535.7,437.7 534.7,440.9 533.9,446.1 533.4,453.4 
	548.8,453.4 556.3,453.9 561.6,455.2 570.2,459.2 573.8,460.2 579.6,460.9 589.5,461.2 597.4,460.8 603.1,459.8 606.7,458.5 
	611.8,456 615.2,454.7 626.2,452 632.7,453 638.6,453.5 644.4,453.5 650.1,453 655.5,451.8 664.1,447.8 669.5,446.6 677.2,446.1 
	694.8,446 702.4,445.4 706.1,444.4 714.7,440.4 721.1,438.6 721.1,395.4 720.5,386.8 718.9,378.9 722.2,372.1 725.5,366.3 
	726.9,363.3 727.9,360 729.4,353.2 730.3,349.9 733.6,342.6 734.8,339.3 735.4,335.6 735.8,331.7 736,318.1 "/>
</svg>
