<?xml version="1.0" encoding="utf-8"?>
<!-- Generator: Adobe Illustrator 24.2.3, SVG Export Plug-In . SVG Version: 6.00 Build 0)  -->
<svg version="1.1" id="Layer_1" xmlns="http://www.w3.org/2000/svg" xmlns:xlink="http://www.w3.org/1999/xlink" x="0px" y="0px"
	 viewBox="0 0 800 533" style="enable-background:new 0 0 800 533;" xml:space="preserve">
<style type="text/css">
	.st0{fill:#F2933D;stroke:#000000;stroke-width:0.4;stroke-miterlimit:9;}
</style>
<polygon class="st0" points="682.4,100.5 675.6,100.7 601.8,100.7 597.8,100.5 593.9,99.8 591.5,99 587,96.9 583.3,96 575.4,95.6 
	560.8,95.7 557,96.1 554.5,96.8 548.8,99.4 540.3,101.7 534.6,104.4 526,106.6 520.3,109.4 511.5,112.2 502.2,109.4 496.6,106.4 
	492.6,104.6 487.1,101.5 479.6,99 469.9,101.2 467.9,102 463.2,104.3 461.1,105 456.7,105.8 454.5,106.4 452.6,107.3 449,109.4 
	444.9,111.2 443.1,112.4 440.4,114.6 437.9,117.1 432.9,122.2 429.7,125.7 428.3,127.5 427,129.4 426,131.4 424.6,134.5 
	422.9,137.2 420,140.5 416.1,144.1 409.6,144.8 401.7,145.1 398,144.9 395.7,144.3 394.7,143.7 393.8,142.9 393.1,142 392.4,139.7 
	392.2,137.3 392.2,131.2 391.8,128.9 391.3,127.8 390.7,126.8 389.8,126 387.7,125.2 384.3,124.8 380.7,125.2 378.4,125.9 
	372.7,128.7 369,129.6 363.6,130 355.5,130.1 350.1,129.8 346.3,129.2 343.9,128.3 339.4,126.2 336.9,125.6 323.4,124 319.5,124.6 
	317.3,124.6 315,124.5 311.7,123.8 307.1,121.5 304.9,120.8 301.3,120.2 298.8,120.1 296.3,120.3 293.8,120.7 292.7,121 288,123.3 
	285.8,124 283.4,124.5 277.3,125.3 274.9,125.8 272.7,126.5 269,128.3 266.8,129.1 264.3,129.5 261.7,129.7 251.3,129.9 
	247.5,130.3 245.1,130.9 240.4,133.1 238.5,133.8 231.7,135.4 229.8,136.2 227,138.3 224.5,140.7 217.1,148.4 213.6,151.5 
	210.9,153.5 207.7,154.9 205.9,155.9 203.2,158 200.7,160.4 191.6,169.7 189.8,171.3 188,172.6 186.3,173.6 183,175 177.6,178.1 
	173.5,179.9 168,183.1 164,184.8 159.4,187.3 157.6,188 154.1,188.8 150.8,189.5 148.8,190.3 146.1,192.2 144.5,193.7 143,195.3 
	141.7,197.1 140.6,198.9 138.3,204.1 135.5,208.7 133.1,213.1 141.9,220.3 143.9,221.6 146.1,222.5 148.6,223 151.1,223.3 
	164,223.3 167.8,223.5 171.4,224.1 173.6,224.8 175.4,225.7 174.2,228.6 172.6,234.8 171.6,236.6 170.1,237.9 165.1,241.2 
	163.3,242.2 158.3,244.4 153.7,247 149.6,248.8 145.9,250.8 144,251.6 140.4,252.3 132,252.7 129.8,253 127.8,253.8 127,254.4 
	126.3,255.2 125.5,257 124.4,261 123.6,263 122.3,265 118,270.7 116.7,272.7 114.8,276.8 112.9,280.5 112.2,282.5 112,283.6 
	112,285.8 112.5,287.9 114.2,291.7 114.9,293.7 116.2,299.2 116.9,301.4 119.1,306.3 119.8,308.4 120.3,311.9 120.5,316.7 
	121.4,320 122.3,322.1 123.6,324.1 127.2,328.8 128.4,330.8 128.9,331.9 129.6,334.3 130,336.7 130.2,340.5 130.2,345.6 130.1,352 
	129.8,355.8 129.5,358.2 128.8,360.5 126.5,365.3 125.8,367.3 125.3,370.8 125.5,373.1 125.7,374.2 126.1,375.3 127.2,377.2 
	128.6,378.8 130.3,380 138.1,383.3 142,384.7 145.7,385.3 149.5,385.6 153.3,385.5 155.7,385.2 158.1,384.6 164.8,381.5 170.3,380 
	174.5,378.6 178,376.9 180.4,376.3 182.9,376 186.8,375.8 199.9,375.7 207.5,375.5 212,376.1 214.2,376.6 216.2,377.3 220.9,379.6 
	229.5,381.9 235.1,384.6 237.3,385.2 241.6,386.1 243.8,386.8 249.3,389.8 253.4,391.5 258.9,394.5 261,395.1 265.4,396 
	267.6,396.7 273.1,399.6 277.2,401.4 282.7,404.3 284.8,404.9 289.2,405.9 291.3,406.6 292.3,407.1 294.3,408.4 298.8,412.3 
	301.7,414.3 305.7,416.2 311.1,419.4 315.2,421.1 320.6,424.3 324.7,426.1 329.3,428.6 331.3,429.4 336.8,430.6 338.9,431.2 
	344.5,434 349.9,435.7 354.3,437.4 360.8,432.7 363.5,431 367.5,429.2 373.1,426.3 375.2,425.6 380.7,424.5 382.7,423.7 
	387.3,421.2 391.4,419.4 396.8,416.1 398.6,415.2 417.9,415.5 422.7,415.4 426.1,415.2 429.4,414.4 434.1,412.1 436.1,411.4 
	441.5,410.2 443.7,409.5 445.7,408.3 447.5,406.9 450.2,404.4 454.4,400.1 462.7,391.1 465,388.2 466.9,385.2 468.6,381.4 
	471.9,375.7 474.1,370.6 476.7,365.9 478.5,361.8 480.9,357 481.3,356 481.9,353.8 482.4,350.2 482.5,344.1 482.4,338 481.9,334.5 
	481.3,332.2 480.9,331.2 478.4,326.5 476.6,322.4 474.2,317.9 473.6,315.8 473.6,314.6 473.9,312.4 474.4,311.3 475.7,309.3 
	478.1,306.6 481.9,303.4 485.7,298.8 488.3,296.2 491.2,294 493.5,293.1 495.8,292.6 498.2,292.3 504.4,292.3 513.1,292.6 
	518.9,293.4 520.2,290.1 521.3,288 522.5,286.1 525.2,282.6 526.4,278.2 529.1,272.5 529.6,270.2 529.7,267.9 529.5,265.6 
	529,263.4 526.3,257.6 525.5,254.2 525.3,251.9 525.3,249.5 525.5,247.1 525.9,244.8 526.6,242.7 529.1,237.9 530.9,233.8 
	533.8,228.1 534.4,225.9 535.6,220.2 536.3,218.1 538.7,213.4 541,208.3 547.1,198.6 552.5,201.9 554.4,202.8 556.5,203.5 
	560.9,204.5 563,205.2 568.6,207.8 571.9,208.6 579.8,209.3 582.3,205.3 583.6,203.5 585.1,201.9 586.8,200.6 588.8,199.7 
	595.3,198.2 597.3,197.4 599,196.2 604.1,192 605.8,190.8 607.7,189.7 610.8,188.4 615.3,185.7 619.2,183.9 621.2,182.8 
	623.9,180.7 630.7,174 633.4,171.8 635.4,170.7 636.4,170.3 639.7,169.6 639.7,164.7 636.2,162 634.3,161 632.2,160.4 626.9,159.4 
	625.8,159 624.1,158 622.6,156.6 622.1,155.8 621.6,154.8 621.4,153.8 621.4,152.7 621.6,151.7 622.1,150.7 622.8,150 623.5,149.5 
	629.5,146.1 634.5,144 640.1,141 644.1,139.1 646.1,137.8 651.5,133.2 654.4,131.2 658.4,129.3 663.9,126.2 668,124.5 673.5,121.4 
	677.5,119.7 679.5,118.4 681.4,116.9 683.9,114.3 685.4,112.3 686.5,110.2 686.9,109.1 687.3,106.7 688,99.9 "/>
</svg>
