<?xml version="1.0" encoding="utf-8"?>
<!-- Generator: Adobe Illustrator 24.2.3, SVG Export Plug-In . SVG Version: 6.00 Build 0)  -->
<svg version="1.1" id="Layer_1" xmlns="http://www.w3.org/2000/svg" xmlns:xlink="http://www.w3.org/1999/xlink" x="0px" y="0px"
	 viewBox="0 0 800 533" style="enable-background:new 0 0 800 533;" xml:space="preserve">
<style type="text/css">
	.st0{fill:#F2933D;stroke:#000000;stroke-width:0.4;stroke-miterlimit:9;}
</style>
<polygon class="st0" points="619.5,162.5 619.5,136.5 618.9,129.8 618.1,126.6 617.4,125 614.4,119.1 612.1,113.7 608.5,106.2 
	607.6,101.8 607.1,94 595.4,93.8 592.2,93.4 589.1,92.6 581.7,89.2 578.9,88.3 571.8,86.7 569.1,85.7 563.1,82.8 556.1,80.6 
	554.7,79.4 554.2,77.9 554.4,76.8 548.3,75.5 543.5,74.9 535.3,74.6 527.2,74.9 524.1,75.3 521.1,76.1 515,79 512.3,80 509.5,80.5 
	500.7,81.5 497.8,82.2 496.4,82.7 493.7,84.1 485.4,90.9 482.9,92.6 477.7,95.1 470.6,99.3 465.3,101.5 459.4,104.8 456.7,105.8 
	448.1,107.5 439.6,110 435.1,112 429.6,113.8 427,114.9 421,118.3 415.8,120.6 408.7,124.7 403.4,127 398.7,129.6 396.2,130.8 
	391.9,131.7 383,132.6 380.1,133.1 377.4,134 371.4,137.2 366.2,139.6 362.5,142.4 359.1,145.7 357.2,148.1 355.5,150.7 
	353.1,155.7 351.8,158 350.1,159.7 348.1,160.9 346.9,161.2 345.7,161.2 343.6,160.7 338.9,158.9 335.9,158.3 331,157.9 321,157.6 
	289.2,157.6 284.3,158 281.2,158.6 278.4,159.5 272.3,162.5 266.8,164 263.4,164.7 261.2,165.4 258.7,166.7 255.4,169.3 
	251.3,173.4 247.5,177.8 244.9,181.3 242.7,185.1 235.5,188.5 231.2,190.2 228.9,191.4 227.7,192.2 225.5,194 223.4,196 
	213.1,206.7 209,210.5 206.8,212.1 205.7,212.7 204,213.4 201.8,213.6 199.9,218.8 197.3,227.4 193.4,234.8 189.5,244.8 
	189.1,247.1 189.2,248.3 190.7,253.9 191,256.6 190.9,258 190.2,260.6 188.1,265.5 187.2,268.3 186.6,271.4 186.3,274.6 186,281.3 
	186,289.6 186.1,294.6 186.5,299.4 187.5,304 190.4,310.3 191.3,313 191.9,316 192.2,319.2 192.5,325.9 192.7,341.7 192.5,346.9 
	192.2,350.3 191.5,353.5 190.9,355 190,356.5 187.8,358.9 185.1,360.7 182.5,361.6 179.9,362.2 179.8,368.6 189.2,378.1 
	194.1,383.6 196.6,387 197.7,389.3 199.5,393.6 201.8,397.2 204.6,400.5 211.6,408.1 214.5,411.4 216.3,413.7 219.2,417.9 
	223.3,419 232.1,420.4 234.9,421.2 242.1,425 247.3,427.3 254.5,431.1 257.3,432 263,433.2 265.7,434.1 273.1,437.6 284.2,440.5 
	291.6,444 294.6,444.7 297.7,445.1 313.7,445.5 316.9,445.8 320,446.4 322.7,447.3 328.8,450.5 335.4,453 342.9,456.3 347.6,453 
	359.7,446.9 364,446 371,445.6 374.6,444.9 377.1,444.1 383.2,441.1 385.8,440.2 392.9,438.6 395.6,437.6 397,436.9 399.5,435.2 
	405.4,430.2 409.1,427.6 414.3,425.1 419.1,422.5 421.5,421.3 424.3,420.5 427.2,420 430.4,422.7 432.7,424.4 434.9,425.6 
	439,427.6 441.4,429.1 449,435.5 451.2,437.2 453.4,438.4 457.6,440.4 459.9,441.9 463.1,444.7 471.4,453 473.5,454.8 475.9,456.4 
	478.4,457.5 481,458 483.6,458.3 489,458.4 490.4,452.6 493.4,446.4 494.3,443.5 494.6,442 495.1,435.4 495.4,420.5 495.7,417.3 
	496.5,414.1 497.6,411.6 500.2,406.7 501.9,402.6 503.4,400 505.2,397.5 510.1,391.4 512.7,387.6 515,382.2 517.6,377.3 
	518.7,374.7 519.5,371.8 520.1,368.9 521.5,363.1 524.3,356.8 525.2,353.9 525.8,350.6 526.5,342.3 527.5,337.4 529.2,333.7 
	533.3,327 534.2,326.1 536.5,324.8 544.3,322.5 551.5,319 558.3,316.6 562.9,314.3 564.1,308.5 564.9,305.6 567.7,299.3 
	568.6,296.6 569.3,292 569.7,285.8 577.4,277.6 579.3,275.2 581,272.5 583.3,267.1 587.2,259.8 589.4,254.4 593.4,247 595.6,241.6 
	599.6,234.2 601.8,228.8 605.9,221.5 608.1,216.1 611.3,209.9 611.8,208.6 612.5,205.6 613.6,195 614.1,192 615.1,189.2 618,183 
	618.8,180.1 620.2,173.9 "/>
</svg>
