<?xml version="1.0" encoding="utf-8"?>
<!-- Generator: Adobe Illustrator 24.2.3, SVG Export Plug-In . SVG Version: 6.00 Build 0)  -->
<svg version="1.1" id="Layer_1" xmlns="http://www.w3.org/2000/svg" xmlns:xlink="http://www.w3.org/1999/xlink" x="0px" y="0px"
	 viewBox="0 0 800 533" style="enable-background:new 0 0 800 533;" xml:space="preserve">
<style type="text/css">
	.st0{fill:#F2933D;stroke:#000000;stroke-width:0.4;stroke-miterlimit:9;}
</style>
<polygon class="st0" points="586.8,463.9 584.7,461.9 582.3,462 580.3,461.3 578.5,461.3 578.3,461.5 575.9,462.8 571.8,463.9 
	567.5,464.3 564.8,463.5 564.6,463.4 564.1,462.9 564,462 566.1,457.3 566.2,455.7 565.8,455.1 564.9,454.9 562.5,455.6 
	560.8,455.6 559.9,455.1 559.1,452.7 558.3,451.8 556,450.5 555,449.5 555,449.4 554.7,448.7 554.9,447.7 556.6,444.6 556.6,443 
	555.5,440.9 555.3,440.9 554.4,440.6 547.8,438.7 540.2,435.7 539.2,435.9 535.3,438.4 532,437.3 530,437.5 527.8,437.7 
	526.3,435.9 524.5,433.9 523.4,433.2 520.4,432.2 520.7,428.4 520.7,427.9 521.7,425.4 525.8,418.6 525.7,417.6 523.9,414.2 
	524,413.1 526.2,409 528.5,405.8 528.5,402.4 528.9,401.6 534.9,394.9 535.2,394.5 535.8,392.9 535.8,389.9 537.6,388 536.7,385 
	537,384 538.7,382.3 540.1,382.2 541,379.6 542.9,376.3 544,375.8 546.9,376.7 548.2,376.7 547.8,374.7 546.7,372.3 545.2,368.9 
	545.6,368.1 547.9,367.7 550.9,366.4 552.6,365.3 553.2,364.2 553.6,363 553.5,361.6 555.7,347 555.5,345.1 555.4,343.8 
	555.2,343.2 553.8,339.4 553.9,336.2 555.5,333.6 556.7,330.3 557.6,329.1 563.1,327.1 564.5,326.5 570.3,321.1 570.4,321 
	573.1,318.4 573.7,317.6 574,315.9 573.2,310.5 572.3,309.1 568.7,308.2 568.1,308 567.5,306 565.5,302.5 563.6,300.8 562.4,300.5 
	561.6,300.7 561.5,300.7 559.9,302.2 558.5,302.8 556,303.8 552.2,306.2 549.7,306.5 548.9,306.1 548.2,303.9 547.7,303 
	546.5,302.9 543.3,303.8 542.9,303.6 541.5,302.9 537.1,301.6 536,300.8 535.8,299 536.8,295.2 536.8,295 536.9,292.9 535.8,287.5 
	535.9,286 537.7,281.6 540.3,269.8 538.6,264 538.5,263.1 537.8,257.3 538,255.1 539.4,248.5 539.8,238.1 538.9,236.5 535.7,234.7 
	534.1,234 533.6,233.8 530.2,232.5 529.6,231.7 529.6,230.8 531.5,227.8 532.5,226.4 532.7,225.2 532.2,223.3 529.9,219.3 
	529.3,216.7 528.3,214.3 528,213.6 531.6,206.2 531.6,206.1 532.1,204.1 532,199.4 532.3,197.7 532.5,196.3 533.6,195.1 
	535.2,193.3 536.2,191.3 536.2,191 535.7,182.5 535.1,180.9 533,178.4 530.6,176.8 530.1,176.9 527.9,177.2 525,177.5 523.8,176.9 
	523.6,176.2 521.8,171.2 518.6,168.8 517.5,167.2 517.1,166.1 517.3,164.4 516.5,161 514.1,158.7 513.2,156.9 513.4,154.9 
	513.6,154.4 514.5,151.9 514.4,150.8 513.9,150.2 511.4,149.8 511,149.3 511,148.9 510.8,147.4 512.3,144.4 512.1,143.8 
	509.7,141.8 509.1,140.2 509.1,137.5 510.2,135.4 514.9,135 516.5,133 516.5,131.1 513.7,122.9 512.8,120.5 511.7,119.2 
	509.5,117.7 503.7,115.4 503.2,114.4 503.7,112.8 507.3,109.4 510.1,108 511.9,107.8 514.3,108.7 516.6,110.9 518.2,112.5 
	519.1,112.2 519.1,109.8 518.2,106.9 516.4,102.1 513,99 512.4,98.5 511.3,97.8 508.7,94.1 508.1,93.2 498.2,88.7 495.6,85.4 
	494.4,82.1 494.7,79.4 495.9,76.6 495.9,75.7 493.2,73.1 492.6,71.6 492.6,70.5 493.4,67.6 494.1,66.8 494.7,66.1 495.3,63.1 
	494.7,62.2 492.2,61.6 490.8,60.4 490.6,60.2 490.5,59.8 490.4,59.2 491.2,53.8 490.7,51.8 488.9,49.7 486.3,47.7 485.9,47.5 
	485.3,47 483.3,44.6 483,43.5 482.1,42.7 479.7,40.5 475.4,42.1 472.6,43.5 471.2,44.1 468.9,44.5 465.7,44.6 460,44.6 456.8,44.3 
	454.6,43.8 451.1,42.2 449.6,41.8 446.5,41.4 441.1,41.3 425.2,41.4 420.9,41.3 417.1,41 415.3,42.2 413.1,44.1 410.4,46.8 
	408.5,49 407.3,50.8 405.9,54 404.1,56.9 403,58.9 398.1,60.5 395.3,62 394,62.5 392.6,62.7 391.2,62.7 389.8,62.5 389.1,62.3 
	387.9,61.8 385.7,60.5 383.8,59.6 382.6,58.9 381.4,58 378.6,55.5 377.4,54.7 376.2,54 374.3,53.1 373.1,52.3 372,51.4 369.3,48.8 
	366.9,46 365.8,44.2 365,42.2 364.3,40.9 363,39.1 361.5,37.4 360.3,36.5 359.7,36.1 358.4,35.5 357,35.2 355.5,35.1 353.3,35.1 
	351.1,35.2 349.7,35.5 346.3,36.5 343,33.7 341.2,32.7 339.9,32.2 338.4,32 336.3,32 334.9,32.1 333.5,32.4 332.8,32.7 331.5,33.4 
	330.3,34.4 327,37.4 323.7,40 323.1,41.1 322.3,42.3 319.1,46.5 317.3,49.2 316.9,49.7 315.9,50.5 313.3,52.1 311.5,53 310.8,53.2 
	309.2,53.5 307.7,53.6 305.3,53.6 301.5,53.2 297.6,53.4 295.5,53.6 294.1,54 293,54.7 292,55.7 291.6,56.2 291,57.6 290.8,59 
	290.8,60.4 290.9,61.2 291.4,62.5 291.7,63.2 292.1,63.7 293,64.7 294.1,65.4 296.5,66.6 297.7,67.3 302.5,70.9 304.9,72.1 
	306,72.8 307,73.7 307.4,74.2 308.1,75.4 308.4,76.1 308.7,77.6 308.8,79.1 308.8,81.4 308.7,92.6 308.5,94.9 308.1,96.4 
	307.3,98.2 305.4,101.5 305,102 304,102.7 300.7,104.6 299.5,105.2 298.2,105.6 294.8,106.3 293.5,106.7 290.5,108.1 289.2,108.5 
	286.5,109.1 285.2,109.5 283.3,110.7 279.8,113.5 279.3,116.5 278.6,122.5 278.2,123.9 278,124.5 276.6,127.5 276.2,128.9 
	276,130.4 275.8,134.2 275.8,138.7 276,140.9 276.5,142.3 276.8,142.9 277.6,144 278.6,144.9 279.1,145.2 282.1,146.7 285,148.3 
	287.6,149.3 291,151.3 293.5,152.3 296.9,154.3 299.4,155.4 300.6,156.2 302.3,157.7 303.9,159.3 314.5,170.3 314.5,180.3 
	314.4,182.5 314.3,184 313.9,185.4 313.7,186.1 312.1,189 311.3,190.9 310.6,192.1 309.8,193.1 308.8,193.9 307.6,194.6 
	305.8,195.5 304.1,196.7 302.4,198.1 299.2,201.2 297.5,202.6 296.4,203.4 293.9,204.6 292.1,205.8 289.9,207.8 287.9,209.9 
	286.4,211.6 285.6,212.8 285.3,213.5 284.1,216 283.4,217.3 282,219 278.5,222.8 277.1,224.5 276.3,225.8 274.8,228.9 274.1,230 
	270.6,234.4 269.9,235.6 268.3,238.6 268.3,239.5 267.8,240.1 267.4,240.3 266.4,240.5 264.7,240.4 263.7,245.3 263.2,246.7 
	261.5,250.3 260.4,252.9 258.4,256.4 257.7,257.9 256.1,260.7 254.8,262.4 253.4,264 251.9,265.5 249.9,267.2 248.8,268 
	245.7,269.4 242.8,271 240.3,272.1 236.9,274.1 234.3,275.1 230.9,277.1 228.4,278.2 225,280.1 222.9,281 221.8,281.6 220.7,282.4 
	219.7,283.3 217.1,285.7 215.2,287.8 214.1,289.6 213.6,290.9 213.2,293.1 213.2,294.5 213.2,296 213.6,298.2 214.1,299.5 
	215.6,302.5 216.7,305.1 218,307.4 218.5,308.6 218.9,310 219.7,313.5 220.1,314.8 221.5,317.9 221.9,319.2 222.1,320.6 
	222.3,323.7 222.5,325.1 222.8,326.5 223.8,329.3 223.8,330.4 222.6,333.9 221.6,338.1 221.1,339.4 219.9,341.7 219.5,343 
	219.2,344.5 219.2,345.9 219.4,347.4 219.7,348.1 220,348.8 220.7,350 222.1,351.7 224.7,354.3 225.8,355.3 227,356.2 228.3,356.9 
	229.6,357.3 231.8,357.6 235.6,358 234.1,359.8 232.5,362 231.8,363.2 231.5,363.8 231.3,364.5 231,366 231,367.4 231.3,368.9 
	231.5,369.6 232.2,370.8 233,371.9 235.1,374.5 235.9,375.6 236.6,376.8 237.4,378.8 238.1,379.9 239.9,382.1 242.8,385.2 
	245.7,385.3 247.8,385.7 249.1,386.1 252,387.5 254.2,388 256.5,388.2 262.6,388.2 264.9,388.4 266.4,388.8 267,389.2 268.3,390 
	269.4,391 270.4,392.1 271.3,393.3 272.1,394.6 273.2,397.2 274.9,400.8 275.2,402.2 275.9,405.7 276.4,407 277.9,410 279.3,413.2 
	283.1,419.1 280.4,423 279.4,424.8 278.9,426.1 278.1,429.6 277.7,431 275.9,434.5 274.9,437.1 273.1,440.7 272.7,442.2 
	272.4,444.6 272.4,447.8 272.4,452.7 272.7,454.1 273.2,455.4 274,456.7 275.1,457.9 276.3,458.7 278.7,460.1 283.1,463.6 
	284.5,464.3 286.1,464.8 289.2,465.1 302.3,465 304.7,465.1 306.3,465.3 307.8,465.7 308.5,466.1 311.3,467.6 313.8,468.7 
	316.5,470.2 318,470.7 320.3,471.1 327.6,471.3 330,471.6 331.5,472 335.1,473.6 336.6,474 338.2,474.2 343.2,474.4 373.4,474.3 
	376.4,474.3 378.2,476 379.3,476.5 379.9,476.6 380.5,476.6 381,476.4 381.5,476.1 381.8,475.7 382.1,475.3 382.3,474.3 
	390.6,474.3 394.6,474.6 396.9,475.1 400.4,476.7 401.8,477.1 404.9,477.4 409,477.5 417.3,477.5 421.3,477.2 423.6,476.7 
	426.4,475.3 427.8,474.9 429.1,474.7 430.5,474.7 431.9,474.9 433.3,475.4 436,476.8 438.5,478 441.3,479.5 442.7,480.1 
	444.1,480.4 448.7,480.9 451.9,481.5 454.7,480.7 456.3,480 459.8,478.1 462.4,477 467.2,474.5 469.1,474.7 470.5,475 471.7,475.4 
	474.6,476.9 476.7,477.4 478.9,477.6 481.1,477.6 483.3,477.5 484.7,477.3 486.1,476.9 486.7,476.7 489.5,475.1 492,473.9 
	495.4,471.9 498,470.8 501.4,468.9 503.9,467.7 507.3,465.7 511.3,463.8 512.4,463.4 513,463.4 513.7,463.5 514.3,463.7 
	515.4,464.5 516.9,466 517.8,467.2 518.5,468.5 518.9,469.9 519.5,473.5 520,474.8 521.4,477.8 521.7,479.2 521.9,480.7 522,482.2 
	521.9,483.7 521.6,485.9 521.1,487.2 519.4,490.1 518.3,492.6 516.8,495.3 516.4,496.6 516.4,497.2 516.6,497.8 516.8,498.4 
	517.3,498.9 518.2,499.6 520.2,500.6 521.3,501 521.9,501 523,500.8 527.6,498.6 531,496.5 533.5,495.4 536.4,493.8 537,493.5 
	538.4,493.1 539.8,492.9 541.2,492.9 542.7,493 544.1,493.2 545.4,493.6 546,493.8 548.9,495.4 550.2,495.8 551.6,496 553.8,496.1 
	555.2,496 556.6,495.7 558,495.1 559.2,494.2 562,491.8 563.2,490.9 564.4,490.2 566.2,489.3 568.1,488.1 570.3,486 574.1,482.1 
	575.6,480.4 577,478.6 577.8,477.4 578.7,475.4 579.4,474.2 580.7,472.4 583.5,468.8 586,465.1 585.9,465 "/>
</svg>
