<?xml version="1.0" encoding="utf-8"?>
<!-- Generator: Adobe Illustrator 24.2.3, SVG Export Plug-In . SVG Version: 6.00 Build 0)  -->
<svg version="1.1" id="Layer_1" xmlns="http://www.w3.org/2000/svg" xmlns:xlink="http://www.w3.org/1999/xlink" x="0px" y="0px"
	 viewBox="0 0 800 533" style="enable-background:new 0 0 800 533;" xml:space="preserve">
<style type="text/css">
	.st0{fill:#F2933D;stroke:#000000;stroke-width:0.4;stroke-miterlimit:9;}
</style>
<polygon class="st0" points="719.5,120.9 719.5,121.3 719.2,121.3 719.2,121.7 718.9,121.7 718.9,122 718.7,122 718.7,122.4 
	718.4,122.4 718.4,122.7 717.6,122.7 717.6,123.1 717.1,123.1 717.1,123.4 716.5,123.4 716.5,123.8 716,123.8 716,124.2 
	712.8,124.2 712.8,123.8 712.2,123.8 712.2,123.1 712.5,123.1 712.5,122.7 712.8,122.7 712.8,122.4 713,122.4 713,121.7 
	713.3,121.7 713.3,121.3 713,121.3 713,120.6 712.8,120.6 712.8,120.2 711.2,120.2 711.2,120.6 710.9,120.6 710.9,120.9 
	710.6,120.9 710.6,121.7 710.4,121.7 710.4,122.7 710.1,122.7 710.1,123.4 709.8,123.4 709.8,123.8 709.6,123.8 709.6,124.2 
	709,124.2 709,124.5 708.2,124.5 708.2,124.9 707.7,124.9 707.7,125.2 706.6,125.2 706.6,125.6 705.8,125.6 705.8,125.9 705,125.9 
	705,125.6 702.6,125.6 702.6,125.2 701.8,125.2 701.8,124.9 701.3,124.9 701.3,124.5 700.2,124.5 700.2,124.2 698.8,124.2 
	698.8,123.8 698.3,123.8 698.3,123.4 697,123.4 697,123.1 696.7,123.1 696.7,122.7 696.4,122.7 696.4,122.4 696.2,122.4 696.2,122 
	694.6,122 694.6,121.7 693.5,121.7 693.5,121.3 692.4,121.3 692.4,120.9 691.6,120.9 691.6,120.6 691.1,120.6 691.1,120.2 
	690.8,120.2 690.8,119.9 690.3,119.9 690.3,119.5 689.5,119.5 689.5,119.2 688.7,119.2 688.7,118.8 688.1,118.8 688.1,118.4 
	687.9,118.4 687.9,118.1 687.6,118.1 687.6,117.7 687.1,117.7 687.1,117.4 686.8,117.4 686.8,117 686.5,117 686.5,116.7 686,116.7 
	686,116.3 685.5,116.3 685.5,115.9 684.9,115.9 684.9,115.6 684.1,115.6 684.1,115.2 682.2,115.2 682.2,114.9 681.7,114.9 
	681.7,114.5 681.4,114.5 681.4,114.2 680.9,114.2 680.9,113.8 680.4,113.8 680.4,113.1 680.1,113.1 680.1,112.4 679.8,112.4 
	679.8,112 679.7,112 678.8,112 678.8,111.7 678.2,111.7 678.2,111.3 677.4,111.3 677.4,110.9 677.1,110.9 677.1,110.6 676.9,110.6 
	676.9,110.2 676.1,110.2 676.1,109.9 675.3,109.9 675.3,109.5 675,109.5 675,109.2 674.7,109.2 674.7,108.8 674.2,108.8 
	674.2,108.4 673.9,108.4 673.9,108.1 672.6,108.1 672.6,108.4 670.7,108.4 670.7,108.8 670.5,108.8 670.5,109.2 669.9,109.2 
	669.9,109.5 669.1,109.5 669.1,109.9 668.3,109.9 668.3,110.2 668,110.2 668,110.6 666.2,110.6 666.2,110.2 665.6,110.2 
	665.6,109.9 663.5,109.9 663.5,109.5 662.1,109.5 662.1,109.2 660.3,109.2 660.3,109.5 659.7,109.5 659.7,109.9 658.4,109.9 
	658.4,110.2 657.6,110.2 657.6,110.6 657.1,110.6 657.1,110.9 656.8,110.9 656.8,111.3 656.3,111.3 656.3,111.7 656,111.7 656,112 
	655.7,112 655.7,112.4 654.1,112.4 654.1,112.7 653.8,112.7 653.8,113.1 653.3,113.1 653.3,113.4 653,113.4 653,113.8 652.5,113.8 
	652.5,114.2 652.2,114.2 652.2,114.5 651.7,114.5 651.7,115.2 651.4,115.2 651.4,116.3 651.2,116.3 651.2,115.9 650.9,115.9 
	650.9,116.3 649.8,116.3 649.8,116.7 649.3,116.7 649.3,117 649,117 649,117.4 648.8,117.4 648.8,117.7 648.5,117.7 648.5,118.1 
	648.2,118.1 648.2,118.4 647.4,118.4 647.4,118.8 646.9,118.8 646.9,119.2 646.6,119.2 646.6,119.5 646.1,119.5 646.1,119.9 
	645.8,119.9 645.8,120.6 645.5,120.6 645.5,120.9 645,120.9 645,121.3 644.5,121.3 644.5,121.7 644.2,121.7 644.2,122.4 
	643.9,122.4 643.9,122.7 643.7,122.7 643.7,123.1 643.4,123.1 643.4,123.4 643.1,123.4 643.1,123.8 642.9,123.8 642.9,124.2 
	642.6,124.2 642.6,124.5 641.8,124.5 641.8,124.9 641.5,124.9 641.5,125.9 641.2,125.9 641.2,126.7 641,126.7 641,127 640.7,127 
	640.7,127.4 640.2,127.4 640.2,127.7 639.9,127.7 639.9,128.1 638.8,128.1 638.8,129.5 638.6,129.5 638.6,129.9 638.3,129.9 
	638.3,130.2 638,130.2 638,130.6 637.8,130.6 637.8,130.9 637.5,130.9 637.5,131.7 637.2,131.7 637.2,132 637,132 637,132.7 
	636.4,132.7 636.4,133.1 636.2,133.1 636.2,133.4 635.9,133.4 635.9,133.8 635.6,133.8 635.6,134.2 635.1,134.2 635.1,134.5 
	633.7,134.5 633.7,134.9 633.2,134.9 633.2,135.2 632.7,135.2 632.7,135.6 632.4,135.6 632.4,135.9 632.1,135.9 632.1,136.3 
	631.9,136.3 631.9,136.7 631.6,136.7 631.6,137 631.3,137 631.3,137.4 631.1,137.4 631.1,138.1 630.8,138.1 630.8,138.4 
	630.5,138.4 630.5,138.8 630,138.8 630,139.2 629.7,139.2 629.7,139.5 629.5,139.5 629.5,139.9 629.2,139.9 629.2,140.2 
	628.7,140.2 628.7,140.9 628.1,140.9 628.1,141.3 627.6,141.3 627.6,141.7 627.3,141.7 627.3,142 626.8,142 626.8,142.4 
	626.5,142.4 626.5,142.7 626,142.7 626,143.1 625.7,143.1 625.7,143.4 625.2,143.4 625.2,143.8 624.9,143.8 624.9,144.2 
	624.6,144.2 624.6,144.5 623.6,144.5 623.6,144.9 623,144.9 623,145.2 622,145.2 622,145.6 621.2,145.6 621.2,145.9 620.6,145.9 
	620.6,146.3 620.1,146.3 620.1,146.7 616.3,146.7 616.3,147 614.7,147 614.7,147.4 611.8,147.4 611.8,147.7 608.6,147.7 
	608.6,148.1 607,148.1 607,148.4 605.6,148.4 605.6,148.8 605.1,148.8 605.1,149.2 603.2,149.2 603.2,149.5 601.6,149.5 
	601.6,149.9 598.9,149.9 598.9,149.5 598.4,149.5 598.4,149.9 597.8,149.9 597.8,150.2 597,150.2 597,150.6 596.8,150.6 
	596.8,150.2 596.5,150.2 596.5,150.6 594.9,150.6 594.9,150.2 594.1,150.2 594.1,150.6 593.3,150.6 593.3,150.9 592.8,150.9 
	592.8,151.3 592,151.3 592,151.7 590.9,151.7 590.9,152 589.5,152 589.5,152.4 589.3,152.4 589.3,152.7 589,152.7 589,153.1 
	588.5,153.1 588.5,153.4 587.1,153.4 586.6,153.4 586.6,153.8 585.8,153.8 585.8,154.2 585.3,154.2 585.3,154.5 584.7,154.5 
	584.7,154.9 583.9,154.9 583.9,155.2 583.1,155.2 583.1,155.6 582.3,155.6 582.3,156 578.3,156 578.3,156.3 577,156.3 577,156.7 
	575.3,156.7 575.3,157 574,157 574,156.7 573.7,156.7 573.7,157 573.2,157 573.2,157.4 572.7,157.4 572.7,157.7 572.1,157.7 
	572.1,158.1 571.9,158.1 571.9,158.4 570.8,158.4 570.8,158.8 570,158.8 570,159.2 569.5,159.2 569.5,159.5 568.6,159.5 
	568.6,159.9 568.1,159.9 568.1,160.2 567.6,160.2 567.6,160.6 567,160.6 567,160.9 566.2,160.9 566.2,161.3 565.7,161.3 
	565.7,161.7 565.2,161.7 565.2,162 563.8,162 563.8,161.7 563.6,161.7 563.6,161.3 563,161.3 563,160.9 562.8,160.9 562.8,160.6 
	562.5,160.6 562.5,160.2 562.2,160.2 562.2,159.9 561.7,159.9 561.7,159.5 561.1,159.5 561.1,159.9 560.9,159.9 560.9,160.2 
	560.6,160.2 560.6,160.9 560.3,160.9 560.3,161.3 560.1,161.3 560.1,161.7 558.2,161.7 558.2,161.3 557.9,161.3 557.9,160.9 
	557.7,160.9 557.7,160.6 556.6,160.6 556.6,162.7 556.3,162.7 556.3,163.1 554.4,163.1 554.4,162.7 554.2,162.7 554.2,162.4 
	553.9,162.4 553.9,162 552.3,162 552.3,162.4 552,162.4 552,162.7 551.8,162.7 551.8,163.5 551.2,163.5 551.2,163.1 551,163.1 
	551,162.7 550.7,162.7 550.7,162.4 550.4,162.4 550.4,162.7 550.2,162.7 550.2,163.1 549.9,163.1 549.9,163.5 549.4,163.5 
	549.4,163.8 549.1,163.8 549.1,164.2 548.8,164.2 548.8,164.5 548,164.5 548,164.9 542.4,164.9 542.4,164.5 541.1,164.5 
	541.1,164.2 538.6,164.2 538.6,163.8 537.3,163.8 537.3,163.5 535.2,163.5 535.2,163.8 533.8,163.8 533.8,164.2 533,164.2 
	533,163.8 531.4,163.8 531.4,163.5 531.1,163.5 531.1,163.8 530.9,163.8 530.9,163.5 530.1,163.5 530.1,163.1 529.8,163.1 
	529.8,162.1 529.8,161.3 529.3,161.3 529.3,161.7 528.7,161.7 528.7,162 528.5,162 528.5,162.2 528.5,162.4 526.9,162.4 
	526.9,162.7 526.6,162.7 526.6,163.1 525,163.1 525,163.5 524.4,163.5 524.4,163.8 523.9,163.8 523.9,164.2 519.4,164.2 
	519.4,164.5 516.4,164.5 516.4,164.9 514.8,164.9 514.8,165.2 513.2,165.2 513.2,165.6 510.5,165.6 510.5,166 509.7,166 
	509.7,165.6 509.4,165.6 509.4,166 509.2,166 509.2,166.3 508.9,166.3 508.9,166.7 508.4,166.7 508.4,167 507.6,167 507.6,166.7 
	506.8,166.7 506.8,166.3 506.5,166.3 506.5,166 506,166 506,166.3 505.4,166.3 505.4,166 504.9,166 504.9,166.3 504.1,166.3 
	504.1,166.7 503.6,166.7 503.6,167 496.6,167 496.6,167.4 496,167.4 496,167.7 493.6,167.7 493.6,167.4 491.2,167.4 491.2,167.7 
	489.1,167.7 489.1,167.4 488,167.4 488,167.7 486.9,167.7 486.9,167.4 485.3,167.4 485.3,167 485.1,167 485.1,167.4 483.2,167.4 
	483.2,167 482.4,167 482.4,167.4 481.6,167.4 481.6,167 480,167 480,166.7 479.4,166.7 479.4,166.3 478.4,166.3 478.4,166 
	477.6,166 477.6,165.6 475.4,165.6 475.4,166 474.6,166 472.7,166 472.7,166.3 472.2,166.3 472.2,166.7 470.9,166.7 470.9,166.3 
	469.5,166.3 469.5,166.7 469,166.7 469,167 467.7,167 467.7,167.4 466.8,167.4 466.8,167.7 462.3,167.7 462.3,167.4 461.2,167.4 
	461.2,167.7 461,167.7 461,168.1 460.4,168.1 460.4,168.4 458,168.4 458,168.8 456.9,168.8 456.9,168.4 456.7,168.4 456.7,168.1 
	455.3,168.1 455.3,168.4 455.1,168.4 455.1,168.8 454,168.8 454,168.4 453.2,168.4 453.2,168.1 452.6,168.1 452.6,167.7 
	452.1,167.7 452.1,167.4 451.6,167.4 451.6,167 450.8,167 450.8,167.4 448.6,167.4 448.6,167.7 448.2,167.7 447,167.7 447,167.4 
	446.5,167.4 446.5,167 445.7,167 445.7,166.7 444.6,166.7 444.6,166.3 443.3,166.3 443.3,166.7 442.7,166.7 442.7,166.3 
	442.5,166.3 442.5,166 442.2,166 442.2,165.6 441.9,165.6 441.9,164.9 441.4,164.9 441.4,164.5 441.1,164.5 441.1,163.8 
	440.6,163.8 440.6,163.5 439.8,163.5 439.8,163.1 439.5,163.1 439.5,162.7 439.3,162.7 439.3,162.4 439,162.4 439,162 437.4,162 
	437.4,161.7 436.8,161.7 436.8,161.3 435.5,161.3 435.5,160.9 432,160.9 432,161.3 431.8,161.3 431.8,162.4 431.8,162.7 432,162.7 
	432,163.1 432.3,163.1 432.3,163.8 432.8,163.8 432.8,164.5 433.1,164.5 433.1,165.2 433.4,165.2 433.4,165.6 433.1,165.6 
	433.1,166.3 432.8,166.3 432.8,167 432.6,167 432.6,167.4 432.3,167.4 432.3,168.1 432,168.1 432,168.4 431.8,168.4 431.8,169.2 
	431.5,169.2 431.5,169.5 431.2,169.5 431.2,169.9 430.9,169.9 430.9,170.2 430.7,170.2 430.7,171 430.4,171 430.4,171.3 
	429.9,171.3 429.9,171.7 429.6,171.7 429.6,172 429.1,172 429.1,172.4 428.8,172.4 428.8,172.7 428.3,172.7 428.3,173.1 
	427.7,173.1 427.7,173.5 427.5,173.5 427.5,174.2 427.2,174.2 427.2,174.5 426.7,174.5 426.7,174.9 426.1,174.9 426.1,175.2 
	425.9,175.2 425.9,175.6 425.1,175.6 425.1,175.9 424.5,175.9 424.5,176.3 423.7,176.3 423.7,176.7 423.2,176.7 423.2,177 
	421.8,177 421.8,177.4 419.2,177.4 419.2,177.7 418.9,177.7 418.9,177.4 418.4,177.4 418.4,177 418.1,177 418.1,176.7 418.4,176.7 
	418.4,175.9 418.6,175.9 418.6,175.2 418.1,175.2 418.1,175.6 417.3,175.6 417.3,175.9 416.2,175.9 416.2,176.3 414.9,176.3 
	414.9,176.7 414.1,176.7 414.1,177 413.3,177 413.3,177.4 413,177.4 413,177.7 411.9,177.7 411.9,178.1 410.6,178.1 410.6,178.5 
	409.8,178.5 409.8,178.8 409,178.8 409,178.5 407.6,178.5 407.6,178.8 407.1,178.8 407.1,179.2 405.8,179.2 405.8,178.8 
	405.2,178.8 405.2,178.5 405,178.5 405,178.1 404.7,178.1 404.7,178.8 404.4,178.8 404.4,180.6 403.9,180.6 403.9,181 402.8,181 
	402.8,181.3 402.3,181.3 402.3,181.7 402,181.7 402,182 400.9,182 400.9,182.4 399.6,182.4 399.6,182.7 398,182.7 398,182.4 
	397.7,182.4 397.7,182.7 397.2,182.7 397.2,183.1 395,183.1 395,183.5 394.2,183.5 394.2,183.8 393.7,183.8 393.7,183.5 
	389.4,183.5 389.4,183.1 389.2,183.1 389.2,183.5 388.6,183.5 388.6,183.1 388.4,183.1 388.4,183.5 387.8,183.5 387.8,183.1 
	387,183.1 387,182.7 384.9,182.7 384.9,182.4 383,182.4 383,182 382.5,182 382.5,181.7 381.9,181.7 381.9,181.3 381.1,181.3 
	381.1,181 380.9,181 380.9,180.6 380,180.6 380,181 379.2,181 379.2,181.3 378.2,181.3 378.2,181 377.6,181 377.6,180.6 
	377.1,180.6 377.1,181 374.4,181 374.4,180.6 373.1,180.6 373.1,180.2 371.5,180.2 371.5,179.9 370.7,179.9 370.7,179.5 
	369.3,179.5 369.3,179.9 368.5,179.9 368.5,180.2 367.2,180.2 367.2,180.6 366.7,180.6 366.7,181 364.8,181 364.8,181.3 
	364.2,181.3 364.2,181.7 363.7,181.7 363.7,182 362.4,182 362.4,182.4 361.8,182.4 361.8,182.7 360.8,182.7 360.8,183.1 
	360.5,183.1 360.5,182.7 358.9,182.7 358.9,183.1 357.5,183.1 357.5,182.7 355.9,182.7 355.9,182.4 354.9,182.4 354.9,182 
	354.3,182 354.3,181.7 353.3,181.7 353.3,181.3 351.6,181.3 351.6,181 350.3,181 350.3,180.6 349.8,180.6 349.8,180.2 349.5,180.2 
	349.5,179.9 349,179.9 349,179.5 348.7,179.5 348.7,179.2 348.2,179.2 348.2,178.8 347.9,178.8 347.9,178.5 347.4,178.5 
	347.4,178.1 347.1,178.1 347.1,177.7 346.6,177.7 346.6,177.4 346,177.4 346,177 343.9,177 343.9,177.4 343.3,177.4 343.3,177.7 
	342.8,177.7 342.8,178.1 340.7,178.1 340.7,177.7 340.4,177.7 340.4,178.1 339.9,178.1 339.9,177.7 338.3,177.7 338.3,177.4 
	337.7,177.4 337.7,177.7 337.5,177.7 337.5,178.1 337.2,178.1 337.2,177.7 336.9,177.7 336.9,178.1 336.6,178.1 336.6,178.5 
	336.1,178.5 336.1,178.8 335.3,178.8 335.3,179.2 333.4,179.2 333.4,178.8 331.3,178.8 331.3,179.2 330.5,179.2 330.5,179.5 
	329.4,179.5 329.4,179.9 328.3,179.9 328.3,180.2 327.3,180.2 327.3,179.9 325.1,179.9 325.1,179.5 323.5,179.5 323.5,179.2 
	321.9,179.2 321.9,178.8 321.4,178.8 321.4,179.2 319.8,179.2 319.8,179.5 317.1,179.5 317.1,179.2 316,179.2 316,178.8 
	315.8,178.8 315.8,179.2 315.2,179.2 315.2,179.5 314.4,179.5 314.4,179.9 313.3,179.9 313.3,180.2 312.5,180.2 312.5,180.6 
	311.5,180.6 311.5,181 311.2,181 311.2,181.3 307.7,181.3 307.7,181.7 307.2,181.7 307.2,182 306.4,182 306.4,182.4 306.1,182.4 
	306.1,182.7 305.8,182.7 305.8,183.1 304.8,183.1 304.8,182.7 304.5,182.7 304.5,182 304,182 304,181.7 303.4,181.7 303.4,181.3 
	302.6,181.3 302.6,181 302.4,181 302.4,180.6 302.1,180.6 302.1,180.2 301.6,180.2 301.6,179.9 301,179.9 301,179.5 300.2,179.5 
	300.2,179.2 299.7,179.2 299.7,179.5 299.4,179.5 299.4,179.9 299.1,179.9 299.1,180.2 299.4,180.2 299.4,181.7 299.1,181.7 
	299.1,181.3 298.1,181.3 298.1,181 297.8,181 297.8,181.3 297.5,181.3 297.5,181.7 297.3,181.7 297.3,182 294.9,182 294.9,182.4 
	294.3,182.4 294.3,182 293.2,182 293.2,182.4 293,182.4 292.7,182.4 292.7,181.7 291.1,181.7 291.1,181 290.6,181 290.6,180.6 
	290,180.6 290,180.2 289.6,180.2 289.2,180.2 289.2,180.5 289.2,181.3 289,181.3 289,181.7 287.4,181.7 287.4,182 286.4,182 
	284.7,182 284.7,182.4 284.4,182.4 284.4,182.7 284.1,182.7 284.1,183.1 283.9,183.1 283.9,183.5 283.9,183.8 283.6,183.8 
	283.6,184.2 283.1,184.2 283.1,184.5 282.5,184.5 282.3,184.5 282.3,184.7 282.3,184.9 282.1,184.9 282,184.9 282,185 282,185.2 
	281.7,185.2 281.2,185.2 281.2,185.6 280.9,185.6 280.9,185.9 280.9,186 280.8,186 279.9,186 279.9,186.3 279.6,186.3 279.6,186.7 
	278.8,186.7 278.8,187 277.7,187 277.7,187.4 277.2,187.4 277.2,186.7 276.4,186.7 276.4,187 276.1,187 276.1,187.4 275.8,187.4 
	275.8,187.7 274.5,187.7 274.5,188.1 274,188.1 274,188.5 273.7,188.5 273.7,188.8 273.2,188.8 273.2,189.2 272.6,189.2 
	272.6,189.5 272.4,189.5 272.4,189.9 272.1,189.9 272.1,190.2 271.3,190.2 271.3,190.6 269.7,190.6 269.7,191 269.1,191 
	269.1,191.3 268.1,191.3 268.1,191.7 267.5,191.7 267.5,192 266.7,192 266.7,192.7 265.1,192.7 265.1,193.1 264.6,193.1 
	264.6,193.5 264.3,193.5 264.3,193.8 264,193.8 264,194.5 263.2,194.5 263.2,194.9 262.7,194.9 262.7,195.2 261.9,195.2 
	261.9,195.6 261.4,195.6 261.4,196 260.6,196 260.6,196.3 260,196.3 260,197 259.8,197 259.8,197.7 259.5,197.7 259.5,198.1 
	258.7,198.1 258.7,198.5 258.4,198.5 258.4,198.8 258.2,198.8 258.2,199.2 257.9,199.2 257.9,199.5 257.3,199.5 257.3,199.9 
	257.1,199.9 257.1,200.2 256.8,200.2 256.8,200.6 256.3,200.6 256.3,201.3 256,201.3 256,201.7 255.7,201.7 255.7,202 255.5,202 
	255.5,202.4 255.2,202.4 255.2,202.7 254.7,202.7 254.7,203.5 254.1,203.5 254.1,203.8 253.9,203.8 253.9,204.2 253.6,204.2 
	253.6,205.6 253.3,205.6 253.3,206.7 253.1,206.7 253.1,207 252.8,207 252.8,207.4 252.5,207.4 252.5,207.7 252.3,207.7 
	252.3,208.1 251.7,208.1 251.7,208.8 251.5,208.8 251.5,209.5 250.9,209.5 250.9,209.9 250.7,209.9 250.7,210.2 250.4,210.2 
	250.4,210.6 250.1,210.6 249.8,210.6 249.8,211 249.6,211 249.6,211.5 249.6,211.7 249.3,211.7 249.3,212 249,212 249,212.7 
	248.8,212.7 248.8,213.1 248.5,213.1 248.5,213.5 248,213.5 248,213.8 247.7,213.8 247.7,214.2 247.4,214.2 247.4,214.9 
	247.2,214.9 247.2,215.6 247.4,215.6 247.4,216.7 247.7,216.7 247.7,217 248.5,217 248.5,218.2 248.5,219.5 248.2,219.5 
	248.2,219.9 248,219.9 248,220.6 247.7,220.6 247.7,221 247.2,221 247.2,222 246.6,222 246.6,222.4 246.1,222.4 246.1,222.7 
	245.8,222.7 245.8,223.1 245.6,223.1 245.6,223.5 245.3,223.5 245.3,223.8 245,223.8 245,224.2 244.5,224.2 244.5,224.5 244,224.5 
	244,224.9 242.9,224.9 242.9,225.2 242.3,225.2 242.3,225.6 241.3,225.6 241,225.6 241,225.9 240.7,226 240.7,226.2 240.7,226.3 
	240.6,226.3 240.2,226.3 240.2,226.7 239.7,226.7 239.7,227 238.3,227 238.3,227.4 237.8,227.4 237.8,227.7 237.3,227.7 
	237.3,228.1 236.7,228.1 236.7,228.8 236.5,228.8 236.5,229.2 235.9,229.2 235.9,229.5 235.6,229.5 235.6,229.9 235.4,229.9 
	235.4,230.2 234.6,230.2 234.6,231 234.3,231 234.3,231.3 234,231.3 234,231.7 233.8,231.7 233.8,232 233,232 233,232.4 
	232.7,232.4 232.7,232.7 232.2,232.7 232.2,233.1 231.6,233.1 231.6,233.5 231.4,233.5 231.4,233.8 230.8,233.8 230.8,234.2 
	230.6,234.2 230.6,234.5 230.3,234.5 230.3,234.9 229.8,234.9 229.8,235.2 229.5,235.2 229.5,235.6 229.2,235.6 229.2,236.7 
	229,236.7 229,237.4 228.7,237.4 228.7,237.7 228.1,237.7 228.1,238.1 227.6,238.1 227.6,238.5 227.1,238.5 227.1,238.8 
	226.3,238.8 226.3,239.2 225.7,239.2 225.7,239.5 225.2,239.5 225.2,239.9 224.7,239.9 224.7,240.2 224.1,240.2 224.1,240.6 
	223.6,240.6 223.6,241 222.8,241 222.8,241.3 222.3,241.3 222.3,241.7 221.7,241.7 221.7,241.3 220.6,241.3 220.6,241.7 
	220.1,241.7 220.1,242 219.8,242 219.8,242.4 219.3,242.4 219.3,242.7 218.8,242.7 218.8,243.1 218.5,243.1 218.5,243.5 218,243.5 
	218,243.8 217.4,243.8 217.4,244.2 216.9,244.2 216.9,244.5 216.4,244.5 216.4,244.9 215.6,244.9 215.6,245.2 215,245.2 215,245.6 
	214.2,245.6 214.2,246 213.1,246 213.1,246.3 212.3,246.3 212.3,246.7 211.3,246.7 211.3,247 210.5,247 210.5,247.4 210.1,247.4 
	209.4,247.4 209.4,247.7 208.1,247.7 208.1,248.1 207,248.1 207,248.5 205.6,248.5 205.6,248.8 204.8,248.8 204.8,249.2 
	204.3,249.2 204.3,249.5 202.4,249.5 202.4,249.9 201.9,249.9 201.9,250.3 201.4,250.3 201.4,250.6 200.8,250.6 200.8,251 
	200.6,251 200.6,251.3 200.3,251.3 200.3,252 200,252 200,252.4 199.8,252.4 199.8,252.7 199.5,252.7 199.5,253.1 199.2,253.1 
	199.2,253.5 198.7,253.5 198.7,253.6 198.7,253.8 198.4,253.8 198.4,254.2 197.9,254.2 197.9,254.5 197.1,254.5 197.1,254.9 
	196.8,254.9 196.8,255.3 196,255.3 196,255.6 195.7,255.6 195.7,256 195.5,256 195.5,256.3 194.9,256.3 194.9,256.7 194.4,256.7 
	194.4,256.3 193.9,256.3 193.9,256.7 193.3,256.7 193.3,257 193.1,257 193.1,257.4 192.5,257.4 192.5,257.8 192.2,257.8 
	192.2,258.1 191.4,258.1 191.4,258.5 191.2,258.5 191.2,258.8 190.9,258.8 190.9,259.2 190.4,259.2 190.4,259.5 189.8,259.5 
	189.8,259.9 188.2,259.9 188.2,260.2 188,260.2 188,260.6 187.2,260.6 187.2,261 186.9,261 186.9,261.3 186.4,261.3 186.4,261.7 
	186.1,261.7 186.1,262 185.3,262 185.3,262.4 184.2,262.4 184.2,262.8 183.1,262.8 183.1,263.1 182.3,263.1 182.3,263.5 
	181.3,263.5 181.3,263.8 180.7,263.8 180.7,264.2 179.7,264.2 179.7,264.5 178.6,264.5 178.6,264.9 177.5,264.9 177.5,265.3 
	176.2,265.3 176.2,265.6 174.6,265.6 174.6,266 173,266 173,266.7 171.4,266.7 171.4,267 170,267 170,267.4 169.7,267.4 
	169.7,267.8 168.7,267.8 168.7,268.1 167.6,268.1 167.6,268.5 166.5,268.5 166.5,268.8 165.7,268.8 165.7,269.2 164.7,269.2 
	164.7,269.5 163.6,269.5 163.6,269.9 162.5,269.9 162.5,270.3 161.2,270.3 161.2,270.6 159.6,270.6 159.6,271 158,271 158,271.3 
	157.4,271.3 157.4,271.7 156.6,271.7 156.6,272 155.3,272 155.3,272.4 154.5,272.4 154.5,272.8 153.7,272.8 153.7,273.1 
	152.6,273.1 152.6,273.5 151.2,273.5 151,273.5 151,273.6 151,273.8 150.6,273.8 149.9,273.8 149.9,274.2 148,274.2 148,274.5 
	147.5,274.5 147.5,274.9 146.2,274.9 146.2,275.3 145.9,275.3 145.9,275.6 145.6,275.6 145.6,276 144.8,276 144.8,276.3 
	144.3,276.3 144.3,276.7 143.8,276.7 143.8,277 143.5,277 143.5,277.4 143.2,277.4 143.2,277.8 141.9,277.8 141.9,278.1 
	141.1,278.1 141.1,278.5 138.1,278.5 138.1,278.8 137.6,278.8 137.6,279.5 137.3,279.5 137.3,280.3 137.1,280.3 137.1,280.9 
	137.1,281 136.8,281 136.5,281 136.5,281.1 136.5,281.3 136,281.3 135.7,281.3 135.7,281.5 135.7,281.7 135.2,281.7 135.2,282 
	134.7,282 134.7,282.4 133.5,282.4 128.2,282.4 128.2,282.8 125,282.8 125,283.1 121.5,283.1 121.5,283.5 117.2,283.5 117.2,283.8 
	116.4,283.8 116.4,284.2 115.6,284.2 115.6,284.5 115.1,284.5 115.1,285.6 114.8,285.6 114.8,286 114.6,286 114.6,286.3 114,286.3 
	114,286.7 113.5,286.7 113.5,287 112.4,287 112.4,287.4 111.9,287.4 111.9,287.8 111.6,287.8 111.6,288.5 111.3,288.5 111.3,289.2 
	111.1,289.2 111.1,290.3 110.8,290.3 110.8,290.6 110.3,290.6 110.3,291 110,291 110,291.3 109.7,291.3 109.7,292 109.5,292 
	109.5,292.4 108.4,292.4 108.4,292 108.1,292 108.1,292.4 107.9,292.4 107.9,292 107.3,292 107.3,292.4 106.8,292.4 106.8,292.8 
	106.3,292.8 106.3,293.1 104.6,293.1 104.6,293.5 102.8,293.5 102.8,295.3 102.5,295.3 102.5,295.6 102.2,295.6 102.2,296 
	101.4,296 101.4,296.3 100.4,296.3 100.4,296.7 99.3,296.7 99.3,297 98.8,297 98.8,297.4 98.5,297.4 98.5,297.8 97.7,297.8 
	97.7,298.1 97.4,298.1 97.4,298.5 96.9,298.5 96.9,298.8 96.3,298.8 96.3,299.5 96.1,299.5 96.1,299.9 95.8,299.9 95.5,299.9 
	95.5,300.3 95,300.3 95,300.6 93.7,300.6 93.7,301 93.4,301 93.4,301.3 93.1,301.3 93.1,301.7 92.9,301.7 92.9,302 92.6,302 
	92.6,302.8 92.3,302.8 92.3,303.1 92.1,303.1 92.1,304.5 91.8,304.5 91.8,305.3 91.5,305.3 91.5,305.6 91.3,305.6 91.3,305.8 
	91.3,306.7 91,306.7 91,307 90.7,307 90.7,307.4 90.4,307.4 90.4,308.1 90.2,308.1 90.2,309.5 89.9,309.5 89.9,310.3 90.2,310.3 
	90.2,312.8 89.9,312.8 89.9,313.1 89.6,313.1 89.6,313.5 89.1,313.5 89.1,314.2 88.8,314.2 88.8,315.3 88.3,315.3 88.3,315.6 
	88,315.6 88,316.7 87.8,316.7 87.8,317.4 87,317.4 87,317.8 86.7,317.8 86.7,318.1 85.9,318.1 85.9,318.5 85.1,318.5 85.1,318.8 
	84.6,318.8 84.6,319.2 83.8,319.2 83.8,319.5 83.2,319.5 82.9,319.5 82.9,319.9 82.4,319.9 82.4,320.3 81.9,320.3 81.9,321 
	81.3,321 81.3,321.3 81.1,321.3 81.1,322.4 80.8,322.4 80.8,327.8 80.5,327.8 80.5,328.5 80.3,328.5 80.3,329.2 80,329.2 80,329.9 
	80.3,329.9 80.3,331.3 80.5,331.3 80.5,332.8 80.3,332.8 80.3,336 80.5,336 80.5,338.5 80.8,338.5 80.8,339.5 81.1,339.5 
	81.1,340.3 81.3,340.3 81.3,342.4 81.1,342.4 81.1,344.2 81.6,344.2 81.6,344.5 82.1,344.5 82.1,344.9 86.2,344.9 86.2,345.3 
	88.6,345.3 88.6,345.6 90.7,345.6 90.7,345.3 91.5,345.3 91.5,345.6 91.8,345.6 91.8,346 93.1,346 93.1,346.7 93.4,346.7 93.4,347 
	93.9,347 93.9,347.4 94.2,347.4 94.2,347.8 95,347.8 95,348.1 95.5,348.1 95.5,348.5 95.8,348.5 95.8,348.8 96.1,348.8 96.1,349.2 
	96.3,349.2 96.3,349.6 96.6,349.6 96.6,349.9 96.9,349.9 96.9,350.3 97.7,350.3 97.7,350.6 98.8,350.6 98.8,350.3 100.1,350.3 
	100.1,350.6 100.9,350.6 100.9,350.3 102,350.3 102,350.6 102.2,350.6 102.2,351 102.5,351 102.5,351.3 103.6,351.3 103.6,351 
	106.5,351 106.5,350.6 107.6,350.6 107.6,351 108.4,351 108.4,351.3 109.5,351.3 109.5,351.7 110,351.7 110,352.1 112.4,352.1 
	112.4,352.4 112.9,352.4 112.9,352.8 113.5,352.8 113.5,353.1 114,353.1 114,353.5 114.6,353.5 114.6,353.1 117.2,353.1 
	117.2,352.8 120.5,352.8 120.5,353.1 121,353.1 121,353.5 121.5,353.5 121.5,353.8 121.8,353.8 121.8,354.2 122.1,354.2 
	122.1,354.6 122.3,354.6 122.3,354.9 122.9,354.9 122.9,355.3 123.4,355.3 123.4,355.6 123.7,355.6 123.7,356 125,356 125,355.6 
	126.3,355.6 126.3,355.3 127.2,355.3 127.2,355.6 127.6,355.6 127.7,355.6 127.7,355.7 127.7,356 128,356 129.8,356 129.8,356.3 
	132,356.3 132,356.7 132.5,356.7 132.5,357.1 133,357.1 133,357.4 133.3,357.4 133.3,357.8 134.1,357.8 134.1,357.4 134.9,357.4 
	134.9,357.1 135.5,357.1 135.5,357.4 136,357.4 136,357.1 137.6,357.1 137.6,356.7 138.9,356.7 138.9,356.3 139.7,356.3 
	139.7,356.7 140.8,356.7 140.8,357.1 141.6,357.1 141.6,357.4 143.2,357.4 143.2,357.8 144,357.8 144,358.1 144.6,358.1 
	144.6,358.5 144.8,358.5 144.8,358.8 145.9,358.8 145.9,359.2 146.2,359.2 146.2,359.6 146.4,359.6 146.4,359.9 146.7,359.9 
	146.7,360.3 147.5,360.3 147.5,360.6 147.8,360.6 147.8,360.3 152.1,360.3 152.1,360.6 152.9,360.6 152.9,361 153.7,361 
	153.7,361.3 153.9,361.3 153.9,361.7 154.2,361.7 154.2,362.1 154.7,362.1 154.7,362.4 155,362.4 155,363.1 155.3,363.1 
	155.3,363.5 155.8,363.5 155.8,363.8 156.1,363.8 156.1,364.2 156.4,364.2 156.4,364.6 156.6,364.6 156.6,364.9 156.9,364.9 
	156.9,365.6 157.2,365.6 157.2,366.3 157.4,366.3 157.4,366.7 157.7,366.7 157.7,367.4 158,367.4 158,368.1 158.2,368.1 
	158.2,368.5 158.5,368.5 158.5,368.8 158.8,368.8 158.8,369.2 159,369.2 159,369.9 159.3,369.9 159.3,370.3 159.6,370.3 
	159.6,370.6 160.1,370.6 160.1,370.3 160.6,370.3 160.6,370.6 162,370.6 162,371 162.2,371 162.2,371.3 162.8,371.3 162.8,371.7 
	163.1,371.7 163.1,372.1 163.3,372.1 163.3,372.8 163.6,372.8 163.6,373.1 163.9,373.1 163.9,373.5 164.7,373.5 164.7,373.8 
	165.2,373.8 165.2,374.6 165.7,374.6 165.7,374.9 166,374.9 166,375.3 166.3,375.3 166.3,375.6 166.5,375.6 166.5,376 166.8,376 
	166.8,376.7 167.3,376.7 167.3,377.1 167.9,377.1 167.9,377.4 168.7,377.4 168.7,377.8 169.5,377.8 169.5,378.1 169.7,378.1 
	169.7,378.8 170.5,378.8 170.5,379.2 170.8,379.2 170.8,379.6 171.4,379.6 171.4,379.9 171.6,379.9 171.6,380.3 171.9,380.3 
	171.9,380.6 172.2,380.6 172.2,381 172.4,381 172.4,381.3 172.7,381.3 172.7,381.7 173,381.7 173,382.8 173.2,382.8 173.2,383.5 
	173.8,383.5 173.8,384.2 174.3,384.2 174.3,384.6 174.6,384.6 174.6,384.9 175.1,384.9 175.1,385.6 175.4,385.6 175.4,386.3 
	175.9,386.3 175.9,386.7 176.4,386.7 176.4,387.4 176.7,387.4 176.7,388.1 177,388.1 177,388.8 177.2,388.8 177.2,389.2 
	177.5,389.2 177.5,389.6 177.8,389.6 177.8,389.9 178.1,389.9 178.1,390.3 178.3,390.3 178.3,390.6 178.6,390.6 178.6,391 
	178.9,391 178.9,391.3 179.1,391.3 179.1,391.7 178.9,391.7 178.9,393.5 179.1,393.5 179.1,393.7 179.1,393.8 179.3,393.8 
	179.4,394.2 179.7,394.2 179.7,394.6 180.2,394.6 180.2,394.9 180.5,394.9 180.5,395.3 180.7,395.3 180.7,394.9 181.3,394.9 
	181.3,394.6 182.3,394.6 182.3,394.9 182.6,394.9 182.6,395.6 183.9,395.6 183.9,396 185.8,396 185.8,396.3 186.9,396.3 
	186.9,396.7 187.2,396.7 187.2,397.1 188,397.1 188,397.4 188.5,397.4 188.5,397.8 190.4,397.8 190.4,398.1 191.2,398.1 
	191.2,398.5 192,398.5 192,398.8 193.1,398.8 193.1,399.2 193.3,399.2 193.3,399.6 194.1,399.6 194.1,399.8 194.1,399.9 
	194.4,399.9 194.4,400.3 194.7,400.3 194.7,400.6 195.5,400.6 195.5,401.7 195.7,401.7 195.7,402.4 196.3,402.4 196.3,402.8 
	196.5,402.8 196.5,403.5 198.1,403.5 198.1,403.8 198.4,403.8 198.4,403.5 199.2,403.5 199.2,403.8 200.8,403.8 200.8,404.2 
	200.6,404.2 200.6,404.6 201.1,404.6 201.1,404.2 203.8,404.2 203.8,403.8 204.3,403.8 204.3,404.2 204.6,404.2 204.6,403.8 
	205.9,403.8 205.9,404.2 206.7,404.2 206.7,404.6 207.5,404.6 207.5,405.3 207.8,405.3 207.8,405.6 208.1,405.6 208.1,406 
	208.9,406 208.9,405.6 209.9,405.6 209.9,406 211,406 211,406.3 211.3,406.3 211.3,406.7 211.8,406.7 211.8,407.1 212.1,407.1 
	212.1,407.4 212.6,407.4 212.6,408.1 213.1,408.1 213.1,408.5 214.5,408.5 214.5,408.8 215.8,408.8 215.8,409.6 216.1,409.6 
	216.1,409.9 216.6,409.9 216.6,410.3 217.2,410.3 217.2,411.7 218.5,411.7 218.5,412.1 219.8,412.1 219.8,412.4 220.1,412.4 
	220.1,412.1 220.9,412.1 220.9,412.4 225.5,412.4 225.5,412.8 226,412.8 226,413.1 226.5,413.1 226.5,413.5 226.8,413.5 
	226.8,414.2 227.1,414.2 227.1,414.6 227.6,414.6 227.6,414.9 227.9,414.9 227.9,414.6 229,414.6 229,414.9 231.4,414.9 
	231.4,415.3 236.7,415.3 236.7,415.6 239.9,415.6 239.9,415.3 240.2,415.3 240.2,415.6 241,415.6 241,415.3 241.8,415.3 
	241.8,414.9 242.3,414.9 242.3,414.6 243.1,414.6 243.1,414.9 245.6,414.9 245.6,415.3 246.1,415.3 246.1,415.6 248,415.6 248,416 
	248.5,416 248.5,415.6 248.8,415.6 248.8,416 250.1,416 250.1,416.3 251.2,416.3 251.2,416.7 251.5,416.7 251.5,416.3 251.7,416.3 
	251.7,416 253.1,416 253.1,416.3 253.3,416.3 253.3,416 253.9,416 253.9,416.3 254.7,416.3 254.7,416.7 255.5,416.7 255.5,417.1 
	256.3,417.1 256.3,417.4 257.9,417.4 257.9,417.8 258.7,417.8 258.7,418.1 259.5,418.1 259.5,417.8 259.8,417.8 259.8,417.4 
	260,417.4 260,417.8 260.3,417.8 260.3,418.1 260.6,418.1 260.6,418.5 261.4,418.5 261.4,418.9 262.7,418.9 262.7,419.2 
	263.5,419.2 263.5,418.9 264.3,418.9 264.3,419.2 264.6,419.2 264.6,419.6 264.8,419.6 264.8,419.9 265.1,419.9 265.1,420.3 
	265.4,420.3 265.4,420.6 265.7,420.6 265.7,421 265.9,421 265.9,421.7 266.2,421.7 266.2,422.4 266.5,422.4 266.5,422.8 
	266.7,422.8 266.7,423.1 267.5,423.1 267.5,423.5 267.8,423.5 267.8,423.8 268.3,423.8 268.3,424.2 268.6,424.2 268.6,424.6 
	268.9,424.6 268.9,424.9 269.1,424.9 269.1,424.6 269.7,424.6 269.7,424.2 270.2,424.2 270.2,423.8 270.5,423.8 270.5,423.5 
	270.7,423.5 270.7,423.1 271.3,423.1 271.3,422.8 271.8,422.8 271.8,422.1 272.4,422.1 272.4,421.7 272.6,421.7 272.6,421.3 
	273.2,421.3 273.2,421 273.4,421 273.4,420.3 273.7,420.3 273.7,419.9 274,419.9 274,419.2 274.2,419.2 274.2,418.9 274.5,418.9 
	274.5,418.1 274.2,418.1 274.2,417.4 274.5,417.4 274.5,415.6 274.8,415.6 274.8,415.3 275.3,415.3 275.3,414.9 275.6,414.9 
	275.6,414.6 276.6,414.6 276.6,414.2 277.7,414.2 277.7,414.6 280.1,414.6 280.1,414.2 281.7,414.2 281.7,413.8 282.5,413.8 
	282.5,413.5 282.8,413.5 282.8,412.1 283.1,412.1 283.1,411.7 283.3,411.7 283.3,411.3 283.6,411.3 283.6,411 284.1,411 
	284.1,410.6 286.3,410.6 286.3,411 288.2,411 288.2,410.6 289,410.6 289,409.6 289.8,409.6 289.8,409.2 291.4,409.2 291.4,408.8 
	291.9,408.8 291.9,409.2 293.1,409.2 293.8,409.2 293.8,408.8 294.3,408.8 294.3,408.5 294.6,408.5 294.6,407.8 294.9,407.8 
	294.9,407.4 295.4,407.4 295.4,407.1 295.7,407.1 295.7,406.7 298.9,406.7 298.9,407.1 299.7,407.1 299.7,406.7 300.7,406.7 
	300.7,406.3 302.6,406.3 302.6,406.7 302.9,406.7 302.9,406.3 303.2,406.3 303.2,406.7 304.8,406.7 304.8,406.3 306.1,406.3 
	306.1,406 309.6,406 309.6,404.9 309.9,404.9 309.9,404.6 310.1,404.6 310.1,404.2 310.4,404.2 310.4,403.8 310.7,403.8 
	310.7,403.5 310.9,403.5 310.9,403.1 311.2,403.1 311.2,402.8 311.5,402.8 311.5,402.4 311.7,402.4 311.7,402.1 312,402.1 
	312,401.3 312.3,401.3 312.3,400.3 312.5,400.3 312.5,399.6 312.8,399.6 312.8,399.2 313.1,399.2 313.1,398.8 313.3,398.8 
	313.3,398.5 313.6,398.5 313.6,398.1 313.9,398.1 313.9,397.8 314.1,397.8 314.1,397.4 314.7,397.4 314.7,397.1 315.8,397.1 
	315.8,396.7 316,396.7 316,396.3 316.6,396.3 316.6,396 316.8,396 316.8,395.6 317.4,395.6 317.4,395.3 319,395.3 319,394.9 
	321.6,394.9 321.6,395.3 321.9,395.3 321.9,395.6 323,395.6 323,396 323.5,396 323.5,395.6 324.3,395.6 324.3,395.5 317.4,386.2 
	303.1,371.4 305.6,361.3 308.3,354.8 312.2,348.8 325.4,331.5 328.8,325.1 331.9,314.9 336.5,291.8 348,294.8 360.6,296.2 
	382.1,296.8 421.8,296.7 439.9,296.7 471.9,296.5 491.6,295.5 522.9,297 539.2,296.9 551.2,295.9 562.6,293.4 576.4,287 
	583.6,284.5 591.4,283.1 607.4,281.9 617.3,279.5 623.4,277 642.9,265 665,267.1 671.9,268.2 678.6,270.3 687.1,275 708.8,290.4 
	708.4,156.8 709.2,144.9 710.7,137.2 711.9,133.5 715.4,127 719.8,121.2 720,120.9 "/>
</svg>
