<?xml version="1.0" encoding="utf-8"?>
<!-- Generator: Adobe Illustrator 24.2.3, SVG Export Plug-In . SVG Version: 6.00 Build 0)  -->
<svg version="1.1" id="Layer_1" xmlns="http://www.w3.org/2000/svg" xmlns:xlink="http://www.w3.org/1999/xlink" x="0px" y="0px"
	 viewBox="0 0 800 533" style="enable-background:new 0 0 800 533;" xml:space="preserve">
<style type="text/css">
	.st0{fill:#F2933D;stroke:#000000;stroke-width:0.4;stroke-miterlimit:9;}
</style>
<polygon class="st0" points="698.7,240.5 697,239.4 695.1,238.4 691.9,237 692.4,235.1 692.8,232.9 693.2,229.4 693.3,225.9 
	693.3,222.4 693.1,220.1 692.7,217.9 692.3,216.8 691.8,215.8 690.6,214 688.4,211.6 686.8,210.1 685.1,208.9 681.5,207.1 
	679.9,206.2 677.9,204.2 676.8,202.5 676.2,200.6 674.8,194.6 672.9,190.2 672.4,188.3 672,186.2 671.5,179.8 671.1,177.8 
	670.3,176 669.1,174.4 667.7,173.1 666.1,172.1 662.6,170.3 660.9,169.1 655.8,165.1 654,163.9 650.5,162.1 649.1,161 647.8,159.5 
	646.8,157.9 646.2,156 645.8,154 648.3,150.9 649.3,149.2 651.8,142.8 652.7,140.3 650.8,136 649.3,132.1 647.1,127.8 646.2,124.7 
	645.9,121.3 645.8,115.5 646.1,110.8 646.6,107.4 645.8,103 645.2,100.9 641,92 639.9,90.4 638.5,89.1 636.9,88 635.9,87.6 
	633.7,87.1 630.4,86.9 627,87 623.7,87.3 620.5,88.1 616.3,90.3 614.3,91 612.1,91.4 608.7,91.5 606.5,91.4 604.3,91 602.3,90.3 
	598.1,88.2 595,87.4 589.4,87.1 579.4,87.2 556.6,87.2 553.5,86.8 551.5,86.2 550.5,85.7 548,83.9 545.7,81.7 532.1,67.4 
	529.2,64.2 527.8,62.6 526.6,60.9 523.9,55.4 522.8,53.8 521,51.4 516.7,47 486.1,47.1 482.7,47 479.3,46.4 478.3,46 476.3,44.9 
	474.5,43.5 472.9,41.9 470.5,39.4 468.2,36.7 465.1,32 457.1,36.5 454.9,37.3 452.6,37.8 446.6,38.1 417.9,38 417.5,47.3 417.5,52 
	417.7,55.4 418,57.7 418.5,59.8 420.9,65.1 421.7,68.6 422,72.2 422.1,77 422,80.6 421.7,82.8 421,84.8 420.5,85.7 419.1,87 
	413.8,90.3 408.5,92.9 404.5,95.9 402.3,97.8 400.7,98.9 395.4,101.7 393.9,102.8 391.6,104.8 389.4,106.6 387.9,107.6 386.1,108.2 
	384.1,108.3 382.3,107.8 377.3,105.6 372.4,104.3 370.5,103.7 366.3,101.6 363.3,100.7 359,100.2 353.4,100.1 346.7,100.1 
	342.3,100.6 340.2,101.1 339.3,101.5 335.2,103.7 332.5,105 330.6,106 328.8,107.4 327.1,109 319.8,116.6 317.3,119 314.6,121 
	312.6,121.9 309.3,122.5 305.9,122.6 280,122.5 225.8,122.4 214.8,122.7 209.1,122.3 203,122.2 199.5,122.3 196,122.7 193.8,123.5 
	191.9,124.8 190.4,126.4 188.9,128.8 186.4,131.3 183.6,134.6 182.1,135.6 177.4,138.4 174.7,139.6 167.9,141.3 162.7,143.7 
	159.3,144.4 155.8,144.6 134,144.5 130.4,144.6 126.9,145 124.7,145.6 120.4,147.5 118.5,148.2 116.3,148.6 110.7,149.3 
	107.5,150.1 104.9,151.4 98.3,156 99.2,160.9 99.9,163 101.7,167.2 102.4,170.7 102.7,174.3 102.8,179.1 102.5,192.9 108.9,193.9 
	110.9,194.5 111.8,195 113.4,196.1 117.9,199.9 119.5,201.1 121.2,202.1 123.9,203.3 128.8,206.2 131.6,207.4 133.3,208.3 
	134.9,209.5 140.2,213.9 141.8,215 144.5,216.3 146.2,217.3 147.8,218.4 150,220.4 156.5,220.3 160.6,219.9 163.5,219 167.7,216.9 
	170.8,216.2 176.3,215.8 185.3,215.8 189.7,216.1 192.8,216.8 197.9,219.2 203.3,220.8 204.9,221.7 206,223.1 209.3,228.7 
	211.1,233.4 213.8,238.6 215.4,242.4 217.2,245.1 219.4,247.5 221.8,249.6 223.6,250.8 228.2,253 230,254.3 231.7,255.8 
	234.2,258.1 236.6,260.6 238,262.3 239.1,264.2 239.5,265.2 239.7,266.3 239.8,267.3 239.5,269.3 238.8,271 237,274.3 235.3,278 
	233,282 232.5,283.9 232.5,286 232.7,287 233.5,288.8 234.7,290.4 236.7,292.6 239,294.6 240.6,295.8 245.6,298.5 245.8,299.5 
	246.4,301.1 246.9,301.8 248,303.2 249.5,304.3 252.9,306.1 254.5,307.1 260.6,312.2 262.3,313.2 264.1,313.9 268.6,315.5 
	271.2,316.1 277.1,320.6 279.5,322.2 283.2,323.8 288.1,326.6 291.8,328.2 296.7,331.1 300.5,332.6 304.6,334.9 308.1,336.5 
	309.8,337.5 311.2,338.8 311.7,339.5 312.6,341.2 312.8,342.2 312.9,343.2 312.6,345.1 310.5,349.6 310.3,351.4 310.5,352.3 
	310.8,353.1 311.3,353.8 312,354.3 317.2,357.6 321.8,359.5 325.9,361.8 328.4,362.9 334.7,366.3 339.2,368.2 340.9,369.1 
	345.5,371.9 346.8,373.1 347.3,373.9 347.8,375.8 347.9,376.7 347.8,378.7 347.3,380.7 345.2,384.9 344.8,385.8 344.3,387.8 
	343.9,391 343.5,397.6 343.2,400.8 342.6,402.8 342.3,403.7 340.2,408 339.7,410 339.5,413.1 339.8,415.2 340.6,417.2 342.4,419.9 
	344.6,422.3 354,431.7 357.7,435.7 360.4,439.1 363.3,443.6 365.5,444.9 367.5,446.8 368.6,448.4 369.1,449.3 370.3,452.8 
	369.7,456.7 369.6,460 369.9,463.2 370.4,465.3 372.6,470.6 373.2,472.5 374.1,476.6 374.7,478.6 376.1,481.2 380.5,487.7 
	392.7,487.9 396,488.1 398.2,488.5 400.1,489.3 404.2,491.5 407.9,493.2 411.2,495 412.9,495.8 416.2,496.6 421.8,497.3 
	423.9,497.7 425.8,498.4 430.1,500.4 433,501 436.1,500.9 438.1,500.5 439,500.1 443.1,497.9 447.5,495.7 453.4,491.5 463.9,487.2 
	468.9,484.4 472.6,482.7 477.5,479.9 481.2,478.3 485.3,475.9 489.8,473.8 494.8,471 498.5,469.5 502.7,467.2 506.1,465.7 
	506.9,465.3 508.3,464.2 509.4,462.8 509.7,462 509.9,461.1 509.9,460.2 509.4,458.6 506.7,452.7 504.8,449.4 504,447.6 
	503.4,445.5 502.9,442.3 502.7,438 502.9,434.9 503.4,433.1 503.8,432.2 504.4,431.4 505.1,430.8 506,430.4 507.8,430 511.8,429.9 
	518.4,430.6 520.9,429 525,426.2 527.9,424.6 532.3,425.3 535.8,425.6 548.7,425.7 557.5,425.7 560.4,425.5 562.3,425.2 
	564.1,424.5 568.2,422.2 571.1,420.9 572.7,420 575.1,418.1 577.4,415.9 596.3,396.4 599.8,392.3 603,387.7 603.2,386.3 603.7,385 
	605.8,380.8 607.3,377 608.4,375.3 610.3,373 612.4,370.9 614.8,369.1 616.3,368.3 619.2,367 620.9,366 622.4,364.7 626.1,361.2 
	635.4,351.5 639.1,348.1 641.5,346.4 644.4,345.1 646,344.3 648.3,342.5 650.6,340.4 656.4,334.5 659.8,330.7 661.5,328.3 
	662.3,326.7 663.6,323.7 664.6,322 667.1,318.9 671.4,314.4 675.7,310 675.7,304.4 675.8,301.1 676.1,299 676.6,297 677.4,295.2 
	679.2,291.8 680.9,288 682.7,285.4 686.1,281.2 687.4,279.4 688.4,277.5 689.6,274.7 691.8,270.4 692.4,268.4 692.7,267.3 
	693.4,260.3 693.8,258.1 694.4,256.1 696.4,251.7 697.4,247.6 701.7,243.2 "/>
</svg>
