<?xml version="1.0" encoding="utf-8"?>
<!-- Generator: Adobe Illustrator 24.2.3, SVG Export Plug-In . SVG Version: 6.00 Build 0)  -->
<svg version="1.1" id="Layer_1" xmlns="http://www.w3.org/2000/svg" xmlns:xlink="http://www.w3.org/1999/xlink" x="0px" y="0px"
	 viewBox="0 0 800 533" style="enable-background:new 0 0 800 533;" xml:space="preserve">
<style type="text/css">
	.st0{fill:#F2933D;stroke:#000000;stroke-width:0.4;stroke-miterlimit:9;}
</style>
<polygon class="st0" points="648.7,293 644.1,285.7 642.7,282.9 640.7,277.6 635.9,268.7 633.2,262.1 631.3,259 629.1,256.2 
	625.5,252 613.7,239.9 607,233.5 599.8,227.6 593.2,218.2 591.7,215.7 590.4,213.1 588.9,209.1 587.5,206.4 585.6,203.5 
	582.2,199.5 520.6,135.8 503.3,118 497.4,111.5 494.4,107.3 493,104.5 489.5,94.6 487.8,87.7 487.8,87.7 487.3,85.3 487.3,85.5 
	487,85.5 487,85.7 486.9,85.7 486.9,85.8 485.9,85.8 485.9,86 486,86 486,86.4 486.2,86.4 486.2,86.6 486.3,86.6 486.3,86.8 
	486.2,86.8 486.2,86.9 485.9,86.9 485.9,87.1 485.8,87.1 485.8,87.3 485.5,87.3 485.5,87.5 485.2,87.5 485.2,87.7 485.1,87.7 
	485.1,87.9 484.8,87.9 484.8,87.7 484.2,87.7 484.2,87.5 484.1,87.5 484.1,87.3 483.8,87.3 483.8,87.1 483.7,87.1 483.7,86.9 
	483.4,86.9 483.4,86.8 482.8,86.8 482.8,87.3 483,87.3 483,87.5 483.1,87.5 483.1,87.7 483.3,87.7 483.3,87.9 483.4,87.9 
	483.4,88.2 483.5,88.2 483.5,88.4 483.4,88.4 483.4,88.6 483.3,88.6 483.3,88.8 483.1,88.8 483.1,89 482.8,89 482.8,89.2 
	482.7,89.2 482.7,89.9 482.6,89.9 482.6,90.1 482.3,90.1 482.3,90.3 482.2,90.3 482.2,90.5 482,90.5 482,90.6 481.7,90.6 
	481.7,90.8 481.6,90.8 481.6,91 481.3,91 481.3,91.2 480.2,91.2 480.2,91.4 480.1,91.4 480.1,91.6 479.9,91.6 479.9,91.8 
	479.8,91.8 479.8,91.9 479.7,91.9 479.7,92.3 479.5,92.3 479.5,92.5 479.4,92.5 479.4,92.7 479.1,92.7 479.1,92.9 479.2,92.9 
	479.2,93 478.5,93 478.5,93.2 478.4,93.2 478.4,93.4 478.3,93.4 478.3,93.6 478.1,93.6 478.1,93.8 478,93.8 478,94 477.9,94 
	477.9,94.2 477.7,94.2 477.7,94.3 477.4,94.3 477.4,94.5 476.9,94.5 476.7,94.5 476.7,94.7 476.2,94.7 476.2,94.9 475.6,94.9 
	475.6,95.1 475.4,95.1 475.4,95.3 475.1,95.3 475.1,95.5 474.5,95.5 474.5,95.6 474.3,95.6 474.3,95.8 474,95.8 474,96 473.8,96 
	473.8,96.2 473.6,96.2 473.6,96.4 472.9,96.4 472.9,96.6 472.2,96.6 472.2,96.7 471.2,96.7 471.2,96.9 470,96.9 470,97.1 
	468.8,97.1 468.8,97.3 468.4,97.3 468.4,97.5 468,97.5 468,97.7 467.6,97.7 467.6,97.9 465.9,97.9 465.9,97.7 465.2,97.7 
	464.7,97.7 464.7,97.9 464.5,97.9 464.5,98.2 462.5,98.2 462.5,98.4 461.6,98.4 461.6,98.6 461.1,98.6 461.1,98.8 460.2,98.8 
	460.2,99 460.1,99 460.1,99.1 459.8,99.1 459.8,99.3 459.7,99.3 459.7,99.5 459.4,99.5 459.4,99.7 459.1,99.7 459.1,99.9 
	458.9,99.9 458.9,100.1 458.3,100.1 458.3,100.3 458.2,100.3 458.2,100.4 457.9,100.4 457.9,100.6 457.3,100.6 457.3,100.8 
	456.9,100.8 456.9,101 456.6,101 456.6,101.2 456.4,101.2 456.4,102.1 455.9,102.1 455.9,102.3 455.4,102.3 455.4,102.5 
	455.3,102.5 455.3,102.7 454.8,102.7 454.8,102.8 454.7,102.8 454.7,103 454.6,103 454.6,103.2 454.3,103.2 454.3,103.4 
	453.7,103.4 453.7,103.8 450.4,103.8 450.4,103.6 449.7,103.6 449.7,103.8 449.4,103.8 449.4,103.6 449,103.6 449,103.8 
	448.7,103.8 448.7,104 448.5,104 448.5,104.3 448,104.3 448,104.5 447.9,104.5 447.9,104.7 447.8,104.7 447.8,104.9 447.6,104.9 
	447.6,105.6 447.2,105.6 447.2,105.4 446.9,105.4 446.9,105.2 446,105.2 446,105.1 445.5,105.1 445.5,104.9 444.6,104.9 
	444.6,105.1 444.3,105.1 444.3,105.6 444.4,105.6 444.4,106 444.6,106 444.6,106.4 444.2,106.4 444.2,106.2 444,106.2 444,106.5 
	443.9,106.5 443.9,106.4 443.6,106.4 443.6,106.5 443.3,106.5 443.3,106.7 443.1,106.7 443.1,106.5 442.9,106.5 442.9,106.4 
	442.4,106.4 442.4,106.2 442.2,106.2 442.2,106 441.9,106 441.9,105.8 441.7,105.8 441.7,106 441.5,106 441.5,106.2 441.2,106.2 
	441.2,106.4 441.1,106.4 441.1,106.5 441,106.5 441,106.7 440.7,106.7 440.7,106.9 440.4,106.9 440.4,107.1 440.1,107.1 
	440.1,107.3 439.9,107.3 439.9,107.1 439.7,107.1 439.7,107.3 439,107.3 439,107.5 438.9,107.5 438.9,107.7 438.8,107.7 
	438.8,107.8 438.6,107.8 438.6,108 438.5,108 438.5,108.2 438.3,108.2 438.3,108.4 438.2,108.4 438.2,108.6 438.1,108.6 
	438.1,108.4 437.8,108.4 437.8,108.6 437.4,108.6 437.4,108.8 436.4,108.8 436.4,108.9 436.3,108.9 436.3,109.1 436.1,109.1 
	436.1,109.3 436,109.3 436,109.7 435.7,109.7 435.7,109.9 435.6,109.9 435.6,110.1 435.3,110.1 435.3,110.2 435,110.2 435,110.4 
	434.6,110.4 434.6,110.6 434.5,110.6 434.5,110.8 434,110.8 434,111 433.9,111 433.9,111.2 433.6,111.2 433.6,111.3 433.3,111.3 
	433.3,111.5 433.1,111.5 433.1,111.7 432.8,111.7 432.8,111.5 432.7,111.5 432.7,111.3 432,111.3 432,111.5 431.7,111.5 
	431.7,111.9 431.5,111.9 431.5,112.1 431.4,112.1 431.4,112.3 431.3,112.3 431.3,112.8 431.1,112.8 431.1,113 431,113 431,113.2 
	429.3,113.2 429.3,113.4 429.2,113.4 429.2,113.6 428.8,113.6 428.8,113.4 428.6,113.4 428.6,113.2 428.5,113.2 428.5,113.4 
	428.4,113.4 428.4,113.6 427.9,113.6 427.9,113.4 427.8,113.4 427.8,113 427.5,113 427.5,112.6 427.4,112.6 427.4,112.5 
	427.2,112.5 427.2,112.3 427,112.3 427,112.1 426.8,112.1 426.8,111.9 426.7,111.9 426.7,111.7 426.3,111.7 426.3,111.5 426,111.5 
	426,111.3 424.9,111.3 424.9,111.2 424.5,111.2 424.5,111.3 424.1,111.3 424.1,111.5 423.9,111.5 423.9,111.7 423.8,111.7 
	423.8,112.1 423.9,112.1 423.9,112.3 424.7,112.3 424.7,112.1 425.4,112.1 425.4,112.3 426,112.3 426,112.5 426.1,112.5 
	426.1,112.6 426.3,112.6 426.3,112.8 426.5,112.8 426.5,113 426.8,113 426.8,113.4 425.9,113.4 425.9,113.8 425.6,113.8 
	425.6,114.1 424.9,114.1 424.9,113 424.7,113 424.7,112.8 424.2,112.8 424.2,113 424.1,113 424.1,113.2 423.9,113.2 423.9,114.1 
	424.1,114.1 424.1,114.7 423.8,114.7 423.8,114.9 422.8,114.9 422.8,115 422.5,115 422.5,115.4 422.3,115.4 422.3,115.6 
	421.8,115.6 421.8,115.8 421.7,115.8 421.7,116 420.3,116 420.3,116.2 419.9,116.2 419.9,116.3 419.5,116.3 419.5,116.5 
	419.3,116.5 419.3,116.7 419.2,116.7 419.2,116.9 418.8,116.9 418.8,117.1 418.5,117.1 418.5,117.3 418.1,117.3 418.1,117.5 
	417.7,117.5 417.7,117.6 417.5,117.6 417.5,117.8 417.3,117.8 417.3,118 417.1,118 417.1,118.2 416.6,118.2 416.6,118.4 
	415.3,118.4 415.3,118.7 415,118.7 415,119.1 414.9,119.1 414.9,119.3 414.6,119.3 414.6,119.5 414.2,119.5 414.2,119.7 
	413.8,119.7 413.8,119.9 413.7,119.9 413.7,120 413.4,120 413.4,120.2 413.2,120.2 413.2,120.4 412.7,120.4 412.7,120.2 
	412.5,120.2 412.5,120 412.1,120 412.1,120.2 410.9,120.2 410.9,120.4 410.7,120.4 410.7,120.6 410.6,120.6 410.6,121.3 
	410.5,121.3 410.5,121.5 409.8,121.5 409.8,121.7 409.6,121.7 409.6,121.9 409.4,121.9 409.4,122.1 409.2,122.1 409.2,122.3 
	408.7,122.3 408.7,122.4 408.4,122.4 408.4,122.6 408.2,122.6 408.2,123 407.8,123 407.8,123.2 407.6,123.2 407.6,123.4 
	407.4,123.4 407.4,123.6 407.1,123.6 407.1,123.7 406.4,123.7 406.4,123.9 406.3,123.9 406.3,124.1 405.8,124.1 405.8,124.3 
	405.5,124.3 405.5,124.5 405.2,124.5 405.2,124.7 404.8,124.7 404.8,124.8 404.6,124.8 404.6,125 404.4,125 404.4,125.2 
	403.5,125.2 403.5,125.4 403.1,125.4 403.1,125.6 402.6,125.6 402.6,125.8 402.1,125.8 402.1,126 401.9,126 401.9,126.1 
	401.6,126.1 401.6,126.3 401.3,126.3 401.3,126.5 400.8,126.5 400.8,126.7 400.6,126.7 400.6,126.9 400.3,126.9 400.3,127.1 
	400.2,127.1 400.2,127.2 399.6,127.2 399.6,127.1 399.5,127.1 399.5,126.9 399.3,126.9 398.8,126.9 398.8,127.1 398.7,127.1 
	398.7,127.2 398.5,127.2 398.5,127.8 398.7,127.8 398.7,127.9 398.7,128 399,128 399,127.8 399.8,127.8 399.8,128.2 399.6,128.2 
	399.6,128.4 399.5,128.4 399.5,128.5 399.4,128.5 399.4,128.7 399.1,128.7 399.1,128.9 399,128.9 399,129.1 398.7,129.1 
	398.7,129.3 398.1,129.3 398.1,129.7 397.7,129.7 397.7,129.8 397.6,129.8 397.6,130 397.4,130 397.3,130 397.3,130.2 397,130.2 
	397,130.4 396.5,130.4 396.5,130.6 396.2,130.6 396.2,130.8 395.9,130.8 395.9,130.9 395.6,130.9 395.6,131.1 395.4,131.1 
	395.4,131.3 394.9,131.3 394.9,131.5 394.7,131.5 394.7,131.7 393.8,131.7 393.8,131.9 393.7,131.9 393.7,132.2 393.5,132.2 
	393.5,132.4 393.1,132.4 393.1,132.6 392.6,132.6 392.6,132.8 392.4,132.8 392.4,133 392.2,133 392.2,133.2 392,133.2 392,133.7 
	392.2,133.7 392.2,133.9 392.3,133.9 392.3,134.1 392.4,134.1 392.4,134.5 392.3,134.5 392.3,135.7 392.3,135.8 392.2,135.8 
	392.2,136.5 392,136.5 392,136.9 391.7,136.9 391.7,137 391.6,137 391.6,137.2 391.5,137.2 391.5,137.4 391.2,137.4 391.2,137.6 
	390.9,137.6 390.9,138 390.8,138 390.8,138.2 390.6,138.2 390.6,138.3 390.4,138.3 390.4,138.5 390.1,138.5 390.1,138.7 
	388.4,138.7 388.4,139.1 388.1,139.1 388.1,139.3 387.9,139.3 387.9,139.5 387.6,139.5 387.6,139.6 387.4,139.6 387.4,140 387,140 
	387,140.2 386.6,140.2 386.6,140.4 386.3,140.4 386.3,140.6 385.9,140.6 385.9,140.7 385.5,140.7 385.5,140.9 385.4,140.9 
	385.4,141.1 385.1,141.1 385.1,141.7 385,141.7 385,142 384.8,142 384.8,142.4 384.5,142.4 384.5,142.6 384.3,142.6 384.3,142.8 
	384.1,142.8 384.1,143 383.7,143 383.7,142.8 383.3,142.8 383.3,143 383,143 383,143.2 382.9,143.2 382.9,143.3 381.9,143.3 
	381.9,143.2 381.8,143.2 381.8,143.5 381.3,143.5 381.3,143.7 381.2,143.7 381.2,143.9 380.6,143.9 379.3,143.9 379.3,144.1 
	379,144.1 379,144.4 378.8,144.4 378.8,144.6 378.6,144.6 378.6,144.4 378.7,144.4 378.7,144.3 378,144.3 378,144.4 377.5,144.4 
	377.5,144.6 377.3,144.6 377.3,145.2 377.5,145.2 377.5,145.4 377.6,145.4 377.6,145.6 377.7,145.6 377.7,145.9 378,145.9 
	378,146.5 377.6,146.5 377.6,146.3 376.9,146.3 376.9,146.5 376.8,146.5 376.8,146.8 376.6,146.8 376.6,147 376.5,147 376.5,147.2 
	375.9,147.2 375.9,146.8 375.7,146.8 375.7,147 375.5,147 375.5,147.4 375.8,147.4 375.8,147.6 376.1,147.6 376.1,147.8 
	376.2,147.8 376.2,148 376.6,148 376.6,148.1 376.9,148.1 376.9,148.3 377,148.3 377,148.5 376.9,148.5 376.9,148.7 376.6,148.7 
	376.6,148.9 376.5,148.9 376.5,149.1 376.1,149.1 376.1,149.3 375.5,149.3 375.5,149.4 375.2,149.4 375.2,149.6 375.1,149.6 
	375.1,150 375,150 375,150.2 374.7,150.2 374.7,150 374.6,150 374.6,149.8 374,149.8 374,149.4 373.9,149.4 373.9,149.1 
	373.7,149.1 373.7,148.3 373,148.3 373,148.5 372.5,148.5 372.5,148.7 372.3,148.7 372.3,148.9 372.1,148.9 372.1,149.1 
	371.9,149.1 371.9,149.3 371.6,149.3 371.6,149.4 371.5,149.4 371.5,149.6 371.4,149.6 371.4,149.8 370.9,149.8 370.9,150 
	370.7,150 370.7,150.2 370.4,150.2 370.4,150.4 370.1,150.4 370.1,150.5 370,150.5 370,150.7 369.8,150.7 369.8,151.3 370,151.3 
	370,151.8 370.1,151.8 370.1,152.4 370,152.4 370,152.9 369.8,152.9 369.8,153.3 369.7,153.3 369.7,153.5 369.1,153.5 369.1,153.7 
	368.3,153.7 368.3,153.9 367.9,153.9 367.9,154.1 366.6,154.1 366.6,154.2 366.5,154.2 366.5,154.8 366.6,154.8 366.6,155 
	367.3,155 367.3,154.8 367.5,154.8 367.5,155 368.3,155 368.3,154.8 368.6,154.8 368.6,154.6 370.3,154.6 370.3,155 370.5,155 
	370.5,155.9 370.7,155.9 370.7,156.5 370.3,156.5 370.3,156.3 370,156.3 370,157 369.8,157 369.8,157.2 369.7,157.2 369.7,157.6 
	369,157.6 369,157.4 368.9,157.4 368.9,157.2 368.7,157.2 368.7,157 369,157 369,156.8 369.1,156.8 369.1,156.6 369,156.6 
	369,156.3 368.6,156.3 368.6,156.1 367.9,156.1 367.9,155.9 367.5,155.9 367.5,156.1 367.2,156.1 367.2,156.3 367.1,156.3 
	367.1,156.5 366.9,156.5 366.9,156.8 366.8,156.8 366.8,157 366.6,157 366.6,157.2 366.1,157.2 366.1,157.4 366,157.4 366,157.6 
	363.7,157.6 363.7,157.4 363.2,157.4 363.2,157.2 362.6,157.2 362.6,157 361.7,157 361.7,156.8 360.7,156.8 360.7,156.6 
	360.1,156.6 360.1,156.5 360,156.5 360,156.3 359.9,156.3 359.9,156.1 358.9,156.1 358.9,156.3 358.6,156.3 358.6,156.5 
	358.5,156.5 358.5,156.6 357.6,156.6 357.6,156.5 357.5,156.5 357.5,156.3 357.2,156.3 357.2,156.5 355.8,156.5 355.8,156.6 
	355.6,156.6 355.6,156.8 355.5,156.8 355,156.8 355,157 354.2,157 354.2,157.2 354,157.2 354,157.4 353.9,157.4 353.9,157.6 
	353.8,157.6 353.8,157.9 353.6,157.9 353.6,158.3 353.5,158.3 353.5,158.5 353.3,158.5 353.3,158.7 353.2,158.7 353.2,159.2 
	353.1,159.2 353.1,160.3 352.9,160.3 352.9,161.1 352.8,161.1 352.8,161.3 352.9,161.3 352.9,162.2 352.9,162.6 352.8,162.6 
	352.8,162.7 352.9,162.7 352.9,163.3 353.1,163.3 353.1,163.5 353.2,163.5 353.2,164.2 353.1,164.2 353.1,164.6 352.9,164.6 
	352.9,164.8 352.8,164.8 352.8,165 352.6,165 352.6,165.9 352.5,165.9 352.5,166.1 352.1,166.1 352.1,166.3 351.8,166.3 
	351.8,166.4 351.5,166.4 351.5,166.6 351.3,166.6 351.3,166.8 351.1,166.8 351.1,167.2 350.3,167.2 350.3,167.6 350.1,167.6 
	350.1,167.7 350,167.7 350,167.9 349.6,167.9 349.6,168.1 349.3,168.1 349.3,167.9 348.8,167.9 348.8,167.7 348.3,167.7 
	348.3,167.6 347.8,167.6 347.8,167.7 347.7,167.7 347.7,167.9 347.4,167.9 347.4,168.1 347.1,168.1 347.1,168.3 346.8,168.3 
	346.8,168.5 345.3,168.5 345.3,168.7 345.2,168.7 345.2,168.8 344.9,168.8 344.9,168.7 344.5,168.7 344.5,168.8 343.5,168.8 
	343.5,169 343.1,169 343.1,169.2 342.9,169.2 342.9,169.4 342.8,169.4 342.8,169.6 342.7,169.6 342.7,169.8 342.4,169.8 342.4,170 
	342.1,170 342.1,170.1 342,170.1 342,170.3 341.6,170.3 341.6,170.5 341.1,170.5 341.1,171.1 341,171.1 341,171.3 340.7,171.3 
	340.7,171.6 340.3,171.6 340.3,171.8 339.7,171.8 339.7,172 339.6,172 339.6,172.2 339.5,172.2 339.5,172.4 338.8,172.4 
	338.8,172.5 338.6,172.5 338.6,172.7 338.4,172.7 338.4,172.9 338.1,172.9 338.1,173.1 337.9,173.1 337.9,173.3 337.7,173.3 
	337.7,173.5 337.8,173.5 337.8,173.8 337.7,173.8 337.7,174 337.5,174 337.5,174.2 337.4,174.2 337.4,174.4 337.3,174.4 
	337.3,175.1 337.1,175.1 337.1,175.5 337.3,175.5 337.3,175.9 337.1,175.9 337.1,177 336.7,177 336.7,176.8 336.6,176.8 
	336.6,176.6 336.3,176.6 336.3,176.4 335.2,176.4 335.2,176.6 335,176.6 335,176.8 334.9,176.8 334.9,177 334.3,177 334.3,177.2 
	334.1,177.2 334.1,177.4 333.9,177.4 333.9,177.5 333.8,177.5 333.8,177.7 333.6,177.7 333.6,178.1 333.4,178.1 333.4,177.9 
	332.4,177.9 332.4,177.7 331.8,177.7 331.8,177.9 330.7,177.9 330.7,178.1 330.2,178.1 330.2,178.3 329.8,178.3 329.8,178.5 
	329.5,178.5 329.5,178.6 329.3,178.6 329.3,178.8 329.2,178.8 329.2,179.2 329.1,179.2 329.1,179.8 328.9,179.8 328.9,180.1 
	328.8,180.1 328.8,180.3 328.7,180.3 328.7,180.7 328.5,180.7 328.5,180.9 328.2,180.9 328.2,181 328.1,181 328.1,181.2 
	327.7,181.2 327.7,181 327.5,181 327.5,180.9 327.1,180.9 327.1,180.7 326.9,180.7 326.9,180.9 326.6,180.9 326.6,181.2 
	325.9,181.2 325.9,181.6 325.5,181.6 325.5,181.8 325,181.8 325,182 324.9,182 324.9,182.2 324.8,182.2 324.8,182.3 324.2,182.3 
	324.2,182.5 323.9,182.5 323.9,182.7 323.8,182.7 323.8,182.9 323.5,182.9 323.5,183.1 323.4,183.1 323.4,183.3 323.2,183.3 
	323.2,183.5 322.8,183.5 322.8,183.6 322.6,183.6 322.6,183.8 322.4,183.8 322.4,184 322.1,184 322.1,184.2 322,184.2 322,184.4 
	321.7,184.4 321.7,184.6 321.6,184.6 321.6,184.7 321.3,184.7 321.3,184.9 321.2,184.9 321.2,185.1 320.8,185.1 320.8,185.5 
	320.6,185.5 320.6,185.7 320.3,185.7 320.3,186 320.2,186 320.2,186.2 319.6,186.2 319.6,185.9 319.4,185.9 319.4,186 319.2,186 
	319.2,186.2 318.9,186.2 318.9,186.4 318.7,186.4 318.7,187 318.5,187 318.5,187.3 318.4,187.3 318.4,187.5 318.3,187.5 
	318.3,187.7 318.1,187.7 318.1,187.9 317.7,187.9 317.7,187.3 317.6,187.3 317.6,187.2 317.4,187.2 317.4,186.6 317.3,186.6 
	317.3,186.2 317,186.2 317,186.4 316.3,186.4 316.3,186.6 316.2,186.6 316.2,186.8 316,186.8 316,187 313.7,187 313.7,187.2 
	313.5,187.2 313.5,187.3 313.4,187.3 313.4,187.5 313.1,187.5 313.1,187.7 313,187.7 313,188.1 312.7,188.1 312.7,188.3 
	312.6,188.3 312.6,188.4 312.4,188.4 312.4,188.8 312.3,188.8 312.3,189 312.2,189 312.2,189.2 311.6,189.2 311.6,189 311.5,189 
	311.5,189 311.5,189.2 311,189.2 311,189 310.4,189 310.4,189.2 310.1,189.2 310.1,189.4 309.9,189.4 309.9,189.6 309.8,189.6 
	309.8,189.7 307.9,189.7 307.9,189.9 307.4,189.9 307.4,190.1 307,190.1 307,190.3 306.9,190.3 306.9,190.5 306.7,190.5 
	306.7,190.7 306.6,190.7 306.6,190.9 306.5,190.9 306.5,191 306.3,191 306.3,191.2 306.2,191.2 306.2,191.4 306.1,191.4 
	306.1,191.6 305.8,191.6 305.8,191.8 305.1,191.8 305.1,192 304.8,192 304.8,192.1 304.3,192.1 304.3,192.5 304,192.5 304,192.7 
	303.6,192.7 303.6,192.9 303.3,192.9 303.3,193.1 302.7,193.1 302.7,193.2 302.6,193.3 302.6,193.4 302.4,193.4 302.4,193.6 
	302.2,193.6 302.2,193.8 301.8,193.8 301.8,194 301.5,194 301.5,194.2 301.1,194.2 301.1,194.4 300.8,194.4 300.8,194.5 
	298.4,194.5 298.4,195.1 298,195.1 298,194.7 297.7,194.7 297.7,194.9 297.5,194.9 297.5,195.1 297.2,195.1 297.2,195.3 297,195.3 
	297,195.5 296.9,195.5 296.9,195.7 297,195.7 297,196 297.2,196 297.2,196.6 297,196.6 297,197 296.9,197 296.9,197.1 296.3,197.1 
	296.3,197.3 296.1,197.3 296.1,197.5 295.5,197.5 295.5,197.7 295.2,197.7 295.2,198.4 295.4,198.4 295.4,198.8 295.2,198.8 
	295.2,199 295,199 295,198.8 294.8,198.8 294.8,198.6 294.5,198.6 294.5,198.4 294.4,198.4 294.4,198.6 294.1,198.6 294.1,199 
	294,199 294,199.2 293.9,199.2 293.9,199.5 293.7,199.5 293.7,199.7 293.6,199.7 293.6,199.9 293.3,199.9 293.3,200.1 292.6,200.1 
	292.6,200.3 292.5,200.3 292.5,200.5 291.8,200.5 291.8,200.1 291.2,200.1 291.2,200.5 291.1,200.5 291.1,200.6 290.9,200.6 
	290.9,200.8 290.8,200.8 290.8,201 290.7,201 290.7,201.2 290,201.2 290,201.4 289.8,201.4 289.8,201.6 289.7,201.6 289.7,201.9 
	289.6,201.9 289.6,202.1 289.3,202.1 289.3,202.3 289,202.3 289,202.5 288.9,202.5 288.9,202.9 288.7,202.9 288.7,203.8 
	288.3,203.8 288.3,204 288.2,204 288.2,204.2 287.6,204.2 287.6,204.3 287.5,204.3 287.5,204.7 287.3,204.7 287.3,204.9 
	287.2,204.9 287.2,205.3 286.8,205.3 286.8,205.1 286.6,205.1 286.6,204.9 286.1,204.9 286.1,205.1 285.8,205.1 285.8,205.3 
	285.4,205.3 285.4,205.5 285.3,205.5 285.3,205.6 285.1,205.6 285.1,205.8 284.8,205.8 284.8,206 284.6,206 284.6,206.2 
	284.3,206.2 284.3,206.4 284,206.4 284,206.6 283.6,206.6 283.6,206.7 283.3,206.7 283.3,206.9 283,206.9 283,207.1 282.1,207.1 
	282.1,207.5 281.1,207.5 281.1,207.7 281,207.7 281,207.9 280.4,207.9 280.4,208 280.1,208 280.1,208.2 279.8,208.2 279.8,208.4 
	279.7,208.4 279.7,208.6 279.6,208.6 279.6,209 279.3,209 279.3,209.2 279,209.2 279,209 278.9,209 278.9,208.8 278.5,208.8 
	278.5,208.6 278.2,208.6 278.2,208.4 277.6,208.4 277.6,208.6 277.5,208.6 277.5,208.8 276.5,208.8 276.5,208.4 276.4,208.4 
	276.4,208.2 275.8,208.2 275.8,208 275.5,208 275.5,207.9 275.1,207.9 275.1,207.7 273.9,207.7 273.9,207.9 273.7,207.9 273.7,208 
	273.6,208 273.6,208.6 273.5,208.6 273.5,209.2 273.6,209.2 273.6,210.3 273.5,210.3 273.5,210.4 273.1,210.4 273.1,210.6 
	272.8,210.6 272.8,210.8 272.5,210.8 272.5,211 272.4,211 272.4,211.4 272.2,211.4 272.2,211.6 271.5,211.6 271.5,211.7 
	271.4,211.7 271.4,211.9 271.1,211.9 271.1,212.1 270.8,212.1 270.8,211.9 270.6,211.9 270.6,211.7 270.4,211.7 270.4,211.6 
	270.3,211.6 270.3,211.4 270,211.4 270,211.2 269.9,211.2 269.9,211.4 269.6,211.4 269.6,211.6 269.2,211.6 269.2,211.4 269,211.4 
	269,211.2 267.2,211.2 267.2,211.4 267,211.4 267,211.6 266.7,211.6 266.7,211.4 266.4,211.4 266.4,211.6 266.1,211.6 266.1,211.7 
	265.8,211.7 265.8,211.9 265.7,211.9 265.7,212.1 265.6,212.1 265.6,212.5 265.1,212.5 265.1,212.3 264.6,212.3 264.6,212.1 
	263.9,212.1 263.9,211.9 263.8,211.9 263.8,212.1 263.5,212.1 263.5,212.3 263.2,212.3 263.2,212.1 261.1,212.1 261.1,211.9 
	259.9,211.9 259.9,211.7 259.5,211.7 259.5,211.9 259.3,211.9 259.3,212.1 259.2,212.1 259.2,212.5 259,212.5 259,212.7 
	258.9,212.7 258.9,212.9 258.8,212.9 258.8,212.7 258.2,212.7 258.2,212.5 258.1,212.5 258.1,212.3 257.8,212.3 257.8,212.1 
	257.4,212.1 257.4,211.9 257.2,211.9 257.2,212.1 257.1,212.1 257.1,212.3 257,212.3 257,212.5 256.7,212.5 256.7,212.7 
	256.4,212.7 256.4,212.9 256.3,212.9 256.3,213 256.1,213 256.1,213.4 255.9,213.4 255.9,213.2 255.7,213.2 255.7,213 255.6,213 
	255.6,214 255.4,214 255.4,214.1 255.2,214.1 255.2,214.3 254.9,214.3 254.9,214.5 254.5,214.5 254.5,214.7 254.3,214.7 
	254.3,214.9 254.2,214.9 254.2,215.1 254.1,215.1 254.1,215.3 253.8,215.3 253.8,215.4 253.6,215.4 253.6,215.6 253.5,215.6 
	253.5,215.8 253.4,215.8 253.4,216 253.2,216 253.2,216.2 253.1,216.2 253.1,216.4 252.9,216.4 252.9,216.5 252.3,216.5 
	252.3,216.7 251.7,216.7 251.7,216.9 251,216.9 251,217.1 250.6,217.1 250.6,217.3 250.2,217.3 250.2,217.5 249.8,217.5 
	249.8,217.7 249.3,217.7 249.3,217.8 249.1,217.8 249.1,218 248.6,218 248.6,218.2 248.4,218.2 248.4,218.4 247.5,218.4 
	247.5,218.2 247.4,218.2 247.4,218 247.1,218 247.1,217.8 247,217.8 247,217.7 246.7,217.7 246.7,217.5 246.6,217.5 246.6,217.3 
	246.3,217.3 246.3,217.1 246.2,217.1 246.2,216.9 245.9,216.9 245.9,216.7 245.7,216.7 245.7,216.5 245.2,216.5 245.2,216.7 
	245,216.7 245,216.5 244.8,216.5 244.8,216.7 244.6,216.7 244.6,216.9 244.1,216.9 244.1,217.1 243.1,217.1 243.1,217.3 243,217.3 
	243,217.7 242.8,217.7 242.8,217.8 242.4,217.8 242.4,218 242,218 242,218.6 241.9,218.6 241.9,218.8 241.7,218.8 241.7,219.1 
	241.6,219.1 241.6,219.3 241.4,219.3 241.4,219.5 240.6,219.5 240.6,219.3 240.5,219.3 240.5,219.1 240.2,219.1 240.2,219 
	239.2,219 239.2,219.1 238.9,219.1 238.9,219.3 238.8,219.3 238.8,219.5 238.7,219.5 238.7,219.7 238.2,219.7 238.2,219.9 
	237.7,219.9 237.7,220.1 237.6,220.1 237.6,220.2 236.6,220.2 236.6,220.6 236,220.6 236,220.8 235.5,220.8 235.5,221 235.3,221 
	235.3,221.2 235.2,221.2 235.2,221.4 234.9,221.4 234.9,221.5 234.8,221.5 234.8,221.7 234.5,221.7 234.5,221.9 234.4,221.9 
	234.4,222.1 234.1,222.1 234.1,222.3 233.9,222.3 233.9,222.5 233.7,222.5 233.7,222.6 233.3,222.6 233.3,222.8 233.1,222.8 
	233.1,223 232.6,223 232.6,222.6 232.1,222.6 232.1,222.5 231.3,222.5 231.3,222.6 230.1,222.6 230.1,222.8 229.5,222.8 229.5,223 
	229.4,223 229.4,223.2 228.8,223.2 228.8,223.4 228.3,223.4 228.3,223.6 228.1,223.6 228.1,223.9 227.8,223.9 227.8,224.1 
	227.7,224.1 227.7,224.3 226.6,224.3 226.6,224.5 226.3,224.5 226.3,224.9 226,224.9 226,225.1 225.6,225.1 225.6,225.2 
	225.5,225.2 225.5,225.4 225.2,225.4 225.2,225.6 225.1,225.6 225.1,225.8 224.9,225.8 224.9,226 224.7,226 224.7,226.2 
	224.5,226.2 224.5,226.3 224.2,226.3 224.2,226.5 222.3,226.5 222.3,226.7 221.9,226.7 221.9,227.1 221.2,227.1 221.2,227.3 
	220.9,227.3 220.9,227.5 220.8,227.5 220.8,227.6 220.6,227.6 220.6,228.6 220.5,228.6 220.5,228.7 220.2,228.7 220.2,228.9 
	219.9,228.9 219.9,229.1 219.8,229.1 219.8,229.3 219.7,229.3 219.7,229.7 219.4,229.7 219.4,229.9 219.2,229.9 219.2,230 
	219.1,230 219.1,230.2 219,230.2 219,230.4 218.7,230.4 218.7,230.6 218.6,230.6 218.6,230.8 218.4,230.8 218.4,231 218.1,231 
	218.1,231.2 218,231.2 218,231.3 217.9,231.3 217.9,231.5 217.7,231.5 217.7,231.7 217.6,231.7 217.6,231.9 217.4,231.9 
	217.4,232.3 217.3,232.3 217.3,232.4 217.2,232.4 217.2,232.6 217,232.6 217,232.8 216.9,232.8 216.9,233 216.8,233 216.8,233.2 
	216.6,233.2 216.6,233.4 216.5,233.4 216.5,233.6 216.1,233.6 216.1,233.7 215,233.7 215,233.9 214.5,233.9 214.5,234.1 
	214.1,234.1 214.1,234.3 214,234.3 214,234.5 213.7,234.5 213.7,234.7 213.6,234.7 213.4,234.7 213.4,235 213.3,235 213.1,235 
	213.1,235.2 212.7,235.2 212.7,235.4 212.6,235.4 212.6,235.6 212.5,235.6 212.5,236 212.3,236 212.3,236.1 212.2,236.1 
	212.2,236.5 212,236.5 212,237.1 211.9,237.1 211.9,237.6 211.8,237.6 211.8,238.2 211.6,238.2 211.6,238.7 211.5,238.7 
	211.5,239.3 211.3,239.3 211.3,239.5 211.2,239.5 211.2,239.8 211.1,239.8 211.1,240.4 210.9,240.4 210.9,240.8 210.8,240.8 
	210.8,241.3 210.7,241.3 210.7,241.5 210.4,241.5 210.4,241.7 210.2,241.7 210.2,241.9 209.7,241.9 209.7,241.5 209.5,241.5 
	209.5,241.3 208.6,241.3 208.6,241.5 208.3,241.5 208.3,241.7 208.4,241.7 208.4,242.1 208.3,242.1 208.3,242.4 208.2,242.4 
	208.2,242.6 207.2,242.6 207.2,242.4 206.6,242.4 206.6,242.2 206.5,242.2 206.5,242.1 206.4,242.1 206.4,241.7 206.1,241.7 
	206.1,241.5 205.9,241.5 205.9,241.7 205.7,241.7 205.7,241 205.5,241 205.5,240.8 205.4,240.8 205.4,240.6 205,240.6 205,240.4 
	204.8,240.4 204.8,240.6 204.6,240.6 204.6,241 204.4,241 204.4,241.1 204.1,241.1 204.1,241.3 203.9,241.3 203.9,241.5 
	203.4,241.5 203.4,241.7 201.6,241.7 201.6,241.9 201.2,241.9 201.2,242.1 200.7,242.1 200.7,242.2 199.7,242.2 199.7,242.4 
	199.6,242.4 199.6,242.6 199.3,242.6 199.3,242.2 198.9,242.2 198.9,242.1 198.7,242.1 198.7,241.9 197.1,241.9 197.1,242.1 
	196.9,242.1 196.9,242.6 196.6,242.6 196.6,242.4 196.5,242.4 196.5,242.2 196.4,242.2 196.4,241.9 196.1,241.9 196.1,241.7 
	195.3,241.7 195.3,242.1 195.1,242.1 195.1,242.2 195,242.2 195,242.8 194.7,242.8 194.7,243 194.6,243 194.6,243.2 194.3,243.2 
	194.3,243 194.2,243 194.2,242.8 194,242.8 194,242.6 193.6,242.6 193.6,242.8 193.2,242.8 193.2,243 193,243 193,243.2 
	192.8,243.2 192.8,243.5 192.6,243.5 192.6,243.7 192.5,243.7 192.5,243.9 192.3,243.9 192.3,244.1 192.2,244.1 192.2,244.3 
	191.9,244.3 191.9,244.5 191.8,244.5 191.8,244.7 191.7,244.7 191.7,244.8 191.5,244.8 191.5,245.2 191.1,245.2 191.1,245.4 
	190.7,245.4 190.7,245.6 190.5,245.6 190.5,246.9 190.7,246.9 190.7,247.8 190.5,247.8 190.5,248 189.2,248 189.2,248.2 
	188.9,248.2 188.9,248.3 188.7,248.3 188.7,248.7 188.6,248.7 188.6,248.9 188.3,248.9 188.3,249.1 188.2,249.1 188.2,249.3 
	188.1,249.3 188.1,249.5 187.9,249.5 187.9,249.6 187.8,249.6 187.8,249.8 187.6,249.8 187.6,250 187.4,250 187.4,250.2 
	187.2,250.2 187.2,250.4 187.1,250.4 187.1,250.2 186.8,250.2 186.8,250 186.7,250 186.7,249.8 186.5,249.8 186.5,249.6 
	186.2,249.6 186.2,249.5 186,249.5 186,249.6 185.6,249.6 185.6,249.8 185.3,249.8 185.3,250 184.7,250 184.7,250.2 184.6,250.2 
	184.6,250.4 184.3,250.4 184.3,250.8 183.6,250.8 183.6,250.6 183.3,250.6 183.3,250.4 183.1,250.4 183.1,250.2 182.8,250.2 
	182.8,250 182.6,250 182.6,249.8 182.4,249.8 182.4,249.6 182.2,249.6 182.2,249.5 181.9,249.5 181.9,249.3 181.5,249.3 
	181.5,249.1 181.3,249.1 181.3,248.9 181.1,248.9 181.1,248.7 180.8,248.7 180.8,248.5 178.9,248.5 178.9,248.7 178.6,248.7 
	178.6,248.9 178.5,248.9 178.5,249.1 178.2,249.1 178.2,249.3 177.8,249.3 177.8,249.5 177.5,249.5 177.5,249.6 177.2,249.6 
	177.2,249.8 177.1,249.8 177.1,250 177,250 177,250.2 176.8,250.2 176.8,250.4 176.7,250.4 176.7,250.6 176.4,250.6 176.4,250.8 
	176.3,250.8 176.3,250.9 176,250.9 175.7,250.9 175.7,251.1 175.6,251.1 175.6,251.3 175.4,251.3 175.4,251.5 175.3,251.5 
	175.3,251.9 175.4,251.9 175.4,252 175.6,252 175.6,252.2 175.7,252.2 175.7,252.2 175.7,252.6 175.8,252.6 175.8,253 176,253 
	176,253.2 175.8,253.2 175.8,253.3 176,253.3 176,253.5 175.8,253.5 175.8,253.9 175.7,253.9 175.7,254.1 175.6,254.1 175.6,254.4 
	175.4,254.4 175.4,254.8 175.3,254.8 175.3,255 175.2,255 175.2,255.2 175,255.2 175,255.4 174.9,255.4 174.7,255.4 174.7,255.6 
	174.6,255.6 174.6,255.7 174.5,255.7 174.5,255.9 173.6,255.9 173.6,256.1 173.5,256.1 173.5,256.3 173.2,256.3 173.2,257.4 
	173.4,257.4 173.4,258.5 173.2,258.5 173.2,258.7 173.4,258.7 173.4,258.9 173.2,258.9 173.2,259.1 173.4,259.1 173.4,259.6 
	173.6,259.6 173.6,259.8 173.8,259.8 173.8,260 174,260 174,260.6 173.9,260.6 173.9,261.3 173.8,261.3 173.8,261.7 173.6,261.7 
	173.6,262 173.5,262 173.5,262.4 173.4,262.4 173.4,262.8 173.2,262.8 173.2,263.1 173.1,263.1 173.1,263.9 172.9,263.9 
	172.9,264.2 173.2,264.2 173.2,264.4 173.4,264.4 173.4,264.8 173.5,264.8 173.5,265.2 173.6,265.2 173.6,265.5 173.8,265.5 
	173.8,265.9 174,265.9 174,266.1 174.2,266.1 174.2,266.3 174.3,266.3 174.3,266.7 174.2,266.7 174.2,267 174.3,267 174.3,267.4 
	174.5,267.4 174.5,267.9 174.7,267.9 174.7,268.5 174.9,268.5 174.9,268.7 175,268.7 175,268.9 175.4,268.9 175.4,269.1 177,269.1 
	177,269.2 177.5,269.2 177.5,269.4 177.7,269.4 177.7,269.6 177.9,269.6 177.9,269.4 178.2,269.4 178.2,269.2 178.3,269.2 
	178.3,269.1 178.5,269.1 178.5,268.7 178.8,268.7 178.8,268.5 178.9,268.5 178.9,268.3 179.3,268.3 179.3,268.1 179.5,268.1 
	179.5,267.9 180.1,267.9 180.1,267.8 180.6,267.8 180.6,267.9 180.8,267.9 180.8,268.1 181.3,268.1 181.3,268.3 181.8,268.3 
	181.8,268.5 182.4,268.5 182.4,269.1 182.5,269.1 182.5,269.2 182.4,269.2 182.4,269.8 182.2,269.8 182.2,270.3 182.4,270.3 
	182.4,270.9 182.2,270.9 182.2,271.1 182.4,271.1 182.4,272 182.5,272 182.5,272.4 182.6,272.4 182.6,272.6 182.8,272.6 
	182.8,272.8 183.1,272.8 183.1,272.9 183.3,272.9 183.3,272.6 183.5,272.6 183.5,272.4 183.6,272.4 183.6,272 184.3,272 
	184.3,272.2 184.4,272.2 184.4,272.4 184.6,272.4 184.6,272.6 184.9,272.6 184.9,272.8 185.1,272.8 185.1,272.9 185.3,272.9 
	185.3,273.3 186,273.3 186,273.5 186.2,273.5 186.2,273.7 186.7,273.7 186.7,273.9 186.8,273.9 186.8,274 186.9,274 186.9,274.2 
	187.1,274.2 187.1,274.6 187.2,274.6 187.2,275 187.4,275 187.4,276.1 187.5,276.1 187.5,277.6 187.6,277.6 187.6,279.9 
	187.6,280.1 187.5,280.1 187.5,280.6 187.5,280.7 187.4,280.7 187.4,280.9 186.1,280.9 186.1,280.7 186,280.7 186,280.5 
	185.7,280.5 185.7,280.7 185.1,280.7 185.1,280.9 184.9,280.9 184.9,281.1 184.7,281.1 184.7,281.6 185,281.6 185,281.8 
	185.1,281.8 185.1,282.2 185.3,282.2 185.3,282.4 185.4,282.4 185.4,282.2 185.6,282.2 185.6,282 186,282 186,281.8 186.7,281.8 
	186.7,282 186.8,282 186.8,282.2 186.9,282.2 186.9,282.4 186.7,282.4 186.7,282.6 186.5,282.6 186.5,282.9 186.4,282.9 
	186.4,283.5 186.2,283.5 186.2,284.2 186.1,284.2 186.1,284.4 186,284.4 186,284.8 185.1,284.8 185.1,284.6 185,284.6 185,284.4 
	184.7,284.4 184.7,283.8 184.6,283.8 184.6,283.5 184.4,283.5 184.4,283.3 184.2,283.3 184.2,283.1 183.8,283.1 183.8,283.3 
	183.3,283.3 183.3,283.5 181.8,283.5 181.8,283.8 181.3,283.8 181.3,283.5 181.1,283.5 181.1,283.3 181,283.3 181,281.8 
	180.8,281.8 180.8,281.6 180.6,281.6 180.6,281.4 180.4,281.4 180.4,280.9 180.3,280.9 180.3,280.7 180.1,280.7 180.1,280.5 
	180,280.5 180,280.3 179.6,280.3 179.6,280.1 179.3,280.1 179.3,280 179.2,280 179.2,279.4 179.3,279.4 179.3,279.2 179,279.2 
	179,278.9 178.8,278.9 178.8,279.2 178.5,279.2 178.5,279.8 178.6,279.8 178.6,280.3 178.8,280.3 178.8,280.9 178.9,280.9 
	178.9,281.3 179,281.3 179,281.4 179.2,281.4 179.2,282 179.5,282 179.5,282.4 179.6,282.4 179.6,282.6 179.7,282.6 179.7,282.9 
	179.9,282.9 179.9,283.1 180,283.1 180,283.5 180.1,283.5 180.1,283.8 180.3,283.8 180.3,284.2 180.4,284.2 180.4,284.4 
	180.6,284.4 180.6,285 180.7,285 180.7,285.5 181,285.5 181,285.9 181.1,285.9 181.1,286.2 181.3,286.3 181.3,286.8 181.1,286.8 
	181.1,287.2 181,287.2 181,287.4 180.8,287.4 180.8,287.9 180.7,287.9 180.7,288.5 180.8,288.5 180.8,288.7 180.7,288.7 180.7,289 
	180.6,289 180.6,289.4 180.4,289.4 180.4,291.1 180.6,291.1 180.6,291.8 180.4,291.8 180.4,292.5 180.6,292.5 180.6,293.1 
	180.4,293.1 180.4,293.3 180.3,293.3 180.3,293.6 180.1,293.6 180.1,294 180,294 180,294.8 180.1,294.8 180.1,295.7 180,295.7 
	180,295.9 179.9,295.9 179.9,296 179.7,296 179.7,296.2 179.6,296.2 179.6,296.4 179.5,296.4 179.5,296.6 179.3,296.6 179.3,296.8 
	179,296.8 179,297.2 178.9,297.2 178.9,297.5 178.8,297.5 178.8,297.7 178.9,297.7 178.9,297.9 179,297.9 179,298.1 179.2,298.1 
	179.2,298.3 179.3,298.3 179.3,298.5 179.5,298.5 179.5,303.3 179.6,303.3 179.6,303.6 179.7,303.6 179.7,304.4 179.6,304.4 
	179.6,304.7 179.5,304.7 179.5,305.1 179.3,305.1 179.3,305.3 179.2,305.3 179.2,305.5 179,305.5 179,305.8 178.9,305.8 
	178.9,306.8 179,306.8 179,307.7 178.9,307.7 178.9,308.1 178.8,308.1 178.8,308.3 178.6,308.3 178.6,308.6 178.5,308.6 
	178.5,310.1 178.6,310.1 178.6,310.3 178.5,310.3 178.5,310.7 178.6,310.7 178.6,310.8 178.8,310.8 178.8,311.2 178.9,311.2 
	178.9,311.6 179,311.6 179,311.9 179.2,311.9 179.2,312.1 179.5,312.1 179.5,312.3 179.6,312.3 179.6,312.5 179.9,312.5 
	179.9,312.7 180.4,312.7 180.4,312.9 180.7,312.9 180.7,313.1 180.8,313.1 180.8,313.2 181,313.2 181,313.4 181.1,313.4 
	181.1,313.6 181.5,313.6 181.5,313.8 181.8,313.8 181.8,314 181.9,314 181.9,314.2 182.1,314.2 182.1,314.7 182.2,314.7 
	182.2,316.6 182.1,316.6 182.1,316.8 181.9,316.8 181.9,317.9 181.8,317.9 181.8,318.2 181.8,318.4 181.7,318.4 181.7,318.8 
	181.5,318.8 181.5,319.2 181.4,319.2 181.4,319.3 181.3,319.3 181.3,319.5 181.1,319.5 181.1,319.9 181,319.9 181,320.3 
	180.9,320.3 180.8,320.3 180.8,320.6 180.7,320.6 180.7,320.8 180.6,320.8 180.6,321 180.5,321 180.3,321 180.3,321.3 180.3,321.4 
	180.2,321.4 180.1,321.4 180.1,321.6 180,321.6 180,321.7 179.9,321.7 179.9,321.9 179.7,321.9 179.7,322.1 179.6,322.1 
	179.6,322.5 179.5,322.5 179.5,322.7 179.3,322.7 179.3,322.9 179.2,322.9 179.2,323 179,323 179,323.2 178.9,323.2 178.9,323.4 
	178.8,323.4 178.8,323.6 178.6,323.6 178.6,323.8 178.5,323.8 178.5,324 178.3,324 178.3,324.1 178.3,324.1 178.3,324.1 
	178.2,324.1 178.2,324.3 178.1,324.3 178.1,324.5 177.9,324.5 177.9,324.7 177.8,324.7 177.8,324.9 177.5,324.9 177.5,325.1 
	177.4,325.1 177.4,325.3 177.1,325.3 177.1,325.4 177,325.4 177,325.6 176.7,325.6 176.7,325.8 176.5,325.8 176.5,326 176.3,326 
	176.3,326.2 176.1,326.2 176.1,326.4 176,326.4 176,326.6 175.8,326.6 175.8,326.7 175.7,326.7 175.7,326.9 175.4,326.9 
	175.4,327.1 175.3,327.1 175.3,327.3 175,327.3 175,327.5 174.7,327.5 174.7,327.7 174.5,327.7 174.5,327.8 174.3,327.8 174.3,328 
	174,328 174,328.2 173.9,328.2 173.9,328.6 173.8,328.6 173.8,329 173.6,329 173.6,329.3 173.5,329.3 173.5,329.5 173.2,329.5 
	173.2,329.7 173.1,329.7 173.1,329.9 172.8,329.9 172.8,330.1 172.5,330.1 172.5,330.3 172.4,330.3 172.4,330.4 172.2,330.4 
	172.2,330.6 172.1,330.6 172.1,330.8 172,330.8 172,331 171.7,331 171.7,331.2 171.5,331.2 171.5,331.4 171.3,331.4 171.3,331.9 
	171,331.9 171,332.1 170.9,332.1 170.9,332.3 170.7,332.3 170.7,332.5 170.6,332.5 170.6,332.3 170.6,332.3 170.4,332.3 
	170.4,331.7 170,331.7 170,331.5 169.7,331.5 169.7,331.4 169.6,331.4 169.6,331 169.9,331 169.9,330.8 170,330.8 170,330.6 
	170.2,330.6 170.2,330.4 170.3,330.4 170.3,330.1 169.7,330.1 169.7,330.3 169.6,330.3 169.6,330.4 169.5,330.4 169.5,330.6 
	169.3,330.6 169.3,330.8 169.1,330.8 169.1,331.2 168.9,331.2 168.9,331.7 169.1,331.7 169.1,332.3 169.2,332.3 169.2,332.7 
	169.3,332.7 169.3,333 169.5,333 169.5,333.2 169.6,333.2 169.6,333.9 169.5,333.9 169.5,334.3 169.3,334.3 169.3,334.7 
	169.2,334.7 169.2,334.9 169.1,334.9 169.1,335.1 168.9,335.1 168.9,335.4 168.8,335.4 168.8,336 168.9,336 168.9,336.2 
	169.1,336.2 169.1,337.1 168.9,337.1 168.9,337.3 168.8,337.3 168.8,337.6 168.6,337.6 168.6,337.8 168.5,337.8 168.5,338.2 
	168.6,338.2 168.6,338.9 168.8,338.9 168.8,339.3 169.1,339.3 169.1,339.7 168.8,339.7 168.8,339.9 168.5,339.9 168.5,340.2 
	168.4,340.2 168.4,340.4 168.1,340.4 168.1,340.6 167.9,340.6 167.9,341 167.8,341 167.8,341.2 167.4,341.2 167.4,341.3 
	167.3,341.3 167.3,341.5 167.1,341.5 167.1,341.9 167,341.9 167,342.1 166.7,342.1 166.7,342.3 166.4,342.3 166.4,342.6 
	166.3,342.6 166.3,342.8 165.7,342.8 165.7,343 165.6,343 165.6,343.2 165.2,343.2 165.2,343.6 165,343.6 165,343.7 164.9,343.7 
	164.9,343.9 164.6,343.9 164.6,344.1 163.9,344.1 163.9,344.3 163.8,344.3 163.8,344.7 163.6,344.7 163.6,344.9 163.4,344.9 
	163.4,345 163.2,345 163.2,345.2 163,345.2 163,345.4 162.8,345.4 162.8,345.6 162.5,345.6 162.5,345.8 162.3,345.8 162.3,346 
	162,346 162,346.2 161.7,346.2 161.7,346.3 161.4,346.3 161.4,346.5 161.2,346.5 161.2,346.7 160.7,346.7 160.7,346.9 160.5,346.9 
	160.5,347.1 160.3,347.1 160.3,347.3 160,347.3 160,347.4 159.5,347.4 159.5,347.6 159.3,347.6 159.3,347.8 159.2,347.8 159.2,348 
	159.1,348 159.1,348.2 158.9,348.2 158.9,348.4 158.8,348.4 158.8,348.6 158.7,348.6 158.7,348.7 158.5,348.7 158.5,348.9 
	158.4,348.9 158.4,349.1 158.2,349.1 158.2,349.3 158.1,349.3 158.1,349.5 158,349.5 158,349.7 157.8,349.7 157.8,350 157.7,350 
	157.7,350.4 157.4,350.4 157.4,350.6 157,350.6 157,351.3 156.9,351.3 156.9,351.5 156.6,351.5 156.6,351.7 156.2,351.7 
	156.2,351.9 156,351.9 156,352.1 155.7,352.1 155.7,352.6 155.6,352.6 155.6,352.4 155,352.4 155,352.6 154.9,352.6 154.9,352.8 
	154.6,352.8 154.6,353.2 154.5,353.2 154.5,353.4 154.2,353.4 154.2,353.5 153.8,353.5 153.8,353.7 153.2,353.7 153.2,353.9 
	153.1,353.9 153.1,354.1 153,354.1 153,354.8 152.8,354.8 152.8,355 152.6,355 152.6,355.2 152,355.2 152,355.4 151.6,355.4 
	151.6,355.6 151.5,355.6 151.3,355.6 151.3,355.8 151.2,355.8 151.2,356 151.1,356 150.9,356 150.9,356.3 150.8,356.3 150.8,356.7 
	150.6,356.7 150.6,356.9 150.3,356.9 150.3,357.1 150.1,357.1 150.1,357.4 149.9,357.4 149.9,357.8 149.8,357.8 149.8,360 
	149.6,360 149.6,360.4 149.9,360.4 149.9,360.6 150.1,360.6 150.1,361.7 149.9,361.7 149.9,362.5 149.9,363 149.8,363 149.8,363.3 
	149.6,363.3 149.6,363.7 149.5,363.7 149.5,364.1 149.4,364.1 149.4,364.5 149.2,364.5 149.2,364.6 149.1,364.6 149.1,365 
	148.8,365 148.8,365.6 148.7,365.6 148.7,366.1 148.5,366.1 148.5,366.9 148.4,366.9 148.4,367.2 148.3,367.2 148.3,367.6 
	148.1,367.6 148.1,367.8 148,367.8 148,368 147.7,368 147.7,368.2 147.6,368.2 147.6,368.3 147.4,368.3 147.4,368.5 147.1,368.5 
	147.1,368.7 146.7,368.7 146.7,368.9 146.5,368.9 147.1,369.5 187.3,411.2 192.9,417.4 196.8,422.5 209.6,423.6 226.2,423.9 
	242.4,423.7 252.8,424.4 258.7,425.7 265.8,429 269.4,430.3 277.1,431.5 289.1,431.8 345.2,431.5 357.1,431.7 365.3,432.3 
	371.1,433.6 380.1,437.6 383.9,438.6 389.9,439.2 406.3,439.8 412.3,440.5 416.1,441.4 425,445.4 428.9,446.4 433,447 443.5,447.4 
	503.3,447.4 522.7,447.7 522,439.5 521.7,431.2 521.7,421 522.2,415 523.4,409.3 526.9,401.7 528,398.4 528.7,394.8 530,381.9 
	531.5,376.7 535.2,369.2 538.1,362.6 540.1,359.5 543.7,355.1 547.9,351.2 550.9,349 560.1,344.1 566.9,338.9 575.1,330.6 578,328 
	580.9,325.8 584.1,324 590.3,321.2 597.5,317 603.8,314.3 612.4,309.3 618.8,306.4 626,302.4 627.5,301.8 631,300.9 636.4,300.3 
	643.8,300.3 653.5,301.2 "/>
</svg>
